<?xml version="1.0" encoding="utf-8"?>
<!-- Generator: Adobe Illustrator 22.1.0, SVG Export Plug-In . SVG Version: 6.00 Build 0)  -->
<svg version="1.1" id="Layer_1" xmlns="http://www.w3.org/2000/svg" xmlns:xlink="http://www.w3.org/1999/xlink" x="0px" y="0px"
	 viewBox="0 0 206 206" style="enable-background:new 0 0 206 206;" xml:space="preserve">
<style type="text/css">
	.st0{fill:none;}
	.st1{fill:#02BBB9;}
	.st2{fill:#FFFFFF;}
</style>
<g>
	<path class="st0" d="M116.8,83.6l1.4,3.1l-2.6-3.6l-6.8-9.7c-0.1-0.1-0.2-0.2-0.4-0.2c-0.2,0-0.3,0-0.4,0.2l-6.8,9.7l-2.6,3.7
		l1.4-3.1c-5.6,3-9.4,8.9-9.4,15.7c0,2.9,0.7,5.6,1.9,8l2.6-7l-1.9,8.2c2.6,4.2,6.8,7.3,11.9,8.3l-2.1-2.1l3.7,2.3l1.6,1
		c0,0,0,0,0.1,0c0,0,0,0,0,0c0,0,0.1,0,0.1,0c0,0,0,0,0,0h0c0,0,0.1,0,0.1,0c0,0,0,0,0,0c0,0,0,0,0.1,0h0l1.5-1l3.7-2.3l-2.2,2.1
		c5-1,9.3-4.1,11.9-8.3l-1.9-8.2l2.6,7c1.2-2.4,1.9-5.1,1.9-8C126.2,92.6,122.4,86.7,116.8,83.6z M108.8,75l8.6,12.3l-2.2,7.1
		l-6.4-11.1c0-0.1,0-0.2-0.1-0.2V75z M108.3,84.3l6.5,11.3l-3.9,12.6h-5.1l-4-12.6L108.3,84.3z M107.9,75.1v8c0,0,0,0.1,0,0.2
		l-6.4,11.1l-2.2-7.1L107.9,75.1z M98.8,89l2,6.5L95,105.6L98.8,89z M94.6,108.1l6.6-11.5l3.6,11.5H94.6z M95.4,109h9.7l2.4,7.6
		L95.4,109z M108.3,116.2l-2.3-7.2h4.5L108.3,116.2z M109.2,116.6l2.4-7.6h9.7L109.2,116.6z M122,108.1h-10.2l3.6-11.5L122,108.1z
		 M115.8,95.4l2-6.5l3.8,16.7L115.8,95.4z"/>
	<polygon points="98.8,89 95,105.6 100.8,95.4 	"/>
	<polygon points="101.2,96.6 94.6,108.1 104.8,108.1 	"/>
	<polygon points="95.4,109 107.5,116.6 105.1,109 	"/>
	<path d="M107.8,83.3c0-0.1,0-0.1,0-0.2v-8l-8.6,12.2l2.2,7.1L107.8,83.3z"/>
	<polygon points="106.1,109 108.3,116.2 110.6,109 	"/>
	<polygon points="105.8,108.1 110.9,108.1 114.8,95.6 108.3,84.3 101.8,95.6 	"/>
	<path d="M115.2,94.4l2.2-7.1L108.8,75v8c0,0.1,0.1,0.2,0.1,0.2L115.2,94.4z"/>
	<polygon points="109.2,116.6 121.2,109 111.6,109 	"/>
	<polygon points="115.8,95.4 121.7,105.6 117.9,89 	"/>
	<polygon points="111.8,108.1 122,108.1 115.4,96.6 	"/>
	<path d="M179.3,78.9V65.3H82.9v15c0,0-0.4-3.1-1.6-11.8h-9.7l-1,23.4c-0.7-7.7-0.9-14.3-0.9-19.2c-23.5,3.6-39.6,0.9-41.3,0.6
		c22,2,34.7-1,39.8-2.7H15.6c24,27.7,55,25.5,55,25.5v2h13c8.3,6.5,6.7,13.1,6.7,13.1c-3.5,10.1-15.9,9.3-15.9,9.3l-6.3,7.8
		c4.4-0.3,11.6-2.1,21-11.8c-0.5,0.9-8.5,15-23.3,16v9.4h19.9c0,0,6.1-8.8,23.7-8.6c17.7,0.2,23.4,8.6,23.4,8.6h20v-9.2
		c-13.5-0.6-25.8-16.2-25.8-16.2c11.8,10.2,20.5,12.4,25.1,12.7l-8-8.7c-24,0.5-16.4-18.7-16.4-18.7C140,78.9,179.3,78.9,179.3,78.9
		z M124.3,107.4l-2.6-7l1.9,8.2c-2.6,4.2-6.9,7.3-11.9,8.3l2.2-2.1l-3.7,2.3l-1.5,1h0c0,0,0,0-0.1,0c0,0,0,0,0,0c0,0-0.1,0-0.1,0h0
		c0,0,0,0,0,0c0,0-0.1,0-0.1,0c0,0,0,0,0,0c0,0,0,0-0.1,0l-1.6-1l-3.7-2.3l2.1,2.1c-5-1-9.3-4.1-11.9-8.3l1.9-8.2l-2.6,7
		c-1.2-2.4-1.9-5.1-1.9-8c0-6.8,3.8-12.7,9.4-15.7l-1.4,3.1l2.6-3.7l6.8-9.7c0.1-0.1,0.3-0.2,0.4-0.2c0.1,0,0.3,0.1,0.4,0.2l6.8,9.7
		l2.6,3.6l-1.4-3.1c5.6,3,9.4,8.9,9.4,15.7C126.2,102.2,125.5,105,124.3,107.4z"/>
</g>
</svg>
