<?xml version="1.0" encoding="utf-8"?>
<!-- Generator: Adobe Illustrator 21.0.0, SVG Export Plug-In . SVG Version: 6.00 Build 0)  -->
<svg version="1.1" id="Layer_1" xmlns="http://www.w3.org/2000/svg" xmlns:xlink="http://www.w3.org/1999/xlink" x="0px" y="0px"
	 viewBox="0 0 800 800" style="enable-background:new 0 0 800 800;" xml:space="preserve">
<style type="text/css">
	.st0{fill:#FFFFFF;}
</style>
<g>
	<g>
		<path class="st0" d="M43.7,58.6c234.1,0,468.1,0,702.3,0c0,216.6,0,433.2,0,650c-234,0-468.1,0-702.3,0
			C43.7,492,43.7,275.3,43.7,58.6z M183,657.3C183,657.3,183,657.3,183,657.3c0,11.9,0,23.8,0,35.7c0,12.2,0.9,12.9,13.2,11.5
			c0.7-0.1,1.4,0,2.1,0c90.4,0.4,180.8,0.7,271.2,1.1c6.6,0,13.2-0.3,19.7,0.1c6,0.4,11-1.5,16-4.5c17.3-10.3,34.8-20.5,52.2-30.7
			c30.8-17.9,61.6-35.7,92.3-53.8c2.1-1.2,3.9-3.7,4.8-6c9.1-23.2,18-46.5,27-69.8c19.8-51.3,39.5-102.7,59.6-153.9
			c2-5.1,1.8-9.3-0.2-14.2c-11.2-27.7-22.2-55.5-33.3-83.3c-17.2-43-34.5-86.1-51.6-129.1c-2.2-5.5-5.6-9.4-10.8-12.4
			c-46.4-26.4-92.6-53-138.9-79.4c-5.2-3-10.3-5.8-16.7-5.9c-35.3-0.2-70.6-0.7-106-1c-55.2-0.5-110.4-0.8-165.7-1.3
			c-8.5-0.1-17.1,0.1-25.6-0.5c-10.2-0.8-12.5,0.8-12.3,11c0.7,24.6,1.5,49.3,2.1,73.9c0.1,3-0.9,6.3-2.4,8.9
			c-11.2,19.3-22.7,38.4-34.2,57.6c-21.9,36.6-43.9,73.2-65.9,109.8c-10.8,17.9-21.9,35.5-32.8,53.3c-2.1,3.5-2.6,7.1-0.3,11
			c16,26.5,32,53.1,47.9,79.7c26.8,44.9,53.3,89.9,80.2,134.7c5.7,9.5,9.7,18.9,8.6,30.4C182.2,639.2,183,648.3,183,657.3z"/>
		<path d="M183,657.3c0-9.1-0.7-18.2,0.2-27.2c1.1-11.5-2.9-20.9-8.6-30.4C147.7,555,121.1,510,94.4,465.1
			c-15.9-26.6-31.9-53.2-47.9-79.7c-2.4-3.9-1.9-7.5,0.3-11c10.9-17.8,22.1-35.5,32.8-53.3c22.1-36.5,44-73.2,65.9-109.8
			c11.5-19.1,22.9-38.3,34.2-57.6c1.5-2.6,2.4-5.9,2.4-8.9c-0.5-24.6-1.4-49.3-2.1-73.9c-0.3-10.1,2.1-11.8,12.3-11
			c8.5,0.7,17,0.5,25.6,0.5c55.2,0.4,110.4,0.8,165.7,1.3c35.3,0.3,70.6,0.8,106,1c6.4,0,11.6,2.9,16.7,5.9
			c46.3,26.5,92.5,53.1,138.9,79.4c5.3,3,8.7,6.9,10.8,12.4c17.2,43.1,34.4,86.1,51.6,129.1c11.1,27.8,22.1,55.6,33.3,83.3
			c2,4.9,2.2,9.1,0.2,14.2c-20,51.2-39.8,102.6-59.6,153.9c-9,23.3-17.9,46.6-27,69.8c-0.9,2.3-2.7,4.8-4.8,6
			c-30.7,18-61.5,35.8-92.3,53.8c-17.4,10.2-34.9,20.4-52.2,30.7c-5,3-10,4.9-16,4.5c-6.5-0.5-13.1-0.1-19.7-0.1
			c-90.4-0.3-180.8-0.7-271.2-1.1c-0.7,0-1.4-0.1-2.1,0C183.8,706,183,705.2,183,693C183,681.1,183,669.2,183,657.3
			C183,657.3,183,657.3,183,657.3z M510.8,531c-1.5-99-3-197-4.5-295.8c-144.6,48.6-288.3,96.9-432,145.3c0,0.5,0,1,0,1.5
			C219.5,431.5,364.6,481.1,510.8,531z M70.5,395.7c1,2.1,1.3,2.9,1.7,3.6c28.5,47.6,56.9,95.1,85.5,142.7
			c11.8,19.6,23.6,39.1,35.4,58.7c1.4,2.4,2.8,2.9,5.6,2.3c13.9-3.2,27.9-6.3,41.9-9.2c39.9-8.4,79.8-16.7,119.6-25.2
			c35.7-7.6,71.4-15.3,107.1-22.9c5.7-1.2,11.3-2.6,16.9-3.9c0-0.4,0-0.9,0-1.3C346.6,492.3,209.2,444.2,70.5,395.7z M486.3,223.5
			c-2.1-0.9-2.8-1.4-3.7-1.6c-42.6-9-85.2-17.9-127.8-27c-51.2-10.9-102.4-21.9-153.6-33.2c-4-0.9-5.7,0.2-7.6,3.3
			c-14.5,24.1-29,48.2-43.6,72.3c-19.7,32.7-39.5,65.5-59.2,98.2c-5.4,9-10.8,18.1-17.1,28.6C211.8,317,348.4,270.5,486.3,223.5z
			 M527,525.4c64.8-47.7,128.8-94.9,193.5-142.6c-65.8-48.7-131-96.9-196.9-145.6C524.7,333.9,525.9,429.1,527,525.4z M509.4,557
			c-0.5-0.3-1.1-0.6-1.6-0.9c-93.6,44.4-187.2,88.9-280.8,133.3c0.2,0.3,0.3,0.6,0.5,1c85.7,0,171.4,0,258,0
			C493.4,645.8,501.4,601.4,509.4,557z M487.2,79.5c-89.1-1.7-177-3.4-265-5.1c-0.1,0.4-0.1,0.8-0.2,1.1
			c93.4,44.2,186.8,88.4,281.6,133.2C498.1,164.9,492.6,122.3,487.2,79.5z M527.2,222.8c64.4,46.7,127.9,92.6,191.3,138.6
			c0.2-0.3,0.5-0.5,0.7-0.8c-25.5-64.3-51-128.6-76.6-193.4C604,185.8,566,204.1,527.2,222.8z M716.3,405.2c-0.3-0.3-0.7-0.5-1-0.8
			C654.6,450,594,495.5,532.8,541.6c36.8,19.5,73.1,38.6,109.5,57.9C667.1,534.3,691.7,469.8,716.3,405.2z M461.5,562.8
			c-0.2-0.3-0.3-0.7-0.5-1c-87.8,18.4-175.6,36.8-262.8,55.1c0,23.3,0,45.6,0,68.9C286.6,644.5,374.1,603.7,461.5,562.8z M447.2,199
			c0.1-0.2,0.3-0.5,0.4-0.7c-83.8-39.9-167.7-79.7-252.3-120c0.3,5.8,0.7,10.6,0.8,15.3c0.4,16.3,0.7,32.6,1.4,48.9
			c0.1,1.5,1.8,4,3.1,4.3c40,8.7,79.9,17.2,119.9,25.7C362.7,181.4,405,190.2,447.2,199z M526.8,555.4
			c-9.6,42.5-18.1,84.7-23.9,128.2c43.5-24.7,86.1-48.8,129.3-73.4C596.7,591.7,561.9,573.6,526.8,555.4z M519.2,209.2
			c37.6-17.4,74.4-34.5,112.7-52.3c-43.3-23.5-85.2-46.2-128-69.5C509.1,128.5,514.1,168.4,519.2,209.2z"/>
		<path class="st0" d="M510.8,531c-146.2-49.9-291.3-99.5-436.5-149c0-0.5,0-1,0-1.5c143.7-48.3,287.4-96.6,432-145.3
			C507.8,334,509.3,432,510.8,531z"/>
		<path class="st0" d="M70.5,395.7c138.7,48.5,276.2,96.6,413.7,144.6c0,0.4,0,0.9,0,1.3c-5.6,1.3-11.3,2.7-16.9,3.9
			c-35.7,7.7-71.4,15.4-107.1,22.9c-39.9,8.5-79.8,16.8-119.6,25.2c-14,3-27.9,6-41.9,9.2c-2.7,0.6-4.2,0.1-5.6-2.3
			c-11.7-19.6-23.6-39.1-35.4-58.7c-28.5-47.5-57-95.1-85.5-142.7C71.7,398.6,71.5,397.8,70.5,395.7z"/>
		<path class="st0" d="M486.3,223.5c-137.9,47-274.5,93.5-412.6,140.6c6.3-10.5,11.7-19.6,17.1-28.6c19.7-32.7,39.5-65.5,59.2-98.2
			c14.5-24.1,29.1-48.2,43.6-72.3c1.9-3.1,3.5-4.2,7.6-3.3c51.2,11.3,102.4,22.3,153.6,33.2c42.6,9.1,85.2,18,127.8,27
			C483.4,222.1,484.2,222.6,486.3,223.5z"/>
		<path class="st0" d="M527,525.4c-1.1-96.3-2.3-191.5-3.4-288.2c65.9,48.7,131.1,96.9,196.9,145.6
			C655.8,430.5,591.8,477.7,527,525.4z"/>
		<path class="st0" d="M509.4,557c-8,44.4-16,88.8-24,133.4c-86.6,0-172.3,0-258,0c-0.2-0.3-0.3-0.6-0.5-1
			c93.6-44.4,187.2-88.9,280.8-133.3C508.3,556.3,508.9,556.7,509.4,557z"/>
		<path class="st0" d="M487.2,79.5c5.4,42.8,10.8,85.4,16.4,129.3c-94.8-44.8-188.2-89-281.6-133.2c0.1-0.4,0.1-0.8,0.2-1.1
			C310.2,76.1,398.1,77.7,487.2,79.5z"/>
		<path class="st0" d="M527.2,222.8c38.8-18.7,76.8-36.9,115.5-55.6c25.7,64.8,51.1,129.1,76.6,193.4c-0.2,0.3-0.5,0.5-0.7,0.8
			C655.1,315.4,591.6,269.4,527.2,222.8z"/>
		<path class="st0" d="M716.3,405.2c-24.6,64.5-49.2,129.1-74,194.2c-36.5-19.3-72.7-38.4-109.5-57.9
			c61.2-46,121.9-91.6,182.5-137.2C715.6,404.7,716,405,716.3,405.2z"/>
		<path class="st0" d="M461.5,562.8c-87.4,40.8-174.9,81.7-263.3,123c0-23.3,0-45.6,0-68.9c87.2-18.3,175-36.7,262.8-55.1
			C461.2,562.2,461.3,562.5,461.5,562.8z"/>
		<path class="st0" d="M447.2,199c-42.2-8.8-84.5-17.6-126.7-26.5c-40-8.4-80-17-119.9-25.7c-1.3-0.3-3.1-2.8-3.1-4.3
			c-0.6-16.3-0.9-32.6-1.4-48.9c-0.1-4.8-0.5-9.5-0.8-15.3c84.6,40.2,168.5,80.1,252.3,120C447.5,198.5,447.4,198.8,447.2,199z"/>
		<path class="st0" d="M526.8,555.4c35.2,18.3,69.9,36.3,105.4,54.8c-43.2,24.5-85.8,48.7-129.3,73.4
			C508.7,640,517.2,597.9,526.8,555.4z"/>
		<path class="st0" d="M519.2,209.2c-5.1-40.8-10.1-80.6-15.3-121.8c42.8,23.3,84.7,46,128,69.5
			C593.6,174.6,556.8,191.7,519.2,209.2z"/>
	</g>
</g>
</svg>
