<?xml version="1.0" standalone="no"?>
<!DOCTYPE svg PUBLIC "-//W3C//DTD SVG 20010904//EN"
 "http://www.w3.org/TR/2001/REC-SVG-20010904/DTD/svg10.dtd">
<svg version="1.0" xmlns="http://www.w3.org/2000/svg"
 width="1200.000000pt" height="731.000000pt" viewBox="0 0 1200.000000 731.000000"
 preserveAspectRatio="xMidYMid meet">
<metadata>
Created by potrace 1.15, written by Peter Selinger 2001-2017
</metadata>
<g transform="translate(0.000000,731.000000) scale(0.100000,-0.100000)"
fill="#000000" stroke="none">
<path d="M2770 5635 c30 -42 56 -67 83 -81 15 -8 121 -26 240 -39 306 -35 460
-76 662 -178 242 -121 426 -283 608 -537 11 -16 14 -18 8 -5 -15 33 -118 173
-174 237 -105 122 -286 257 -453 341 -194 98 -366 143 -669 177 -208 23 -232
30 -284 75 -20 16 -29 21 -21 10z"/>
<path d="M2764 5137 c-105 -35 -181 -123 -205 -236 -21 -100 23 -197 109 -244
38 -20 76 -29 192 -42 213 -25 280 -41 381 -92 147 -73 277 -210 335 -355 62
-151 70 -294 29 -513 -30 -164 -31 -206 -6 -261 66 -146 293 -168 436 -43 60
53 81 102 109 249 41 212 51 338 37 468 -30 290 -131 509 -326 707 -182 186
-397 300 -653 349 -117 22 -386 30 -438 13z"/>
<path d="M5041 4495 c-1 -5 6 -45 14 -88 51 -267 39 -560 -40 -942 -18 -86
-54 -139 -125 -182 -96 -59 -209 -53 -297 14 -44 34 -45 34 -25 6 48 -67 101
-92 200 -93 96 0 176 42 227 119 28 42 76 277 96 474 15 138 6 430 -16 552
-16 92 -32 158 -34 140z"/>
<path d="M2750 4214 c-95 -25 -168 -86 -218 -179 -25 -46 -27 -60 -27 -160 0
-96 3 -116 25 -160 37 -76 123 -157 195 -184 73 -28 188 -31 254 -7 189 69
282 296 196 483 -51 111 -128 179 -240 208 -72 18 -113 18 -185 -1z"/>
<path d="M7615 2734 c-386 -69 -629 -336 -652 -716 l-6 -98 -123 0 -124 0 0
-205 0 -205 125 0 125 0 0 -735 0 -735 245 0 245 0 0 735 0 735 270 0 270 0 0
-735 0 -735 250 0 250 0 0 940 0 940 -520 0 c-489 0 -520 1 -520 18 0 9 5 48
10 86 20 133 85 233 177 271 139 58 366 29 514 -66 34 -22 67 -38 73 -36 6 3
44 92 85 197 l74 193 -24 19 c-148 117 -488 178 -744 132z"/>
<path d="M10310 1375 l0 -1335 250 0 249 0 3 603 3 602 29 58 c37 72 118 150
193 185 50 23 71 27 148 27 78 0 97 -4 147 -28 76 -37 122 -100 156 -212 13
-42 16 -149 19 -642 l4 -593 245 0 244 0 0 623 c0 391 -4 645 -11 683 -50 282
-215 486 -460 568 -119 40 -287 47 -411 17 -96 -23 -189 -62 -258 -109 l-45
-31 -3 459 -2 460 -250 0 -250 0 0 -1335z"/>
<path d="M2740 2619 c-180 -21 -393 -99 -540 -199 -150 -102 -288 -262 -377
-436 -59 -116 -86 -190 -120 -334 -37 -155 -44 -454 -15 -625 92 -533 418
-888 922 -1001 108 -25 403 -25 523 -1 508 102 853 464 953 1002 29 154 26
492 -5 635 -86 401 -291 680 -616 841 -219 108 -464 148 -725 118z m360 -448
c236 -82 402 -294 472 -605 25 -110 30 -340 9 -456 -58 -326 -236 -568 -476
-649 -106 -36 -282 -41 -392 -11 -300 81 -506 386 -529 785 -20 339 101 670
304 830 71 57 163 102 245 120 94 22 284 14 367 -14z"/>
<path d="M4985 2613 c-445 -71 -725 -374 -702 -763 10 -165 61 -282 181 -407
118 -125 274 -215 536 -313 223 -82 336 -160 380 -262 19 -44 22 -65 18 -134
-4 -70 -9 -90 -34 -131 -54 -88 -152 -142 -297 -164 -183 -29 -455 34 -636
146 -40 26 -75 44 -77 42 -3 -2 -36 -98 -74 -213 -80 -239 -85 -209 39 -273
263 -137 668 -178 976 -100 283 72 485 246 572 494 26 76 28 89 27 245 0 152
-2 171 -26 237 -47 131 -115 225 -230 316 -100 79 -211 137 -423 222 -313 125
-411 199 -431 323 -22 137 63 252 221 298 43 12 92 17 175 16 151 -1 277 -32
405 -101 l93 -49 71 202 c39 112 71 207 71 213 0 13 -82 57 -166 89 -138 52
-224 65 -439 69 -110 2 -213 1 -230 -2z"/>
<path d="M0 1315 l0 -1275 785 0 785 0 0 215 0 215 -535 0 -535 0 0 340 0 340
480 0 480 0 0 215 0 215 -480 0 -480 0 0 285 0 285 510 0 510 0 0 220 0 220
-760 0 -760 0 0 -1275z"/>
<path d="M9335 1943 c-225 -35 -414 -161 -498 -330 -47 -95 -61 -166 -55 -280
4 -79 10 -102 42 -168 71 -150 212 -259 460 -356 166 -64 213 -89 255 -133 28
-29 35 -45 39 -88 5 -68 -23 -113 -93 -148 -45 -23 -61 -25 -170 -24 -108 0
-129 3 -214 32 -52 18 -131 53 -175 77 l-82 44 -63 -192 c-35 -106 -66 -197
-68 -202 -5 -14 112 -76 202 -108 135 -48 227 -62 405 -61 137 0 180 4 255 22
301 75 477 269 492 542 11 196 -56 344 -209 463 -73 57 -164 104 -323 167
-214 84 -265 124 -265 207 0 39 5 51 38 83 89 89 295 75 486 -35 44 -25 84
-44 89 -42 6 2 39 88 74 191 48 142 61 191 53 201 -22 26 -176 95 -260 115
-84 21 -340 35 -415 23z"/>
<path d="M6298 607 c-102 -29 -176 -108 -204 -219 -38 -146 23 -289 150 -356
44 -23 63 -27 142 -27 81 0 97 3 149 30 134 69 195 235 142 391 -49 144 -220
225 -379 181z"/>
</g>
</svg>
