<?xml version="1.0" encoding="utf-8"?>
<!-- Generator: Adobe Illustrator 19.2.1, SVG Export Plug-In . SVG Version: 6.00 Build 0)  -->
<svg version="1.1" id="Layer_1" xmlns="http://www.w3.org/2000/svg" xmlns:xlink="http://www.w3.org/1999/xlink" x="0px" y="0px"
	 viewBox="0 0 92 56" style="enable-background:new 0 0 92 56;" xml:space="preserve">
<style type="text/css">
	.st0{display:none;fill:#FFFFFF;stroke:#000000;stroke-miterlimit:10;}
	.st1{fill:#29337B;}
	.st2{fill:#B41F24;}
</style>
<rect x="-594" y="-332" class="st0" width="1280" height="720"/>
<g>
	<path class="st1" d="M8.2,55.1C7.7,55.4,7,55.6,6,55.6H1v-9.1h4.7c0.4,0,0.6,0,0.7,0c0.1,0,0.2,0,0.3,0.1c0,0,0.1,0,0.2,0
		c0.4,0.1,0.8,0.2,1.2,0.4c0.4,0.2,0.7,0.5,0.8,1L9,48.5L9,49.2c0,0.3-0.1,0.6-0.4,1c-0.2,0.3-0.6,0.6-1,0.8c0.4,0.2,0.8,0.5,1,0.8
		c0.3,0.3,0.4,0.9,0.4,1.6C9.1,54.1,8.8,54.7,8.2,55.1z M6.6,48.4c-0.2-0.2-0.6-0.3-0.9-0.3H2.9v2.1h2.8c0.4,0,0.7-0.1,0.9-0.2
		C6.9,49.8,7,49.6,7,49.2C7,48.8,6.9,48.5,6.6,48.4z M6.7,52.1c-0.2-0.2-1.5-0.3-3.7-0.3V54h2.8c0.4,0,0.7-0.1,0.9-0.2
		C6.9,53.6,7,53.3,7,52.9C7,52.6,6.9,52.3,6.7,52.1z"/>
	<path class="st1" d="M10.4,55.6v-9.1h1.8v9.1H10.4z"/>
	<path class="st1" d="M19.4,54.8c-0.7,0.7-1.5,1-2.6,1c-1,0-1.9-0.3-2.6-1c-0.7-0.6-1-1.5-1-2.5c0-1,0.3-1.9,1-2.5
		c0.3-0.3,0.7-0.6,1.1-0.7c0.4-0.2,0.9-0.2,1.4-0.2c1.1,0,1.9,0.3,2.6,1c0.7,0.7,1,1.5,1,2.5C20.4,53.3,20.1,54.1,19.4,54.8z
		 M18.1,50.8c-0.3-0.4-0.7-0.6-1.3-0.6c-0.5,0-1,0.2-1.3,0.6c-0.3,0.4-0.4,0.8-0.4,1.4c0,0.6,0.1,1,0.4,1.4c0.3,0.4,0.7,0.6,1.3,0.6
		c0.5,0,1-0.2,1.3-0.6c0.3-0.4,0.4-0.8,0.4-1.4C18.6,51.7,18.4,51.2,18.1,50.8z"/>
	<path class="st1" d="M24.6,55.6l-0.7,0c-0.1,0-0.2,0-0.3,0l-0.4-0.1c-0.7-0.2-1.2-0.6-1.6-1.2c-0.4-0.6-0.5-1.2-0.5-1.9
		c0-0.7,0.2-1.4,0.5-2c0.3-0.6,0.8-1,1.3-1.2c0.6-0.2,1.9-0.2,4.1-0.2v1.5h-1.9c-0.8,0-1.4,0.1-1.7,0.3c-0.4,0.3-0.5,0.8-0.5,1.6
		c0,0.7,0.2,1.2,0.5,1.5c0.3,0.2,1.5,0.4,3.5,0.4v1.4H24.6z"/>
	<path class="st1" d="M32.7,55.6L30,52.4v3.2h-1.8v-9.1H30v5.7l2.9-3.2h2.2L32,52.2l3.1,3.4H32.7z"/>
	<path class="st1" d="M38.9,55.6l-0.7,0c-0.1,0-0.2,0-0.3,0l-0.4-0.1c-0.7-0.2-1.2-0.6-1.6-1.2c-0.4-0.6-0.5-1.2-0.5-1.9
		c0-0.7,0.2-1.4,0.5-2c0.3-0.6,0.8-1,1.3-1.2c0.6-0.2,1.9-0.2,4.1-0.2v1.5h-1.9c-0.8,0-1.4,0.1-1.7,0.3c-0.4,0.3-0.5,0.8-0.5,1.6
		c0,0.7,0.2,1.2,0.5,1.5c0.3,0.2,1.5,0.4,3.5,0.4v1.4H38.9z"/>
	<path class="st1" d="M46.8,55.6v-4c0-0.4-0.1-0.7-0.3-0.9c-0.2-0.2-1-0.3-2.3-0.3v5.2h-1.7v-9.1h1.7v2.4l2,0c0.3,0,0.7,0,0.9,0.1
		c0.3,0.1,0.5,0.2,0.7,0.4c0.5,0.4,0.7,2.4,0.7,6.1H46.8z"/>
	<path class="st1" d="M51.9,55.6c-0.6,0-1.2-0.2-1.5-0.5c-0.4-0.3-0.6-0.9-0.6-1.6c0-0.7,0.3-1.2,0.8-1.6c0.4-0.3,1.8-0.4,4.2-0.4
		c0-0.5-0.2-0.8-0.5-1c-0.2-0.1-1.6-0.2-4.1-0.2v-1.4h3.6c0.9,0,1.6,0.2,2,0.6c0.5,0.4,0.7,2.4,0.7,6.1H51.9z M54.8,52.9h-2.1
		c-0.3,0-0.5,0-0.7,0.1c-0.2,0.1-0.3,0.3-0.3,0.6s0.1,0.5,0.3,0.6c0.1,0.1,0.4,0.1,0.7,0.1h2.2V52.9z"/>
	<path class="st1" d="M58.2,48.1v-1.7H60v1.7H58.2z M58.2,55.6v-6.7H60v6.7H58.2z"/>
	<path class="st1" d="M65.9,55.6v-4c0-0.5-0.1-0.8-0.2-1c-0.1-0.2-0.9-0.2-2.4-0.2v5.2h-1.8v-6.7h3.3c1,0,1.6,0.2,2.1,0.5
		c0.5,0.4,0.7,2.4,0.7,6.2H65.9z"/>
	<path class="st2" d="M72.7,55.6c-1.3,0-2.2-0.3-2.7-0.9c-0.6-0.6-0.8-3.4-0.8-8.2h1.9v5l0,0.6l0,0.6c0.1,0.5,0.3,0.9,0.7,1.1
		c0.3,0.2,1.5,0.3,3.6,0.3v1.5H72.7z"/>
	<path class="st2" d="M78,55.6c-0.6,0-1.2-0.2-1.5-0.5c-0.4-0.3-0.6-0.9-0.6-1.6c0-0.7,0.3-1.2,0.8-1.6c0.4-0.3,1.8-0.4,4.2-0.4
		c0-0.5-0.2-0.8-0.5-1c-0.2-0.1-1.6-0.2-4.1-0.2v-1.4H80c0.9,0,1.6,0.2,2,0.6c0.5,0.4,0.7,2.4,0.7,6.1H78z M81,52.9h-2.1
		c-0.3,0-0.5,0-0.7,0.1c-0.2,0.1-0.3,0.3-0.3,0.6s0.1,0.5,0.3,0.6c0.1,0.1,0.4,0.1,0.7,0.1H81V52.9z"/>
	<path class="st2" d="M90.1,54.7c-0.6,0.6-2.5,0.9-5.8,0.9v-9.1h1.8v2.4l1.4,0h0.4c0.1,0,0.3,0,0.4,0.1c0.2,0,0.5,0.1,0.7,0.1
		c0.5,0.2,0.9,0.4,1.2,0.8c0.3,0.3,0.5,0.7,0.6,1.1c0.1,0.4,0.2,0.9,0.2,1.7C91,53.4,90.7,54.1,90.1,54.7z M88.7,50.8
		c-0.3-0.3-0.8-0.4-1.5-0.4h-1.1v3.8l0.5,0l1.1,0c0.4,0,0.8-0.1,1.1-0.4c0.3-0.3,0.4-0.8,0.4-1.5C89.1,51.6,89,51.1,88.7,50.8z"/>
</g>
<g>
	<g>
		<g>
			<path class="st1" d="M23.4,39.2c-1.3,0-2.4-1.1-2.4-2.4c0-1.3,1.1-2.4,2.4-2.4c1.3,0,2.4,1.1,2.4,2.4
				C25.8,38.1,24.7,39.2,23.4,39.2z M23.4,35.6c-0.6,0-1.1,0.5-1.1,1.1c0,0.6,0.5,1.1,1.1,1.1c0.6,0,1.1-0.5,1.1-1.1
				C24.5,36.1,24,35.6,23.4,35.6z"/>
		</g>
		<g>
			<path class="st1" d="M34,40.3c-1.3,0-2.4-1.1-2.4-2.4c0-1.3,1.1-2.4,2.4-2.4c1.3,0,2.4,1.1,2.4,2.4C36.4,39.2,35.3,40.3,34,40.3z
				 M34,36.8c-0.6,0-1.1,0.5-1.1,1.1c0,0.6,0.5,1.1,1.1,1.1c0.6,0,1.1-0.5,1.1-1.1C35.1,37.3,34.6,36.8,34,36.8z"/>
		</g>
		<g>
			<path class="st1" d="M60.6,5.1c-1.3,0-2.4-1.1-2.4-2.4c0-1.3,1.1-2.4,2.4-2.4c1.3,0,2.4,1.1,2.4,2.4C63.1,4,62,5.1,60.6,5.1z
				 M60.6,1.6c-0.6,0-1.1,0.5-1.1,1.1c0,0.6,0.5,1.1,1.1,1.1c0.6,0,1.1-0.5,1.1-1.1C61.7,2.1,61.3,1.6,60.6,1.6z"/>
		</g>
		<path class="st1" d="M68.1,12.5c0-4.9-1.7-8.2-5-10c0,0.1-0.6,0.7-0.6,0.8c0,0.7,0.3,0.7-0.1,1.1c2.5,1.4,3.7,4.1,3.7,8.1
			c0,3.1-0.8,5.5-2.3,7l-0.7,0.7l0.7,0.7c1.5,1.5,2.3,3.9,2.3,7c0,6.3-3,9.3-9.3,9.3H35.9c0.1,0.2,0.1,0.4,0.1,0.7
			c0,0.5-0.1,0.9-0.4,1.3h21.1c7.4,0,11.3-3.9,11.3-11.3c0-3.3-0.8-5.8-2.2-7.7C67.3,18.3,68.1,15.7,68.1,12.5z"/>
		<path class="st1" d="M56.8,3.2c0.5,0,1,0,1.5,0.1c0-0.2,0.3-0.7,0.3-0.9c0-0.5-0.2-0.6,0.1-1c-0.6-0.1-1.2-0.1-1.9-0.1H36.2
			c-4.5,0-8,1.2-10.4,3.5c-2.3,2.3-3.5,5.8-3.5,10.4v19.9c0.3-0.2,0.7-0.2,1-0.2c0.3,0,0.7,0.1,1,0.2V15.1c0-4,1-7,2.9-8.9
			c1.9-1.9,4.9-2.9,8.9-2.9H56.8z"/>
	</g>
</g>
<g>
	<g>
		<path class="st2" d="M34.6,25.2c-1.3,0-2.4-1.1-2.4-2.4c0-1.3,1.1-2.4,2.4-2.4c1.3,0,2.4,1.1,2.4,2.4C37.1,24.1,36,25.2,34.6,25.2
			z M34.6,21.7c-0.6,0-1.1,0.5-1.1,1.1c0,0.6,0.5,1.1,1.1,1.1c0.6,0,1.1-0.5,1.1-1.1C35.7,22.2,35.2,21.7,34.6,21.7z"/>
	</g>
</g>
<g>
	<g>
		<path class="st2" d="M38.6,35.4c-1.3,0-2.4-1.1-2.4-2.4c0-1.3,1.1-2.4,2.4-2.4c1.3,0,2.4,1.1,2.4,2.4C41.1,34.4,40,35.4,38.6,35.4
			z M38.6,31.9c-0.6,0-1.1,0.5-1.1,1.1c0,0.6,0.5,1.1,1.1,1.1c0.6,0,1.1-0.5,1.1-1.1C39.7,32.4,39.3,31.9,38.6,31.9z"/>
	</g>
</g>
<path class="st2" d="M56.8,23.8c2.9,0,4.1,1.3,4.1,4.1c0,2.9-1.3,4.1-4.1,4.1H40.5c0.1,0.3,0.2,0.6,0.2,1c0,0.4-0.1,0.7-0.2,1h16.3
	c4,0,6.1-2.2,6.1-6.1c0-4-2.2-6.1-6.1-6.1H36.3c0.1,0.2,0.1,0.5,0.1,0.7c0,0.5-0.1,0.9-0.4,1.3H56.8z"/>
<g>
	<path class="st2" d="M39,20c-1.3,0-2.4-1.1-2.4-2.4c0-1.3,1.1-2.4,2.4-2.4c1.3,0,2.4,1.1,2.4,2.4C41.5,18.9,40.4,20,39,20z
		 M39,16.5c-0.6,0-1.1,0.5-1.1,1.1c0,0.6,0.5,1.1,1.1,1.1c0.6,0,1.1-0.5,1.1-1.1C40.1,17,39.6,16.5,39,16.5z"/>
</g>
<g>
	<path class="st2" d="M28.5,34c-1.3,0-2.4-1.1-2.4-2.4c0-1.3,1.1-2.4,2.4-2.4c1.3,0,2.4,1.1,2.4,2.4C30.9,32.9,29.8,34,28.5,34z
		 M28.5,30.4c-0.6,0-1.1,0.5-1.1,1.1c0,0.6,0.5,1.1,1.1,1.1c0.6,0,1.1-0.5,1.1-1.1C29.6,30.9,29.1,30.4,28.5,30.4z"/>
</g>
<g>
	<path class="st2" d="M55.1,9.7c-1.3,0-2.4-1.1-2.4-2.4c0-1.3,1.1-2.4,2.4-2.4c1.3,0,2.4,1.1,2.4,2.4C57.5,8.6,56.4,9.7,55.1,9.7z
		 M55.1,6.1c-0.6,0-1.1,0.5-1.1,1.1c0,0.6,0.5,1.1,1.1,1.1c0.6,0,1.1-0.5,1.1-1.1C56.2,6.6,55.7,6.1,55.1,6.1z"/>
</g>
<path class="st2" d="M57.3,6.4c0.1,0.3-0.2,0.6-0.2,0.9c0,0.4,0.3,0.8,0.1,1.1c2.5,0.1,3.7,1.4,3.7,4.1c0,2.9-1.3,4.1-4.1,4.1H40.9
	c0.1,0.3,0.2,0.6,0.2,1c0,0.4-0.1,0.7-0.2,1h15.9c4,0,6.1-2.2,6.1-6.1C62.9,8.7,60.9,6.6,57.3,6.4z"/>
<path class="st2" d="M53,7.2c0-0.3,0.1-0.6,0.2-0.9h-17c-5.7,0-8.7,3-8.7,8.7v14.6c0.3-0.1,0.7-0.2,1-0.2c0.4,0,0.7,0.1,1,0.2V15.1
	c0-4.6,2.1-6.7,6.7-6.7h17.1C53.1,8,53,7.6,53,7.2z"/>
</svg>
