<?xml version="1.0" standalone="no"?>
<!DOCTYPE svg PUBLIC "-//W3C//DTD SVG 20010904//EN"
 "http://www.w3.org/TR/2001/REC-SVG-20010904/DTD/svg10.dtd">
<svg version="1.0" xmlns="http://www.w3.org/2000/svg"
 width="1024.000000pt" height="1024.000000pt" viewBox="0 0 1024.000000 1024.000000"
 preserveAspectRatio="xMidYMid meet">

<g transform="translate(0.000000,1024.000000) scale(0.100000,-0.100000)"
fill="#000000" stroke="none">
<path d="M4300 7900 c-237 -7 -299 -19 -435 -85 -172 -83 -285 -201 -385 -400
-77 -154 -103 -257 -103 -415 0 -339 190 -643 498 -795 120 -59 215 -84 365
-95 69 -5 491 -10 938 -10 921 0 899 2 1062 -77 82 -39 107 -58 185 -137 69
-69 99 -109 128 -167 53 -108 78 -213 78 -334 1 -203 -61 -355 -201 -496 -94
-95 -174 -145 -298 -188 l-77 -26 -1102 -3 c-607 -1 -1103 1 -1103 5 0 5 71
85 158 178 l158 170 925 5 924 5 56 28 c67 33 142 109 171 175 29 64 35 181
14 254 -32 112 -122 202 -230 233 -41 11 -185 15 -741 20 l-690 6 -320 -342
c-176 -188 -438 -467 -582 -621 -145 -154 -263 -284 -263 -289 0 -6 513 -8
1323 -7 l1322 3 80 23 c431 125 709 536 656 972 -26 213 -105 374 -256 525
-111 111 -201 169 -339 218 -157 55 -192 57 -1124 57 -577 0 -876 4 -925 11
-267 41 -483 223 -573 479 -38 110 -45 274 -15 390 35 142 91 241 190 340 99
99 202 157 336 190 78 20 111 20 1208 18 l1127 -3 -161 -172 -162 -173 -917 0
c-574 0 -937 -4 -970 -10 -127 -24 -220 -92 -272 -198 -30 -61 -33 -75 -33
-157 1 -72 5 -100 24 -143 31 -69 121 -153 198 -184 l58 -23 745 -2 745 -2
120 128 c66 71 329 350 585 620 256 271 467 496 468 502 4 10 -2226 10 -2568
-1z m1414 -720 l230 0 -95 -97 c-52 -54 -127 -133 -166 -175 l-71 -78 -687 0
c-612 0 -691 2 -721 16 -126 60 -134 238 -14 308 52 31 142 35 750 30 300 -2
648 -4 774 -4z m256 -1630 c41 -11 94 -61 109 -103 15 -39 14 -91 -3 -130 -15
-37 -76 -94 -109 -102 -12 -3 -379 -4 -815 -3 l-794 3 158 173 157 172 631 0
c383 0 645 -4 666 -10z"/>
<path d="M5924 3704 c-224 -472 -364 -773 -364 -783 0 -7 28 -11 83 -11 l83 0
38 85 38 85 188 0 187 0 39 -85 39 -85 89 0 c67 0 87 3 83 13 -13 31 -430 912
-433 916 -2 2 -33 -58 -70 -135z m126 -335 c30 -67 57 -125 58 -130 2 -5 -51
-9 -118 -9 -67 0 -120 4 -118 8 21 54 114 252 118 252 3 0 30 -55 60 -121z"/>
<path d="M2140 3371 l0 -462 83 3 82 3 5 268 5 267 293 -286 292 -286 0 461 0
461 -80 0 -80 0 0 -270 c0 -148 -3 -270 -8 -270 -4 0 -55 48 -112 106 -58 58
-189 187 -292 286 l-188 180 0 -461z"/>
<path d="M591 3789 c-30 -12 -73 -40 -96 -64 -89 -88 -80 -236 20 -323 19 -18
95 -61 169 -96 142 -68 176 -97 176 -150 0 -70 -58 -106 -168 -106 -97 0 -159
23 -259 96 l-23 16 0 -89 0 -90 54 -27 c77 -39 149 -56 242 -56 142 0 242 48
294 140 20 36 24 58 24 115 -1 132 -52 188 -261 290 -82 40 -138 74 -148 89
-44 66 14 126 121 126 66 0 162 -29 184 -55 24 -29 31 -14 28 68 l-3 82 -50
25 c-72 35 -225 40 -304 9z"/>
<path d="M4945 3789 c-122 -43 -214 -124 -267 -236 -126 -266 23 -575 311
-643 118 -28 274 -2 361 60 29 21 30 24 30 106 0 46 -3 84 -6 84 -4 0 -22 -14
-42 -31 -64 -57 -115 -73 -227 -74 -113 0 -150 13 -218 80 -67 65 -82 106 -82
220 0 113 15 155 82 221 58 58 124 84 215 84 92 0 154 -20 228 -75 l50 -37 0
85 c0 97 -2 101 -95 144 -52 24 -75 28 -170 30 -91 3 -120 0 -170 -18z"/>
<path d="M8420 3791 c-258 -83 -389 -380 -276 -627 77 -169 231 -264 426 -264
148 0 262 49 355 152 218 243 112 631 -203 737 -79 27 -222 28 -302 2z m276
-155 c111 -52 174 -151 174 -275 0 -40 -5 -91 -11 -111 -20 -65 -78 -131 -148
-167 -54 -28 -73 -33 -135 -33 -90 0 -148 19 -206 69 -105 89 -135 253 -71
379 33 64 68 99 133 131 81 41 186 44 264 7z"/>
<path d="M9412 3791 c-60 -21 -127 -79 -148 -128 -8 -18 -14 -58 -14 -90 0
-116 63 -186 240 -264 127 -56 167 -84 180 -125 14 -41 -1 -77 -43 -108 -24
-18 -43 -21 -120 -21 -106 0 -162 17 -233 71 -24 19 -46 34 -49 34 -3 0 -5
-38 -5 -85 l0 -85 33 -20 c81 -50 137 -64 262 -65 105 0 126 3 172 24 66 29
128 96 143 153 15 52 8 144 -14 185 -29 57 -84 98 -233 173 -162 82 -186 104
-168 157 16 45 66 65 156 60 63 -3 86 -9 133 -35 l56 -32 0 84 0 84 -52 23
c-73 32 -220 38 -296 10z"/>
<path d="M1130 3792 c0 -4 4 -12 9 -17 5 -6 77 -126 160 -267 l151 -258 0
-170 0 -170 80 0 80 0 0 173 0 172 155 263 c85 145 155 267 155 273 0 5 -38 9
-84 9 l-84 0 -108 -190 c-60 -104 -111 -189 -114 -189 -3 0 -54 85 -114 189
l-109 190 -88 0 c-49 0 -89 -4 -89 -8z"/>
<path d="M3190 3355 l0 -447 218 5 c288 6 355 27 461 143 70 77 93 142 99 279
3 94 1 119 -18 175 -44 130 -127 214 -259 263 -48 17 -87 21 -278 25 l-223 4
0 -447z m465 266 c107 -48 150 -124 150 -266 0 -76 -5 -99 -27 -146 -47 -102
-120 -137 -300 -146 l-118 -6 0 298 0 297 123 -4 c98 -3 132 -9 172 -27z"/>
<path d="M4220 3355 l0 -446 83 3 82 3 3 443 2 442 -85 0 -85 0 0 -445z"/>
<path d="M6460 3725 l0 -75 120 0 120 0 0 -370 0 -371 83 3 82 3 3 368 2 367
115 0 115 0 0 75 0 75 -320 0 -320 0 0 -75z"/>
<path d="M7320 3355 l0 -445 283 0 c156 0 286 2 288 4 2 2 3 36 1 75 l-4 71
-199 0 -199 0 0 120 0 120 185 0 185 0 0 75 0 75 -185 0 -185 0 0 100 0 100
200 0 200 0 0 75 0 75 -285 0 -285 0 0 -445z"/>
</g>
</svg>
