<?xml version="1.0" encoding="utf-8"?>
<!-- Generator: Adobe Illustrator 15.0.0, SVG Export Plug-In . SVG Version: 6.00 Build 0)  -->
<!DOCTYPE svg PUBLIC "-//W3C//DTD SVG 1.1//EN" "http://www.w3.org/Graphics/SVG/1.1/DTD/svg11.dtd">
<svg version="1.1" id="Layer_1" xmlns="http://www.w3.org/2000/svg" xmlns:xlink="http://www.w3.org/1999/xlink" x="0px" y="0px"
	 width="565.333px" height="554.667px" viewBox="0 0 565.333 554.667" enable-background="new 0 0 565.333 554.667"
	 xml:space="preserve">
<g>
	<defs>
		<rect id="SVGID_1_" x="-72.667" y="-30.216" width="720" height="935.883"/>
	</defs>
	<clipPath id="SVGID_2_">
		<use xlink:href="#SVGID_1_"  overflow="visible"/>
	</clipPath>
	<path clip-path="url(#SVGID_2_)" fill="#14242E" d="M561.928,271.883c0,154.165-124.977,279.143-279.143,279.143
		c-154.166,0-279.143-124.978-279.143-279.143C3.642,117.717,128.619,5.78,282.785,5.78
		C436.952,5.78,561.928,117.717,561.928,271.883"/>
	<path clip-path="url(#SVGID_2_)" fill="#E4C91F" d="M517.372,235.969c-0.095-0.37-0.241-0.718-0.426-1.041
		c-0.017-0.022-0.028-0.045-0.045-0.07l-40.128-69.504c-0.025-0.044-0.051-0.091-0.076-0.136l-40.131-69.5
		c-0.185-0.338-0.417-0.652-0.694-0.933c-0.293-0.293-0.618-0.538-0.968-0.734l-69.501-40.125c-0.031-0.021-0.061-0.037-0.092-0.053
		c-0.31-0.18-0.641-0.316-0.99-0.411h-0.007V53.46c-0.366-0.099-0.742-0.148-1.114-0.148h-0.003c-0.025,0.005-0.055,0-0.083,0
		h-80.25h-0.164h-80.251c-0.388-0.006-0.793,0.041-1.184,0.148c-0.387,0.101-0.753,0.259-1.089,0.463l-69.502,40.125
		c-0.026,0.016-0.053,0.033-0.078,0.049c-0.32,0.183-0.616,0.408-0.881,0.675c-0.264,0.264-0.488,0.558-0.671,0.874
		c-0.013,0.025-0.028,0.052-0.046,0.078l-40.124,69.502c-0.031,0.046-0.056,0.09-0.079,0.134l-40.129,69.504
		c-0.203,0.334-0.36,0.701-0.463,1.089c-0.105,0.39-0.153,0.788-0.146,1.183v80.255v0.082v0.003c0,0.371,0.047,0.75,0.149,1.115
		c0.095,0.356,0.235,0.691,0.415,1.004c0.016,0.03,0.031,0.06,0.052,0.088l40.126,69.501c0.025,0.044,0.047,0.091,0.078,0.133
		l40.129,69.502c0.185,0.34,0.42,0.656,0.7,0.937c0.287,0.293,0.613,0.535,0.962,0.726l69.499,40.13
		c0.034,0.019,0.069,0.042,0.105,0.059c0.299,0.173,0.623,0.308,0.965,0.401c0,0.003,0.003,0.003,0.006,0.003
		c0.372,0.102,0.75,0.149,1.128,0.149h0.088h80.252h0.081h0.078h80.25c0.398,0.01,0.793-0.038,1.185-0.146
		c0.389-0.1,0.755-0.261,1.089-0.463l69.505-40.128c0.031-0.018,0.06-0.034,0.088-0.05c0.312-0.183,0.605-0.403,0.867-0.665
		c0.264-0.264,0.486-0.557,0.671-0.874l0.048-0.084l40.128-69.502c0.025-0.043,0.054-0.089,0.079-0.134l40.125-69.504
		c0.207-0.339,0.365-0.71,0.468-1.102c0.102-0.388,0.149-0.778,0.144-1.167v-80.262v-0.081
		C517.515,236.697,517.47,236.327,517.372,235.969 M298.713,201.125h63.34l54.853,31.669h-63.34L298.713,201.125z M348.154,239.525
		v75.487l-65.369,37.741l-65.37-37.741v-75.487l65.37-37.743L348.154,239.525z M360.732,192.585h-70.553l35.274-61.101h70.558
		L360.732,192.585z M279.662,193.73l-54.855,31.673l31.672-54.855l54.853-31.67L279.662,193.73z M213.147,228.525l-35.277-61.101
		l35.277-61.102l35.279,61.102L213.147,228.525z M208.881,238.206v63.34l-31.673-54.851V183.35L208.881,238.206z M205.754,313.208
		h-70.556l-35.279-61.105h70.556L205.754,313.208z M212.004,321.744l54.851,31.671h-63.336l-54.856-31.671H212.004z
		 M204.834,361.951h70.56l-35.277,61.098H169.56L204.834,361.951z M285.912,360.807l54.849-31.672l-31.672,54.851l-54.851,31.673
		L285.912,360.807z M352.425,326.011l35.276,61.101l-35.276,61.102l-35.281-61.102L352.425,326.011z M356.689,316.332v-63.342
		l31.672,54.858v63.339L356.689,316.332z M359.812,241.332h70.559l35.278,61.104h-70.555L359.812,241.332z M369.026,195.295
		l35.938-62.247l62.247,35.938l-35.938,62.245L369.026,195.295z M429.71,100.911l31.669,54.855l-54.853-31.672l-31.672-54.855
		L429.71,100.911z M360.732,61.848l35.279,61.102h-70.558l-35.274-61.102H360.732z M317.16,125.656l-62.247,35.94l-35.936-62.247
		l62.246-35.939L317.16,125.656z M203.519,61.848h63.34l-54.854,31.671h-63.342L203.519,61.848z M135.198,102.055h70.556
		l-35.279,61.102H99.919L135.198,102.055z M96.796,171.692h71.877v71.877H96.796V171.692z M56.589,238.206l31.673-54.856v63.345
		l-31.673,54.851V238.206z M57.25,317.476l35.277-61.105l35.28,61.105l-35.28,61.102L57.25,317.476z M134.299,323.305l62.245,35.94
		l-35.94,62.242l-62.246-35.936L134.299,323.305z M135.859,453.625l-31.672-54.851l54.856,31.669l31.668,54.856L135.859,453.625z
		 M204.834,492.69l-35.274-61.103h70.557l35.277,61.103H204.834z M248.41,428.877l62.245-35.936l35.938,62.247l-62.246,35.939
		L248.41,428.877z M362.053,492.69h-63.344l54.856-31.675h63.343L362.053,492.69z M430.371,452.482h-70.556l35.279-61.102h70.555
		L430.371,452.482z M468.772,382.844h-71.876v-71.873h71.876V382.844z M473.042,298.169l-35.279-61.105l35.279-61.105l35.274,61.105
		L473.042,298.169z M508.979,316.332l-31.671,54.853v-63.336l31.671-54.858V316.332z"/>
</g>
<path fill="#14242E" d="M282.785,205.55l62.108,35.858v71.719l-62.108,35.862l-62.11-35.862v-71.719L282.785,205.55z
	 M282.785,201.784l-65.37,37.743v75.485l65.37,37.743l65.369-37.743v-75.485L282.785,201.784z"/>
<g>
	<defs>
		<rect id="SVGID_3_" x="-72.667" y="-30.216" width="720" height="935.883"/>
	</defs>
	<clipPath id="SVGID_4_">
		<use xlink:href="#SVGID_3_"  overflow="visible"/>
	</clipPath>
	<path clip-path="url(#SVGID_4_)" fill="#14242E" d="M364.314,53.46c0,0,65.757,37.802,68.521,39.398
		c2.767,1.599,4.447,4.094,4.447,4.094l80.09,139.013l-0.468,83.708L437.763,456.75l-2.865,3.736l-70.597,40.593l-163.058-0.005
		c0,0-67.85-39.017-69.652-40.057c-1.804-1.041-3.145-3.156-3.145-3.156L48.669,319.684l-0.613-2.208v-80.34l0.609-2.271
		l80.333-139.141l1.672-1.674l70.595-40.589H364.314 M365.183,50.2h-0.869H201.266h-0.87l-0.757,0.435l-70.592,40.587l-0.374,0.215
		l-0.308,0.307l-1.672,1.671l-0.303,0.307l-0.215,0.372l-80.336,139.14l-0.215,0.371l-0.108,0.415l-0.61,2.275l-0.109,0.411v0.43
		v80.34v0.448l0.116,0.426l0.618,2.208l0.109,0.398l0.205,0.358l79.78,138.177c0.25,0.401,1.91,2.946,4.336,4.349
		c1.803,1.04,69.656,40.062,69.656,40.062l0.756,0.433h0.871l163.058,0.005h0.875l0.752-0.435l70.596-40.593l0.563-0.321
		l0.398-0.519l2.865-3.737l0.127-0.167l0.108-0.188l79.142-137.076l0.433-0.75l0.003-0.861l0.468-83.708l0.008-0.879l-0.444-0.767
		L440.103,95.328l-0.054-0.099l-0.064-0.095c-0.213-0.319-2.196-3.178-5.521-5.098c-2.764-1.599-68.529-39.401-68.529-39.401
		L365.183,50.2z"/>
</g>
<g>
	<defs>
		<rect id="SVGID_5_" x="-72.667" y="-30.216" width="720" height="935.883"/>
	</defs>
	<clipPath id="SVGID_6_">
		<use xlink:href="#SVGID_5_"  overflow="visible"/>
	</clipPath>
</g>
<g>
	<defs>
		<rect id="SVGID_7_" x="137.057" y="768.013" width="49.517" height="45.29"/>
	</defs>
	<clipPath id="SVGID_8_">
		<use xlink:href="#SVGID_7_"  overflow="visible"/>
	</clipPath>
</g>
<g>
	<defs>
		<rect id="SVGID_9_" x="-72.667" y="-30.216" width="720" height="935.883"/>
	</defs>
	<clipPath id="SVGID_10_">
		<use xlink:href="#SVGID_9_"  overflow="visible"/>
	</clipPath>
</g>
</svg>
