<?xml version="1.0" encoding="utf-8"?>

<svg version="1.0" xmlns="http://www.w3.org/2000/svg" xmlns:xlink="http://www.w3.org/1999/xlink" width="2480" height="3508" viewBox="0 0 2480 3508">
  <metadata><?xpacket begin="﻿" id="W5M0MpCehiHzreSzNTczkc9d"?>
<x:xmpmeta xmlns:x="adobe:ns:meta/" x:xmptk="Adobe XMP Core 5.6-c140 79.160451, 2017/05/06-01:08:21        ">
   <rdf:RDF xmlns:rdf="http://www.w3.org/1999/02/22-rdf-syntax-ns#">
      <rdf:Description rdf:about=""/>
   </rdf:RDF>
</x:xmpmeta>
                                                                                                    
                                                                                                    
                                                                                                    
                                                                                                    
                                                                                                    
                                                                                                    
                                                                                                    
                                                                                                    
                                                                                                    
                                                                                                    
                                                                                                    
                                                                                                    
                                                                                                    
                                                                                                    
                                                                                                    
                                                                                                    
                                                                                                    
                                                                                                    
                                                                                                    
                                                                                                    
                           
<?xpacket end="w"?></metadata>
<defs>
    <style>
      .cls-1, .cls-4 {
        fill: #999;
      }

      .cls-1, .cls-2, .cls-3, .cls-4 {
        fill-rule: evenodd;
      }

      .cls-1 {
        opacity: 0.3;
      }

      .cls-2 {
        fill: #fff;
        filter: url(#filter);
      }

      .cls-3 {
        fill: #02dff5;
      }
    </style>
    <filter id="filter" x="955" y="994" width="570" height="821" filterUnits="userSpaceOnUse">
      <feGaussianBlur result="blur" stdDeviation="17" in="SourceAlpha"/>
      <feComposite result="composite"/>
      <feComposite result="composite-2"/>
      <feComposite result="composite-3"/>
      <feFlood result="flood" flood-color="#00ebff" flood-opacity="0.8"/>
      <feComposite result="composite-4" operator="in" in2="composite-3"/>
      <feBlend result="blend" in2="SourceGraphic"/>
      <feBlend result="blend-2" in="SourceGraphic"/>
      <feFlood result="flood-2" flood-color="#f5ffff"/>
      <feComposite result="composite-5" operator="in" in2="SourceGraphic"/>
      <feBlend result="blend-3" in2="blend-2"/>
    </filter>
  </defs>
  <path id="形状_1" data-name="形状 1" class="cls-1" d="M1238.99,1742.06l-321.8-196.85a10.12,10.12,0,0,0,.629-1.76l103.188-480.43a10.077,10.077,0,0,0,.28-1.95l0.04-.05L1239,744.114l217.66,316.906,0.04,0.05a11.044,11.044,0,0,0,.28,1.95l103.19,480.43a11.117,11.117,0,0,0,.63,1.76l-321.81,196.85m1.88-1023.86a10.616,10.616,0,0,1-3.74,0,10.262,10.262,0,0,0-8.31,4.176L1004.65,1048.74a51.083,51.083,0,0,1-3.74,9.29L897.727,1538.46a10.241,10.241,0,0,0,.767,6.99l-0.189.24a10.354,10.354,0,0,0,3.312,14.27l329.113,201.31a10.285,10.285,0,0,0,7.79,3.53c0.16,0,.32,0,0.48-0.01,0.16,0.01.32,0.01,0.48,0.01a10.316,10.316,0,0,0,7.79-3.53l329.11-201.31a10.348,10.348,0,0,0,3.31-14.27l-0.19-.24a10.247,10.247,0,0,0,.77-6.99l-103.19-480.43a10.166,10.166,0,0,0-1.75-3.71,10.29,10.29,0,0,0-1.99-5.58L1249.18,722.376a10.276,10.276,0,0,0-8.31-4.176"/>
  <path id="v" class="cls-2" d="M1459.91,1045.25c-10.42-3.25-21.62,2.91-25.03,13.77L1239.5,1681.6l-195.38-622.58c-3.41-10.86-14.61-17.02-25.03-13.77s-16.09,14.71-12.67,25.58l212.95,678.6a20.494,20.494,0,0,0,19.04,14.53c0.37,0.04.73,0,1.09,0.02,0.37-.02.72,0.02,1.08-0.02a20.487,20.487,0,0,0,19.05-14.53l212.95-678.6C1476,1059.96,1470.32,1048.51,1459.91,1045.25Z"/>
  <path id="eos" class="cls-3" d="M1029.76,1996.16v37.72h100.1v32.76H992V1888.97h129.41v32.76h-91.65v39.94h80.97v34.49h-80.97Zm206.67,72.96a91.685,91.685,0,0,1,0-183.37c50.42,0,91.9,40.94,91.9,91.8C1328.33,2028.18,1286.85,2069.12,1236.43,2069.12Zm-54.15-91.57c0,29.53,24.59,54.1,54.15,54.1s53.65-24.57,53.65-54.1-24.1-54.33-53.65-54.33S1182.28,1948.03,1182.28,1977.55Zm194.99,36.73c3.98,23.32,24.84,26.55,39.25,26.55,13.66,0,34.53-3.97,34.53-22.09,0-37.71-105.57-13.39-105.57-79.64,0-36.48,34.28-53.6,66.32-53.6,37.01,0,71.04,16.13,71.04,57.07l-37.76-5.46c-4.72-20.59-22.85-21.34-35.02-21.34-12.42,0-26.83,5.21-26.83,20.1,0,13.15,8.45,16.13,52.91,26.8,13.17,3.22,52.66,11.41,52.66,51.61,0,32.51-25.33,56.82-73.77,56.82-39.75,0-75.51-19.35-75.51-63.03Z"/>
  <path id="cannon" class="cls-4" d="M775.512,2333.76a89.8,89.8,0,0,1-89.912-89.74c0-49.09,40.234-89.74,89.912-89.74a89.158,89.158,0,0,1,77.989,45.86c-15.148,7.93-16.393,8.67-33.28,16.86a51.674,51.674,0,0,0-44.709-25.54,52.555,52.555,0,1,0,0,105.11,51.772,51.772,0,0,0,46.2-27.51c16.89,8.67,17.388,9.67,33.284,16.85C839.84,2314.43,810.534,2333.76,775.512,2333.76Zm86.689-.49,80.476-176.76h39.244l79.229,176.76H1023.4l-17.38-39.17H916.35l-18.629,39.17H862.2Zm100.6-143.54-29.807,68.42h58.867l-28.813-68.42H962.8Zm147.292,21.32v122.46h-34.02V2155.76h44.7L1200,2266.33V2155.76h33.04v177.75H1200Zm184.06,0v122.46h-34.03V2155.76h44.71l79.23,110.57V2155.76h33.04v177.75h-33.04Zm232.49,124.45a91.605,91.605,0,1,1,0-183.21c50.42,0,91.9,40.91,91.9,91.73C1618.54,2294.59,1577.06,2335.5,1526.64,2335.5Zm-54.15-91.48c0,29.5,24.59,54.04,54.15,54.04s53.65-24.54,53.65-54.04-24.1-54.29-53.65-54.29S1472.49,2214.52,1472.49,2244.02Zm198.96-32.97v122.46h-34.03V2155.76h44.71l79.23,110.57V2155.76h33.04v177.75h-33.04Z"/>
</svg>
