<?xml version="1.0" encoding="UTF-8" standalone="no"?>
<svg
   xmlns:dc="http://purl.org/dc/elements/1.1/"
   xmlns:cc="http://creativecommons.org/ns#"
   xmlns:rdf="http://www.w3.org/1999/02/22-rdf-syntax-ns#"
   xmlns:svg="http://www.w3.org/2000/svg"
   xmlns="http://www.w3.org/2000/svg"
   viewBox="0 0 340.16 188.97333"
   height="188.97333"
   width="340.16"
   xml:space="preserve"
   id="svg2"
   version="1.1"><metadata
     id="metadata8"><rdf:RDF><cc:Work
         rdf:about=""><dc:format>image/svg+xml</dc:format><dc:type
           rdf:resource="http://purl.org/dc/dcmitype/StillImage" /></cc:Work></rdf:RDF></metadata><defs
     id="defs6"><clipPath
       id="clipPath18"
       clipPathUnits="userSpaceOnUse"><path
         id="path16"
         d="M 0,141.73 H 255.12 V 0 H 0 Z" /></clipPath></defs><g
     transform="matrix(1.3333333,0,0,-1.3333333,0,188.97333)"
     id="g10"><g
       id="g12"><g
         clip-path="url(#clipPath18)"
         id="g14"><g
           transform="translate(166.4033,80.6382)"
           id="g20"><path
             id="path22"
             style="fill:#00c0f3;fill-opacity:1;fill-rule:nonzero;stroke:none"
             d="M 0,0 V 0.358 C 0.085,0.212 0.15,0.059 0.177,-0.094 Z M 17.198,8.665 C 10.287,8.665 3.732,5.301 0,2.653 V 8.089 H -2.816 V -22.364 H 0 v 21.188 c 0.169,0.2 0.311,0.421 0.424,0.622 1.297,1.035 8.428,6.402 16.774,6.402 5.853,0 9.075,-2.244 9.075,-6.319 v -21.893 h 2.817 v 21.893 c 0,2.143 -0.858,9.136 -11.892,9.136 m -28.954,-22.876 v -0.162 c -0.021,0.064 -0.046,0.129 -0.057,0.193 z m 0,-2.8 v -5.353 h 2.817 V 8.089 h -2.817 v -21.332 c -0.117,-0.159 -0.219,-0.324 -0.306,-0.478 -1.295,-1.034 -8.423,-6.401 -16.773,-6.401 -5.852,0 -9.075,2.244 -9.075,6.318 V 8.089 h -2.817 v -21.893 c 0,-2.142 0.858,-9.134 11.892,-9.134 6.841,0 13.328,3.292 17.079,5.927 m 76.361,10.784 v -9.685 c -5.3,-3.764 -18.444,-5.995 -24.296,-3.04 -1.746,0.881 -2.6,2.122 -2.613,3.796 -0.042,5.434 9.014,8.435 26.909,8.929 M 39.04,-21.467 c 2.225,-1.123 5.291,-1.614 8.619,-1.613 5.92,0 12.661,1.555 16.946,3.868 v -3.152 h 2.817 v 21.893 c 0,5.212 -7.204,8.468 -11.236,8.827 l -0.26,0.023 c -3.389,0.305 -8.507,0.763 -18.43,-2.04 l 0.766,-2.711 c 9.424,2.662 14.04,2.248 17.413,1.946 l 0.261,-0.023 c 2.976,-0.265 8.669,-2.816 8.669,-6.022 v -2.935 c -9.123,-0.21 -29.807,-1.073 -29.725,-11.772 0.021,-2.752 1.46,-4.926 4.16,-6.289 M -46.392,8.089 h -2.816 c 0,-10.44 -13.188,-13.818 -19.576,-13.818 h -6.062 V 8.089 h -2.817 v -30.453 h 2.817 v 13.819 h 6.062 c 6.388,0 19.576,-3.378 19.576,-13.819 h 2.816 c 0,8.533 -6.952,13.143 -13.703,15.227 6.751,2.083 13.703,6.694 13.703,15.226 m -78.961,-22.574 h 1.627 v 14.394 h -1.627 z m 8.654,-18.351 c -14.191,0 -25.737,11.545 -25.737,25.737 0,14.191 11.546,25.737 25.737,25.737 14.191,0 25.737,-11.546 25.737,-25.737 0,-14.192 -11.546,-25.737 -25.737,-25.737 m 0,54.165 c -15.675,0 -28.428,-12.753 -28.428,-28.428 0,-15.675 12.753,-28.428 28.428,-28.428 15.675,0 28.428,12.753 28.428,28.428 0,15.675 -12.753,28.428 -28.428,28.428 M -96.422,-7.29 c -0.687,-0.985 -2.647,-3.447 -5.527,-4.214 -0.484,2.254 -1.537,3.497 -2.42,4.227 0.971,0.83 1.943,2.101 2.406,4.208 2.878,-0.763 4.851,-3.235 5.541,-4.221 m -5.26,7.008 c 0,5.029 -5.71,7.818 -9.323,8.164 -0.626,2.876 -4.633,3.697 -4.818,3.733 l -0.97,0.191 V 7.994 h -1.457 c -0.486,3.502 -4.075,4.897 -6.036,5.145 l -0.916,0.116 V 8.07 h -8.549 l 0.238,-1.002 c 0.053,-0.22 1.338,-5.398 5.867,-5.398 h 11.743 c 2.317,0 5.549,-1.275 5.549,-3.353 0,-2.001 -3.345,-3.277 -5.095,-3.277 h -2.974 v 4.868 h -1.627 v -6.495 h 4.601 c 2.413,0 6.722,1.639 6.722,4.904 0,3.249 -4.168,4.98 -7.176,4.98 h -11.743 c -2.248,0 -3.419,1.916 -3.939,3.146 h 8.01 v 4.882 c 1.363,-0.387 3.752,-1.45 3.752,-4.144 V 6.367 h 4.657 v 3.366 c 1.063,-0.384 2.616,-1.192 2.616,-2.628 V 6.292 h 0.813 c 2.861,0 8.428,-2.321 8.428,-6.574 0,-4.468 -2.02,-5.767 -2.883,-6.322 l -1.065,-0.685 1.065,-0.684 c 0.936,-0.602 2.883,-1.854 2.883,-6.256 0,-4.295 -5.567,-6.639 -8.428,-6.639 h -0.813 v -0.814 c 0,-1.436 -1.554,-2.244 -2.616,-2.629 v 3.367 h -4.657 v -0.814 c 0,-2.695 -2.389,-3.758 -3.752,-4.144 v 4.881 h -8.01 c 0.521,1.231 1.691,3.147 3.939,3.147 h 11.743 c 3.008,0 7.176,1.73 7.176,4.979 0,3.266 -4.309,4.905 -6.722,4.905 h -4.601 v -6.495 h 1.627 v 4.868 h 2.974 c 1.75,0 5.095,-1.277 5.095,-3.278 0,-2.077 -3.232,-3.352 -5.549,-3.352 h -11.743 c -4.529,0 -5.814,-5.178 -5.867,-5.399 l -0.238,-1.001 h 8.549 v -5.186 l 0.916,0.116 c 1.961,0.249 5.55,1.644 6.036,5.146 h 1.457 v -3.812 l 0.97,0.191 c 0.185,0.036 4.193,0.857 4.818,3.733 3.613,0.35 9.323,3.161 9.323,8.23 0,0.393 -0.017,0.759 -0.044,1.113 4.366,1.055 6.87,5.231 6.978,5.416 l 0.242,0.411 -0.242,0.412 c -0.108,0.185 -2.613,4.363 -6.981,5.417 0.029,0.373 0.047,0.762 0.047,1.178" /></g><g
           transform="translate(159.3271,47.4302)"
           id="g24"><path
             id="path26"
             style="fill:#939598;fill-opacity:1;fill-rule:nonzero;stroke:none"
             d="M 0,0 H -2.508 L -5.146,-3.664 -7.784,0 h -2.508 l 3.882,-5.43 -3.991,-5.604 h 2.507 l 2.748,3.859 2.769,-3.859 h 2.508 l -4.012,5.604 z m 58.437,-6.979 c -0.175,-0.45 -0.418,-0.842 -0.731,-1.177 -0.312,-0.335 -0.684,-0.6 -1.112,-0.796 -0.429,-0.196 -0.891,-0.294 -1.385,-0.294 -0.494,0 -0.956,0.098 -1.384,0.294 -0.429,0.196 -0.801,0.461 -1.113,0.796 -0.313,0.335 -0.556,0.727 -0.73,1.177 -0.174,0.451 -0.261,0.938 -0.261,1.461 0,0.524 0.087,1.011 0.261,1.462 0.174,0.451 0.417,0.843 0.73,1.177 0.312,0.334 0.684,0.6 1.113,0.797 0.428,0.195 0.89,0.294 1.384,0.294 0.494,0 0.956,-0.099 1.385,-0.294 0.428,-0.197 0.8,-0.463 1.112,-0.797 0.313,-0.334 0.556,-0.726 0.731,-1.177 0.174,-0.451 0.261,-0.938 0.261,-1.462 0,-0.523 -0.087,-1.01 -0.261,-1.461 m 0.261,5.561 c -0.378,0.451 -0.869,0.829 -1.471,1.134 -0.604,0.305 -1.291,0.458 -2.061,0.458 -0.771,0 -1.491,-0.153 -2.159,-0.458 -0.669,-0.305 -1.254,-0.716 -1.756,-1.232 -0.501,-0.516 -0.897,-1.12 -1.188,-1.809 -0.292,-0.692 -0.437,-1.422 -0.437,-2.193 0,-0.77 0.145,-1.501 0.437,-2.191 0.291,-0.69 0.687,-1.294 1.188,-1.81 0.502,-0.516 1.087,-0.927 1.756,-1.232 0.668,-0.306 1.388,-0.458 2.159,-0.458 0.437,0 0.843,0.051 1.221,0.152 0.378,0.102 0.716,0.23 1.013,0.382 0.298,0.153 0.557,0.323 0.775,0.513 0.219,0.188 0.392,0.371 0.523,0.545 0,-0.611 -0.091,-1.159 -0.272,-1.647 -0.183,-0.486 -0.433,-0.901 -0.752,-1.242 -0.32,-0.342 -0.698,-0.603 -1.134,-0.786 -0.436,-0.182 -0.909,-0.272 -1.418,-0.272 -1.235,0 -2.268,0.523 -3.097,1.57 l -1.547,-1.221 c 0.61,-0.785 1.3,-1.367 2.071,-1.745 0.77,-0.378 1.614,-0.566 2.529,-0.566 0.829,0 1.593,0.148 2.29,0.446 0.697,0.298 1.301,0.709 1.81,1.232 0.509,0.524 0.905,1.134 1.189,1.831 0.282,0.699 0.425,1.454 0.425,2.269 V 0 h -2.094 z m -78.673,-3.074 c 0.088,0.392 0.237,0.752 0.448,1.079 0.211,0.327 0.468,0.61 0.774,0.85 0.305,0.241 0.644,0.429 1.014,0.567 0.371,0.139 0.766,0.208 1.188,0.208 0.829,0 1.528,-0.244 2.094,-0.731 0.567,-0.487 0.944,-1.145 1.134,-1.973 z m 7.371,3.009 c -0.479,0.508 -1.057,0.912 -1.733,1.211 -0.677,0.296 -1.414,0.446 -2.214,0.446 -0.784,0 -1.522,-0.15 -2.213,-0.446 -0.691,-0.299 -1.291,-0.707 -1.799,-1.222 -0.509,-0.517 -0.913,-1.119 -1.21,-1.811 -0.298,-0.69 -0.448,-1.427 -0.448,-2.213 0,-0.784 0.15,-1.522 0.448,-2.213 0.297,-0.691 0.705,-1.294 1.221,-1.81 0.516,-0.517 1.119,-0.923 1.81,-1.221 0.69,-0.298 1.428,-0.447 2.214,-0.447 0.842,0 1.656,0.167 2.442,0.501 0.784,0.335 1.504,0.865 2.158,1.593 l -1.461,1.33 c -0.465,-0.51 -0.973,-0.88 -1.526,-1.112 -0.553,-0.233 -1.091,-0.349 -1.613,-0.349 -0.422,0 -0.829,0.072 -1.222,0.218 -0.393,0.145 -0.745,0.348 -1.058,0.611 -0.313,0.261 -0.574,0.569 -0.785,0.926 -0.211,0.356 -0.345,0.738 -0.403,1.145 h 8.875 c 0,0.101 0.008,0.203 0.022,0.305 0,0.087 0.004,0.182 0.011,0.284 0.008,0.102 0.011,0.203 0.011,0.305 0,0.77 -0.135,1.498 -0.403,2.181 -0.27,0.683 -0.644,1.279 -1.124,1.788 M 3.945,-2.879 c 0.328,0.334 0.709,0.6 1.146,0.797 0.435,0.195 0.908,0.294 1.418,0.294 0.493,0 0.959,-0.099 1.394,-0.294 0.437,-0.197 0.872,-0.506 1.309,-0.928 l 1.439,1.397 c -0.639,0.61 -1.297,1.06 -1.973,1.351 -0.676,0.29 -1.4,0.436 -2.169,0.436 -0.786,0 -1.528,-0.15 -2.226,-0.446 C 3.586,-0.571 2.982,-0.975 2.474,-1.483 1.965,-1.992 1.562,-2.596 1.264,-3.293 0.966,-3.99 0.816,-4.732 0.816,-5.518 c 0,-0.784 0.15,-1.522 0.448,-2.213 0.298,-0.691 0.701,-1.294 1.21,-1.81 0.508,-0.517 1.108,-0.923 1.799,-1.221 0.69,-0.298 1.428,-0.447 2.213,-0.447 0.785,0 1.519,0.139 2.203,0.414 0.683,0.276 1.337,0.734 1.962,1.374 L 9.212,-8.047 C 8.761,-8.482 8.314,-8.792 7.871,-8.974 7.428,-9.156 6.959,-9.246 6.464,-9.246 c -0.494,0 -0.955,0.098 -1.384,0.294 -0.429,0.196 -0.804,0.465 -1.123,0.807 -0.32,0.341 -0.575,0.738 -0.764,1.188 -0.189,0.451 -0.283,0.931 -0.283,1.439 0,0.524 0.091,1.011 0.273,1.462 0.181,0.451 0.435,0.843 0.762,1.177 m 28.096,-3.206 c 0,-0.537 -0.098,-1.014 -0.294,-1.428 -0.196,-0.415 -0.447,-0.763 -0.752,-1.047 -0.306,-0.283 -0.643,-0.498 -1.015,-0.643 -0.37,-0.146 -0.737,-0.218 -1.1,-0.218 -0.481,0 -0.913,0.106 -1.298,0.317 -0.386,0.209 -0.578,0.527 -0.578,0.948 0,0.291 0.072,0.574 0.218,0.85 0.145,0.277 0.407,0.535 0.785,0.775 0.378,0.239 0.89,0.465 1.538,0.676 0.646,0.209 1.478,0.396 2.496,0.556 z m 2.115,-2.268 v 4.689 c 0,0.785 -0.134,1.425 -0.403,1.92 -0.269,0.493 -0.61,0.883 -1.024,1.166 -0.416,0.283 -0.873,0.479 -1.375,0.589 -0.5,0.108 -0.984,0.163 -1.45,0.163 -0.857,0 -1.657,-0.141 -2.398,-0.425 -0.741,-0.283 -1.44,-0.701 -2.094,-1.254 l 1.222,-1.461 c 0.465,0.349 0.933,0.632 1.406,0.851 0.473,0.218 1.036,0.327 1.689,0.327 0.684,0 1.229,-0.153 1.636,-0.458 0.407,-0.306 0.625,-0.728 0.655,-1.265 -1.484,-0.233 -2.69,-0.52 -3.621,-0.862 -0.93,-0.341 -1.653,-0.716 -2.169,-1.122 -0.516,-0.408 -0.866,-0.84 -1.046,-1.298 -0.183,-0.458 -0.274,-0.912 -0.274,-1.363 0,-0.946 0.335,-1.69 1.003,-2.235 0.669,-0.546 1.549,-0.818 2.639,-0.818 0.379,0 0.749,0.047 1.112,0.142 0.363,0.094 0.701,0.217 1.015,0.371 0.311,0.152 0.602,0.327 0.872,0.522 0.268,0.196 0.498,0.403 0.686,0.622 0.03,-0.219 0.074,-0.469 0.131,-0.753 0.059,-0.283 0.153,-0.526 0.284,-0.729 h 2.137 c -0.262,0.508 -0.433,0.988 -0.513,1.438 -0.08,0.451 -0.12,0.866 -0.12,1.243 m 11.683,7.262 c -0.401,0.407 -0.872,0.72 -1.417,0.938 -0.546,0.218 -1.131,0.327 -1.756,0.327 -0.684,0 -1.294,-0.131 -1.832,-0.393 -0.538,-0.26 -0.952,-0.566 -1.242,-0.915 V 0 h -2.095 v -11.034 h 2.095 v 6.28 c 0,0.944 0.261,1.675 0.784,2.191 0.523,0.516 1.178,0.775 1.963,0.775 0.77,0 1.41,-0.255 1.919,-0.764 0.509,-0.509 0.763,-1.236 0.763,-2.18 v -6.302 h 2.093 v 6.454 c 0,0.741 -0.112,1.407 -0.338,1.996 -0.225,0.588 -0.538,1.086 -0.937,1.493 M 65.65,-4.492 c 0.087,0.392 0.237,0.752 0.448,1.079 0.21,0.327 0.468,0.61 0.773,0.85 0.306,0.241 0.644,0.429 1.014,0.567 0.371,0.139 0.767,0.208 1.189,0.208 0.828,0 1.527,-0.244 2.093,-0.731 0.567,-0.487 0.945,-1.145 1.135,-1.973 z m 8.495,1.221 c -0.27,0.683 -0.644,1.279 -1.124,1.788 -0.48,0.508 -1.057,0.912 -1.733,1.211 -0.677,0.296 -1.415,0.446 -2.214,0.446 -0.785,0 -1.523,-0.15 -2.214,-0.446 -0.69,-0.299 -1.29,-0.707 -1.798,-1.222 -0.509,-0.517 -0.914,-1.119 -1.21,-1.811 -0.299,-0.69 -0.448,-1.427 -0.448,-2.213 0,-0.784 0.149,-1.522 0.448,-2.213 0.296,-0.691 0.704,-1.294 1.22,-1.81 0.516,-0.517 1.119,-0.923 1.81,-1.221 0.691,-0.298 1.429,-0.447 2.214,-0.447 0.842,0 1.657,0.167 2.442,0.501 0.785,0.335 1.505,0.865 2.159,1.593 l -1.461,1.33 c -0.465,-0.51 -0.974,-0.88 -1.527,-1.112 -0.552,-0.233 -1.09,-0.349 -1.613,-0.349 -0.422,0 -0.828,0.072 -1.221,0.218 -0.394,0.145 -0.746,0.348 -1.059,0.611 -0.312,0.261 -0.574,0.569 -0.784,0.926 -0.211,0.356 -0.345,0.738 -0.403,1.145 h 8.875 c 0,0.101 0.007,0.203 0.021,0.305 0,0.087 0.004,0.182 0.012,0.284 0.007,0.102 0.011,0.203 0.011,0.305 0,0.77 -0.135,1.498 -0.403,2.181 m -53.002,2.169 c -0.422,0.415 -0.913,0.731 -1.472,0.949 -0.56,0.218 -1.152,0.327 -1.777,0.327 -0.655,0 -1.24,-0.127 -1.755,-0.381 -0.517,-0.255 -0.906,-0.549 -1.167,-0.884 V 4.23 h -2.094 v -15.264 h 2.094 v 6.236 c 0,0.959 0.261,1.701 0.784,2.225 0.523,0.523 1.178,0.785 1.963,0.785 0.77,0 1.41,-0.266 1.919,-0.796 0.509,-0.531 0.763,-1.27 0.763,-2.214 v -6.236 h 2.093 v 6.302 c 0,0.785 -0.119,1.483 -0.359,2.093 -0.24,0.611 -0.571,1.123 -0.992,1.537" /></g></g></g></g></svg>