<?xml version="1.0" encoding="utf-8"?>
<!-- Generator: Adobe Illustrator 16.0.0, SVG Export Plug-In . SVG Version: 6.00 Build 0)  -->
<!DOCTYPE svg PUBLIC "-//W3C//DTD SVG 1.1//EN" "http://www.w3.org/Graphics/SVG/1.1/DTD/svg11.dtd">
<svg version="1.1" id="图层_1" xmlns="http://www.w3.org/2000/svg" xmlns:xlink="http://www.w3.org/1999/xlink" x="0px" y="0px"
	 width="200px" height="200px" viewBox="0 0 200 200" enable-background="new 0 0 200 200" xml:space="preserve">
<polygon opacity="0.3" fill-rule="evenodd" clip-rule="evenodd" fill="#DBDCDC" points="99.622,114.806 99.622,178.477 
	137.366,136.238 "/>
<polygon opacity="0.5" fill-rule="evenodd" clip-rule="evenodd" fill="#231815" points="62.183,136.195 99.622,178.477 
	99.622,114.806 "/>
<polygon opacity="0.5" fill-rule="evenodd" clip-rule="evenodd" fill="#231815" points="99.664,114.897 99.628,178.477 
	137.374,136.238 151.903,77.574 "/>
<polygon opacity="0.5" fill-rule="evenodd" clip-rule="evenodd" fill="#231815" points="99.634,47.263 62.183,136.195 
	47.841,77.574 "/>
<polygon opacity="0.5" fill-rule="evenodd" clip-rule="evenodd" fill="#231815" points="99.634,47.263 47.841,77.574 
	151.896,77.574 "/>
<polygon opacity="0.5" fill-rule="evenodd" clip-rule="evenodd" fill="#231815" points="47.839,77.574 62.183,136.195 
	99.622,178.477 99.622,114.806 "/>
<polygon opacity="0.5" fill-rule="evenodd" clip-rule="evenodd" fill="#231815" points="47.839,77.574 4.155,21.522 36.974,31.579 
	"/>
<polygon opacity="0.5" fill-rule="evenodd" clip-rule="evenodd" fill="#231815" points="152.161,77.574 195.845,21.522 
	163.028,31.579 "/>
<polygon opacity="0.5" fill-rule="evenodd" clip-rule="evenodd" fill="#9E9E9F" points="99.622,114.806 47.387,77.572 
	152.228,77.572 "/>
<polygon opacity="0.5" fill-rule="evenodd" clip-rule="evenodd" fill="#231815" points="151.896,77.574 99.634,47.263 
	137.366,136.238 "/>
</svg>
