<?xml version="1.0" encoding="utf-8"?>
<!-- Generator: Adobe Illustrator 21.0.2, SVG Export Plug-In . SVG Version: 6.00 Build 0)  -->
<svg version="1.1" xmlns="http://www.w3.org/2000/svg" xmlns:xlink="http://www.w3.org/1999/xlink" x="0px" y="0px"
	 viewBox="0 0 1928 2476" style="enable-background:new 0 0 1928 2476;" xml:space="preserve">
<style type="text/css">
	
		.st0{fill-rule:evenodd;clip-rule:evenodd;fill:none;stroke:#B3B3B3;stroke-width:90;stroke-linecap:round;stroke-linejoin:round;stroke-miterlimit:1;}
	.st1{fill:none;stroke:#B3B3B3;stroke-width:90;stroke-miterlimit:1;}
	.st2{fill:#FFFFFF;}
	.st3{fill:url(#SVGID_1_);}
	.st4{fill:#7D181B;}
	.st5{fill:#651315;}
	.st6{fill:#4F0E0F;}
	.st7{fill:#B3B3B3;}
</style>
<g id="linee_grigie">
	<g>
		<polygon class="st0" points="281.2,1816.1 606.5,812.5 981.8,276 1346,809.8 1687.9,1816.1 984.6,2174.7 		"/>
		<polyline class="st1" points="1346,809.8 984.6,2174.7 580,809.8 		"/>
		<line class="st1" x1="980.6" y1="292" x2="980.6" y2="750.7"/>
	</g>
</g>
<g id="bianco">
	<polygon class="st2" points="1453.9,1985.8 1621.1,1901.7 1420.7,1901.7 1255.9,1985.8 	"/>
	<polygon class="st2" points="514.5,1985.6 349.5,1901.6 548.7,1901.6 713.7,1985.6 	"/>
</g>
<g id="triangolo">
	<linearGradient id="SVGID_1_" gradientUnits="userSpaceOnUse" x1="981.8859" y1="1901.7418" x2="981.8859" y2="664.9883">
		<stop  offset="0" style="stop-color:#480D0D"/>
		<stop  offset="1" style="stop-color:#B5232B"/>
	</linearGradient>
	<path class="st3" d="M981.9,665c15.2,0,21,8.9,21,8.9L1733.8,1837c0,0-9.5,11.8-22.9,18.6s-89.8,46.1-89.8,46.1l-1270.3-0.1
		c0,0-83-39.8-97.8-46.4c-13.8-6.1-23-18.2-23-18.2L958.2,674.1C958.2,674.1,964.8,665,981.9,665z"/>
</g>
<g id="finestre_rosse">
	<polygon class="st4" points="511.2,1169.2 658.3,1169.2 641.7,1372.4 524.1,1367.4 	"/>
	<polygon class="st5" points="379,1477.1 491.2,1483.4 485.5,1643.1 379,1650.5 	"/>
	<polygon class="st5" points="1516.1,1477.1 1633.1,1502 1621.1,1678 1528.1,1678 	"/>
	<polygon class="st6" points="1643.6,1712.6 1652.6,1849.1 1724.6,1840.1 1724.6,1723.1 1678.1,1697.6 	"/>
</g>
<g id="finestre_bianche">
	<polygon class="st2" points="258.8,1088 524,891.8 615.8,891.8 626,989.9 492,1088 259.5,1182.1 	"/>
	<polygon class="st2" points="1432,1331.9 1432,1420.3 1687.9,1502 1687.9,1438.7 1629.8,1392.5 1523.9,1354.7 	"/>
	<polygon class="st2" points="261.3,1266.1 478,1198 460,1440 356.8,1480 346.3,1670.2 258.8,1678 	"/>
	<polygon class="st2" points="1617.9,1518.8 1636,1663.4 1717.2,1678 1717.2,1518.8 	"/>
</g>
<g id="colosseo">
	<path class="st7" d="M1733.8,1723.4c0,0-0.5-175.5,0-227.4c0.4-43.8-1.7-70.2-1.7-70.2c-88.4-147.6-670.8-159.4-670.8-159.4v32.8
		v19.5H931.7l-36.7-43.5h-44.3l-69.9,1.1L753.2,1136v-109.2L724,987.1c0,0-13.2-1-27.9-2L663,890.6l-20.8-50.7l-36.4-89.1
		C283,854.1,230.5,1080.4,230.5,1080.4L230,1270v214v204v149h60.4v-76.1c0-22.1,11.6-40.2,25.9-40.2c14.2,0,25.9,18.1,25.9,40.2
		v76.1h83.4v-81.9c0-23.8,13.4-43.2,29.8-43.2c16.4,0,29.8,19.4,29.8,43.2v81.9h75.5v-87.7c0-25.4,15.2-46.2,33.8-46.2
		c18.6,0,33.8,20.8,33.8,46.2v87.7h67.7v-93.5c0-27.1,17-49.3,37.7-49.3c20.7,0,37.7,22.2,37.7,49.3v93.5H831v-99.3
		c0-28.8,18.7-52.3,41.6-52.3c22.9,0,41.6,23.5,41.6,52.3v99.3H942h42.3v-105.2c0-30.4,22.4-55.3,49.8-55.3
		c27.4,0,49.8,24.9,49.8,55.3V1837h34h35.5v-100.3c0-28.8,16.9-52.3,37.5-52.3c20.6,0,37.5,23.5,37.5,52.3V1837h57.9v-94.4
		c0-27.1,15.3-49.3,33.9-49.3c18.7,0,33.9,22.2,33.9,49.3v94.4h65v-88.6c0-25.4,13.7-46.2,30.4-46.2c16.7,0,30.4,20.8,30.4,46.2
		v88.6h45h21.9v-82.8c0-23.8,12.1-43.2,26.8-43.2c14.8,0,26.8,19.4,26.8,43.2v82.8h67.9v-77c0-22.1,10.5-40.2,23.3-40.2
		c12.8,0,23.3,18.1,23.3,40.2v77h18.8C1733.8,1834.7,1733.8,1723.4,1733.8,1723.4z M273.1,1099.8l38.2-35.1v49.8l-38.2,35.1V1099.8z
		 M332.6,1630.6l-51.8,10v-77c0-22.1,11.6-40.2,25.9-40.2c14.2,0,25.9,18.1,25.9,40.2V1630.6z M332.6,1380.7l-51.8,10.8v-77
		c0-22.1,11.6-40.2,25.9-40.2c14.2,0,25.9,18.1,25.9,40.2V1380.7z M403.1,1009.8l36.1-23.6v49.8l-36.1,23.6V1009.8z M402.9,1267
		c0-23.8,13.4-43.2,29.8-43.2c16.4,0,29.8,19.4,29.8,43.2v82.8l-59.6,9.8V1267z M466.7,1610.1L407,1621v-82.8
		c0-23.8,13.4-43.2,29.8-43.2c16.4,0,29.8,19.4,29.8,43.2V1610.1z M549.1,929.6l36.1-18.5l4.8,47.7l-40.9,20.6V929.6z M609.7,1599
		l-67.5,6.4v-88.6c0-25.4,15.2-46.2,33.8-46.2c18.6,0,33.8,20.8,33.8,46.2V1599z M609.7,1324.3l-67.5,8.6V1230
		c0-25.4,15.2-46.2,33.8-46.2c18.6,0,33.8,20.8,33.8,46.2V1324.3z M761.7,1595.3h-75.4v-94.4c0-27.1,17-49.3,37.7-49.3
		c20.7,0,37.7,22.2,37.7,49.3V1595.3z M904.8,1595.3h-83.2V1495c0-28.8,18.7-52.3,41.6-52.3s41.6,23.5,41.6,52.3V1595.3z
		 M1092.8,1595.3h-99.5v-106.1c0-30.4,22.4-55.3,49.8-55.3c27.4,0,49.8,24.9,49.8,55.3V1595.3z M1247,1608.2l-83.2-7V1501
		c0-28.8,18.7-52.3,41.6-52.3c22.9,0,41.6,23.5,41.6,52.3V1608.2z M1273.5,1381.9l-36-3.5v-49.8l36,3.5V1381.9z M1373.5,1617.5
		l-75.4-7.6v-94.4c0-27.1,17-49.3,37.7-49.3c20.7,0,37.7,22.2,37.7,49.3V1617.5z M1402,1397.5l-36-5.4v-48.1l36,7V1397.5z
		 M1495.4,1626.7l-67.5-10.5v-88.6c0-25.4,15.2-46.2,33.8-46.2c18.6,0,33.8,20.8,33.8,46.2V1626.7z M1505.9,1424.9V1375l37.9,10.4
		v49.8L1505.9,1424.9z M1603.4,1640.6l-59.6-10v-72.8c0-23.8,13.4-43.2,29.8-43.2c16.4,0,29.8,19.4,29.8,43.2V1640.6z
		 M1633.6,1411.5l34.7,14v49.8l-34.7-14V1411.5z M1707.9,1653.9l-51.8-9.3v-67.6c0-22.1,11.6-40.2,25.9-40.2
		c14.2,0,25.9,18.1,25.9,40.2V1653.9z"/>
</g>
</svg>
