<?xml version="1.0" encoding="utf-8"?>
<!-- Generator: Adobe Illustrator 19.0.0, SVG Export Plug-In . SVG Version: 6.00 Build 0)  -->
<svg version="1.0" id="图层_1" xmlns="http://www.w3.org/2000/svg" xmlns:xlink="http://www.w3.org/1999/xlink" x="0px" y="0px"
	 viewBox="0 0 256 256" style="enable-background:new 0 0 256 256;" xml:space="preserve">
<style type="text/css">
	.st0{fill:#231815;}
</style>
<g>
	<path class="st0" d="M66.7,88.2c-0.6-0.4-1.4-0.3-1.9,0.2L7.6,136.6c-0.6,0.5-0.8,1.3-0.4,2L20,167c0.2,0.4,0.5,0.7,0.9,0.9
		c0.2,0.1,0.4,0.1,0.6,0.1c0.2,0,0.5-0.1,0.7-0.2c0.8-0.4,1.2-1.4,0.8-2.2l-12.3-27.3L63.4,94l-12.4,67.6l-20.3,1.9l-5.9-12.5
		l22.8-29.1l-8.5,24l-2.3-4.3c-0.2-0.4-0.6-0.7-1-0.8c-0.4-0.1-0.9-0.1-1.3,0.1c-0.4,0.2-0.7,0.6-0.8,1c-0.1,0.4-0.1,0.9,0.1,1.3
		l4.1,7.7c0.3,0.6,0.9,0.9,1.6,0.9c0.7-0.1,1.2-0.5,1.5-1.1l13.2-37.4c0.3-0.9-0.2-1.7-0.8-2c-0.6-0.3-1.5-0.3-2.1,0.4l-29.8,38.1
		c-0.4,0.5-0.5,1.2-0.2,1.8l6.9,14.6c0.3,0.6,1,1,1.7,1l22.8-2.1c0.7-0.1,1.4-0.6,1.5-1.4L67.5,90C67.7,89.3,67.3,88.6,66.7,88.2z"
		/>
	<path class="st0" d="M177.3,142.4c0,2.1-0.6,3.8-1.9,5c-1.2,1.2-2.9,1.8-4.8,1.8H166v-3.4h4.4c1,0,1.7-0.2,2.3-0.7
		c0.7-0.5,1-1.3,1-2.4c0-1.1-0.4-1.9-1.2-2.4c-0.6-0.4-1.4-0.6-2.5-0.6H166v-3.4h3.6c1.1,0,2-0.3,2.5-1c0.4-0.5,0.6-1.2,0.6-2
		c0-1-0.3-1.7-1-2.2c-0.7-0.5-1.6-0.7-2.6-0.7c-1.1,0-2,0.3-2.6,1c-0.6,0.7-1,1.5-1,2.5l0,15.4H162v-15.8c0-1.7,0.6-3.2,1.9-4.4
		c1.4-1.3,3.1-2,5.1-2c2.1,0,3.7,0.5,5.1,1.5c1.5,1.1,2.2,2.6,2.2,4.6c0,1.2-0.2,2.2-0.5,2.8c-0.2,0.5-0.7,1.1-1.3,1.6
		c0.9,0.6,1.7,1.4,2.1,2.3C177.1,140.5,177.3,141.4,177.3,142.4z"/>
	<path class="st0" d="M196.6,135v14.3h3.4V135c-0.5,0.4-1,0.6-1.7,0.6C197.7,135.6,197.1,135.3,196.6,135z"/>
	<path class="st0" d="M198.4,134.7c0.5,0,1-0.2,1.3-0.5c0.4-0.4,0.5-0.8,0.5-1.4c0-0.6-0.2-1-0.6-1.4c-0.4-0.4-0.9-0.5-1.4-0.5
		s-1,0.2-1.3,0.5c-0.4,0.4-0.6,0.8-0.6,1.3c0,0.6,0.2,1.1,0.6,1.5C197.4,134.5,197.9,134.7,198.4,134.7z"/>
	<g>
		<path class="st0" d="M229.9,135.3c-1.2-0.9-2.6-1.4-4.1-1.4c-1.8,0-3.4,0.6-4.6,1.8s-1.9,2.7-1.9,4.4v9.1h3.4v-9.1
			c0-0.9,0.3-1.6,0.9-2.2c0.6-0.6,1.3-0.9,2.2-0.9c0.9,0,1.6,0.3,2.2,1c0.6,0.7,0.9,1.5,0.9,2.3l0,8.8h3.4v-8.9
			C232.3,138.2,231.5,136.5,229.9,135.3z"/>
		<path class="st0" d="M249,140.9c0-2-0.7-3.7-2.2-5c-1.4-1.3-3.2-2-5.3-2c-1.9,0-3.6,0.6-5,1.7c-1.8,1.5-2.7,3.5-2.7,6.2
			c0,2.1,0.7,3.9,2.1,5.4c1.4,1.5,3.2,2.3,5.3,2.3c1.3,0,2.6-0.4,4.1-1.1v-3.6c-1,0.6-1.7,0.9-2.2,1.1c-0.5,0.2-1,0.3-1.6,0.3
			c-1.3,0-2.4-0.4-3.2-1.3c-0.7-0.8-1.1-1.7-1.1-2.7l-0.1-0.5c0-1.6,0.5-2.7,1.4-3.5c0.8-0.7,1.8-1,3.1-1c1.1,0,2.1,0.4,2.8,1.3
			c0.8,0.9,1.2,2,1.2,3.5v7c0,1.2-0.4,2.1-1.3,2.8c-0.9,0.7-1.9,1.1-3.2,1.1c-0.6,0-1.2-0.1-1.9-0.2c-0.7-0.1-1.5-0.3-2.4-0.6
			l-0.9,3.1c0.9,0.3,1.7,0.5,2.6,0.7c0.8,0.2,1.7,0.3,2.8,0.3c2.4,0,4.2-0.7,5.6-2.1c1.4-1.5,2.2-3.3,2.2-5.6L249,140.9z"/>
		<path class="st0" d="M212.3,135v14.3h3.4V135c-0.5,0.4-1,0.6-1.7,0.6C213.4,135.6,212.8,135.3,212.3,135z"/>
		<path class="st0" d="M214,130.8c-0.5,0-1,0.2-1.3,0.5c-0.4,0.4-0.6,0.8-0.6,1.3c0,0.6,0.2,1.1,0.6,1.5c0.4,0.4,0.8,0.6,1.4,0.6
			c0.5,0,1-0.2,1.3-0.5c0.4-0.4,0.5-0.8,0.5-1.4c0-0.6-0.2-1-0.6-1.4C215,131,214.5,130.8,214,130.8z"/>
	</g>
	<path class="st0" d="M189.1,145.2c-0.7,0.8-1.7,1.2-3.1,1.2c-1.3,0-2.4-0.5-3.2-1.4c-0.8-0.9-1.1-1.8-1.1-3c0-1.3,0.4-2.4,1.1-3.4
		c0.7-0.9,1.8-1.4,3.1-1.4c0.7,0,1.2,0.1,1.7,0.2c0.4,0.2,0.8,0.4,1,0.6l-5.3,3l0,0c0,0-1.6,1.2-0.2,3.7l10.3-5.7
		c-0.9-1.7-2-3-3.2-3.8c-1.2-0.8-2.6-1.2-4.3-1.2c-2,0-3.7,0.6-5.1,1.9c-1.7,1.5-2.6,3.6-2.6,6.2c0,2.1,0.8,3.8,2.3,5.3
		c1.5,1.5,3.3,2.2,5.3,2.2c2.5,0,4.5-0.8,6-2.5c1.3-1.5,2-3.1,2-4.9l-3.3-0.5C190.1,143.4,189.7,144.5,189.1,145.2z"/>
	<g>
		<g>
			<path class="st0" d="M142.7,127.1c2.4,0,4.8,0.9,6.6,2.5c1.1,0.9,2.7,0.8,3.7-0.2c0.9-1.1,0.8-2.7-0.2-3.7
				c-2.8-2.4-6.3-3.8-10-3.8c-4.9,0-9.3,2.3-12,5.9c1.2,1.8,2.1,3.8,2.6,5.9C134.7,129.9,138.4,127.1,142.7,127.1z"/>
			<path class="st0" d="M151.3,134.5h-17.9c0.1,0.8,0.2,1.7,0.2,2.6c0,0.9-0.1,1.7-0.2,2.6h14.8c-1.1,4.1-4.7,7.1-9,7.4
				c-0.1,0-0.1,0-0.2,0c-0.1,0-0.3,0-0.4,0c-0.9,0-1.8-0.1-2.7-0.4c-1.4-0.4-2.8,0.4-3.2,1.8c-0.4,1.4,0.4,2.8,1.8,3.2
				c1.3,0.4,2.7,0.6,4.1,0.6c0.1,0,0.1,0,0.2,0v0c8.3,0,15.1-6.8,15.1-15.1C153.9,135.6,152.8,134.5,151.3,134.5z"/>
		</g>
		<path class="st0" d="M102.5,141.8c-1.7,3.1-5,5.2-8.7,5.2c-4.6,0-8.5-3.1-9.6-7.4h12.2c1.4,0,2.6-1.2,2.6-2.6s-1.2-2.6-2.6-2.6
			H84.2c1.2-4.2,5-7.3,9.6-7.3c1.3,0,2.6,0.3,3.9,0.8c1.3,0.6,2.8-0.1,3.4-1.4c0.6-1.3-0.1-2.8-1.4-3.4c-1.9-0.8-3.8-1.2-5.9-1.2
			c-8.3,0-15.1,6.8-15.1,15.1s6.8,15.1,15.1,15.1c4.6,0,8.7-2,11.5-5.3C104,145.4,103.1,143.7,102.5,141.8z"/>
		<g>
			<path class="st0" d="M117.7,151.4c-7.9,0-14.3-6.4-14.3-14.3c0-7.9,6.4-14.3,14.3-14.3s14.3,6.4,14.3,14.3
				C132.1,145,125.6,151.4,117.7,151.4z M117.7,127.9c-5.1,0-9.2,4.1-9.2,9.2c0,5.1,4.1,9.2,9.2,9.2c5.1,0,9.2-4.1,9.2-9.2
				C126.9,132,122.8,127.9,117.7,127.9z"/>
		</g>
	</g>
	<path class="st0" d="M206.6,134.6c-0.8,0-1.4-0.3-2-0.8v14.9c0,1.3-0.1,2.2-0.3,2.7c-0.3,0.7-1,1-2.1,1h-1.6v3.4l1.6,0
		c2,0,3.4-0.5,4.5-1.6c1-1,1.4-2.3,1.4-3.9v-16.1C207.7,134.4,207.2,134.6,206.6,134.6z"/>
	<circle class="st0" cx="206.6" cy="131.4" r="2.3"/>
</g>
</svg>
