<svg id="图层_1" data-name="图层 1" xmlns="http://www.w3.org/2000/svg" viewBox="0 0 113.81 155.16"><defs><style>.cls-1{fill:#231815;}.cls-2{opacity:0.8;}.cls-3{fill:#040000;}</style></defs><title>slowmistzone</title><path class="cls-1" d="M58.19,135.54H62v2.94h.73v3.8H62v20.84h-3.8V142.28h-.86v20H53.77V136.15h3.56v2.33h.86Zm5.15,19.74H81.48v2.2l-5.27,3.07h.25a17.65,17.65,0,0,1,1.84.12h3.31v2.7H74.25a4,4,0,0,1-1.59-.37l-1.11-.25-1.22.37a5.86,5.86,0,0,1-1.48.37H63.09v-2.82h2.45a9.08,9.08,0,0,1,2-.12l-3.68-1.72H72l1.6-.73H63.34Zm0-8.34H81.61v4.66c-.09,1.88-1,2.86-2.7,2.94H63.34Zm.12-11.16H81.61v7.48q0,3.06-2.58,2.94H63.46ZM68.24,150H66.77v1.35h1.47Zm9.44-11.28H67.26v1H77.68Zm-.12,3.68H67.26v1h9.93c.17,0,.29-.12.37-.37Zm-4.41,7.73H71.8v1.22h1.35Zm5,0H76.7v1.22h1.11a.76.76,0,0,0,.36-.37Z" transform="translate(-43.11 -23.84)"/><path class="cls-1" d="M86.28,135.54h27.1v2.57H101.85v1.1h11.4v6.87h-4V141.3h-7.36v4.9H97.93v-4.78H90.57v5h-4v-7.11H97.93v-1.23H86.28Zm.12,14.83V148h2.21a.71.71,0,0,0,.86-.37l.61-.61h3.55l-.36.37h20.11v2.7l-8.83,2.69c.16.17.69.21,1.59.13h7.36v2.45h-8.83a6.44,6.44,0,0,1-3.31-.37l-1.59-.61-1.6.61a9,9,0,0,1-2.82.49h2.21l-.37,1.23h16.19V161c0,1.47-.66,2.21-2,2.21h-9.68v-2.58h6.62c.57,0,.86-.2.86-.61v-.62H96.58l-.74,2.33a2,2,0,0,1-2.08,1.72H86.28v-2.57h4.9a1,1,0,0,0,.86-.62l.37-.86H86.52v-2.69H92.9l.37-1.11H86.4v-2.45H93a3.18,3.18,0,0,0,1.23,0c.41-.08.94-.2,1.59-.37L92,150.74h6.62l1.11.61,4.65-1.59H92.16a2.14,2.14,0,0,1-2,.61Zm10.3-6.13H93.88a1.26,1.26,0,0,1-1.47-.74L91.31,142h3.18l.25.37a.48.48,0,0,0,.49.25H96.7Zm-1.84,2.21H91.67V145.1h1.47c.33.08.54,0,.62-.25l.24-.24h2.82l-.73,1.22C95.92,146.33,95.51,146.53,94.86,146.45Zm8-2.45v-1.48h2.33a.71.71,0,0,0,.49-.24l.12-.37h3l-.86,1.47c-.17.49-.57.7-1.23.62Zm5.4,2.33h-2.82c-.74.08-1.19-.09-1.35-.5l-1.23-1.34h2.94l.25.24a.49.49,0,0,0,.61.25h1.6Z" transform="translate(-43.11 -23.84)"/><path class="cls-1" d="M117.91,135.41H146v3.68H122.2v20.23a.33.33,0,0,0,.37.37H146v3.56H120.12c-1.47-.09-2.21-1-2.21-2.83Zm14,15.7-8.09-10.06h5.27l5.64,6.62,5.64-6.49h5.27l-8.34,9.93,3.07,3.43c.16.33.53.49,1.1.49h4.42v3.43h-6.13a2.17,2.17,0,0,1-2.21-.85l-2.94-3.32-3,3a2.82,2.82,0,0,1-2.45,1h-5.64v-3.44h4.17c.33.09.65-.08,1-.49Z" transform="translate(-43.11 -23.84)"/><path class="cls-1" d="M110.13,104.7c-9.93,11.45-19.61,16.5-19.61,16.5S49.75,100,49.75,45.64C71.69,44.57,87.33,34.7,90.52,31.51c1.9,1.9,8.23,6.18,17.68,9.55V34.8c-10.64-4-15.78-9-17.68-11-3.19,3.19-15.37,15-47.26,16.54-3.19,64.16,47.26,88.32,47.26,88.32s14.92-7.15,28-24Z" transform="translate(-43.11 -23.84)"/><rect class="cls-1" x="64.47" y="46.11" width="14.72" height="13.41"/><rect class="cls-1" x="59.15" y="60.87" width="4.29" height="3.75"/><rect class="cls-1" x="66.61" y="67.49" width="6.42" height="5.86"/><rect class="cls-1" x="79.27" y="68.33" width="9.67" height="8.49"/><rect class="cls-1" x="102.27" y="40.2" width="11.53" height="10.51"/><rect class="cls-1" x="107.4" y="20.45" width="5.3" height="4.84"/><rect class="cls-1" x="96.94" y="23.33" width="5.31" height="4.83"/><rect class="cls-1" x="95.44" y="51.65" width="6.82" height="6.21"/><rect class="cls-1" x="90.13" y="62.82" width="7.32" height="6.45"/><rect class="cls-1" x="83.34" y="12.45" width="8.02" height="7.12"/><rect class="cls-1" x="68.8" y="6.07" width="7.16" height="6.35"/><rect class="cls-1" x="58.77" y="18.55" width="9.19" height="8.15"/><rect class="cls-1" x="58.77" y="22.79" width="0.74" height="8.15"/><rect class="cls-1" x="72.51" y="12.09" width="0.74" height="8.15"/><rect class="cls-1" x="88.17" y="18.61" width="0.74" height="18.05"/><rect class="cls-1" x="108.81" y="24.15" width="0.74" height="18.05"/><rect class="cls-1" x="100.58" y="24.54" width="8.7" height="0.74"/><rect class="cls-1" x="93.96" y="42.55" width="8.71" height="0.74"/><rect class="cls-1" x="88.02" y="52.18" width="8.7" height="0.74"/><rect class="cls-1" x="77.01" y="54.85" width="8.71" height="0.74"/><rect class="cls-1" x="84.74" y="68.33" width="8.7" height="0.74"/><rect class="cls-1" x="143.05" y="74.67" width="4.36" height="0.74" transform="translate(-40.24 131.55) rotate(-56.77)"/><polygon class="cls-1" points="62.77 62.18 62.25 61.65 65.34 58.58 65.86 59.1 62.77 62.18"/><rect class="cls-1" x="75.88" y="37.92" width="8.7" height="0.74"/><rect class="cls-1" x="61.69" y="30.45" width="8.7" height="0.74"/><rect class="cls-1" x="75.51" y="23.49" width="0.74" height="18.05"/><rect class="cls-1" x="72.29" y="53.98" width="0.74" height="18.04"/><rect class="cls-1" x="96.7" y="52.1" width="0.74" height="13.62"/><rect class="cls-1" x="70.03" y="19.58" width="13.52" height="12.28"/><rect class="cls-1" x="73.9" y="40.63" width="3.56" height="3.17"/><rect class="cls-1" x="84.08" y="34.77" width="10.19" height="9"/><rect class="cls-1" x="51.76" y="30.45" width="10.58" height="9.63"/><rect class="cls-1" x="84.08" y="50.38" width="5.72" height="5.21"/><g class="cls-2"><path class="cls-1" d="M90.52,121.2V31.51C87.33,34.7,71.69,44.57,49.75,45.64,49.75,100,90.52,121.2,90.52,121.2Z" transform="translate(-43.11 -23.84)"/></g><path class="cls-3" d="M62,175.73q0,3-3.27,3H53.85v-1.35H58.7a2.7,2.7,0,0,0,1.41-.29,1.6,1.6,0,0,0,.51-1.35c0-.9-.59-1.35-1.75-1.35h-2a3.82,3.82,0,0,1-2.2-.62,2.23,2.23,0,0,1-1-2,2.27,2.27,0,0,1,1.12-2.09,3.84,3.84,0,0,1,1.92-.45h4.9v1.35h-4.9c-1.13,0-1.69.4-1.69,1.19a1.08,1.08,0,0,0,.45.9,2.49,2.49,0,0,0,1.41.34h2a3.63,3.63,0,0,1,2,.56A2.44,2.44,0,0,1,62,175.73Z" transform="translate(-43.11 -23.84)"/><path class="cls-3" d="M64.05,178.72H62.76v-9.47h1.29Z" transform="translate(-43.11 -23.84)"/><path class="cls-3" d="M72.11,175.34a3.66,3.66,0,0,1-6.25,2.59,3.8,3.8,0,0,1,0-5.18,3.66,3.66,0,0,1,6.25,2.59Zm-1.29,0a2.15,2.15,0,0,0-.74-1.64,2.21,2.21,0,0,0-1.63-.67,2.29,2.29,0,0,0-2.31,2.31,2.21,2.21,0,0,0,.67,1.63,2.26,2.26,0,0,0,1.64.68,2.22,2.22,0,0,0,1.63-.68A2.13,2.13,0,0,0,70.82,175.34Z" transform="translate(-43.11 -23.84)"/><path class="cls-3" d="M82.87,172,81,178.72h-1.4l-1.75-4.51-1.8,4.51H74.7L72.84,172H74.2l1.29,4.57L77.3,172h1.12l1.81,4.57L81.52,172Z" transform="translate(-43.11 -23.84)"/><path class="cls-3" d="M93.92,178.72H92.57v-7.61l-3.27,7.61H88.23L85,171.11v7.61H83.66v-9.47h2l3.15,7.33,3.1-7.33h2Z" transform="translate(-43.11 -23.84)"/><path class="cls-3" d="M97,170.6H95.67v-1.35H97Zm0,8.12H95.67V172H97Z" transform="translate(-43.11 -23.84)"/><path class="cls-3" d="M105,176.63c0,1.39-.86,2.09-2.59,2.09H98.93v-1.35h3.44a2.2,2.2,0,0,0,1-.17.63.63,0,0,0,.28-.57c0-.48-.36-.73-1.07-.73h-1.41c-1.69,0-2.54-.66-2.54-2a1.71,1.71,0,0,1,.85-1.58A3.19,3.19,0,0,1,101,172h3.49v1.3H101c-.71,0-1.07.21-1.07.62a.53.53,0,0,0,.45.56,3,3,0,0,0,.79.06h1.41a2.65,2.65,0,0,1,1.74.56A1.84,1.84,0,0,1,105,176.63Z" transform="translate(-43.11 -23.84)"/><path class="cls-3" d="M110.94,173.31h-2.31v2.82a1.68,1.68,0,0,0,.17,1,.71.71,0,0,0,.67.29h1.41v1.35h-1.41c-1.43,0-2.14-.86-2.14-2.59v-2.82H105.7V172h1.63v-2.76h1.3V172h2.31Z" transform="translate(-43.11 -23.84)"/><path class="cls-3" d="M124,178.72h-8.18v-1.35l6.31-6.77h-6.36v-1.35h8.17v1.41l-6.26,6.71H124Z" transform="translate(-43.11 -23.84)"/><path class="cls-3" d="M132,175.34a3.5,3.5,0,0,1-1.07,2.59,3.67,3.67,0,0,1-5.18,0,3.8,3.8,0,0,1,0-5.18,3.66,3.66,0,0,1,6.25,2.59Zm-1.29,0a2.15,2.15,0,0,0-.74-1.64,2.31,2.31,0,0,0-3.94,1.64,2.18,2.18,0,0,0,.68,1.63,2.29,2.29,0,0,0,3.26,0A2.13,2.13,0,0,0,130.72,175.34Z" transform="translate(-43.11 -23.84)"/><path class="cls-3" d="M138.89,178.72h-1.35v-3.21a2.41,2.41,0,0,0-.51-1.81,2.21,2.21,0,0,0-1.52-.39H134v5.41h-1.29V172h2.76a3.66,3.66,0,0,1,2.42.68,3.58,3.58,0,0,1,1,2.82Z" transform="translate(-43.11 -23.84)"/><path class="cls-3" d="M146,176h-5.07a1.5,1.5,0,0,0,.62,1.12,3.29,3.29,0,0,0,1.57.29h2.71v1.35h-2.71c-2.36,0-3.55-1.15-3.55-3.44a3.74,3.74,0,0,1,.74-2.36,3,3,0,0,1,2.59-1.25,2.66,2.66,0,0,1,2.48,1.41,4,4,0,0,1,.62,2.2Zm-1.41-1.35c-.23-1.06-.79-1.58-1.69-1.58a1.81,1.81,0,0,0-2,1.58Z" transform="translate(-43.11 -23.84)"/></svg>