<?xml version="1.0" encoding="utf-8"?>
<!-- Generator: Adobe Illustrator 22.1.0, SVG Export Plug-In . SVG Version: 6.00 Build 0)  -->
<svg version="1.1" id="Layer_1" xmlns="http://www.w3.org/2000/svg" xmlns:xlink="http://www.w3.org/1999/xlink" x="0px" y="0px"
	 viewBox="0 0 841.9 595.3" style="enable-background:new 0 0 841.9 595.3;" xml:space="preserve">
<style type="text/css">
	.st0{fill:#414042;}
	.st1{fill:#00A651;}
	.st2{fill:#6DC8BF;}
	.st3{fill:#00ADDC;}
	.st4{fill:#524FA1;}
	.st5{fill:#B72467;}
</style>
<g>
	<g>
		<path class="st0" d="M89.1,523.8c0,5.5-1,10.6-3.1,15.5c-2.1,4.8-4.9,9.1-8.5,12.7s-7.8,6.4-12.6,8.5c-4.8,2.1-9.9,3.1-15.4,3.1
			c-5.5,0-10.6-1-15.5-3.1c-4.8-2.1-9.1-4.9-12.7-8.5c-3.6-3.6-6.4-7.8-8.5-12.7c-2.1-4.8-3.1-10-3.1-15.5v-59.4h19.8v25
			c4.4-2.5,8.9-4.1,13.6-4.8c4.6-0.7,9.2-0.6,13.6,0.2c4.4,0.9,8.6,2.4,12.4,4.7c3.9,2.3,7.3,5.1,10.2,8.5c2.9,3.4,5.2,7.3,7,11.6
			C88.3,514,89.1,518.7,89.1,523.8z M69.3,523.8c0-2.7-0.5-5.2-1.5-7.7c-1-2.4-2.4-4.6-4.2-6.3c-1.8-1.8-3.9-3.2-6.3-4.2
			c-2.4-1.1-4.9-1.6-7.6-1.6c-2.8,0-5.4,0.5-7.8,1.6c-2.4,1.1-4.5,2.5-6.3,4.2c-1.8,1.8-3.2,3.9-4.2,6.3c-1.1,2.4-1.6,5-1.6,7.7
			c0,2.8,0.5,5.4,1.6,7.8c1.1,2.4,2.5,4.5,4.2,6.3c1.8,1.8,3.9,3.2,6.3,4.2c2.4,1.1,5,1.6,7.8,1.6c2.7,0,5.2-0.5,7.6-1.6
			c2.4-1.1,4.5-2.5,6.3-4.2c1.8-1.8,3.2-3.9,4.2-6.3C68.8,529.1,69.3,526.5,69.3,523.8z"/>
		<path class="st0" d="M117.3,563.4H97.5v-99.2h19.8V563.4z"/>
		<path class="st0" d="M203.7,523.8c0,5.5-1,10.6-3.1,15.5c-2.1,4.8-4.9,9.1-8.5,12.7c-3.6,3.6-7.8,6.4-12.6,8.5
			c-4.8,2.1-9.9,3.1-15.4,3.1c-5.2,0-10.1-1-14.9-3c-4.7-2-9-4.8-12.7-8.3c-3.7-3.5-6.6-7.7-8.8-12.5c-2.2-4.8-3.2-10.1-3.2-15.9
			c0-5.5,1-10.6,3.1-15.4c2.1-4.8,4.9-9,8.5-12.6c3.6-3.6,7.8-6.4,12.6-8.6c4.8-2.1,9.9-3.2,15.4-3.2c5.2,0,10.1,1,14.9,3
			c4.7,2,9,4.8,12.6,8.3c3.7,3.5,6.6,7.7,8.8,12.5C202.6,512.7,203.7,518,203.7,523.8z M164.2,543.6c2.7,0,5.2-0.5,7.6-1.6
			c2.4-1.1,4.5-2.5,6.3-4.2c1.8-1.8,3.2-3.9,4.2-6.3c1-2.4,1.5-5,1.5-7.8c0-2.7-0.5-5.2-1.5-7.7c-1-2.4-2.4-4.6-4.2-6.3
			c-1.8-1.8-3.9-3.2-6.3-4.2c-2.4-1.1-4.9-1.6-7.6-1.6c-2.8,0-5.4,0.5-7.8,1.6c-2.4,1.1-4.5,2.5-6.3,4.2c-1.8,1.8-3.2,3.9-4.2,6.3
			s-1.6,5-1.6,7.7c0,2.8,0.5,5.4,1.6,7.8c1.1,2.4,2.5,4.5,4.2,6.3c1.8,1.8,3.9,3.2,6.3,4.2C158.8,543.1,161.4,543.6,164.2,543.6z"/>
		<path class="st0" d="M374.3,550.2v13.2h-19.8v-13.2c0-2.7-0.5-5.2-1.6-7.7s-2.5-4.6-4.2-6.3c-1.8-1.8-3.9-3.2-6.3-4.2
			c-2.4-1.1-5-1.6-7.7-1.6c-2.8,0-5.4,0.5-7.8,1.6c-2.4,1.1-4.5,2.5-6.3,4.2c-1.8,1.8-3.2,3.9-4.2,6.3c-1.1,2.4-1.6,5-1.6,7.7v13.2
			H295v-39.7v-59.4h19.8v25.2v26.3l31.6-31.6h27.9l-28,28.2c4.1,1.2,7.9,3.1,11.4,5.6c3.4,2.5,6.4,5.4,8.9,8.7c2.5,3.3,4.4,7,5.7,11
			C373.7,541.7,374.3,545.9,374.3,550.2z"/>
		<path class="st0" d="M605.1,484.1v79.1h-19.8v-5.3c-6.6,3.8-13.4,5.6-20.4,5.4c-7-0.2-13.4-2-19.2-5.3
			c-5.8-3.3-10.5-7.9-14.2-13.9c-3.7-5.9-5.5-12.7-5.5-20.4c0-7.7,1.8-14.5,5.5-20.4c3.7-5.9,8.4-10.6,14.2-13.9
			c5.8-3.3,12.2-5.1,19.2-5.4c7-0.2,13.8,1.6,20.4,5.4v-5.3H605.1z M585.3,523.7V523v-0.1c-0.1-2.7-0.7-5.2-1.7-7.5
			c-1.1-2.3-2.5-4.3-4.3-6c-1.8-1.7-3.9-3.1-6.2-4c-2.3-1-4.9-1.4-7.5-1.4c-2.8,0-5.4,0.5-7.8,1.5c-2.4,1-4.5,2.4-6.2,4.2
			c-1.8,1.8-3.2,3.9-4.2,6.3c-1.1,2.4-1.6,5-1.6,7.8c0,2.8,0.5,5.3,1.6,7.7c1.1,2.3,2.5,4.4,4.2,6.2c1.8,1.8,3.9,3.2,6.2,4.2
			c2.4,1,5,1.5,7.8,1.5c2.7,0,5.2-0.5,7.5-1.4c2.3-1,4.4-2.3,6.2-4c1.8-1.7,3.3-3.7,4.3-6c1.1-2.3,1.6-4.8,1.7-7.5v-0.1V523.7z"/>
		<path class="st0" d="M633.1,523.8c0,2.8,0.5,5.3,1.6,7.7c1.1,2.3,2.5,4.4,4.2,6.2c1.8,1.8,3.9,3.2,6.2,4.2c2.4,1,5,1.5,7.8,1.5
			h6.6v19.8h-6.6c-5.5,0-10.6-1-15.4-3.1c-4.8-2.1-9-4.9-12.6-8.5c-3.6-3.6-6.4-7.8-8.5-12.6c-2.1-4.8-3.1-9.9-3.1-15.4v-59.4h19.8
			v19.8h19.8V504h-19.8v6.6v6.6V523.8z"/>
		<path class="st0" d="M666.4,563.3v-38v-41.5H686v7.3c3-1.7,6.2-3.1,9.5-4c3.4-1,6.9-1.4,10.6-1.4H717v19.8h-10.9
			c-2.8,0-5.4,0.5-7.8,1.6c-2.4,1.1-4.5,2.5-6.2,4.2c-1.8,1.8-3.2,3.9-4.2,6.3s-1.6,5-1.6,7.7v38H666.4z"/>
		<path class="st0" d="M744.5,484.2h-19.8v-19.8h19.8V484.2z M744.5,563.3h-19.8v-71.5h19.8V563.3z"/>
		<path class="st0" d="M772.5,494.2c0,2.7,0.5,5.2,1.6,7.6c1.1,2.4,2.5,4.5,4.2,6.2c1.8,1.8,3.9,3.2,6.2,4.2c2.4,1.1,5,1.6,7.8,1.6
			c2.8,0,5.4-0.5,7.8-1.6c2.4-1,4.5-2.5,6.3-4.2c1.8-1.8,3.2-3.9,4.2-6.2c1-2.4,1.5-4.9,1.5-7.6v-9.9H832v9.9c0,6.3-1,11.8-3.1,16.4
			c-2.1,4.6-5.5,9-10.3,13.2c4.7,4.2,8.1,8.6,10.2,13.3c2.1,4.6,3.2,10.1,3.2,16.4v9.8h-19.8v-9.8c0-2.7-0.5-5.2-1.5-7.7
			c-1-2.4-2.4-4.5-4.2-6.3c-1.8-1.8-3.9-3.2-6.3-4.2c-2.4-1.1-5-1.6-7.8-1.6c-2.8,0-5.4,0.5-7.8,1.6c-2.4,1.1-4.5,2.5-6.2,4.2
			c-1.8,1.8-3.2,3.9-4.2,6.3c-1.1,2.4-1.6,5-1.6,7.7v9.8h-19.7v-9.8c0-6.3,1-11.8,3.1-16.4c2.1-4.6,5.5-9.1,10.3-13.3
			c-4.8-4.2-8.2-8.6-10.3-13.2c-2.1-4.6-3.1-10.1-3.1-16.4v-9.9h19.7V494.2z"/>
		<path class="st0" d="M450.8,483.7c-17.2,0-29.6,15.2-29.6,31.2v48.4h19.9v-48.4c0-7.2,5.5-11.3,9.7-11.3c4.2,0,10.2,3.8,10.2,11.3
			v48.4h19.9v-48.4c0-7.2,5.4-11.3,9.7-11.3s10.2,3.8,10.2,11.3v48.4h19.9v-48.4c0-15.8-12.9-31.2-30.1-31.2
			c-7.9,0-14.7,2.4-19.9,6.6C465.5,486.1,458.6,483.7,450.8,483.7z"/>
		<path class="st0" d="M265.9,533.7c-0.9,1.5-1.8,2.9-3.1,4.1c-1.8,1.8-3.9,3.2-6.3,4.2c-2.4,1.1-4.9,1.6-7.6,1.6
			c-2.8,0-5.4-0.5-7.8-1.6c-2.4-1.1-4.5-2.5-6.3-4.2c-1.8-1.8-3.2-3.9-4.2-6.3c-1.1-2.4-1.6-5-1.6-7.8c0-2.7,0.5-5.2,1.6-7.7
			c1.1-2.4,2.5-4.6,4.2-6.3c1.8-1.8,3.9-3.2,6.3-4.2c2.4-1.1,5-1.6,7.8-1.6c2.7,0,5.2,0.5,7.6,1.6c2.4,1.1,4.5,2.5,6.3,4.2
			c1.2,1.2,2.2,2.6,3.1,4.1h21.3c-0.5-2.1-1.1-4.1-2-6c-2.2-4.8-5.1-9-8.8-12.5c-3.7-3.5-7.9-6.3-12.6-8.3c-4.7-2-9.7-3-14.9-3
			c-5.5,0-10.6,1.1-15.4,3.2c-4.8,2.1-9,5-12.6,8.6c-3.6,3.6-6.4,7.8-8.5,12.6c-2.1,4.8-3.1,9.9-3.1,15.4c0,5.8,1.1,11,3.2,15.9
			c2.2,4.8,5.1,9,8.8,12.5c3.7,3.5,7.9,6.3,12.7,8.3c4.7,2,9.7,3,14.9,3c5.5,0,10.6-1,15.4-3.1c4.8-2.1,9-4.9,12.6-8.5
			c3.6-3.6,6.4-7.8,8.5-12.7c0.8-1.8,1.3-3.7,1.8-5.5H265.9z"/>
	</g>
	<g>
		<rect x="9.9" y="31.8" class="st1" width="82.2" height="82.2"/>
		<rect x="9.9" y="114" class="st2" width="82.2" height="82.2"/>
		<rect x="9.9" y="196.1" class="st3" width="82.2" height="82.2"/>
		<rect x="9.9" y="278.3" class="st4" width="82.2" height="82.2"/>
		<rect x="9.9" y="360.4" class="st5" width="82.2" height="82.2"/>
		<path class="st0" d="M420.7,155c0-67.9-55.3-123.2-123.2-123.2c0,0,0,0,0,0l-205.4,0V114l205.4,0c22.7,0,41.1,18.4,41.1,41.1
			c0,22.7-18.4,41.1-41.1,41.1v0l-205.4,0v82.2l205.4,0v0c22.7,0,41.1,18.4,41.1,41.1c0,22.7-18.4,41.1-41.1,41.1v0l-205.4,0v82.2
			l205.4,0v0c67.9,0,123.2-55.3,123.2-123.2c0-31.5-11.9-60.3-31.5-82.2C408.8,215.4,420.7,186.6,420.7,155z"/>
	</g>
	<g>
		<rect x="420.7" y="360.4" class="st1" width="82.2" height="82.2"/>
		<rect x="502.8" y="360.4" class="st2" width="82.2" height="82.2"/>
		<rect x="585" y="360.4" class="st3" width="82.2" height="82.2"/>
		<rect x="667.1" y="360.4" class="st4" width="82.2" height="82.2"/>
		<rect x="749.3" y="360.4" class="st5" width="82.2" height="82.2"/>
		<path class="st0" d="M543.9,31.8C476,31.8,420.7,87.1,420.7,155c0,0,0,0,0,0l0,205.4h82.2l0-205.4c0-22.7,18.4-41.1,41.1-41.1
			c22.7,0,41.1,18.4,41.1,41.1h0l0,205.4h82.2l0-205.4h0c0-22.7,18.4-41.1,41.1-41.1c22.7,0,41.1,18.4,41.1,41.1h0l0,205.4h82.2
			l0-205.4h0c0-67.9-55.3-123.2-123.2-123.2c-31.5,0-60.3,11.9-82.2,31.5C604.2,43.8,575.4,31.8,543.9,31.8z"/>
	</g>
</g>
</svg>
