<?xml version="1.0" encoding="UTF-8" standalone="no"?>
<!-- Created with Inkscape (http://www.inkscape.org/) -->

<svg
   xmlns:dc="http://purl.org/dc/elements/1.1/"
   xmlns:cc="http://creativecommons.org/ns#"
   xmlns:rdf="http://www.w3.org/1999/02/22-rdf-syntax-ns#"
   xmlns:svg="http://www.w3.org/2000/svg"
   xmlns="http://www.w3.org/2000/svg"
   xmlns:xlink="http://www.w3.org/1999/xlink"
   xmlns:sodipodi="http://sodipodi.sourceforge.net/DTD/sodipodi-0.dtd"
   xmlns:inkscape="http://www.inkscape.org/namespaces/inkscape"
   width="35mm"
   height="35mm"
   viewBox="0 0 511.35512 511.35513"
   id="svg2"
   version="1.1"
   inkscape:version="0.91 r13725"
   sodipodi:docname="active_eos_logo_circle_small.svg">
  <defs
     id="defs4">
    <clipPath
       clipPathUnits="userSpaceOnUse"
       id="clipPath4655">
      <path
         style="opacity:1;fill:#8cc9f0;fill-opacity:1;fill-rule:evenodd;stroke:#ffffff;stroke-width:4.72100019;stroke-linecap:round;stroke-miterlimit:4;stroke-dasharray:none;stroke-dashoffset:0;stroke-opacity:1"
         d="m -1389.4889,-74.894106 195.5987,2.360703 -2.507,207.719143 -195.5987,-2.36071 z"
         id="path4657"
         inkscape:connector-curvature="0" />
    </clipPath>
    <clipPath
       clipPathUnits="userSpaceOnUse"
       id="clipPath4685">
      <rect
         style="opacity:1;fill:#8cc9f0;fill-opacity:1;fill-rule:evenodd;stroke:none;stroke-width:4.72100019;stroke-linecap:round;stroke-miterlimit:4;stroke-dasharray:none;stroke-dashoffset:0;stroke-opacity:1"
         id="rect4687"
         width="238.2688"
         height="121.61637"
         x="-1442.0227"
         y="32.273888" />
    </clipPath>
    <clipPath
       clipPathUnits="userSpaceOnUse"
       id="clipPath4693">
      <rect
         style="opacity:1;fill:#8cc9f0;fill-opacity:1;fill-rule:evenodd;stroke:none;stroke-width:4.72100019;stroke-linecap:round;stroke-miterlimit:4;stroke-dasharray:none;stroke-dashoffset:0;stroke-opacity:1"
         id="rect4695"
         width="117.89342"
         height="71.977036"
         x="491.3775"
         y="-1174.3107"
         transform="matrix(-0.50778198,-0.86148561,0.86148561,-0.50778198,0,0)" />
    </clipPath>
    <clipPath
       clipPathUnits="userSpaceOnUse"
       id="clipPath3416">
      <rect
         style="opacity:1;fill:#00ffff;fill-opacity:1;fill-rule:evenodd;stroke:#800000;stroke-width:4.69856644;stroke-linecap:round;stroke-miterlimit:4;stroke-dasharray:4.69856647, 9.39713295;stroke-dashoffset:0;stroke-opacity:1"
         id="rect3418"
         width="158.8194"
         height="263.27127"
         x="-868.69958"
         y="-186.15038" />
    </clipPath>
  </defs>
  <sodipodi:namedview
     id="base"
     pagecolor="#ffffff"
     bordercolor="#666666"
     borderopacity="1.0"
     inkscape:pageopacity="0.0"
     inkscape:pageshadow="2"
     inkscape:zoom="0.56979555"
     inkscape:cx="137.62823"
     inkscape:cy="185.70491"
     inkscape:document-units="px"
     inkscape:current-layer="layer1"
     showgrid="false"
     inkscape:window-width="1280"
     inkscape:window-height="687"
     inkscape:window-x="0"
     inkscape:window-y="1"
     inkscape:window-maximized="1"
     inkscape:snap-grids="true"
     inkscape:snap-to-guides="true"
     inkscape:snap-page="false"
     inkscape:snap-center="true"
     inkscape:snap-object-midpoints="true"
     inkscape:snap-midpoints="false"
     inkscape:snap-others="false"
     inkscape:object-paths="true"
     inkscape:snap-nodes="true"
     fit-margin-top="0"
     fit-margin-left="0"
     fit-margin-right="0"
     fit-margin-bottom="0"
     units="mm">
    <inkscape:grid
       type="xygrid"
       id="grid4199"
       originx="-311.65073"
       originy="-717.61605" />
  </sodipodi:namedview>
  <metadata
     id="metadata7">
    <rdf:RDF>
      <cc:Work
         rdf:about="">
        <dc:format>image/svg+xml</dc:format>
        <dc:type
           rdf:resource="http://purl.org/dc/dcmitype/StillImage" />
        <dc:title></dc:title>
      </cc:Work>
    </rdf:RDF>
  </metadata>
  <g
     inkscape:label="Layer 1"
     inkscape:groupmode="layer"
     id="layer1"
     transform="translate(-311.65073,176.60899)">
    <circle
       style="opacity:1;fill:#ffffff;fill-opacity:1;fill-rule:evenodd;stroke:#8cc9f0;stroke-width:10.88500118;stroke-linecap:round;stroke-miterlimit:4;stroke-dasharray:none;stroke-dashoffset:0;stroke-opacity:1"
       id="path4966"
       cx="567.32831"
       cy="79.068558"
       r="250.23508" />
    <g
       id="g4040"
       transform="translate(1771.9928,-53.561578)">
      <path
         inkscape:tile-y0="158.96061"
         inkscape:tile-x0="-1143.5221"
         inkscape:tile-h="311.33045"
         inkscape:tile-w="206.95888"
         inkscape:tile-cy="315.55067"
         inkscape:tile-cx="-1040.0456"
         style="opacity:1;fill:#8cc9f0;fill-opacity:1;fill-rule:evenodd;stroke:#ffffff;stroke-width:4.72100019;stroke-linecap:round;stroke-miterlimit:4;stroke-dasharray:none;stroke-dashoffset:0;stroke-opacity:1"
         d="m -1201.678,237.67469 c 0,0 82.0507,-120.64911 97.8574,-179.640627 15.8068,-58.99153097 -25.673,-125.11914 -97.8574,-125.11914 -72.1844,0 -113.1892,67.89278903 -97.8555,125.11914 15.3338,57.226327 97.8555,179.640627 97.8555,179.640627 z m 0.029,-69.19141 c 0,0 -49.9243,-74.060055 -59.2012,-108.681637 -9.2768,-34.6216 15.5301,-75.695311 59.2012,-75.695311 43.6711,0 68.7661,40.005791 59.2031,75.695311 -9.5629,35.689512 -59.2031,108.681637 -59.2031,108.681637 z"
         id="path4367"
         inkscape:connector-curvature="0" />
      <use
         style="stroke:#008000"
         height="100%"
         width="100%"
         id="use4437"
         transform="matrix(-0.50778198,0.86148561,-0.86148561,-0.50778198,-1691.7783,1244.4416)"
         xlink:href="#path4367"
         inkscape:tiled-clone-of="#path4367"
         y="0"
         x="0" />
      <use
         style="stroke:#008000"
         height="100%"
         width="100%"
         id="use4439"
         transform="matrix(-0.50479418,-0.86323973,0.86323973,-0.50479418,-1930.6173,-828.31822)"
         xlink:href="#path4367"
         inkscape:tiled-clone-of="#path4367"
         y="0"
         x="0" />
      <use
         clip-path="url(#clipPath4693)"
         style="stroke:#008000"
         height="100%"
         width="100%"
         id="use4689"
         transform="matrix(-0.50778198,0.86148561,-0.86148561,-0.50778198,-1691.7783,1244.4416)"
         xlink:href="#path4367"
         inkscape:tiled-clone-of="#path4367"
         y="0"
         x="0" />
      <path
         sodipodi:nodetypes="csssccsssc"
         transform="translate(-493.15934,91.300993)"
         clip-path="url(#clipPath3416)"
         inkscape:connector-curvature="0"
         id="path3404"
         d="m -708.5187,146.37369 c 0,0 82.0507,-120.64911 97.8574,-179.64062 15.8068,-58.99153 -25.673,-125.11914 -97.8574,-125.11914 -72.1844,0 -113.1892,67.89279 -97.8555,125.11914 15.3338,57.22632 97.8555,179.64062 97.8555,179.64062 z m -1.61633,-68.533279 c 0,0 -48.27897,-74.7181809 -57.55587,-109.339761 -9.2768,-34.6216 15.5301,-75.69531 59.2012,-75.69531 43.6711,0 68.7661,40.00579 59.2031,75.69531 -9.5629,35.6895101 -60.84843,109.339761 -60.84843,109.339761 z"
         style="opacity:1;fill:#8cc9f0;fill-opacity:1;fill-rule:evenodd;stroke:#ffffff;stroke-width:4.72100019;stroke-linecap:round;stroke-miterlimit:4;stroke-dasharray:none;stroke-dashoffset:0;stroke-opacity:1"
         inkscape:tile-cx="-1040.0456"
         inkscape:tile-cy="315.55067"
         inkscape:tile-w="206.95888"
         inkscape:tile-h="311.33045"
         inkscape:tile-x0="-1143.5221"
         inkscape:tile-y0="158.96061" />
      <use
         x="0"
         y="0"
         inkscape:tiled-clone-of="#path4367"
         xlink:href="#path4367"
         transform="matrix(-0.50778198,0.86148561,-0.86148561,-0.50778198,-1691.7783,1244.4416)"
         id="use3664"
         width="100%"
         height="100%"
         style="stroke:#008000"
         clip-path="url(#clipPath4693)" />
      <use
         x="0"
         y="0"
         inkscape:tiled-clone-of="#path4367"
         xlink:href="#path4367"
         transform="matrix(-0.50778198,0.86148561,-0.86148561,-0.50778198,-1691.7783,1244.4416)"
         id="use3796"
         width="100%"
         height="100%"
         style="stroke:#008000" />
      <use
         x="0"
         y="0"
         inkscape:tiled-clone-of="#path4367"
         xlink:href="#path4367"
         transform="matrix(-0.50479418,-0.86323973,0.86323973,-0.50479418,-1930.6173,-828.31822)"
         id="use3798"
         width="100%"
         height="100%"
         style="stroke:#008000" />
      <use
         x="0"
         y="0"
         inkscape:tiled-clone-of="#path4367"
         xlink:href="#path4367"
         transform="matrix(-0.50778198,0.86148561,-0.86148561,-0.50778198,-1691.7783,1244.4416)"
         id="use3800"
         width="100%"
         height="100%"
         style="stroke:#008000"
         clip-path="url(#clipPath4693)" />
      <path
         inkscape:tile-y0="158.96061"
         inkscape:tile-x0="-1143.5221"
         inkscape:tile-h="311.33045"
         inkscape:tile-w="206.95888"
         inkscape:tile-cy="315.55067"
         inkscape:tile-cx="-1040.0456"
         style="opacity:1;fill:#8cc9f0;fill-opacity:1;fill-rule:evenodd;stroke:#ffffff;stroke-width:4.72100019;stroke-linecap:round;stroke-miterlimit:4;stroke-dasharray:none;stroke-dashoffset:0;stroke-opacity:1"
         d="m -708.5187,146.37369 c 0,0 82.0507,-120.64911 97.8574,-179.64062 15.8068,-58.99153 -25.673,-125.11914 -97.8574,-125.11914 -72.1844,0 -113.1892,67.89279 -97.8555,125.11914 15.3338,57.22632 97.8555,179.64062 97.8555,179.64062 z m -1.61633,-68.533279 c 0,0 -48.27897,-74.7181809 -57.55587,-109.339761 -9.2768,-34.6216 15.5301,-75.69531 59.2012,-75.69531 43.6711,0 68.7661,40.00579 59.2031,75.69531 -9.5629,35.6895101 -60.84843,109.339761 -60.84843,109.339761 z"
         id="path3802"
         inkscape:connector-curvature="0"
         clip-path="url(#clipPath3416)"
         transform="translate(-493.15934,91.300993)"
         sodipodi:nodetypes="csssccsssc" />
      <use
         clip-path="url(#clipPath4693)"
         style="stroke:#008000"
         height="100%"
         width="100%"
         id="use3804"
         transform="matrix(-0.50778198,0.86148561,-0.86148561,-0.50778198,-1691.7783,1244.4416)"
         xlink:href="#path4367"
         inkscape:tiled-clone-of="#path4367"
         y="0"
         x="0" />
    </g>
  </g>
</svg>
