<?xml version="1.0" encoding="utf-8"?>
<!-- Generator: Adobe Illustrator 22.1.0, SVG Export Plug-In . SVG Version: 6.00 Build 0)  -->
<svg version="1.1" id="Layer_1" xmlns="http://www.w3.org/2000/svg" xmlns:xlink="http://www.w3.org/1999/xlink" x="0px" y="0px"
	 viewBox="0 0 1024 1024" style="enable-background:new 0 0 1024 1024;" xml:space="preserve">
<style type="text/css">
	.st0{font-family:'HandelGothicITCW02-BoldIt';}
	.st1{font-size:125.9865px;}
</style>
<g>
	<path d="M780.6,642.4l-82.8-363.1c-1.1-5-1.9-9.7-5.7-15.1L527,37.4c-6.8-6.8-12-6.7-19.5,0.7L339,260.3c-5,6.2-6,9.6-8.3,19
		l-82.6,362.4c-1.2,5.1,2.2,9.1,7,12.2c0.4,0.1,257,159.2,257,159.2c4.1,2.5,5.8,3,10.5,0L772,654.5
		C772.1,654.3,782.2,649.2,780.6,642.4z M760.3,639.2L542,776.6L687.9,322L760.3,639.2z M526.5,415l149.1-117L526.5,762.8V415z
		 M517.3,398.1l-156-117h304.9L517.3,398.1z M507.4,415.9l0.2,347.2L355.4,300L507.4,415.9z M517.3,56.6l149.4,205.5H361.3
		L517.3,56.6z M343.1,321.1L492,776.6L268.2,639.1L343.1,321.1z"/>
	<g>
		<text transform="matrix(1 0 0 1 173.7879 967.9964)" class="st0 st1">BTCC POOL</text>
	</g>
</g>
</svg>
