<?xml version="1.0" encoding="utf-8"?>
<!-- Generator: Adobe Illustrator 21.0.2, SVG Export Plug-In . SVG Version: 6.00 Build 0)  -->
<svg version="1.1" id="Layer_1" xmlns="http://www.w3.org/2000/svg" xmlns:xlink="http://www.w3.org/1999/xlink" x="0px" y="0px"
	 viewBox="0 0 171 170" style="enable-background:new 0 0 171 170;" xml:space="preserve">
<style type="text/css">
	.st0{opacity:0.5;fill:#FFFFFF;enable-background:new    ;}
	.st1{fill:#FFFFFF;}
</style>
<rect width="171" height="171"/>
<g>
	<path id="XMLID_13_" class="st0" d="M85.2,153.8c-0.1,0-0.2,0-0.2,0h-0.1c-0.2-0.1-0.3-0.1-0.4-0.1l-46.2-25.1l-0.2-0.1l-0.1-0.1
		l-0.2-0.2l-0.1-0.1l-0.1-0.1l-0.1-0.1l-0.1-0.2v-0.1v-0.2v-0.2v-0.1v-0.2v-0.1L54.7,59l0.1-0.3l0.1-0.1l28.4-42.7l0.2-0.2l0.2-0.2
		l0.1-0.1l0.2-0.1l0.3-0.1h0.3h0.3H85h0.2l0.3,0.1c0,0,0.1,0,0.1,0.1l0.2,0.1c0.1,0.1,0.1,0.1,0.1,0.1l0.1,0.1l29.7,42.6l-0.4,0.3
		l0.4-0.2l0.1,0.2l0.1,0.2l16.8,67.3l0,0c0,0.1,0.1,0.1,0.1,0.2l0.1,0.2v0.1c0,0.1,0,0.1,0,0.2v0.2v0.3c0,0.1,0,0.1,0,0.2
		s-0.1,0.2-0.1,0.2l-0.1,0.2l-0.1,0.1c0,0.1-0.1,0.1-0.1,0.1l-0.1,0.1c-0.1,0-0.1,0.1-0.2,0.1h-0.1H132c0,0-0.1,0-0.1,0.1l-46,25
		c-0.1,0-0.2,0.1-0.2,0.1h-0.1h-0.2C85.3,153.8,85.3,153.8,85.2,153.8z M82.4,148.8l-6.2-20.1H45.5L82.4,148.8z M87.9,148.8
		l36.9-20.1H94.2L87.9,148.8z M85.2,146.7l5.7-18H79.7L85.2,146.7z M41.9,125.4h33.2L63.5,88.1L41.9,125.4z M78.6,125.4h13.3
		l12.5-39.8L84.3,52.3l-18.5,32L78.6,125.4z M95.3,125.4h33.2l-21.8-36.1L95.3,125.4z M127,116.7l-12.8-51.3L108,85.2L127,116.7z
		 M43.5,116.3l18.8-32.4l-5.8-18.5L43.5,116.3z M105.7,81.4l6.8-21.7L86.2,21.9l-0.3,26.7L105.7,81.4z M64.4,80.1l18.2-31.4
		l0.3-26.4L58.1,59.7L64.4,80.1z"/>
	<g>
		<path class="st1" d="M85.3,154.3c-1.1,0-2.2-0.7-2.5-1.8L56.7,69.9l-14.3,58.2c-0.4,1.4-1.8,2.3-3.2,1.9c-1.4-0.4-2.3-1.8-1.9-3.2
			l16.6-66.9c0.3-1.1,1.3-1.9,2.5-2c1.2,0,2.2,0.7,2.6,1.8l26.4,83.6l26.4-83.6c0.4-1.1,1.4-1.9,2.6-1.8c1.2,0,2.2,0.9,2.5,2
			l16.9,66.1c0.4,1.4-0.5,2.9-1.9,3.2c-1.4,0.4-2.9-0.5-3.2-1.9L113.9,70l-26.1,82.5C87.5,153.6,86.5,154.3,85.3,154.3z"/>
	</g>
</g>
</svg>
