<?xml version="1.0" standalone="no"?>
<!DOCTYPE svg PUBLIC "-//W3C//DTD SVG 20010904//EN"
 "http://www.w3.org/TR/2001/REC-SVG-20010904/DTD/svg10.dtd">
<svg version="1.0" xmlns="http://www.w3.org/2000/svg"
 width="1024.000000pt" height="1024.000000pt" viewBox="0 0 1024.000000 1024.000000"
 preserveAspectRatio="xMidYMid meet">
<metadata>
Created by potrace 1.15, written by Peter Selinger 2001-2017
</metadata>
<g transform="translate(0.000000,1024.000000) scale(0.100000,-0.100000)"
fill="#000000" stroke="none">
<path d="M0 5120 l0 -5120 5120 0 5120 0 0 5120 0 5120 -5120 0 -5120 0 0
-5120z m5202 4455 c54 -25 130 -91 183 -159 17 -21 40 -50 53 -64 12 -14 22
-29 22 -33 0 -5 18 -27 40 -50 22 -23 40 -46 40 -50 0 -4 10 -19 23 -33 12
-13 33 -39 47 -56 14 -18 30 -37 35 -44 6 -6 32 -40 59 -76 27 -36 58 -73 68
-83 10 -10 18 -22 18 -27 0 -5 18 -28 40 -52 22 -24 42 -51 46 -60 3 -10 8
-18 12 -18 4 0 43 -48 87 -107 44 -58 97 -124 118 -145 20 -21 37 -42 37 -47
0 -4 14 -23 31 -42 17 -19 38 -45 47 -59 9 -14 36 -49 60 -78 23 -29 48 -60
55 -69 6 -8 22 -25 35 -38 12 -12 22 -28 22 -34 0 -7 20 -34 45 -60 25 -26 45
-52 45 -57 0 -5 8 -17 18 -26 9 -8 25 -26 35 -39 18 -24 164 -211 235 -302 20
-26 43 -54 50 -62 7 -8 48 -60 91 -117 44 -57 96 -123 116 -148 20 -25 59 -76
87 -114 28 -38 59 -78 70 -90 10 -11 25 -28 33 -36 40 -44 105 -135 105 -147
0 -7 4 -13 9 -13 14 0 47 -70 60 -130 7 -30 21 -89 31 -130 11 -41 23 -93 26
-115 4 -22 11 -48 16 -58 5 -10 14 -46 19 -80 5 -34 16 -80 23 -102 8 -22 19
-65 25 -95 7 -30 20 -97 31 -148 10 -51 22 -97 26 -103 7 -11 20 -67 58 -239
22 -99 64 -270 86 -351 6 -20 10 -46 10 -58 0 -12 4 -29 9 -39 6 -9 23 -78 40
-152 16 -74 34 -157 41 -185 38 -165 51 -215 60 -239 5 -15 10 -40 10 -57 0
-16 9 -55 19 -86 11 -32 23 -80 27 -108 3 -27 11 -58 16 -67 5 -10 13 -44 18
-75 6 -32 17 -80 24 -108 23 -81 55 -207 61 -245 4 -19 12 -57 20 -85 8 -27
26 -104 40 -170 14 -66 37 -165 51 -220 33 -130 60 -238 74 -300 6 -27 22 -99
36 -160 32 -143 26 -187 -38 -263 -14 -17 -40 -39 -56 -49 -45 -27 -238 -145
-270 -165 -15 -10 -43 -26 -62 -35 -19 -10 -38 -23 -43 -30 -4 -6 -23 -17 -42
-23 -19 -6 -35 -15 -35 -19 0 -3 -29 -22 -65 -41 -36 -19 -65 -38 -65 -42 0
-4 -5 -8 -10 -8 -6 0 -37 -18 -69 -40 -32 -22 -75 -47 -95 -55 -20 -8 -36 -20
-36 -25 0 -6 -4 -10 -8 -10 -10 0 -167 -92 -197 -115 -10 -8 -24 -15 -30 -15
-7 0 -20 -9 -30 -20 -10 -11 -27 -22 -38 -26 -11 -4 -25 -11 -31 -16 -6 -5
-73 -46 -149 -91 -75 -45 -150 -90 -165 -99 -15 -10 -43 -26 -62 -35 -19 -10
-36 -21 -38 -25 -2 -4 -20 -16 -40 -25 -20 -9 -39 -19 -42 -22 -12 -13 -70
-51 -78 -51 -5 0 -15 -6 -21 -14 -7 -8 -31 -24 -54 -36 -61 -30 -99 -53 -115
-67 -7 -7 -24 -16 -37 -19 -14 -3 -27 -15 -30 -25 -4 -11 -23 -26 -43 -35 -20
-8 -39 -18 -42 -22 -9 -13 -71 -51 -148 -93 -18 -9 -39 -22 -46 -28 -7 -6 -39
-25 -72 -42 -32 -17 -64 -36 -69 -42 -6 -7 -26 -20 -45 -31 -109 -59 -147 -81
-169 -98 -13 -10 -32 -18 -41 -18 -19 0 -171 -150 -182 -180 -11 -29 -23 -31
-84 -10 -33 11 -69 20 -81 20 -20 0 -17 -6 25 -45 27 -26 41 -45 32 -45 -13 0
-13 -1 0 -10 9 -6 11 -10 3 -10 -7 0 -10 -7 -7 -15 8 -21 -21 -19 -45 2 -11 9
-18 20 -15 25 3 4 0 8 -5 8 -6 0 -11 6 -11 13 0 22 -54 76 -82 83 -23 5 -30 1
-52 -35 -15 -23 -31 -41 -36 -41 -6 0 -10 -6 -10 -14 0 -19 -57 -59 -71 -51
-16 11 20 45 39 38 15 -6 15 -4 -1 14 -18 20 -17 21 10 42 71 53 74 75 8 64
-25 -4 -38 1 -62 23 -87 83 -127 114 -187 143 -35 17 -70 31 -75 31 -6 0 -11
5 -11 10 0 6 -8 14 -17 17 -10 4 -47 25 -83 48 -101 64 -287 175 -294 175 -3
0 -32 18 -63 40 -32 22 -63 40 -70 40 -6 0 -19 10 -27 22 -15 20 -49 43 -215
140 -40 24 -90 53 -110 65 -20 13 -48 28 -63 35 -16 7 -28 15 -28 19 0 4 -24
19 -52 34 -29 15 -72 40 -94 56 -23 15 -61 39 -85 52 -68 36 -114 63 -161 94
-66 43 -81 51 -108 63 -14 6 -34 19 -45 29 -11 10 -66 45 -123 77 -57 32 -118
68 -136 79 -19 11 -62 37 -97 58 -35 21 -84 51 -109 67 -25 16 -58 36 -75 45
-34 18 -84 47 -136 78 -20 12 -58 35 -85 51 -27 16 -75 45 -106 65 -31 20 -76
47 -100 61 -57 33 -130 107 -153 156 -31 65 -30 118 3 254 78 316 168 700 175
740 3 14 21 90 41 170 19 80 45 188 57 240 12 52 27 115 34 140 7 25 25 99 40
165 15 66 33 145 41 175 8 30 28 116 44 190 50 221 61 262 80 325 11 33 24 89
30 125 6 36 26 128 45 205 54 218 95 392 115 490 11 50 29 126 40 170 11 44
31 125 44 180 48 201 65 272 91 385 33 137 51 176 138 285 4 6 42 55 85 110
89 116 101 130 125 153 9 9 17 21 17 27 0 5 16 25 35 42 19 18 35 36 35 40 0
4 9 19 20 33 118 150 150 191 158 207 6 10 26 34 46 53 19 19 36 40 36 46 0 6
7 17 16 24 8 8 48 56 87 109 40 53 91 118 115 146 93 110 107 128 116 143 8
14 66 90 106 139 6 7 10 17 10 23 0 5 4 10 9 10 5 0 30 29 56 64 26 36 53 67
61 70 8 3 14 12 14 20 0 8 6 19 13 23 6 4 27 31 46 58 19 28 47 63 63 79 15
16 30 38 34 48 3 10 8 18 12 18 4 0 36 38 71 85 36 47 68 85 73 85 4 0 8 5 8
11 0 6 15 29 33 50 17 21 48 59 67 84 19 25 42 53 51 63 9 9 24 32 33 50 9 17
20 32 25 32 5 0 21 19 37 43 16 23 34 47 40 52 6 6 46 54 89 109 90 112 130
146 183 157 65 12 90 10 144 -16z"/>
<path d="M5044 9446 c-16 -19 -39 -47 -51 -62 -161 -209 -231 -298 -290 -372
-54 -67 -161 -204 -224 -287 -37 -49 -80 -105 -96 -123 -15 -17 -68 -85 -118
-149 -49 -64 -154 -197 -233 -296 -79 -100 -157 -200 -174 -224 -17 -24 -35
-43 -40 -43 -4 0 -8 -5 -8 -11 0 -10 -44 -68 -128 -167 -20 -24 -69 -87 -109
-140 -41 -53 -89 -115 -108 -137 -19 -22 -71 -87 -115 -145 -45 -58 -93 -118
-106 -135 -36 -44 -171 -216 -206 -261 -5 -7 -10 -40 -12 -75 -2 -35 -7 -82
-10 -104 l-5 -40 13 40 c19 59 46 55 64 -10 8 -27 21 -63 28 -80 14 -33 35
-92 63 -175 11 -30 29 -82 41 -115 13 -33 40 -107 61 -165 20 -58 56 -157 79
-220 23 -63 53 -146 66 -185 14 -38 29 -79 33 -90 5 -11 16 -40 24 -65 36
-112 81 -237 94 -263 8 -15 15 -44 16 -65 1 -21 9 -42 18 -49 9 -7 22 -34 29
-60 7 -26 16 -52 21 -58 7 -10 76 -204 105 -295 8 -25 18 -54 24 -65 16 -33
61 -157 70 -196 5 -19 16 -49 25 -65 8 -16 15 -37 15 -46 0 -9 4 -19 9 -22 5
-3 14 -27 20 -53 7 -26 21 -66 32 -89 10 -24 19 -48 19 -54 0 -6 9 -28 20 -50
11 -22 20 -50 20 -63 0 -12 4 -27 9 -32 9 -9 50 -117 101 -265 30 -86 60 -168
77 -207 7 -17 16 -46 19 -65 4 -18 10 -38 15 -43 4 -6 17 -37 30 -70 12 -33
26 -71 32 -85 6 -14 10 -28 9 -32 -1 -4 9 -32 23 -62 14 -30 25 -61 25 -68 0
-8 4 -18 9 -23 11 -12 43 -120 45 -155 l1 -25 -1134 -3 -1133 -3 6 28 c4 15
16 40 27 55 14 21 15 26 4 22 -20 -8 -20 32 -1 100 17 59 31 118 132 546 13
58 31 130 38 160 46 183 71 289 101 423 3 18 2 26 -4 23 -5 -4 -15 -32 -21
-64 -6 -31 -18 -79 -25 -107 -8 -27 -26 -104 -41 -170 -14 -66 -35 -147 -45
-179 -11 -33 -19 -69 -19 -81 0 -12 -7 -46 -16 -76 -16 -54 -46 -182 -64 -271
-5 -26 -15 -71 -24 -100 -8 -29 -19 -73 -24 -98 -18 -83 -43 -175 -53 -193
-12 -21 -5 -35 24 -47 12 -5 45 -23 72 -39 28 -17 66 -40 85 -51 19 -11 53
-32 75 -45 22 -13 50 -29 63 -34 12 -6 28 -15 35 -21 22 -19 81 -55 182 -114
55 -32 165 -98 245 -147 80 -49 155 -93 167 -98 12 -6 44 -25 70 -43 26 -18
73 -46 103 -62 30 -16 66 -37 80 -46 46 -32 135 -87 165 -104 29 -16 65 -38
130 -77 17 -10 46 -28 65 -39 19 -11 55 -34 80 -50 25 -16 59 -36 75 -45 17
-8 62 -35 100 -59 39 -25 103 -64 144 -88 40 -24 88 -52 106 -63 19 -11 62
-37 97 -58 35 -21 72 -43 82 -50 11 -7 44 -27 73 -45 29 -18 53 -36 53 -40 0
-5 15 -16 33 -26 39 -21 50 -27 160 -96 117 -73 157 -97 187 -110 14 -6 33
-19 43 -27 9 -9 20 -13 25 -9 10 11 -31 38 -189 130 -109 63 -201 121 -207
131 -4 6 -56 41 -117 78 -60 37 -117 72 -125 78 -8 5 -26 15 -40 22 -14 6 -51
29 -83 50 -31 20 -60 37 -63 37 -3 0 -20 11 -38 25 -18 14 -36 25 -40 25 -4 0
-33 17 -64 38 -32 21 -65 41 -75 45 -9 3 -54 30 -100 60 -45 29 -109 68 -142
87 -33 19 -62 36 -65 40 -4 5 -127 78 -240 142 -19 11 -54 33 -78 49 -24 16
-45 29 -48 29 -3 0 -20 10 -37 22 -34 24 -52 35 -137 81 -29 16 -58 33 -64 38
-19 16 -165 109 -170 109 -3 0 -32 17 -63 37 -32 21 -74 46 -93 57 -19 10 -58
34 -86 52 -28 19 -54 34 -57 34 -3 0 -49 27 -102 60 -53 33 -98 60 -100 60
-14 0 -95 66 -95 77 0 11 200 13 1094 13 602 0 1101 -3 1110 -6 9 -3 16 -12
16 -20 0 -8 5 -14 12 -14 6 0 8 -3 5 -6 -3 -4 -1 -16 5 -28 6 -11 15 -34 19
-51 7 -28 23 -71 79 -215 12 -30 31 -80 42 -110 11 -30 26 -69 34 -87 8 -17
14 -36 14 -42 0 -18 23 -61 33 -61 14 0 -6 69 -50 170 -8 19 -21 50 -29 68 -8
18 -14 38 -14 45 0 7 -7 25 -15 41 -8 16 -18 46 -21 68 -4 22 -13 45 -20 53
-8 7 -14 18 -14 24 0 5 -5 22 -12 38 -6 15 -10 38 -9 50 1 12 -6 26 -16 32
-15 8 -16 13 -6 29 10 17 9 23 -8 38 -10 9 -19 25 -19 34 0 9 -4 20 -9 25 -5
6 -16 34 -26 62 -9 29 -21 55 -26 58 -5 4 -9 20 -9 36 0 16 -6 32 -14 35 -8 3
-17 22 -21 42 -7 43 -35 123 -47 137 -4 5 -8 26 -8 47 0 27 -4 38 -15 38 -9 0
-15 9 -15 21 0 12 -9 40 -19 63 -11 23 -27 67 -36 98 -9 32 -21 60 -25 63 -5
3 -11 24 -15 48 -4 23 -18 71 -31 106 -13 35 -24 72 -24 82 0 11 -4 19 -9 19
-11 0 -42 84 -48 132 -3 21 -9 38 -14 38 -5 0 -9 9 -9 19 0 11 -4 23 -10 26
-5 3 -22 45 -36 93 -15 48 -31 96 -37 107 -12 22 -80 213 -101 285 -8 25 -21
59 -30 75 -9 17 -16 36 -16 43 0 7 -4 20 -9 30 -22 40 -51 122 -51 141 0 12
-4 21 -9 21 -5 0 -12 17 -16 37 -4 20 -13 46 -21 57 -8 11 -14 28 -14 36 0 9
-9 35 -20 58 -11 22 -20 52 -20 66 0 15 8 30 20 36 11 6 20 17 20 26 0 8 7 17
15 20 8 4 15 10 15 16 0 5 18 35 39 68 22 32 42 69 46 80 8 25 45 83 75 118
11 13 20 30 20 38 0 8 7 14 15 14 8 0 15 9 15 19 0 11 5 23 10 26 6 4 28 34
50 68 22 34 45 69 51 78 7 10 10 19 8 21 -2 2 11 23 29 48 17 24 32 49 32 56
0 6 6 14 14 17 8 3 17 19 21 35 3 16 21 46 40 67 19 21 35 44 35 51 0 8 4 14
9 14 5 0 21 25 37 55 15 31 33 60 41 66 7 7 13 18 13 26 0 7 6 16 14 19 8 3
20 20 27 37 14 33 21 44 52 78 9 10 17 26 17 34 0 7 6 18 13 22 15 9 47 59 77
120 11 23 26 46 33 50 6 4 23 28 36 53 13 25 30 52 37 61 8 8 14 21 14 27 0 6
9 16 19 22 11 5 22 24 26 41 4 17 12 32 19 35 6 2 23 25 36 49 14 25 28 45 32
45 5 0 8 5 8 11 0 6 18 36 40 66 22 31 40 61 40 67 0 6 9 17 20 24 11 7 20 21
20 31 0 11 8 27 17 37 20 20 40 50 49 77 3 9 10 17 14 17 4 0 20 25 35 55 14
30 30 55 35 55 5 0 12 9 15 20 9 27 16 25 40 -10 12 -17 23 -26 29 -20 5 5 0
20 -13 36 l-21 27 0 943 c0 1016 -2 984 49 917 11 -16 21 -23 21 -17 0 8 -64
101 -83 120 -2 2 -17 -11 -33 -30z m14 -987 c2 -824 0 -938 -13 -949 -8 -7
-15 -17 -15 -22 0 -8 -28 -54 -119 -193 -14 -22 -29 -44 -34 -50 -4 -5 -22
-32 -39 -60 -18 -27 -67 -103 -110 -169 -43 -65 -78 -120 -78 -123 0 -2 -22
-38 -50 -79 -27 -41 -50 -78 -50 -83 0 -5 -3 -11 -7 -13 -8 -3 -25 -28 -95
-138 -19 -30 -84 -129 -144 -220 -60 -91 -114 -174 -120 -185 -14 -26 -44 -75
-68 -111 -71 -106 -132 -200 -136 -209 -15 -31 -162 -246 -166 -242 -3 2 24
47 58 99 59 90 156 239 292 451 71 109 199 307 282 432 32 50 61 95 63 100 2
6 15 24 28 41 12 17 23 33 23 36 0 3 35 59 78 124 43 66 92 142 110 169 17 28
35 55 39 60 5 6 24 35 43 65 41 66 152 238 191 298 l29 43 0 930 c0 511 -4
929 -8 929 -6 0 -47 -50 -94 -115 -4 -5 -18 -22 -31 -37 -12 -14 -33 -39 -45
-55 -50 -64 -339 -435 -502 -642 -96 -123 -182 -233 -190 -245 -8 -11 -22 -28
-30 -37 -8 -9 -25 -29 -37 -45 -44 -58 -194 -250 -226 -288 -18 -21 -36 -46
-41 -55 -5 -9 -12 -18 -16 -21 -4 -3 -57 -69 -118 -147 -62 -79 -143 -182
-181 -230 -38 -49 -117 -149 -175 -223 -59 -74 -118 -148 -132 -165 -83 -98
-166 -217 -161 -233 2 -9 8 -26 12 -37 4 -13 1 -12 -9 5 -8 14 -15 33 -16 43
0 10 55 88 123 174 67 85 187 236 266 336 79 100 151 191 161 203 9 12 21 28
26 37 5 8 26 34 46 58 20 24 85 105 143 179 139 178 147 187 170 215 11 13 30
37 41 52 12 15 59 75 103 133 45 58 90 116 101 130 39 51 201 256 213 270 8 8
35 44 62 80 41 54 179 229 229 291 7 9 37 47 66 85 156 202 186 241 202 258
10 11 18 24 18 29 0 4 8 7 18 5 16 -3 17 -57 20 -939z"/>
<path d="M5100 8451 l0 -930 68 -106 c37 -59 72 -114 77 -124 6 -9 20 -31 33
-48 12 -17 22 -33 22 -36 0 -3 26 -45 59 -94 83 -125 223 -341 359 -553 20
-30 68 -104 107 -165 219 -336 259 -397 265 -410 3 -5 32 -50 64 -100 33 -49
83 -126 111 -170 29 -44 75 -115 104 -158 28 -43 51 -81 51 -83 0 -3 8 -17 19
-32 10 -15 33 -51 51 -79 19 -29 37 -53 41 -53 4 0 12 12 18 28 l11 27 -6 -30
c-10 -56 -23 -54 -65 10 -134 207 -159 246 -159 250 0 2 -17 30 -39 62 -127
191 -241 366 -241 370 0 4 -11 21 -25 39 -14 18 -25 35 -25 38 0 4 -20 34 -45
68 -25 34 -45 65 -45 69 0 6 -106 172 -150 234 -12 17 -40 59 -62 95 -69 109
-109 172 -158 245 -26 39 -49 75 -51 80 -2 6 -37 61 -78 123 -76 115 -103 140
-60 55 26 -52 33 -63 64 -96 11 -12 31 -42 44 -67 12 -25 28 -50 35 -55 21
-19 55 -73 62 -99 3 -15 15 -31 25 -37 11 -5 19 -18 19 -28 0 -10 9 -30 20
-44 11 -14 20 -29 20 -34 0 -4 10 -19 23 -33 32 -36 57 -77 57 -95 0 -8 6 -15
14 -15 8 0 18 -13 24 -28 5 -16 18 -37 28 -47 20 -20 26 -29 63 -99 14 -25 28
-46 33 -46 4 0 8 -6 8 -14 0 -8 11 -28 25 -44 14 -17 25 -35 25 -41 0 -6 4
-11 9 -11 8 0 71 -96 71 -109 0 -4 9 -16 20 -26 11 -10 20 -24 20 -32 0 -7 5
-13 10 -13 6 0 10 -6 10 -14 0 -7 6 -19 14 -25 8 -7 18 -25 21 -41 3 -16 13
-31 21 -34 8 -3 14 -11 14 -17 0 -7 16 -31 35 -55 19 -23 35 -51 35 -62 0 -11
11 -27 25 -36 14 -9 25 -22 25 -28 0 -6 10 -25 23 -42 13 -17 30 -46 38 -63 8
-18 17 -33 21 -33 4 0 17 -20 28 -45 11 -25 24 -45 29 -45 5 0 16 -15 25 -32
22 -44 37 -68 62 -100 12 -14 25 -43 29 -64 5 -27 9 -34 15 -24 7 12 13 11 31
-5 12 -11 20 -15 18 -10 -3 6 -11 21 -17 35 -11 22 -8 41 28 150 23 69 45 130
49 135 5 6 14 33 21 60 7 28 16 55 19 60 4 6 15 35 25 65 11 30 22 60 26 65 4
6 11 25 15 43 4 18 13 45 21 60 8 15 14 32 14 39 0 10 48 145 71 198 48 113
90 250 81 261 -4 4 -2 4 5 1 7 -5 14 5 18 25 4 18 13 42 21 53 7 11 16 38 20
60 3 22 11 45 16 52 5 6 27 62 48 124 22 62 44 117 49 122 12 12 26 -16 35
-67 4 -21 10 -35 13 -32 4 3 -2 41 -13 84 -17 71 -26 86 -107 187 -48 61 -97
121 -107 135 -11 14 -66 85 -124 158 -57 73 -110 142 -119 155 -8 12 -18 19
-21 16 -5 -5 61 -98 119 -166 5 -7 18 -23 27 -35 9 -13 39 -50 65 -83 27 -33
86 -108 131 -166 73 -95 81 -110 76 -138 -4 -17 -12 -36 -20 -42 -10 -8 -9 0
3 30 l16 41 -87 107 c-48 60 -95 119 -106 133 -10 14 -56 73 -102 131 -46 58
-92 118 -103 134 -11 15 -28 37 -37 49 -10 11 -74 93 -144 181 -69 88 -171
219 -228 290 -57 72 -143 182 -192 245 -49 63 -136 174 -194 246 -58 71 -114
143 -125 158 -11 16 -30 40 -42 55 -13 14 -26 31 -30 36 -16 20 -81 103 -214
270 -74 94 -168 213 -208 265 -41 52 -80 102 -88 110 -7 8 -27 34 -43 58 -17
23 -35 42 -40 42 -7 0 -10 -320 -10 -929z"/>
<path d="M5160 9344 c0 -7 59 -85 75 -99 6 -5 16 -17 21 -26 8 -16 37 -52 107
-134 15 -18 27 -38 27 -44 0 -6 3 -11 8 -11 4 0 43 -46 87 -102 44 -57 86
-110 93 -118 7 -8 80 -100 162 -205 82 -104 156 -197 163 -205 8 -8 35 -43 61
-77 54 -72 219 -281 239 -303 8 -8 38 -48 67 -87 30 -40 58 -73 62 -73 16 0
-4 26 -372 489 -91 114 -174 220 -185 235 -24 33 -54 72 -75 95 -8 9 -52 63
-96 121 -86 111 -145 185 -167 210 -8 8 -38 47 -67 85 -80 103 -202 255 -206
255 -2 0 -4 -3 -4 -6z"/>
<path d="M7154 6858 c4 -13 14 -57 22 -98 8 -41 21 -100 29 -130 14 -51 38
-151 86 -360 11 -47 27 -110 35 -140 23 -90 83 -350 100 -430 8 -41 21 -95 29
-120 8 -25 19 -71 24 -103 6 -32 13 -62 16 -67 3 -5 12 -40 20 -77 15 -76 39
-180 61 -263 13 -50 38 -157 95 -400 11 -47 24 -103 30 -125 6 -22 17 -67 24
-100 40 -178 59 -259 105 -445 28 -113 57 -238 65 -278 8 -41 17 -78 20 -83 3
-5 12 -39 19 -76 8 -38 21 -97 30 -133 9 -36 25 -105 37 -155 11 -49 27 -112
35 -139 8 -27 17 -67 21 -88 3 -22 12 -42 19 -45 29 -11 11 -31 -68 -76 -46
-26 -101 -58 -123 -72 -22 -13 -56 -34 -75 -45 -19 -11 -44 -26 -54 -33 -51
-32 -134 -83 -157 -97 -15 -8 -74 -44 -133 -80 -150 -92 -177 -108 -213 -125
-18 -8 -33 -20 -33 -25 0 -6 -4 -10 -10 -10 -9 0 -109 -58 -230 -134 -36 -23
-75 -46 -85 -53 -11 -6 -81 -48 -155 -93 -74 -45 -144 -87 -154 -93 -11 -7
-45 -28 -75 -47 -31 -19 -65 -40 -76 -46 -17 -10 -264 -158 -305 -184 -57 -35
-257 -156 -265 -160 -5 -3 -36 -22 -68 -42 -31 -21 -62 -38 -67 -38 -6 0 -10
-7 -10 -15 0 -8 -19 -24 -42 -36 -23 -12 -112 -65 -198 -118 -86 -54 -163
-101 -171 -104 -58 -28 -156 -97 -164 -115 -12 -27 -59 -28 -90 -2 -24 21
-100 70 -135 87 -14 7 -34 18 -44 25 -39 26 -132 83 -153 95 -137 77 -183 106
-183 113 0 4 -12 11 -26 14 -14 4 -35 17 -47 29 -23 23 -102 77 -113 77 -4 0
-13 8 -20 17 -10 14 -15 15 -24 6 -13 -12 -2 -21 70 -60 19 -10 49 -32 66 -49
17 -16 50 -38 72 -49 23 -11 42 -23 42 -26 0 -4 17 -14 38 -22 20 -9 52 -27
71 -41 19 -14 41 -26 48 -26 7 0 13 -4 13 -9 0 -5 26 -21 57 -37 31 -16 65
-36 74 -44 10 -8 39 -26 66 -40 26 -14 52 -31 56 -37 4 -7 14 -13 21 -13 8 0
19 -7 26 -15 7 -8 36 -22 66 -32 30 -9 54 -20 54 -25 0 -11 38 -10 45 2 3 5
24 14 47 20 39 11 119 57 126 73 2 4 8 7 13 7 5 0 35 17 66 37 81 53 85 55
134 82 24 13 55 32 69 41 14 10 48 30 75 45 75 42 168 101 190 122 11 10 38
29 60 43 23 14 50 30 61 37 40 25 209 129 253 156 25 15 53 30 61 34 8 4 29
16 45 28 17 12 37 25 45 29 8 3 27 14 42 24 45 28 192 117 203 121 6 2 38 24
72 48 35 23 65 43 68 43 3 0 57 32 121 70 64 39 120 70 124 70 4 0 14 7 21 16
7 9 22 20 34 25 11 5 38 20 60 34 22 13 54 32 70 41 17 9 56 34 87 55 32 22
61 39 65 39 3 0 14 6 22 14 9 7 41 27 71 43 55 30 151 88 245 147 28 18 102
63 165 101 188 111 198 119 217 152 14 27 15 38 6 65 -6 18 -18 67 -27 108
-10 41 -23 98 -31 125 -21 75 -33 124 -46 185 -6 30 -21 91 -32 135 -29 118
-46 190 -66 285 -10 47 -23 103 -29 125 -6 22 -20 85 -32 140 -12 55 -25 116
-30 135 -5 19 -14 55 -20 80 -89 353 -120 483 -144 595 -14 66 -35 156 -47
200 -11 44 -27 109 -34 145 -8 36 -19 81 -25 100 -6 19 -15 66 -21 104 -5 38
-13 74 -18 80 -5 6 -16 45 -25 86 -8 41 -25 113 -36 160 -12 47 -29 121 -40
165 -10 44 -35 143 -54 220 -20 77 -36 154 -36 171 0 16 -4 34 -9 40 -4 5 -23
72 -40 149 -61 268 -79 327 -113 358 -29 27 -30 27 -24 5z"/>
<path d="M7115 6751 c-3 -6 -12 -30 -20 -53 -15 -46 -36 -105 -85 -238 -44
-118 -109 -297 -125 -345 -8 -22 -25 -69 -38 -105 -36 -97 -97 -265 -161 -445
-32 -88 -63 -173 -70 -190 -7 -16 -19 -53 -26 -80 -14 -54 -16 -45 40 -143 9
-15 53 -83 98 -152 45 -69 87 -132 92 -140 6 -8 34 -52 62 -96 29 -45 87 -134
128 -198 41 -65 107 -166 145 -225 39 -59 90 -138 114 -177 24 -38 68 -105 96
-149 71 -110 159 -246 213 -330 25 -38 73 -113 107 -165 55 -85 113 -175 180
-280 51 -82 121 -187 138 -209 l18 -25 -6 45 c-4 32 -3 38 4 24 22 -46 5 -108
-18 -68 -9 17 -10 17 -23 0 -12 -16 -74 -17 -1118 -15 l-1105 3 1 25 c2 25 45
151 64 182 13 22 13 48 0 48 -5 0 -17 -25 -26 -56 -8 -30 -22 -67 -30 -82 -8
-15 -14 -32 -14 -38 0 -6 -7 -17 -15 -24 -8 -7 -15 -23 -15 -36 0 -12 -5 -26
-10 -29 -6 -3 -276 -6 -600 -5 -398 0 -590 -3 -590 -10 0 -7 189 -10 578 -10
503 0 580 -2 599 -15 l22 -16 -19 -35 c-11 -19 -20 -39 -20 -45 0 -6 -7 -17
-15 -25 -8 -9 -15 -24 -15 -35 0 -10 -13 -47 -30 -81 -16 -34 -30 -74 -30 -89
0 -15 -7 -34 -15 -42 -8 -8 -19 -35 -25 -60 -5 -25 -14 -56 -19 -69 -6 -13
-22 -54 -37 -93 -15 -38 -35 -88 -44 -110 -10 -22 -21 -57 -25 -78 -4 -20 -13
-41 -19 -45 -7 -4 -18 -33 -25 -64 -7 -32 -17 -60 -22 -63 -5 -4 -9 -20 -9
-36 0 -16 -6 -40 -14 -52 -8 -12 -24 -51 -36 -86 -12 -35 -29 -75 -36 -90 -8
-14 -14 -34 -14 -44 0 -10 -7 -20 -15 -23 -9 -4 -15 -19 -15 -39 0 -18 -7 -46
-15 -61 -8 -16 -15 -36 -15 -45 0 -8 -7 -24 -15 -35 -8 -10 -15 -31 -15 -45 0
-15 -7 -40 -15 -55 -8 -16 -15 -38 -15 -49 0 -29 -37 -50 -57 -33 -14 11 -15
10 -10 -7 19 -68 19 -85 -2 -85 -11 0 -22 4 -26 9 -6 11 -63 41 -77 41 -19 0
5 -21 51 -44 26 -14 53 -32 60 -40 18 -22 44 -20 67 5 10 11 46 36 79 55 128
74 175 105 175 114 0 15 -21 12 -41 -6 -10 -9 -33 -23 -51 -33 -18 -9 -32 -22
-31 -28 2 -7 -4 -10 -12 -6 -9 3 -23 -1 -33 -10 -24 -20 -83 -50 -89 -43 -8 7
7 85 18 92 5 3 9 12 9 21 0 8 7 29 15 46 17 38 39 99 66 187 11 36 27 79 35
97 8 17 14 36 14 42 0 6 9 30 19 53 11 24 32 77 47 118 31 86 68 186 79 215
19 49 120 318 142 380 12 35 50 134 72 190 4 11 16 43 25 70 10 28 34 94 53
148 l36 97 1104 0 c1008 0 1104 -1 1101 -16 -2 -9 -21 -27 -43 -40 -22 -13
-56 -33 -75 -44 -19 -11 -66 -41 -105 -65 -38 -24 -79 -49 -90 -55 -11 -5 -36
-20 -56 -32 -95 -60 -216 -134 -231 -143 -10 -5 -66 -39 -124 -75 -59 -36
-123 -74 -143 -85 -20 -10 -42 -25 -49 -32 -7 -7 -18 -13 -23 -13 -6 0 -7 -5
-3 -12 4 -7 3 -8 -4 -4 -6 4 -42 -12 -79 -35 -37 -23 -90 -55 -118 -71 -27
-17 -52 -33 -55 -37 -3 -3 -29 -19 -58 -34 -28 -16 -74 -43 -101 -60 -27 -18
-65 -41 -83 -52 -18 -11 -56 -33 -84 -50 -28 -16 -84 -50 -123 -75 -66 -42
-129 -80 -286 -175 -33 -20 -95 -57 -137 -83 -42 -26 -113 -68 -157 -95 -44
-26 -91 -57 -103 -70 -13 -13 -71 -52 -130 -87 -60 -36 -108 -69 -108 -73 0
-15 42 4 122 54 43 27 80 49 82 49 13 0 95 62 100 75 3 8 10 15 16 15 6 0 38
18 71 40 33 22 62 40 65 40 2 0 30 17 61 37 32 21 71 44 86 50 16 7 46 26 67
43 21 16 40 30 43 30 7 0 110 63 117 71 4 6 23 16 110 61 14 7 27 15 30 18 3
3 38 26 79 50 40 25 90 55 110 67 20 13 52 32 71 43 19 11 44 26 54 33 44 27
133 82 157 97 98 58 163 97 224 136 39 24 86 52 105 61 19 10 40 22 45 26 32
25 172 111 225 138 14 8 54 32 90 55 36 22 94 59 130 80 36 21 72 44 81 49 9
6 32 18 50 29 19 10 59 35 89 55 72 48 87 57 138 81 40 20 51 37 35 54 -5 4
-13 29 -19 54 -5 26 -15 46 -22 45 -13 -3 -21 23 -62 207 -17 74 -37 160 -45
190 -8 30 -26 107 -40 170 -15 63 -33 140 -40 170 -8 30 -27 107 -41 170 -14
63 -32 135 -39 160 -8 25 -17 63 -20 85 -4 22 -17 81 -30 130 -12 50 -33 135
-45 190 -12 55 -28 120 -35 145 -8 25 -16 63 -20 85 -4 22 -13 60 -20 85 -7
25 -16 63 -20 85 -3 22 -12 60 -19 85 -8 25 -28 108 -45 185 -18 77 -39 165
-47 195 -8 30 -19 75 -24 100 -22 105 -49 219 -63 270 -8 30 -24 100 -36 155
-12 55 -30 129 -41 165 -10 36 -21 83 -25 105 -3 22 -12 63 -20 90 -8 28 -21
82 -30 120 -43 185 -56 243 -62 273 -6 34 -18 49 -28 33z"/>
<path d="M3047 6723 c-5 -8 -18 -61 -81 -328 -19 -82 -55 -233 -79 -335 -25
-102 -65 -275 -91 -385 -26 -110 -54 -225 -62 -255 -8 -30 -19 -75 -23 -100
-10 -49 -34 -152 -56 -240 -8 -30 -26 -103 -40 -162 -14 -60 -36 -156 -50
-215 -14 -60 -32 -133 -40 -163 -22 -88 -46 -191 -56 -240 -4 -25 -15 -70 -23
-100 -19 -72 -66 -266 -137 -570 -11 -47 -26 -110 -34 -140 -8 -30 -23 -93
-34 -140 -11 -47 -26 -114 -35 -150 -8 -35 -13 -66 -11 -68 2 -3 30 36 61 84
88 137 134 208 230 354 48 74 93 144 100 155 11 20 116 183 229 355 34 52 95
146 136 209 41 63 110 170 154 238 44 67 107 164 139 215 33 51 102 158 155
238 53 80 98 150 100 155 2 6 21 36 43 68 21 32 38 65 38 72 0 15 -28 100 -75
230 -14 39 -39 111 -57 160 -17 50 -35 101 -41 115 -19 48 -70 188 -166 460
-23 63 -45 124 -50 135 -9 18 -49 130 -103 285 -21 58 -33 77 -41 63z"/>
<path d="M2902 6255 c-5 -22 -20 -83 -32 -135 -12 -52 -33 -138 -46 -190 -13
-52 -31 -124 -40 -160 -9 -36 -20 -90 -25 -120 -5 -30 -16 -72 -24 -93 -8 -20
-14 -41 -13 -45 2 -9 -10 -65 -27 -122 -17 -57 -29 -156 -15 -122 11 27 54
199 74 297 7 39 21 99 30 135 42 168 74 299 92 375 7 33 20 91 29 129 17 73
15 118 -3 51z"/>
<path d="M5279 5901 c-36 -28 -64 -33 -107 -21 -53 14 -69 6 -75 -38 -5 -44 5
-60 41 -64 21 -2 27 -8 27 -28 0 -20 -11 -31 -52 -53 -47 -25 -53 -32 -53 -61
0 -36 15 -56 42 -56 10 0 22 -8 25 -17 4 -10 13 -22 20 -26 24 -15 3 -27 -48
-27 -37 0 -61 7 -96 29 -50 31 -76 28 -66 -8 9 -36 91 -50 232 -41 53 4 65 1
77 -15 19 -26 18 -40 -3 -24 -13 11 -17 11 -20 2 -3 -7 -9 -13 -14 -13 -6 0
-7 5 -4 10 8 13 -5 13 -25 0 -8 -5 -10 -10 -5 -10 6 0 2 -5 -7 -11 -20 -11
-25 -59 -6 -59 9 0 9 -3 0 -12 -9 -9 -18 -9 -37 0 -21 10 -33 9 -62 -3 -55
-23 -88 -19 -112 13 -18 24 -20 25 -21 7 0 -11 7 -31 16 -44 27 -37 5 -44 -62
-20 -101 38 -136 85 -66 91 37 3 37 3 37 48 l0 45 -97 3 c-89 2 -98 5 -98 22
0 10 5 22 10 25 15 9 12 71 -5 85 -11 9 -12 17 -5 30 29 54 -4 160 -64 204
-41 31 -130 29 -179 -4 -53 -36 -81 -98 -74 -162 4 -28 13 -58 22 -68 20 -22
19 -33 -5 -48 -14 -8 -20 -23 -20 -47 l0 -34 -112 -3 -113 -3 -3 -36 c-2 -21
2 -40 11 -47 8 -7 69 -12 158 -14 l144 -3 3 -191 2 -191 -50 -22 c-55 -24 -83
-62 -62 -83 9 -9 15 -7 26 7 13 18 14 17 31 -14 l17 -34 -27 7 c-22 6 -33 1
-61 -30 -29 -30 -35 -43 -32 -72 3 -39 28 -58 28 -22 0 18 4 21 23 16 12 -3
32 -6 43 -6 18 0 22 -7 26 -44 3 -25 13 -52 22 -61 15 -15 16 -49 16 -291 -1
-186 -5 -276 -12 -280 -17 -11 -63 52 -113 152 -25 50 -45 96 -45 101 0 5 16
26 35 47 19 21 35 45 35 52 0 18 -121 221 -150 252 -24 25 -39 27 -62 10 -21
-17 -60 -201 -56 -264 3 -44 6 -51 46 -77 35 -24 51 -46 96 -140 30 -62 72
-138 93 -169 49 -74 170 -198 192 -198 49 0 229 150 284 237 35 55 47 61 65
35 18 -28 28 -28 35 -1 7 26 42 22 43 -6 2 -40 4 -45 20 -45 10 0 14 6 11 14
-7 18 28 50 43 41 6 -4 9 -14 6 -22 -8 -20 56 -83 83 -83 12 0 21 5 21 10 0 6
-4 10 -10 10 -5 0 -15 10 -21 22 -10 18 -8 24 11 40 29 23 52 23 68 -2 20 -32
43 -26 35 10 -4 25 1 40 27 77 27 38 33 54 31 93 -1 45 1 50 53 100 56 53 125
105 132 98 10 -10 -14 -190 -28 -206 -47 -55 -7 -59 52 -6 39 35 41 36 60 19
25 -22 34 -72 25 -131 -8 -54 -25 -64 -72 -39 -40 22 -104 21 -139 -2 -33 -21
-32 -45 1 -37 20 5 27 1 36 -20 10 -20 19 -26 46 -26 18 0 33 -4 33 -10 0 -5
-8 -10 -17 -10 -61 -1 -143 -63 -143 -108 0 -48 23 -69 35 -32 5 17 12 19 44
14 27 -4 46 0 71 14 33 19 100 39 100 29 0 -11 -32 -66 -45 -77 -19 -16 -19
-45 1 -64 21 -22 34 -20 34 4 0 16 7 20 38 20 53 0 66 11 60 51 -10 67 28 102
101 92 48 -7 71 8 71 44 0 22 3 24 25 19 32 -8 32 9 0 30 -17 11 -35 14 -60
10 -22 -4 -35 -3 -35 4 0 5 6 10 14 10 7 0 16 10 19 21 5 17 11 20 29 15 13
-4 34 -10 48 -12 25 -5 25 -5 -3 13 -45 29 -31 47 33 45 55 -2 100 12 108 35
2 9 -5 11 -27 7 -41 -8 -101 4 -101 20 0 9 20 16 56 20 63 7 114 37 114 67 0
18 -2 18 -27 -6 -26 -25 -32 -26 -93 -20 -85 8 -129 30 -157 80 -29 51 -28 96
2 165 23 54 24 55 75 62 102 15 128 46 150 185 11 67 42 158 67 198 7 12 17
57 23 100 6 44 19 108 30 143 10 34 14 64 10 67 -9 6 -40 -33 -40 -50 0 -5 -7
-23 -16 -40 -9 -16 -19 -54 -23 -84 -3 -30 -10 -56 -16 -58 -14 -4 -75 110
-75 142 0 14 9 53 21 87 11 34 25 99 30 146 11 95 15 105 58 146 24 23 31 38
31 68 0 39 -15 52 -23 21 -3 -10 -3 1 0 24 9 71 -20 134 -30 66 -3 -20 -4 -17
-6 13 0 26 -9 51 -21 65 l-21 24 2 -25 c4 -82 -14 -113 -24 -39 -5 40 -30 79
-50 79 -6 0 -8 -24 -4 -61 3 -39 0 -82 -10 -120 -16 -65 -10 -95 30 -151 17
-23 19 -37 14 -90 -8 -80 -39 -178 -56 -178 -16 0 -61 87 -71 137 -22 104 -23
123 -8 141 9 9 23 39 33 66 17 43 17 58 7 128 -8 58 -8 85 0 103 6 14 8 28 5
32 -10 9 -56 -37 -73 -72 l-14 -30 5 33 c3 23 1 32 -10 32 -9 0 -18 -20 -27
-60 -14 -68 -28 -79 -28 -22 l-1 37 -15 -29 c-16 -28 -15 -53 2 -116 6 -21 4
-23 -7 -12 -44 41 -37 -19 8 -69 31 -34 39 -53 49 -112 14 -81 33 -139 69
-210 31 -61 31 -75 0 -121 -14 -20 -25 -41 -25 -46 0 -14 -16 -12 -27 3 -5 6
-15 32 -22 57 -13 43 -44 98 -65 112 -17 12 -16 4 5 -39 13 -27 22 -70 26
-120 5 -81 35 -191 57 -208 33 -27 106 -128 106 -148 0 -55 -63 -64 -107 -15
-15 17 -48 52 -73 77 -25 25 -63 69 -85 96 -21 28 -56 68 -77 90 -43 46 -46
55 -18 73 27 16 25 32 -3 32 -30 0 -47 18 -47 50 0 33 17 50 50 50 24 0 67 20
44 20 -16 0 -54 35 -54 50 0 8 8 22 17 32 10 11 17 33 18 50 0 20 7 35 20 42
11 6 22 12 24 14 3 1 -5 12 -17 25 -25 27 -35 143 -12 157 11 7 10 11 -3 25
-11 11 -17 33 -17 64 0 39 -4 52 -22 63 -28 19 -18 48 16 48 33 0 37 9 28 61
-8 42 -9 44 -42 42 -18 -1 -43 -7 -56 -13 -19 -11 -27 -9 -52 8 -16 12 -35 28
-42 37 -16 19 -22 19 -51 -4z m-724 -101 c33 -21 45 -44 45 -92 0 -34 -16 -44
-39 -24 -26 23 -88 21 -101 -4 -15 -28 -29 -25 -41 8 -15 38 3 93 38 114 37
23 59 22 98 -2z m43 -575 c2 -15 -1 -32 -7 -38 -6 -6 -11 -15 -11 -19 0 -13
45 -9 58 4 10 10 15 10 22 -2 23 -35 -4 -86 -39 -75 -17 5 -21 2 -21 -14 0
-19 36 -51 73 -64 9 -4 17 -11 17 -17 0 -12 -66 -43 -112 -54 l-28 -6 0 164 0
165 23 -8 c14 -5 23 -18 25 -36z m1288 -172 c3 -16 10 -41 15 -57 12 -37 11
-62 -2 -108 -13 -49 -42 -51 -65 -6 -27 53 -5 198 31 198 8 0 17 -12 21 -27z
m-751 -197 c27 -14 91 -36 140 -51 106 -31 156 -65 135 -90 -24 -28 -175 -95
-218 -95 -26 0 -51 -8 -73 -25 -58 -41 -83 -53 -124 -56 l-40 -4 -20 56 c-43
119 -75 136 -126 67 -31 -44 -43 -67 -85 -172 -27 -67 -30 -86 -11 -86 17 0
73 -47 66 -54 -4 -4 -33 8 -65 26 -46 25 -70 32 -111 31 l-53 0 0 132 0 132
38 12 c33 10 82 64 82 90 0 5 6 14 14 20 10 8 22 5 50 -14 l36 -24 0 25 c0 24
3 26 38 22 20 -3 44 -8 53 -12 12 -5 18 -1 22 15 6 22 14 22 74 4 18 -6 21 -4
16 14 -5 19 -3 19 28 11 39 -12 103 -13 112 -3 4 4 -6 12 -23 19 -30 13 -41
34 -18 34 7 0 35 -11 63 -24z m-120 -350 c29 -12 35 -20 35 -45 0 -39 -36
-108 -63 -123 -30 -16 -87 -27 -103 -21 -24 9 -15 22 35 53 58 36 62 45 50 96
-14 63 -13 64 46 40z"/>
<path d="M3504 5073 c-49 -76 -116 -179 -149 -230 -33 -51 -87 -134 -119 -185
-33 -51 -96 -149 -141 -218 -79 -121 -185 -284 -310 -477 -33 -51 -98 -152
-145 -225 -47 -72 -121 -187 -165 -254 -146 -224 -200 -307 -215 -333 -8 -14
-32 -51 -53 -82 -20 -31 -37 -62 -37 -69 0 -10 226 -11 1118 -5 614 4 1118 8
1119 9 2 1 -21 68 -68 196 -11 30 -37 105 -59 165 -21 61 -51 142 -65 180 -14
39 -32 88 -40 110 -14 42 -72 201 -126 345 -17 47 -48 133 -70 193 -21 59 -57
158 -80 220 -22 61 -47 130 -54 152 -8 22 -26 72 -40 110 -14 39 -37 99 -49
135 -36 101 -93 258 -120 330 -13 35 -28 66 -33 67 -6 2 -50 -58 -99 -134z"/>
<path d="M6535 5148 c-9 -24 -23 -61 -30 -83 -7 -22 -32 -92 -55 -155 -23 -63
-62 -169 -85 -235 -24 -66 -62 -172 -86 -235 -23 -63 -50 -140 -60 -170 -11
-30 -23 -64 -28 -75 -17 -39 -50 -131 -60 -165 -5 -19 -33 -96 -61 -170 -28
-74 -65 -175 -81 -225 -17 -49 -36 -103 -44 -120 -19 -44 -52 -135 -64 -175
-5 -19 -34 -100 -64 -180 -30 -80 -53 -148 -50 -152 4 -8 2203 -11 2203 -4 0
3 -17 31 -39 63 -21 32 -70 108 -109 168 -39 61 -76 115 -81 122 -6 7 -11 15
-11 18 0 6 -24 44 -178 280 -113 173 -166 256 -232 360 -30 48 -95 150 -145
226 -49 76 -117 180 -149 231 -33 51 -98 152 -144 223 -47 72 -100 153 -117
180 -97 152 -206 315 -209 315 -2 0 -12 -19 -21 -42z"/>
<path d="M6470 5071 c-5 -11 -10 -29 -10 -40 0 -12 -4 -21 -9 -21 -6 0 -13
-20 -17 -45 -4 -27 -12 -45 -19 -45 -8 0 -18 -23 -25 -57 -12 -56 -58 -183
-71 -193 -3 -3 -9 -20 -12 -38 -4 -19 -13 -48 -21 -65 -8 -18 -20 -52 -26 -77
-7 -25 -16 -48 -21 -51 -5 -3 -19 -43 -30 -89 -20 -85 -58 -180 -71 -180 -5 0
-8 -16 -8 -35 0 -19 -9 -49 -20 -67 -11 -18 -20 -41 -20 -51 0 -27 25 -15 28
14 1 13 11 44 21 69 26 62 57 147 72 195 6 22 18 49 25 60 6 11 15 36 19 55 4
19 13 44 20 55 7 11 16 36 20 55 4 19 13 46 21 60 7 14 26 66 43 115 48 145
77 225 110 308 17 43 31 80 31 82 0 13 -20 3 -30 -14z"/>
<path d="M5777 2963 c-5 -8 -39 -97 -76 -198 -11 -27 -45 -120 -77 -205 -67
-182 -96 -258 -118 -320 -9 -25 -20 -54 -25 -65 -5 -11 -21 -54 -36 -95 -15
-41 -33 -91 -41 -110 -17 -44 -59 -160 -83 -225 -10 -27 -30 -80 -45 -118 -14
-37 -26 -74 -26 -82 0 -8 -7 -29 -15 -47 -32 -72 -86 -231 -83 -244 2 -11 23
-2 78 33 42 26 85 54 95 60 11 7 36 22 55 33 19 11 47 28 62 38 15 9 61 37
102 61 42 25 76 48 76 52 0 8 86 66 120 82 8 4 45 26 82 50 37 23 131 80 208
127 77 47 171 104 208 127 37 22 105 64 152 92 47 28 139 85 205 126 66 42
127 78 135 82 8 4 44 25 80 48 36 23 99 62 140 86 41 24 83 48 92 54 14 8 262
160 397 242 20 13 53 33 75 45 21 13 46 28 55 33 9 6 75 46 146 89 160 97 235
146 235 152 0 7 -2169 4 -2173 -3z"/>
<path d="M2255 2940 c4 -6 42 -32 86 -58 44 -26 88 -51 97 -57 10 -5 91 -55
182 -111 91 -55 217 -132 280 -170 63 -38 122 -73 131 -79 9 -5 45 -27 80 -48
35 -21 129 -78 209 -128 80 -49 152 -93 160 -96 8 -4 41 -24 73 -45 32 -21 60
-38 61 -38 2 0 109 -64 237 -142 129 -77 265 -160 302 -182 325 -195 393 -237
402 -249 13 -17 449 -285 488 -300 22 -8 20 1 -28 123 -19 47 -59 155 -89 240
-30 85 -66 187 -81 225 -14 39 -32 88 -40 110 -7 22 -25 69 -40 105 -24 59
-86 224 -122 325 -17 49 -61 163 -73 190 -4 11 -22 58 -39 105 -27 76 -68 184
-99 263 l-12 27 -1085 0 c-730 0 -1084 -3 -1080 -10z"/>
<path d="M2240 2849 c19 -16 49 -35 67 -41 18 -7 33 -15 33 -19 0 -4 18 -14
40 -23 22 -9 40 -20 40 -26 0 -5 12 -13 28 -16 15 -4 45 -22 68 -41 23 -18 46
-33 53 -33 13 0 58 -27 81 -49 8 -8 34 -23 58 -33 24 -11 68 -37 99 -59 31
-21 60 -39 65 -39 5 0 19 -9 31 -20 12 -12 32 -23 44 -26 13 -4 23 -10 23 -15
0 -4 29 -23 65 -40 36 -18 65 -36 65 -40 0 -4 13 -10 30 -14 16 -4 33 -12 37
-19 9 -14 100 -71 129 -80 11 -3 30 -15 41 -25 11 -11 46 -31 77 -45 31 -14
56 -30 56 -36 0 -5 6 -10 14 -10 8 0 21 -7 30 -15 8 -8 36 -24 61 -35 25 -11
44 -23 41 -28 -2 -4 23 -21 57 -36 34 -16 67 -34 72 -41 6 -6 44 -30 85 -52
41 -22 93 -52 114 -67 21 -14 43 -26 47 -26 5 0 18 -8 28 -17 38 -34 50 -43
63 -43 7 0 24 -9 38 -20 14 -11 29 -20 33 -20 5 0 25 -13 45 -29 37 -30 101
-54 88 -33 -5 9 -47 35 -156 97 -19 11 -75 45 -123 75 -103 64 -156 96 -177
106 -8 4 -41 25 -73 46 -32 21 -65 38 -73 38 -8 0 -14 4 -14 8 0 5 -23 22 -51
38 -28 16 -67 39 -87 51 -20 13 -52 30 -69 40 -18 9 -33 20 -33 25 0 4 -6 8
-14 8 -7 0 -42 19 -77 43 -35 23 -75 48 -89 55 -14 7 -38 21 -55 32 -16 11
-46 29 -65 40 -19 11 -52 31 -72 43 -20 12 -71 41 -112 65 -42 24 -76 47 -76
51 0 3 -12 12 -27 19 -16 6 -46 23 -68 36 -22 14 -47 28 -55 32 -8 4 -45 27
-83 51 -37 24 -69 43 -72 43 -2 0 -31 17 -62 37 -32 21 -67 43 -78 49 -11 6
-34 19 -52 30 -147 89 -199 110 -133 53z"/>
</g>
</svg>
