<?xml version="1.0" standalone="no"?>
<!DOCTYPE svg PUBLIC "-//W3C//DTD SVG 20010904//EN"
 "http://www.w3.org/TR/2001/REC-SVG-20010904/DTD/svg10.dtd">
<svg version="1.0" xmlns="http://www.w3.org/2000/svg"
 width="1024.000000pt" height="680.000000pt" viewBox="0 0 1024.000000 680.000000"
 preserveAspectRatio="xMidYMid meet">
<metadata>
Created by potrace 1.15, written by Peter Selinger 2001-2017
</metadata>
<g transform="translate(0.000000,680.000000) scale(0.100000,-0.100000)"
fill="#000000" stroke="none">
<path d="M7635 4863 c-168 -20 -285 -115 -356 -288 -16 -39 -27 -140 -18 -157
19 -36 101 -34 119 2 5 8 13 40 20 70 18 77 44 125 95 172 55 51 78 62 158 78
53 11 77 11 124 1 173 -36 252 -143 241 -325 -9 -137 -13 -142 -440 -570
l-339 -339 3 -56 3 -56 465 0 465 0 0 55 0 55 -358 3 c-309 2 -358 4 -355 17
2 8 125 137 274 287 285 288 336 347 381 443 25 56 27 69 27 190 -1 133 -5
154 -51 241 -68 129 -254 202 -458 177z"/>
<path d="M2677 4522 c-16 -17 -17 -106 -17 -1079 0 -1014 1 -1061 18 -1076 17
-15 66 -17 500 -17 490 0 540 3 647 41 87 31 184 97 244 166 50 56 117 188
132 258 42 201 3 389 -111 535 -40 52 -58 69 -120 112 -25 17 -46 32 -48 33
-8 6 13 35 25 35 24 0 136 121 162 175 54 115 61 144 61 273 0 130 -8 168 -56
268 -24 50 -53 89 -97 131 -85 82 -136 106 -313 152 -27 7 -215 11 -526 11
-457 0 -486 -1 -501 -18z m1009 -187 c157 -37 235 -107 283 -256 14 -46 14
-152 0 -198 -50 -157 -142 -239 -312 -280 -31 -7 -177 -11 -422 -11 l-375 0 0
380 0 380 379 0 c307 0 392 -3 447 -15z m34 -954 c120 -47 199 -108 244 -191
118 -217 42 -493 -165 -597 -97 -49 -136 -53 -551 -53 l-388 0 0 431 0 430
413 -3 c315 -3 420 -7 447 -17z"/>
<path d="M5147 4522 c-16 -17 -17 -106 -17 -1079 0 -1215 -11 -1093 98 -1093
109 0 102 -31 102 465 l0 425 343 0 c332 1 410 6 552 38 128 29 279 125 342
217 83 123 107 211 106 400 -1 223 -39 331 -158 450 -69 69 -167 129 -255 154
-130 38 -179 41 -641 41 -429 0 -457 -1 -472 -18z m990 -187 c147 -34 242
-105 303 -230 l35 -70 -1 -140 c-1 -144 -5 -163 -51 -250 -33 -63 -86 -111
-160 -148 -120 -59 -192 -67 -584 -67 l-349 0 0 460 0 460 369 0 c297 0 383
-3 438 -15z"/>
</g>
</svg>
