<?xml version="1.0" encoding="utf-8"?>
<!-- Generator: Adobe Illustrator 22.1.0, SVG Export Plug-In . SVG Version: 6.00 Build 0)  -->
<svg version="1.1" id="图层_1" xmlns="http://www.w3.org/2000/svg" xmlns:xlink="http://www.w3.org/1999/xlink" x="0px" y="0px"
	 viewBox="0 0 396.9 396.9" style="enable-background:new 0 0 396.9 396.9;" xml:space="preserve">
<style type="text/css">
	.st0{fill:url(#SVGID_1_);}
	.st1{fill:url(#Combined-Shape_1_);}
	.st2{fill:#FFFFFF;}
</style>
<rect x="0" width="396.9" height="396.9"/>
<g id="logo-大" transform="translate(709.898064, 274.250000)">
	
		<linearGradient id="SVGID_1_" gradientUnits="userSpaceOnUse" x1="-809.9019" y1="376.9354" x2="-809.9019" y2="377.8733" gradientTransform="matrix(188.8186 0 0 -287.624 152409.9062 108447.3516)">
		<stop  offset="0" style="stop-color:#FF2996"/>
		<stop  offset="1" style="stop-color:#4D24FF"/>
	</linearGradient>
	<path class="st0" d="M-605.7-22.2l29.6-131.7l61.5-87.6l61.4,87.6l29.7,131.7l-91.1,56.9L-605.7-22.2z M-520,22.9l-14-43.6h-55.8
		L-520,22.9z M-509.1,22.8l69.6-43.5h-55.7L-509.1,22.8z M-514.6,16.3l11.8-37h-23.7L-514.6,16.3z M-434.8-27.9L-472-93.3l-21,65.5
		H-434.8z M-500.4-27.9l23.7-73.9l-37.8-66.7l-37.8,66.6l23.7,74H-500.4z M-536.2-27.9l-21-65.5l-37.2,65.5H-536.2z M-593.5-43.9
		l33.4-58.8l-11.8-37L-593.5-43.9z M-435.8-44.1l-21.5-95.2l-11.7,36.7L-435.8-44.1z M-473.8-111l13.1-41l-50.4-71.9v47.3
		L-473.8-111z M-555.4-111.1l37.1-65.4V-224l-50.3,71.7L-555.4-111.1z"/>
	
		<linearGradient id="Combined-Shape_1_" gradientUnits="userSpaceOnUse" x1="-809.9019" y1="376.9459" x2="-809.9019" y2="377.8576" gradientTransform="matrix(188.8186 0 0 -287.624 152409.9062 108447.3516)">
		<stop  offset="0" style="stop-color:#FF2996"/>
		<stop  offset="1" style="stop-color:#4D24FF"/>
	</linearGradient>
	<path id="Combined-Shape" class="st1" d="M-456.8-149.3l-15.1,47.1l42.6,75L-456.8-149.3z M-457.7-152.5l-56-79.8v56.3l40.6,71.5
		L-457.7-152.5z M-513.8,28.8l83.6-52.2h-66.9L-513.8,28.8z M-515.2,28.9L-532-23.3h-67L-515.2,28.9z M-530-23.3l15.5,48.3
		l15.5-48.3H-530z M-572.4-149.7L-600-27.1l42.7-75.3L-572.4-149.7z M-571.4-152.7l15.4,48.2l40.5-71.3v-56.5L-571.4-152.7z
		 M-496.5-25.2h66.3l-42.4-74.7L-496.5-25.2z M-498.5-25.2l24.6-76.9l-40.7-71.7l-40.7,71.6l24.6,76.9H-498.5z M-532.6-25.2
		l-23.9-74.7l-42.4,74.7H-532.6z M-514.6-236.9l59,84.1l29.2,129.4l-88.1,55l-88.1-55l29.1-129.4L-514.6-236.9z"/>
</g>
<g>
	<path class="st2" d="M151.3,326.6c0-1.6,0.3-3.1,0.9-4.3s1.3-2.3,2.3-3.1c0.9-0.8,2-1.4,3.1-1.9c1.2-0.4,2.3-0.6,3.5-0.6
		c1.2,0,2.3,0.2,3.5,0.6c1.2,0.4,2.2,1,3.1,1.9c0.9,0.8,1.7,1.9,2.3,3.1c0.6,1.3,0.9,2.7,0.9,4.3v2.1H165v-2.1
		c0-1.4-0.4-2.4-1.2-3.1c-0.8-0.7-1.7-1-2.8-1c-1.1,0-2,0.3-2.8,1c-0.8,0.7-1.2,1.7-1.2,3.1V348c0,1.4,0.4,2.4,1.2,3.1
		c0.8,0.7,1.7,1,2.8,1c1.1,0,2-0.3,2.8-1c0.8-0.7,1.2-1.7,1.2-3.1v-7.6h-4.6v-5.1h10.4V348c0,1.7-0.3,3.1-0.9,4.4
		c-0.6,1.2-1.3,2.3-2.3,3.1c-0.9,0.8-2,1.4-3.1,1.9c-1.2,0.4-2.3,0.6-3.5,0.6c-1.2,0-2.3-0.2-3.5-0.6c-1.2-0.4-2.2-1-3.1-1.9
		c-0.9-0.8-1.7-1.8-2.3-3.1c-0.6-1.2-0.9-2.7-0.9-4.4V326.6z"/>
	<path class="st2" d="M175.9,317h17.3v5.5h-11.5v11.9h10v5.5h-10v11.9h11.5v5.8h-17.3V317z"/>
	<path class="st2" d="M196.6,326.6c0-1.6,0.3-3.1,0.9-4.3s1.3-2.3,2.3-3.1c0.9-0.8,2-1.4,3.1-1.9c1.2-0.4,2.3-0.6,3.5-0.6
		s2.3,0.2,3.5,0.6s2.2,1,3.1,1.9c0.9,0.8,1.7,1.9,2.3,3.1c0.6,1.3,0.9,2.7,0.9,4.3V348c0,1.7-0.3,3.1-0.9,4.4
		c-0.6,1.2-1.3,2.3-2.3,3.1c-0.9,0.8-2,1.4-3.1,1.9s-2.3,0.6-3.5,0.6s-2.3-0.2-3.5-0.6c-1.2-0.4-2.2-1-3.1-1.9
		c-0.9-0.8-1.7-1.8-2.3-3.1c-0.6-1.2-0.9-2.7-0.9-4.4V326.6z M202.5,348c0,1.4,0.4,2.4,1.2,3.1c0.8,0.7,1.7,1,2.8,1s2-0.3,2.8-1
		c0.8-0.7,1.2-1.7,1.2-3.1v-21.4c0-1.4-0.4-2.4-1.2-3.1c-0.8-0.7-1.7-1-2.8-1s-2,0.3-2.8,1c-0.8,0.7-1.2,1.7-1.2,3.1V348z"/>
	<path class="st2" d="M240.1,328.7h-5.8v-1.3c0-1.3-0.3-2.5-0.9-3.4c-0.6-1-1.7-1.5-3.2-1.5c-0.8,0-1.5,0.2-2,0.5
		c-0.5,0.3-0.9,0.7-1.2,1.2c-0.3,0.5-0.5,1-0.6,1.7c-0.1,0.6-0.2,1.3-0.2,2c0,0.8,0,1.5,0.1,2c0.1,0.6,0.2,1,0.4,1.4
		c0.2,0.4,0.6,0.8,1,1.1c0.4,0.3,1,0.6,1.8,0.9l4.4,1.8c1.3,0.5,2.3,1.1,3.1,1.7s1.4,1.4,1.9,2.3c0.4,0.9,0.7,1.9,0.9,3.1
		c0.2,1.2,0.2,2.5,0.2,4c0,1.7-0.2,3.3-0.5,4.8c-0.3,1.5-0.9,2.7-1.7,3.8c-0.8,1-1.8,1.9-3.1,2.5c-1.3,0.6-2.9,0.9-4.7,0.9
		c-1.4,0-2.7-0.2-3.9-0.7c-1.2-0.5-2.3-1.2-3.1-2c-0.9-0.9-1.6-1.9-2.1-3c-0.5-1.2-0.8-2.5-0.8-3.8v-2.2h5.8v1.8
		c0,1.1,0.3,2,0.9,2.9c0.6,0.9,1.7,1.3,3.2,1.3c1,0,1.8-0.1,2.3-0.4s1-0.7,1.3-1.2s0.5-1.1,0.5-1.9c0.1-0.8,0.1-1.6,0.1-2.5
		c0-1.1,0-1.9-0.1-2.6c-0.1-0.7-0.2-1.2-0.5-1.7c-0.2-0.4-0.6-0.8-1-1c-0.4-0.3-1-0.5-1.7-0.9l-4.2-1.7c-2.5-1-4.2-2.4-5-4.1
		c-0.9-1.7-1.3-3.8-1.3-6.4c0-1.5,0.2-3,0.6-4.3c0.4-1.4,1-2.5,1.9-3.5c0.8-1,1.9-1.8,3.1-2.4c1.3-0.6,2.7-0.9,4.4-0.9
		c1.4,0,2.8,0.3,4,0.8s2.2,1.2,3.1,2.1s1.5,1.9,2,2.9c0.5,1.1,0.7,2.2,0.7,3.3V328.7z"/>
</g>
</svg>
