<?xml version="1.0" encoding="UTF-8"?>
<!DOCTYPE svg PUBLIC "-//W3C//DTD SVG 1.1//EN" "http://www.w3.org/Graphics/SVG/1.1/DTD/svg11.dtd">
<!-- Creator: CorelDRAW Home & Student X8 -->
<svg xmlns="http://www.w3.org/2000/svg" xml:space="preserve" width="210mm" height="297mm" version="1.1" style="shape-rendering:geometricPrecision; text-rendering:geometricPrecision; image-rendering:optimizeQuality; fill-rule:evenodd; clip-rule:evenodd"
viewBox="0 0 21000 29700"
 xmlns:xlink="http://www.w3.org/1999/xlink"
 enable-background="new 0 0 100 100">
 <defs>
  <style type="text/css">
   <![CDATA[
    .str0 {stroke:#1F1F20;stroke-width:30}
    .fil6 {fill:none}
    .fil8 {fill:none;fill-rule:nonzero}
    .fil0 {fill:#FEFEFE}
    .fil3 {fill:#DC373C}
    .fil4 {fill:#DC373C}
    .fil5 {fill:#1F1F20}
    .fil2 {fill:#16488B}
    .fil1 {fill:#16488B}
    .fil7 {fill:#1F1F20;fill-rule:nonzero}
   ]]>
  </style>
 </defs>
 <g id="Layer_x0020_1">
  <metadata id="CorelCorpID_0Corel-Layer"/>
  <g id="_694558576">
   <polygon class="fil0" points="6623,7582 10171,2605 13816,7627 15543,15303 10129,18562 4885,15448 "/>
   <g>
    <g>
     <polygon class="fil1" points="15437,15525 15215,13852 8883,17681 10060,18434 "/>
     <polygon class="fil2" points="5655,15887 11376,12425 5196,12425 4846,15338 "/>
     <polygon class="fil1" points="6933,6942 11475,6942 8149,5295 "/>
     <path class="fil3" d="M12185 5120l-2927 -1434 -639 847 4553 2230 -987 -1643zm-5859 3025l-527 3077 8882 0 -671 -3077 -7684 0z"/>
    </g>
    <polygon class="fil4" points="8003,17281 15079,12996 14516,12071 7439,16356 "/>
    <path class="fil5" d="M10149 1865l-4016 5508 -1705 8102 5721 3447 5721 -3447 -1705 -8138 -4016 -5472zm-3092 5650l3092 -4229 3092 4229 -3092 9275 -3092 -9275zm6610 1386l1279 6183 -4193 2523 2914 -8706zm-8315 6183l1279 -6183 2914 8706 -4193 -2523z"/>
   </g>
   <g>
    <path id="Fill-1" class="fil5" d="M4271 20796l1021 0c-53,-286 -256,-448 -506,-448 -246,0 -463,162 -515,448zm-14 150c0,413 296,626 605,626 151,0 397,-51 532,-146l0 175c-135,79 -375,127 -545,127 -395,0 -795,-264 -795,-782 0,-487 341,-754 745,-754 394,0 710,254 710,754l-1252 0z"/>
    <g>
     <path id="Fill-4" class="fil5" d="M6695 21572c297,0 597,-221 597,-616 0,-396 -297,-613 -594,-613 -300,0 -597,220 -597,613 0,395 297,616 594,616l0 0zm-797 -616c0,-495 402,-769 803,-769 402,0 794,274 794,766 0,497 -399,775 -800,775 -399,0 -797,-278 -797,-772z"/>
    </g>
    <path id="Fill-6" class="fil5" d="M8313 20971c-228,-111 -428,-226 -399,-471 23,-187 162,-308 448,-308 132,0 303,25 438,108l-128 97c-92,-39 -178,-47 -251,-49 -158,-3 -283,28 -303,162 -26,178 182,254 356,337 270,127 418,223 418,455 0,242 -164,426 -533,426 -214,0 -385,-64 -501,-134l129 -97c109,51 229,75 346,75 276,0 368,-137 368,-270 0,-156 -125,-204 -388,-331z"/>
    <path id="Fill-9" class="fil5" d="M13978 19553c78,0 144,68 144,141 0,77 -66,144 -144,144 -79,0 -144,-67 -144,-144 0,-73 65,-141 144,-141zm104 2148l-196 0 0 -1331 -315 0 0 -150 511 0 0 1481z"/>
    <g>
     <path id="Fill-11" class="fil5" d="M15414 21572c297,0 598,-221 598,-616 0,-396 -298,-613 -595,-613 -300,0 -597,220 -597,613 0,395 297,616 594,616l0 0zm-797 -616c0,-495 402,-769 804,-769 401,0 793,274 793,766 0,497 -398,775 -800,775 -398,0 -797,-278 -797,-772z"/>
    </g>
    <rect id="eosio_logo" class="fil6" x="3766" y="19344" width="8554" height="2590"/>
    <path class="fil7" d="M10660 21699l0 -1491 -236 0 0 1083c-169,186 -327,279 -475,279 -105,0 -179,-33 -221,-97 -43,-62 -65,-159 -65,-289l0 -976 -239 0 0 1020c0,338 149,507 447,507 188,0 369,-84 543,-251l0 215 246 0z"/>
    <polygon id="1" class="fil7" points="12657,21699 11831,20817 12553,20206 12242,20206 11506,20831 11506,19801 11263,19801 11263,21699 11513,21699 11513,21063 11653,20952 12328,21699 "/>
    <path id="2" class="fil8 str0" d="M10660 21699l0 -1491 -236 0 0 1083c-169,186 -327,279 -475,279 -105,0 -179,-33 -221,-97 -43,-62 -65,-159 -65,-289l0 -976 -239 0 0 1020c0,338 149,507 447,507 188,0 369,-84 543,-251l0 215 246 0z"/>
    <polygon id="3" class="fil8 str0" points="12657,21699 11831,20817 12553,20206 12242,20206 11506,20831 11506,19801 11263,19801 11263,21699 11513,21699 11513,21063 11653,20952 12328,21699 "/>
    <path class="fil7" d="M13414 21589c0,-41 -15,-76 -44,-103 -28,-28 -63,-42 -106,-42 -41,0 -74,14 -100,42 -28,29 -41,63 -41,103 0,42 13,78 41,108 28,29 61,43 100,43 43,0 78,-14 106,-43 29,-28 44,-64 44,-108z"/>
   </g>
  </g>
 </g>
</svg>
