<svg id="Layer_2" data-name="Layer 2" xmlns="http://www.w3.org/2000/svg" viewBox="0 0 514.07 514.07"><defs><style>.cls-1{fill:none;stroke:#231f20;stroke-linecap:round;stroke-linejoin:round;stroke-width:5px;}.cls-2,.cls-3{fill:#231f20;}.cls-3{font-size:141.46px;font-family:Quicksand-Regular, Quicksand;}</style></defs><title>logo-eosrio-black-square</title><path class="cls-1" d="M108.7,166.24l36.62,115L91,247.18l17.72-80.94,36.62-50V151.3L91,247.18H199.71L145.37,151.3V116.21l36.62,50,17.72,80.94-54.34,34.05,36.62-115"/><path class="cls-2" d="M69.94,193.39a127.89,127.89,0,0,1,4.16-16.23c1.7-5.33,3.64-10.59,5.72-15.78a276.9,276.9,0,0,1,14.54-30.29A185.19,185.19,0,0,1,113.16,103,88.37,88.37,0,0,1,125.25,90.8a46.32,46.32,0,0,1,7.39-4.92,25.64,25.64,0,0,1,9-2.81,38.31,38.31,0,0,1,4.68,0c.76.06,1.51.18,2.26.28l1.13.15c.38.06.74.16,1.11.24l2.22.5,2.15.69,1.07.34,1,.42,2.08.85A62.36,62.36,0,0,1,174,96.22c8.81,7.64,15.78,16.89,21.8,26.55,3,4.85,5.77,9.82,8.26,14.93s4.77,10.3,6.87,15.56a250.17,250.17,0,0,1,10.29,32.35l1,4.13.9,4.15.22,1,.06.26a1,1,0,0,0,.05.2.27.27,0,0,1,0,.12c.06.12,0,.08,0,.08s.11.06.35.15a5.69,5.69,0,0,0,1.13.2,26.53,26.53,0,0,0,7.11-.77c2.56-.54,5.18-1.25,7.81-2,5.25-1.53,10.54-3.25,15.86-4.94s10.7-3.3,16.11-4.84a237.08,237.08,0,0,1,33.18-7c11.26-1.43,22.81-1.83,34.18-.07,2.82.5,5.66.94,8.43,1.67s5.51,1.48,8.24,2.31c1.37.41,2.69,1,4,1.42s2.69,1,4,1.54l3.93,1.66,3.83,1.85a133.73,133.73,0,0,1,14.69,8.49c2.38,1.51,4.64,3.2,6.94,4.83s4.49,3.4,6.64,5.21A197.57,197.57,0,0,1,424,228.73q5.5,6.33,10.53,13.05c3.33,4.48,6.54,9.05,9.45,13.81-3.13-4.62-6.55-9-10.09-13.32s-7.23-8.45-11.08-12.46a207.66,207.66,0,0,0-24.75-22.15c-2.19-1.69-4.47-3.25-6.72-4.84s-4.59-3.06-7-4.44a129.73,129.73,0,0,0-14.58-7.65L366,189.08l-3.82-1.46c-1.27-.52-2.57-.93-3.87-1.35s-2.58-.88-3.9-1.22c-2.63-.69-5.25-1.44-7.92-1.92s-5.34-.92-8-1.3c-10.75-1.29-21.7-.54-32.47,1.21a254.29,254.29,0,0,0-32,7.77c-10.58,3.19-21,6.82-31.91,10-2.73.78-5.49,1.54-8.38,2.15-1.45.31-2.92.58-4.47.77a24,24,0,0,1-5,.15,13.49,13.49,0,0,1-3-.6,8.83,8.83,0,0,1-3.25-1.91,8.28,8.28,0,0,1-2.15-3.43c-.08-.3-.16-.59-.23-.89l-.13-.56-.21-1-.84-4-.93-4c-5.11-21.32-12.84-42.16-24-60.91-5.58-9.33-12.09-18.16-20-25.37a56.15,56.15,0,0,0-12.93-9l-1.77-.78-.89-.38-.91-.31-1.82-.63-1.85-.47c-.31-.08-.61-.17-.93-.23l-.93-.15c-.63-.1-1.25-.22-1.88-.3a33.5,33.5,0,0,0-3.67-.14,19.74,19.74,0,0,0-7,2,40.24,40.24,0,0,0-6.63,4.12,83.45,83.45,0,0,0-11.74,11.16A156.37,156.37,0,0,0,106.52,119c-3.19,4.5-6.26,9.11-9.15,13.83A282.31,282.31,0,0,0,81.73,162.2a179.07,179.07,0,0,0-11.49,31.26Z"/><text class="cls-3" transform="translate(38.69 397.63)">eos rio</text></svg>