<?xml version="1.0" standalone="no"?>
<!DOCTYPE svg PUBLIC "-//W3C//DTD SVG 20010904//EN"
 "http://www.w3.org/TR/2001/REC-SVG-20010904/DTD/svg10.dtd">
<svg version="1.0" xmlns="http://www.w3.org/2000/svg"
 width="476.000000pt" height="315.000000pt" viewBox="0 0 476.000000 315.000000"
 preserveAspectRatio="xMidYMid meet">
<metadata>
Created by potrace 1.15, written by Peter Selinger 2001-2017
</metadata>
<g transform="translate(0.000000,315.000000) scale(0.100000,-0.100000)"
fill="#000000" stroke="none">
<path d="M981 2862 c-41 -59 -117 -164 -169 -234 l-94 -128 -88 -377 c-49
-207 -88 -378 -87 -379 17 -14 507 -314 513 -314 5 0 124 68 264 150 200 117
254 153 252 167 -1 10 -40 181 -86 380 l-84 362 -168 233 c-92 128 -170 236
-173 240 -3 3 -40 -42 -80 -100z m239 -169 c166 -232 165 -229 204 -427 l6
-31 -32 40 c-27 32 -209 236 -228 255 -3 3 -31 33 -62 66 l-57 62 -133 -151
c-73 -84 -153 -179 -177 -212 -61 -84 -61 -84 -46 -19 8 32 22 93 31 134 14
63 27 87 84 165 37 50 106 146 154 213 48 67 90 122 94 121 4 0 77 -97 162
-216z m-183 -277 c-8 -11 -57 -71 -109 -131 -94 -109 -96 -110 -169 -134 -41
-13 -80 -26 -86 -28 -7 -3 -13 -1 -13 4 0 11 148 211 185 251 14 15 63 68 108
119 l82 92 8 -76 c6 -58 4 -80 -6 -97z m198 -1 c174 -190 238 -275 221 -292
-3 -3 -43 9 -89 27 -90 34 -89 33 -239 212 l-58 69 0 82 1 82 36 -40 c20 -22
78 -85 128 -140z m-74 -136 c52 -61 95 -114 97 -118 1 -4 -17 -68 -41 -142
l-43 -134 -114 0 -114 0 -43 139 -43 139 58 66 c32 36 75 87 96 114 21 26 42
47 46 47 4 0 49 -50 101 -111z m310 -217 c6 -15 -13 -77 -67 -219 -73 -193
-81 -211 -87 -202 -15 18 -117 212 -117 221 0 9 53 180 85 275 6 19 177 -50
186 -75z m-603 -19 c61 -196 61 -166 6 -289 -26 -60 -50 -112 -54 -117 -8 -10
-180 378 -180 408 0 12 6 28 14 34 16 13 143 59 167 60 12 1 24 -25 47 -96z
m-159 -247 c40 -87 70 -160 69 -161 -6 -5 -203 125 -202 132 16 82 49 202 55
196 4 -4 39 -80 78 -167z m810 66 c11 -52 21 -100 21 -107 0 -12 -170 -119
-177 -111 -2 2 24 76 58 165 34 89 65 158 69 154 4 -4 17 -50 29 -101z m-285
-131 c36 -65 66 -121 66 -125 0 -3 -103 -6 -230 -6 -126 0 -230 2 -230 4 0 4
89 205 101 229 8 15 25 17 119 17 l108 0 66 -119z m-83 -216 l-94 -55 -67 40
c-122 74 -127 69 75 70 l180 0 -94 -55z"/>
<path d="M1120 785 l0 -455 30 0 30 0 0 178 c1 165 2 180 24 222 55 108 196
141 296 69 70 -51 80 -85 80 -291 l0 -178 30 0 30 0 0 183 c0 171 -2 185 -24
232 -49 105 -121 150 -236 150 -81 -1 -122 -16 -172 -63 l-28 -26 0 217 0 217
-30 0 -30 0 0 -455z"/>
<path d="M2980 1221 c-70 -22 -93 -35 -157 -83 -105 -80 -173 -223 -173 -363
0 -192 120 -367 298 -436 116 -45 271 -36 386 23 53 27 152 122 183 176 79
135 83 314 11 457 -27 52 -122 151 -176 182 -106 62 -260 80 -372 44z m211
-51 c124 -23 237 -112 293 -229 28 -60 31 -75 31 -166 0 -94 -2 -105 -33 -168
-154 -311 -587 -311 -735 1 -29 61 -32 75 -32 167 0 92 3 106 32 167 81 171
259 263 444 228z"/>
<path d="M4006 1224 c-77 -25 -130 -66 -160 -126 -47 -94 -26 -206 50 -264 44
-34 142 -64 208 -64 67 0 162 -18 201 -37 106 -54 126 -169 44 -258 -58 -63
-124 -89 -229 -89 -77 -1 -92 2 -153 32 -37 19 -77 47 -89 63 -24 32 -36 35
-63 15 -17 -12 -16 -16 25 -60 76 -82 235 -137 350 -121 145 21 256 126 267
255 5 50 2 67 -21 113 -46 94 -125 134 -296 147 -111 9 -158 21 -203 52 -58
41 -73 118 -37 188 41 81 157 123 274 100 72 -14 127 -41 153 -74 18 -22 21
-23 46 -9 33 17 26 36 -29 78 -84 64 -238 91 -338 59z"/>
<path d="M1910 775 l0 -445 245 0 245 0 0 30 0 30 -215 0 -215 0 0 190 0 190
210 0 210 0 0 30 0 30 -210 0 -210 0 0 165 0 165 215 0 215 0 0 30 0 30 -245
0 -245 0 0 -445z"/>
<path d="M550 878 c-122 -62 -122 -218 0 -269 14 -6 62 -14 107 -19 96 -10
136 -28 152 -69 30 -72 -51 -151 -154 -151 -47 0 -123 32 -146 61 -15 20 -16
20 -37 2 -21 -17 -22 -19 -7 -40 9 -13 36 -34 60 -49 128 -74 317 -15 342 108
25 119 -39 181 -204 198 -123 13 -159 46 -139 127 19 73 169 85 258 21 15 -10
21 -10 35 4 16 17 16 19 -6 42 -53 56 -183 73 -261 34z"/>
</g>
</svg>
