<?xml version="1.0" encoding="utf-8"?>
<!-- Generator: Adobe Illustrator 22.0.0, SVG Export Plug-In . SVG Version: 6.00 Build 0)  -->
<svg version="1.1" id="图层_1" xmlns="http://www.w3.org/2000/svg" xmlns:xlink="http://www.w3.org/1999/xlink" x="0px" y="0px"
	 width="72.7px" height="104.6px" viewBox="0 0 72.7 104.6" style="enable-background:new 0 0 72.7 104.6;" xml:space="preserve">
<style type="text/css">
	.st0{opacity:0.9;}
	.st1{opacity:0.6;fill:none;stroke:#662A82;stroke-width:4;stroke-miterlimit:10;enable-background:new    ;}
	.st2{opacity:0.8;fill:none;stroke:#662A82;stroke-width:4;stroke-miterlimit:10;enable-background:new    ;}
	.st3{opacity:0.3;fill:none;stroke:#662A82;stroke-width:4;stroke-miterlimit:10;enable-background:new    ;}
	.st4{opacity:0.9;fill:none;stroke:#662A82;stroke-width:4;stroke-miterlimit:10;enable-background:new    ;}
	.st5{opacity:0.1;fill:none;stroke:#662A82;stroke-width:4;stroke-miterlimit:10;enable-background:new    ;}
	.st6{fill:#666666;}
</style>
<title>未标题-6</title>
<g class="st0">
	<polygon class="st1" points="36.2,82.8 7.8,67.1 17.5,29.7 	"/>
	<polygon class="st1" points="36.2,82.8 64.8,67.1 55.1,29.6 	"/>
	<polygon class="st2" points="36.4,23.7 36.3,5.8 17.5,29.7 7.8,67.1 	"/>
	<polygon class="st2" points="36.4,23.7 36.3,5.8 55.2,29.7 64.9,67.1 	"/>
	<polygon class="st3" points="64.9,67.1 7.8,67.1 36.4,23.7 	"/>
	<polygon class="st4" points="64.9,67.1 7.8,67.1 36.4,82.8 	"/>
	<polygon class="st5" points="55.1,29.6 36.3,5.8 17.5,29.7 36.2,82.8 	"/>
</g>
<path class="st6" d="M9.2,104.3H4v-9.8h5v1H5.1v3.3h3.5v1H5.1v3.4h4V104.3z"/>
<path class="st6" d="M18.1,104.4c-1.3,0.1-2.5-0.4-3.3-1.4c-0.9-1-1.3-2.3-1.2-3.6c-0.1-1.4,0.4-2.7,1.3-3.8c0.9-1,2.2-1.5,3.5-1.4
	c1.2,0,2.4,0.5,3.2,1.4c0.9,1,1.3,2.3,1.2,3.6c0.1,1.4-0.4,2.7-1.2,3.8C20.6,104,19.4,104.5,18.1,104.4z M18.2,95.3
	c-1,0-1.9,0.4-2.5,1.1c-1.3,1.7-1.3,4.1,0,5.8c0.6,0.7,1.5,1.1,2.4,1.1c1,0.1,1.9-0.3,2.5-1c0.7-0.8,1-1.9,0.9-3
	c0.1-1.1-0.3-2.1-0.9-3C20,95.7,19.1,95.3,18.2,95.3z"/>
<path class="st6" d="M27.3,103.9v-1.3c0.2,0.1,0.4,0.3,0.6,0.4c0.2,0.1,0.4,0.2,0.7,0.3c0.2,0.1,0.5,0.1,0.7,0.2
	c0.2,0,0.4,0.1,0.7,0.1c0.6,0,1.1-0.1,1.6-0.4c0.4-0.3,0.5-0.7,0.5-1.1c0-0.2-0.1-0.5-0.2-0.7c-0.1-0.2-0.3-0.4-0.5-0.5
	c-0.2-0.2-0.5-0.3-0.7-0.5l-0.9-0.5c-0.3-0.2-0.7-0.3-1-0.5c-0.3-0.2-0.5-0.4-0.8-0.6c-0.2-0.2-0.4-0.5-0.5-0.7
	c-0.1-0.3-0.2-0.7-0.2-1c0-0.4,0.1-0.8,0.3-1.2c0.2-0.3,0.5-0.6,0.8-0.8c0.4-0.2,0.7-0.3,1.1-0.4c0.4-0.1,0.8-0.2,1.3-0.2
	c0.7,0,1.4,0.1,2.1,0.3v1.3c-0.7-0.4-1.4-0.6-2.2-0.6c-0.3,0-0.5,0-0.8,0.1c-0.2,0-0.5,0.1-0.7,0.3c-0.2,0.1-0.4,0.3-0.5,0.5
	c-0.2,0.2-0.2,0.5-0.2,0.7c0,0.2,0,0.4,0.1,0.7c0.1,0.2,0.2,0.4,0.4,0.5c0.2,0.2,0.4,0.3,0.7,0.4l0.9,0.5c0.4,0.2,0.7,0.4,1,0.6
	c0.3,0.2,0.6,0.4,0.8,0.6c0.2,0.2,0.4,0.5,0.6,0.8c0.1,0.3,0.2,0.7,0.2,1c0,0.4-0.1,0.8-0.3,1.2c-0.2,0.3-0.4,0.6-0.8,0.8
	c-0.3,0.2-0.7,0.4-1.1,0.4c-0.4,0.1-0.9,0.1-1.3,0.1h-0.6l-0.7-0.1c-0.2,0-0.5-0.1-0.7-0.2C27.6,104.1,27.5,104,27.3,103.9z"/>
<path class="st6" d="M44.2,95.6h-2.8v8.8h-1.2v-8.8h-2.8v-1h6.8V95.6z"/>
<path class="st6" d="M56.2,104.3h-1.2v-4.5H50v4.5h-1.2v-9.8H50v4.3h5.1v-4.3h1.2V104.3z"/>
<path class="st6" d="M69.1,100.4c0,2.8-1.2,4.1-3.7,4.1c-2.4,0-3.6-1.3-3.6-4v-6h1.1v5.9c0,2,0.8,3,2.6,3c1.7,0,2.4-1,2.4-2.9v-6
	h1.2V100.4z"/>
</svg>
