<?xml version="1.0" encoding="UTF-8" standalone="no"?>
<!-- Created with Inkscape (http://www.inkscape.org/) -->

<svg
   xmlns:dc="http://purl.org/dc/elements/1.1/"
   xmlns:cc="http://creativecommons.org/ns#"
   xmlns:rdf="http://www.w3.org/1999/02/22-rdf-syntax-ns#"
   xmlns:svg="http://www.w3.org/2000/svg"
   xmlns="http://www.w3.org/2000/svg"
   xmlns:sodipodi="http://sodipodi.sourceforge.net/DTD/sodipodi-0.dtd"
   xmlns:inkscape="http://www.inkscape.org/namespaces/inkscape"
   width="67.733002mm"
   height="67.733002mm"
   viewBox="0 0 67.733002 67.733003"
   version="1.1"
   id="svg8"
   sodipodi:docname="emblem.svg"
   inkscape:version="0.92.0 r15299">
  <defs
     id="defs2">
    <clipPath
       id="clipPath4533"
       clipPathUnits="userSpaceOnUse">
      <path
         inkscape:connector-curvature="0"
         id="path4531"
         d="M 0,0 C 1333.63,0 2667.26,0 4000.89,0 5333.93,0 6666.96,0 8000,0 c 0,1368.01 0,2736.02 0,4104.03 0,1298.66 0,2597.31 0,3895.97 -1333.04,0 -2666.07,0 -3999.11,0 C 2667.26,8000 1333.63,8000 0,8000 0,6701.34 0,5402.69 0,4104.03 0,2736.02 0,1368.01 0,0" />
    </clipPath>
    <clipPath
       id="clipPath13342"
       clipPathUnits="userSpaceOnUse">
      <path
         inkscape:connector-curvature="0"
         id="path13340"
         d="M 0,0 H 7211 V 6972.88 H 0 Z" />
    </clipPath>
    <path
       id="spearshape"
       d="M -1,55.425626 H 1 V -38 c 2,-2 2,-5 2,-8 C 3,-48 3,-56 0,-64.66323 -3,-56 -3,-48 -3,-46 c 0,3 0,6 2,8 z"
       stroke-miterlimit="10"
       transform="rotate(30)"
       inkscape:connector-curvature="0"
       style="stroke-miterlimit:10" />
  </defs>
  <sodipodi:namedview
     id="base"
     pagecolor="#ffffff"
     bordercolor="#666666"
     borderopacity="1.0"
     inkscape:pageopacity="0.0"
     inkscape:pageshadow="2"
     inkscape:zoom="0.32000003"
     inkscape:cx="418.10981"
     inkscape:cy="-199.84789"
     inkscape:document-units="mm"
     inkscape:current-layer="layer9"
     showgrid="false"
     inkscape:window-width="1366"
     inkscape:window-height="713"
     inkscape:window-x="-8"
     inkscape:window-y="-8"
     inkscape:window-maximized="1"
     showguides="false"
     inkscape:guide-bbox="true"
     fit-margin-top="0"
     fit-margin-left="0"
     fit-margin-right="0"
     fit-margin-bottom="0"
     inkscape:pagecheckerboard="false"
     borderlayer="true"
     inkscape:showpageshadow="false">
    <sodipodi:guide
       position="994.67143,-1969.1922"
       orientation="0,1"
       id="guide5159"
       inkscape:locked="false" />
    <sodipodi:guide
       position="468.63127,-2156.2771"
       orientation="0,1"
       id="guide5161"
       inkscape:locked="false" />
  </sodipodi:namedview>
  <metadata
     id="metadata5">
    <rdf:RDF>
      <cc:Work
         rdf:about="">
        <dc:format>image/svg+xml</dc:format>
        <dc:type
           rdf:resource="http://purl.org/dc/dcmitype/StillImage" />
        <dc:title></dc:title>
      </cc:Work>
    </rdf:RDF>
  </metadata>
  <g
     inkscape:groupmode="layer"
     id="layer9"
     inkscape:label="horizontal_logo"
     style="display:inline"
     transform="translate(115.96271,113.08531)">
    <g
       id="g165"
       transform="translate(-84.774547,-7.0158245)">
      <rect
         inkscape:export-ydpi="96"
         inkscape:export-xdpi="96"
         ry="0"
         y="-106.06949"
         x="-31.188164"
         height="67.733002"
         width="67.733002"
         id="rect60"
         style="opacity:0.70899999;fill:none;fill-opacity:1;stroke:none;stroke-width:8.39425278;stroke-linecap:square;stroke-linejoin:round;stroke-miterlimit:4;stroke-dasharray:0.83942532, 0.83942532;stroke-dashoffset:0;stroke-opacity:1" />
      <g
         inkscape:export-ydpi="96"
         inkscape:export-xdpi="96"
         transform="matrix(0.76952505,0,0,-0.76952505,-2916.7401,-1965.4028)"
         id="g80">
        <path
           sodipodi:nodetypes="cccsc"
           inkscape:connector-curvature="0"
           id="path62"
           d="m 3793.7133,-2490.2864 c -4.9111,14.6877 -10.1316,27.8706 -14.7412,44.2233 3.7872,5.8885 9.6067,15.0291 14.7412,20.1632 0.798,0.055 14.9413,-19.4244 14.9413,-20.5924 0,-2.1526 -14.4783,-44.5973 -14.9413,-43.7941 z"
           style="display:inline;opacity:1;fill:#bb0000;fill-opacity:1;stroke:none;stroke-width:3.87260056;stroke-linecap:round;stroke-linejoin:round;stroke-miterlimit:4;stroke-dasharray:none;stroke-opacity:1" />
        <path
           sodipodi:nodetypes="cccc"
           inkscape:connector-curvature="0"
           id="path64"
           d="m 3770.8391,-2482.1534 c 1.6729,8.2682 3.3081,15.7867 6.0998,29.4823 0.4974,0.3074 13.8939,-39.7668 13.8939,-41.5124 -6.5092,3.7683 -13.9543,8.4295 -19.9937,12.0301 z"
           style="display:inline;opacity:1;fill:#000000;fill-opacity:1;stroke:none;stroke-width:3.87260056;stroke-linecap:round;stroke-linejoin:round;stroke-miterlimit:4;stroke-dasharray:none;stroke-opacity:1" />
        <path
           sodipodi:nodetypes="cccc"
           inkscape:connector-curvature="0"
           id="path66"
           d="m 3810.4876,-2452.6711 c 1.033,-3.5102 6.3777,-29.0326 6.0998,-29.4823 -0.455,-0.7361 -19.2153,-12.0301 -19.9937,-12.0301 2.6301,7.6107 9.3566,29.4383 13.8939,41.5124 z"
           style="display:inline;opacity:1;fill:#000000;fill-opacity:1;stroke:none;stroke-width:3.87260056;stroke-linecap:round;stroke-linejoin:round;stroke-miterlimit:4;stroke-dasharray:none;stroke-opacity:1" />
        <g
           id="g78"
           transform="matrix(6.4079269,0,0,-6.4079269,4650.9707,-947.18212)"
           style="fill:#ffffff">
          <g
             transform="translate(-166.24164,19.250441)"
             id="g76"
             style="fill:#ffffff">
            <g
               id="g74"
               transform="matrix(0.26458333,0,0,0.26458333,28.213456,210.51905)"
               style="fill:#ffffff">
              <path
                 id="path68"
                 d="M 16.1,0 4.8,15.5 0,38.3 16.1,48 32.2,38.3 27.4,15.4 Z M 7.4,15.9 16.1,4 24.8,15.9 16.1,42 Z M 26,19.8 29.6,37.2 17.8,44.3 Z M 2.6,37.2 6.2,19.8 14.4,44.3 Z"
                 class="st0"
                 inkscape:connector-curvature="0"
                 style="fill:#ffffff" />
              <g
                 id="g70"
                 class="st1"
                 style="fill:#ffffff;enable-background:new" />
              <g
                 id="g72"
                 class="st1"
                 style="fill:#ffffff;enable-background:new" />
            </g>
          </g>
        </g>
      </g>
    </g>
  </g>
</svg>
