<?xml version="1.0" standalone="no"?>
<!DOCTYPE svg PUBLIC "-//W3C//DTD SVG 20010904//EN"
 "http://www.w3.org/TR/2001/REC-SVG-20010904/DTD/svg10.dtd">
<svg version="1.0" xmlns="http://www.w3.org/2000/svg"
 width="256.000000pt" height="256.000000pt" viewBox="0 0 256.000000 256.000000"
 preserveAspectRatio="xMidYMid meet">

<g transform="translate(0.000000,256.000000) scale(0.100000,-0.100000)"
fill="#000000" stroke="none">
<path d="M0 1280 l0 -1280 1280 0 1280 0 0 1280 0 1280 -1280 0 -1280 0 0
-1280z m1511 1200 l45 -11 -10 -45 c-10 -40 -13 -44 -34 -39 -106 26 -277 31
-412 11 -52 -8 -95 -14 -95 -13 -7 16 -24 82 -21 84 1 2 34 10 72 17 81 17
381 15 455 -4z m465 -199 c96 -68 182 -149 254 -237 60 -75 102 -143 80 -129
-6 3 -26 -2 -44 -13 l-34 -20 -40 57 c-65 92 -138 167 -237 241 l-93 70 16 40
c9 22 20 40 23 40 3 0 37 -22 75 -49z m-1318 0 l21 -39 -55 -36 c-79 -53 -192
-163 -259 -254 l-58 -78 -35 17 c-19 10 -39 16 -44 13 -20 -12 24 57 80 128
70 88 179 191 259 246 32 23 61 41 64 41 4 1 16 -17 27 -38z m796 -416 l175
-245 51 -222 c28 -123 69 -299 90 -393 31 -133 37 -172 27 -181 -6 -6 -126
-80 -265 -164 -162 -97 -260 -150 -271 -147 -20 5 -497 292 -518 311 -13 11
-5 50 127 625 l40 173 122 172 c179 252 227 316 238 316 5 0 88 -110 184 -245z
m1027 -375 c17 -96 17 -335 0 -423 -11 -57 -16 -67 -30 -61 -9 4 -29 9 -44 12
-26 4 -28 7 -23 36 27 130 25 366 -4 466 -14 49 -13 50 18 50 15 0 34 5 42 10
20 12 25 1 41 -90z m-2338 63 c25 -5 28 -9 23 -32 -21 -95 -29 -256 -18 -358
7 -60 15 -117 18 -129 5 -17 0 -22 -23 -27 -15 -3 -35 -8 -45 -12 -49 -19 -64
375 -21 553 4 16 10 21 22 17 9 -4 29 -9 44 -12z m2168 -927 c-52 -82 -111
-153 -191 -230 -78 -75 -196 -165 -203 -155 -1 2 -10 21 -19 41 l-17 36 57 43
c91 68 189 167 253 255 l59 81 40 -20 40 -19 -19 -32z m-1953 -13 c71 -95 162
-186 255 -254 44 -33 76 -59 71 -59 -6 0 -16 -16 -23 -35 -7 -19 -16 -35 -21
-35 -17 0 -177 125 -235 184 -67 68 -144 165 -168 211 -15 30 -14 31 5 32 12
1 26 7 31 12 20 20 34 11 85 -56z m1203 -477 l16 -44 -42 -11 c-82 -20 -240
-33 -335 -26 -120 8 -240 34 -217 46 8 5 18 23 22 39 7 34 12 35 100 20 111
-19 330 -9 435 19 3 0 12 -19 21 -43z"/>
<path d="M1106 1799 c-71 -101 -131 -190 -133 -198 -2 -9 11 -62 29 -118 l33
-102 103 179 103 179 -3 122 -3 121 -129 -183z"/>
<path d="M1300 1860 l0 -124 96 -168 c53 -93 100 -171 104 -173 5 -3 11 3 14
12 2 10 17 57 31 106 l26 87 -22 33 c-43 60 -242 342 -245 346 -2 2 -4 -51 -4
-119z"/>
<path d="M1161 1489 l-103 -180 103 -335 c56 -184 106 -331 110 -327 6 6 121
369 195 615 l14 47 -96 168 c-53 92 -102 173 -108 180 -8 9 -36 -32 -115 -168z"/>
<path d="M891 1292 c-25 -108 -46 -208 -48 -222 -4 -22 39 45 129 200 l26 45
-25 80 c-14 44 -28 83 -31 87 -4 4 -27 -82 -51 -190z"/>
<path d="M1568 1402 l-27 -87 76 -132 c42 -73 78 -131 80 -129 5 5 -88 419
-96 428 -4 4 -19 -32 -33 -80z"/>
<path d="M910 1053 c-58 -101 -106 -188 -108 -192 -3 -8 408 -264 414 -258 1
1 -22 81 -53 177 -30 96 -73 234 -95 305 -22 72 -43 135 -46 141 -4 7 -54 -71
-112 -173z"/>
<path d="M1501 1188 c-13 -43 -84 -272 -147 -472 -19 -60 -33 -110 -31 -112 3
-3 402 237 414 249 5 6 -208 377 -217 377 -4 0 -12 -19 -19 -42z"/>
</g>
</svg>
