<svg id="图层_1" data-name="图层 1" xmlns="http://www.w3.org/2000/svg" xmlns:xlink="http://www.w3.org/1999/xlink" viewBox="0 0 739.17 802"><defs><style>.cls-1{font-size:135.68px;fill:#1f74c1;font-family:HelveticaNeue-Medium, Helvetica Neue;}.cls-2{fill:url(#未命名的渐变_6);}</style><linearGradient id="未命名的渐变_6" x1="776.81" y1="148.28" x2="262.03" y2="632.42" gradientUnits="userSpaceOnUse"><stop offset="0" stop-color="#2f85f6"/><stop offset="1" stop-color="#2fcbcb"/></linearGradient></defs><title>未标题-1</title><g id="_编组_" data-name="&lt;编组&gt;"><text class="cls-1" transform="translate(0 763.06)">EOS Pacific</text></g><path id="_复合路径_" data-name="&lt;复合路径&gt;" class="cls-2" d="M736.24,535,518.11,659.84V592.41H493.34v67.44L288.51,542.65l95.12-50.57,113.66,66.84,123.29-72.5,53,30.94L686.11,496,624.51,460V377.36H599.74v92.58L518.1,518V410.42L773.57,264.25,505.72,111,250.43,257.07V549.4L505.72,695.47,761,549.4V347.53H736.24ZM493.33,414.54V527.85l-94-55.27V360.83ZM502.12,391l-82.84-47.34,86.49-52.07,82.88,49.9Zm111.15-63.6-95.16-57.3V146.63L723.69,264.25ZM493.34,146.62V270.19l-98.7,59.42L336,296.08l-12.29,21.51,50.91,29.09V468.84l-99.39,52.83V271.43Z" transform="translate(-142.41 -111)"/></svg>