<?xml version="1.0" standalone="no"?>
<!DOCTYPE svg PUBLIC "-//W3C//DTD SVG 20010904//EN"
 "http://www.w3.org/TR/2001/REC-SVG-20010904/DTD/svg10.dtd">
<svg version="1.0" xmlns="http://www.w3.org/2000/svg"
 width="1024.000000pt" height="1024.000000pt" viewBox="0 0 1024.000000 1024.000000"
 preserveAspectRatio="xMidYMid meet">
<metadata>
Created by potrace 1.15, written by Peter Selinger 2001-2017
</metadata>
<g transform="translate(0.000000,1024.000000) scale(0.100000,-0.100000)"
fill="#000000" stroke="none">
<path d="M4854 10229 c-948 -46 -1849 -349 -2634 -885 -493 -337 -986 -830
-1324 -1324 -58 -86 -148 -225 -175 -273 -10 -17 -35 -61 -56 -97 -209 -362
-404 -851 -509 -1275 -268 -1080 -175 -2243 260 -3241 58 -135 180 -384 229
-470 188 -327 395 -620 630 -890 116 -134 433 -444 536 -525 24 -19 55 -44 69
-57 90 -82 416 -311 595 -419 156 -93 183 -108 372 -202 1254 -623 2740 -696
4053 -199 176 67 286 116 490 218 699 350 1312 863 1789 1498 333 443 596 949
770 1482 261 803 317 1705 155 2535 -127 651 -379 1271 -741 1824 -89 136
-264 375 -315 431 -13 14 -38 45 -57 69 -76 97 -386 416 -511 525 -108 94
-347 283 -444 350 -819 571 -1715 878 -2707 926 -223 11 -251 11 -475 -1z
m-2505 -3125 c259 -58 492 -245 606 -486 82 -174 93 -292 66 -707 -24 -382 7
-625 108 -836 82 -173 206 -317 321 -375 205 -103 414 -40 595 181 127 154
196 349 260 736 41 246 54 293 106 394 79 152 187 257 344 335 111 54 182 73
305 80 311 18 600 -152 740 -434 42 -85 57 -145 95 -378 61 -366 123 -549 244
-712 171 -230 395 -307 606 -206 154 72 337 332 394 559 48 192 58 442 32 814
-12 162 -12 220 -3 285 29 200 106 358 242 497 182 186 384 271 640 271 351 1
658 -196 806 -516 154 -334 73 -757 -192 -1006 -37 -34 -148 -116 -248 -182
-496 -330 -675 -519 -772 -815 -57 -176 -68 -284 -58 -613 17 -610 14 -643
-77 -825 -90 -180 -222 -314 -392 -399 -344 -171 -754 -108 -1019 156 -165
164 -243 334 -268 583 -42 416 -85 613 -176 801 -89 185 -281 363 -443 410
-80 24 -199 15 -275 -19 -77 -35 -182 -114 -246 -184 -187 -204 -261 -430
-315 -963 -17 -163 -23 -197 -57 -295 -30 -88 -59 -142 -125 -230 -201 -271
-531 -400 -868 -341 -260 46 -486 208 -614 440 -92 168 -117 281 -107 490 16
352 18 635 7 735 -32 272 -125 472 -309 663 -138 143 -283 254 -637 484 -111
72 -230 203 -297 324 -95 175 -127 422 -79 625 110 468 587 764 1060 659z"/>
</g>
</svg>
