<?xml version="1.0" standalone="no"?>
<!DOCTYPE svg PUBLIC "-//W3C//DTD SVG 20010904//EN"
 "http://www.w3.org/TR/2001/REC-SVG-20010904/DTD/svg10.dtd">
<svg version="1.0" xmlns="http://www.w3.org/2000/svg"
 width="1417.000000pt" height="591.000000pt" viewBox="0 0 1417.000000 591.000000"
 preserveAspectRatio="xMidYMid meet">
<metadata>
Created by potrace 1.15, written by Peter Selinger 2001-2017
</metadata>
<g transform="translate(0.000000,591.000000) scale(0.100000,-0.100000)"
fill="#000000" stroke="none">
<path d="M7877 4399 c-75 -18 -144 -63 -182 -121 -49 -73 -55 -126 -55 -455
l0 -303 -55 0 -55 0 0 -95 0 -95 55 0 55 0 0 -475 0 -475 100 0 100 0 0 475 0
475 145 0 145 0 0 95 0 95 -145 0 -145 0 0 260 c0 154 5 280 11 312 22 99 91
134 209 104 34 -9 64 -16 66 -16 2 0 4 47 4 104 l0 104 -50 11 c-59 13 -149
13 -203 0z"/>
<path d="M6581 4248 c-10 -24 -193 -439 -406 -923 -213 -484 -394 -895 -402
-912 l-13 -33 118 0 118 0 108 255 108 255 386 -2 387 -3 105 -252 105 -253
118 0 c109 0 119 1 112 18 -41 108 -812 1892 -818 1892 -4 0 -16 -19 -26 -42z
m177 -823 l138 -330 -148 -3 c-81 -1 -215 -1 -297 0 l-149 3 134 315 c173 408
164 390 175 365 5 -11 71 -168 147 -350z"/>
<path d="M9175 4076 c-17 -7 -43 -28 -58 -45 -34 -41 -38 -119 -8 -167 48 -79
161 -84 230 -10 34 36 40 118 12 163 -39 61 -115 87 -176 59z"/>
<path d="M2651 3535 c-159 -45 -287 -164 -351 -325 -33 -84 -53 -223 -46 -323
10 -150 77 -306 168 -394 48 -46 143 -101 218 -125 100 -32 259 -29 363 6 91
31 164 75 226 137 46 46 111 136 111 154 0 5 -12 17 -28 25 -15 9 -52 30 -83
48 l-56 32 -38 -55 c-85 -123 -181 -179 -310 -179 -69 0 -90 4 -147 31 -36 17
-85 50 -108 73 -48 48 -96 144 -105 213 l-7 47 447 0 448 0 -5 103 c-12 249
-137 437 -345 517 -76 30 -269 38 -352 15z m269 -194 c93 -35 161 -107 200
-210 l20 -51 -334 0 -335 0 8 28 c27 93 122 195 214 231 68 26 161 27 227 2z"/>
<path d="M3958 3534 c-206 -49 -385 -231 -434 -440 -22 -96 -15 -265 16 -353
49 -138 162 -266 292 -332 137 -69 316 -83 464 -35 380 122 535 586 308 919
-83 121 -205 205 -349 242 -73 18 -220 18 -297 -1z m306 -202 c175 -79 273
-275 232 -469 -19 -91 -46 -144 -108 -210 -86 -90 -219 -136 -338 -115 -164
29 -283 138 -324 297 -58 219 60 443 267 511 64 21 210 13 271 -14z"/>
<path d="M5173 3536 c-92 -29 -179 -110 -207 -193 -19 -55 -21 -160 -4 -215 6
-22 32 -62 56 -89 44 -49 64 -60 294 -168 81 -38 123 -78 139 -132 25 -81 -33
-175 -122 -199 -96 -26 -197 24 -250 125 -13 25 -29 45 -35 45 -15 0 -156 -59
-167 -70 -15 -14 46 -122 98 -175 197 -202 567 -139 666 113 34 87 32 209 -5
285 -44 91 -117 141 -327 227 -138 56 -192 126 -154 199 49 95 184 93 247 -4
13 -19 27 -35 32 -35 8 0 152 75 164 85 9 8 -36 75 -82 120 -86 86 -222 118
-343 81z"/>
<path d="M8613 3531 c-23 -11 -62 -41 -87 -67 l-46 -48 0 52 0 52 -105 0 -105
0 0 -570 0 -570 104 0 105 0 3 388 c3 377 4 388 26 445 42 103 96 147 184 147
30 0 55 -8 80 -25 l36 -24 15 22 c8 12 31 55 51 95 l37 73 -48 22 c-68 31
-193 35 -250 8z"/>
<path d="M10067 3535 c-122 -31 -254 -115 -326 -208 -81 -106 -119 -207 -127
-342 -22 -354 237 -634 591 -638 121 -1 184 12 293 64 l82 40 0 141 0 141 -69
-67 c-41 -38 -92 -77 -124 -91 -238 -109 -486 8 -552 260 -52 201 42 408 223
493 50 24 69 27 157 27 92 0 105 -3 168 -32 46 -22 88 -53 128 -93 32 -33 61
-60 64 -60 3 0 5 61 5 135 l0 134 -46 27 c-96 57 -170 77 -294 80 -78 2 -134
-1 -173 -11z"/>
<path d="M11181 3534 c-143 -38 -262 -138 -330 -276 -144 -292 -63 -665 180
-827 87 -58 173 -83 289 -84 150 -1 252 37 352 131 l48 45 0 -72 0 -71 100 0
100 0 0 570 0 570 -100 0 -100 0 0 -76 0 -77 -53 51 c-59 55 -135 98 -212 118
-65 18 -205 17 -274 -2z m330 -206 c195 -89 274 -363 170 -585 -105 -223 -385
-279 -565 -113 -87 81 -131 208 -124 360 6 132 64 242 164 311 72 49 109 59
209 56 72 -2 101 -8 146 -29z"/>
<path d="M9130 2950 l0 -570 100 0 100 0 0 570 0 570 -100 0 -100 0 0 -570z"/>
<path d="M2250 1680 l0 -460 4840 0 4840 0 0 460 0 460 -4840 0 -4840 0 0
-460z m6390 401 l175 -1 118 -147 119 -148 -79 -3 c-43 -2 -106 0 -140 3 l-63
7 0 127 0 127 -695 1 -695 1 0 -130 0 -129 -284 3 c-156 2 -288 6 -292 10 -4
4 -9 61 -12 126 l-5 118 -688 1 -689 1 0 -129 c0 -152 12 -141 -151 -137
l-106 3 114 148 114 147 756 -2 755 -3 20 -52 c25 -68 86 -129 137 -138 73
-12 166 51 212 144 l24 50 275 3 c260 3 690 3 1080 -1z m-3645 -145 c63 -79
115 -147 115 -150 0 -8 -165 -8 -223 0 l-46 7 -3 128 -3 129 -690 0 -690 0 -3
-134 -3 -134 -31 -6 c-39 -8 -142 -8 -190 0 l-38 7 0 148 0 149 845 0 845 0
115 -144z m60 49 c39 -52 72 -94 75 -94 3 0 37 42 75 94 51 69 76 94 93 95 12
0 22 -3 22 -6 0 -5 -150 -204 -175 -232 -9 -10 -30 11 -103 107 -51 66 -92
123 -92 126 0 3 8 5 18 5 10 -1 46 -40 87 -95z m3935 0 c40 -52 76 -93 80 -90
4 2 38 45 76 95 52 68 74 90 92 90 28 0 31 6 -79 -137 l-88 -113 -67 88 c-37
48 -81 104 -97 125 -26 34 -27 37 -9 37 14 0 44 -31 92 -95z m2000 -57 l0
-153 -114 3 -113 3 -7 61 c-3 34 -6 93 -6 132 l0 72 -690 1 -690 1 0 -128 0
-129 -52 -6 c-29 -3 -93 -5 -141 -3 l-88 3 63 80 c35 45 87 111 116 148 l52
67 835 0 835 0 0 -152z m-8255 103 c20 -22 45 -52 57 -67 l22 -27 -38 -33
c-64 -56 -133 -55 -186 1 l-22 24 62 70 c35 39 65 71 66 71 2 0 20 -18 39 -39z
m365 -153 c0 -106 -4 -188 -8 -182 -5 5 -82 91 -171 192 l-161 182 170 0 170
0 0 -192z m8248 154 c-18 -22 -88 -100 -155 -175 l-123 -137 0 175 0 175 156
0 156 0 -34 -38z m-7289 -38 c28 -6 8 -19 -257 -171 -158 -91 -293 -167 -300
-170 -10 -4 -13 1 -10 16 2 16 66 61 248 176 135 85 255 154 266 155 12 0 35
-3 53 -6z m5500 -4 l74 0 -98 -66 c-54 -36 -104 -68 -112 -71 -10 -4 -13 12
-13 72 l0 78 38 -7 c20 -3 70 -6 111 -6z m1161 -90 l0 -100 -139 92 -139 93
91 6 c51 3 113 6 140 7 l47 2 0 -100z m-6172 -64 c258 -163 266 -169 261 -184
-2 -6 -114 53 -249 130 -135 78 -272 156 -305 174 l-60 34 55 0 c54 0 60 -4
298 -154z m1790 52 c108 -56 247 -128 307 -159 61 -31 111 -63 113 -71 2 -11
-22 -26 -80 -51 -46 -19 -146 -63 -223 -97 -285 -126 -347 -150 -387 -150 -32
0 -92 29 -328 158 -159 86 -289 159 -290 162 0 3 134 73 298 157 258 133 303
152 345 153 41 0 74 -14 245 -102z m1462 61 c-41 -22 -141 -76 -221 -120 -80
-43 -149 -79 -153 -79 -3 0 -6 6 -6 13 0 13 50 51 234 179 68 47 71 48 145 48
l76 0 -75 -41z m362 5 c34 -21 108 -63 163 -94 55 -31 116 -66 135 -79 l35
-22 -145 7 c-80 3 -151 7 -157 9 -9 3 -13 25 -13 65 l0 60 -135 0 -135 0 0
-60 0 -60 -126 0 c-89 0 -125 3 -122 11 2 7 78 54 168 105 149 85 169 94 216
94 42 0 65 -7 116 -36z m275 -6 c33 -24 113 -79 177 -123 63 -44 116 -86 116
-92 0 -7 -2 -13 -5 -13 -9 0 -109 52 -315 164 l-195 106 80 0 c78 0 82 -1 142
-42z m1333 -9 c-52 -28 -147 -78 -210 -111 -63 -34 -123 -66 -132 -72 -23 -14
-36 1 -16 20 8 8 78 60 154 114 l139 99 80 0 80 1 -95 -51z m773 -75 c97 -69
177 -131 177 -139 0 -11 -346 165 -475 241 l-40 24 80 0 80 0 178 -126z m-603
-73 l124 -100 70 51 c39 27 94 66 123 85 l52 35 40 -23 c23 -12 41 -25 41 -28
0 -4 -42 -28 -92 -56 -51 -27 -112 -61 -136 -76 l-43 -27 88 -57 c48 -32 98
-66 111 -76 l23 -18 -29 -15 c-29 -15 -30 -15 -135 59 -57 41 -109 75 -113 75
-5 0 -56 -38 -113 -84 l-105 -84 -33 16 c-18 9 -33 18 -33 22 0 3 52 39 114
80 63 41 115 78 115 81 1 9 -65 50 -197 123 -57 32 -102 59 -100 61 6 6 93 55
98 55 3 0 61 -45 130 -99z m1577 35 c1 -1 -14 -42 -34 -90 l-37 -87 19 -32
c10 -18 33 -55 52 -83 18 -28 33 -54 33 -57 0 -6 -241 2 -248 8 -2 1 15 40 38
85 l40 83 -25 69 c-14 38 -25 79 -25 92 0 22 2 22 93 18 50 -2 93 -5 94 -6z
m-6864 -164 l78 -45 -117 -49 -116 -48 -26 20 c-32 25 -72 80 -72 97 0 23 31
63 69 89 l35 24 36 -21 c19 -12 70 -42 113 -67z m-813 38 c22 -22 40 -48 40
-59 0 -20 -62 -107 -82 -113 -9 -3 -221 75 -236 87 -6 5 205 124 221 124 9 1
35 -17 57 -39z m-390 -60 l0 -70 -130 0 -130 0 0 65 0 64 103 4 c56 1 114 4
130 5 l27 2 0 -70z m8394 -359 c-3 -3 -80 -7 -171 -9 l-166 -3 39 44 c22 25
98 112 169 195 l130 151 3 -186 c1 -102 0 -189 -4 -192z m-3112 324 c0 -9
-104 -86 -272 -201 -63 -43 -66 -44 -145 -44 l-80 0 65 36 c36 19 119 64 185
99 66 35 145 78 175 94 55 31 71 34 72 16z m1988 3 c0 -7 -42 -42 -93 -77 -50
-36 -127 -89 -169 -118 l-77 -54 -77 3 -77 3 74 40 c234 125 405 214 412 215
4 0 7 -6 7 -12z m-8272 -148 c31 -36 84 -94 119 -130 l63 -65 -150 3 -150 3 0
171 0 171 31 -44 c18 -24 57 -73 87 -109z m5165 51 c100 -54 205 -110 232
-124 l50 -26 -80 0 -80 0 -155 107 c-85 59 -156 115 -158 125 -2 9 -1 17 3 17
3 0 88 -44 188 -99z m2043 -30 l229 -121 -81 0 -81 0 -161 113 c-89 61 -162
118 -162 126 0 18 -6 20 256 -118z m-5976 28 c102 -38 229 -87 284 -107 l98
-37 -69 -3 c-65 -3 -75 0 -203 58 -74 34 -172 78 -217 98 -46 20 -83 42 -83
49 0 7 1 13 3 13 1 0 85 -32 187 -71z m1127 54 c2 -6 -38 -29 -89 -51 -51 -22
-148 -66 -216 -97 -118 -54 -125 -56 -197 -53 l-74 3 222 84 c122 46 247 94
277 107 58 23 71 25 77 7z m3494 -98 c-243 -139 -228 -138 -450 -12 l-162 92
102 3 c57 1 109 0 116 -2 8 -4 13 -23 13 -56 l0 -50 103 0 c56 0 112 -3 125
-6 21 -6 22 -4 22 59 l0 66 93 4 c50 1 121 4 157 5 l65 2 -184 -105z m-921
-35 l0 -120 283 0 c155 0 468 -3 695 -7 l412 -6 0 116 c0 138 -11 129 156 125
l112 -3 -105 -132 -105 -133 -757 0 -756 0 -29 55 c-53 102 -137 156 -219 141
-54 -10 -123 -93 -141 -168 l-6 -28 -773 0 -772 1 -31 42 c-17 23 -64 84 -103
135 l-72 92 121 0 120 0 0 -115 0 -115 283 0 c155 0 468 -3 695 -7 l412 -6 0
121 c0 117 1 121 23 125 12 2 142 5 290 6 l267 1 0 -120z m-2289 93 c-6 -10
-52 -70 -103 -133 l-93 -115 -853 -3 -852 -2 0 115 0 115 130 0 130 0 0 -90
c0 -63 4 -92 13 -95 6 -3 319 -6 695 -7 l682 -3 0 111 c0 61 3 114 7 117 3 4
62 7 130 7 115 0 123 -1 114 -17z m4279 -98 l0 -115 283 0 c155 0 468 -3 695
-7 l412 -6 0 121 0 122 115 0 115 0 0 -135 0 -135 -838 0 -839 0 -94 123 c-53
67 -99 128 -103 135 -6 9 22 12 123 12 l131 0 0 -115z m1350 20 l0 -85 -132 0
-132 0 128 85 c71 47 130 85 132 85 2 0 4 -38 4 -85z m-1160 -22 l95 -63 -123
0 -122 0 0 81 0 81 28 -18 c15 -9 70 -46 122 -81z m-4339 -20 c45 -60 87 -114
92 -120 7 -10 3 -13 -14 -13 -18 0 -40 21 -93 91 l-70 92 -33 -39 c-18 -21
-50 -63 -70 -91 -22 -30 -46 -53 -56 -53 -10 0 -17 4 -15 9 3 8 171 230 175
231 1 0 39 -48 84 -107z m3900 47 c142 -181 141 -180 115 -180 -20 0 -40 19
-93 90 -37 49 -70 89 -73 89 -3 0 -36 -40 -73 -89 -47 -62 -75 -90 -89 -90
-15 0 -18 3 -11 13 6 6 47 61 93 120 45 60 86 105 89 100 4 -4 23 -28 42 -53z
m-6383 36 c42 -22 85 -72 76 -88 -19 -31 -109 -128 -120 -128 -12 0 -144 137
-144 148 1 11 23 36 54 60 33 26 93 29 134 8z"/>
<path d="M5970 1857 c-98 -44 -288 -147 -327 -177 -23 -18 -22 -18 60 -66 105
-62 348 -184 366 -184 40 0 461 227 461 249 0 13 -418 221 -443 221 -12 0 -65
-19 -117 -43z m314 -93 c83 -42 155 -80 159 -84 5 -4 -23 -27 -63 -50 -84 -49
-290 -150 -306 -150 -25 0 -163 65 -262 123 -82 49 -100 63 -90 73 19 18 198
112 286 150 88 38 66 43 276 -62z"/>
</g>
</svg>
