<?xml version="1.0" encoding="utf-8"?>
<!-- Generator: Adobe Illustrator 21.0.0, SVG Export Plug-In . SVG Version: 6.00 Build 0)  -->
<svg version="1.1" id="图层_1" xmlns="http://www.w3.org/2000/svg" xmlns:xlink="http://www.w3.org/1999/xlink" x="0px" y="0px"
	 viewBox="0 0 256 256" style="enable-background:new 0 0 256 256;" xml:space="preserve">
<style type="text/css">
	.st0{fill-rule:evenodd;clip-rule:evenodd;fill:#EB6519;}
	.st1{fill:#FFFFFF;}
</style>
<rect x="-2" y="-1" width="260" height="259"/>
<path class="st0" d="M140.5,197.6h-27.9l-22.1-69.9l36-61l36,61L140.5,197.6z"/>
<path class="st1" d="M207.4,197.2L207.4,197.2L207.4,197.2L207.4,197.2l-29.6-114l-0.4,1.3l0.4-1.2L126.3,9l0,0l0,0L75.4,83.3
	l-29.2,114l0.1,0H46l80.6,49.7l0,0l0,0l0,0l0,0L207.4,197.2l-3.3,0.1L207.4,197.2L207.4,197.2z M160.7,128l-21.4,67.9h-25.4
	L92.4,128l34.1-57.8L160.7,128z M88.6,134.3l19.4,61.5H53.8L88.6,134.3z M198.2,182l-31.8-55.9l8.9-31L198.2,182z M129,20l44.9,63.9
	l-11.1,36.6L129,64V20z M124.1,20v44l-33.8,56.5L79.2,83.9L124.1,20z M77.6,95.5l8.8,31.3l-19.3,35.8l-11.6,19.2L77.6,95.5z
	 M61.6,200.8h48.3l11.8,37.5L61.6,200.8z M115.7,200.8h22.6L127,236.7L115.7,200.8z M131.8,238.4l13-37.6h47.4L131.8,238.4z
	 M145.1,195.9l19.4-61.5l34.8,61.5H145.1z"/>
</svg>
