<?xml version="1.0" encoding="utf-8"?>
<!-- Generator: Adobe Illustrator 19.0.0, SVG Export Plug-In . SVG Version: 6.00 Build 0)  -->
<svg version="1.1" id="图层_1" xmlns="http://www.w3.org/2000/svg" xmlns:xlink="http://www.w3.org/1999/xlink" x="0px" y="0px"
	 viewBox="0 0 1899.2 765.3" style="enable-background:new 0 0 1899.2 765.3;" xml:space="preserve">
<style type="text/css">
	.st0{fill:#433F52;}
	.st1{clip-path:url(#XMLID_2_);}
	.st2{fill:#E75D61;}
	.st3{fill:#F08E74;}
	.st4{fill:#E73260;}
	.st5{fill:#E95175;}
	.st6{fill:#EB6760;}
	.st7{fill:#EA5A6C;}
	.st8{fill:url(#XMLID_3_);}
	.st9{fill:url(#XMLID_4_);}
	.st10{fill:#C0337C;}
	.st11{fill:#A92481;}
	.st12{fill:#F8C08D;}
	.st13{fill:#EF8669;}
	.st14{fill:#F5AE87;}
	.st15{fill:#EE7E6D;}
	.st16{fill:#DC9697;}
	.st17{fill:#ECB29E;}
	.st18{fill:#F6BFA7;}
	.st19{fill:#D8B4AB;}
	.st20{fill:#F6B48D;}
	.st21{fill:url(#XMLID_5_);}
	.st22{fill:#F29C6C;}
	.st23{fill:url(#XMLID_6_);}
	.st24{fill:#863275;}
	.st25{fill:url(#XMLID_7_);}
	.st26{fill:#5D77BA;}
	.st27{fill:#322452;}
	.st28{fill:#C83C7D;}
	.st29{fill:url(#XMLID_8_);}
	.st30{fill:#932C8C;}
	.st31{fill:#343485;}
	.st32{fill:url(#XMLID_9_);}
	.st33{fill:url(#XMLID_10_);}
	.st34{fill:#651B81;}
	.st35{fill:url(#XMLID_11_);}
	.st36{fill:#C3AFB9;}
	.st37{opacity:0.8;fill:url(#XMLID_12_);}
	.st38{fill:#DF2D5F;}
	.st39{fill:#46247D;}
	.st40{fill:url(#XMLID_13_);}
	.st41{fill:#455CA3;}
	.st42{opacity:0.8;fill:url(#XMLID_14_);}
	.st43{opacity:0.3;fill:url(#XMLID_17_);}
	.st44{fill:url(#XMLID_20_);}
	.st45{fill:url(#XMLID_23_);}
</style>
<g id="XMLID_4040_">
	<g id="XMLID_4041_">
		<g id="XMLID_4042_">
			<g id="XMLID_4045_">
				<path id="XMLID_4120_" class="st0" d="M781.4,457.8c-0.2,0.2-0.3,0.4-0.3,0.7h-0.7l-0.3-8.2l0.1-0.2h0.5
					c0.7,1.6,1.6,2.9,2.7,3.9c1.1,1,2.3,1.7,3.6,2.1c1.3,0.4,2.6,0.6,3.9,0.5c1.3-0.1,2.5-0.4,3.6-1c1.1-0.6,1.9-1.3,2.6-2.3
					c0.7-1,1-2.2,1-3.5c0-1.6-0.4-2.9-1.3-4c-0.9-1.1-2-2.1-3.3-2.9c-1.3-0.9-2.7-1.7-4.3-2.5c-1.5-0.8-3-1.7-4.3-2.7
					c-1.3-1-2.4-2.1-3.3-3.5c-0.9-1.3-1.3-3-1.3-5c0-1.5,0.3-2.8,0.9-3.9c0.6-1.1,1.4-2.1,2.4-2.9c1-0.8,2.2-1.4,3.4-1.9
					c1.3-0.4,2.6-0.6,3.9-0.6c0.8,0,1.6,0.1,2.3,0.2c0.8,0.1,1.5,0.3,2.3,0.5c0.1,0,0.3,0.1,0.6,0.2c0.3,0.1,0.7,0.2,1.1,0.3
					c0.4,0.1,0.8,0.2,1.1,0.3c0.3,0.1,0.5,0.1,0.6,0.1c0.6-0.1,1-0.4,1.1-1.1h0.6c0.1,1.4,0.3,2.8,0.4,4.3c0.1,1.5,0.2,2.9,0.1,4.3
					h-0.6c-0.5-1.4-1.2-2.6-2.2-3.5c-1-0.9-2-1.6-3.2-2.1c-1.2-0.5-2.4-0.7-3.7-0.7c-1.2,0-2.4,0.2-3.4,0.7c-1,0.4-1.9,1.1-2.5,2
					c-0.7,0.9-1,2-1,3.3c0,1,0.3,1.9,0.8,2.7c0.5,0.8,1.2,1.5,1.9,2.1c1,0.8,2,1.5,3.1,2.2c1.1,0.7,2.2,1.3,3.3,1.9l-0.4-0.2
					c1.2,0.6,2.4,1.3,3.6,2.1c1.1,0.7,2.2,1.6,3.1,2.5c0.9,0.9,1.6,2,2.1,3.2c0.5,1.2,0.8,2.5,0.8,4.1c0,1.6-0.4,3-1.1,4.3
					c-0.7,1.3-1.6,2.3-2.8,3.2c-1.1,0.9-2.4,1.5-3.8,2c-1.4,0.4-2.9,0.7-4.3,0.7c-1.6,0-3.1-0.2-4.5-0.6c-1.4-0.4-2.9-0.8-4.4-1.2
					C781.8,457.5,781.6,457.6,781.4,457.8z"/>
				<path id="XMLID_4118_" class="st0" d="M832.1,458.5V458c0.6,0,1.1,0,1.5-0.1c0.4-0.1,0.7-0.2,0.8-0.4c0.2-0.2,0.3-0.5,0.4-0.8
					c0.1-0.4,0.1-0.8,0.1-1.5v-14.7h-18.3v14.7c0,0.6,0,1.1,0.1,1.5c0.1,0.4,0.2,0.6,0.4,0.8c0.2,0.2,0.5,0.3,0.8,0.4
					c0.4,0.1,0.8,0.1,1.4,0.1v0.6h-10.2V458c0.6,0,1.1,0,1.5-0.1c0.4-0.1,0.7-0.2,0.8-0.4c0.2-0.2,0.3-0.5,0.4-0.8
					c0.1-0.4,0.1-0.8,0.1-1.5v-31.3c0-0.6,0-1.1-0.1-1.5c-0.1-0.4-0.2-0.6-0.4-0.8c-0.2-0.2-0.5-0.3-0.8-0.4
					c-0.4-0.1-0.9-0.1-1.5-0.1v-0.6h10.2v0.6c-0.6,0-1.1,0-1.4,0.1c-0.4,0.1-0.6,0.2-0.8,0.4c-0.2,0.2-0.3,0.5-0.4,0.8
					c-0.1,0.4-0.1,0.9-0.1,1.5v13.8h18.3v-13.8c0-0.6,0-1.1-0.1-1.5c-0.1-0.4-0.2-0.6-0.4-0.8c-0.2-0.2-0.5-0.3-0.8-0.4
					c-0.4-0.1-0.9-0.1-1.5-0.1v-0.6h10.3v0.6c-0.6,0-1.1,0-1.4,0.1c-0.4,0.1-0.6,0.2-0.8,0.4c-0.2,0.2-0.3,0.5-0.4,0.8
					c-0.1,0.4-0.1,0.9-0.1,1.5v31.3c0,0.6,0,1.1,0.1,1.5c0.1,0.4,0.2,0.6,0.4,0.8c0.2,0.2,0.5,0.3,0.8,0.4c0.4,0.1,0.8,0.1,1.4,0.1
					v0.6H832.1z"/>
				<path id="XMLID_4116_" class="st0" d="M875.5,458.5H850V458c1.2,0,1.9-0.2,2.2-0.5c0.3-0.3,0.4-1.1,0.4-2.3v-31.3
					c0-1.2-0.1-1.9-0.4-2.3c-0.3-0.3-1-0.5-2.2-0.5v-0.6h25l0.1,5.8h-0.8c-0.2-1.4-0.6-2.3-1.3-2.6c-0.7-0.3-1.7-0.5-3-0.5h-11.3
					c-0.6,0-1,0.1-1.1,0.2c-0.1,0.1-0.1,0.5-0.1,1.1v12.8h11.4c0.6,0,1.1,0,1.6-0.1c0.4-0.1,0.8-0.2,1.1-0.4
					c0.3-0.2,0.5-0.5,0.6-0.8c0.1-0.4,0.3-0.9,0.3-1.5h0.7v8.5h-0.7c-0.1-0.7-0.2-1.2-0.3-1.6c-0.1-0.4-0.4-0.7-0.6-0.9
					c-0.3-0.2-0.6-0.3-1.1-0.4c-0.4-0.1-1-0.1-1.6-0.1h-11.4v14.6c0,0.3,0.1,0.6,0.3,0.8c0.2,0.2,0.4,0.3,0.7,0.3c0.3,0,0.6,0,0.9,0
					c0.3,0,0.6,0,0.8,0h9.2c0.9,0,1.7,0,2.3-0.1c0.7-0.1,1.2-0.3,1.8-0.6c0.5-0.3,1-0.7,1.4-1.2c0.4-0.5,0.8-1.2,1.2-2h0.9
					L875.5,458.5z"/>
				<path id="XMLID_4114_" class="st0" d="M906.4,458.5h-25.2V458c0.6,0,1.1,0,1.4-0.1c0.4-0.1,0.6-0.2,0.8-0.4
					c0.2-0.2,0.3-0.5,0.4-0.8c0.1-0.4,0.1-0.8,0.1-1.5v-31.3c0-0.6,0-1.1-0.1-1.5c-0.1-0.4-0.2-0.7-0.4-0.8
					c-0.2-0.2-0.5-0.3-0.8-0.4c-0.4-0.1-0.8-0.1-1.4-0.1v-0.6h10.3v0.6c-0.6,0-1.1,0-1.5,0.1c-0.4,0.1-0.7,0.2-0.9,0.4
					c-0.2,0.2-0.3,0.5-0.4,0.8c-0.1,0.4-0.1,0.8-0.1,1.5v30.8c0,0.3,0.1,0.6,0.3,0.8c0.2,0.2,0.4,0.3,0.7,0.3c0.3,0,0.6,0,0.9,0
					c0.3,0,0.6,0,0.8,0h8.2c1,0,1.9,0,2.7-0.1c0.8-0.1,1.5-0.3,2.1-0.5c0.6-0.3,1.1-0.7,1.6-1.3c0.5-0.6,0.9-1.4,1.4-2.3l0.7,0.2
					L906.4,458.5z"/>
				<path id="XMLID_4112_" class="st0" d="M936.8,458.5h-25.5V458c1.2,0,1.9-0.2,2.2-0.5c0.3-0.3,0.4-1.1,0.4-2.3v-31.3
					c0-1.2-0.1-1.9-0.4-2.3c-0.3-0.3-1-0.5-2.2-0.5v-0.6h25l0.1,5.8h-0.8c-0.2-1.4-0.6-2.3-1.3-2.6c-0.7-0.3-1.7-0.5-3-0.5h-11.3
					c-0.6,0-1,0.1-1.1,0.2c-0.1,0.1-0.1,0.5-0.1,1.1v12.8H930c0.6,0,1.1,0,1.6-0.1c0.4-0.1,0.8-0.2,1.1-0.4c0.3-0.2,0.5-0.5,0.6-0.8
					c0.1-0.4,0.3-0.9,0.3-1.5h0.7v8.5h-0.7c-0.1-0.7-0.2-1.2-0.3-1.6c-0.1-0.4-0.4-0.7-0.6-0.9c-0.3-0.2-0.6-0.3-1.1-0.4
					c-0.4-0.1-1-0.1-1.6-0.1h-11.4v14.6c0,0.3,0.1,0.6,0.3,0.8c0.2,0.2,0.4,0.3,0.7,0.3c0.3,0,0.6,0,0.9,0c0.3,0,0.6,0,0.8,0h9.2
					c0.9,0,1.7,0,2.3-0.1c0.7-0.1,1.2-0.3,1.8-0.6c0.5-0.3,1-0.7,1.4-1.2c0.4-0.5,0.8-1.2,1.2-2h0.9L936.8,458.5z"/>
				<path id="XMLID_4104_" class="st0" d="M969.8,458.5V458c0.9,0,1.5-0.2,1.9-0.5c0.4-0.3,0.4-0.9,0-1.9l-3.5-8.5h-16.8l-3.1,7.8
					c-0.4,1-0.5,1.7-0.4,2.2c0.2,0.5,0.8,0.8,2,0.8v0.6h-7.8V458c0.4,0,0.8-0.2,1.1-0.4c0.3-0.2,0.6-0.5,0.8-0.8
					c0.2-0.3,0.4-0.6,0.6-1c0.2-0.4,0.3-0.7,0.5-1.1l14.3-34.4h3.1l14.9,35.9c0.4,1,1.2,1.6,2.4,1.8v0.6H969.8z M959.9,426.1
					l-7.4,18.2h14.8L959.9,426.1z"/>
				<path id="XMLID_4100_" class="st0" d="M983.9,458c0.6,0,1,0,1.4-0.1c0.4,0,0.7-0.1,0.8-0.3c0.2-0.2,0.3-0.5,0.4-0.8
					c0.1-0.4,0.1-0.9,0.1-1.5v-31.3c0-0.6,0-1.1-0.1-1.5c-0.1-0.4-0.2-0.7-0.4-0.8c-0.2-0.2-0.5-0.3-0.8-0.3c-0.4,0-0.8-0.1-1.4-0.1
					v-0.6h13c3.1,0,5.9,0.4,8.5,1.1c2.6,0.8,4.7,1.9,6.6,3.5c1.8,1.6,3.2,3.5,4.3,5.9c1,2.4,1.5,5.2,1.5,8.5c0,2.7-0.4,5.3-1.3,7.6
					c-0.9,2.4-2.4,4.5-4.5,6.3c-2.2,1.9-4.6,3.2-7.3,3.9c-2.7,0.7-5.4,1.1-8.2,1.1h-12.5V458z M991.4,454.5c0,0.3,0.1,0.6,0.4,0.8
					c0.3,0.2,0.6,0.3,1,0.4c0.4,0.1,0.7,0.1,1.1,0.2c0.4,0,0.7,0,0.8,0c2.7,0,5.2-0.3,7.4-0.9c2.2-0.6,4.1-1.6,5.7-2.9
					c1.6-1.3,2.8-3,3.6-5.1c0.9-2.1,1.3-4.6,1.3-7.5c0-2.8-0.4-5.2-1.2-7.2c-0.8-2-2-3.7-3.5-5.1c-1.5-1.3-3.3-2.3-5.5-3
					c-2.1-0.7-4.5-1-7.2-1c-0.7,0-1.4,0.1-2.1,0.2c-0.7,0.1-1.3,0.4-1.9,0.8V454.5z"/>
				<path id="XMLID_4098_" class="st0" d="M1048.5,458.5H1023V458c1.2,0,1.9-0.2,2.2-0.5c0.3-0.3,0.4-1.1,0.4-2.3v-31.3
					c0-1.2-0.1-1.9-0.4-2.3c-0.3-0.3-1-0.5-2.2-0.5v-0.6h25l0.1,5.8h-0.8c-0.2-1.4-0.6-2.3-1.3-2.6c-0.7-0.3-1.7-0.5-3-0.5h-11.3
					c-0.6,0-1,0.1-1.1,0.2c-0.1,0.1-0.1,0.5-0.1,1.1v12.8h11.4c0.6,0,1.1,0,1.6-0.1c0.4-0.1,0.8-0.2,1.1-0.4
					c0.3-0.2,0.5-0.5,0.6-0.8c0.1-0.4,0.3-0.9,0.3-1.5h0.7v8.5h-0.7c-0.1-0.7-0.2-1.2-0.3-1.6c-0.1-0.4-0.4-0.7-0.6-0.9
					c-0.3-0.2-0.6-0.3-1.1-0.4c-0.4-0.1-1-0.1-1.6-0.1h-11.4v14.6c0,0.3,0.1,0.6,0.3,0.8c0.2,0.2,0.4,0.3,0.7,0.3c0.3,0,0.6,0,0.9,0
					c0.3,0,0.6,0,0.8,0h9.2c0.9,0,1.7,0,2.3-0.1c0.7-0.1,1.2-0.3,1.8-0.6c0.5-0.3,1-0.7,1.4-1.2c0.4-0.5,0.8-1.2,1.2-2h0.9
					L1048.5,458.5z"/>
				<path id="XMLID_4051_" class="st0" d="M1079,458.5c-0.9-2-1.8-3.8-2.7-5.3c-0.9-1.6-1.9-3.1-2.9-4.5c-1-1.4-2.2-2.7-3.4-4
					c-1.2-1.3-2.6-2.6-4.2-4l-4,0.1v14.4c0,0.6,0,1.1,0.1,1.5c0.1,0.4,0.2,0.7,0.4,0.8c0.2,0.2,0.5,0.3,0.8,0.3
					c0.4,0,0.9,0.1,1.5,0.1v0.6h-10.2V458c0.6,0,1,0,1.4-0.1c0.4-0.1,0.6-0.2,0.8-0.4c0.2-0.2,0.3-0.5,0.4-0.8
					c0.1-0.4,0.1-0.8,0.1-1.5v-31.3c0-0.6,0-1.1-0.1-1.5c-0.1-0.4-0.2-0.7-0.4-0.8c-0.2-0.2-0.5-0.3-0.8-0.4
					c-0.4-0.1-0.8-0.1-1.4-0.1v-0.6h13.4c1.6,0,3.2,0.2,4.7,0.5c1.5,0.4,2.8,0.9,4,1.7c1.2,0.8,2.1,1.8,2.8,3.1c0.7,1.3,1,2.8,1,4.7
					c0,1.4-0.3,2.7-0.8,3.7c-0.5,1.1-1.2,2-2.1,2.7c-0.9,0.7-1.9,1.3-3.1,1.8c-1.2,0.4-2.4,0.8-3.6,1c1.1,0.9,2,1.7,2.6,2.3
					c0.7,0.6,1.3,1.2,1.8,1.8c0.5,0.6,1,1.2,1.5,1.8c0.5,0.6,1.1,1.3,1.7,2.2c0.7,0.9,1.5,2,2.1,3.2c0.7,1.2,1.3,2.3,1.9,3.3
					c0.6,1,1.1,1.9,1.6,2.6c0.5,0.7,1,1.1,1.4,1.1v0.6H1079z M1061.8,438.1h2.7c1.3,0,2.7-0.1,3.9-0.4c1.3-0.2,2.5-0.7,3.5-1.3
					c1-0.6,1.9-1.4,2.5-2.5c0.6-1,1-2.4,1-3.9c0-1.4-0.3-2.5-0.8-3.4c-0.5-0.9-1.2-1.6-2.1-2.1c-0.9-0.5-1.9-0.8-3-1
					c-1.1-0.2-2.3-0.3-3.4-0.3c-0.3,0-0.7,0-1.1,0c-0.4,0-0.8,0-1.2,0.1c-0.4,0-0.8,0.1-1.1,0.3c-0.4,0.1-0.6,0.4-0.9,0.6V438.1z"/>
				<path id="XMLID_4046_" class="st0" d="M1092.6,457.8c-0.2,0.2-0.3,0.4-0.3,0.7h-0.7l-0.3-8.2l0.1-0.2h0.5
					c0.7,1.6,1.6,2.9,2.7,3.9c1.1,1,2.3,1.7,3.6,2.1c1.3,0.4,2.6,0.6,3.9,0.5c1.3-0.1,2.5-0.4,3.6-1c1.1-0.6,1.9-1.3,2.6-2.3
					c0.7-1,1-2.2,1-3.5c0-1.6-0.4-2.9-1.3-4c-0.9-1.1-2-2.1-3.3-2.9c-1.3-0.9-2.7-1.7-4.3-2.5c-1.5-0.8-3-1.7-4.3-2.7
					c-1.3-1-2.4-2.1-3.3-3.5c-0.9-1.3-1.3-3-1.3-5c0-1.5,0.3-2.8,0.9-3.9c0.6-1.1,1.4-2.1,2.4-2.9c1-0.8,2.2-1.4,3.4-1.9
					c1.3-0.4,2.6-0.6,3.9-0.6c0.8,0,1.6,0.1,2.3,0.2c0.8,0.1,1.5,0.3,2.3,0.5c0.1,0,0.3,0.1,0.6,0.2c0.3,0.1,0.7,0.2,1.1,0.3
					c0.4,0.1,0.8,0.2,1.1,0.3c0.3,0.1,0.5,0.1,0.6,0.1c0.6-0.1,1-0.4,1.1-1.1h0.6c0.1,1.4,0.3,2.8,0.4,4.3c0.1,1.5,0.2,2.9,0.1,4.3
					h-0.6c-0.5-1.4-1.2-2.6-2.2-3.5c-1-0.9-2-1.6-3.2-2.1c-1.2-0.5-2.4-0.7-3.7-0.7c-1.2,0-2.4,0.2-3.4,0.7c-1,0.4-1.9,1.1-2.5,2
					c-0.7,0.9-1,2-1,3.3c0,1,0.3,1.9,0.8,2.7c0.5,0.8,1.2,1.5,1.9,2.1c1,0.8,2,1.5,3.1,2.2c1.1,0.7,2.2,1.3,3.3,1.9l-0.4-0.2
					c1.2,0.6,2.4,1.3,3.6,2.1c1.1,0.7,2.2,1.6,3,2.5c0.9,0.9,1.6,2,2.1,3.2c0.5,1.2,0.8,2.5,0.8,4.1c0,1.6-0.4,3-1.1,4.3
					c-0.7,1.3-1.6,2.3-2.8,3.2c-1.1,0.9-2.4,1.5-3.8,2c-1.4,0.4-2.9,0.7-4.3,0.7c-1.6,0-3.1-0.2-4.5-0.6c-1.4-0.4-2.9-0.8-4.4-1.2
					C1093,457.5,1092.8,457.6,1092.6,457.8z"/>
			</g>
		</g>
	</g>
</g>
<g id="XMLID_3970_">
	<g id="XMLID_3996_">
		<defs>
			<path id="XMLID_3997_" d="M982.7,345.8l-11-14.5l0,0c-3.6-8.1-10.2-14.6-18.3-18.2l0-0.1l-14.5-11l-14.5,11l0,0
				c-8.1,3.6-14.7,10.2-18.3,18.3l-0.1,0l-11,14.5l11,14.5l0.1,0c3.6,8.1,10.1,14.7,18.2,18.3l0,0.1l14.5,11l14.5-11l0,0
				c8.1-3.6,14.6-10.2,18.2-18.3l0.1,0L982.7,345.8z M970.8,357.9l-14.6-3.3l22.1-6.8L970.8,357.9z M931.1,359.1l7.8-11.4l7.8,11.4
				l-7.8,25.4L931.1,359.1z M899.3,347.9l22.1,6.8l-14.6,3.3L899.3,347.9z M906.9,333.8l14.6,3.3l-22.1,6.8L906.9,333.8z
				 M946.6,332.5l-7.8,11.4l-7.8-11.4l7.8-25.4L946.6,332.5z M970.8,333.8l7.6,10l-22.1-6.8L970.8,333.8z M952.2,353.6l-11.4-7.8
				l11.4-7.8l25.4,7.8L952.2,353.6z M925.6,353.6l-25.4-7.8l25.4-7.8l11.4,7.8L925.6,353.6z M951.7,335.8l-8.7,5.9l5.7-8.4l3.8-16.5
				c6.8,3.2,12.1,8.6,15.3,15.3L951.7,335.8z M934.7,341.7l-8.4-5.7l-16.5-3.8c3.2-6.8,8.6-12.1,15.3-15.3l3.6,16.1L934.7,341.7z
				 M926,355.9l8.7-5.9l-5.7,8.4l-3.8,16.5c-6.8-3.2-12.1-8.5-15.3-15.3L926,355.9z M943,350l8.4,5.7l16.5,3.8
				c-3.2,6.8-8.6,12.1-15.3,15.3l-3.6-16.1L943,350z M970.4,331.6l-1.9,0.4c-3.3-7-8.8-12.6-15.9-15.9l0.4-1.8
				C960.7,317.8,966.9,324,970.4,331.6z M947.7,328.4l-6.8-22.1l10,7.6L947.7,328.4z M936.8,306.3l-6.8,22.1l-3.3-14.6L936.8,306.3z
				 M924.6,314.3l0.4,1.9c-7,3.3-12.6,8.8-15.9,15.8l-1.8-0.4C910.8,324,917,317.8,924.6,314.3z M907.4,360.1l1.8-0.4
				c3.3,7,8.8,12.6,15.9,15.8l-0.4,1.8C917,373.9,910.9,367.7,907.4,360.1z M930.1,363.2l6.8,22.1l-10-7.6L930.1,363.2z
				 M940.9,385.4l6.8-22.1l3.3,14.6L940.9,385.4z M953.1,377.4l-0.4-1.8c7-3.3,12.6-8.8,15.9-15.9l1.8,0.4
				C966.9,367.7,960.7,373.9,953.1,377.4z"/>
		</defs>
		<clipPath id="XMLID_2_">
			<use xlink:href="#XMLID_3997_"  style="overflow:visible;"/>
		</clipPath>
		<g id="XMLID_4019_" class="st1">
			<polygon id="XMLID_4167_" class="st2" points="1158.4,363.3 1115.2,340.6 1145,414.4 1158.4,391.3 			"/>
			<polygon id="XMLID_4110_" class="st3" points="1158.4,391.3 1145,414.4 1158.4,420.8 			"/>
			<polygon id="XMLID_4109_" class="st4" points="1158.4,299.3 1154,299.3 1158.4,317.6 			"/>
			<polygon id="XMLID_4108_" class="st5" points="1158.4,317.6 1154,299.3 1140.7,299.3 1115.2,340.6 1158.4,363.3 			"/>
			<polygon id="XMLID_4107_" class="st6" points="1056.9,323.6 1115.2,340.6 1089.8,299.3 1066.9,299.3 			"/>
			<polygon id="XMLID_4106_" class="st7" points="1056.9,323.6 1066.9,299.3 1018.7,299.3 			"/>
			
				<linearGradient id="XMLID_3_" gradientUnits="userSpaceOnUse" x1="598.2344" y1="-1523.767" x2="557.9647" y2="-1453.1643" gradientTransform="matrix(0 1 -1 0 -470.3834 -250.3353)">
				<stop  offset="0" style="stop-color:#EB6B80"/>
				<stop  offset="1" style="stop-color:#EF888E"/>
			</linearGradient>
			<polygon id="XMLID_4103_" class="st8" points="1023.7,359.8 1056.9,323.6 1018.7,299.3 999,299.3 			"/>
			
				<linearGradient id="XMLID_4_" gradientUnits="userSpaceOnUse" x1="549.6512" y1="-1471.7092" x2="615.6553" y2="-1471.7092" gradientTransform="matrix(0 1 -1 0 -470.3834 -250.3353)">
				<stop  offset="0" style="stop-color:#E15367"/>
				<stop  offset="1" style="stop-color:#CC3156"/>
			</linearGradient>
			<polygon id="XMLID_4097_" class="st9" points="979,365.3 1023.7,359.8 999,299.3 988.6,299.3 			"/>
			<polygon id="XMLID_4096_" class="st10" points="928.2,348.8 949,318.6 931.6,299.3 899.6,299.3 			"/>
			<polygon id="XMLID_4095_" class="st11" points="893,336.9 928.2,348.8 899.6,299.3 893,299.3 			"/>
			<polygon id="XMLID_4082_" class="st3" points="1089.8,426.4 1115.2,340.6 1145,414.4 			"/>
			<polygon id="XMLID_4081_" class="st12" points="1089.8,426.4 1115.2,340.6 1064.2,377.8 			"/>
			<polygon id="XMLID_4080_" class="st13" points="1056.9,323.6 1115.2,340.6 1064.2,377.8 			"/>
			<polygon id="XMLID_4079_" class="st14" points="1089.8,426.4 1152.4,477.9 1145,414.4 			"/>
			<polygon id="XMLID_4078_" class="st15" points="1158.4,420.8 1145,414.4 1152.4,477.9 1158.4,472.7 			"/>
			<polygon id="XMLID_4077_" class="st16" points="1158.4,472.7 1152.4,477.9 1158.4,479.9 			"/>
			<polygon id="XMLID_4076_" class="st17" points="1158.4,479.9 1152.4,477.9 1147.5,479.9 1158.4,479.9 			"/>
			<polygon id="XMLID_4075_" class="st18" points="1152.4,477.9 1089.8,426.4 1103.5,479.9 1147.5,479.9 			"/>
			<polygon id="XMLID_4074_" class="st19" points="1089.8,426.4 1049.6,443.3 1087,479.9 1103.5,479.9 			"/>
			<polygon id="XMLID_4073_" class="st20" points="1064.2,377.8 1049.6,443.3 1089.8,426.4 			"/>
			
				<linearGradient id="XMLID_5_" gradientUnits="userSpaceOnUse" x1="653.228" y1="-1501.4419" x2="645.4401" y2="-1533.762" gradientTransform="matrix(0 1 -1 0 -470.3834 -250.3353)">
				<stop  offset="0" style="stop-color:#D58143"/>
				<stop  offset="0.1211" style="stop-color:#DB8B4A"/>
				<stop  offset="0.4619" style="stop-color:#E7A35E"/>
				<stop  offset="0.7657" style="stop-color:#EFB26B"/>
				<stop  offset="1" style="stop-color:#F2B770"/>
			</linearGradient>
			<polygon id="XMLID_4072_" class="st21" points="1064.2,377.8 1049.6,443.3 1023.7,359.8 			"/>
			<polygon id="XMLID_4069_" class="st22" points="991.5,429.6 1049.6,443.3 1023.7,359.8 			"/>
			
				<linearGradient id="XMLID_6_" gradientUnits="userSpaceOnUse" x1="648.2367" y1="-1481.5901" x2="616.4026" y2="-1445.9592" gradientTransform="matrix(0 1 -1 0 -470.3834 -250.3353)">
				<stop  offset="0" style="stop-color:#BA3F50"/>
				<stop  offset="0.1863" style="stop-color:#C84856"/>
				<stop  offset="0.5156" style="stop-color:#DB565F"/>
				<stop  offset="0.7984" style="stop-color:#E75F66"/>
				<stop  offset="1" style="stop-color:#EB6269"/>
			</linearGradient>
			<polygon id="XMLID_4068_" class="st23" points="991.5,429.6 979,365.3 1023.7,359.8 			"/>
			<polygon id="XMLID_4065_" class="st24" points="991.5,429.6 928.2,348.8 940.3,423.9 			"/>
			<polygon id="XMLID_4059_" class="st6" points="1064.2,377.8 1056.9,323.6 1023.7,359.8 			"/>
			<g id="XMLID_4053_">
				<g id="XMLID_21_">
					
						<linearGradient id="XMLID_7_" gradientUnits="userSpaceOnUse" x1="716.8159" y1="-1506.8969" x2="691.3007" y2="-1461.8701" gradientTransform="matrix(0 1 -1 0 -470.3834 -250.3353)">
						<stop  offset="0" style="stop-color:#968091"/>
						<stop  offset="0.2876" style="stop-color:#A28B9F"/>
						<stop  offset="0.6071" style="stop-color:#AA92A7"/>
						<stop  offset="1" style="stop-color:#AD94AA"/>
					</linearGradient>
					<polygon id="XMLID_22_" class="st25" points="1049.6,443.3 991.5,429.6 1006.3,479.9 1023,479.9 					"/>
				</g>
			</g>
			<g id="XMLID_4043_">
				<g id="XMLID_18_">
					<polygon id="XMLID_19_" class="st26" points="991.5,429.6 945.1,479.9 1006.3,479.9 					"/>
				</g>
			</g>
			<polygon id="XMLID_4039_" class="st27" points="893,456 904.6,457.7 893,417.8 			"/>
			<polygon id="XMLID_4038_" class="st28" points="949,318.6 964.2,299.3 931.6,299.3 			"/>
			
				<linearGradient id="XMLID_8_" gradientUnits="userSpaceOnUse" x1="617.8052" y1="-1449.0785" x2="584.7072" y2="-1409.7501" gradientTransform="matrix(0 1 -1 0 -470.3834 -250.3353)">
				<stop  offset="0" style="stop-color:#B92E5A"/>
				<stop  offset="1" style="stop-color:#D63B6C"/>
			</linearGradient>
			<polygon id="XMLID_4037_" class="st29" points="928.2,348.8 979,365.3 949,318.6 			"/>
			<polygon id="XMLID_4036_" class="st30" points="893,391 928.2,348.8 893,336.9 			"/>
			<polygon id="XMLID_4035_" class="st31" points="893,479.9 909.6,479.9 904.6,457.7 893,456 			"/>
			
				<linearGradient id="XMLID_9_" gradientUnits="userSpaceOnUse" x1="707.5884" y1="-1407.2257" x2="694.9539" y2="-1379.0027" gradientTransform="matrix(0 1 -1 0 -470.3834 -250.3353)">
				<stop  offset="0" style="stop-color:#305794"/>
				<stop  offset="0.2858" style="stop-color:#335A99"/>
				<stop  offset="0.7052" style="stop-color:#3B61A5"/>
				<stop  offset="1" style="stop-color:#4368B1"/>
			</linearGradient>
			<polygon id="XMLID_4034_" class="st32" points="940.3,423.9 904.6,457.7 909.6,479.9 930.5,479.9 			"/>
			
				<linearGradient id="XMLID_10_" gradientUnits="userSpaceOnUse" x1="582.0224" y1="-1457.5037" x2="582.9957" y2="-1433.5573" gradientTransform="matrix(0 1 -1 0 -470.3834 -250.3353)">
				<stop  offset="0" style="stop-color:#A8264E"/>
				<stop  offset="0.2563" style="stop-color:#BE305B"/>
				<stop  offset="0.5687" style="stop-color:#D43A6A"/>
				<stop  offset="0.8279" style="stop-color:#E14274"/>
				<stop  offset="1" style="stop-color:#E64578"/>
			</linearGradient>
			<polygon id="XMLID_4033_" class="st33" points="949,318.6 979,365.3 988.6,299.3 964.2,299.3 			"/>
			<polygon id="XMLID_4032_" class="st34" points="893,400.8 940.3,423.9 928.2,348.8 893,391 			"/>
			
				<linearGradient id="XMLID_11_" gradientUnits="userSpaceOnUse" x1="610.7252" y1="-1455.4742" x2="651.6118" y2="-1419.6498" gradientTransform="matrix(0 1 -1 0 -470.3834 -250.3353)">
				<stop  offset="0" style="stop-color:#BB4068"/>
				<stop  offset="0.2755" style="stop-color:#B5436F"/>
				<stop  offset="0.7729" style="stop-color:#A24A81"/>
				<stop  offset="1" style="stop-color:#974C8A"/>
			</linearGradient>
			<polygon id="XMLID_4031_" class="st35" points="991.5,429.6 928.2,348.8 979,365.3 			"/>
			<polygon id="XMLID_4030_" class="st36" points="1049.6,443.3 1023,479.9 1087,479.9 			"/>
			
				<linearGradient id="XMLID_12_" gradientUnits="userSpaceOnUse" x1="701.8238" y1="-1524.3917" x2="700.9474" y2="-1513.0745" gradientTransform="matrix(0 1 -1 0 -470.3834 -250.3353)">
				<stop  offset="0" style="stop-color:#A5A0AD"/>
				<stop  offset="0.4382" style="stop-color:#D3CFD5"/>
				<stop  offset="0.8061" style="stop-color:#F3F3F5"/>
				<stop  offset="1" style="stop-color:#FFFFFF"/>
			</linearGradient>
			<polygon id="XMLID_4029_" class="st37" points="1009.4,479.9 1046.6,419.1 1050.5,450.1 1052.4,479.9 			"/>
			<polygon id="XMLID_4028_" class="st38" points="1115.2,340.6 1140.7,299.3 1089.8,299.3 			"/>
			<polygon id="XMLID_4027_" class="st39" points="893,417.8 904.6,457.7 940.3,423.9 893,400.8 			"/>
			
				<linearGradient id="XMLID_13_" gradientUnits="userSpaceOnUse" x1="702.5013" y1="-1381.8716" x2="734.813" y2="-1411.3735" gradientTransform="matrix(0 1 -1 0 -470.3834 -250.3353)">
				<stop  offset="0" style="stop-color:#40548A"/>
				<stop  offset="1" style="stop-color:#526398"/>
			</linearGradient>
			<polygon id="XMLID_4026_" class="st40" points="930.9,479.9 932.6,468.4 930.5,479.9 			"/>
			<polygon id="XMLID_4025_" class="st41" points="991.5,429.6 940.3,423.9 930.5,479.9 945.1,479.9 			"/>
			
				<linearGradient id="XMLID_14_" gradientUnits="userSpaceOnUse" x1="702.0248" y1="-1420.9888" x2="702.4674" y2="-1401.5271" gradientTransform="matrix(0 1 -1 0 -470.3834 -250.3353)">
				<stop  offset="0" style="stop-color:#FFFFFF"/>
				<stop  offset="0.1505" style="stop-color:#FDFDFD"/>
				<stop  offset="0.2917" style="stop-color:#F5F2F5"/>
				<stop  offset="0.4293" style="stop-color:#E7DFE6"/>
				<stop  offset="0.5646" style="stop-color:#D4C6D2"/>
				<stop  offset="0.6982" style="stop-color:#BDA6B9"/>
				<stop  offset="0.8306" style="stop-color:#A17F9C"/>
				<stop  offset="0.9597" style="stop-color:#81567E"/>
				<stop  offset="1" style="stop-color:#774A76"/>
			</linearGradient>
			<polygon id="XMLID_4024_" class="st42" points="944.8,479.9 966.9,455.9 946.9,424.6 940,423.8 932.2,468.3 930.6,479.9 			"/>
			<g id="XMLID_4021_">
				
					<linearGradient id="XMLID_17_" gradientUnits="userSpaceOnUse" x1="620.9888" y1="-1605.338" x2="607.3366" y2="-1614.8485" gradientTransform="matrix(0 1 -1 0 -470.3834 -250.3353)">
					<stop  offset="0" style="stop-color:#FFFFFF"/>
					<stop  offset="0.2048" style="stop-color:#FEFEFE"/>
					<stop  offset="0.3505" style="stop-color:#FAF6F7"/>
					<stop  offset="0.4781" style="stop-color:#F3E8EA"/>
					<stop  offset="0.5951" style="stop-color:#E9D5D8"/>
					<stop  offset="0.705" style="stop-color:#DCBBC1"/>
					<stop  offset="0.8095" style="stop-color:#CD9CA6"/>
					<stop  offset="0.9078" style="stop-color:#BC7988"/>
					<stop  offset="1" style="stop-color:#AA516C"/>
				</linearGradient>
				<polygon id="XMLID_4023_" class="st43" points="1158.3,363.4 1115.3,340.8 1145,414.3 1158.3,391.3 				"/>
				
					<linearGradient id="XMLID_20_" gradientUnits="userSpaceOnUse" x1="676.4406" y1="-1560.9188" x2="681.3119" y2="-1549.0809" gradientTransform="matrix(0 1 -1 0 -470.3834 -250.3353)">
					<stop  offset="0" style="stop-color:#D3A08E"/>
					<stop  offset="3.848135e-02" style="stop-color:#D6A796"/>
					<stop  offset="0.2317" style="stop-color:#E5C7BB"/>
					<stop  offset="0.4259" style="stop-color:#F0E0D9"/>
					<stop  offset="0.6191" style="stop-color:#F9F2EF"/>
					<stop  offset="0.8109" style="stop-color:#FEFDFC"/>
					<stop  offset="1" style="stop-color:#FFFFFF"/>
				</linearGradient>
				<polygon id="XMLID_4022_" class="st44" points="1089.7,426.4 1064.3,378.2 1049.8,443.2 1087,479.6 1103.3,479.6 				"/>
			</g>
			
				<linearGradient id="XMLID_23_" gradientUnits="userSpaceOnUse" x1="596.9725" y1="-1527.6349" x2="576.1072" y2="-1561.3514" gradientTransform="matrix(0 1 -1 0 -470.3834 -250.3353)">
				<stop  offset="0" style="stop-color:#FFFFFF"/>
				<stop  offset="0.406" style="stop-color:#FFFEFE"/>
				<stop  offset="0.5523" style="stop-color:#FDF9F8"/>
				<stop  offset="0.6565" style="stop-color:#F9F0EC"/>
				<stop  offset="0.7408" style="stop-color:#F4E1DB"/>
				<stop  offset="0.8131" style="stop-color:#EDCFC5"/>
				<stop  offset="0.8771" style="stop-color:#E4B7AA"/>
				<stop  offset="0.9348" style="stop-color:#DA9B8C"/>
				<stop  offset="0.9863" style="stop-color:#D07C6C"/>
				<stop  offset="1" style="stop-color:#CC7264"/>
			</linearGradient>
			<polygon id="XMLID_4020_" class="st45" points="1064,383.8 1091,364.4 1076,299.3 1066.9,299.3 1056.2,325.5 			"/>
		</g>
	</g>
</g>
</svg>
