<?xml version="1.0" encoding="utf-8"?>
<!-- Generator: Adobe Illustrator 16.0.0, SVG Export Plug-In . SVG Version: 6.00 Build 0)  -->
<!DOCTYPE svg PUBLIC "-//W3C//DTD SVG 1.1//EN" "http://www.w3.org/Graphics/SVG/1.1/DTD/svg11.dtd">
<svg version="1.1" id="Layer_1" xmlns="http://www.w3.org/2000/svg" xmlns:xlink="http://www.w3.org/1999/xlink" x="0px" y="0px"
	 width="1307.738px" height="1300px" viewBox="147.282 0 1307.738 1300" enable-background="new 147.282 0 1307.738 1300"
	 xml:space="preserve">
<path fill="#8C0000" d="M1309.074,604.663L1016.988,173.51c-3.642-5.373-9.827-8.563-16.208-8.554l-463.518,1.86
	c-6.69,0.027-12.903,3.488-16.447,9.168L252.953,605.277c-3.896,6.245-3.94,14.155-0.113,20.442l267.867,439.971
	c3.532,5.806,9.838,9.35,16.637,9.35h463.516c6.525,0,12.618-3.268,16.232-8.706l292.081-439.971
	C1313.543,619.778,1313.505,611.207,1309.074,604.663z M1259.046,600.283H893.865l-321.06-394.648l393.156-1.577L791.089,426.463
	l19.8,24.342l186.343-236.993L1259.046,600.283z M301.604,630.895H654.32l312.208,405.187H572.345l180.193-227.01l-19.245-24.98
	l-191.524,241.277L301.604,630.895z M997.24,1025.791L681.242,615.685l72.326-91.983l-19.803-24.341l-79.354,100.923H301.989
	l239.783-384.288l325.181,399.711l-74.666,94.062l19.251,24.984l82.441-103.858h365.422L997.24,1025.791z"/>
</svg>
