<?xml version="1.0" encoding="utf-8"?>
<!-- Generator: Adobe Illustrator 22.1.0, SVG Export Plug-In . SVG Version: 6.00 Build 0)  -->
<svg version="1.1" id="图层_1" xmlns="http://www.w3.org/2000/svg" xmlns:xlink="http://www.w3.org/1999/xlink" x="0px" y="0px"
	 viewBox="0 0 200 200" style="enable-background:new 0 0 200 200;" xml:space="preserve">
<style type="text/css">
	.st0{fill:#453E68;}
	.st1{fill:#443F54;}
	.st2{fill-rule:evenodd;clip-rule:evenodd;fill:#1E1412;}
	.st3{font-family:'HelveticaNeue-Thin';}
	.st4{font-size:29.1709px;}
</style>
<g>
	<path class="st0" d="M61.8,58.3L48.6,122c-0.1,0.5,0.1,1,0.5,1.2l43.4,26.1c0.9,0.6,2.1-0.3,1.7-1.4L64,58.2
		C63.7,57,62,57.1,61.8,58.3z"/>
	<path class="st0" d="M138.2,58.3l13.2,63.7c0.1,0.5-0.1,1-0.5,1.2l-43.4,26.1c-0.9,0.6-2.1-0.3-1.7-1.4l30.2-89.9
		C136.3,57,137.9,57.1,138.2,58.3z"/>
	<path class="st1" d="M97.9,8.9L68,49.8c-0.5,0.7-0.6,1.5-0.4,2.3l29.9,89.6c0.8,2.3,4,2.3,4.8,0L132.3,52c0.3-0.8,0.1-1.6-0.4-2.3
		L102,8.9C101,7.5,98.9,7.5,97.9,8.9z"/>
</g>
<g>
	<path class="st2" d="M83.2,171H81l-9.6,21.3h2.4l2.5-5.6h11.5l2.5,5.6h2.6L83.2,171z M77.2,184.5l4.8-10.8l4.8,10.8H77.2z"/>
	<polygon class="st2" points="97,171.2 99.3,171.2 112.6,188.1 112.6,171.2 114.9,171.2 114.9,192.3 113,192.3 99.3,175 99.3,192.3 
		97,192.3 97,171.2 	"/>
	<polygon class="st2" points="126.5,173.4 119.4,173.4 119.4,171.2 136,171.2 136,173.4 128.9,173.4 128.9,192.3 126.5,192.3 
		126.5,173.4 	"/>
	<path class="st2" d="M152,173.6c-0.2-0.6-0.6-1.1-1.1-1.5c-0.5-0.5-1.2-0.7-1.9-0.9c-0.7-0.1-1.7-0.2-3.1-0.2h-5.6v21.3h5.6v-8.6
		h1.5c2,0,3.4-0.5,4.1-1.4c0.5-0.7,0.8-1.9,0.8-3.6v-1.9C152.3,175.3,152.2,174.1,152,173.6z M147.7,178.1c0,0.7-0.1,1.3-0.3,1.5
		c-0.2,0.3-0.5,0.4-1.1,0.4h-0.4v-5.4c0.7,0,1.2,0.1,1.4,0.3c0.2,0.2,0.3,0.7,0.3,1.4V178.1z"/>
	<path class="st2" d="M167,175.8c-0.1-0.9-0.2-1.6-0.5-2.1c-0.5-1-1.2-1.7-2.1-2.1c-0.9-0.4-2.2-0.6-3.7-0.6c-1.5,0-2.8,0.2-3.7,0.6
		c-1,0.4-1.7,1.1-2.1,2.1c-0.2,0.5-0.4,1.2-0.5,2c-0.1,0.8-0.1,2.2-0.1,4.1v3.6c0,1.8,0,3.1,0.1,4c0.1,0.9,0.2,1.6,0.5,2.1
		c0.5,1,1.2,1.7,2.2,2.2c1,0.4,2.2,0.7,3.7,0.7s2.7-0.2,3.7-0.7c1-0.4,1.7-1.2,2.2-2.2c0.2-0.5,0.4-1.2,0.5-2
		c0.1-0.8,0.1-2.2,0.1-4.1v-3.6C167.2,178,167.1,176.7,167,175.8z M161.6,176.4V187c0,1.4-0.3,2.1-0.9,2.1c-0.4,0-0.6-0.2-0.7-0.5
		c-0.1-0.3-0.2-0.7-0.2-1.3v-10.9c0-0.9,0.1-1.6,0.2-1.9c0.1-0.3,0.3-0.5,0.7-0.5c0.4,0,0.6,0.1,0.7,0.4c0.1,0.3,0.1,0.8,0.1,1.4
		V176.4z"/>
	<path class="st2" d="M182.3,175.8c-0.1-0.9-0.2-1.6-0.5-2.1c-0.5-1-1.2-1.7-2.1-2.1c-0.9-0.4-2.2-0.6-3.7-0.6s-2.8,0.2-3.7,0.6
		c-1,0.4-1.7,1.1-2.1,2.1c-0.2,0.5-0.4,1.2-0.5,2c-0.1,0.8-0.1,2.2-0.1,4.1v3.6c0,1.8,0,3.1,0.1,4c0.1,0.9,0.2,1.6,0.5,2.1
		c0.5,1,1.2,1.7,2.2,2.2c1,0.4,2.2,0.7,3.7,0.7s2.7-0.2,3.7-0.7c1-0.4,1.7-1.2,2.2-2.2c0.2-0.5,0.4-1.2,0.5-2
		c0.1-0.8,0.1-2.2,0.1-4.1v-3.6C182.4,178,182.3,176.7,182.3,175.8z M176.8,176.4V187c0,1.4-0.3,2.1-0.9,2.1c-0.4,0-0.6-0.2-0.7-0.5
		c-0.1-0.3-0.2-0.7-0.2-1.3v-10.9c0-0.9,0.1-1.6,0.2-1.9c0.1-0.3,0.3-0.5,0.7-0.5s0.6,0.1,0.7,0.4c0.1,0.3,0.1,0.8,0.1,1.4V176.4z"
		/>
	<polygon class="st2" points="195,192.3 184.4,192.3 184.4,171 190,171 190,188 195,188 195,192.3 	"/>
</g>
<text transform="matrix(1.0026 0 0 1 5.1908 192.3052)" class="st3 st4">EOS</text>
</svg>
