<?xml version="1.0" encoding="UTF-8"?>
<svg width="1000px" height="1000px" viewBox="0 0 1000 1000" version="1.1" xmlns="http://www.w3.org/2000/svg" xmlns:xlink="http://www.w3.org/1999/xlink" style="background: #040B87;">
    <!-- Generator: Sketch 49 (51002) - http://www.bohemiancoding.com/sketch -->
    <title>eosvolga-logo-1000</title>
    <desc>Created with Sketch.</desc>
    <defs></defs>
    <g id="eosvolga-logo-1000" stroke="none" stroke-width="1" fill="none" fill-rule="evenodd">
        <g id="Group" transform="translate(222.000000, 85.000000)" fill="#FFFFFF" fill-rule="nonzero">
            <path d="M278.081911,830 C254.636068,815.652918 231.332321,801.305836 207.886477,787.100804 C140.817156,746.616464 73.7478344,706.274174 6.67851294,665.931884 C4.54707264,664.653431 2.41563234,663.090878 0,661.670375 C7.53108906,625.447544 15.0621781,589.366764 22.7353632,553.285983 C42.48671,459.674825 62.2380568,366.063666 82.1314996,272.452507 C82.8419797,269.3274 84.1208439,266.060243 85.9680921,263.503337 C148.774533,177.278795 211.72307,91.054253 274.529511,4.82971077 C275.666279,3.4092076 276.803047,1.98870443 278.366103,0 C279.92916,1.98870443 281.35012,3.55125792 282.628984,5.1138114 C344.440753,89.2075988 405.968329,173.443437 468.06429,257.253123 C476.021667,267.906897 476.874243,279.981174 479.289876,291.77135 C504.867159,412.65617 530.018155,533.68304 555.595438,654.567859 C556.732207,660.249872 555.595438,662.948828 550.622078,665.789834 C462.522545,718.632552 374.707205,771.61732 286.749769,824.602088 C284.19204,826.164641 281.918504,828.153346 279.502871,829.85795 C278.934487,830 278.508199,830 278.081911,830 Z M307.353691,766.361458 C311.616572,763.804552 314.032204,762.5261 316.447837,761.105596 C379.53847,723.178162 442.487007,685.250727 505.577639,647.607393 C511.545672,644.056136 512.256152,640.788978 510.977288,634.680815 C491.510133,541.495807 472.185075,448.310799 452.860016,354.983741 C452.149536,351.290433 451.012768,347.597125 450.160192,344.045867 C449.733904,344.045867 449.165519,344.187917 448.739231,344.187917 C401.847545,484.249529 354.955858,624.169091 307.353691,766.361458 Z M247.247075,765.083005 C247.673363,764.656854 248.241747,764.230703 248.668035,763.804552 C201.776349,623.74294 154.884662,483.681328 107.992975,343.619716 C106.003631,346.176622 105.293151,348.165326 104.866863,350.15403 C85.257612,445.043642 65.7904573,539.791203 45.8970145,634.680815 C44.4760543,641.215129 45.8970145,644.198186 51.5808553,647.465343 C98.3304459,675.307205 144.795844,703.433168 191.403339,731.41708 C210.017918,742.781106 228.632496,754.003081 247.247075,765.083005 Z" id="Shape"></path>
        </g>
        <polygon id="Path-3" fill="#F22300" points="500.014999 811.031799 570.438153 603.170312 430.341066 603.170312"></polygon>
        <polygon id="Path-3" fill="#040B87" points="353.139227 371.347875 648.41781 369.831637 570.438153 603.170312 430.341066 603.170312"></polygon>
    </g>
</svg>