<?xml version="1.0" standalone="no"?>
<!DOCTYPE svg PUBLIC "-//W3C//DTD SVG 20010904//EN"
 "http://www.w3.org/TR/2001/REC-SVG-20010904/DTD/svg10.dtd">
<svg version="1.0" xmlns="http://www.w3.org/2000/svg"
 width="4100.000000pt" height="5300.000000pt" viewBox="0 0 4100.000000 5300.000000"
 preserveAspectRatio="xMidYMid meet">

<g transform="translate(0.000000,5300.000000) scale(0.100000,-0.100000)"
fill="#000000" stroke="none">
<path d="M19360 51090 c0 -77 2 -140 5 -140 2 0 16 21 32 48 15 26 53 86 85
134 32 48 58 90 58 93 0 3 -40 5 -90 5 l-90 0 0 -140z"/>
<path d="M20960 51203 c-89 -13 -229 -45 -348 -79 -60 -18 -57 -14 -333 -426
-42 -62 -93 -141 -115 -175 -46 -73 -389 -578 -889 -1307 -323 -471 -393 -573
-745 -1086 -195 -283 -440 -641 -545 -795 -201 -295 -347 -508 -666 -972 -295
-429 -712 -1037 -1034 -1508 -66 -97 -284 -415 -485 -708 -201 -293 -477 -694
-612 -892 -386 -563 -779 -1136 -1206 -1758 -216 -314 -432 -630 -480 -700
-48 -70 -114 -167 -147 -215 -34 -48 -131 -190 -217 -317 -85 -126 -234 -344
-329 -483 -96 -139 -286 -417 -424 -617 -220 -322 -466 -680 -840 -1225 -60
-88 -141 -206 -180 -263 -127 -186 -504 -736 -784 -1142 -371 -541 -361 -524
-428 -660 -117 -233 -130 -272 -208 -605 -15 -63 -46 -196 -70 -295 -24 -99
-69 -295 -100 -435 -69 -318 -106 -474 -311 -1335 -91 -379 -223 -935 -294
-1235 -115 -488 -161 -680 -300 -1260 -38 -157 -159 -665 -200 -835 -10 -44
-84 -354 -164 -690 -150 -629 -327 -1372 -415 -1740 -46 -192 -299 -1252 -556
-2335 -57 -239 -178 -745 -268 -1125 -91 -379 -202 -845 -247 -1035 -45 -190
-102 -428 -127 -530 -90 -375 -122 -512 -198 -830 -42 -179 -133 -559 -201
-845 -69 -286 -206 -862 -305 -1280 -99 -418 -189 -796 -199 -840 -49 -204
-371 -1555 -461 -1935 -56 -234 -146 -612 -201 -840 -54 -228 -166 -698 -249
-1045 -157 -658 -278 -1167 -409 -1715 -43 -179 -102 -425 -130 -548 l-53
-222 18 -39 c9 -22 29 -51 44 -64 27 -26 98 -67 115 -67 6 0 19 -11 31 -25 11
-14 178 -121 370 -239 193 -118 384 -235 425 -261 141 -87 283 -170 387 -226
54 -29 270 -160 863 -524 195 -120 585 -358 865 -530 281 -171 798 -489 1150
-705 996 -611 1494 -917 1825 -1120 168 -103 436 -267 595 -365 160 -98 686
-421 1170 -718 484 -297 1006 -617 1160 -712 154 -94 678 -416 1165 -715 487
-298 1128 -692 1425 -875 297 -182 686 -421 865 -530 179 -109 433 -265 565
-345 522 -320 2476 -1519 2905 -1783 250 -154 504 -309 563 -345 l108 -65 64
31 c35 18 68 32 75 32 6 0 77 26 158 59 81 32 170 66 199 75 35 12 50 22 47
30 -3 9 87 71 263 181 147 92 333 212 413 265 80 53 253 164 385 247 243 152
1427 891 1915 1195 486 302 871 542 1345 838 259 161 619 385 800 498 182 113
609 379 950 592 341 213 823 513 1070 667 604 376 943 587 1760 1096 380 236
857 534 1060 660 204 127 746 465 1205 752 459 287 939 586 1065 665 127 79
473 295 770 480 297 185 637 397 755 470 118 73 393 244 610 380 217 136 508
317 645 402 138 85 371 231 519 323 149 92 289 174 313 182 57 20 129 90 142
140 9 34 4 67 -40 253 -28 118 -57 247 -65 285 -8 39 -26 113 -39 165 -19 76
-214 894 -350 1470 -21 91 -68 289 -160 675 -13 55 -49 206 -79 335 -31 129
-76 321 -102 425 -25 105 -56 235 -69 290 -117 498 -355 1503 -405 1710 -22
94 -67 283 -100 420 -32 138 -109 462 -170 720 -61 259 -140 594 -176 745
-102 437 -119 506 -199 845 -42 176 -105 442 -140 590 -35 149 -82 347 -105
440 -22 94 -53 226 -70 295 -16 69 -72 307 -125 530 -53 223 -116 488 -140
590 -24 102 -78 329 -120 505 -42 176 -134 565 -205 865 -71 300 -165 698
-210 885 -44 187 -119 500 -165 696 -46 195 -95 402 -109 460 -14 57 -84 354
-156 659 -133 562 -355 1498 -390 1645 -25 107 -94 396 -180 758 -201 848
-266 1125 -414 1747 -41 173 -105 441 -141 595 -36 154 -102 429 -145 610 -43
182 -124 524 -180 760 -56 237 -121 513 -145 615 -24 102 -59 253 -79 335
-183 770 -392 1662 -452 1931 l-25 111 -186 254 c-252 343 -361 502 -538 782
-149 236 -235 360 -888 1282 -187 264 -406 572 -485 685 -80 113 -220 311
-312 440 -92 129 -207 291 -255 360 -49 69 -158 224 -244 345 -85 121 -254
362 -376 535 -205 292 -295 419 -530 750 -49 69 -152 215 -230 325 -77 110
-233 331 -346 490 -113 160 -365 515 -559 790 -384 545 -555 786 -665 940 -39
55 -114 161 -167 235 -119 169 -281 398 -425 600 -60 85 -168 238 -240 340
-122 174 -248 352 -438 620 -101 143 -261 370 -335 475 -52 73 -103 145 -365
515 -48 69 -131 186 -183 260 -53 74 -114 161 -136 192 -23 31 -86 121 -142
200 -240 341 -352 499 -419 593 -116 163 -280 394 -460 650 -167 237 -459 651
-896 1267 -258 366 -520 747 -548 798 -40 74 -114 151 -173 181 -57 29 -59 29
-220 28 -90 -1 -206 -8 -258 -16z m127 -554 c56 -13 103 -19 131 -15 l42 6 73
-97 c112 -151 265 -364 617 -863 157 -223 241 -341 416 -587 77 -109 277 -391
444 -628 306 -434 355 -504 650 -920 90 -126 206 -291 258 -365 95 -135 238
-337 445 -630 129 -182 269 -379 382 -540 45 -63 124 -176 177 -250 52 -74
189 -268 304 -430 114 -162 244 -347 289 -410 45 -63 191 -270 325 -460 134
-190 297 -421 363 -515 67 -93 155 -218 196 -277 144 -203 229 -324 413 -583
161 -227 500 -707 671 -950 217 -308 273 -388 377 -535 221 -312 413 -585 508
-720 53 -74 146 -205 207 -290 61 -85 140 -195 175 -245 35 -49 183 -259 329
-465 232 -329 553 -785 689 -980 25 -36 75 -105 111 -155 62 -85 297 -419 441
-625 36 -52 106 -151 155 -220 49 -69 115 -163 148 -210 33 -47 105 -148 161
-225 56 -77 217 -304 358 -505 141 -201 324 -460 406 -575 82 -116 154 -226
160 -246 10 -39 37 50 -323 -1079 -230 -721 -269 -845 -359 -1150 -21 -69 -64
-208 -96 -310 -211 -665 -504 -1586 -635 -1995 -84 -264 -242 -759 -350 -1100
-108 -341 -229 -723 -270 -850 -179 -561 -626 -1961 -875 -2745 -149 -470
-343 -1078 -430 -1350 -201 -628 -905 -2836 -1130 -3545 -94 -297 -241 -758
-327 -1025 -363 -1139 -454 -1425 -688 -2160 -135 -426 -270 -849 -300 -940
-29 -91 -104 -322 -165 -515 -207 -650 -328 -1028 -545 -1710 -210 -660 -339
-1066 -545 -1710 -54 -170 -182 -573 -285 -895 -102 -322 -229 -720 -281 -885
-53 -165 -142 -446 -199 -625 -98 -308 -532 -1669 -855 -2680 -81 -256 -212
-665 -290 -910 -332 -1042 -677 -2114 -875 -2720 -53 -162 -132 -414 -176
-560 -71 -235 -116 -376 -284 -900 -24 -74 -74 -235 -111 -357 -38 -123 -71
-219 -75 -215 -4 4 -21 52 -37 107 -17 55 -83 264 -146 465 -64 201 -141 444
-172 540 -31 96 -88 279 -129 405 -40 127 -121 383 -180 570 -131 418 -417
1320 -530 1670 -114 358 -517 1627 -695 2190 -50 160 -143 450 -205 645 -62
195 -197 621 -300 945 -103 325 -231 730 -285 900 -54 171 -159 504 -233 740
-74 237 -197 624 -272 860 -76 237 -166 520 -201 629 -35 109 -64 205 -64 213
0 7 -43 147 -95 311 -52 163 -175 554 -275 867 -99 314 -186 584 -194 600 -7
17 -18 46 -24 65 -16 54 -195 617 -282 890 -43 135 -122 382 -175 550 -53 168
-145 458 -205 645 -110 344 -175 550 -455 1450 -230 736 -269 858 -350 1100
-41 121 -131 400 -200 620 -246 777 -517 1633 -590 1860 -40 127 -130 408
-199 625 -68 217 -264 834 -434 1370 -171 536 -424 1333 -562 1770 -138 437
-404 1274 -590 1860 -186 586 -429 1353 -540 1705 -111 352 -250 793 -310 980
-168 526 -604 1906 -675 2135 -118 380 -244 795 -250 825 -4 17 -33 109 -65
205 -58 172 -259 804 -368 1153 l-55 177 35 53 c114 168 386 566 533 779 93
136 269 392 391 570 121 178 376 550 566 828 190 278 379 554 419 613 41 59
108 157 149 217 41 60 129 188 195 285 66 97 248 361 404 588 295 428 438 637
681 992 79 116 167 244 195 285 28 41 136 199 240 350 104 151 213 311 244
355 136 198 951 1389 1160 1695 177 259 340 497 466 680 72 104 181 265 244
357 63 93 142 207 175 254 60 85 307 446 537 784 64 93 179 261 255 372 77
111 193 281 259 378 66 97 156 228 201 293 145 211 687 1002 860 1255 93 136
300 438 459 670 160 232 339 494 399 582 344 503 747 1089 755 1095 4 3 49 64
99 137 51 73 97 135 102 138 5 3 28 36 50 73 62 105 68 111 140 126 85 19 76
19 177 -5z m10707 -15704 c19 -82 58 -247 86 -365 28 -118 69 -294 91 -390 23
-96 79 -330 124 -520 109 -449 185 -769 229 -955 19 -82 62 -265 95 -405 33
-140 96 -410 141 -600 44 -190 107 -455 140 -590 32 -135 89 -371 125 -525 37
-154 91 -383 121 -510 30 -126 69 -295 85 -375 17 -80 44 -199 60 -264 16 -66
27 -122 24 -124 -3 -3 -1 -10 4 -16 5 -6 11 -28 15 -48 5 -30 4 -38 -8 -38 -8
0 -17 -6 -19 -12 -3 -7 -6 -2 -6 11 -1 17 -5 22 -17 17 -11 -4 -18 1 -21 15
-3 11 -11 18 -19 15 -14 -5 -37 17 -27 27 7 8 -44 55 -69 63 -10 3 -18 10 -18
15 0 5 -9 9 -19 9 -12 0 -21 8 -23 22 -4 25 -28 37 -28 13 0 -9 -4 -13 -10
-10 -5 3 -10 15 -10 26 0 22 -57 90 -74 88 -27 -3 -36 2 -36 21 0 11 -5 20
-11 20 -6 0 -8 -11 -5 -27 3 -16 28 -154 55 -308 46 -259 63 -356 106 -600 8
-49 58 -342 111 -650 172 -1010 192 -1125 284 -1640 50 -280 105 -586 121
-680 16 -93 31 -175 33 -182 9 -24 -25 -21 -49 5 -23 24 -25 25 -26 7 0 -11
-3 -14 -6 -8 -3 8 -14 11 -29 7 -16 -4 -24 -2 -24 7 0 21 -13 36 -37 43 -21 7
-22 5 -18 -26 3 -18 3 -27 -1 -20 -3 6 -14 12 -24 12 -10 0 -22 4 -25 10 -3 6
1 7 9 4 9 -3 16 -2 16 4 0 16 -30 23 -50 12 -13 -7 -19 -6 -24 5 -3 8 -12 15
-20 15 -8 0 -16 6 -19 13 -2 7 -8 8 -13 3 -5 -5 -4 -11 4 -13 17 -6 15 -23 -3
-23 -8 0 -15 6 -15 13 0 6 -3 23 -7 36 -5 21 -4 23 18 16 21 -7 22 -6 10 8 -7
9 -17 14 -22 11 -5 -2 -11 5 -13 18 -36 174 -174 952 -281 1583 -158 935 -293
1715 -380 2195 -31 168 -65 360 -77 427 -12 67 -25 120 -30 117 -5 -3 -6 5 -3
19 5 17 1 32 -11 46 -22 25 -34 27 -34 4 0 -14 -3 -13 -16 5 -8 12 -23 22 -32
22 -15 0 -15 2 -2 10 10 6 17 5 23 -5 8 -16 27 -20 27 -7 0 18 -51 61 -68 56
-13 -5 -14 -4 -3 4 8 6 9 12 3 16 -16 10 -42 -4 -42 -23 -1 -14 -2 -14 -11 2
-5 9 -17 17 -24 17 -8 0 -15 7 -15 16 0 10 6 13 18 10 11 -4 22 2 30 14 10 17
10 20 -3 20 -8 0 -15 -3 -15 -7 0 -5 -15 -8 -33 -8 -29 0 -33 3 -29 23 2 12
-1 22 -7 22 -6 0 -11 -4 -11 -10 0 -5 -5 -10 -11 -10 -8 0 -7 5 1 15 16 19 5
32 -13 16 -12 -9 -13 -7 -9 14 2 15 0 25 -7 25 -6 0 -11 5 -11 11 0 6 -13 23
-28 37 -16 15 -27 32 -25 38 5 15 -31 54 -50 54 -9 0 -17 10 -19 22 -2 13 -15
29 -30 36 -16 7 -28 21 -28 31 0 11 -9 21 -21 24 -18 5 -20 11 -15 33 6 21 4
25 -8 21 -10 -4 -13 -1 -9 9 3 8 -1 14 -11 14 -9 0 -13 6 -10 15 4 8 -1 17
-10 21 -9 3 -14 10 -11 14 5 8 -14 60 -26 70 -3 3 -8 13 -12 23 -3 9 -13 17
-21 17 -10 0 -13 6 -10 15 4 8 1 15 -5 15 -6 0 -11 -7 -11 -15 0 -17 -16 -20
-25 -5 -3 6 -1 10 4 10 6 0 11 10 11 22 0 19 -1 20 -12 6 -16 -20 -58 -7 -58
18 0 19 -36 54 -56 54 -10 0 -12 9 -7 30 3 17 1 30 -4 30 -5 0 -16 17 -23 39
-8 26 -22 43 -44 54 -20 10 -25 16 -13 16 20 1 21 10 2 35 -7 10 -18 15 -24
11 -7 -3 -8 0 -5 9 4 11 0 16 -12 16 -14 0 -15 3 -6 8 15 10 7 38 -14 46 -7 3
-12 11 -9 18 3 7 1 20 -5 28 -8 13 -11 12 -24 -5 -15 -20 -15 -20 -16 3 0 12
5 22 10 22 6 0 10 5 10 11 0 6 -7 9 -15 6 -11 -5 -13 0 -8 25 5 25 3 30 -9 26
-8 -4 -21 -2 -29 3 -11 7 -9 9 9 9 12 0 22 4 22 9 0 12 -29 41 -40 41 -5 0 -7
7 -4 15 4 10 0 15 -12 15 -14 0 -15 3 -6 12 15 15 16 38 1 38 -6 0 -8 -7 -5
-16 4 -11 -2 -8 -19 7 -23 22 -23 25 -7 37 15 11 15 14 2 22 -8 5 -19 10 -24
10 -6 0 -5 5 2 12 17 17 15 28 -5 28 -16 0 -16 2 -3 10 13 9 13 12 -2 20 -9 6
-23 17 -31 24 -7 8 -22 16 -33 19 -17 4 -17 5 2 6 38 2 43 51 6 51 -13 0 -14
2 -4 8 18 12 -3 66 -23 58 -8 -3 -17 -1 -20 5 -4 5 -12 6 -18 2 -7 -4 -6 1 2
10 19 23 1 64 -30 69 -12 2 -24 9 -27 16 -7 21 21 13 50 -15 23 -22 28 -24 28
-10 0 10 -7 20 -15 23 -8 4 -15 17 -15 29 0 33 -10 56 -22 49 -6 -4 -8 2 -3
15 5 16 2 21 -12 21 -15 0 -16 2 -3 10 12 7 10 11 -10 19 -14 5 -22 10 -17 10
4 1 0 17 -8 37 -8 20 -12 40 -9 45 3 5 -5 13 -18 18 -16 7 -18 10 -6 10 27 1
33 23 12 40 -11 9 -23 24 -27 33 -5 14 -11 16 -31 8 -17 -6 -27 -6 -32 1 -3 6
3 13 15 16 12 3 21 12 21 21 0 8 7 24 17 34 18 20 12 35 -8 22 -7 -4 -23 -9
-35 -10 -17 -2 -21 2 -17 12 4 11 13 14 29 10 20 -5 24 -2 24 14 0 17 -4 20
-20 15 -14 -5 -20 -2 -20 10 0 12 6 15 20 10 22 -7 23 -5 14 19 -3 9 -11 13
-17 9 -6 -4 -8 -1 -5 8 5 13 150 467 228 714 21 66 72 226 113 355 42 129 100
313 131 408 30 96 60 179 65 186 6 7 22 57 36 111 14 55 30 104 34 110 5 5 23
57 41 115 17 58 60 193 95 300 35 107 83 257 107 334 33 109 44 133 49 115 4
-13 23 -91 43 -174z m-21274 -200 c51 -159 108 -339 126 -400 18 -60 92 -288
164 -505 72 -217 180 -548 240 -735 155 -486 583 -1836 683 -2155 30 -96 137
-431 237 -745 100 -313 211 -660 245 -770 72 -227 675 -2131 939 -2960 167
-526 498 -1572 817 -2582 82 -259 149 -482 149 -496 0 -14 -27 -102 -60 -195
-137 -390 -399 -1253 -600 -1981 -59 -212 -61 -226 -44 -238 10 -7 21 -13 25
-13 17 0 250 -109 364 -169 627 -335 1158 -856 1506 -1477 79 -142 154 -299
215 -451 28 -72 55 -124 63 -125 10 -2 35 -63 72 -178 31 -96 55 -177 53 -179
-4 -5 -115 36 -162 61 -57 29 -63 25 -46 -29 28 -91 83 -379 100 -523 22 -179
24 -607 5 -790 -66 -642 -324 -1292 -714 -1802 -37 -48 -67 -91 -67 -95 0 -3
26 -40 58 -82 392 -510 640 -1123 718 -1773 24 -198 24 -628 0 -827 -18 -154
-78 -465 -101 -532 l-15 -41 27 7 c15 3 50 17 78 29 27 13 61 27 75 31 13 4
54 23 91 41 36 18 77 38 90 44 23 10 75 38 202 109 100 57 329 214 437 302
145 116 397 370 512 515 86 108 212 288 262 376 l19 33 59 -180 58 -180 -55
-80 c-141 -205 -458 -539 -682 -718 -297 -238 -627 -430 -983 -573 -58 -23
-108 -48 -112 -56 -4 -7 -26 -60 -48 -117 -271 -688 -771 -1303 -1405 -1727
-465 -311 -957 -499 -1560 -595 -207 -33 -214 -34 -530 -33 -300 0 -330 2
-484 27 -90 15 -165 26 -167 25 -1 -2 79 -58 179 -125 100 -66 351 -237 557
-379 206 -141 510 -346 675 -454 165 -108 401 -263 525 -345 368 -242 688
-442 1175 -735 253 -153 642 -389 865 -524 556 -339 1127 -680 1485 -886 387
-224 995 -585 1450 -863 435 -266 661 -400 902 -536 100 -56 224 -126 275
-157 51 -30 94 -50 96 -45 2 5 -26 116 -62 247 -111 406 -241 905 -321 1229
-143 578 -344 1380 -370 1475 -59 218 -226 896 -255 1040 -17 85 -35 171 -40
190 -5 19 -12 53 -15 75 -3 22 -10 54 -15 70 -9 28 -24 109 -52 273 -7 42 -7
75 0 102 9 36 8 39 -8 30 -14 -7 -19 -3 -28 25 -6 22 -7 37 0 41 5 3 8 16 7
27 -2 28 34 107 58 127 10 8 27 16 38 18 11 2 25 11 30 19 6 9 20 27 33 39 14
14 19 25 12 29 -6 3 -8 10 -6 13 5 8 -5 47 -63 252 -77 273 -102 372 -98 377
3 2 24 -56 47 -129 23 -73 68 -218 101 -323 33 -104 93 -293 134 -420 40 -126
103 -324 140 -440 76 -241 308 -972 365 -1150 39 -120 149 -473 275 -875 37
-118 104 -332 150 -475 46 -143 111 -348 145 -455 34 -107 77 -242 95 -300 18
-58 72 -226 120 -375 49 -148 105 -326 125 -395 43 -141 269 -851 275 -860 9
-15 235 -744 233 -751 -2 -5 -41 16 -88 45 -47 30 -202 124 -345 211 -143 87
-354 216 -470 288 -115 71 -262 162 -325 200 -63 39 -178 110 -255 157 -77 48
-228 140 -335 205 -221 134 -665 407 -815 500 -55 34 -172 106 -260 160 -201
124 -284 175 -410 255 -99 62 -355 219 -570 349 -161 98 -914 559 -956 586
-33 22 -303 187 -759 466 -96 58 -224 137 -285 174 -60 37 -141 87 -180 110
-38 23 -126 77 -195 120 -69 43 -217 134 -330 202 -113 69 -243 149 -290 177
-128 79 -300 184 -450 276 -240 147 -662 405 -770 472 -327 201 -970 596
-1125 691 -99 60 -218 133 -265 162 -265 163 -386 237 -793 484 -86 53 -314
192 -505 309 -191 118 -419 258 -507 312 -88 53 -200 122 -250 152 -49 31
-299 184 -555 340 -256 157 -618 379 -805 494 -187 116 -475 292 -640 393
-165 101 -368 227 -452 280 -83 53 -200 125 -258 161 -59 36 -137 85 -173 109
-58 39 -228 146 -372 235 -25 15 -133 82 -240 148 -192 119 -370 227 -482 294
-31 19 -59 38 -62 43 -3 4 16 98 43 207 27 109 59 245 71 302 13 56 26 102 29
102 3 0 42 -29 86 -63 137 -108 417 -318 420 -315 1 2 107 316 236 700 l233
696 -41 169 c-84 336 -114 579 -114 919 0 253 11 379 51 619 129 758 472 1439
1005 1994 90 94 274 260 371 336 l52 40 82 235 c237 675 763 2287 1040 3185
56 182 146 472 200 645 54 173 153 497 220 720 67 223 153 509 192 635 39 127
78 257 88 290 10 33 34 110 53 170 23 71 31 111 24 114 -6 2 -13 -1 -15 -7 -6
-18 -20 -14 -27 8 -7 23 -25 27 -25 5 0 -8 -4 -15 -10 -15 -15 0 -64 24 -73
35 -5 6 -13 3 -22 -9 -15 -19 -16 -19 -65 6 -27 14 -50 22 -50 16 0 -5 -12 -9
-27 -7 -33 2 -83 -16 -83 -31 0 -5 -4 -10 -10 -10 -5 0 -10 8 -10 17 0 15 -2
14 -15 -3 -8 -10 -15 -15 -15 -10 0 5 -7 3 -16 -5 -13 -10 -17 -10 -24 0 -6
11 -10 10 -17 -3 -4 -8 -20 -17 -33 -18 -14 -2 -34 -11 -44 -20 -19 -17 -48
-23 -90 -18 -13 1 -17 -3 -13 -13 4 -10 -1 -13 -19 -9 -15 3 -24 11 -24 23 0
24 -13 24 -36 2 -16 -16 -16 -16 -10 5 5 13 3 22 -3 22 -6 0 -11 -4 -11 -9 0
-5 -9 -11 -19 -14 -14 -3 -18 -1 -14 9 3 8 0 14 -6 14 -6 0 -11 -4 -11 -10 0
-5 -4 -10 -10 -10 -5 0 -10 10 -10 21 0 18 -5 20 -27 16 -15 -3 -35 0 -46 7
-15 8 -21 8 -24 -2 -4 -9 -11 -6 -24 9 -11 12 -22 19 -26 15 -4 -4 -1 -11 7
-16 8 -5 11 -12 7 -16 -3 -4 -16 4 -27 17 -15 16 -23 20 -26 12 -8 -18 -24
-16 -24 2 0 18 -17 20 -22 4 -3 -8 -10 -6 -20 5 -21 20 -26 20 -31 -1 -3 -15
-6 -13 -17 10 -14 29 -36 38 -26 10 6 -15 5 -15 -11 -1 -15 12 -75 38 -89 38
-2 0 -4 -5 -4 -11 0 -5 5 -7 12 -3 7 5 8 3 3 -6 -6 -10 -12 -8 -26 8 -21 27
-44 29 -34 5 5 -15 4 -16 -6 -5 -7 6 -20 12 -29 11 -10 0 -11 -2 -3 -6 15 -6
-1 -25 -30 -36 -15 -6 -17 -3 -12 13 7 22 -10 28 -19 8 -5 -10 -7 -10 -12 0
-6 14 -44 17 -44 3 0 -8 -51 -23 -57 -17 -2 1 38 175 88 387 49 211 128 546
175 744 46 198 100 425 119 505 19 80 49 204 65 275 17 72 44 184 60 250 16
66 56 235 89 375 324 1378 353 1502 556 2350 203 849 253 1063 386 1625 66
281 181 762 255 1070 74 308 162 675 195 815 60 255 105 442 245 1030 42 173
114 464 161 645 46 182 91 359 100 395 8 36 31 132 51 214 21 88 38 143 42
135 5 -8 50 -144 100 -304z m20333 -2510 c-3 -9 -8 -14 -10 -11 -3 3 -2 9 2
15 9 16 15 13 8 -4z m27 -89 c0 -3 -4 -8 -10 -11 -5 -3 -10 -1 -10 4 0 6 5 11
10 11 6 0 10 -2 10 -4z m33 -19 c3 -8 -1 -14 -8 -14 -7 0 -11 6 -8 14 3 7 6
13 8 13 2 0 5 -6 8 -13z m17 -87 c0 -5 -4 -10 -10 -10 -5 0 -10 5 -10 10 0 6
5 10 10 10 6 0 10 -4 10 -10z m140 -374 c0 -3 -4 -8 -10 -11 -5 -3 -10 -1 -10
4 0 6 5 11 10 11 6 0 10 -2 10 -4z m65 -146 c3 -5 1 -10 -4 -10 -6 0 -11 5
-11 10 0 6 2 10 4 10 3 0 8 -4 11 -10z m431 -770 c0 -11 -6 -20 -13 -20 -11 0
-11 5 -3 20 6 11 12 20 13 20 2 0 3 -9 3 -20z m34 -35 c0 -8 -2 -15 -4 -15 -2
0 -6 7 -10 15 -3 8 -1 15 4 15 6 0 10 -7 10 -15z m50 1 c0 -8 -6 -16 -13 -19
-8 -3 -13 3 -13 14 0 11 6 19 13 19 7 0 13 -6 13 -14z m-30 -46 c0 -5 -4 -10
-10 -10 -5 0 -10 5 -10 10 0 6 5 10 10 10 6 0 10 -4 10 -10z m-1300 -455 c189
-464 368 -948 513 -1390 227 -691 530 -1733 788 -2705 83 -311 197 -740 254
-955 99 -373 139 -524 245 -932 31 -120 43 -184 36 -187 -7 -2 -4 -9 7 -18 13
-9 19 -29 20 -59 1 -24 6 -47 11 -50 5 -4 5 -12 1 -19 -5 -8 -11 -7 -24 4 -10
9 -26 13 -39 9 -15 -3 -24 0 -28 11 -3 9 -16 16 -28 16 -21 1 -21 1 -2 15 22
16 10 20 -14 5 -12 -7 -12 -12 -2 -22 16 -16 15 -29 -3 -22 -8 3 -14 9 -13 12
3 17 -28 68 -39 65 -17 -6 -16 -23 1 -23 8 0 15 -14 18 -35 2 -22 0 -35 -7
-35 -7 0 -11 13 -10 30 1 18 -3 30 -11 30 -6 0 -14 6 -17 14 -7 18 -47 9 -47
-10 0 -8 -7 -14 -15 -14 -9 0 -12 6 -9 18 5 14 3 14 -10 -2 -14 -18 -21 -15
-17 7 0 4 -6 7 -14 7 -8 0 -15 5 -15 10 0 6 -11 10 -25 10 -14 0 -24 5 -22 12
1 7 -8 13 -19 14 -12 0 -27 5 -34 9 -7 4 -15 2 -19 -4 -4 -6 -19 33 -33 86
-63 241 -206 799 -458 1793 -234 918 -375 1444 -665 2475 -121 430 -272 910
-411 1309 -46 132 -84 246 -84 254 0 14 138 448 147 465 3 5 6 7 8 5 2 -2 40
-93 85 -203z m1576 151 c20 -21 17 -28 -6 -14 -11 7 -20 16 -20 20 0 12 10 9
26 -6z m284 -330 c0 -2 -7 -7 -16 -10 -8 -3 -12 -2 -9 4 6 10 25 14 25 6z m85
-36 c3 -5 1 -10 -4 -10 -6 0 -11 5 -11 10 0 6 2 10 4 10 3 0 8 -4 11 -10z
m-2122 -370 c42 -146 106 -373 142 -505 63 -226 229 -806 352 -1230 169 -582
233 -820 224 -823 -6 -2 -11 -11 -11 -20 -1 -14 -2 -14 -12 2 -10 18 -12 18
-23 2 -11 -14 -13 -15 -19 -1 -3 8 0 15 6 15 9 0 9 3 1 11 -7 7 -10 24 -7 38
4 23 -1 29 -41 49 l-47 23 8 -23 c4 -13 15 -52 24 -88 16 -63 17 -65 58 -78
25 -8 39 -18 35 -24 -3 -7 -1 -8 5 -4 6 4 26 -7 44 -23 28 -25 31 -32 22 -52
-14 -32 -8 -54 19 -67 12 -6 16 -11 9 -11 -21 -1 -89 37 -96 54 -3 9 -10 14
-15 11 -5 -4 -11 0 -14 6 -2 7 -7 10 -11 7 -6 -6 106 -433 320 -1218 58 -212
102 -391 99 -398 -2 -8 -1 -12 3 -9 4 2 25 -57 45 -132 21 -75 42 -147 47
-159 5 -13 6 -23 2 -23 -4 0 -8 -8 -8 -19 0 -10 5 -17 12 -14 11 4 24 -27 24
-57 -1 -12 -3 -12 -13 2 -9 11 -18 14 -27 8 -9 -6 -19 -2 -30 10 -11 13 -24
17 -41 14 -17 -4 -20 -3 -10 4 19 14 8 26 -38 42 -23 7 -41 19 -41 27 0 7 -9
13 -19 13 -11 0 -27 7 -35 16 -9 8 -20 13 -25 9 -5 -3 -12 4 -16 15 -3 11 -13
20 -20 20 -9 0 -12 6 -9 15 5 12 0 14 -25 9 -25 -5 -31 -3 -31 11 0 13 -6 16
-27 11 -16 -3 -22 -3 -15 0 19 9 14 24 -8 24 -12 0 -25 10 -32 25 -6 14 -15
25 -19 25 -11 0 1 64 13 68 4 2 8 11 8 19 0 9 14 29 31 44 22 19 30 34 26 48
-3 13 -1 18 8 15 7 -3 11 -14 8 -27 -5 -18 -3 -20 7 -10 10 9 17 9 26 2 9 -8
11 -5 7 12 -5 17 -3 20 8 14 19 -12 49 -14 49 -3 0 5 5 6 10 3 6 -3 10 -1 10
4 0 6 -7 11 -16 11 -9 0 -23 8 -31 18 -11 13 -16 14 -20 4 -4 -10 -8 -10 -19
-1 -8 6 -27 9 -44 5 -35 -7 -38 0 -10 24 19 17 19 18 3 25 -10 5 -21 8 -25 7
-4 -1 -10 7 -13 18 -6 20 -35 28 -35 10 0 -5 7 -10 15 -10 18 0 20 -17 3 -23
-10 -3 -10 -7 0 -19 7 -9 10 -23 6 -32 -4 -11 -1 -16 12 -16 13 0 15 -3 7 -11
-12 -12 -53 -3 -53 12 0 5 -9 9 -20 9 -11 0 -20 7 -20 15 0 8 -5 15 -11 15
-33 0 -48 51 -284 935 -122 457 -241 920 -420 1640 -112 451 -223 886 -245
967 l-40 146 75 241 c41 133 84 265 94 293 11 29 34 99 52 155 18 57 33 102
35 100 1 -1 36 -121 77 -267z m3004 -442 c-3 -8 -6 -5 -6 6 -1 11 2 17 5 13 3
-3 4 -12 1 -19z m-3732 -1816 c30 -129 61 -240 70 -248 8 -9 13 -20 10 -25 -4
-5 -2 -9 4 -9 13 0 35 -78 57 -195 1 -5 3 -13 4 -17 1 -5 3 -11 5 -15 1 -5 5
-16 9 -25 5 -10 6 -25 2 -33 -3 -8 -2 -15 3 -15 7 0 24 -51 58 -173 4 -14 0
-18 -15 -15 -10 2 -18 -1 -18 -7 1 -5 9 -9 19 -8 9 2 17 -2 17 -7 0 -6 -5 -10
-10 -10 -7 0 -7 -7 1 -21 8 -16 13 -18 19 -9 5 8 9 4 12 -12 3 -12 33 -117 67
-233 66 -224 199 -696 330 -1170 159 -579 384 -1480 547 -2195 63 -278 126
-552 140 -610 14 -58 29 -125 34 -150 5 -25 11 -54 14 -65 2 -11 12 -51 20
-90 9 -38 24 -96 33 -128 13 -45 14 -60 4 -70 -9 -9 -14 -9 -21 3 -11 18 -22
8 -14 -13 4 -12 13 -15 30 -11 18 5 24 2 24 -11 0 -18 -21 -18 -62 0 -10 4
-18 3 -18 -2 0 -13 49 -35 60 -28 5 3 5 -9 -1 -27 -5 -18 -9 -34 -9 -35 0 -2
-7 -3 -15 -3 -9 0 -12 6 -9 15 9 22 -5 18 -27 -7 -16 -19 -20 -21 -28 -8 -8
12 -13 11 -31 -5 -18 -16 -23 -17 -31 -5 -8 11 -12 12 -16 3 -9 -24 -20 -13
-15 14 4 22 2 25 -12 20 -18 -7 -55 7 -69 27 -5 6 -6 -2 -3 -19 3 -16 8 -52
12 -80 4 -27 9 -44 11 -37 3 6 9 9 14 6 6 -3 15 -2 22 3 23 16 62 9 72 -14 5
-13 13 -23 17 -23 5 0 7 -10 7 -22 -1 -17 -2 -19 -6 -5 -5 18 -23 24 -23 6 0
-6 5 -19 10 -30 8 -15 7 -19 -4 -19 -9 0 -19 14 -24 32 -4 17 -14 34 -22 36
-9 3 -11 -1 -7 -11 8 -21 -32 -35 -44 -16 -6 9 -7 3 -3 -16 48 -263 52 -280
64 -277 10 2 11 0 2 -11 -9 -10 5 -100 59 -388 83 -443 78 -414 89 -464 8 -34
6 -44 -11 -68 -23 -32 -19 -47 7 -26 15 12 16 11 10 -9 -6 -16 -3 -22 8 -22
26 0 18 -14 -19 -34 -32 -18 -48 -46 -25 -46 6 0 10 5 10 10 0 16 37 12 44 -5
5 -14 -3 -16 -54 -17 -3 -1 -17 2 -32 6 -23 5 -28 3 -28 -11 0 -11 -3 -14 -8
-7 -4 6 -14 14 -22 17 -12 4 -11 6 3 6 24 1 22 21 -3 21 -11 0 -20 -4 -20 -10
0 -5 -7 -10 -15 -10 -8 0 -15 5 -15 11 0 6 -6 9 -14 6 -8 -3 -17 1 -20 9 -3 8
-16 19 -28 24 -13 5 -17 9 -10 9 22 1 13 19 -15 29 -16 5 -37 13 -47 18 -16 6
-18 4 -13 -10 5 -13 2 -17 -11 -14 -9 2 -21 18 -27 36 -9 32 -25 44 -25 20 0
-9 -3 -10 -8 -2 -13 20 -47 32 -77 27 -22 -3 -26 -2 -15 6 8 5 11 13 7 17 -4
4 -12 3 -18 -3 -8 -8 -4 -44 11 -124 12 -63 23 -120 25 -126 3 -7 0 -13 -5
-13 -6 0 -10 9 -10 20 0 11 -7 20 -15 20 -9 0 -12 6 -8 17 5 13 2 15 -16 10
-15 -3 -24 0 -28 9 -3 8 -12 13 -20 10 -7 -3 -16 1 -19 9 -4 9 -19 15 -39 15
-19 0 -41 7 -50 16 -9 9 -19 13 -23 9 -4 -4 -1 -10 6 -12 14 -5 16 -23 3 -23
-5 0 -15 16 -21 35 -6 19 -16 35 -22 35 -6 0 -8 -7 -4 -15 3 -9 0 -15 -10 -15
-8 0 -12 5 -9 10 3 6 0 16 -7 23 -13 14 -27 17 -87 18 -24 1 -30 4 -20 10 12
8 12 10 -1 19 -8 5 -22 9 -30 9 -10 0 -8 -3 5 -9 19 -8 19 -9 -2 -9 -24 -1
-31 13 -13 24 19 12 10 25 -14 19 -16 -4 -25 -1 -30 11 -3 9 -11 13 -17 10 -7
-5 -5 -13 5 -24 14 -15 14 -19 -4 -34 -11 -9 -20 -24 -20 -33 0 -13 -2 -13
-17 2 -10 10 -19 27 -20 38 -7 76 -12 91 -27 90 -9 -1 -16 4 -16 11 0 7 -6 15
-14 18 -14 6 -20 29 -51 207 -9 52 -25 140 -36 194 -11 58 -15 103 -10 110 12
15 4 54 -14 72 -8 9 -15 23 -16 32 0 9 -2 24 -4 32 -5 18 -31 155 -50 265 -8
44 -19 102 -25 128 -5 27 -9 51 -9 55 3 20 -2 43 -8 39 -5 -3 -8 5 -9 16 0 12
-4 36 -7 53 -4 17 -9 47 -11 68 -3 20 -8 41 -11 46 -3 5 -8 31 -10 57 -1 27
-6 59 -10 73 -4 14 -7 31 -7 38 -1 6 -5 12 -10 12 -5 0 -6 4 -3 10 3 5 1 18
-4 29 -6 11 -7 21 -3 23 4 2 0 18 -10 36 -15 30 -17 32 -23 13 -6 -21 -25 -29
-25 -11 0 6 -7 10 -16 10 -12 0 -14 -7 -9 -30 4 -19 3 -30 -4 -30 -6 0 -13 12
-17 28 -10 48 -14 56 -23 46 -9 -9 15 -220 65 -574 14 -102 28 -205 30 -230 2
-25 5 -61 8 -80 3 -19 10 -75 16 -125 19 -157 32 -225 42 -225 6 0 27 -12 46
-26 63 -48 79 -132 41 -211 -20 -42 -32 -53 -125 -123 -25 -19 -56 -44 -68
-56 -11 -12 -64 -49 -116 -82 -57 -37 -115 -84 -145 -119 -27 -31 -66 -73 -86
-92 -19 -20 -50 -57 -67 -83 -18 -26 -38 -51 -45 -55 -7 -4 -31 -33 -53 -63
-23 -30 -53 -66 -66 -80 -36 -35 -90 -108 -118 -157 -13 -24 -27 -43 -30 -43
-9 0 -70 -98 -70 -112 0 -6 -18 -43 -39 -82 -21 -39 -44 -89 -50 -112 -6 -22
-19 -49 -29 -59 -10 -11 -28 -45 -41 -76 -12 -31 -30 -65 -40 -76 -20 -22 -56
-127 -65 -191 -4 -23 -18 -66 -33 -95 -14 -29 -35 -70 -46 -91 -12 -24 -25
-84 -33 -150 -8 -60 -21 -120 -29 -132 -8 -13 -15 -40 -15 -61 0 -21 -5 -54
-10 -73 -6 -19 -15 -92 -19 -162 -6 -90 -13 -134 -25 -152 -21 -33 -21 -155 0
-216 11 -32 15 -74 13 -145 -4 -131 10 -309 27 -363 8 -23 14 -65 14 -93 0
-27 6 -60 14 -72 8 -12 22 -60 31 -107 10 -47 28 -103 41 -126 13 -22 24 -47
24 -55 0 -8 8 -30 19 -49 14 -27 51 -168 51 -195 0 -2 13 -19 30 -37 16 -18
37 -57 45 -86 9 -30 25 -64 36 -75 11 -12 22 -33 26 -47 8 -34 31 -79 53 -103
10 -10 26 -42 35 -70 9 -28 23 -60 31 -71 8 -11 14 -28 14 -38 0 -9 9 -22 20
-28 43 -23 68 -112 51 -177 -12 -43 -87 -127 -124 -139 -35 -11 -148 -84 -179
-115 -16 -16 -42 -32 -56 -35 -15 -4 -48 -19 -73 -35 -25 -16 -50 -29 -56 -29
-5 0 -34 -17 -64 -38 -30 -22 -67 -42 -83 -46 -16 -4 -48 -26 -70 -48 -23 -22
-57 -52 -76 -67 -19 -14 -46 -36 -60 -49 -13 -13 -37 -26 -52 -29 -15 -3 -28
-9 -28 -13 0 -6 -78 -85 -140 -141 -10 -9 -22 -23 -26 -31 -5 -7 -34 -31 -64
-53 -76 -54 -176 -157 -184 -191 -4 -15 -20 -39 -35 -53 -15 -14 -36 -41 -46
-58 -11 -18 -22 -33 -26 -33 -13 0 -61 -55 -73 -85 -7 -17 -19 -37 -27 -46
-25 -26 -56 -74 -82 -126 -15 -28 -32 -57 -40 -64 -7 -8 -21 -34 -31 -58 -9
-25 -25 -56 -35 -70 -10 -14 -21 -39 -25 -56 -7 -29 -56 -140 -96 -216 -11
-20 -26 -69 -34 -109 -9 -40 -22 -83 -30 -95 -8 -12 -23 -65 -34 -117 -12 -53
-29 -114 -40 -135 -39 -77 -72 -230 -72 -334 0 -35 -7 -93 -16 -129 -21 -88
-36 -221 -34 -301 1 -37 -5 -84 -14 -110 -19 -54 -20 -102 -2 -154 7 -22 17
-98 21 -169 5 -90 11 -136 22 -153 10 -16 19 -64 24 -136 12 -161 32 -248 74
-322 12 -22 30 -69 40 -105 9 -36 24 -76 32 -88 8 -13 21 -45 29 -71 7 -26 32
-76 55 -112 23 -35 50 -88 61 -117 10 -29 27 -61 38 -72 11 -11 32 -46 47 -78
27 -56 45 -79 146 -185 26 -28 47 -54 47 -58 0 -14 55 -67 75 -73 26 -7 76
-53 101 -91 26 -40 26 -168 0 -207 -29 -44 -83 -72 -137 -71 -38 1 -61 9 -111
40 -57 36 -147 82 -188 96 -9 2 -77 45 -150 94 -74 49 -150 98 -167 109 -18
10 -33 22 -33 26 0 5 -21 18 -47 29 -98 43 -111 51 -124 76 -7 13 -26 33 -41
44 -15 11 -43 35 -62 53 -19 19 -60 54 -92 78 -32 23 -74 59 -93 78 -20 20
-52 46 -71 60 -35 24 -63 47 -106 87 -13 12 -36 29 -52 39 -16 9 -37 29 -46
45 -9 16 -29 36 -45 45 -16 9 -36 29 -44 44 -9 15 -40 52 -69 81 -30 30 -66
72 -82 94 -16 22 -61 72 -100 110 -39 39 -91 100 -116 136 -24 36 -59 76 -77
87 -17 12 -50 52 -72 89 -22 37 -54 81 -70 96 -17 16 -34 41 -37 55 -4 15 -18
38 -31 51 -14 13 -31 39 -39 57 -7 18 -27 47 -43 64 -16 18 -37 53 -47 79 -9
25 -36 75 -59 111 -39 59 -68 110 -144 255 -14 28 -35 64 -47 80 -11 17 -30
50 -43 73 l-22 44 97 301 c111 350 166 515 158 472 -3 -16 -23 -109 -44 -205
l-38 -175 19 -34 c21 -35 33 -64 75 -185 14 -38 38 -81 54 -98 17 -16 33 -41
37 -56 7 -31 78 -168 122 -236 17 -28 31 -54 31 -58 0 -5 14 -27 30 -50 17
-22 30 -47 30 -54 0 -7 35 -64 78 -126 43 -62 84 -124 91 -137 7 -13 35 -51
62 -84 27 -34 49 -65 49 -71 0 -5 17 -26 39 -45 21 -20 59 -68 84 -107 26 -38
58 -77 73 -84 14 -8 39 -34 55 -57 16 -23 38 -48 47 -55 10 -7 27 -26 37 -43
19 -29 85 -102 198 -215 96 -96 158 -149 213 -182 29 -18 58 -42 65 -55 7 -13
45 -48 86 -78 40 -31 73 -60 73 -65 0 -5 8 -11 18 -14 10 -4 27 -14 38 -24 10
-10 36 -30 56 -46 l38 -28 -45 74 c-25 42 -45 81 -45 87 0 7 -16 44 -34 83
-19 38 -40 94 -46 123 -6 29 -22 66 -36 82 -13 15 -31 51 -38 78 -24 89 -66
299 -66 331 0 17 -9 64 -19 105 -10 41 -22 128 -25 194 -4 66 -14 140 -22 166
-23 68 -16 435 9 472 12 18 17 47 17 95 0 38 7 92 16 121 8 30 19 97 24 150 4
53 20 152 34 221 33 154 32 152 54 176 16 18 27 54 53 179 6 28 17 60 25 72 8
12 14 29 14 38 0 28 42 139 91 242 27 57 49 109 49 116 0 33 32 116 53 138 13
13 56 85 96 159 84 156 188 310 222 328 13 7 47 47 76 90 54 80 193 232 213
232 6 0 75 64 153 141 78 78 156 148 174 155 18 8 54 34 80 58 108 100 128
116 162 127 20 7 65 29 101 49 36 21 76 41 89 45 22 7 82 43 109 66 7 6 30 20
50 32 57 33 102 70 102 82 0 6 -16 38 -36 71 -20 32 -43 79 -51 104 -8 24 -26
58 -38 75 -13 16 -27 43 -30 58 -4 16 -23 50 -41 77 -38 55 -56 100 -85 210
-11 41 -27 85 -35 97 -8 12 -14 29 -14 38 0 8 -11 32 -25 53 -16 24 -28 63
-35 110 -5 40 -19 90 -30 111 -10 22 -26 88 -35 147 -9 60 -20 125 -25 144 -6
19 -10 64 -10 100 0 41 -8 88 -21 125 -17 50 -20 72 -14 130 4 39 5 86 4 105
-2 19 -3 118 -4 220 0 154 3 190 16 210 10 16 19 59 23 115 7 107 31 247 56
330 10 33 20 78 23 100 15 111 30 169 52 211 14 26 25 54 25 62 0 8 8 29 19
46 17 30 43 107 76 227 8 31 26 67 39 80 13 14 37 51 53 84 15 33 33 68 38 79
166 329 185 364 199 369 7 3 27 30 44 60 17 29 43 67 59 83 16 16 39 46 52 67
12 20 26 37 30 37 5 0 21 19 36 42 16 24 38 50 49 59 12 9 37 40 56 68 19 28
38 51 42 51 4 0 17 18 29 40 13 22 25 40 28 40 3 1 18 11 33 23 l28 23 -103
-12 c-141 -17 -198 -30 -238 -53 -19 -11 -52 -23 -74 -27 -22 -3 -48 -11 -57
-15 -9 -5 -49 -13 -90 -19 -104 -15 -198 -39 -237 -61 -18 -11 -53 -22 -77
-26 -25 -3 -56 -16 -72 -29 -26 -24 -80 -44 -114 -44 -20 0 -68 -21 -68 -29 0
-13 -62 -43 -125 -61 -54 -16 -121 -45 -185 -82 -8 -5 -33 -17 -55 -28 -22
-11 -60 -33 -85 -50 -25 -16 -51 -30 -59 -30 -7 0 -34 -14 -60 -31 -69 -47
-101 -64 -157 -83 -28 -9 -60 -28 -72 -41 -12 -13 -38 -33 -60 -44 -21 -11
-44 -26 -51 -34 -13 -16 -69 -42 -76 -36 -2 3 27 101 64 219 55 172 72 215 89
221 11 4 24 14 29 22 10 18 73 57 93 57 8 0 40 16 70 35 30 19 61 35 69 35 8
0 29 11 47 25 43 33 212 112 258 120 20 4 40 13 44 20 13 22 56 44 127 65 76
23 192 68 270 106 28 13 64 27 80 30 17 4 50 12 75 19 25 7 79 18 120 25 101
15 148 30 191 58 23 15 58 25 95 29 33 3 78 11 102 19 23 8 68 14 100 14 31 0
70 7 86 15 39 20 174 44 315 54 86 7 118 13 127 25 6 9 15 16 19 16 4 0 2 -7
-5 -15 -10 -12 -10 -15 3 -15 9 0 18 4 22 9 3 6 26 13 51 17 30 4 41 9 33 15
-7 4 -17 5 -21 3 -4 -3 -8 2 -8 10 0 20 -18 30 -33 17 -10 -8 -13 -4 -13 17 1
22 -3 26 -21 24 -16 -2 -23 2 -23 14 0 12 -6 15 -25 12 -18 -4 -26 0 -30 13
-4 11 -15 19 -26 19 -10 0 -19 5 -19 10 0 6 5 10 10 10 6 0 10 5 10 10 0 15
-57 12 -63 -2 -4 -10 -6 -10 -6 -1 -1 6 3 14 9 18 5 3 6 13 3 22 -6 15 -7 14
-14 -3 -7 -18 -8 -18 -15 4 -3 12 -11 22 -16 22 -5 0 -6 5 -2 11 5 8 8 8 13 0
13 -20 40 11 31 34 -7 17 -9 17 -9 3 -1 -22 -16 -23 -33 -3 -40 48 -79 85 -89
85 -6 0 -16 6 -24 13 -38 36 -59 48 -77 44 -16 -5 -17 -3 -7 10 9 10 9 17 2
21 -6 4 -14 30 -18 57 -4 28 -8 61 -10 75 -2 14 -6 45 -9 70 -8 62 -83 611
-101 740 -13 92 -69 524 -80 620 -2 19 -7 55 -10 80 -10 77 -33 280 -45 390
-7 58 -13 114 -15 125 -2 11 -4 24 -4 28 -1 5 -7 5 -13 1 -10 -6 -10 -5 -1 7
8 10 9 34 3 86 -5 39 -12 104 -15 145 -8 106 -15 179 -20 208 -3 14 -7 54 -10
90 -4 36 -10 67 -16 68 -5 2 -9 12 -9 23 0 10 -4 19 -10 19 -5 0 -10 -6 -10
-12 0 -10 -3 -9 -9 1 -5 7 -13 11 -19 7 -15 -9 -21 16 -10 37 13 25 3 33 -17
13 -35 -35 -41 -8 -13 57 10 20 21 37 26 37 6 0 13 11 16 25 4 14 10 23 15 20
5 -2 12 2 15 11 11 29 6 44 -14 44 -21 0 -28 16 -9 22 13 4 0 39 -15 37 -26
-3 -35 3 -51 37 -9 20 -22 33 -29 31 -8 -3 3 47 30 131 87 276 378 1194 454
1432 43 135 133 418 200 630 288 909 303 954 312 933 4 -10 32 -123 63 -251z
m1355 -242 c0 -5 -2 -10 -4 -10 -3 0 -8 5 -11 10 -3 6 -1 10 4 10 6 0 11 -4
11 -10z m124 -326 c3 -8 2 -12 -4 -9 -6 3 -10 10 -10 16 0 14 7 11 14 -7z
m-19 -1474 c-3 -5 -12 -10 -18 -10 -7 0 -6 4 3 10 19 12 23 12 15 0z m425
-510 c0 -5 -4 -10 -10 -10 -5 0 -10 5 -10 10 0 6 5 10 10 10 6 0 10 -4 10 -10z
m54 -26 c9 -3 16 -14 15 -23 0 -10 -2 -11 -6 -3 -2 6 -11 12 -19 12 -8 0 -14
5 -14 10 0 12 3 12 24 4z m-15 -33 c11 -11 21 -17 24 -15 2 2 9 -1 15 -8 8
-10 4 -16 -14 -25 -20 -9 -24 -9 -24 6 0 23 -19 41 -36 34 -14 -5 -19 8 -7 20
11 11 22 8 42 -12z m-23429 -538 c0 -14 -48 -31 -61 -22 -11 6 -11 9 1 13 8 2
22 7 30 9 23 8 30 8 30 0z m1200 -3 c0 -5 -4 -10 -10 -10 -5 0 -10 5 -10 10 0
6 5 10 10 10 6 0 10 -4 10 -10z m-286 -85 c-4 -8 -8 -15 -10 -15 -2 0 -4 7 -4
15 0 8 4 15 10 15 5 0 7 -7 4 -15z m23150 -191 c20 -19 20 -19 -3 -21 -11 -1
-21 6 -24 18 -6 23 6 25 27 3z m116 -69 c0 -8 -4 -15 -10 -15 -5 0 -10 7 -10
15 0 8 5 15 10 15 6 0 10 -7 10 -15z m-2680 -1880 c0 -14 -4 -25 -10 -25 -5 0
-10 4 -10 9 0 5 -3 16 -6 25 -4 11 -1 16 10 16 10 0 16 -9 16 -25z m1471 -298
c-10 -9 -11 -8 -5 6 3 10 9 15 12 12 3 -3 0 -11 -7 -18z m-78 -104 c-6 -16
-34 -14 -40 3 -2 7 7 12 21 12 17 0 23 -5 19 -15z m97 -63 c0 -6 4 -10 10 -10
5 0 14 -9 20 -20 7 -14 7 -20 0 -20 -5 0 -10 7 -10 16 0 8 -3 13 -8 10 -8 -5
-37 14 -43 29 -2 6 -10 9 -17 8 -8 0 -11 5 -8 14 3 8 6 19 6 23 0 5 11 -2 25
-16 14 -14 25 -29 25 -34z m6 -90 c0 -12 -4 -16 -9 -11 -5 5 -6 14 -3 20 10
15 12 14 12 -9z m-55 -10 c-8 -4 -21 -5 -30 -2 -12 5 -10 8 9 12 29 8 40 3 21
-10z m106 -6 c-3 -3 -12 -4 -19 -1 -8 3 -5 6 6 6 11 1 17 -2 13 -5z m-110 -54
c-4 -16 -2 -32 3 -35 6 -3 10 0 10 7 0 10 2 10 9 -1 8 -12 12 -12 25 2 9 8 16
25 16 37 0 12 4 19 10 15 5 -3 7 -12 3 -20 -8 -23 14 -18 32 8 10 13 15 16 14
7 -1 -8 1 -22 4 -30 17 -40 36 -135 28 -138 -6 -2 1 -24 15 -49 22 -42 33 -85
18 -70 -3 3 -12 1 -19 -6 -10 -9 -9 -14 4 -24 21 -15 11 -24 -17 -16 -26 6
-29 31 -4 49 15 12 14 13 -11 4 -36 -13 -37 -13 -37 6 0 8 -5 12 -11 9 -5 -4
-19 1 -30 11 -18 16 -19 16 -13 1 7 -19 -6 -23 -23 -6 -7 7 -12 6 -16 -5 -4
-10 -1 -13 8 -9 8 3 18 -2 21 -11 3 -9 10 -16 15 -16 4 0 6 7 3 15 -4 8 -1 15
4 15 6 0 17 -7 26 -15 8 -8 19 -15 25 -15 6 0 11 -7 11 -15 0 -8 -6 -12 -14
-9 -7 3 -16 -2 -19 -10 -8 -20 -27 -21 -27 -1 0 13 -18 20 -42 16 -4 0 -4 7
-1 16 5 13 2 15 -15 11 -12 -4 -22 -3 -22 0 0 4 -3 17 -6 30 -5 17 -2 22 12
22 15 0 16 2 5 9 -10 7 -19 4 -27 -7 -15 -20 -29 -9 -38 32 -6 26 -5 27 9 13
8 -9 15 -21 15 -27 0 -6 7 -4 17 6 16 15 16 17 0 29 -9 7 -17 21 -17 31 0 16
-2 17 -11 4 -7 -11 -12 -12 -15 -3 -3 7 -12 9 -20 6 -20 -7 -18 7 4 23 15 11
15 15 3 36 -13 21 -13 22 2 9 10 -7 17 -9 17 -3 0 6 12 15 28 20 15 6 21 11
15 11 -18 1 -16 17 4 41 23 27 27 25 20 -10z m43 4 c0 -8 -4 -12 -10 -9 -5 3
-10 10 -10 16 0 5 5 9 10 9 6 0 10 -7 10 -16z m-97 -19 c-3 -9 -8 -14 -10 -11
-3 3 -2 9 2 15 9 16 15 13 8 -4z m-74 -83 c-14 -5 -39 6 -39 17 0 5 11 4 25
-2 13 -7 20 -14 14 -15z m-1829 -32 c0 -5 -2 -10 -4 -10 -3 0 -8 5 -11 10 -3
6 -1 10 4 10 6 0 11 -4 11 -10z m1914 -125 c-6 -16 -24 -21 -24 -7 0 11 11 22
21 22 5 0 6 -7 3 -15z m246 -35 c0 -5 -4 -10 -10 -10 -5 0 -10 5 -10 10 0 6 5
10 10 10 6 0 10 -4 10 -10z m5 -40 c3 -5 1 -10 -4 -10 -6 0 -11 5 -11 10 0 6
2 10 4 10 3 0 8 -4 11 -10z m-113 -53 c15 -1 24 -5 22 -9 -3 -4 2 -8 11 -8 18
0 32 -10 78 -57 55 -54 58 -60 42 -73 -8 -7 -24 -10 -35 -7 -27 7 -36 -10 -10
-18 37 -12 21 -20 -35 -19 -30 1 -55 -3 -55 -7 0 -5 -4 -9 -10 -9 -5 0 -10 9
-10 20 0 23 -10 26 -28 8 -6 -6 -15 -8 -19 -4 -5 4 -1 13 7 19 18 14 24 37 10
37 -5 0 -10 -6 -10 -14 0 -26 -39 -26 -56 0 -17 26 -49 32 -57 12 -2 -7 -8
-10 -12 -6 -5 5 2 17 15 28 18 16 21 23 12 32 -9 9 -12 9 -12 0 0 -7 -5 -12
-11 -12 -6 0 -8 7 -5 16 4 10 -1 25 -9 35 -15 16 -15 18 7 25 13 4 33 8 46 9
12 1 26 5 30 9 4 4 20 4 37 0 16 -4 42 -7 57 -7z m-1817 -27 c-27 -12 -43 -12
-25 0 8 5 22 9 30 9 10 0 8 -3 -5 -9z m51 -37 c-3 -3 -13 0 -21 7 -13 10 -13
15 -3 21 13 8 35 -17 24 -28z m-26 -27 c-4 -4 -16 -4 -26 2 -16 9 -14 10 8 9
15 -1 23 -6 18 -11z m-55 -33 c-13 -13 -17 -12 -32 3 -16 16 -16 16 6 9 16 -5
21 -4 17 4 -4 7 -1 9 8 5 14 -5 14 -8 1 -21z m205 -3 c0 -5 -5 -10 -11 -10 -5
0 -7 5 -4 10 3 6 8 10 11 10 2 0 4 -4 4 -10z m-111 -21 c-15 -13 -25 -16 -28
-8 -4 13 16 29 38 29 9 0 5 -8 -10 -21z m1924 -16 c3 -5 -1 -14 -9 -21 -12
-11 -14 -9 -14 8 0 20 14 27 23 13z m7 -53 c0 -5 -5 -10 -11 -10 -5 0 -7 5 -4
10 3 6 8 10 11 10 2 0 4 -4 4 -10z m-120 -10 c0 -5 -4 -10 -10 -10 -5 0 -10 5
-10 10 0 6 5 10 10 10 6 0 10 -4 10 -10z m90 6 c0 -3 -4 -8 -10 -11 -5 -3 -10
-1 -10 4 0 6 5 11 10 11 6 0 10 -2 10 -4z m-1297 -416 c3 -11 1 -18 -4 -14 -5
3 -9 12 -9 20 0 20 7 17 13 -6z m627 -31 c0 -14 -17 -10 -23 5 -4 10 -1 13 9
9 7 -3 14 -9 14 -14z m-615 -29 c3 -5 2 -10 -4 -10 -5 0 -13 5 -16 10 -3 6 -2
10 4 10 5 0 13 -4 16 -10z m651 -17 c-10 -10 -19 5 -10 18 6 11 8 11 12 0 2
-7 1 -15 -2 -18z m-571 -3 c3 -6 -1 -7 -9 -4 -18 7 -21 14 -7 14 6 0 13 -4 16
-10z m673 -25 c-3 -3 -9 2 -12 12 -6 14 -5 15 5 6 7 -7 10 -15 7 -18z m-764 0
c-4 -8 -8 -15 -10 -15 -2 0 -4 7 -4 15 0 8 4 15 10 15 5 0 7 -7 4 -15z m86
-15 c10 0 22 -5 26 -12 5 -8 2 -9 -10 -5 -10 4 -24 7 -32 7 -8 0 -14 9 -13 23
1 16 2 18 6 5 2 -10 13 -18 23 -18z m130 -32 c0 -11 -12 -10 -30 2 -12 7 -12
10 -1 10 8 0 11 6 7 18 -5 14 -4 14 9 -2 8 -11 15 -23 15 -28z m-170 12 c0 -5
-8 -10 -17 -10 -15 0 -16 2 -3 10 19 12 20 12 20 0z m2803 -32 c15 -11 27 -24
27 -29 0 -5 10 -9 23 -9 12 0 46 -18 75 -40 29 -22 78 -48 109 -58 38 -11 69
-30 94 -54 20 -21 40 -38 44 -38 4 0 29 -16 56 -35 27 -19 61 -38 76 -41 15
-4 45 -26 67 -48 23 -23 59 -50 81 -61 21 -11 62 -42 91 -70 56 -54 119 -107
174 -145 19 -14 43 -33 52 -42 10 -10 22 -18 26 -18 4 0 26 -17 48 -37 40 -38
92 -82 132 -114 11 -10 24 -23 28 -30 5 -8 26 -23 46 -33 24 -12 44 -33 55
-56 10 -21 32 -45 49 -55 17 -9 41 -34 53 -56 12 -21 30 -44 39 -51 9 -7 29
-29 43 -48 31 -41 44 -54 128 -133 34 -32 73 -77 88 -100 14 -23 36 -51 48
-63 13 -12 35 -40 49 -63 15 -23 33 -44 41 -47 20 -8 51 -62 60 -103 4 -21 23
-50 45 -70 37 -36 115 -145 127 -178 3 -10 21 -32 38 -48 32 -30 85 -122 85
-149 0 -7 11 -21 24 -30 14 -9 33 -40 46 -72 11 -32 32 -70 45 -86 14 -16 29
-46 35 -67 6 -22 17 -42 25 -45 20 -7 36 -45 81 -191 24 -78 47 -131 65 -152
22 -25 59 -118 59 -147 0 -3 11 -21 24 -41 13 -19 27 -54 31 -78 4 -23 20 -69
36 -103 16 -34 29 -67 29 -75 0 -8 9 -32 21 -53 11 -21 24 -72 29 -114 13
-109 50 -263 70 -292 24 -33 40 -95 40 -150 0 -25 7 -67 15 -94 8 -27 15 -67
15 -88 0 -21 8 -50 17 -65 25 -38 37 -306 37 -828 -1 -499 -12 -762 -36 -815
-15 -34 -32 -129 -48 -275 -9 -76 -15 -97 -39 -134 -22 -34 -60 -189 -71 -287
-5 -45 -17 -102 -28 -125 -11 -24 -23 -57 -26 -74 -4 -16 -14 -37 -21 -45 -7
-8 -25 -53 -39 -99 -14 -46 -31 -91 -39 -100 -7 -9 -23 -48 -35 -87 -12 -38
-31 -80 -42 -92 -11 -11 -20 -27 -20 -35 0 -7 -4 -17 -9 -23 -5 -5 -18 -38
-29 -74 -35 -110 -50 -146 -82 -199 -16 -29 -30 -57 -30 -64 0 -7 -16 -36 -35
-64 -19 -29 -35 -55 -35 -57 0 -3 -22 -38 -49 -79 -27 -40 -54 -91 -60 -114
-8 -27 -27 -56 -57 -85 -30 -29 -48 -56 -55 -83 -8 -30 -29 -59 -79 -110 -41
-41 -74 -83 -81 -104 -7 -20 -22 -49 -35 -64 -13 -16 -24 -34 -24 -41 0 -7
-17 -29 -37 -48 -48 -45 -82 -86 -96 -118 -14 -32 -57 -80 -72 -80 -6 0 -18
-12 -25 -27 -22 -43 -52 -73 -87 -88 -18 -8 -33 -20 -33 -27 0 -8 -33 -48 -72
-90 -40 -43 -107 -114 -148 -160 -41 -45 -82 -88 -90 -95 -8 -8 -34 -32 -58
-53 -24 -22 -48 -40 -54 -40 -6 0 -35 -22 -65 -50 -30 -27 -59 -50 -64 -50 -6
0 -39 -29 -74 -65 -36 -36 -69 -65 -75 -65 -5 0 -39 -25 -75 -55 -35 -30 -67
-55 -70 -55 -9 0 -77 -52 -95 -72 -8 -9 -46 -33 -84 -53 -37 -19 -81 -48 -96
-65 -15 -16 -40 -32 -56 -36 -16 -4 -38 -15 -49 -25 -11 -10 -51 -32 -90 -49
-38 -18 -81 -37 -95 -43 -14 -6 -42 -26 -62 -44 -33 -28 -91 -53 -125 -53 -7
0 -13 -4 -13 -10 0 -16 -45 -41 -101 -55 -30 -8 -65 -27 -83 -43 -18 -18 -59
-38 -101 -51 -38 -12 -97 -35 -130 -50 -63 -30 -153 -65 -195 -76 -14 -4 -56
-22 -95 -41 -45 -22 -95 -37 -140 -43 -38 -5 -86 -18 -105 -29 -19 -11 -87
-30 -150 -42 -161 -29 -200 -39 -244 -62 -24 -13 -64 -22 -109 -25 -39 -2 -84
-11 -101 -20 -18 -10 -75 -19 -146 -24 -63 -5 -131 -13 -150 -19 -19 -5 -71
-10 -115 -10 -50 0 -102 -7 -140 -19 -51 -16 -94 -19 -292 -20 -261 -2 -303 5
-361 55 -66 56 -72 145 -14 207 28 30 105 57 159 57 53 0 184 29 228 50 22 10
58 22 80 26 22 3 45 11 51 16 7 5 40 15 75 22 105 23 165 45 184 66 10 11 44
28 74 37 31 8 67 23 81 33 14 10 44 21 67 25 23 3 54 18 70 31 15 13 39 27 53
31 13 3 51 23 85 45 33 21 65 38 72 38 7 0 17 9 24 21 6 11 30 29 54 40 23 10
58 33 76 50 18 17 46 37 63 46 17 9 54 37 81 63 28 26 67 53 88 59 20 7 37 16
37 21 0 8 231 245 246 251 5 2 25 27 44 55 19 28 71 90 115 138 44 49 82 93
84 100 2 6 22 31 45 57 22 25 0 4 -51 -45 -149 -146 -157 -154 -188 -168 -17
-7 -53 -32 -82 -55 -29 -23 -69 -46 -89 -52 -20 -6 -44 -17 -53 -25 -9 -8 -59
-36 -111 -63 -52 -27 -110 -58 -128 -70 -18 -11 -61 -26 -95 -34 -36 -7 -77
-24 -97 -39 -27 -21 -65 -33 -170 -54 -74 -14 -164 -33 -200 -42 -159 -38
-189 -44 -260 -44 -41 0 -95 -6 -120 -14 -25 -7 -56 -10 -71 -6 -14 4 -54 2
-90 -5 -42 -7 -76 -8 -98 -2 -18 5 -42 6 -53 4 -11 -3 -40 0 -66 8 -26 7 -81
16 -122 20 -41 4 -93 13 -115 21 -22 7 -57 14 -77 14 -35 0 -138 27 -198 52
-14 6 -40 13 -59 15 -45 5 -95 29 -124 59 -12 13 -27 24 -34 24 -6 0 -32 16
-57 35 -26 19 -49 35 -52 35 -4 0 -39 16 -79 36 -48 24 -77 45 -86 62 -7 15
-29 43 -49 62 -20 19 -52 58 -70 85 -18 28 -44 61 -57 75 -14 13 -27 36 -30
51 -3 15 -16 32 -29 40 -13 7 -31 23 -40 36 -16 25 -65 154 -88 233 -17 55
-34 102 -57 155 -10 22 -21 72 -25 110 -3 39 -11 81 -16 95 -5 14 -12 137 -14
274 -3 149 -9 257 -16 269 -15 29 -13 113 4 139 8 13 18 59 21 103 4 44 12 96
17 115 6 19 10 52 10 72 0 21 7 57 15 82 8 24 17 67 20 96 3 28 14 68 24 88
24 46 40 95 51 148 16 74 50 171 69 191 17 18 66 136 97 233 8 25 21 64 29 88
16 48 113 216 142 247 11 11 22 28 26 39 10 24 116 188 131 201 16 13 66 90
90 137 10 21 31 49 45 62 14 13 46 43 70 65 24 23 47 41 51 41 5 0 18 20 29
44 13 26 34 50 54 61 19 10 44 34 58 53 32 48 117 130 143 138 12 4 29 16 39
28 33 40 70 76 79 76 4 0 26 18 48 40 22 22 46 40 53 40 20 0 73 28 88 46 7 9
36 27 64 40 66 32 123 64 162 92 17 12 36 22 41 22 22 0 119 35 142 51 14 9
44 20 65 24 22 4 54 12 72 18 l32 11 -53 51 c-29 28 -67 60 -85 71 -18 10 -51
44 -73 74 -35 50 -110 135 -225 256 -23 24 -46 60 -52 79 -5 19 -25 54 -45 77
-20 23 -36 46 -36 50 0 5 -11 24 -24 41 -13 18 -28 50 -32 72 -4 22 -15 52
-25 66 -10 14 -25 46 -34 71 -8 26 -28 60 -44 77 -18 20 -32 47 -36 74 -8 53
-26 119 -36 132 -4 6 -10 28 -14 50 -4 22 -14 51 -22 63 -8 13 -17 49 -20 80
-3 32 -11 66 -18 78 -12 19 -21 58 -45 204 -5 30 -12 127 -15 214 -5 124 -10
164 -23 185 -24 36 -24 252 1 296 13 23 19 75 26 225 12 221 33 388 54 422 8
13 17 46 20 75 3 29 13 62 21 75 8 13 22 61 32 108 9 47 20 90 24 95 4 6 11
29 15 52 4 25 19 56 39 80 18 21 39 61 46 88 7 28 22 62 32 77 10 14 18 37 18
51 0 54 14 86 66 151 30 37 54 74 54 83 0 23 33 64 146 180 55 56 121 125 147
152 26 28 71 68 100 89 29 22 72 59 97 83 38 37 57 47 118 61 40 9 86 27 103
39 23 16 51 23 113 28 50 4 90 12 101 21 14 12 55 16 185 17 161 3 169 2 214
-22 26 -14 53 -25 59 -25 7 0 28 -10 47 -23 19 -13 51 -29 70 -37 43 -16 190
-110 190 -121 0 -4 21 -23 48 -41 46 -32 98 -75 132 -111 9 -10 41 -58 71
-108 29 -50 58 -93 64 -97 21 -12 42 -56 60 -122 9 -36 26 -79 36 -96 11 -18
24 -67 30 -115 5 -46 14 -106 19 -134 22 -122 -3 -629 -35 -716 -9 -24 -20
-67 -25 -94 -4 -28 -15 -72 -24 -98 -9 -26 -16 -53 -16 -59 0 -6 -14 -33 -31
-59 -17 -27 -37 -72 -44 -100 -8 -29 -19 -57 -24 -62 -6 -6 -11 -20 -11 -31 0
-12 -9 -32 -20 -46 -11 -14 -20 -29 -20 -34 0 -5 -12 -25 -27 -44 -35 -47 -85
-121 -102 -154 -7 -14 -35 -47 -62 -73 -27 -26 -49 -53 -49 -59 0 -6 -14 -28
-31 -49 -30 -37 -30 -38 -14 -63 9 -14 35 -42 57 -63 21 -20 64 -60 93 -88 30
-29 61 -53 69 -53 8 0 41 -13 73 -30 73 -38 178 -43 220 -10 14 11 36 20 49
20 13 0 36 12 51 26 15 15 42 33 60 40 18 8 36 20 40 27 4 7 24 24 43 37 59
42 70 53 107 117 20 34 47 67 60 74 12 7 23 19 23 28 0 9 14 36 30 61 16 25
30 50 30 57 0 15 24 72 56 134 12 25 28 76 34 114 6 38 19 83 29 100 10 16 21
54 24 84 4 29 13 64 22 77 8 13 15 40 15 61 0 21 5 54 11 73 14 46 14 699 0
760 -6 25 -11 61 -11 80 0 20 -6 45 -14 56 -8 11 -19 46 -25 79 -6 32 -17 68
-25 79 -7 12 -17 40 -20 63 -4 23 -20 61 -35 85 -16 24 -31 61 -35 82 -4 21
-11 46 -15 55 -5 9 -15 33 -24 54 -9 20 -23 52 -31 70 -9 17 -18 43 -21 57 -7
28 -108 170 -131 183 -8 4 -28 36 -46 70 -53 104 -40 205 33 259 54 40 139 43
192 6z m-2403 8 c0 -2 -7 -7 -16 -10 -8 -3 -12 -2 -9 4 6 10 25 14 25 6z
m-260 -43 c0 -19 -3 -24 -10 -17 -6 6 -8 18 -4 27 9 24 14 21 14 -10z m90 7
c0 -5 -2 -10 -4 -10 -3 0 -8 5 -11 10 -3 6 -1 10 4 10 6 0 11 -4 11 -10z
m6985 -7408 c25 -107 44 -199 42 -205 -3 -7 -31 -28 -63 -46 -33 -19 -122 -76
-198 -125 -213 -138 -340 -219 -456 -287 -58 -34 -151 -92 -207 -128 -55 -36
-175 -111 -264 -166 -90 -55 -199 -123 -244 -151 -44 -28 -183 -116 -310 -194
-126 -79 -331 -207 -455 -285 -124 -78 -304 -190 -400 -249 -296 -182 -402
-248 -506 -316 -54 -36 -191 -122 -304 -192 -113 -70 -290 -181 -395 -246
-171 -108 -550 -342 -807 -498 -54 -32 -191 -118 -305 -190 -115 -72 -282
-177 -373 -233 -91 -57 -316 -197 -500 -313 -184 -115 -342 -213 -350 -216 -8
-3 -118 -71 -245 -151 -126 -79 -278 -174 -337 -210 -267 -164 -800 -497 -908
-566 -19 -12 -78 -48 -130 -81 -129 -79 -165 -101 -310 -193 -69 -44 -199
-125 -290 -182 -91 -56 -181 -112 -200 -124 -93 -60 -714 -446 -940 -585 -235
-144 -647 -401 -730 -455 -19 -12 -62 -39 -95 -59 -65 -40 -425 -266 -650
-407 -77 -49 -178 -111 -225 -139 -75 -44 -332 -205 -415 -258 -16 -11 -68
-43 -115 -72 -47 -29 -114 -71 -150 -94 -36 -22 -75 -46 -85 -53 -11 -7 -51
-31 -90 -55 -38 -24 -77 -47 -85 -51 -28 -15 -117 -70 -340 -212 -19 -13 -69
-44 -110 -70 -41 -27 -97 -63 -125 -80 -248 -159 -244 -157 -295 -149 -22 4
-40 12 -40 18 0 6 -4 5 -9 -3 -5 -8 -16 -11 -25 -8 -8 3 -18 1 -22 -5 -4 -7
-9 -6 -15 3 -12 19 -11 32 1 24 5 -3 8 7 5 25 -2 16 2 36 8 43 7 6 12 24 12
39 -1 15 2 25 6 22 4 -2 15 8 24 23 19 31 18 30 425 322 759 545 1581 1088
2525 1668 653 401 791 487 1170 725 503 315 1622 1013 2160 1346 231 143 479
298 550 345 72 46 283 177 470 289 187 113 439 265 560 340 121 74 258 158
305 185 47 28 129 76 182 107 53 32 98 61 100 65 2 5 91 62 198 128 107 66
283 175 390 243 107 67 224 138 259 157 36 19 70 41 76 48 11 15 482 325 505
333 26 9 746 473 1160 747 217 144 445 292 505 329 61 36 247 156 415 265 168
110 381 248 474 308 93 59 252 163 354 230 103 67 187 121 188 120 1 -1 23
-89 49 -195z m-12425 -84 c0 -6 6 -8 14 -5 15 6 48 -28 38 -38 -4 -4 2 -5 12
-3 14 2 20 -4 23 -24 3 -22 0 -27 -17 -25 -11 1 -20 5 -20 9 0 5 -9 4 -20 -2
-13 -7 -26 -7 -38 -1 -11 6 -24 6 -35 0 -20 -12 -37 -4 -37 16 0 16 18 30 28
20 3 -3 0 -10 -8 -15 -10 -6 -11 -10 -3 -10 7 0 17 9 23 20 9 16 8 20 -5 20
-18 0 -15 38 5 50 15 10 40 2 40 -12z m-202 -644 c7 4 12 3 12 -2 0 -5 8 -12
18 -16 9 -3 23 -9 31 -12 9 -5 11 -3 6 6 -5 8 -3 11 5 8 27 -9 22 -28 -7 -29
-15 0 -22 -3 -15 -6 7 -3 17 -16 22 -29 6 -14 18 -24 29 -24 15 0 19 -5 16
-21 -4 -18 -2 -19 12 -7 9 7 14 8 10 2 -4 -7 0 -14 8 -18 8 -3 15 -13 15 -23
1 -21 24 -55 33 -47 3 3 4 -2 3 -12 -4 -30 -26 -28 -26 2 0 25 -1 26 -17 12
-26 -22 -70 -31 -77 -15 -5 9 -7 9 -12 0 -7 -16 -46 -17 -61 -2 -8 8 -20 6
-44 -6 -19 -10 -36 -19 -38 -21 -7 -6 28 -34 44 -34 9 0 13 -4 10 -10 -9 -15
-42 -12 -60 6 -9 9 -19 13 -23 10 -3 -4 -1 -11 6 -15 7 -4 10 -15 7 -24 -4
-10 1 -20 15 -27 15 -8 20 -8 16 -1 -5 7 -1 9 8 5 9 -3 14 -10 11 -14 -3 -4 8
-13 23 -19 15 -6 36 -23 46 -36 10 -14 25 -25 33 -25 9 0 13 -6 9 -15 -3 -8 1
-21 9 -29 15 -15 38 -62 40 -81 0 -5 4 -16 9 -24 5 -8 3 -16 -5 -22 -10 -6
-11 -9 -1 -9 6 0 12 -7 12 -16 0 -8 -4 -12 -10 -9 -6 3 -7 -1 -4 -9 7 -19 0
-20 -29 -4 -12 7 -32 11 -44 9 -11 -1 -24 3 -28 8 -3 6 -16 11 -28 11 -21 -1
-20 -2 8 -28 17 -16 32 -37 33 -48 2 -10 10 -23 19 -27 8 -5 19 -20 24 -35 8
-21 12 -23 19 -12 6 8 10 11 10 5 0 -11 -70 -284 -169 -660 -33 -126 -102
-394 -155 -595 -52 -201 -117 -450 -146 -555 -54 -200 -139 -518 -290 -1080
-134 -502 -249 -918 -420 -1525 -134 -473 -321 -1185 -474 -1795 -109 -435
-196 -768 -287 -1092 -22 -78 -42 -159 -45 -180 -2 -20 -25 -108 -51 -196 -41
-139 -50 -162 -77 -182 -51 -38 -532 -323 -581 -344 -16 -7 -52 -30 -80 -50
-27 -21 -81 -57 -120 -80 -38 -23 -101 -62 -140 -87 -38 -24 -71 -41 -73 -36
-1 4 8 39 22 77 17 50 28 69 39 67 17 -3 34 47 198 558 106 330 185 594 320
1075 61 215 143 491 184 615 71 219 249 775 729 2285 129 407 293 922 364
1145 162 504 313 978 447 1400 57 179 196 613 309 965 112 352 230 721 261
820 53 169 81 228 92 198 7 -18 43 -16 43 2 0 8 -8 15 -18 15 -24 0 -32 8 -25
26 4 12 7 12 18 -2 6 -9 17 -14 23 -10z m162 -244 c0 -5 -4 -10 -10 -10 -5 0
-10 5 -10 10 0 6 5 10 10 10 6 0 10 -4 10 -10z m-6193 -1862 c-3 -8 -6 -5 -6
6 -1 11 2 17 5 13 3 -3 4 -12 1 -19z"/>
<path d="M20957 41480 c-15 -30 -32 -80 -38 -110 -6 -30 -16 -64 -22 -75 -6
-11 -10 -53 -8 -93 2 -87 -11 -134 -46 -162 -24 -19 -25 -22 -18 -102 4 -52 2
-100 -5 -128 -6 -25 -16 -65 -21 -90 -21 -105 -22 -117 -3 -145 22 -34 24
-119 5 -220 -24 -130 -33 -200 -36 -270 -3 -98 -29 -176 -76 -231 -21 -25 -41
-55 -43 -67 -3 -12 -11 -44 -17 -72 -12 -48 -17 -235 -9 -340 12 -154 -19
-277 -82 -330 -22 -18 -39 -50 -57 -101 -26 -75 -75 -148 -144 -216 -21 -21
-44 -38 -52 -38 -8 0 -38 -23 -65 -52 -45 -47 -51 -59 -61 -117 -11 -68 -43
-125 -78 -136 -15 -4 -19 -19 -24 -77 -8 -88 -40 -135 -108 -157 -24 -7 -53
-18 -64 -24 -11 -6 -33 -18 -50 -27 -16 -9 -49 -35 -73 -58 -24 -24 -52 -42
-65 -42 -12 0 -40 -12 -62 -27 -35 -24 -52 -28 -125 -31 -47 -2 -94 -7 -105
-12 -216 -96 -323 -130 -405 -130 -22 0 -43 -13 -83 -54 -56 -55 -109 -76
-156 -61 -10 3 -47 -3 -80 -15 -33 -11 -74 -20 -91 -20 -22 0 -41 -10 -62 -31
-63 -63 -119 -79 -190 -55 -65 23 -99 22 -138 -2 -19 -12 -42 -22 -50 -22 -24
0 -85 -69 -108 -123 -14 -32 -33 -54 -57 -68 -20 -12 -45 -39 -56 -60 -10 -21
-32 -46 -47 -55 -15 -10 -43 -28 -63 -41 -20 -13 -53 -26 -73 -30 -29 -4 -38
-11 -42 -32 -20 -88 -49 -142 -108 -205 -35 -36 -70 -66 -80 -66 -9 0 -35 -17
-59 -39 -23 -21 -62 -49 -87 -61 -45 -23 -78 -52 -106 -95 -22 -34 -74 -55
-137 -55 -51 0 -55 -2 -67 -30 -7 -16 -31 -47 -55 -69 -23 -22 -55 -56 -71
-76 -15 -21 -52 -57 -82 -81 -61 -50 -87 -93 -94 -156 -7 -58 -63 -144 -137
-208 -66 -57 -92 -103 -109 -194 -14 -74 -34 -104 -80 -122 -108 -43 -112 -46
-128 -104 -22 -73 -61 -146 -91 -166 -14 -8 -31 -30 -39 -47 -8 -18 -29 -50
-47 -72 -32 -40 -68 -157 -82 -267 -5 -38 -16 -58 -61 -108 -29 -33 -54 -67
-54 -75 0 -32 -55 -128 -96 -168 -53 -52 -59 -59 -92 -94 -15 -16 -36 -34 -47
-40 -18 -10 -21 -26 -26 -125 -6 -95 -11 -123 -36 -178 -34 -77 -68 -182 -83
-262 -9 -44 -22 -71 -55 -112 -24 -29 -57 -76 -74 -104 -26 -45 -29 -55 -20
-87 15 -55 -5 -127 -48 -173 -20 -21 -44 -62 -55 -94 -18 -54 -19 -58 -2 -90
23 -44 22 -113 -3 -168 -11 -25 -23 -57 -26 -71 -8 -31 -52 -77 -81 -85 -14
-3 -28 -24 -44 -65 -21 -53 -23 -77 -23 -189 1 -115 4 -134 27 -187 37 -81 56
-170 49 -220 -4 -26 0 -62 9 -94 9 -29 16 -63 16 -76 0 -14 12 -40 27 -59 23
-31 27 -48 33 -137 4 -56 19 -144 33 -196 23 -87 24 -98 11 -140 -8 -25 -14
-85 -14 -132 0 -59 -6 -107 -20 -149 -11 -34 -20 -68 -20 -74 0 -10 -29 -50
-104 -142 -14 -17 -47 -39 -73 -49 -26 -10 -57 -27 -68 -38 -11 -10 -30 -23
-43 -28 -12 -5 -36 -29 -54 -54 -31 -44 -118 -116 -165 -138 -12 -5 -25 -18
-28 -29 -8 -25 -67 -68 -93 -68 -12 0 -36 -13 -54 -28 -36 -30 -131 -92 -142
-92 -3 0 -23 -11 -44 -24 -28 -17 -40 -34 -49 -67 -16 -58 -90 -135 -145 -150
-22 -6 -57 -8 -77 -4 -34 6 -47 0 -150 -69 -62 -42 -121 -76 -130 -76 -10 0
-29 -17 -42 -37 -33 -52 -106 -98 -189 -119 l-70 -18 0 -41 c0 -22 7 -48 15
-58 7 -10 19 -40 25 -67 11 -44 14 -49 48 -55 20 -4 116 -6 213 -5 164 1 180
2 201 21 25 22 122 64 172 75 17 3 38 12 46 19 18 16 85 34 120 33 36 -1 139
22 180 39 19 9 64 18 100 20 36 3 84 11 108 19 23 8 60 14 82 14 21 0 42 5 45
10 4 6 24 22 46 36 39 24 39 24 39 89 0 111 38 165 126 179 61 11 117 -8 155
-52 31 -35 36 -37 94 -37 66 0 114 -22 146 -65 17 -23 59 -164 59 -198 0 -24
48 -81 93 -109 23 -14 49 -35 58 -47 29 -34 40 -95 27 -146 -10 -39 -9 -45 7
-54 52 -30 126 -111 138 -153 10 -35 39 -70 150 -182 116 -118 143 -140 175
-146 64 -11 132 -70 132 -116 0 -9 7 -22 16 -30 8 -7 24 -29 34 -49 11 -21 52
-71 92 -112 57 -57 83 -77 111 -82 44 -8 90 -45 107 -85 6 -16 22 -32 33 -35
12 -3 42 -26 66 -51 23 -25 46 -45 50 -45 3 0 17 -18 31 -39 14 -24 39 -47 62
-57 89 -40 127 -128 113 -263 -8 -70 -11 -555 -5 -662 3 -53 -20 -101 -81
-171 -37 -42 -42 -54 -49 -120 -5 -45 -4 -90 2 -118 15 -67 -3 -120 -64 -187
l-50 -56 7 -51 c18 -117 13 -201 -16 -273 -11 -27 -10 -43 6 -110 11 -43 28
-90 39 -105 l20 -28 126 0 c114 0 129 2 145 20 10 11 26 22 36 25 12 4 20 20
25 51 3 25 16 59 29 78 30 44 39 80 36 151 -1 44 3 71 18 99 12 22 26 67 32
100 6 33 25 86 42 119 18 33 40 74 49 91 9 18 23 38 32 45 9 8 16 21 16 30 0
13 56 138 101 223 5 10 9 32 9 50 0 50 29 189 43 207 6 9 25 30 40 46 40 42
87 137 80 163 -9 36 24 128 58 156 17 14 36 26 43 26 7 0 33 15 57 34 80 61
158 58 226 -10 39 -40 45 -42 74 -34 22 7 54 5 103 -5 89 -19 130 -55 153
-135 18 -65 34 -85 88 -112 22 -11 54 -31 71 -44 17 -13 34 -21 36 -19 12 13
109 -28 132 -55 13 -17 28 -30 31 -30 18 0 69 -46 80 -73 10 -24 27 -36 96
-63 83 -33 86 -34 242 -34 195 0 330 -29 397 -85 8 -7 35 -15 60 -19 25 -4 60
-15 78 -26 31 -19 35 -19 114 -4 127 24 189 8 278 -71 28 -24 51 -34 110 -43
41 -7 98 -20 125 -28 28 -8 61 -14 75 -14 35 1 466 2 518 1 24 -1 69 -10 100
-20 41 -14 95 -20 192 -23 79 -2 144 -9 157 -16 27 -15 399 -17 408 -2 3 6 17
10 29 10 13 0 29 7 36 14 22 27 115 41 180 28 44 -10 69 -10 109 0 35 8 64 8
94 2 24 -6 55 -7 72 -2 17 5 82 9 145 9 199 0 384 35 440 83 19 16 48 34 65
41 16 7 62 27 101 44 39 17 76 31 83 31 6 0 40 18 74 40 84 53 124 68 202 79
59 9 72 15 145 73 67 55 95 69 179 97 55 18 157 62 228 98 70 36 152 74 182
84 29 10 73 36 97 56 149 129 147 128 269 127 98 0 101 0 181 -43 96 -51 113
-75 121 -171 l6 -70 69 0 c88 0 128 -17 169 -73 20 -26 49 -51 70 -60 43 -17
84 -69 93 -118 3 -20 1 -60 -5 -88 -15 -70 7 -131 56 -160 50 -29 70 -73 69
-157 0 -50 -5 -79 -17 -97 -23 -35 -13 -55 34 -67 22 -6 54 -24 72 -39 17 -16
42 -31 54 -35 20 -6 47 -34 99 -103 12 -15 36 -57 54 -92 33 -66 64 -103 113
-134 16 -10 35 -34 43 -53 9 -22 28 -41 54 -54 22 -11 47 -31 56 -45 15 -24
21 -25 110 -25 l95 0 -7 63 c-5 46 -2 72 10 101 22 53 20 74 -13 137 -18 33
-34 83 -40 129 -7 45 -26 104 -48 150 -19 41 -42 100 -50 130 -7 30 -18 72
-23 92 -7 25 -7 53 0 81 13 58 -3 112 -47 161 -51 56 -76 119 -74 187 1 50 -3
63 -35 110 -20 30 -43 74 -50 98 -16 51 -18 211 -4 261 9 30 7 37 -15 60 -46
48 -57 133 -29 216 10 31 16 88 17 173 l2 126 -32 39 c-43 52 -61 130 -45 200
25 108 62 229 77 253 9 13 36 38 60 55 29 21 46 41 50 60 3 15 8 42 11 59 7
36 94 145 124 154 11 4 31 28 45 54 13 27 36 62 51 80 27 32 91 71 118 71 8 0
27 21 44 48 16 26 54 72 84 102 45 44 59 66 73 114 10 36 28 70 46 88 34 34
32 66 -7 108 -57 63 -60 174 -5 229 11 11 25 37 30 58 13 47 39 76 91 103 l40
20 0 138 c0 172 9 194 93 235 31 15 57 34 57 41 0 7 9 24 19 38 11 13 27 59
36 102 8 43 23 92 31 108 9 18 14 42 11 58 -3 15 1 51 9 81 28 99 29 95 -10
141 -40 46 -61 107 -51 147 3 14 9 74 13 133 6 84 12 114 28 135 11 16 26 44
32 63 7 19 21 43 32 55 18 19 18 22 3 50 -9 18 -16 55 -16 93 -1 50 4 68 22
93 19 25 22 40 18 72 -3 23 -9 43 -14 44 -34 12 -77 49 -89 78 -18 44 -18 146
0 189 15 37 64 76 94 76 12 0 22 9 26 23 10 39 7 58 -18 90 -45 60 -43 162 4
212 l20 21 -32 93 c-30 89 -31 95 -19 154 7 34 21 80 32 103 24 52 25 114 0
145 -38 50 -43 72 -47 207 -3 124 -5 136 -25 150 -32 22 -49 74 -49 147 0 75
17 123 52 151 39 30 48 57 48 136 0 51 5 83 18 105 23 43 139 133 199 156 94
36 134 57 176 95 23 21 60 49 83 61 22 13 49 38 59 58 20 36 78 83 105 83 8 0
40 13 70 28 61 31 105 86 115 144 9 53 42 97 95 127 90 52 136 85 155 115 11
17 45 45 77 61 31 17 100 63 154 104 100 76 146 99 199 101 18 0 44 13 65 30
19 17 40 30 47 30 7 0 22 14 35 30 30 41 94 70 154 70 48 0 136 25 187 52 14
7 36 28 49 47 13 19 38 42 55 51 63 33 63 34 63 145 l0 103 -115 7 c-140 9
-177 4 -216 -29 -36 -31 -87 -46 -154 -46 -39 0 -69 -10 -137 -44 -58 -29
-111 -48 -160 -56 -57 -9 -80 -18 -104 -41 -42 -41 -80 -50 -226 -54 -110 -3
-131 -6 -154 -24 -14 -11 -40 -24 -57 -29 -77 -23 -146 -40 -206 -51 -35 -7
-91 -25 -125 -41 -43 -21 -84 -31 -141 -35 -44 -4 -102 -13 -130 -21 -27 -8
-66 -13 -85 -13 -19 0 -51 -4 -70 -10 -76 -24 -254 -8 -281 25 -9 11 -48 14
-176 14 -115 0 -173 4 -196 13 -32 14 -107 88 -107 107 0 6 -20 10 -45 10 -92
0 -149 46 -160 128 -3 26 -10 54 -16 62 -39 62 -52 79 -83 111 -19 20 -39 54
-45 75 -6 22 -26 64 -46 94 -19 30 -35 58 -35 62 0 18 -109 117 -161 146 -30
18 -80 58 -110 90 -47 51 -62 60 -101 66 -61 9 -140 48 -167 82 -11 15 -26 44
-33 65 -8 29 -16 39 -32 39 -33 0 -85 37 -102 73 -9 19 -28 38 -44 44 -35 13
-59 49 -67 99 -3 23 -17 52 -34 69 -15 17 -33 51 -39 77 -11 41 -17 49 -62 72
-27 14 -56 26 -64 26 -16 0 -94 68 -94 82 0 6 -16 36 -36 68 -27 44 -42 59
-66 64 -16 3 -43 17 -60 31 -25 21 -40 25 -94 25 -95 0 -178 31 -237 88 -38
38 -58 49 -105 59 -31 6 -77 9 -102 6 -90 -10 -135 13 -213 111 -15 19 -41 37
-57 41 -16 4 -51 26 -77 49 -27 24 -64 47 -83 51 -19 4 -69 24 -110 45 -41 21
-100 43 -130 50 -87 19 -134 57 -146 118 -6 30 -9 32 -47 32 -60 0 -167 39
-205 74 -19 17 -40 46 -47 64 -19 43 -54 46 -167 11 -63 -20 -69 -20 -120 -5
-46 13 -64 14 -111 4 -40 -9 -71 -9 -105 -2 -26 5 -59 7 -72 3 -43 -12 -114
-9 -155 7 -22 9 -60 20 -85 26 -61 14 -93 39 -139 107 -54 79 -65 124 -46 187
8 27 15 60 15 74 -1 26 -31 70 -48 70 -17 0 -72 50 -86 79 -26 52 -28 96 -5
165 l22 67 -21 22 c-40 43 -55 131 -32 192 15 40 -44 180 -99 231 -54 50 -64
91 -50 202 6 46 8 107 5 136 -6 43 -13 56 -41 79 -35 28 -55 76 -55 134 0 17
-4 35 -10 38 -5 3 -19 27 -30 53 -13 29 -32 54 -51 64 -40 24 -69 91 -80 192
-18 154 -21 171 -45 199 -37 43 -47 97 -33 166 13 63 5 121 -41 281 -10 36
-26 89 -34 119 -9 29 -16 64 -16 78 0 69 -32 134 -92 190 -7 7 -27 25 -43 40
l-30 28 -28 -55z m142 -4338 c101 -37 116 -58 117 -166 0 -45 4 -88 8 -94 4
-7 24 -19 44 -28 48 -20 90 -60 114 -109 10 -22 28 -56 39 -75 21 -38 25 -103
9 -146 -11 -29 -7 -58 31 -204 11 -41 22 -97 25 -125 8 -63 30 -99 95 -154 28
-24 58 -59 65 -77 17 -40 18 -102 3 -141 -18 -49 -3 -90 57 -146 53 -51 54
-54 75 -152 12 -58 29 -108 39 -120 10 -11 26 -40 36 -65 10 -25 31 -66 47
-93 16 -26 31 -66 34 -90 3 -23 11 -60 18 -82 7 -22 19 -67 26 -100 8 -38 23
-72 41 -93 16 -19 31 -50 35 -75 5 -32 17 -52 48 -82 56 -53 135 -216 145
-300 4 -34 17 -82 29 -107 11 -26 21 -56 21 -68 0 -12 7 -35 16 -52 9 -16 16
-49 16 -73 0 -24 -7 -57 -16 -73 -9 -17 -16 -41 -16 -54 -1 -38 -35 -100 -86
-154 -45 -47 -55 -53 -124 -67 -41 -9 -122 -18 -180 -21 -118 -5 -160 -15
-239 -57 -29 -16 -62 -29 -71 -29 -30 0 -124 -42 -145 -64 -32 -34 -68 -56
-91 -56 -12 0 -38 -14 -59 -30 -21 -17 -56 -35 -79 -42 -23 -7 -50 -18 -62
-25 -22 -14 -119 -38 -214 -52 -31 -5 -73 -17 -95 -26 -25 -11 -79 -20 -145
-24 -77 -5 -124 -14 -175 -33 -38 -14 -115 -43 -170 -64 -89 -33 -113 -38
-214 -42 -106 -4 -116 -6 -133 -28 -25 -31 -147 -68 -205 -61 -48 5 -114 44
-139 82 -39 60 -25 171 30 233 28 32 31 41 28 91 -3 49 2 66 35 131 32 64 45
78 83 97 58 30 63 42 40 89 -24 46 -27 158 -6 207 15 36 48 68 90 88 45 22 52
39 37 102 -9 34 -11 78 -7 118 3 35 8 87 10 114 6 68 20 101 64 152 88 102 99
119 106 162 4 24 13 56 21 72 16 29 61 59 91 59 11 0 14 5 9 18 -24 57 -27 92
-12 144 9 29 18 73 21 97 3 28 15 56 34 80 60 75 72 126 73 318 1 81 4 157 8
168 5 12 2 34 -6 54 -11 25 -13 53 -8 100 8 77 27 124 61 146 41 27 57 71 45
121 -10 39 -8 54 15 122 14 42 39 94 55 114 36 46 49 79 49 125 0 20 9 55 19
77 10 23 28 73 40 112 11 39 35 105 52 145 17 41 37 98 44 128 16 63 58 126
105 159 44 29 104 28 199 -6z m1658 -357 c23 -2 54 -6 69 -9 38 -10 112 -62
119 -86 3 -10 15 -22 27 -26 11 -3 45 -30 75 -60 45 -44 67 -57 126 -75 110
-33 125 -40 164 -70 20 -16 41 -29 48 -29 7 0 28 -13 48 -29 31 -24 47 -29
121 -33 95 -6 130 -22 165 -74 13 -19 27 -34 31 -34 8 0 116 -84 185 -143 35
-30 48 -35 107 -39 81 -5 117 -27 137 -85 10 -28 23 -43 42 -50 29 -11 69 -66
69 -94 0 -8 31 -45 70 -82 54 -51 82 -70 127 -84 68 -21 119 -68 128 -117 5
-26 14 -37 36 -47 40 -16 98 -88 113 -141 11 -34 21 -46 53 -63 22 -11 47 -26
56 -34 32 -26 97 -131 106 -170 12 -56 -4 -125 -37 -156 -101 -93 -156 -125
-217 -125 -37 0 -241 -87 -291 -124 -27 -20 -65 -43 -84 -52 -19 -9 -47 -27
-62 -39 -17 -14 -58 -30 -105 -40 -43 -9 -94 -21 -114 -26 -20 -5 -46 -9 -58
-9 -12 0 -39 -9 -61 -20 -22 -11 -47 -20 -57 -20 -10 0 -45 -14 -78 -30 -33
-17 -76 -30 -96 -30 -44 0 -163 -38 -204 -65 -22 -15 -46 -20 -95 -20 -89 0
-137 32 -181 119 -17 34 -40 73 -51 88 -33 42 -36 122 -7 187 20 48 21 58 10
99 -6 25 -25 60 -41 79 -17 19 -30 38 -30 43 0 4 -15 18 -34 29 -44 27 -66 75
-66 143 0 45 -4 59 -24 77 -27 25 -72 115 -101 201 -11 30 -27 67 -37 82 -10
14 -18 31 -18 36 0 5 -12 17 -26 27 -14 9 -35 38 -46 63 -46 109 -60 133 -88
159 -19 16 -36 46 -45 78 -14 45 -14 57 0 100 24 80 20 107 -18 125 -21 10
-40 31 -54 60 -20 39 -23 66 -28 206 -3 114 -9 172 -20 199 -29 67 -17 162 25
200 31 28 91 46 135 39 22 -4 59 -8 82 -9z m-3142 -84 c63 -35 88 -159 47
-241 -19 -40 -19 -40 0 -80 24 -49 27 -200 4 -255 -15 -35 -67 -75 -98 -75
-19 0 -24 -13 -33 -87 -4 -33 -19 -70 -41 -104 -19 -29 -34 -66 -34 -81 0 -16
-7 -45 -16 -66 -44 -102 -54 -139 -54 -211 0 -92 -22 -142 -83 -191 -51 -40
-67 -70 -67 -120 0 -37 -25 -125 -42 -146 -4 -6 -15 -34 -23 -62 -9 -30 -26
-59 -41 -71 -23 -18 -25 -25 -19 -60 9 -54 -17 -144 -50 -169 -14 -11 -25 -30
-25 -41 0 -37 -27 -88 -59 -112 -26 -19 -31 -29 -31 -63 0 -23 7 -50 16 -61
39 -52 38 -141 -4 -196 -10 -13 -23 -42 -30 -64 -6 -22 -21 -53 -32 -70 -11
-16 -24 -37 -29 -45 -22 -33 -71 -144 -82 -183 -6 -23 -22 -63 -35 -89 -13
-26 -24 -60 -24 -75 0 -16 -9 -44 -19 -64 -15 -28 -18 -48 -14 -96 4 -46 1
-69 -11 -94 -10 -19 -21 -77 -26 -129 -21 -215 -38 -304 -72 -385 -31 -74 -38
-82 -103 -127 -38 -26 -85 -51 -104 -54 -20 -4 -55 -16 -78 -26 -25 -11 -65
-19 -96 -19 -28 0 -97 -2 -152 -5 -92 -5 -102 -8 -130 -34 -16 -16 -64 -44
-106 -63 -63 -29 -87 -48 -143 -110 -57 -64 -77 -78 -129 -97 -34 -13 -77 -36
-96 -52 -46 -40 -71 -48 -154 -48 -88 0 -209 -35 -326 -93 -93 -47 -136 -90
-145 -145 -13 -86 -59 -111 -201 -111 -115 0 -151 12 -191 65 -33 43 -32 21
-15 404 16 356 22 403 60 450 56 71 76 173 44 233 -21 39 -21 127 -1 159 8 13
20 42 26 65 7 24 26 53 45 70 46 40 67 99 66 181 -2 72 11 114 42 148 12 13
24 46 29 80 16 103 47 194 74 223 14 15 26 33 26 39 0 7 11 39 25 72 20 47 23
64 15 85 -32 83 24 239 94 261 11 4 38 20 58 37 35 28 38 34 38 84 0 67 18
111 59 146 17 14 38 42 46 60 8 19 33 58 57 88 24 30 54 74 67 99 13 25 36 59
50 77 14 17 39 50 54 73 16 23 41 47 57 53 18 7 31 21 35 36 10 40 34 71 63
84 47 20 112 100 112 136 0 78 54 140 145 166 37 10 74 30 97 51 21 19 46 34
55 34 9 0 62 44 117 98 59 57 113 102 130 106 15 4 40 21 54 38 14 17 41 37
60 45 19 8 49 29 66 48 22 23 51 39 91 50 88 25 152 70 178 125 15 30 34 52
59 65 29 16 37 26 42 59 17 104 106 157 205 122 38 -13 48 -13 71 -1 14 7 43
17 64 21 21 3 46 14 56 24 9 9 43 30 74 46 32 16 63 38 68 49 21 40 54 67 123
100 39 18 79 35 90 38 29 6 76 -3 110 -22z m5979 -2531 c23 0 156 -132 156
-154 0 -9 4 -16 9 -16 18 0 72 -53 91 -89 51 -96 60 -119 60 -154 0 -21 5 -48
12 -60 25 -48 27 -91 7 -166 -23 -91 -24 -137 -2 -203 13 -42 14 -61 5 -107
-21 -109 -31 -147 -53 -196 -19 -43 -23 -77 -31 -244 -8 -170 -7 -199 8 -237
24 -63 17 -192 -14 -233 -20 -28 -22 -41 -21 -148 1 -65 5 -131 8 -148 9 -38
-11 -110 -40 -141 -22 -23 -22 -24 -5 -83 10 -35 14 -72 10 -88 -9 -40 -58
-124 -88 -152 -21 -20 -26 -34 -26 -75 0 -28 -6 -62 -13 -76 -7 -14 -19 -47
-26 -75 -7 -27 -16 -66 -22 -86 -5 -20 -22 -53 -39 -74 -16 -21 -30 -43 -30
-49 0 -6 -8 -27 -18 -46 -11 -19 -22 -49 -25 -67 -9 -48 -98 -222 -129 -253
l-27 -27 21 -42 c25 -51 33 -172 17 -251 -9 -41 -20 -63 -45 -87 -19 -17 -34
-36 -34 -41 0 -6 -21 -33 -46 -61 -62 -69 -122 -88 -197 -63 -46 15 -57 24
-92 79 -43 65 -32 59 -182 105 -18 5 -35 14 -39 19 -3 5 -26 19 -50 30 -52 25
-80 60 -92 117 -11 47 0 124 23 158 13 20 12 24 -2 36 -22 18 -53 87 -53 119
0 15 -9 46 -20 70 -11 24 -20 53 -20 65 0 12 -13 41 -30 65 -16 24 -32 59 -36
77 -3 18 -15 49 -25 69 -24 47 -24 105 0 176 15 44 18 75 15 154 -2 54 -8 118
-13 143 -6 25 -15 71 -21 102 -10 50 -20 67 -75 127 -71 77 -80 104 -70 195 7
72 -12 134 -50 164 -13 10 -35 35 -49 56 -14 20 -40 47 -58 59 -24 16 -38 37
-51 76 -16 49 -16 58 -2 107 8 29 20 56 25 59 18 11 11 85 -10 115 -27 38 -50
105 -50 145 0 46 -26 92 -84 151 -28 28 -55 56 -61 63 -5 6 -23 21 -39 33 -37
28 -56 75 -56 139 0 68 24 114 74 144 43 25 180 75 206 75 8 0 44 14 79 31 34
17 88 35 119 40 122 19 138 27 167 83 27 53 73 76 153 76 42 0 71 6 88 17 17
10 49 17 95 18 55 1 74 6 92 23 30 29 70 42 124 42 33 0 55 7 77 24 17 12 52
32 77 43 44 20 46 23 51 68 10 80 70 138 157 150 36 5 52 12 60 29 21 38 91
69 136 60 11 -2 28 -4 39 -4z m-2999 -1325 c17 -7 57 -37 90 -67 33 -30 80
-65 105 -78 43 -21 102 -67 162 -125 15 -15 32 -43 39 -62 6 -20 24 -47 40
-60 15 -13 31 -34 34 -46 7 -22 45 -106 92 -204 23 -48 24 -60 20 -160 -3 -59
-9 -127 -15 -150 -7 -33 -6 -45 4 -54 20 -16 43 -100 37 -132 -3 -15 2 -45 11
-67 9 -22 16 -60 16 -85 0 -39 5 -49 41 -82 25 -23 57 -70 81 -118 42 -86 45
-118 19 -239 -10 -46 -9 -49 14 -68 26 -20 55 -100 55 -152 0 -18 13 -50 30
-75 17 -24 30 -50 30 -58 0 -7 12 -23 26 -36 33 -27 54 -75 54 -120 0 -19 7
-40 14 -47 17 -13 33 -59 40 -110 12 -90 17 -99 93 -163 99 -82 136 -158 114
-232 -5 -17 -4 -80 1 -145 8 -107 12 -121 53 -205 25 -50 45 -102 45 -116 0
-43 19 -85 49 -107 34 -25 86 -112 119 -196 16 -44 22 -79 22 -143 0 -95 -15
-141 -55 -169 -14 -11 -41 -34 -58 -53 -33 -34 -114 -77 -166 -87 -17 -4 -50
-24 -73 -46 -24 -22 -77 -57 -119 -78 -70 -36 -95 -57 -141 -123 -10 -14 -39
-33 -65 -43 -27 -10 -58 -26 -71 -35 -13 -10 -37 -21 -55 -25 -18 -3 -45 -15
-60 -26 -16 -11 -56 -24 -90 -28 -34 -4 -80 -15 -102 -23 -50 -18 -170 -51
-250 -67 -33 -7 -73 -16 -89 -21 -16 -5 -39 -9 -52 -9 -14 0 -25 -8 -29 -19
-10 -32 -91 -99 -134 -111 -30 -8 -52 -8 -81 0 -36 10 -45 8 -75 -10 -29 -18
-55 -21 -192 -26 -137 -5 -163 -8 -193 -27 -25 -15 -53 -21 -100 -22 -74 -1
-142 -20 -183 -50 -21 -15 -42 -20 -80 -19 -107 3 -203 14 -247 29 -73 23
-207 45 -239 39 -17 -4 -52 -1 -78 6 -27 7 -87 13 -135 15 -61 2 -99 8 -130
23 -64 29 -131 37 -273 31 -75 -3 -84 -1 -158 34 -42 21 -91 51 -107 67 -17
17 -38 30 -48 30 -9 0 -30 7 -46 15 -18 9 -57 15 -105 15 -86 0 -135 18 -193
69 -20 17 -41 44 -47 59 l-12 29 -82 -23 c-45 -12 -103 -30 -128 -39 -64 -23
-114 -8 -184 53 -29 26 -65 55 -79 65 -14 9 -31 35 -37 57 l-12 40 -61 -1
c-79 -1 -88 2 -241 98 -115 72 -108 70 -200 58 -68 -9 -116 11 -148 63 -14 21
-60 70 -102 109 -61 57 -79 80 -91 118 -17 57 -18 107 -4 155 6 19 13 72 16
118 3 45 16 122 31 170 14 48 25 92 24 97 -2 6 -5 64 -7 130 -5 137 6 174 63
210 31 19 32 23 33 83 0 34 7 79 16 100 8 20 19 74 24 118 5 45 17 102 28 125
11 24 27 62 36 84 10 22 27 51 39 65 13 14 24 39 26 55 1 17 11 48 21 70 34
74 48 110 60 147 6 20 17 41 24 47 8 6 16 29 20 50 3 22 17 53 31 69 14 17 25
34 25 39 0 4 13 24 29 43 15 19 31 49 35 65 4 17 22 47 41 68 19 21 35 40 35
43 0 30 25 155 35 174 7 14 31 42 54 63 23 21 41 42 41 47 0 6 15 27 34 48 33
36 34 40 33 112 -2 120 45 179 150 188 29 2 53 8 53 12 0 4 19 28 41 54 37 42
143 106 176 106 5 0 29 22 52 50 32 38 53 53 91 64 65 19 88 33 125 71 17 19
48 37 73 44 23 6 59 16 81 21 21 6 72 10 112 10 41 0 92 7 114 15 28 10 86 14
197 15 87 0 169 5 185 11 15 6 54 12 87 14 87 6 93 10 106 65 25 103 81 139
201 128 9 -1 37 9 64 22 32 16 64 23 97 22 27 0 62 4 76 9 15 6 47 15 72 19
25 5 62 13 83 18 21 6 53 6 73 2 50 -12 146 6 208 37 30 15 80 29 121 34 122
15 186 27 259 49 39 12 89 27 111 32 51 13 121 37 160 53 60 26 88 26 150 0z
m-5009 -1710 c68 -20 160 -106 169 -157 16 -85 -30 -167 -106 -189 -30 -10
-41 -19 -49 -45 -10 -29 -8 -37 11 -63 27 -36 37 -123 20 -173 -6 -19 -29 -51
-50 -71 -39 -37 -78 -104 -83 -142 -1 -11 2 -37 6 -58 12 -53 -7 -109 -52
-159 l-37 -41 -5 -153 c-4 -134 -8 -156 -26 -180 -39 -52 -70 -68 -143 -72
-81 -5 -135 16 -160 61 -9 16 -30 47 -48 68 -17 22 -43 64 -57 94 -19 40 -36
60 -66 76 -23 13 -50 38 -61 55 -17 29 -71 64 -97 64 -22 0 -71 52 -83 88 -17
51 -13 94 11 142 l21 41 -21 29 c-11 16 -24 48 -29 72 -5 24 -16 70 -25 103
-25 93 -15 132 54 213 52 59 110 121 133 140 4 4 26 28 50 53 39 43 48 48 122
63 44 9 99 20 123 26 23 5 58 10 78 10 20 0 48 9 63 19 15 11 40 23 57 27 16
3 39 15 50 26 26 24 96 46 145 47 19 1 58 -6 85 -14z"/>
<path d="M19526 18875 c-6 -16 -66 -22 -66 -7 0 13 -43 7 -48 -6 -2 -7 -8 -12
-14 -12 -6 0 -8 7 -4 15 3 8 1 15 -5 15 -5 0 -12 -6 -15 -14 -4 -10 -28 -14
-92 -15 -239 -4 -319 -8 -331 -15 -8 -5 -17 -3 -22 5 -8 12 -10 12 -18 0 -7
-11 -13 -11 -32 -1 -13 7 -27 18 -31 24 -5 6 -8 1 -8 -11 0 -18 -6 -23 -24
-23 -13 0 -27 -6 -30 -12 -5 -10 -7 -10 -12 -1 -3 7 -12 9 -20 6 -8 -3 -14 0
-14 7 0 7 -6 6 -16 -4 -18 -18 -30 -20 -39 -6 -3 6 -21 10 -38 9 -18 0 -26 -3
-19 -6 18 -7 15 -22 -5 -21 -10 1 -28 -2 -40 -6 -14 -4 -23 -3 -23 3 0 13
-122 10 -132 -4 -5 -6 -12 -5 -17 5 -9 12 -11 12 -17 -3 -8 -21 -18 -22 -38
-1 -14 14 -17 14 -22 0 -6 -16 -45 -18 -55 -3 -11 16 -71 -4 -76 -24 -6 -23
-12 -24 -41 -3 -12 8 -22 10 -22 5 0 -6 -9 -11 -20 -11 -11 0 -20 -4 -20 -10
0 -5 -5 -10 -11 -10 -6 0 -9 7 -6 14 5 12 1 13 -16 7 -13 -5 -26 -23 -33 -47
-7 -21 -51 -151 -99 -289 -48 -137 -133 -387 -190 -555 -93 -277 -154 -456
-214 -627 l-22 -62 59 -103 c226 -392 369 -805 454 -1308 l33 -195 0 -360 c0
-258 -4 -380 -13 -433 l-14 -72 57 -203 c86 -307 346 -1201 351 -1206 6 -6 10
10 69 299 81 398 310 1445 425 1950 54 239 167 739 249 1110 83 371 187 833
231 1025 124 536 258 1127 262 1155 3 22 0 25 -26 22 -16 -2 -32 2 -37 10 -7
10 -9 10 -9 1 0 -8 -13 -13 -31 -13 -24 0 -30 4 -25 15 3 8 1 15 -3 15 -5 0
-11 -7 -15 -15z m-1266 -95 c0 -5 -4 -10 -10 -10 -5 0 -10 5 -10 10 0 6 5 10
10 10 6 0 10 -4 10 -10z m400 0 c0 -5 -4 -10 -10 -10 -5 0 -10 5 -10 10 0 6 5
10 10 10 6 0 10 -4 10 -10z m-480 -50 c0 -5 -4 -10 -10 -10 -5 0 -10 5 -10 10
0 6 5 10 10 10 6 0 10 -4 10 -10z"/>
<path d="M21101 18874 c0 -11 3 -14 6 -6 3 7 2 16 -1 19 -3 4 -6 -2 -5 -13z"/>
<path d="M21366 18882 c21 -13 25 -49 9 -66 -9 -9 -21 -16 -26 -16 -14 0 -11
20 4 21 6 0 2 5 -11 11 -13 6 -21 17 -18 24 9 23 -18 5 -39 -26 -19 -28 -55
-41 -55 -20 0 6 6 10 13 10 7 0 18 9 25 20 14 23 7 26 -13 8 -46 -42 -47 -42
-59 -27 -14 18 -44 18 -56 -1 -9 -13 -11 -13 -20 0 -6 10 -21 14 -46 11 -23
-2 -40 2 -46 11 -7 10 -12 8 -25 -9 -8 -13 -19 -23 -24 -23 -14 0 -11 38 4 43
7 3 5 6 -5 6 -10 1 -18 -3 -18 -9 0 -21 -20 -9 -21 13 -1 16 -2 18 -6 5 -5
-19 -23 -25 -23 -7 0 5 -5 7 -12 3 -8 -5 -5 -11 10 -17 12 -6 22 -14 22 -19 0
-11 -44 1 -48 13 -2 5 -10 9 -18 9 -8 0 -14 7 -14 15 0 9 -6 12 -16 8 -9 -3
-11 -9 -6 -12 5 -3 14 -16 21 -28 10 -19 9 -23 -3 -23 -22 0 -46 11 -46 22 0
5 5 6 12 2 7 -4 8 -3 4 4 -4 7 -13 12 -21 12 -17 0 -27 -27 -12 -33 7 -2 0 -4
-15 -4 -26 0 -34 11 -29 40 1 5 -3 6 -8 3 -5 -3 -7 -16 -5 -29 2 -12 1 -16 -2
-9 -5 10 -9 10 -20 1 -11 -9 -14 -8 -14 4 0 8 5 17 12 19 9 3 9 6 -1 12 -8 5
-14 1 -18 -13 -6 -25 -16 -26 -37 -5 -9 9 -16 11 -16 4 0 -6 -4 -9 -9 -6 -5 4
-12 0 -14 -6 -3 -7 -6 -4 -6 7 -1 15 -4 16 -13 7 -16 -16 -41 -16 -32 1 6 10
4 10 -7 0 -16 -15 -33 -17 -24 -3 3 6 2 10 -4 10 -5 0 -12 -6 -15 -12 -3 -9
-11 -6 -25 11 -20 22 -21 22 -21 3 0 -15 -6 -19 -29 -18 -16 0 -27 5 -24 10 4
5 -9 7 -29 3 -21 -3 -40 -1 -47 6 -8 8 -11 8 -11 -1 0 -7 -7 -12 -15 -12 -8 0
-15 4 -15 9 0 4 -17 7 -37 5 -22 -2 -48 4 -61 12 -22 14 -25 14 -38 -3 -11
-15 -15 -15 -23 -4 -6 9 -11 10 -15 2 -5 -7 -22 -9 -45 -5 l-37 6 -23 -104
c-13 -56 -92 -409 -176 -783 -172 -762 -190 -846 -350 -1585 -63 -289 -150
-689 -195 -890 -110 -494 -362 -1684 -510 -2410 l-122 -595 97 -345 c166 -592
409 -1438 610 -2130 359 -1234 334 -1146 931 -3330 251 -919 576 -2070 585
-2070 4 0 21 55 39 123 106 401 295 987 585 1812 70 198 184 529 255 735 226
659 649 1844 909 2548 94 255 189 514 210 575 36 104 73 205 311 852 109 296
354 1021 451 1329 39 127 74 236 77 244 3 10 0 13 -9 10 -8 -3 -13 -11 -12
-17 4 -16 -4 -14 -26 8 -14 14 -30 18 -62 16 -24 -2 -55 3 -70 10 -14 8 -30
11 -33 7 -4 -3 -12 0 -17 8 -8 12 -10 10 -6 -7 3 -13 1 -23 -4 -23 -5 0 -9 9
-9 21 0 15 -5 19 -15 15 -8 -3 -15 -1 -15 4 0 6 -9 10 -20 10 -11 0 -20 -7
-20 -15 0 -8 -4 -15 -10 -15 -5 0 -10 6 -10 14 0 18 -40 28 -57 14 -10 -8 -17
-6 -28 8 -12 16 -17 17 -34 7 -27 -17 -29 -16 -33 4 -3 16 -4 16 -20 0 -21
-21 -35 -22 -18 -2 7 9 9 19 5 23 -4 4 -10 1 -12 -5 -3 -7 -9 -13 -14 -13 -6
0 -8 4 -5 8 2 4 0 14 -5 22 -7 12 -11 12 -17 3 -4 -7 -17 -14 -27 -16 -11 -1
-26 -7 -34 -11 -11 -7 -13 -5 -8 8 5 13 0 18 -23 23 -17 3 -30 9 -30 13 0 5
-8 6 -19 3 -10 -3 -22 0 -25 6 -4 6 -16 11 -27 11 -10 0 -19 6 -19 13 0 8 -4
7 -10 -3 -9 -13 -12 -13 -23 0 -6 8 -16 15 -22 15 -34 1 -95 19 -104 29 -17
21 -20 64 -51 866 -38 998 -74 1808 -125 2810 -29 567 -98 1647 -120 1865 -2
22 -7 75 -10 118 -6 67 -9 77 -26 77 -10 0 -19 5 -19 10 0 6 4 10 9 10 17 0
21 32 6 46 -13 14 -15 13 -15 -6 0 -26 -36 -40 -81 -31 -27 5 -34 12 -34 31 0
13 -6 25 -13 28 -9 3 -12 -5 -10 -24 2 -23 -1 -29 -17 -29 -12 0 -22 9 -26 25
-4 14 -7 18 -8 8 -1 -20 -31 -31 -56 -22 -10 4 -21 1 -26 -7 -8 -12 -10 -12
-18 0 -7 11 -9 11 -13 0 -4 -11 -10 -10 -26 5 -12 10 -37 20 -57 22 -40 3 -41
1 -19 -21 9 -9 14 -19 11 -22 -3 -3 -13 2 -22 11 -20 20 -26 20 -19 2 4 -9 -3
-13 -21 -13 -18 0 -25 4 -21 13 3 8 1 14 -5 14 -6 0 -8 7 -5 16 12 30 -6 36
-29 10 -20 -23 -25 -24 -53 -14 -17 7 -35 8 -39 4 -4 -5 -2 -11 5 -13 17 -6
15 -23 -3 -23 -8 0 -15 5 -15 10 0 16 -30 12 -36 -5 -8 -21 -26 -19 -22 3 2
11 -2 16 -12 13 -16 -3 -32 -3 -93 -1 -21 1 -45 -4 -53 -11 -13 -10 -17 -10
-24 1 -5 9 -20 11 -44 7 -24 -4 -36 -2 -36 6 0 7 -7 4 -14 -5 -17 -23 -26 -23
-26 1 0 11 -9 22 -19 26 -11 3 -22 12 -25 20 -3 8 -13 15 -23 15 -11 0 -14 -3
-7 -8z m54 -42 c0 -5 -4 -10 -10 -10 -5 0 -10 5 -10 10 0 6 5 10 10 10 6 0 10
-4 10 -10z m-240 -30 c0 -5 -4 -10 -10 -10 -5 0 -10 5 -10 10 0 6 5 10 10 10
6 0 10 -4 10 -10z m120 0 c0 -5 -4 -10 -10 -10 -5 0 -10 5 -10 10 0 6 5 10 10
10 6 0 10 -4 10 -10z m120 0 c0 -5 -4 -10 -10 -10 -5 0 -10 5 -10 10 0 6 5 10
10 10 6 0 10 -4 10 -10z m920 -20 c0 -5 -4 -10 -10 -10 -5 0 -10 5 -10 10 0 6
5 10 10 10 6 0 10 -4 10 -10z m60 0 c0 -5 -4 -10 -10 -10 -5 0 -10 5 -10 10 0
6 5 10 10 10 6 0 10 -4 10 -10z m1030 -5910 c0 -5 -2 -10 -4 -10 -3 0 -8 5
-11 10 -3 6 -1 10 4 10 6 0 11 -4 11 -10z"/>
<path d="M23985 18650 c-3 -5 1 -10 10 -10 9 0 13 5 10 10 -3 6 -8 10 -10 10
-2 0 -7 -4 -10 -10z"/>
<path d="M24048 18635 c-4 -4 -4 -13 -1 -21 3 -8 0 -14 -6 -14 -6 0 -11 5 -11
10 0 6 -9 10 -21 10 -19 0 -20 -4 -15 -52 3 -29 22 -195 41 -368 19 -173 58
-504 85 -735 27 -231 68 -582 90 -779 22 -198 42 -362 44 -364 2 -2 7 21 11
50 7 60 22 123 34 153 5 11 14 49 20 84 7 35 18 73 25 85 8 11 22 62 31 111
10 50 21 95 25 100 4 6 11 32 15 60 4 27 15 62 26 76 10 15 26 62 35 106 9 43
25 90 35 105 11 14 19 33 19 41 0 9 4 19 10 22 5 3 14 24 20 46 6 23 24 62 39
87 16 26 36 72 46 102 36 114 72 188 101 207 12 8 25 25 28 38 4 14 20 46 36
72 16 25 33 62 36 80 3 18 19 47 34 63 16 17 48 70 71 118 41 84 58 111 134
215 39 53 41 62 21 83 -20 19 -56 18 -56 -2 0 -9 -6 -14 -12 -11 -7 2 -12 16
-11 31 1 17 -3 26 -13 26 -11 0 -13 -6 -9 -22 6 -17 4 -20 -10 -15 -9 4 -19 7
-21 7 -2 0 -4 9 -4 20 0 11 5 20 10 20 6 0 10 4 10 8 0 16 -45 7 -62 -13 -15
-17 -19 -18 -28 -5 -6 8 -8 23 -6 33 5 21 -12 23 -21 1 -3 -8 -12 -13 -19 -10
-8 3 -14 1 -14 -3 0 -5 6 -11 13 -14 9 -3 9 -8 -2 -18 -10 -10 -15 -11 -18 -2
-2 7 -12 9 -20 6 -13 -5 -15 -2 -10 11 5 13 3 16 -11 12 -25 -8 -46 9 -38 29
6 15 4 16 -10 5 -13 -12 -17 -11 -25 1 -7 11 -9 9 -9 -8 0 -20 -5 -23 -36 -23
-35 0 -73 25 -59 38 4 4 10 1 12 -5 3 -7 11 -13 19 -13 22 0 5 28 -22 33 -13
2 -24 1 -24 -3 0 -5 -16 -8 -35 -8 -24 0 -35 5 -35 15 0 8 -4 11 -10 8 -5 -3
-10 -15 -10 -26 0 -12 -7 -19 -20 -19 -11 0 -20 6 -20 13 0 8 -11 24 -24 36
-18 17 -25 19 -29 9 -4 -10 -8 -10 -16 2 -9 13 -11 13 -11 -2 0 -21 -16 -24
-24 -5 -5 10 -7 10 -12 0 -10 -22 -25 -14 -21 10 2 12 2 16 0 10 -7 -19 -26
-16 -52 8 l-22 21 -6 -21 c-7 -29 -41 -27 -55 3 -11 27 -41 45 -32 21 4 -9 -3
-16 -20 -21 -30 -7 -56 0 -56 17 0 6 7 9 15 5 9 -3 15 0 15 8 0 9 -7 12 -20 9
-11 -3 -20 -12 -20 -19 0 -22 -18 -16 -22 7 -2 11 -6 18 -10 14z m-28 -45 c0
-5 -4 -10 -10 -10 -5 0 -10 5 -10 10 0 6 5 10 10 10 6 0 10 -4 10 -10z m50
-10 c0 -5 -4 -10 -10 -10 -5 0 -10 5 -10 10 0 6 5 10 10 10 6 0 10 -4 10 -10z
m380 -50 c0 -5 -4 -10 -10 -10 -5 0 -10 5 -10 10 0 6 5 10 10 10 6 0 10 -4 10
-10z m310 -65 c0 -8 -4 -15 -10 -15 -5 0 -10 7 -10 15 0 8 5 15 10 15 6 0 10
-7 10 -15z m190 -5 c0 -5 -4 -10 -10 -10 -5 0 -10 5 -10 10 0 6 5 10 10 10 6
0 10 -4 10 -10z m-30 -30 c0 -5 -4 -10 -10 -10 -5 0 -10 5 -10 10 0 6 5 10 10
10 6 0 10 -4 10 -10z m60 -20 c0 -5 -4 -10 -10 -10 -5 0 -10 5 -10 10 0 6 5
10 10 10 6 0 10 -4 10 -10z"/>
<path d="M25110 18451 c0 -6 4 -13 10 -16 6 -3 7 1 4 9 -7 18 -14 21 -14 7z"/>
<path d="M25470 18336 c-12 -20 -30 -42 -39 -49 -10 -6 -35 -39 -56 -72 -21
-33 -47 -66 -57 -73 -10 -7 -18 -18 -18 -24 0 -5 -8 -22 -19 -36 -29 -43 -67
-114 -79 -152 -7 -19 -25 -51 -42 -70 -16 -19 -30 -42 -30 -50 0 -8 -16 -42
-36 -74 -19 -33 -48 -85 -65 -117 -16 -32 -38 -66 -48 -76 -20 -18 -43 -79
-56 -143 -4 -19 -24 -62 -46 -96 -21 -33 -39 -64 -39 -69 0 -4 -9 -29 -21 -54
-43 -93 -47 -107 -58 -181 -8 -47 -21 -89 -36 -111 -13 -20 -31 -72 -40 -115
-17 -82 -37 -154 -60 -214 -7 -19 -16 -57 -19 -84 -4 -27 -12 -59 -20 -70 -7
-12 -21 -71 -30 -131 -24 -164 -37 -229 -46 -240 -21 -25 -57 -759 -41 -835 7
-35 19 2 538 1630 79 250 208 651 285 890 196 609 207 644 204 648 -2 2 -14
-13 -26 -32z"/>
<path d="M17463 16617 c4 -10 34 -111 67 -225 104 -359 199 -668 199 -651 2
31 -41 246 -70 359 -46 174 -165 501 -191 525 -8 7 -9 5 -5 -8z"/>
<path d="M23913 13800 c0 -25 2 -35 4 -22 2 12 2 32 0 45 -2 12 -4 2 -4 -23z"/>
<path d="M23923 13685 c0 -38 3 -101 7 -140 l7 -70 0 70 c0 39 -3 102 -7 140
l-7 70 0 -70z"/>
<path d="M30887 32224 c-8 -8 1 -24 14 -24 5 0 9 7 9 15 0 15 -12 20 -23 9z"/>
<path d="M30960 32030 c0 -5 5 -10 10 -10 6 0 10 5 10 10 0 6 -4 10 -10 10 -5
0 -10 -4 -10 -10z"/>
<path d="M30965 32000 c3 -5 8 -10 11 -10 2 0 4 5 4 10 0 6 -5 10 -11 10 -5 0
-7 -4 -4 -10z"/>
<path d="M31050 31760 c0 -5 5 -10 10 -10 6 0 10 5 10 10 0 6 -4 10 -10 10 -5
0 -10 -4 -10 -10z"/>
<path d="M31770 30530 c0 -5 7 -10 15 -10 8 0 15 5 15 10 0 6 -7 10 -15 10 -8
0 -15 -4 -15 -10z"/>
<path d="M33130 25560 c0 -5 5 -10 10 -10 6 0 10 5 10 10 0 6 -4 10 -10 10 -5
0 -10 -4 -10 -10z"/>
<path d="M10250 24347 c0 -12 -14 -14 -76 -11 -55 3 -73 1 -68 -8 4 -6 3 -8
-4 -5 -14 9 -43 -3 -36 -14 3 -5 -2 -9 -10 -9 -9 0 -16 -6 -16 -12 0 -9 -4 -8
-10 2 -9 13 -11 13 -19 1 -14 -21 -59 -23 -64 -3 -4 14 -6 13 -12 -6 -6 -18
-10 -20 -21 -11 -11 9 -18 8 -32 -3 -9 -9 -26 -18 -38 -22 -15 -4 -25 -22 -36
-59 -8 -28 -74 -239 -146 -467 -71 -228 -173 -559 -227 -735 -312 -1033 -835
-2684 -1165 -3679 -137 -413 -248 -751 -247 -752 1 -1 49 22 107 50 58 28 162
74 231 101 l126 50 48 120 c193 483 466 896 841 1273 l143 144 40 116 c21 65
83 236 136 382 93 257 200 552 292 810 136 380 356 1081 508 1615 63 220 133
463 155 540 23 77 61 214 86 303 43 156 44 164 27 178 -10 7 -24 11 -32 8 -8
-2 -24 3 -37 11 -13 9 -24 11 -24 5 0 -5 -5 -10 -11 -10 -6 0 -8 7 -5 16 3 8
2 12 -4 9 -5 -3 -19 -1 -30 5 -13 7 -20 7 -20 0 0 -5 -5 -10 -11 -10 -6 0 -9
8 -7 18 4 14 -1 17 -36 14 -58 -4 -119 -2 -125 4 -3 3 1 9 9 14 11 7 8 10 -12
10 -16 0 -28 -4 -28 -10 0 -5 -9 -10 -20 -10 -11 0 -20 6 -20 14 0 7 -9 16
-20 19 -11 3 -20 1 -20 -4 0 -14 -27 -10 -44 7 -13 13 -16 13 -16 1z"/>
<path d="M10750 24266 c0 -2 9 -6 20 -9 11 -3 18 -1 14 4 -5 9 -34 13 -34 5z"/>
<path d="M11835 20954 c-22 -2 -85 -9 -139 -14 -485 -50 -934 -192 -1371 -435
-93 -52 -330 -207 -410 -269 -248 -192 -489 -438 -672 -686 -70 -96 -203 -295
-203 -305 0 -3 -11 -23 -25 -45 -33 -52 -158 -302 -185 -369 -11 -28 -29 -73
-40 -101 -23 -58 -24 -58 75 -30 88 25 347 74 485 92 159 20 689 17 852 -5
639 -86 1207 -315 1716 -693 l112 -84 113 84 c515 383 1107 619 1752 698 145
17 684 17 815 0 142 -19 406 -69 485 -92 99 -28 98 -28 75 30 -11 28 -29 73
-40 101 -27 67 -152 317 -185 369 -14 22 -25 42 -25 45 0 10 -133 209 -203
305 -183 248 -424 494 -672 686 -80 62 -317 217 -410 269 -528 294 -1064 439
-1655 450 -113 1 -223 1 -245 -1z"/>
<path d="M8495 18445 c-27 -13 -54 -25 -58 -25 -18 0 -252 -114 -363 -175
-492 -275 -918 -669 -1209 -1120 -32 -49 -69 -106 -81 -125 -33 -53 -159 -290
-174 -330 -7 -19 -17 -40 -22 -46 -28 -37 -146 -368 -187 -524 -39 -150 -87
-424 -101 -574 -13 -150 -13 -487 0 -631 23 -244 96 -581 174 -803 71 -203
188 -458 276 -602 21 -36 47 -78 56 -95 43 -76 166 -251 253 -359 270 -337
574 -595 986 -838 127 -74 500 -246 511 -235 2 2 -9 60 -25 128 -66 279 -89
459 -98 754 -17 572 94 1104 340 1637 87 187 245 447 383 629 41 54 74 100 74
103 0 3 -29 43 -63 88 -387 504 -638 1124 -713 1765 -24 197 -24 639 0 833 17
144 73 432 100 523 18 56 13 58 -59 22z"/>
<path d="M6212 13022 c-94 -285 -172 -525 -172 -533 1 -8 26 -32 58 -53 373
-254 666 -446 675 -443 11 3 225 616 226 648 1 9 -28 49 -64 90 -193 218 -400
521 -524 767 -12 23 -23 42 -24 42 -1 0 -80 -233 -175 -518z"/>
<path d="M11990 12389 c-64 -55 -258 -189 -375 -259 -481 -290 -1008 -460
-1575 -507 -157 -13 -512 -7 -680 12 -149 16 -434 69 -532 99 -68 20 -69 26
45 -229 91 -203 250 -470 380 -637 34 -44 72 -94 83 -110 88 -120 355 -385
524 -519 393 -312 791 -515 1275 -649 649 -180 1377 -154 2030 74 897 312
1648 997 2024 1846 23 52 51 115 63 140 26 56 39 100 30 100 -4 0 -29 -7 -57
-16 -74 -22 -375 -81 -495 -96 -142 -18 -719 -18 -855 0 -664 87 -1246 324
-1763 719 -45 35 -83 63 -85 63 -1 -1 -18 -14 -37 -31z"/>
<path d="M31745 24070 c-3 -5 0 -10 9 -10 8 0 23 -3 33 -7 17 -6 17 -6 1 10
-19 19 -34 22 -43 7z"/>
<path d="M31905 24059 c-11 -16 -1 -19 13 -3 7 8 8 14 3 14 -5 0 -13 -5 -16
-11z"/>
<path d="M32122 24035 c0 -16 2 -22 5 -12 2 9 2 23 0 30 -3 6 -5 -1 -5 -18z"/>
<path d="M31975 24040 c-4 -6 3 -10 14 -10 25 0 27 6 6 13 -8 4 -17 2 -20 -3z"/>
<path d="M32119 23983 c-13 -16 -12 -17 4 -4 16 13 21 21 13 21 -2 0 -10 -8
-17 -17z"/>
<path d="M32147 23983 c-10 -9 -8 -43 2 -43 5 0 11 11 13 25 5 24 -2 32 -15
18z"/>
<path d="M30825 27099 c-4 -6 -5 -13 -2 -16 7 -7 27 6 27 18 0 12 -17 12 -25
-2z"/>
<path d="M30781 26953 c-1 -7 8 -17 19 -23 14 -7 20 -7 20 0 0 5 -6 10 -14 10
-8 0 -17 6 -19 13 -4 9 -6 9 -6 0z"/>
<path d="M30860 26910 c0 -5 5 -10 11 -10 5 0 7 5 4 10 -3 6 -8 10 -11 10 -2
0 -4 -4 -4 -10z"/>
<path d="M30960 25425 c0 -9 9 -15 21 -15 18 0 19 2 5 15 -8 8 -17 15 -20 15
-3 0 -6 -7 -6 -15z"/>
<path d="M31040 25069 c0 -5 5 -7 10 -4 6 3 10 8 10 11 0 2 -4 4 -10 4 -5 0
-10 -5 -10 -11z"/>
<path d="M31080 25040 c0 -5 5 -10 10 -10 6 0 10 5 10 10 0 6 -4 10 -10 10 -5
0 -10 -4 -10 -10z"/>
<path d="M28400 24460 c0 -5 5 -10 10 -10 6 0 10 5 10 10 0 6 -4 10 -10 10 -5
0 -10 -4 -10 -10z"/>
<path d="M28390 24190 c0 -5 5 -10 10 -10 6 0 10 5 10 10 0 6 -4 10 -10 10 -5
0 -10 -4 -10 -10z"/>
<path d="M30740 21825 c0 -5 5 -17 10 -25 5 -8 10 -10 10 -5 0 6 -5 17 -10 25
-5 8 -10 11 -10 5z"/>
<path d="M30600 21750 c0 -5 5 -10 10 -10 6 0 10 5 10 10 0 6 -4 10 -10 10 -5
0 -10 -4 -10 -10z"/>
<path d="M30748 21743 c-10 -2 -18 -9 -18 -15 0 -5 7 -8 15 -4 9 3 15 0 15 -9
0 -8 4 -15 10 -15 5 0 9 11 8 25 -1 14 -5 24 -8 24 -3 -1 -13 -3 -22 -6z"/>
<path d="M30710 21700 c0 -5 5 -10 10 -10 6 0 10 5 10 10 0 6 -4 10 -10 10 -5
0 -10 -4 -10 -10z"/>
<path d="M30660 21600 c0 -5 5 -10 10 -10 6 0 10 5 10 10 0 6 -4 10 -10 10 -5
0 -10 -4 -10 -10z"/>
<path d="M29850 20560 c0 -11 5 -20 10 -20 6 0 10 6 10 14 0 8 6 17 13 19 6 3
2 6 -10 6 -17 1 -23 -5 -23 -19z"/>
<path d="M29780 20450 c0 -13 11 -13 30 0 12 8 11 10 -7 10 -13 0 -23 -4 -23
-10z"/>
<path d="M29815 20401 c-11 -11 -3 -18 20 -18 14 0 25 5 25 11 0 11 -36 17
-45 7z"/>
<path d="M29830 20370 c0 -5 5 -10 11 -10 5 0 7 5 4 10 -3 6 -8 10 -11 10 -2
0 -4 -4 -4 -10z"/>
<path d="M29830 20340 c0 -5 5 -10 10 -10 6 0 10 5 10 10 0 6 -4 10 -10 10 -5
0 -10 -4 -10 -10z"/>
<path d="M30480 20310 c0 -5 5 -10 10 -10 6 0 10 5 10 10 0 6 -4 10 -10 10 -5
0 -10 -4 -10 -10z"/>
<path d="M30800 20250 c0 -5 5 -10 10 -10 6 0 10 5 10 10 0 6 -4 10 -10 10 -5
0 -10 -4 -10 -10z"/>
<path d="M30620 20240 c0 -5 5 -10 10 -10 6 0 10 5 10 10 0 6 -4 10 -10 10 -5
0 -10 -4 -10 -10z"/>
<path d="M30809 21297 c-9 -20 -9 -31 -1 -39 8 -8 10 -6 8 8 -2 11 3 21 10 24
9 3 10 10 4 19 -7 12 -11 9 -21 -12z"/>
<path d="M30860 21180 c-12 -7 -10 -9 8 -7 12 0 22 5 22 9 0 11 -12 10 -30 -2z"/>
<path d="M30928 20943 c6 -2 18 -2 25 0 6 3 1 5 -13 5 -14 0 -19 -2 -12 -5z"/>
<path d="M30827 20889 c7 -7 15 -10 18 -7 3 3 -2 9 -12 12 -14 6 -15 5 -6 -5z"/>
<path d="M30987 20841 c-3 -14 -1 -18 9 -14 16 6 18 19 5 27 -5 3 -11 -3 -14
-13z"/>
<path d="M31080 19730 c-14 -4 -48 -8 -77 -9 -32 -1 -65 -9 -85 -20 -18 -11
-51 -23 -73 -27 -61 -11 -123 -43 -142 -75 -9 -15 -39 -40 -67 -55 -28 -15
-56 -35 -62 -43 -10 -14 -68 -77 -132 -143 -12 -12 -28 -29 -35 -36 -6 -7 -31
-32 -54 -56 -24 -23 -43 -46 -43 -50 0 -4 -22 -44 -49 -89 -27 -45 -57 -109
-66 -142 -10 -33 -24 -69 -31 -80 -8 -11 -14 -29 -14 -40 0 -11 -6 -29 -14
-40 -7 -11 -16 -31 -19 -45 -3 -14 -15 -34 -25 -46 -10 -11 -22 -31 -25 -44
-3 -14 -13 -53 -22 -87 -8 -35 -22 -91 -30 -125 -34 -137 -44 -170 -59 -193
-9 -13 -16 -46 -16 -72 0 -26 -5 -66 -10 -88 -5 -22 -12 -121 -16 -220 -4
-104 -12 -197 -20 -220 -11 -34 -11 -47 1 -80 8 -22 14 -78 15 -125 0 -47 5
-112 11 -145 6 -33 12 -105 15 -159 3 -71 9 -106 21 -125 9 -14 23 -53 30 -86
43 -207 77 -317 106 -350 10 -11 20 -31 23 -45 2 -14 22 -60 44 -103 22 -42
40 -84 40 -92 0 -8 18 -50 41 -93 37 -72 51 -93 109 -160 10 -13 29 -37 42
-55 22 -32 45 -60 83 -102 32 -34 115 -146 115 -155 0 -4 14 -13 31 -20 17 -7
47 -29 67 -49 20 -20 46 -43 58 -51 35 -25 113 -92 165 -143 72 -72 89 -168
42 -249 -30 -49 -141 -109 -268 -143 -85 -23 -119 -34 -160 -54 -22 -11 -55
-25 -72 -31 -18 -7 -45 -23 -60 -36 -26 -23 -80 -44 -113 -44 -8 0 -26 -9 -40
-20 -14 -11 -30 -20 -36 -20 -6 0 -23 -9 -38 -21 -14 -11 -50 -33 -79 -48 -30
-16 -66 -47 -85 -72 -18 -24 -54 -55 -80 -69 -45 -23 -60 -36 -125 -109 -16
-17 -35 -31 -43 -31 -8 0 -14 -4 -14 -8 0 -9 -55 -72 -140 -161 -30 -32 -65
-69 -76 -82 -12 -13 -33 -34 -46 -46 -14 -13 -28 -35 -31 -51 -3 -15 -27 -51
-54 -80 -58 -62 -118 -156 -127 -199 -7 -30 -23 -51 -79 -100 -13 -13 -28 -38
-31 -56 -3 -19 -15 -43 -25 -54 -11 -11 -27 -42 -35 -69 -18 -53 -23 -66 -53
-134 -12 -25 -28 -79 -38 -120 -18 -79 -36 -116 -67 -138 -10 -7 -18 -23 -18
-35 0 -12 -14 -71 -30 -132 -61 -225 -80 -301 -80 -330 0 -17 -5 -46 -10 -65
-15 -48 -15 -684 -1 -730 6 -19 11 -49 11 -67 0 -17 4 -34 9 -37 5 -3 15 -30
21 -58 7 -29 16 -58 21 -64 5 -5 15 -37 22 -70 18 -77 44 -132 78 -166 15 -15
37 -50 50 -78 12 -27 26 -50 29 -50 4 0 19 -21 33 -47 14 -27 34 -55 45 -64
10 -9 25 -25 33 -35 13 -19 147 -104 162 -104 4 0 30 -16 58 -35 28 -19 61
-35 73 -35 23 0 63 -23 83 -47 13 -17 107 -40 217 -54 43 -6 92 -17 108 -25
43 -22 624 -22 667 1 27 14 127 35 267 55 74 11 90 17 129 46 17 12 55 27 85
34 30 7 74 25 98 40 23 15 59 31 79 35 20 3 50 17 67 29 17 13 72 42 121 66
50 23 106 57 125 75 19 17 56 44 83 59 26 15 54 38 63 51 9 13 35 36 59 50 30
17 53 41 71 75 16 30 39 55 58 64 17 9 42 27 55 41 13 14 27 25 32 25 5 0 15
13 23 29 22 42 55 59 144 71 67 9 92 8 144 -5 90 -22 106 -33 149 -97 48 -70
60 -142 36 -215 -8 -26 -18 -64 -22 -83 -4 -19 -29 -72 -56 -118 -27 -45 -49
-85 -49 -88 0 -11 -90 -128 -134 -174 -23 -25 -52 -59 -65 -77 -12 -18 -36
-40 -52 -50 -18 -11 -33 -29 -36 -46 -8 -39 -344 -374 -407 -405 -26 -13 -63
-41 -83 -63 -20 -21 -45 -41 -56 -45 -12 -4 -35 -22 -53 -40 -17 -19 -46 -37
-63 -40 -17 -4 -36 -15 -42 -25 -5 -10 -30 -30 -54 -45 -25 -14 -45 -27 -45
-28 0 -6 119 20 126 27 4 4 16 7 27 7 10 0 31 8 45 19 34 24 95 41 147 41 22
0 56 8 75 19 19 10 55 22 80 26 40 7 70 18 135 52 11 5 30 15 43 21 12 7 30
16 40 21 9 5 51 19 92 31 84 24 116 38 142 60 10 7 50 27 90 43 40 16 80 34
88 41 8 7 38 24 65 37 28 13 73 38 102 56 28 18 75 42 103 53 29 11 72 34 95
50 24 17 47 30 50 30 4 0 25 16 48 35 23 20 52 38 64 41 13 4 37 19 54 35 17
16 38 29 46 29 8 0 33 16 56 35 22 19 48 35 58 35 9 0 28 15 43 34 14 19 35
38 46 41 11 4 31 16 44 28 77 71 105 96 154 135 30 23 61 42 68 42 8 0 14 5
14 10 0 14 55 63 111 100 25 16 59 49 76 73 17 24 47 52 67 62 20 11 36 23 36
28 0 11 51 80 67 90 28 18 100 94 113 119 7 16 25 35 39 45 14 9 52 43 84 74
32 32 63 62 70 66 6 4 20 24 30 44 11 20 32 51 49 69 16 18 41 52 55 74 14 23
30 43 34 46 5 3 19 31 33 62 15 33 47 78 79 110 48 48 87 109 87 136 0 6 16
25 36 44 41 38 89 119 99 165 3 17 18 44 33 60 14 15 38 53 53 83 15 31 34 62
43 69 9 7 16 23 16 35 0 12 11 37 24 57 23 33 96 233 96 262 0 6 16 35 35 63
39 56 58 101 110 262 19 56 38 108 42 115 14 21 34 80 48 142 32 135 53 232
59 275 4 25 14 59 23 75 24 46 44 140 53 251 4 58 14 113 24 132 11 21 16 57
16 114 0 46 7 114 15 153 18 84 22 729 5 798 -6 23 -14 92 -19 152 -5 61 -16
139 -25 175 -8 36 -15 88 -16 116 0 57 -30 182 -54 231 -9 17 -21 60 -26 95
-23 157 -77 363 -110 421 -6 9 -17 47 -26 84 -8 37 -26 85 -38 107 -13 23 -29
63 -35 91 -7 27 -23 60 -37 73 -16 16 -41 76 -74 178 -35 107 -64 177 -97 231
-27 43 -59 101 -72 128 -14 28 -28 52 -33 56 -12 8 -68 120 -68 137 0 7 -22
36 -49 63 -29 29 -53 63 -56 81 -7 31 -20 48 -96 127 -20 20 -52 72 -73 114
-20 42 -47 84 -59 92 -13 8 -33 33 -46 55 -12 22 -26 40 -31 40 -4 0 -16 17
-26 38 -9 20 -36 56 -58 79 -23 23 -47 48 -54 55 -6 7 -50 51 -97 97 -47 46
-85 87 -85 90 0 3 -13 12 -28 19 -16 7 -35 25 -42 40 -8 15 -31 45 -52 67 -21
22 -57 60 -81 85 -23 25 -64 61 -90 79 -26 19 -47 38 -47 42 0 5 -25 24 -55
44 -30 19 -55 39 -55 44 0 6 -21 25 -47 42 -27 18 -52 38 -58 44 -5 7 -25 22
-43 35 -19 12 -51 40 -71 60 -20 21 -62 49 -93 64 -31 15 -63 38 -72 51 -15
22 -46 35 -46 19 0 -4 13 -32 29 -63 40 -79 61 -129 61 -149 0 -9 9 -30 20
-47 11 -16 22 -56 26 -88 4 -31 10 -60 15 -63 16 -10 28 -71 60 -294 16 -119
13 -738 -5 -813 -8 -34 -17 -90 -20 -125 -3 -34 -14 -84 -25 -110 -11 -26 -22
-67 -26 -92 -3 -25 -13 -59 -21 -75 -16 -31 -54 -140 -54 -157 0 -5 -15 -41
-34 -81 -18 -40 -36 -86 -40 -104 -4 -17 -18 -43 -30 -56 -13 -14 -27 -38 -30
-54 -7 -27 -46 -87 -71 -108 -6 -5 -26 -32 -45 -60 -35 -51 -40 -56 -131 -135
-29 -25 -66 -57 -83 -72 -17 -16 -36 -28 -43 -28 -7 0 -13 -4 -13 -9 0 -4 -30
-23 -67 -41 -38 -19 -74 -40 -81 -47 -29 -29 -62 -37 -182 -43 -142 -8 -297 3
-337 24 -16 8 -41 26 -56 40 -15 14 -36 26 -45 26 -9 0 -30 9 -47 20 -16 12
-44 27 -61 36 -17 8 -36 25 -43 37 -6 12 -28 32 -47 45 -19 12 -40 33 -45 46
-6 13 -22 29 -34 36 -13 7 -31 28 -41 46 -10 19 -21 34 -24 34 -3 0 -12 10
-20 23 -41 65 -41 262 1 336 12 23 26 41 30 41 4 0 33 38 65 84 31 47 62 87
69 90 7 2 22 25 35 50 12 26 31 51 41 57 10 5 19 15 19 22 0 7 15 35 34 63 45
67 77 143 105 249 6 23 20 51 31 62 11 12 24 41 30 65 5 24 17 72 26 108 9 36
20 106 24 157 5 50 13 100 19 111 13 25 14 236 1 307 -5 28 -12 73 -16 100 -3
28 -12 65 -20 83 -8 17 -18 56 -21 84 -5 39 -14 60 -33 80 -15 14 -33 41 -40
60 -33 81 -129 196 -193 229 -20 11 -49 33 -64 49 -14 17 -31 30 -37 30 -6 0
-24 11 -40 25 -16 13 -45 27 -65 31 -20 4 -49 14 -66 24 -16 10 -59 20 -95 23
-36 3 -72 7 -80 10 -8 3 -26 1 -40 -3z"/>
<path d="M23912 49293 c19 -27 112 -158 208 -293 95 -135 181 -256 191 -269
19 -23 19 -18 19 293 l0 316 -226 0 -226 0 34 -47z"/>
<path d="M24776 48073 c27 -38 129 -183 229 -323 100 -140 201 -283 225 -317
23 -35 44 -63 46 -63 2 0 4 173 4 385 l0 385 -276 0 -275 0 47 -67z"/>
<path d="M16960 47700 c0 -137 2 -250 4 -250 5 0 72 95 230 328 l117 172 -175
0 -176 0 0 -250z"/>
<path d="M15520 45508 l0 -173 21 30 c11 17 63 91 115 166 51 75 94 139 94
143 0 3 -52 6 -115 6 l-115 0 0 -172z"/>
<path d="M26878 45103 c125 -179 242 -346 372 -528 86 -121 252 -356 369 -522
117 -167 215 -303 217 -303 2 0 4 311 4 690 l0 690 -491 0 -490 0 19 -27z"/>
<path d="M11840 40993 c0 -564 2 -1024 3 -1022 2 2 35 49 72 104 117 171 436
636 490 715 28 41 110 161 181 265 407 595 475 694 577 841 42 62 77 115 77
118 0 3 -315 6 -700 6 l-700 0 0 -1027z"/>
<path d="M29124 41928 c35 -51 120 -173 190 -272 l126 -178 0 271 0 271 -190
0 -190 0 64 -92z"/>
<path d="M31650 38353 c0 -5 9 -19 20 -33 l20 -25 0 33 c0 25 -4 32 -20 32
-11 0 -20 -3 -20 -7z"/>
<path d="M31980 37864 c0 -8 226 -362 292 -458 l48 -70 0 267 0 267 -170 0
c-93 0 -170 -3 -170 -6z"/>
<path d="M4670 10770 l0 -290 482 0 c310 0 479 3 472 10 -15 15 -242 149 -309
183 -33 16 -73 39 -90 51 -16 11 -47 29 -68 38 -21 10 -53 28 -70 40 -18 13
-54 37 -82 54 -27 17 -104 64 -170 106 -66 41 -130 80 -142 87 l-23 12 0 -291z"/>
<path d="M36755 10672 c-22 -16 -82 -53 -133 -81 -107 -59 -181 -105 -447
-276 -104 -67 -239 -152 -300 -190 -60 -38 -139 -87 -175 -110 -36 -23 -99
-64 -140 -90 -41 -26 -115 -74 -163 -106 -49 -33 -96 -59 -106 -59 -9 0 -76
-40 -149 -89 -72 -49 -173 -113 -224 -143 l-92 -53 983 -3 c542 -1 986 -1 988
1 2 2 2 279 1 616 l-3 612 -40 -29z"/>
<path d="M7360 9250 l0 -170 282 0 281 0 -67 43 c-37 23 -118 76 -179 117 -93
62 -298 180 -313 180 -2 0 -4 -76 -4 -170z"/>
<path d="M32440 7984 c-19 -14 -111 -71 -205 -126 -93 -56 -226 -138 -295
-181 -303 -194 -352 -224 -465 -294 l-119 -73 562 0 562 0 0 350 c0 193 -1
350 -2 350 -2 -1 -19 -12 -38 -26z"/>
<path d="M11840 6320 l0 -360 583 0 582 0 -100 66 c-55 36 -125 79 -155 96
-51 28 -110 65 -258 159 -31 20 -88 55 -127 78 -38 23 -117 71 -175 107 -58
36 -118 73 -134 82 -16 9 -59 37 -95 60 -36 24 -78 50 -93 58 l-28 15 0 -361z"/>
<path d="M29405 6085 c-10 -9 -33 -19 -50 -24 -25 -7 -283 -168 -585 -367 -36
-23 -78 -48 -95 -55 -16 -8 -57 -33 -90 -56 l-59 -43 457 0 457 0 0 280 c0
154 -3 280 -7 280 -5 0 -17 -7 -28 -15z"/>
<path d="M28328 5423 c6 -2 18 -2 25 0 6 3 1 5 -13 5 -14 0 -19 -2 -12 -5z"/>
<path d="M15680 4020 l0 -300 487 0 c303 0 483 4 478 9 -6 6 -50 34 -100 64
-49 30 -139 85 -200 122 -168 104 -271 167 -333 204 -32 18 -79 48 -107 66
-27 18 -82 51 -122 74 -40 23 -75 46 -78 51 -21 34 -25 -14 -25 -290z"/>
<path d="M25715 3784 c-22 -13 -46 -24 -53 -24 -7 0 -91 -52 -187 -116 -96
-64 -203 -130 -237 -147 -69 -35 -489 -296 -660 -411 -182 -122 -352 -228
-385 -243 -18 -7 -102 -57 -185 -110 -84 -53 -173 -108 -198 -122 l-45 -26
994 -3 c547 -1 996 -1 998 1 2 2 2 279 1 615 l-3 611 -40 -25z"/>
<path d="M18400 2355 l0 -295 486 0 486 0 -51 34 c-28 19 -86 53 -128 77 -73
39 -125 71 -283 174 -36 23 -76 48 -90 55 -25 12 -116 69 -233 145 -65 43
-173 105 -182 105 -3 0 -5 -133 -5 -295z"/>
</g>
</svg>
