<?xml version="1.0" standalone="no"?>
<!DOCTYPE svg PUBLIC "-//W3C//DTD SVG 20010904//EN"
 "http://www.w3.org/TR/2001/REC-SVG-20010904/DTD/svg10.dtd">
<svg version="1.0" xmlns="http://www.w3.org/2000/svg"
 width="1024.000000pt" height="615.000000pt" viewBox="0 0 1024.000000 615.000000"
 preserveAspectRatio="xMidYMid meet">
<metadata>
Created by potrace 1.15, written by Peter Selinger 2001-2017
</metadata>
<g transform="translate(0.000000,615.000000) scale(0.100000,-0.100000)"
fill="#000000" stroke="none">
<path d="M0 3075 l0 -3075 5120 0 5120 0 0 3075 0 3075 -5120 0 -5120 0 0
-3075z m2367 1168 c21 -19 453 -626 453 -637 0 -4 -39 -5 -87 -4 l-86 3 -156
221 c-86 121 -160 222 -166 224 -10 3 -299 -404 -373 -527 l-43 -71 29 -99
c74 -244 375 -1209 381 -1220 4 -8 381 1182 399 1263 3 12 -47 14 -352 14
-196 0 -356 3 -356 6 0 3 20 37 45 75 l45 69 362 0 c389 0 402 -2 425 -51 10
-20 9 -34 -1 -70 -19 -59 -203 -655 -366 -1179 -72 -234 -139 -433 -147 -442
-18 -20 -64 -24 -93 -8 -20 11 -16 -1 -208 620 -61 195 -156 503 -212 683 -80
258 -101 337 -97 367 4 30 60 118 243 382 130 189 249 355 262 371 30 31 70
36 99 10z m2655 -704 c128 -27 267 -126 335 -241 96 -159 93 -393 -7 -548 -44
-68 -137 -153 -206 -187 -93 -47 -140 -56 -267 -52 -110 4 -116 5 -199 47
-188 92 -298 266 -298 467 0 233 162 450 381 509 65 18 189 20 261 5z m928
-10 c47 -21 150 -114 150 -136 0 -6 -16 -24 -35 -38 l-34 -27 -49 50 c-81 84
-172 94 -239 27 -26 -26 -33 -41 -33 -73 0 -86 17 -108 183 -234 128 -98 175
-148 209 -224 26 -58 28 -141 5 -195 -23 -55 -86 -119 -142 -145 -73 -35 -182
-34 -253 2 -51 25 -121 94 -154 152 l-18 30 42 25 43 25 32 -48 c59 -87 139
-128 216 -111 102 24 161 114 136 207 -13 46 -114 149 -253 259 -115 90 -150
148 -150 245 0 104 54 181 153 216 55 20 139 17 191 -7z m-1682 -51 l3 -48
-235 0 -236 0 0 -155 0 -155 232 -2 231 -3 0 -45 0 -45 -231 -3 -232 -2 0
-195 0 -195 229 0 229 0 4 -46 c2 -25 1 -47 -1 -50 -2 -2 -130 -4 -283 -4
l-278 0 0 500 0 500 283 -2 282 -3 3 -47z m2466 -330 c89 -208 164 -378 167
-378 3 0 80 170 170 378 l165 377 52 3 c32 2 52 -1 52 -8 0 -9 -128 -305 -369
-855 -33 -75 -62 -130 -70 -130 -13 0 -430 952 -431 983 0 9 14 12 52 10 l51
-3 161 -377z m1166 -115 c127 -271 230 -495 230 -498 0 -3 -24 -5 -53 -5 l-52
0 -179 383 c-98 210 -182 385 -185 390 -4 4 -90 -168 -191 -383 l-184 -390
-54 0 c-47 0 -54 2 -49 18 8 26 448 955 460 970 5 7 14 11 19 10 5 -2 112
-225 238 -495z m596 280 c104 -120 253 -291 332 -381 l142 -163 0 380 0 381
50 0 50 0 0 -500 c0 -394 -3 -500 -12 -499 -7 0 -159 169 -338 374 l-325 375
-3 -375 -2 -375 -50 0 -50 0 0 500 c0 277 4 500 9 500 4 0 93 -98 197 -217z
m-6722 -80 l38 -121 -82 -354 c-45 -194 -83 -360 -86 -369 -3 -11 62 -56 244
-167 l248 -153 28 -94 c16 -53 27 -98 24 -101 -11 -10 -683 412 -695 437 -12
24 1 83 198 927 17 74 35 130 39 125 4 -4 24 -63 44 -130z m1270 -383 l119
-521 -19 -25 c-20 -27 -681 -440 -690 -431 -3 3 10 49 28 103 l33 98 240 147
c132 81 241 153 242 161 2 7 -35 174 -81 371 l-83 359 38 125 c22 69 39 127
39 129 0 2 3 4 8 4 4 0 61 -234 126 -520z"/>
<path d="M4774 3432 c-70 -25 -148 -77 -189 -126 -143 -175 -130 -434 30 -585
225 -213 594 -118 690 177 26 82 18 228 -18 305 -51 112 -134 187 -251 227
-75 25 -191 26 -262 2z"/>
</g>
</svg>
