<?xml version="1.0" standalone="no"?>
<!DOCTYPE svg PUBLIC "-//W3C//DTD SVG 20010904//EN"
 "http://www.w3.org/TR/2001/REC-SVG-20010904/DTD/svg10.dtd">
<svg version="1.0" xmlns="http://www.w3.org/2000/svg"
 width="1024.000000pt" height="1024.000000pt" viewBox="0 0 1024.000000 1024.000000"
 preserveAspectRatio="xMidYMid meet">
<metadata>
Created by potrace 1.15, written by Peter Selinger 2001-2017
</metadata>
<g transform="translate(0.000000,1024.000000) scale(0.100000,-0.100000)"
fill="#000000" stroke="none">
<path d="M5243 10083 c-20 -4 -59 -42 -91 -89 -7 -10 -28 -41 -48 -69 -19 -27
-51 -75 -71 -105 -21 -30 -40 -57 -43 -60 -3 -3 -14 -18 -25 -34 -11 -16 -27
-39 -35 -51 -8 -12 -24 -35 -35 -51 -11 -16 -25 -33 -32 -37 -7 -4 -13 -14
-13 -21 0 -7 -8 -23 -17 -34 -10 -12 -29 -37 -43 -57 -14 -20 -33 -45 -42 -57
-10 -11 -18 -24 -18 -29 0 -4 -18 -30 -40 -58 -22 -28 -40 -53 -40 -57 0 -3
-17 -27 -37 -53 -21 -25 -42 -53 -48 -62 -10 -16 -22 -34 -120 -174 -30 -44
-72 -105 -92 -135 -21 -30 -43 -59 -50 -63 -7 -4 -13 -12 -13 -18 0 -10 -24
-47 -65 -100 -11 -14 -26 -35 -33 -45 -7 -10 -28 -41 -48 -69 -19 -27 -50 -73
-69 -102 -20 -28 -42 -57 -50 -63 -8 -7 -15 -18 -15 -25 0 -6 -9 -20 -20 -30
-11 -10 -20 -24 -20 -30 0 -7 -7 -18 -15 -25 -12 -10 -107 -144 -140 -199 -5
-9 -27 -37 -47 -62 -21 -26 -38 -50 -38 -55 0 -4 -7 -15 -15 -24 -17 -19 -39
-89 -59 -190 -18 -83 -43 -191 -61 -255 -8 -27 -19 -78 -24 -113 -5 -34 -13
-67 -17 -74 -7 -11 -32 -120 -59 -255 -7 -40 -18 -81 -24 -91 -6 -11 -13 -50
-16 -88 -6 -64 -18 -125 -61 -299 -9 -38 -22 -97 -30 -130 -23 -107 -53 -238
-129 -560 -26 -111 -45 -194 -66 -285 -10 -47 -28 -123 -39 -170 -11 -47 -27
-116 -35 -155 -15 -70 -34 -145 -60 -240 -8 -27 -21 -84 -30 -125 -8 -41 -24
-113 -35 -160 -54 -232 -54 -237 -43 -263 7 -14 23 -31 37 -39 26 -13 121 -70
191 -113 22 -13 69 -41 105 -61 36 -20 108 -65 160 -99 103 -66 116 -74 264
-162 54 -32 105 -62 115 -68 96 -58 388 -235 415 -250 19 -11 60 -35 93 -54
32 -19 96 -55 143 -79 47 -24 92 -50 100 -57 8 -7 38 -25 65 -39 28 -15 115
-67 195 -116 396 -242 375 -232 458 -234 61 -2 79 1 105 18 18 12 91 57 162
100 72 43 157 95 190 117 33 21 76 48 95 59 19 11 42 25 50 30 100 64 212 130
223 130 8 0 25 8 38 17 13 10 33 23 44 30 11 6 67 40 124 75 57 35 119 72 137
83 19 11 113 70 211 130 98 61 184 113 193 117 8 5 58 36 112 70 183 119 459
291 563 351 11 7 35 22 53 35 37 27 40 53 16 147 -18 71 -48 197 -73 315 -11
47 -29 126 -41 175 -34 138 -60 253 -75 332 -8 40 -21 96 -28 125 -8 29 -24
98 -37 153 -24 108 -49 217 -79 348 -11 45 -29 125 -41 177 -12 52 -29 131
-40 175 -10 44 -28 123 -40 175 -12 52 -28 121 -36 153 -8 32 -18 98 -24 147
-6 49 -14 100 -20 114 -5 14 -15 56 -21 93 -6 38 -16 76 -21 86 -5 10 -15 50
-22 90 -13 72 -21 104 -56 247 -11 41 -22 93 -25 115 -3 22 -12 63 -20 90 -7
28 -23 93 -36 145 -16 66 -32 109 -55 140 -44 61 -136 193 -181 260 -21 30
-40 57 -43 60 -3 3 -13 16 -22 30 -10 14 -35 50 -57 80 -23 30 -58 80 -78 110
-31 45 -91 129 -165 232 -7 10 -23 33 -36 50 -13 18 -51 72 -85 120 -34 47
-69 96 -77 108 -8 13 -25 35 -37 50 -13 15 -23 31 -23 35 0 3 -19 31 -42 60
-66 84 -112 148 -120 167 -4 10 -12 18 -17 18 -5 0 -13 9 -16 20 -3 11 -12 26
-18 32 -13 14 -23 28 -84 118 -43 62 -44 64 -78 106 -14 18 -25 37 -25 42 0 6
-6 15 -13 19 -7 4 -20 19 -29 33 -10 14 -31 44 -48 68 -16 23 -30 46 -30 49 0
3 -7 13 -15 22 -29 31 -65 79 -65 87 -1 5 -15 26 -33 46 -32 38 -68 51 -114
41z m-5 -839 c2 -614 1 -673 -15 -719 -10 -27 -25 -61 -34 -75 -36 -55 -55
-86 -67 -110 -6 -14 -23 -43 -37 -65 -13 -22 -29 -52 -36 -67 -6 -16 -15 -28
-19 -28 -4 0 -13 -12 -19 -27 -7 -16 -22 -44 -34 -65 -12 -20 -40 -67 -61
-105 -22 -37 -43 -70 -47 -73 -3 -3 -14 -21 -23 -40 -9 -19 -27 -53 -41 -75
-13 -22 -29 -49 -35 -60 -6 -11 -22 -38 -35 -60 -14 -22 -32 -53 -41 -70 -8
-16 -26 -48 -39 -70 -13 -22 -34 -56 -45 -75 -11 -19 -32 -53 -45 -75 -13 -22
-31 -53 -39 -70 -9 -16 -25 -43 -36 -60 -11 -16 -27 -44 -37 -62 -56 -101
-137 -239 -144 -243 -4 -3 -14 -21 -23 -40 -9 -19 -25 -50 -36 -67 -11 -18
-28 -48 -38 -65 -10 -18 -25 -33 -33 -33 -19 0 -52 70 -85 180 -15 50 -41 135
-59 190 -18 55 -54 168 -80 250 -26 83 -55 175 -65 205 -117 358 -113 320 -40
420 22 30 60 84 85 120 45 67 86 126 154 220 22 30 69 98 105 150 115 167 121
175 141 202 11 14 26 34 32 44 40 60 64 96 108 159 27 39 56 80 64 91 9 12 23
32 31 44 8 13 24 35 35 49 36 47 65 90 65 97 0 3 17 27 38 53 20 25 60 80 87
121 53 80 53 79 88 125 12 17 44 62 70 100 27 39 63 90 82 115 18 25 34 49 34
53 1 4 19 30 41 58 22 28 40 56 40 62 0 15 62 67 75 63 7 -2 11 -237 13 -672z
m128 643 c4 -12 14 -30 23 -39 9 -9 26 -31 39 -50 13 -18 50 -70 83 -115 32
-45 59 -85 59 -89 0 -4 7 -14 15 -23 31 -33 65 -79 65 -89 0 -5 6 -15 14 -21
8 -7 36 -44 62 -84 27 -40 65 -93 86 -118 21 -26 38 -51 38 -57 0 -5 7 -15 15
-22 13 -10 72 -93 100 -139 5 -9 27 -37 47 -63 21 -26 38 -49 38 -53 0 -6 47
-72 60 -85 3 -3 19 -25 35 -50 17 -24 66 -95 110 -156 44 -62 87 -122 95 -134
8 -12 43 -61 77 -108 34 -48 72 -102 85 -120 13 -18 28 -39 33 -45 6 -7 22
-30 37 -52 15 -22 50 -71 78 -110 73 -101 74 -108 51 -179 -19 -60 -36 -114
-81 -266 -12 -41 -30 -100 -40 -130 -10 -30 -28 -89 -40 -130 -12 -41 -30
-100 -40 -130 -10 -30 -30 -95 -45 -145 -15 -49 -33 -106 -40 -125 -7 -19 -19
-57 -25 -85 -21 -94 -65 -125 -90 -65 -7 16 -18 35 -26 41 -8 6 -14 19 -14 29
0 10 -7 23 -16 30 -8 8 -22 27 -30 44 -7 17 -25 49 -39 71 -14 22 -32 54 -40
70 -8 17 -24 44 -35 60 -11 17 -26 41 -33 55 -13 27 -39 69 -68 112 -11 15
-19 33 -19 41 0 8 -9 22 -20 32 -11 10 -20 24 -20 31 0 7 -7 19 -15 28 -8 8
-20 25 -25 38 -6 13 -22 41 -35 63 -14 22 -32 54 -40 72 -8 17 -19 34 -25 38
-6 4 -17 21 -25 38 -15 33 -26 53 -57 99 -10 15 -18 34 -18 41 0 8 -7 20 -16
27 -8 8 -22 27 -30 44 -21 45 -39 73 -57 94 -10 10 -17 24 -17 31 0 6 -8 24
-19 39 -29 43 -55 85 -68 112 -7 14 -22 39 -33 55 -11 17 -25 41 -32 55 -6 14
-17 32 -24 40 -6 8 -25 40 -42 71 -16 31 -37 67 -46 80 -14 21 -16 91 -16 707
0 443 4 690 10 702 13 23 37 16 46 -13z m-74 -1504 c14 -16 32 -40 39 -55 8
-15 37 -67 65 -115 28 -48 54 -95 57 -103 4 -8 21 -35 37 -60 16 -25 34 -54
40 -65 6 -11 21 -36 33 -57 12 -20 51 -86 87 -148 36 -62 75 -128 87 -148 12
-21 29 -50 37 -67 9 -16 25 -43 36 -60 11 -16 27 -44 37 -62 52 -94 181 -313
205 -349 15 -22 32 -52 38 -65 6 -13 21 -40 33 -61 42 -69 152 -260 176 -304
l24 -44 -23 -72 c-12 -40 -28 -86 -35 -103 -7 -16 -16 -47 -19 -67 -4 -20 -13
-50 -21 -65 -8 -15 -15 -37 -15 -48 -1 -11 -8 -38 -16 -60 -8 -22 -21 -62 -29
-90 -16 -60 -49 -169 -63 -210 -6 -16 -20 -64 -32 -105 -13 -41 -31 -100 -40
-130 -9 -30 -27 -89 -40 -130 -12 -41 -30 -97 -40 -125 -10 -27 -21 -68 -25
-90 -4 -21 -13 -52 -21 -67 -8 -15 -14 -37 -14 -50 0 -13 -9 -40 -20 -61 -11
-20 -20 -47 -20 -60 0 -12 -9 -39 -20 -60 -11 -20 -20 -47 -20 -59 -1 -13 -9
-41 -20 -63 -11 -22 -19 -50 -20 -63 0 -13 -9 -44 -19 -70 -11 -26 -22 -63
-25 -83 -4 -20 -17 -52 -29 -70 l-23 -34 -394 -3 c-217 -1 -405 0 -416 3 -22
5 -42 48 -66 140 -6 22 -19 61 -29 87 -11 26 -19 55 -19 65 -1 10 -9 36 -20
58 -11 22 -19 50 -20 63 0 12 -9 39 -20 59 -11 21 -20 45 -20 55 0 10 -6 32
-14 50 -19 45 -66 192 -66 209 -1 8 -9 32 -20 54 -11 22 -19 49 -20 60 0 11
-8 42 -19 70 -10 27 -29 84 -41 125 -12 41 -28 89 -35 105 -7 17 -15 46 -19
65 -4 19 -13 51 -20 70 -23 60 -66 197 -66 211 -1 8 -9 32 -20 54 -11 22 -19
48 -20 57 0 19 -73 249 -97 310 -15 36 -15 37 31 120 26 46 51 90 55 98 32 53
96 163 125 215 10 16 77 129 116 195 5 8 33 57 62 108 29 52 63 110 75 130 12
20 26 44 30 52 4 8 30 51 56 95 27 44 52 88 58 98 5 9 13 25 19 35 14 25 91
158 117 201 12 20 29 50 37 66 9 17 25 44 36 60 11 17 27 44 34 61 8 17 22 36
30 44 9 7 16 21 16 31 0 10 4 20 9 24 6 3 28 39 51 80 23 41 45 77 51 80 5 4
9 14 9 24 0 17 18 41 30 41 4 0 18 -12 32 -27z m1510 -659 c4 -16 14 -63 23
-104 9 -41 25 -111 35 -155 24 -101 86 -374 111 -485 10 -47 28 -125 39 -175
54 -230 61 -264 71 -325 24 -153 35 -207 66 -325 8 -33 21 -89 29 -125 22
-107 51 -234 58 -250 3 -8 13 -49 21 -90 8 -41 23 -113 34 -160 38 -164 61
-265 72 -320 6 -30 17 -76 25 -102 29 -96 7 -161 -31 -89 -8 16 -18 31 -23 33
-5 1 -15 15 -23 30 -14 27 -119 208 -172 296 -15 26 -37 67 -48 92 -29 61 -39
80 -106 194 -32 54 -74 127 -93 161 -19 35 -40 69 -46 76 -6 8 -14 21 -17 29
-4 8 -17 32 -29 52 -13 20 -70 118 -128 218 -58 100 -115 198 -127 218 -12 20
-25 44 -29 52 -8 15 -25 43 -66 102 -28 42 -29 106 -1 178 12 30 26 75 33 100
27 105 43 156 50 165 4 6 12 33 18 60 6 28 18 64 26 80 9 17 16 40 16 51 0 12
9 41 20 65 11 24 20 55 20 69 0 14 9 43 20 65 11 22 19 50 20 62 0 12 9 45 20
73 11 28 20 58 20 68 0 17 37 115 54 140 12 20 30 9 38 -24z m-3022 -86 c17
-35 30 -73 30 -86 0 -13 8 -44 18 -70 32 -81 53 -145 62 -189 5 -24 16 -56 25
-72 8 -17 15 -40 15 -51 0 -12 8 -42 18 -68 29 -72 52 -143 63 -187 5 -22 16
-54 24 -72 8 -17 15 -39 15 -50 0 -10 10 -38 21 -63 30 -65 31 -161 3 -192
-18 -19 -125 -196 -187 -310 -10 -18 -26 -46 -37 -63 -11 -16 -27 -43 -36 -60
-8 -16 -25 -46 -37 -67 -12 -20 -51 -86 -87 -148 -36 -62 -75 -128 -87 -148
-12 -21 -25 -44 -29 -52 -4 -8 -13 -22 -19 -30 -7 -8 -26 -40 -43 -71 -16 -31
-37 -67 -46 -80 -9 -13 -16 -30 -16 -37 0 -14 -32 -71 -169 -302 -47 -80 -91
-149 -98 -153 -7 -4 -13 -14 -13 -21 0 -8 -9 -24 -20 -37 -17 -21 -21 -22 -30
-9 -13 18 -7 80 13 140 8 25 25 90 37 145 12 55 30 134 40 175 10 41 28 120
40 175 13 55 28 120 36 145 7 25 18 74 23 110 6 36 18 83 26 105 8 22 14 53
15 68 0 15 6 43 14 61 8 19 19 66 25 106 7 40 16 80 21 90 5 10 14 56 19 103
6 47 16 109 24 139 8 29 24 98 37 153 12 55 33 147 46 205 14 58 31 132 39
165 7 33 23 98 34 145 11 47 32 137 46 200 14 63 29 129 34 145 6 17 15 59 21
95 19 103 29 106 70 18z m2637 -1170 c12 -13 28 -39 37 -58 19 -39 48 -91 74
-132 9 -15 80 -136 157 -269 77 -133 149 -257 160 -275 82 -132 224 -386 254
-454 6 -14 21 -41 33 -60 11 -19 26 -44 32 -55 13 -24 36 -60 85 -135 47 -71
183 -301 217 -367 48 -90 118 -83 -832 -83 l-834 0 -6 27 c-4 15 -1 40 6 57 7
17 17 49 22 71 6 22 19 61 29 87 11 26 19 56 19 68 0 11 9 38 20 60 11 22 20
51 20 64 0 14 9 40 20 58 11 18 20 43 20 54 0 12 9 41 20 65 11 24 20 56 20
72 0 15 9 44 20 64 11 21 20 49 20 63 0 14 6 37 14 52 8 14 19 48 24 75 6 27
18 62 26 78 9 17 16 40 16 53 0 13 7 37 16 53 8 17 19 52 24 77 5 26 16 70 25
97 10 28 22 64 27 80 6 17 15 48 20 70 6 22 17 55 25 74 8 19 18 53 23 75 5
23 16 64 25 91 10 28 22 64 27 80 6 17 15 50 22 75 19 76 36 88 73 48z m-2253
-34 c4 -16 17 -48 27 -72 10 -23 19 -53 19 -65 0 -12 9 -42 20 -66 11 -24 20
-53 20 -65 0 -11 7 -34 16 -51 8 -16 20 -51 26 -78 5 -27 16 -61 24 -75 8 -15
14 -36 14 -47 0 -11 9 -38 20 -60 11 -22 19 -51 20 -63 0 -13 7 -38 15 -55 8
-18 21 -54 29 -82 42 -145 53 -182 64 -202 7 -12 12 -32 12 -45 1 -13 9 -41
20 -63 11 -22 20 -49 20 -60 0 -11 9 -40 20 -64 11 -24 20 -53 20 -65 1 -11 9
-39 20 -61 11 -22 20 -47 20 -55 0 -8 9 -33 20 -55 11 -22 20 -51 20 -65 0
-14 9 -43 20 -65 11 -22 19 -48 20 -58 0 -10 7 -34 16 -55 23 -51 34 -123 23
-144 -9 -17 -59 -18 -839 -18 -783 0 -830 1 -831 18 -3 37 24 94 93 200 10 15
25 41 35 59 49 88 100 173 127 213 47 69 55 83 68 110 7 14 20 36 30 49 10 13
18 30 18 38 0 7 39 82 88 165 48 83 94 163 102 177 14 24 80 137 100 171 5 8
37 64 72 123 35 60 73 125 85 145 12 21 29 51 38 67 9 17 23 42 33 57 9 14 32
53 50 85 18 32 37 65 42 73 5 8 19 33 31 55 26 50 59 87 73 82 6 -2 15 -17 20
-33z m593 -1944 c31 -11 53 -45 53 -81 0 -11 9 -37 20 -59 11 -22 20 -49 20
-60 0 -12 8 -42 18 -68 34 -85 54 -146 61 -187 4 -22 15 -54 24 -72 9 -18 17
-42 17 -55 1 -13 9 -41 20 -63 11 -22 19 -51 20 -65 0 -14 9 -42 20 -63 11
-20 20 -48 20 -62 0 -14 9 -43 20 -65 11 -22 20 -47 20 -57 1 -10 9 -36 20
-58 11 -22 19 -50 20 -63 0 -12 9 -40 20 -62 24 -46 25 -60 7 -84 -13 -18 -16
-17 -58 10 -24 16 -56 35 -70 44 -14 8 -54 32 -90 53 -35 21 -82 49 -104 62
-22 14 -68 41 -102 61 -35 19 -65 40 -69 45 -3 5 -13 9 -22 9 -9 1 -53 23 -97
50 -44 27 -123 74 -175 105 -52 31 -142 85 -200 120 -58 35 -148 89 -200 120
-52 31 -142 85 -200 120 -58 35 -134 80 -170 101 -36 20 -96 58 -135 83 -98
63 -227 141 -235 141 -17 0 -85 63 -85 78 0 16 63 17 790 22 435 3 790 6 791
8 1 1 15 -3 31 -8z m1819 0 c703 0 765 -1 771 -17 7 -19 -25 -48 -107 -95 -30
-17 -104 -63 -165 -103 -60 -40 -125 -81 -144 -91 -18 -11 -41 -24 -50 -29
-29 -18 -75 -48 -131 -84 -30 -20 -67 -43 -81 -51 -15 -8 -86 -51 -158 -95
-72 -44 -139 -85 -148 -90 -10 -6 -31 -19 -48 -29 -16 -11 -46 -29 -65 -41
-19 -12 -91 -57 -160 -99 -69 -42 -132 -81 -140 -86 -8 -6 -26 -15 -40 -20
-14 -6 -32 -14 -40 -20 -8 -5 -31 -19 -50 -30 -19 -11 -48 -29 -65 -40 -16
-11 -46 -29 -65 -40 -45 -26 -56 -33 -172 -107 -59 -39 -103 -61 -112 -57 -23
9 -20 79 4 133 11 24 20 52 20 63 0 11 7 34 15 51 8 18 21 55 29 82 8 28 22
75 30 105 9 30 23 69 31 87 8 17 15 42 15 55 0 12 9 43 20 67 11 24 20 53 20
65 1 11 9 39 20 61 11 22 19 52 20 66 0 15 9 46 20 70 11 24 20 53 20 64 0 11
7 33 15 49 8 16 18 47 22 70 7 48 47 132 65 139 7 3 19 4 26 1 8 -2 358 -4
778 -4z m-938 -12 c17 -17 14 -57 -8 -103 -11 -22 -20 -49 -20 -60 0 -11 -9
-40 -20 -64 -11 -24 -20 -55 -20 -70 -1 -14 -9 -44 -20 -66 -11 -22 -19 -50
-20 -61 0 -12 -9 -41 -20 -65 -11 -24 -20 -55 -20 -69 0 -14 -9 -43 -20 -65
-11 -22 -19 -48 -20 -57 0 -10 -9 -40 -20 -68 -11 -28 -20 -60 -20 -72 0 -11
-8 -39 -19 -62 -10 -23 -23 -59 -29 -81 -5 -22 -15 -53 -20 -70 -6 -16 -16
-49 -21 -71 -6 -23 -21 -54 -33 -69 l-22 -28 -18 23 c-10 12 -18 36 -18 54 -1
17 -9 49 -20 71 -11 22 -20 49 -20 60 0 11 -9 38 -20 60 -11 22 -19 50 -20 61
0 12 -9 41 -20 65 -11 24 -20 53 -20 64 0 11 -9 38 -20 60 -11 22 -19 50 -20
61 0 12 -9 41 -20 65 -11 24 -20 53 -20 64 0 11 -6 32 -14 47 -8 14 -19 48
-24 75 -6 27 -18 62 -26 78 -9 17 -16 39 -16 50 0 11 -7 33 -15 48 -8 15 -17
45 -21 65 -4 20 -13 54 -21 75 -28 69 -37 67 371 67 268 0 365 -3 374 -12z"/>
<path d="M4187 3514 c-70 -46 -83 -133 -23 -148 15 -4 40 -25 56 -48 26 -36
30 -50 30 -108 0 -55 -4 -72 -25 -100 -64 -87 -190 -111 -292 -56 -53 29 -73
58 -73 106 0 43 17 72 55 98 30 19 35 28 35 63 0 32 -6 46 -32 70 -47 42 -87
47 -151 16 -70 -35 -109 -97 -115 -184 -5 -74 16 -126 78 -191 56 -58 125 -90
220 -103 159 -22 294 17 388 111 76 76 95 123 95 245 0 94 -3 107 -29 155 -52
96 -139 125 -217 74z"/>
<path d="M4045 2791 c-30 -13 -312 -313 -361 -384 -52 -77 -40 -126 38 -162
29 -13 72 -26 96 -30 27 -4 57 -19 78 -37 l34 -30 0 -442 c0 -359 3 -446 14
-461 13 -18 18 -18 102 -5 167 26 293 112 362 247 31 61 36 196 9 234 -41 59
-46 62 -101 67 -52 4 -56 3 -102 -39 -27 -24 -53 -50 -57 -56 -4 -7 -12 -13
-17 -13 -5 0 -10 126 -12 284 l-3 285 -29 30 c-30 31 -101 63 -169 75 -41 8
-72 44 -63 73 10 29 131 153 149 153 9 0 28 -17 41 -38 53 -84 151 -125 238
-99 25 8 56 24 68 35 36 33 47 152 14 152 -8 0 -29 -7 -45 -16 -28 -14 -33
-14 -59 3 -15 10 -51 47 -80 83 -77 97 -97 110 -145 91z m173 -1182 c36 -12
49 -53 38 -115 -8 -42 -55 -94 -84 -94 -39 0 -50 49 -36 168 7 58 19 63 82 41z"/>
<path d="M5195 2794 c-182 -27 -317 -114 -345 -224 -7 -25 -14 -149 -16 -275
-5 -301 -8 -297 157 -255 177 45 280 131 331 275 23 67 22 119 -3 181 -26 63
-68 89 -128 81 -51 -6 -87 -33 -106 -79 -8 -21 -19 -38 -25 -38 -13 0 -30 43
-30 74 0 41 57 106 118 134 51 24 69 26 172 26 98 0 123 -3 165 -22 56 -26 90
-55 111 -94 20 -39 17 -125 -6 -173 -11 -22 -19 -45 -20 -52 0 -18 -112 -154
-159 -193 -39 -32 -69 -53 -246 -175 -74 -51 -216 -164 -233 -184 -7 -9 -29
-41 -50 -71 l-37 -55 1 -111 c0 -109 1 -113 34 -163 38 -60 75 -91 144 -122
139 -61 420 -64 575 -7 108 41 176 113 197 211 18 85 18 201 0 216 -9 8 -45
11 -98 9 l-83 -3 -5 -105 c-5 -92 -9 -111 -34 -153 -35 -59 -90 -93 -178 -107
-120 -19 -239 11 -299 77 -120 128 -85 236 127 392 38 28 74 54 79 59 6 4 33
23 60 42 28 18 102 75 165 125 171 137 243 238 266 375 9 58 10 91 1 145 -11
65 -16 73 -67 126 -48 49 -65 59 -140 83 -72 23 -106 28 -225 31 -77 2 -153 1
-170 -1z m-85 -394 c71 -36 80 -91 25 -163 -38 -50 -68 -65 -90 -47 -18 15
-21 163 -5 204 11 31 19 32 70 6z"/>
<path d="M6520 2722 c-41 -42 -109 -115 -150 -161 -41 -46 -82 -91 -91 -100
-56 -56 -77 -114 -63 -168 7 -26 85 -66 149 -78 56 -10 101 -40 114 -77 14
-40 15 -402 1 -429 -14 -26 -27 -24 -42 6 -39 73 -147 100 -201 50 -58 -54
-72 -139 -38 -237 53 -153 173 -249 358 -284 145 -28 133 -73 133 481 0 528 0
531 -72 578 -22 14 -66 32 -97 38 -122 26 -132 63 -45 161 31 35 62 67 70 71
21 12 52 -1 60 -25 11 -36 76 -88 132 -104 47 -14 57 -14 105 0 72 22 99 53
105 122 5 63 -8 75 -57 50 -27 -15 -33 -15 -63 0 -18 9 -55 45 -83 81 -101
131 -120 133 -225 25z m-40 -1128 c11 -28 13 -136 4 -171 -13 -47 -71 -21
-112 48 -32 52 -29 92 9 123 41 35 86 35 99 0z"/>
<path d="M5460 1046 c-24 -19 -54 -52 -67 -73 -22 -36 -23 -48 -23 -208 0 -93
-4 -175 -8 -182 -4 -7 -25 -19 -46 -28 -63 -27 -95 -56 -149 -138 -53 -80 -79
-98 -115 -78 -26 14 -34 57 -41 225 -5 116 -9 141 -23 150 -23 14 -63 -16
-105 -80 l-33 -49 0 -138 c0 -129 2 -141 26 -187 34 -65 73 -97 128 -105 89
-14 135 22 206 159 27 51 104 136 124 136 30 0 36 -25 36 -149 0 -70 4 -132 9
-140 7 -11 26 -11 112 -1 170 19 267 74 315 177 59 124 -8 230 -158 249 -29 4
-59 11 -65 17 -10 7 -13 66 -13 231 0 159 -3 225 -12 234 -21 21 -54 13 -98
-22z m220 -593 c16 -21 20 -37 16 -62 -10 -63 -65 -119 -106 -106 -18 6 -20
15 -20 81 0 94 10 114 55 114 25 0 39 -7 55 -27z"/>
</g>
</svg>
