<?xml version="1.0" encoding="utf-8"?>
<!-- Generator: Adobe Illustrator 22.1.0, SVG Export Plug-In . SVG Version: 6.00 Build 0)  -->
<svg version="1.1" id="图层_1" xmlns="http://www.w3.org/2000/svg" xmlns:xlink="http://www.w3.org/1999/xlink" x="0px" y="0px"
	 viewBox="0 0 256 256" style="enable-background:new 0 0 256 256;" xml:space="preserve">
<style type="text/css">
	.st0{fill:url(#SVGID_1_);}
	.st1{fill:url(#SVGID_2_);}
	.st2{fill:url(#SVGID_3_);}
	.st3{fill:url(#SVGID_4_);}
	.st4{fill:url(#SVGID_5_);}
	.st5{fill:url(#SVGID_6_);}
	.st6{fill:url(#SVGID_7_);}
</style>
<g>
	<linearGradient id="SVGID_1_" gradientUnits="userSpaceOnUse" x1="6.4253" y1="123.4337" x2="269.4149" y2="190.4703">
		<stop  offset="0" style="stop-color:#FEDF97"/>
		<stop  offset="1" style="stop-color:#C4934E"/>
	</linearGradient>
	<polygon class="st0" points="0.1,93.8 13.6,93.8 13.6,169.2 21.5,169.2 21.5,93.8 35,93.8 35,86.8 0.1,86.8 	"/>
	<linearGradient id="SVGID_2_" gradientUnits="userSpaceOnUse" x1="8.5202" y1="115.2155" x2="271.5097" y2="182.2521">
		<stop  offset="0" style="stop-color:#FEDF97"/>
		<stop  offset="1" style="stop-color:#C4934E"/>
	</linearGradient>
	<path class="st1" d="M45.7,86.8l-3.9,3.5v75.5l3.9,3.5h26l3.9-3.5V90.3l-3.9-3.5H45.7z M67.8,162.2H49.6V93.8h18.2V162.2z"/>
	<linearGradient id="SVGID_3_" gradientUnits="userSpaceOnUse" x1="10.8753" y1="105.9762" x2="273.8648" y2="173.0128">
		<stop  offset="0" style="stop-color:#FEDF97"/>
		<stop  offset="1" style="stop-color:#C4934E"/>
	</linearGradient>
	<path class="st2" d="M83.2,86.8v82.4H91v-33.6h20.4l3.9-3.5V90.3l-3.9-3.5H83.2z M107.5,128.7H91V93.8h16.5V128.7z"/>
	<linearGradient id="SVGID_4_" gradientUnits="userSpaceOnUse" x1="4.1185" y1="132.4835" x2="267.1081" y2="199.5201">
		<stop  offset="0" style="stop-color:#FEDF97"/>
		<stop  offset="1" style="stop-color:#C4934E"/>
	</linearGradient>
	<rect x="123.2" y="158" class="st3" width="8.7" height="11.9"/>
	<linearGradient id="SVGID_5_" gradientUnits="userSpaceOnUse" x1="14.5632" y1="91.5084" x2="277.5527" y2="158.545">
		<stop  offset="0" style="stop-color:#FEDF97"/>
		<stop  offset="1" style="stop-color:#C4934E"/>
	</linearGradient>
	<path class="st4" d="M144.7,86.8l-3.9,3.5v75.5l3.9,3.5h26l3.9-3.5V90.3l-3.9-3.5H144.7z M166.8,162.2h-18.2V93.8h18.2V162.2z"/>
	<linearGradient id="SVGID_6_" gradientUnits="userSpaceOnUse" x1="17.1679" y1="81.29" x2="280.1574" y2="148.3266">
		<stop  offset="0" style="stop-color:#FEDF97"/>
		<stop  offset="1" style="stop-color:#C4934E"/>
	</linearGradient>
	<polygon class="st5" points="210,144.8 190.7,85.8 183,86.8 183,169.2 190.8,169.2 190.8,111.2 210.2,170.2 217.8,169.2 
		217.8,86.8 210,86.8 	"/>
	<linearGradient id="SVGID_7_" gradientUnits="userSpaceOnUse" x1="19.7752" y1="71.0613" x2="282.7647" y2="138.0979">
		<stop  offset="0" style="stop-color:#FEDF97"/>
		<stop  offset="1" style="stop-color:#C4934E"/>
	</linearGradient>
	<polygon class="st6" points="255.9,93.8 255.9,86.8 230.4,86.8 226.4,90.3 226.4,165.7 230.4,169.2 255.9,169.2 255.9,162.2 
		234.3,162.2 234.3,131.4 255.9,131.4 255.9,124.5 234.3,124.5 234.3,93.8 	"/>
</g>
</svg>
