<?xml version="1.0" standalone="no"?>
<!DOCTYPE svg PUBLIC "-//W3C//DTD SVG 20010904//EN"
 "http://www.w3.org/TR/2001/REC-SVG-20010904/DTD/svg10.dtd">
<svg version="1.0" xmlns="http://www.w3.org/2000/svg"
 width="1024.000000pt" height="1024.000000pt" viewBox="0 0 1024.000000 1024.000000"
 preserveAspectRatio="xMidYMid meet">
<metadata>
Created by potrace 1.15, written by Peter Selinger 2001-2017
</metadata>
<g transform="translate(0.000000,1024.000000) scale(0.100000,-0.100000)"
fill="#000000" stroke="none">
<path d="M0 5120 l0 -5120 5120 0 5120 0 0 5120 0 5120 -5120 0 -5120 0 0
-5120z m5260 3456 c164 -38 228 -60 360 -126 88 -43 212 -123 252 -163 13 -12
36 -31 52 -42 75 -52 252 -252 296 -335 7 -13 20 -31 27 -39 32 -31 110 -173
153 -276 12 -27 27 -63 35 -80 33 -74 45 -104 45 -118 0 -9 4 -18 9 -21 5 -3
12 -23 16 -43 4 -21 10 -42 14 -48 5 -5 13 -39 20 -75 6 -36 16 -74 21 -85 14
-31 48 -227 70 -400 14 -103 14 -596 0 -700 -22 -173 -56 -369 -69 -394 -5 -9
-12 -36 -15 -61 -12 -79 -49 -197 -82 -263 -8 -16 -14 -33 -14 -38 0 -9 -15
-45 -57 -139 -43 -95 -62 -131 -109 -205 -28 -44 -57 -91 -64 -105 -7 -13 -18
-30 -24 -36 -6 -6 -18 -22 -26 -34 -39 -59 -169 -195 -245 -255 -27 -22 -57
-48 -67 -57 -32 -32 -163 -113 -248 -154 -103 -50 -130 -61 -195 -74 -27 -6
-68 -16 -90 -21 -219 -56 -550 -56 -770 0 -22 5 -67 16 -100 24 -33 8 -82 24
-110 36 -27 13 -66 30 -85 39 -19 9 -54 28 -77 44 -23 15 -44 28 -48 28 -9 0
-96 61 -121 85 -12 11 -41 36 -65 55 -81 66 -233 227 -249 264 -7 17 -102 159
-116 173 -7 7 -21 32 -32 55 -11 24 -38 82 -61 130 -23 48 -41 90 -41 93 0 7
-36 92 -49 115 -5 9 -12 31 -16 50 -4 19 -11 40 -15 45 -4 6 -15 42 -23 80 -9
39 -23 99 -32 135 -66 262 -103 733 -76 960 6 52 15 133 21 180 12 106 33 225
54 310 9 36 24 97 32 135 9 39 20 75 24 80 5 6 11 27 15 48 4 20 11 40 16 43
5 3 9 12 9 21 0 15 26 73 106 238 19 39 34 75 34 82 0 6 3 13 8 15 4 2 16 21
27 42 11 22 27 46 35 54 8 9 38 48 65 87 87 126 210 259 296 322 24 18 59 46
78 62 19 16 46 35 60 43 14 7 28 15 31 18 19 19 240 130 260 130 9 0 20 4 26
8 5 5 29 14 54 21 25 8 56 17 70 21 44 14 133 30 185 34 114 9 451 -3 515 -18z
m3489 4 c124 -20 219 -42 269 -61 12 -5 32 -13 45 -18 75 -30 167 -77 219
-113 86 -58 102 -71 221 -186 68 -65 237 -337 237 -379 -1 -23 -17 -43 -60
-73 -19 -13 -40 -29 -46 -35 -54 -51 -185 -155 -196 -155 -5 0 -16 17 -25 38
-30 72 -188 262 -219 262 -7 0 -14 4 -16 8 -5 13 -147 106 -193 126 -113 52
-163 68 -295 97 -75 17 -350 17 -420 0 -111 -27 -187 -53 -257 -87 -65 -31
-96 -51 -184 -120 -42 -33 -109 -106 -109 -120 0 -7 -6 -19 -12 -26 -18 -18
-58 -102 -58 -120 0 -8 -4 -18 -9 -23 -5 -6 -17 -59 -26 -118 -15 -100 -15
-115 0 -203 16 -93 37 -146 99 -242 30 -46 135 -142 156 -142 6 0 10 -4 10 -9
0 -5 8 -11 18 -14 9 -3 28 -13 42 -21 46 -28 154 -73 195 -80 22 -4 60 -14 85
-23 25 -9 62 -19 83 -24 20 -5 56 -14 80 -20 23 -5 61 -14 85 -20 23 -5 61
-13 85 -19 23 -5 65 -14 92 -20 108 -22 222 -51 275 -69 14 -5 45 -14 70 -21
25 -7 56 -17 70 -22 14 -6 35 -15 48 -19 12 -5 32 -13 45 -18 12 -4 51 -23 87
-41 36 -18 79 -39 95 -47 115 -55 200 -130 318 -278 17 -22 77 -117 77 -123 1
-4 9 -25 20 -47 11 -22 19 -46 20 -53 0 -7 4 -20 9 -30 14 -25 38 -114 56
-212 19 -96 24 -447 7 -490 -5 -14 -13 -55 -16 -92 -4 -37 -12 -70 -17 -73 -5
-4 -9 -16 -9 -28 0 -12 -7 -35 -15 -51 -8 -15 -15 -33 -15 -40 0 -6 -6 -23
-14 -38 -8 -14 -19 -43 -26 -64 -17 -50 -91 -172 -132 -216 -18 -19 -44 -48
-58 -64 -62 -70 -175 -160 -264 -208 -25 -15 -65 -37 -89 -49 -23 -13 -60 -27
-82 -31 -22 -4 -44 -11 -50 -16 -5 -4 -21 -10 -35 -13 -14 -3 -50 -12 -80 -20
-258 -68 -526 -76 -790 -25 -30 5 -66 14 -80 18 -14 4 -45 13 -70 20 -25 7
-54 16 -65 20 -11 5 -33 11 -50 15 -34 6 -158 66 -163 77 -2 5 -8 8 -13 8 -26
0 -282 199 -297 231 -1 3 -26 30 -55 60 -28 31 -59 66 -67 78 -8 13 -21 29
-27 36 -12 13 -82 138 -112 203 -8 17 -19 32 -23 32 -4 0 -8 6 -8 13 -1 6 -9
30 -20 52 -11 22 -19 48 -20 57 0 9 -6 19 -12 21 -17 7 17 39 147 137 33 25
67 51 75 59 8 8 29 20 46 27 18 7 40 21 49 31 17 16 19 16 36 -6 11 -13 19
-29 19 -37 0 -8 5 -14 10 -14 6 0 10 -5 10 -11 0 -36 163 -270 222 -319 10 -8
35 -30 56 -49 20 -18 57 -47 82 -64 25 -17 53 -38 63 -47 52 -49 260 -134 416
-170 68 -16 352 -16 424 0 180 39 239 60 362 129 118 67 263 222 290 311 4 14
11 30 15 35 5 6 17 51 26 100 24 118 25 305 2 401 -15 61 -41 128 -58 144 -3
3 -17 23 -31 45 -38 58 -109 128 -176 172 -61 41 -123 73 -142 73 -6 0 -19 4
-29 9 -50 27 -120 52 -222 81 -25 7 -56 16 -70 20 -25 7 -78 19 -182 41 -29 6
-67 15 -84 20 -17 5 -40 9 -52 9 -11 0 -31 4 -44 9 -13 5 -48 14 -78 21 -30 6
-68 16 -85 20 -16 5 -50 14 -75 21 -25 7 -49 16 -55 21 -5 4 -19 8 -31 8 -13
0 -26 5 -29 10 -3 6 -14 10 -25 10 -10 0 -35 9 -57 19 -21 11 -47 23 -58 27
-11 4 -40 14 -65 24 -88 32 -224 132 -321 235 -45 48 -107 133 -115 158 -4 9
-10 17 -15 17 -5 0 -9 5 -9 11 0 10 -33 89 -50 120 -5 9 -12 34 -16 55 -3 22
-10 44 -14 49 -37 47 -37 643 0 690 4 5 11 28 15 50 8 49 99 238 155 322 34
52 95 113 195 196 158 132 395 233 645 275 77 13 429 14 509 2z m-6034 -330
l0 -245 -972 -3 -973 -2 0 -670 0 -670 935 0 935 0 0 -250 0 -250 -932 -2
-933 -3 0 -725 0 -725 1010 -2 1010 -3 0 -252 0 -253 -1209 -3 c-885 -1 -1212
1 -1222 9 -12 10 -14 360 -14 2139 0 1171 3 2136 6 2144 6 15 116 16 1183 14
l1176 -3 0 -245z m-1315 -5130 l5 -405 20 30 c62 94 122 151 193 186 62 30 75
33 167 33 112 1 167 -12 233 -57 64 -43 107 -93 146 -172 73 -147 71 -126 74
-677 l3 -498 -50 0 -50 0 -3 478 c-3 430 -5 482 -22 532 -27 82 -47 118 -91
165 -75 82 -183 118 -282 95 -91 -20 -148 -51 -216 -117 -25 -24 -84 -147 -98
-203 -24 -96 -27 -168 -28 -552 l-1 -398 -50 0 -50 0 0 978 c0 538 3 982 7
986 4 4 25 6 48 4 l40 -3 5 -405z m6978 402 c10 -7 12 -210 10 -983 l-3 -974
-55 0 -55 0 -3 974 c-2 773 0 976 10 983 7 4 29 8 48 8 19 0 41 -4 48 -8z
m1347 -977 l0 -980 -50 0 -50 0 -5 140 -5 140 -30 -51 c-31 -52 -107 -144
-120 -144 -4 0 -29 -16 -55 -35 -26 -19 -54 -35 -62 -35 -8 0 -18 -3 -22 -7
-14 -14 -102 -32 -158 -33 -90 0 -235 45 -268 85 -7 8 -19 15 -26 15 -13 0
-76 59 -110 102 -17 22 -75 149 -95 209 -57 172 -58 422 -3 602 57 189 181
330 344 394 69 27 159 37 228 24 37 -7 76 -16 87 -21 11 -5 35 -14 53 -22 17
-7 32 -16 32 -20 0 -5 6 -8 13 -8 19 0 130 -119 163 -175 l29 -50 3 419 c2
321 5 422 15 428 6 5 30 7 52 6 l40 -3 0 -980z m-9045 615 l5 -205 183 -3 183
-2 -3 -58 -3 -57 -182 -3 -183 -2 0 -488 c1 -434 2 -492 18 -537 34 -100 80
-135 176 -135 37 0 74 4 84 9 9 4 31 16 49 25 41 21 41 21 49 -19 3 -19 10
-38 15 -41 31 -19 -26 -61 -121 -90 -70 -21 -130 -15 -215 22 -32 14 -86 69
-109 112 -49 91 -50 109 -56 641 l-5 504 -106 -2 c-117 -2 -119 -1 -119 62 0
53 7 56 120 59 l105 3 5 199 c5 187 6 199 25 207 11 4 34 7 50 6 l30 -2 5
-205z m2427 -194 c155 -29 305 -143 374 -284 47 -96 61 -163 66 -329 l6 -163
-488 0 -488 0 7 -70 c3 -39 10 -78 15 -88 5 -9 27 -55 49 -102 65 -140 162
-221 300 -250 141 -29 338 45 418 159 16 22 33 41 39 41 13 0 75 -61 75 -75 0
-6 -8 -22 -17 -35 -118 -158 -352 -256 -526 -220 -99 21 -220 82 -275 139 -40
43 -112 151 -112 168 0 7 -4 13 -9 13 -5 0 -15 26 -21 58 -7 31 -16 62 -20 67
-15 18 -35 178 -34 270 1 129 41 311 89 400 23 44 144 195 155 195 4 0 15 8
26 18 30 27 133 76 189 88 71 16 100 16 182 0z m3618 -1 c61 -14 137 -52 184
-92 111 -94 167 -178 215 -323 39 -118 56 -321 36 -435 -14 -82 -46 -196 -66
-234 -8 -14 -14 -32 -14 -38 0 -7 -4 -13 -9 -13 -5 0 -14 -15 -20 -32 -13 -38
-124 -158 -146 -158 -8 0 -15 -4 -15 -10 0 -5 -7 -10 -15 -10 -8 0 -15 -4 -15
-9 0 -5 -8 -11 -17 -15 -155 -55 -240 -68 -309 -47 -16 5 -49 15 -74 22 -25 7
-64 25 -87 41 -23 15 -46 28 -52 28 -17 0 -85 72 -123 130 -43 66 -70 126 -92
200 -10 30 -21 69 -26 85 -15 49 -22 245 -11 315 14 94 30 172 40 195 32 75
76 163 90 178 9 9 34 39 56 65 48 58 142 123 205 141 25 7 54 17 65 22 22 9
152 6 200 -6z m-2283 -60 c10 -27 20 -68 24 -92 3 -24 10 -45 14 -48 5 -3 11
-24 15 -48 4 -23 11 -46 15 -52 4 -5 13 -44 20 -85 7 -41 16 -79 20 -85 4 -5
11 -30 15 -55 4 -25 11 -49 15 -55 7 -10 17 -48 40 -152 6 -27 15 -55 19 -63
5 -9 12 -36 16 -60 4 -25 11 -50 15 -55 5 -6 14 -42 21 -80 6 -39 15 -74 19
-80 5 -5 11 -31 15 -58 4 -26 11 -50 16 -53 5 -3 9 -15 9 -27 1 -21 1 -21 11
-3 6 10 17 42 24 70 20 77 41 155 60 216 9 30 25 91 35 135 20 88 39 160 65
245 23 76 44 157 56 210 6 25 14 54 20 65 5 11 15 49 23 85 8 36 21 88 28 115
14 49 15 50 56 53 36 3 42 0 42 -17 0 -11 4 -22 8 -25 5 -3 14 -38 22 -78 7
-40 16 -79 21 -88 8 -16 23 -73 40 -150 5 -25 14 -52 19 -61 4 -9 11 -37 15
-63 4 -25 11 -48 15 -51 5 -3 11 -24 15 -48 4 -23 11 -46 15 -52 4 -5 13 -44
20 -85 7 -41 16 -79 20 -85 4 -5 11 -30 15 -55 4 -25 11 -49 15 -55 4 -5 11
-26 15 -45 4 -19 14 -57 22 -85 8 -27 18 -66 23 -85 19 -74 22 -80 29 -80 4 0
13 24 19 53 6 28 18 86 27 127 9 41 20 84 25 95 5 11 14 38 19 60 5 22 17 67
26 100 9 33 21 80 26 105 6 25 14 54 19 65 10 20 17 46 50 190 10 44 25 105
34 135 8 30 20 75 26 100 6 25 16 54 20 65 5 11 13 40 17 65 l9 45 53 5 c58 6
68 -1 58 -43 -17 -70 -30 -114 -38 -132 -5 -11 -15 -49 -23 -85 -8 -36 -22
-90 -30 -120 -8 -30 -20 -75 -26 -100 -6 -25 -15 -52 -19 -60 -5 -9 -12 -31
-15 -50 -4 -19 -11 -44 -16 -55 -10 -25 -27 -89 -46 -180 -8 -38 -19 -79 -24
-90 -5 -11 -15 -45 -24 -75 -8 -30 -24 -89 -36 -130 -12 -41 -28 -100 -36
-130 -9 -30 -19 -64 -24 -75 -5 -11 -10 -29 -12 -40 -3 -17 -12 -20 -65 -23
l-61 -3 -7 40 c-4 23 -10 43 -15 46 -5 3 -11 24 -15 48 -4 23 -10 47 -14 52
-3 6 -13 42 -23 80 -26 113 -39 158 -54 192 -8 17 -14 40 -14 51 0 12 -4 23
-9 26 -5 3 -12 27 -16 53 -4 27 -10 53 -13 58 -4 6 -12 35 -19 65 -7 30 -22
96 -33 145 -12 50 -27 116 -33 147 -7 31 -15 60 -19 64 -5 4 -8 18 -8 31 0 45
-25 18 -36 -38 -5 -30 -13 -61 -16 -69 -7 -15 -17 -57 -47 -195 -10 -44 -20
-87 -24 -95 -3 -8 -10 -35 -16 -60 -18 -82 -33 -135 -47 -167 -8 -17 -14 -40
-14 -50 0 -11 -3 -23 -7 -27 -8 -8 -19 -47 -51 -181 -9 -38 -20 -75 -24 -80
-3 -6 -9 -27 -13 -48 -4 -20 -11 -40 -16 -43 -5 -3 -9 -14 -9 -25 0 -18 -6
-20 -61 -17 l-62 3 -14 50 c-7 28 -20 73 -28 100 -7 28 -19 70 -25 95 -6 25
-15 52 -19 60 -5 9 -12 36 -16 60 -4 24 -11 51 -16 60 -12 23 -47 149 -55 200
-3 24 -10 51 -15 60 -4 8 -12 33 -18 55 -5 22 -17 65 -26 95 -9 30 -21 73 -26
95 -6 22 -14 47 -18 55 -5 9 -12 36 -16 60 -4 25 -11 50 -15 55 -4 6 -13 39
-20 75 -7 36 -17 69 -21 75 -5 5 -9 18 -9 30 -1 11 -7 37 -14 57 -7 20 -10 40
-5 45 4 4 30 7 56 7 48 -1 48 -1 65 -49z m3078 -65 c0 -91 2 -108 14 -104 8 3
18 18 21 33 12 54 123 151 206 179 46 16 194 15 239 -1 45 -15 110 -56 110
-68 0 -5 -10 -31 -21 -58 l-22 -49 -51 26 c-44 23 -63 26 -136 26 -69 0 -92
-5 -124 -23 -104 -60 -174 -145 -197 -238 -7 -27 -16 -57 -22 -68 -6 -12 -9
-177 -8 -451 1 -238 -1 -444 -5 -458 -6 -24 -10 -26 -60 -26 l-54 0 0 694 0
695 48 3 c26 2 50 2 55 0 4 -2 7 -52 7 -112z"/>
<path d="M4824 8100 c-23 -9 -47 -46 -83 -130 -43 -99 -49 -115 -56 -150 -4
-19 -11 -39 -15 -45 -4 -5 -11 -30 -15 -55 -4 -25 -11 -49 -15 -55 -4 -5 -11
-32 -15 -60 -4 -27 -11 -57 -15 -66 -5 -8 -12 -38 -15 -65 -6 -47 -6 -49 22
-60 129 -51 295 -70 463 -54 l105 10 28 -30 c52 -58 29 -168 -40 -191 -45 -15
-367 -14 -424 1 -83 22 -104 27 -147 40 -26 8 -46 10 -52 4 -5 -5 -17 -119
-27 -254 -21 -289 -24 -822 -6 -1060 7 -85 15 -196 19 -247 4 -50 10 -96 14
-102 7 -12 26 -9 125 19 174 50 385 51 565 3 30 -8 66 -17 80 -20 14 -3 30
-10 36 -14 15 -12 33 71 45 216 14 181 30 498 24 513 -3 9 -94 12 -404 12
l-400 0 -28 24 c-24 21 -28 31 -28 80 0 44 5 60 23 78 l23 23 407 5 407 5 -3
165 c-1 91 -7 199 -12 240 -6 41 -14 120 -19 175 -16 173 -40 359 -51 395 -6
19 -15 55 -20 80 -5 25 -16 72 -24 105 -8 33 -20 83 -27 110 -6 28 -15 54 -20
60 -5 5 -9 16 -9 25 -1 8 -9 33 -20 55 -11 22 -19 46 -20 54 0 8 -16 47 -36
86 l-36 72 -67 7 c-91 8 -212 6 -237 -4z"/>
<path d="M4560 8051 c-8 -5 -28 -14 -45 -21 -43 -18 -149 -72 -155 -79 -3 -3
-17 -12 -31 -19 -14 -8 -41 -27 -60 -43 -19 -16 -37 -29 -41 -29 -12 0 -108
-92 -108 -104 0 -14 120 -131 170 -166 19 -13 37 -27 40 -30 11 -14 85 -60 96
-60 7 0 14 15 17 33 3 17 12 61 21 97 8 36 20 88 26 115 6 28 15 57 19 65 5 9
14 42 22 73 7 32 16 60 21 63 4 3 8 13 8 22 0 9 7 30 15 46 23 44 19 55 -15
37z"/>
<path d="M5360 7997 c7 -34 34 -114 51 -152 9 -20 19 -61 45 -175 33 -141 46
-209 59 -295 7 -49 16 -97 19 -105 11 -30 50 -562 55 -752 l1 -48 315 0 315 0
0 93 c-1 112 -16 222 -59 422 -11 47 -62 207 -81 250 -5 11 -18 41 -29 67 -12
26 -21 52 -21 58 0 12 -68 142 -79 150 -3 3 -14 17 -24 33 -17 26 -47 37 -47
17 0 -6 -10 -19 -22 -29 -155 -130 -156 -131 -192 -131 -30 0 -40 6 -56 33
-33 53 -19 131 28 161 26 16 142 132 142 142 0 12 -115 124 -128 124 -4 0 -17
8 -28 18 -52 47 -188 127 -251 146 -20 6 -21 4 -13 -27z"/>
<path d="M3980 7582 c-56 -68 -95 -139 -146 -262 -8 -19 -19 -43 -24 -52 -6
-10 -10 -23 -10 -30 0 -7 -6 -25 -14 -40 -8 -15 -17 -42 -21 -60 -4 -18 -11
-37 -15 -43 -4 -5 -11 -30 -15 -55 -4 -24 -11 -51 -16 -60 -16 -29 -57 -342
-58 -447 l-1 -63 69 0 c92 0 116 -10 131 -55 15 -44 5 -118 -17 -137 -9 -7
-51 -15 -97 -18 l-81 -5 -3 -50 c-1 -27 2 -84 7 -125 20 -161 41 -295 51 -324
5 -17 19 -62 31 -101 11 -38 25 -78 30 -87 5 -10 9 -23 9 -28 0 -10 15 -46 56
-137 8 -17 14 -34 14 -38 0 -8 92 -164 119 -202 9 -12 21 -22 26 -23 6 0 39
30 75 66 36 36 123 104 193 152 l129 87 -6 35 c-20 124 -45 442 -53 675 l-4
130 -80 -4 c-107 -4 -127 2 -145 45 -17 41 -12 82 15 113 16 19 30 21 114 21
l95 0 5 128 c8 220 36 585 49 634 6 26 10 49 7 51 -2 2 -44 31 -94 65 -49 33
-108 77 -130 97 -22 20 -56 48 -75 63 -19 14 -51 43 -70 65 -33 36 -36 37 -50
19z"/>
<path d="M5595 6248 c-3 -7 -9 -96 -14 -198 -5 -102 -17 -280 -27 -397 -15
-192 -15 -213 -1 -227 8 -9 18 -16 22 -16 8 0 126 -80 143 -97 7 -7 16 -13 20
-13 16 0 142 -118 142 -132 0 -19 20 -5 41 30 13 20 26 39 29 42 17 13 120
227 120 248 0 5 7 23 15 38 8 16 15 37 15 46 0 9 4 19 9 22 5 3 12 22 16 42 3
20 10 44 15 53 11 19 26 83 46 196 26 149 33 210 34 293 l0 82 -310 0 c-239 0
-312 -3 -315 -12z"/>
<path d="M4815 5355 c-38 -7 -90 -18 -115 -24 -25 -7 -58 -15 -73 -18 -36 -7
-40 -17 -27 -78 6 -28 16 -75 22 -105 6 -30 14 -59 18 -65 4 -5 11 -29 15 -53
4 -24 13 -56 21 -70 8 -15 14 -36 14 -47 0 -11 7 -33 15 -49 8 -15 15 -33 15
-39 0 -5 16 -43 36 -82 l36 -72 74 -7 c88 -7 254 3 271 16 15 12 63 111 63
130 0 7 6 25 14 40 8 15 17 41 21 58 4 17 13 43 21 58 8 15 14 37 14 49 0 12
4 24 9 28 5 3 13 30 16 60 4 31 11 58 15 60 7 4 23 106 25 150 0 5 -13 12 -30
16 -16 4 -57 14 -90 22 -156 39 -270 45 -400 22z"/>
<path d="M4333 5160 c-103 -73 -193 -159 -193 -182 0 -10 12 -26 27 -35 15
-10 37 -27 48 -38 37 -34 65 -55 75 -55 6 0 10 -4 10 -10 0 -5 7 -10 15 -10 8
0 15 -3 15 -7 0 -5 10 -13 23 -19 43 -22 152 -76 169 -85 24 -12 48 -11 48 1
0 6 -6 25 -13 43 -8 18 -19 57 -26 87 -7 30 -17 64 -22 75 -5 11 -14 40 -20
65 -15 64 -39 170 -46 203 -3 15 -10 27 -17 27 -6 0 -48 -27 -93 -60z"/>
<path d="M5485 5183 c-4 -21 -10 -49 -15 -63 -5 -14 -11 -43 -15 -65 -3 -22
-10 -51 -15 -65 -5 -14 -18 -59 -30 -100 -11 -41 -25 -82 -29 -90 -5 -9 -12
-30 -15 -47 -7 -29 -6 -31 16 -25 73 19 267 147 375 249 21 19 15 34 -30 77
-77 73 -204 166 -226 166 -6 0 -13 -17 -16 -37z"/>
<path d="M9075 2826 c-197 -55 -313 -216 -334 -465 -9 -104 2 -318 18 -348 5
-10 26 -52 46 -93 96 -201 291 -292 486 -229 100 32 188 112 246 222 18 34 33
69 33 77 0 8 8 29 17 45 15 25 17 59 18 221 0 125 -4 196 -11 205 -6 8 -16 35
-23 61 -51 211 -295 361 -496 304z"/>
<path d="M2888 2820 c-54 -20 -105 -54 -168 -110 -30 -27 -110 -185 -110 -217
0 -10 -4 -23 -9 -28 -5 -6 -12 -40 -16 -77 l-7 -68 437 0 438 0 -7 87 c-3 48
-11 92 -16 97 -6 6 -10 20 -10 31 0 12 -17 55 -38 96 -49 94 -110 143 -245
198 -43 17 -194 12 -249 -9z"/>
<path d="M6510 2828 c-14 -6 -45 -20 -70 -32 -148 -71 -241 -233 -259 -450 -8
-99 3 -292 18 -310 5 -6 14 -31 21 -54 26 -101 130 -224 225 -267 131 -60 216
-59 349 4 45 21 156 122 156 142 0 4 6 14 14 22 8 7 24 36 35 63 12 27 26 57
32 67 5 10 15 70 21 134 12 131 0 289 -27 358 -53 134 -107 210 -185 261 -44
29 -64 39 -123 63 -35 14 -173 13 -207 -1z"/>
</g>
</svg>
