<?xml version="1.0" encoding="UTF-8" standalone="no"?>
<svg
   xmlns:dc="http://purl.org/dc/elements/1.1/"
   xmlns:cc="http://creativecommons.org/ns#"
   xmlns:rdf="http://www.w3.org/1999/02/22-rdf-syntax-ns#"
   xmlns:svg="http://www.w3.org/2000/svg"
   xmlns="http://www.w3.org/2000/svg"
   viewBox="0 0 560 560"
   height="560"
   width="560"
   xml:space="preserve"
   id="svg2"
   version="1.1"><metadata
     id="metadata8"><rdf:RDF><cc:Work
         rdf:about=""><dc:format>image/svg+xml</dc:format><dc:type
           rdf:resource="http://purl.org/dc/dcmitype/StillImage" /></cc:Work></rdf:RDF></metadata><defs
     id="defs6" /><g
     transform="matrix(1.3333333,0,0,-1.3333333,0,560)"
     id="g10"><g
       transform="scale(0.1)"
       id="g12"><path
         id="path14"
         style="fill:#ee4323;fill-opacity:1;fill-rule:nonzero;stroke:none"
         d="m 2663.46,1514.47 -2.43,2.31 -85,80.21 -1.08,1.02 68.59,14.38 27.92,5.85 16.32,3.43 80.55,21.66 728.61,541.49 -190.4,82.23 93.1,344.11 42.79,158.19 -226.12,-37.93 -74.52,-12.51 -132.22,-22.18 -82.9,221.56 -201.96,-207.69 -206.4,-212.26 -5.38,-4.83 0.31,2.47 54.2,422.05 55.9,435.3 -203.18,-143.16 -226.6,350.3 -108.57,167.86 -46.83,-74.58 -277.87,-442.66 -213.65,133.48 67.99,-545.53 22.32,-179.16 15.51,-124.43 -267.24,272.04 -134.48,136.89 -72.92,-202.96 -271.953,39.83 -182.82,26.77 149.199,-505.77 -167.363,-89.4 707.557,-546.18 172.57,-34.45 -4.57,-4.81 L 1345,1340 l 553.5,116.1 79.06,16.59 100.55,21.09 12.75,-2.55 2.71,-0.55 21.43,-4.27 23.69,-4.73 445.69,-88.97 164.27,-32.81 99.69,-19.9 -182.58,172.3 -2.3,2.17" /><path
         id="path16"
         style="fill:#485156;fill-opacity:1;fill-rule:nonzero;stroke:none"
         d="M 895.332,609.832 H 698.531 V 962.859 H 895.332 V 926.398 H 739.578 V 812.672 H 885.922 V 776.449 H 739.578 V 646.531 h 155.754 v -36.699" /><path
         id="path18"
         style="fill:#485156;fill-opacity:1;fill-rule:nonzero;stroke:none"
         d="m 998.188,786.84 c 0,-47.82 10.182,-84.09 30.552,-108.789 20.36,-24.711 49.94,-37.063 88.74,-37.063 39.11,0 68.65,12.313 88.62,36.942 19.96,24.629 29.94,60.929 29.94,108.91 0,47.48 -9.94,83.5 -29.82,108.051 -19.89,24.539 -49.3,36.82 -88.26,36.82 -39.12,0 -68.86,-12.352 -89.22,-37.063 -20.37,-24.718 -30.552,-60.66 -30.552,-107.808 m 281.312,0 c 0,-56.512 -14.28,-100.942 -42.86,-133.301 C 1208.07,621.18 1168.35,605 1117.48,605 c -52,0 -92.12,15.898 -120.371,47.699 -28.261,31.781 -42.382,76.672 -42.382,134.61 0,57.48 14.16,102.031 42.492,133.66 28.341,31.633 68.581,47.453 120.741,47.453 50.71,0 90.31,-16.113 118.8,-48.293 28.5,-32.207 42.74,-76.629 42.74,-133.289" /><path
         id="path20"
         style="fill:#485156;fill-opacity:1;fill-rule:nonzero;stroke:none"
         d="m 1556.5,703.77 c 0,-31.071 -11.27,-55.301 -33.81,-72.688 C 1500.15,613.699 1469.57,605 1430.93,605 c -41.85,0 -74.05,5.398 -96.58,16.18 v 39.601 c 14.48,-6.109 30.26,-10.949 47.33,-14.48 17.06,-3.551 33.96,-5.313 50.7,-5.313 27.37,0 47.97,5.184 61.82,15.571 13.84,10.382 20.77,24.832 20.77,43.339 0,12.243 -2.46,22.262 -7.37,30.063 -4.91,7.809 -13.12,15.008 -24.63,21.609 -11.51,6.602 -29.01,14.09 -52.52,22.461 -32.84,11.75 -56.3,25.68 -70.39,41.778 -14.08,16.089 -21.12,37.101 -21.12,63.023 0,27.207 10.22,48.859 30.66,64.957 20.44,16.09 47.49,24.141 81.13,24.141 35.1,0 67.38,-6.442 96.83,-19.321 l -12.79,-35.73 c -29.14,12.23 -57.47,18.351 -85,18.351 -21.73,0 -38.72,-4.671 -50.95,-14 -12.24,-9.339 -18.35,-22.3 -18.35,-38.878 0,-12.243 2.25,-22.262 6.76,-30.071 4.5,-7.801 12.11,-14.972 22.82,-21.48 10.7,-6.531 27.08,-13.731 49.14,-21.61 37.02,-13.211 62.5,-27.382 76.42,-42.5 13.92,-15.14 20.89,-34.781 20.89,-58.921" /><path
         id="path22"
         style="fill:#d41f26;fill-opacity:1;fill-rule:nonzero;stroke:none"
         d="m 1780.16,931.398 c -38.8,0 -69.42,-12.918 -91.88,-38.757 -22.46,-25.832 -33.7,-61.211 -33.7,-106.129 0,-46.203 10.84,-81.891 32.49,-107.09 21.65,-25.192 52.51,-37.801 92.61,-37.801 24.63,0 52.72,4.43 84.27,13.289 v -35.969 c -24.47,-9.179 -54.65,-13.769 -90.56,-13.769 -51.99,0 -92.12,15.777 -120.36,47.328 -28.25,31.551 -42.39,76.391 -42.39,134.5 0,36.379 6.81,68.25 20.4,95.621 13.6,27.359 33.25,48.449 58.93,63.27 25.67,14.8 55.89,22.211 90.67,22.211 37.03,0 69.37,-6.762 97.07,-20.293 l -17.38,-35.25 c -26.73,12.562 -53.45,18.839 -80.17,18.839" /><path
         id="path24"
         style="fill:#d41f26;fill-opacity:1;fill-rule:nonzero;stroke:none"
         d="m 2105.64,759.23 -41.04,109.379 c -5.31,13.852 -10.8,30.832 -16.43,50.95 -3.54,-15.45 -8.6,-32.43 -15.21,-50.95 L 1991.44,759.23 Z M 2162.39,610 2118.45,722.289 H 1976.94 L 1933.48,610 h -41.54 l 139.57,354.48 h 34.53 L 2204.89,610 h -42.5" /><path
         id="path26"
         style="fill:#d41f26;fill-opacity:1;fill-rule:nonzero;stroke:none"
         d="m 2528.69,610 h -46.85 l -192.93,296.281 h -1.93 c 2.57,-34.769 3.86,-66.64 3.86,-95.621 V 610 h -37.91 v 353.031 h 46.37 l 192.45,-295.082 h 1.93 c -0.33,4.34 -1.05,18.313 -2.18,41.891 -1.12,23.59 -1.53,40.449 -1.21,50.601 v 202.59 h 38.4 V 610" /><path
         id="path28"
         style="fill:#d41f26;fill-opacity:1;fill-rule:nonzero;stroke:none"
         d="m 2790.43,759.23 -41.04,109.379 c -5.32,13.852 -10.8,30.832 -16.43,50.95 -3.54,-15.45 -8.61,-32.43 -15.21,-50.95 L 2676.22,759.23 Z M 2847.18,610 2803.23,722.289 h -141.5 L 2618.26,610 h -41.53 l 139.57,354.48 h 34.53 L 2889.68,610 h -42.5" /><path
         id="path30"
         style="fill:#d41f26;fill-opacity:1;fill-rule:nonzero;stroke:none"
         d="m 3176.04,788.449 c 0,46.031 -11.55,80.731 -34.64,104.071 -23.11,23.339 -57.44,35.011 -102.99,35.011 h -59.64 V 645.5 h 49.98 c 48.94,0 85.72,12.031 110.35,36.09 24.63,24.07 36.94,59.691 36.94,106.859 m 43.47,1.442 c 0,-58.27 -15.81,-102.821 -47.45,-133.653 C 3140.43,625.41 3094.91,610 3035.52,610 h -97.81 v 353.031 h 108.19 c 54.89,0 97.55,-15.222 127.98,-45.64 30.42,-30.43 45.63,-72.93 45.63,-127.5" /><path
         id="path32"
         style="fill:#d41f26;fill-opacity:1;fill-rule:nonzero;stroke:none"
         d="m 3462.9,759.23 -41.04,109.379 c -5.32,13.852 -10.8,30.832 -16.43,50.95 -3.54,-15.45 -8.61,-32.43 -15.21,-50.95 L 3348.69,759.23 Z M 3519.65,610 3475.7,722.289 H 3334.2 L 3290.73,610 h -41.53 l 139.57,354.48 h 34.53 L 3562.15,610 h -42.5" /><path
         id="path34"
         style="fill:#d32426;fill-opacity:1;fill-rule:nonzero;stroke:none"
         d="M 1728.33,1886.66 H 2007 l 19.46,228.58 -389.5,504.64 91.37,-733.22" /><path
         id="path36"
         style="fill:#eb3124;fill-opacity:1;fill-rule:nonzero;stroke:none"
         d="m 1901.79,2876.64 -287.16,-77.6 22.33,-179.16 389.5,-504.64 -124.67,761.4" /><path
         id="path38"
         style="fill:#e22025;fill-opacity:1;fill-rule:nonzero;stroke:none"
         d="m 1760.29,3211.09 141.5,-334.45 136.38,777.11 z" /><path
         id="path40"
         style="fill:#e92c25;fill-opacity:1;fill-rule:nonzero;stroke:none"
         d="m 2084.99,3728.33 -46.82,-74.58 -136.38,-777.11 190.29,9.23 -7.09,842.46" /><path
         id="path42"
         style="fill:#ee4423;fill-opacity:1;fill-rule:nonzero;stroke:none"
         d="m 2084.99,3728.33 7.09,-842.46 101.48,674.6 z" /><path
         id="path44"
         style="fill:#ee3923;fill-opacity:1;fill-rule:nonzero;stroke:none"
         d="m 2193.56,3560.47 -101.48,-674.6 328.08,324.3 z" /><path
         id="path46"
         style="fill:#ee3b23;fill-opacity:1;fill-rule:nonzero;stroke:none"
         d="m 2092.08,2885.87 421.16,-389.89 54.2,422.05 z" /><path
         id="path48"
         style="fill:#ed3424;fill-opacity:1;fill-rule:nonzero;stroke:none"
         d="m 2623.34,3353.33 -203.18,-143.16 -328.08,-324.3 475.36,32.16 55.9,435.3" /><path
         id="path50"
         style="fill:#ec5123;fill-opacity:1;fill-rule:nonzero;stroke:none"
         d="m 2092.08,2885.87 -65.62,-770.63 486.78,380.74 z" /><path
         id="path52"
         style="fill:#c34b27;fill-opacity:1;fill-rule:nonzero;stroke:none"
         d="M 2026.46,2115.24 2007,1886.66 h 428 l 78.24,609.32 -486.78,-380.74" /><path
         id="path54"
         style="fill:#ee3b23;fill-opacity:1;fill-rule:nonzero;stroke:none"
         d="m 1760.29,3211.09 -213.65,133.48 355.15,-467.93 z" /><path
         id="path56"
         style="fill:#ea1f25;fill-opacity:1;fill-rule:nonzero;stroke:none"
         d="m 1546.64,3344.57 67.99,-545.53 287.16,77.6 z" /><path
         id="path58"
         style="fill:#d53127;fill-opacity:1;fill-rule:nonzero;stroke:none"
         d="m 2026.46,2115.24 65.62,770.63 -190.29,-9.23 z" /><path
         id="path60"
         style="fill:#f27321;fill-opacity:1;fill-rule:nonzero;stroke:none"
         d="m 3284.85,2186.87 -25.93,-94.51 -571.14,-470.69 80.55,21.66 728.61,541.5 -212.09,2.04" /><path
         id="path62"
         style="fill:#ee3e23;fill-opacity:1;fill-rule:nonzero;stroke:none"
         d="m 3496.94,2184.83 -190.4,82.22 -21.69,-80.18 z" /><path
         id="path64"
         style="fill:#d32426;fill-opacity:1;fill-rule:nonzero;stroke:none"
         d="m 1580.44,1587.41 318.06,-131.31 79.06,16.59 -390.03,122.17 -7.09,-7.45" /><path
         id="path66"
         style="fill:#ef4a23;fill-opacity:1;fill-rule:nonzero;stroke:none"
         d="m 1345,1340 553.5,116.1 -318.06,131.31 z" /><path
         id="path68"
         style="fill:#d53127;fill-opacity:1;fill-rule:nonzero;stroke:none"
         d="m 2374.45,1831.73 -324.41,245.56 -231.74,-239.93 511.48,-290.79 313.76,65.82 -269.09,219.34" /><path
         id="path70"
         style="fill:#7b1315;fill-opacity:1;fill-rule:nonzero;stroke:none"
         d="m 1587.53,1594.86 390.03,-122.17 352.22,73.88 -511.48,290.79 -230.77,-242.5" /><path
         id="path72"
         style="fill:#ef5222;fill-opacity:1;fill-rule:nonzero;stroke:none"
         d="m 2943.78,2264.42 315.14,-172.06 25.93,94.51 21.69,80.18 93.1,344.11 -455.86,-346.74" /><path
         id="path74"
         style="fill:#f25c21;fill-opacity:1;fill-rule:nonzero;stroke:none"
         d="m 2374.45,1831.73 269.09,-219.34 27.92,5.85 272.32,646.18 -569.33,-432.69" /><path
         id="path76"
         style="fill:#f05722;fill-opacity:1;fill-rule:nonzero;stroke:none"
         d="m 2943.78,2264.42 -272.32,-646.18 16.32,3.43 571.14,470.69 -315.14,172.06" /><path
         id="path78"
         style="fill:#ee4423;fill-opacity:1;fill-rule:nonzero;stroke:none"
         d="m 2518.31,2498.34 -392.12,-351.72 601.08,235.04 z" /><path
         id="path80"
         style="fill:#e54725;fill-opacity:1;fill-rule:nonzero;stroke:none"
         d="m 2727.27,2381.66 -601.08,-235.04 -76.15,-69.33 324.41,-245.56 352.82,549.93" /><path
         id="path82"
         style="fill:#e53e28;fill-opacity:1;fill-rule:nonzero;stroke:none"
         d="m 2943.78,2264.42 -216.51,117.24 -352.82,-549.93 z" /><path
         id="path84"
         style="fill:#da2825;fill-opacity:1;fill-rule:nonzero;stroke:none"
         d="m 2724.71,2710.6 -206.4,-212.26 208.96,-116.68 z" /><path
         id="path86"
         style="fill:#e12026;fill-opacity:1;fill-rule:nonzero;stroke:none"
         d="m 3009.57,2696.73 -82.9,221.56 -201.96,-207.69 2.56,-328.94 282.3,315.07" /><path
         id="path88"
         style="fill:#ed270a;fill-opacity:1;fill-rule:nonzero;stroke:none"
         d="m 2727.27,2381.66 216.51,-117.24 198.01,454.49 -132.22,-22.18 -282.3,-315.07" /><path
         id="path90"
         style="fill:#ee3b23;fill-opacity:1;fill-rule:nonzero;stroke:none"
         d="m 2943.78,2264.42 455.86,346.74 42.79,158.19 -247.01,-251.01 -251.64,-253.92" /><path
         id="path92"
         style="fill:#d53127;fill-opacity:1;fill-rule:nonzero;stroke:none"
         d="m 3195.42,2518.34 20.89,213.08 -74.52,-12.51 -198.01,-454.49 251.64,253.92" /><path
         id="path94"
         style="fill:#ec1d24;fill-opacity:1;fill-rule:nonzero;stroke:none"
         d="m 3442.43,2769.35 -226.12,-37.93 -20.89,-213.08 z" /><path
         id="path96"
         style="fill:#f27221;fill-opacity:1;fill-rule:nonzero;stroke:none"
         d="M 723.043,2768.02 1125.37,2397.44 872.246,2262.25 Z" /><path
         id="path98"
         style="fill:#f05a22;fill-opacity:1;fill-rule:nonzero;stroke:none"
         d="M 723.043,2768.02 1125.37,2397.44 905.867,2741.25 Z" /><path
         id="path100"
         style="fill:#ef4a23;fill-opacity:1;fill-rule:nonzero;stroke:none"
         d="m 704.883,2172.85 707.557,-546.18 111.79,349.64 z" /><path
         id="path102"
         style="fill:#f05b22;fill-opacity:1;fill-rule:nonzero;stroke:none"
         d="m 1125.37,2397.44 -253.124,-135.19 -167.363,-89.4 819.347,-196.54 -398.86,421.13" /><path
         id="path104"
         style="fill:#eb5f23;fill-opacity:1;fill-rule:nonzero;stroke:none"
         d="m 2090.81,1491.24 -76.33,635.7 -490.25,-150.63 -111.79,-349.64 678.41,-135.44 -0.04,0.01" /><path
         id="path106"
         style="fill:#e96f24;fill-opacity:1;fill-rule:nonzero;stroke:none"
         d="m 2014.48,2126.94 76.33,-635.7 0.04,-0.01 2.72,-0.55 257.59,318.53 -336.68,317.73" /><path
         id="path108"
         style="fill:#f5881f;fill-opacity:1;fill-rule:nonzero;stroke:none"
         d="m 2351.16,1809.21 -257.59,-318.53 21.43,-4.27 461.03,110.58 -224.87,212.22" /><path
         id="path110"
         style="fill:#dd5b26;fill-opacity:1;fill-rule:nonzero;stroke:none"
         d="m 2661.03,1516.78 -85,80.21 -461.03,-110.58 23.69,-4.73 522.34,35.1" /><path
         id="path112"
         style="fill:#f9a621;fill-opacity:1;fill-rule:nonzero;stroke:none"
         d="m 2848.34,1340 -182.58,172.3 82.89,-152.4 z" /><path
         id="path114"
         style="fill:#f5891f;fill-opacity:1;fill-rule:nonzero;stroke:none"
         d="m 2661.03,1516.78 -522.34,-35.1 445.69,-88.97 79.08,121.76 -2.43,2.31" /><path
         id="path116"
         style="fill:#f7991c;fill-opacity:1;fill-rule:nonzero;stroke:none"
         d="m 2665.76,1512.3 -2.3,2.17 -79.08,-121.76 164.27,-32.81 -82.89,152.4" /><path
         id="path118"
         style="fill:#ee4423;fill-opacity:1;fill-rule:nonzero;stroke:none"
         d="m 1177.82,2701.42 -89.91,-245.31 37.46,-58.67 398.86,-421.13 -273.49,928.07 -72.92,-202.96" /><path
         id="path120"
         style="fill:#ee3b23;fill-opacity:1;fill-rule:nonzero;stroke:none"
         d="m 905.867,2741.25 182.043,-285.14 89.91,245.31 z" /><path
         id="path122"
         style="fill:#eb3124;fill-opacity:1;fill-rule:nonzero;stroke:none"
         d="m 1250.74,2904.38 273.49,-928.07 -139.01,791.18 z" /><path
         id="path124"
         style="fill:#ee4323;fill-opacity:1;fill-rule:nonzero;stroke:none"
         d="m 1385.22,2767.49 139.01,-791.18 490.25,150.63 z" /></g></g></svg>