<?xml version="1.0" encoding="UTF-8" standalone="no"?>
<svg width="2300px" height="800px" viewBox="0 0 2300 800" version="1.1" xmlns="http://www.w3.org/2000/svg" xmlns:xlink="http://www.w3.org/1999/xlink">
    <!-- Generator: Sketch 50.2 (55047) - http://www.bohemiancoding.com/sketch -->
    <title>适用深色背景－长方形 copy</title>
    <desc>Created with Sketch.</desc>
    <defs></defs>
    <g id="适用深色背景－长方形-copy" stroke="none" stroke-width="1" fill="none" fill-rule="evenodd">
        <g id="Group" transform="translate(120.000000, 115.000000)">
            <g id="Group-2" stroke-linecap="round" stroke-width="13">
                <path d="M190.8408,0 L190.8408,155.571096" id="Path-3" stroke="#3E3C3C"></path>
                <path d="M85.5151817,182.051282 L197.285972,566.855585 C197.440022,567.38595 197.994851,567.691013 198.525216,567.536963 C198.848462,567.443072 199.102785,567.192856 199.201925,566.871181 L317.803219,182.051282" id="Path-4" stroke="#3E3C3C"></path>
                <path d="M195.003278,155.571096 L0.907255765,457.010488 C0.30926804,457.939188 0.577363646,459.176813 1.50606406,459.774801 C1.82892698,459.982692 2.20481277,460.09324 2.58881662,460.09324 L394.318623,460.09324 C395.423192,460.09324 396.318623,459.19781 396.318623,458.09324 C396.318623,457.698331 396.201712,457.312261 395.982628,456.983696 L195.003278,155.571096 Z" id="Path-2" stroke="#3E3C3C"></path>
                <path d="M195.716421,1.0855497 L82.7169286,181.391328 L1.48975103,456.629484 C1.22786833,457.516873 1.60883793,458.468054 2.41088577,458.929314 L195.558986,570.009456 C196.167045,570.359153 196.91386,570.364741 197.527084,570.024183 L397.584851,458.920617 C398.403496,458.465976 398.797092,457.504184 398.532041,456.60606 L317.311777,181.391328 L197.396464,1.06286134 C197.090648,0.602975539 196.469924,0.478077373 196.010038,0.783893481 C195.891871,0.862472961 195.791781,0.965303106 195.716421,1.0855497 Z" id="Path" stroke="#FFFFFF"></path>
                <path d="M83.8625059,182.051282 L315.35399,182.051282 C315.906275,182.051282 316.35399,182.498997 316.35399,183.051282 C316.35399,183.340583 316.228702,183.615706 316.01047,183.805626 L4.35467234,455.028873 C3.93805968,455.391436 3.89424424,456.023084 4.2568078,456.439696 C4.44672768,456.657928 4.72185117,456.783217 5.01115175,456.783217 L387.48963,456.783217" id="Path-6" stroke="#FFFFFF"></path>
            </g>
            <path d="M570.399815,204.716981 L570.399815,236.051213 L705.597412,236.051213 L560,416.307278 L560,445.283019 L762.796395,445.283019 L762.796395,413.948787 L609.225792,413.948787 L754.476543,234.02965 L754.476543,204.716981 L570.399815,204.716981 Z M795.729143,204.716981 L908.740467,204.716981 C933.006702,204.716981 951.726369,210.107817 965.592789,221.563342 C978.765889,232.345013 985.352438,246.832884 985.352438,265.363881 C985.352438,278.84097 981.885833,290.296496 974.952623,299.730458 C968.019413,308.490566 958.659579,315.229111 946.179801,319.609164 C962.472845,322.641509 974.952623,329.043127 983.272475,338.814016 C991.592327,348.584906 995.752253,361.725067 995.752253,377.897574 C995.752253,402.156334 987.085741,419.67655 970.099376,431.132075 C955.539635,440.566038 935.086665,445.283019 908.740467,445.283019 L795.729143,445.283019 L795.729143,204.716981 Z M833.515138,235.040431 L833.515138,306.80593 L898.687312,306.80593 C916.020337,306.80593 928.500116,303.773585 936.126647,298.045822 C943.753178,291.981132 947.566443,282.54717 947.566443,269.743935 C947.566443,257.614555 943.753178,248.854447 936.126647,243.463612 C928.500116,237.735849 916.020337,235.040431 899.380633,235.040431 L833.515138,235.040431 Z M833.515138,336.792453 L833.515138,414.959569 L903.540559,414.959569 C919.486942,414.959569 931.966721,412.264151 940.979894,407.54717 C952.07303,401.145553 957.966258,391.037736 957.966258,377.22372 C957.966258,363.072776 953.459672,352.628032 944.793159,346.226415 C936.126647,339.824798 922.606887,336.792453 904.580541,336.792453 L833.515138,336.792453 Z M1074.79085,309.838275 L1074.79085,339.487871 L1291.107,339.487871 L1291.107,309.838275 L1074.79085,309.838275 Z M1380.54541,204.716981 L1380.54541,445.283019 L1564.27548,445.283019 L1564.27548,413.948787 L1418.33141,413.948787 L1418.33141,337.466307 L1550.0624,337.466307 L1550.0624,306.132075 L1418.33141,306.132075 L1418.33141,236.051213 L1558.38225,236.051213 L1558.38225,204.716981 L1380.54541,204.716981 Z M1712.29951,200 C1749.73885,200 1779.55165,211.792453 1801.39126,235.714286 C1822.19089,258.28841 1832.59071,288.274933 1832.59071,325.336927 C1832.59071,362.061995 1822.19089,391.71159 1801.39126,414.622642 C1779.55165,438.207547 1749.73885,450 1712.29951,450 C1674.51352,450 1644.70072,437.87062 1623.20777,414.285714 C1602.40813,391.374663 1592.35498,361.725067 1592.35498,325.336927 C1592.35498,288.61186 1602.40813,258.962264 1623.20777,236.051213 C1644.70072,211.792453 1674.51352,200 1712.29951,200 Z M1712.29951,232.345013 C1685.95332,232.345013 1665.50035,240.768194 1650.94061,258.28841 C1637.07419,274.797844 1630.14098,297.03504 1630.14098,325.336927 C1630.14098,353.301887 1637.07419,375.539084 1650.94061,392.048518 C1665.50035,408.894879 1685.95332,417.654987 1712.29951,417.654987 C1738.64571,417.654987 1759.09868,409.231806 1773.31176,392.722372 C1787.17818,376.549865 1794.45805,353.975741 1794.45805,325.336927 C1794.45805,296.361186 1787.17818,273.787062 1773.31176,257.277628 C1759.09868,240.431267 1738.64571,232.345013 1712.29951,232.345013 Z M1957.38849,200 C1931.04229,200 1909.20268,205.727763 1891.86966,217.183288 C1873.49665,229.312668 1864.48348,245.822102 1864.48348,267.048518 C1864.48348,287.938005 1873.84331,304.110512 1892.90964,315.229111 C1900.53617,319.272237 1919.25584,325.673854 1949.76196,335.107817 C1977.14814,343.19407 1993.44118,348.584906 1998.98775,351.280323 C2014.58747,359.02965 2022.56067,369.474394 2022.56067,382.951482 C2022.56067,393.733154 2017.0141,402.156334 2005.92096,408.221024 C1994.82783,414.285714 1979.92142,417.654987 1961.20176,417.654987 C1940.40213,417.654987 1925.14906,413.948787 1915.09591,406.536388 C1904.00277,398.450135 1897.06956,384.636119 1894.29628,365.768194 L1856.85694,365.768194 C1858.93691,396.091644 1870.03004,418.328841 1890.48301,432.479784 C1907.46938,443.93531 1931.04229,450 1961.20176,450 C1992.4012,450 2016.66744,443.93531 2034.00046,431.80593 C2051.33349,419.339623 2060,402.493261 2060,380.929919 C2060,358.692722 2049.25352,341.509434 2028.10723,329.043127 C2018.40074,323.315364 1996.56113,315.566038 1963.28172,305.458221 C1940.05547,298.719677 1925.84239,293.665768 1920.29582,290.633423 C1907.81604,284.231806 1901.92281,275.808625 1901.92281,265.026954 C1901.92281,252.897574 1907.12272,244.137466 1917.86919,238.746631 C1926.53571,234.02965 1939.01548,231.671159 1955.30853,231.671159 C1974.0282,231.671159 1987.89462,235.040431 1997.60111,242.115903 C2007.3076,248.854447 2013.54749,260.309973 2017.0141,275.808625 L2054.45343,275.808625 C2052.02681,249.528302 2042.32031,230.32345 2024.98729,217.857143 C2008.69425,205.727763 1986.16131,200 1957.38849,200 Z" id="ZB－EOS" fill="#FFFFFF"></path>
        </g>
    </g>
</svg>