<?xml version="1.0" standalone="no"?>
<!DOCTYPE svg PUBLIC "-//W3C//DTD SVG 20010904//EN"
 "http://www.w3.org/TR/2001/REC-SVG-20010904/DTD/svg10.dtd">
<svg version="1.0" xmlns="http://www.w3.org/2000/svg"
 width="1024.000000pt" height="1024.000000pt" viewBox="0 0 1024.000000 1024.000000"
 preserveAspectRatio="xMidYMid meet">

<g transform="translate(0.000000,1024.000000) scale(0.100000,-0.100000)"
fill="#000000" stroke="none">
<path d="M5108 8583 c-16 -2 -28 -9 -28 -14 0 -5 -5 -9 -11 -9 -6 0 -52 -37
-103 -82 -79 -72 -257 -229 -322 -285 -11 -10 -54 -47 -94 -83 -199 -175 -458
-404 -496 -437 -20 -17 -45 -39 -264 -233 -53 -47 -113 -100 -133 -117 -68
-59 -87 -97 -87 -174 0 -37 -4 -89 -10 -116 -5 -26 -16 -118 -25 -203 -8 -85
-20 -192 -25 -237 -6 -46 -14 -120 -20 -165 -5 -46 -14 -119 -20 -163 -5 -44
-15 -129 -21 -190 -6 -60 -14 -141 -19 -180 -4 -38 -13 -115 -19 -170 -6 -55
-14 -120 -17 -145 -3 -25 -9 -82 -15 -127 -5 -46 -13 -120 -18 -165 -6 -46
-17 -148 -26 -228 -9 -80 -20 -179 -25 -220 -5 -41 -13 -119 -19 -172 -6 -53
-13 -108 -17 -122 -3 -13 -1 -33 5 -44 6 -11 93 -61 198 -115 103 -52 456
-230 783 -395 689 -347 781 -394 820 -422 38 -27 89 -26 133 4 19 13 38 22 41
18 3 -3 6 -1 6 5 0 6 26 24 58 40 31 17 116 60 187 98 72 37 175 91 230 120
260 136 366 191 435 228 81 43 201 106 405 212 352 183 406 212 428 234 16 15
16 25 8 87 -17 112 -29 219 -46 384 -9 85 -20 177 -25 203 -6 27 -10 65 -10
84 0 20 -4 63 -10 97 -5 33 -16 131 -25 216 -8 85 -20 184 -25 220 -5 36 -12
90 -15 120 -3 30 -7 71 -10 90 -13 111 -41 359 -54 490 -6 58 -15 137 -20 175
-6 39 -15 115 -21 170 -6 55 -15 129 -20 165 -5 36 -12 94 -15 129 -4 36 -12
76 -20 90 -12 25 -80 87 -370 341 -165 144 -289 254 -389 343 -43 39 -98 87
-121 106 -23 20 -78 68 -121 106 -83 74 -210 186 -334 295 -40 36 -78 70 -84
75 -56 55 -112 77 -168 68z m94 -120 c24 -21 66 -58 93 -83 28 -25 84 -74 125
-110 41 -35 94 -83 118 -107 24 -23 46 -42 50 -43 6 -2 101 -85 424 -372 37
-33 85 -74 107 -91 22 -18 40 -38 40 -46 1 -8 4 -12 7 -8 3 3 78 -58 167 -136
88 -78 183 -161 211 -185 28 -24 57 -51 63 -59 16 -21 9 -71 -16 -124 -12 -24
-21 -48 -21 -55 0 -6 -7 -17 -15 -24 -9 -7 -13 -15 -11 -18 6 -5 -23 -81 -38
-101 -6 -7 -11 -19 -11 -25 0 -18 -47 -130 -62 -147 -7 -9 -11 -18 -8 -21 3
-3 -1 -21 -9 -39 -8 -19 -24 -55 -35 -80 -11 -26 -23 -59 -27 -73 -3 -14 -10
-29 -15 -32 -5 -3 -9 -13 -9 -23 0 -10 -7 -24 -15 -31 -8 -6 -14 -15 -13 -18
3 -11 -23 -86 -33 -96 -5 -6 -9 -17 -9 -26 0 -9 -5 -21 -12 -28 -6 -6 -13 -21
-15 -32 -1 -11 -12 -41 -24 -67 -44 -98 -49 -111 -49 -123 0 -6 -5 -8 -12 -4
-7 4 -8 3 -4 -4 4 -7 0 -28 -8 -47 -9 -19 -23 -50 -31 -69 -8 -19 -15 -37 -15
-40 0 -3 -10 -28 -21 -54 -26 -56 -42 -95 -59 -142 -7 -19 -17 -39 -22 -44 -4
-6 -8 -18 -8 -27 0 -9 -7 -22 -15 -29 -9 -7 -13 -15 -11 -18 6 -5 -23 -81 -38
-101 -6 -7 -11 -19 -11 -25 0 -18 -47 -130 -62 -147 -7 -9 -11 -18 -8 -21 3
-3 -1 -21 -9 -39 -8 -19 -24 -55 -35 -80 -11 -26 -23 -59 -27 -73 -3 -14 -10
-29 -15 -32 -5 -3 -9 -13 -9 -23 0 -9 -6 -23 -12 -30 -7 -6 -13 -15 -13 -19
-1 -16 -28 -88 -36 -97 -5 -5 -9 -17 -9 -26 0 -9 -7 -22 -15 -29 -8 -6 -14
-15 -13 -18 3 -12 -11 -51 -58 -159 -8 -17 -14 -36 -14 -43 0 -6 -5 -8 -12 -4
-7 4 -8 3 -4 -4 4 -7 0 -28 -8 -47 -22 -50 -41 -94 -56 -135 -7 -19 -17 -39
-22 -45 -4 -5 -8 -16 -8 -25 0 -9 -5 -21 -12 -28 -6 -6 -13 -21 -15 -32 -2
-12 -12 -40 -23 -62 -11 -23 -20 -47 -20 -54 0 -6 -7 -17 -15 -24 -9 -7 -13
-15 -11 -18 7 -6 -24 -83 -41 -103 -7 -9 -11 -18 -8 -21 3 -3 -6 -31 -20 -64
-38 -87 -41 -95 -60 -144 -41 -106 -59 -135 -85 -136 -33 0 -60 17 -60 38 0 9
-4 19 -9 22 -5 3 -12 18 -15 32 -4 14 -16 47 -28 73 -41 91 -48 109 -48 115 0
3 -9 25 -19 49 -41 91 -114 273 -115 289 -1 9 -7 22 -13 30 -14 19 -43 95 -37
100 2 3 -2 11 -11 18 -8 7 -15 18 -15 24 0 7 -9 31 -20 54 -11 22 -21 50 -23
62 -2 11 -9 26 -15 32 -7 7 -12 19 -12 28 0 9 -4 20 -8 25 -5 6 -15 26 -22 45
-17 44 -33 85 -54 133 -10 20 -14 42 -10 49 4 7 3 8 -4 4 -7 -4 -12 -2 -12 4
0 7 -7 27 -15 46 -8 19 -22 50 -31 69 -8 19 -12 40 -9 45 3 6 2 10 -2 10 -5 0
-17 19 -27 43 -10 23 -24 56 -32 74 -8 17 -14 34 -14 37 0 3 -9 25 -19 49 -10
23 -42 101 -71 172 -28 72 -56 139 -61 150 -45 103 -59 139 -54 143 3 3 -1 12
-8 21 -17 20 -48 97 -41 103 2 3 -2 11 -11 18 -8 7 -15 18 -15 24 0 7 -9 31
-20 54 -11 22 -21 50 -23 62 -2 11 -9 26 -15 32 -7 7 -12 19 -12 28 0 9 -4 20
-8 26 -5 5 -15 25 -22 44 -15 41 -34 85 -56 135 -8 19 -12 40 -8 47 4 7 3 8
-4 4 -7 -4 -12 -2 -12 4 0 7 -7 27 -15 46 -8 19 -22 50 -31 69 -8 19 -12 40
-9 45 3 6 2 10 -2 10 -5 0 -17 19 -27 43 -10 23 -24 56 -32 74 -8 17 -14 34
-14 37 0 3 -8 25 -19 49 -10 23 -26 62 -36 87 -10 25 -23 59 -30 75 -7 17 -23
55 -35 85 -23 56 -35 84 -66 155 -9 22 -18 59 -19 82 -2 35 2 46 31 74 19 18
34 31 34 28 0 -2 30 24 67 58 36 34 70 60 75 57 5 -3 7 -1 6 4 -2 5 8 20 22
32 14 12 111 97 215 189 105 93 193 169 197 170 4 1 26 21 50 44 47 45 92 86
208 187 41 35 77 67 80 70 3 3 100 89 215 190 116 102 219 193 229 202 29 27
51 22 98 -19z m1468 -1683 c6 -41 13 -113 15 -160 3 -47 9 -101 15 -120 5 -19
10 -56 10 -82 0 -26 4 -67 10 -90 9 -43 29 -230 36 -341 2 -32 8 -75 14 -95 5
-20 10 -57 10 -82 0 -25 4 -61 9 -80 6 -19 12 -77 15 -128 3 -51 7 -96 10
-101 3 -4 8 -46 11 -92 3 -46 10 -100 15 -119 6 -19 10 -57 10 -85 0 -27 4
-66 10 -85 5 -19 11 -73 14 -120 5 -86 19 -210 36 -311 18 -102 16 -111 -41
-142 -27 -15 -54 -25 -60 -22 -5 4 -9 2 -9 -3 0 -6 -19 -20 -42 -32 -241 -126
-307 -158 -312 -153 -3 4 -6 1 -6 -4 0 -6 -21 -22 -47 -35 -27 -13 -114 -59
-195 -101 -82 -43 -148 -74 -148 -70 0 5 -4 2 -8 -4 -11 -17 -218 -123 -226
-116 -3 4 -6 2 -6 -4 0 -6 -26 -24 -57 -40 -140 -72 -322 -168 -370 -194 -64
-36 -73 -19 -32 65 10 22 19 45 19 51 0 6 5 16 12 23 6 6 13 21 15 32 1 11 11
39 22 62 10 24 42 102 71 173 29 72 58 144 65 160 7 17 23 55 35 85 12 30 31
74 41 97 11 24 19 46 19 49 0 6 8 24 49 116 11 26 21 51 21 54 0 3 7 21 15 40
8 19 22 49 30 68 8 19 15 39 15 46 0 6 3 9 8 7 4 -3 8 5 8 16 1 12 13 47 26
77 14 30 31 71 38 90 7 19 17 39 22 44 4 6 8 17 8 26 0 9 5 21 12 28 6 6 13
21 15 32 2 12 12 40 23 62 11 23 20 47 20 53 0 6 5 16 12 23 6 6 13 21 15 32
1 11 11 39 22 62 10 24 42 102 71 173 29 72 58 144 65 160 7 17 23 55 35 85
12 30 31 74 41 97 11 24 19 46 19 49 0 3 7 22 16 42 9 21 20 46 24 57 4 11 15
36 24 57 9 20 16 39 16 42 0 3 11 30 25 60 14 30 25 60 25 66 0 6 5 8 12 4 7
-4 8 -3 4 4 -4 7 0 28 8 47 22 50 41 94 56 135 7 19 17 39 22 44 4 6 8 17 8
26 0 9 5 21 12 28 6 6 13 21 15 32 2 12 12 40 23 62 11 23 20 47 20 53 0 6 5
16 12 23 6 6 13 21 15 32 3 18 12 42 54 135 13 30 13 30 21 -35 5 -36 13 -99
18 -140z m-3010 178 c0 -11 46 -127 95 -243 11 -26 38 -92 65 -160 23 -57 42
-102 51 -118 5 -10 7 -22 4 -26 -2 -5 2 -14 10 -21 8 -7 15 -21 15 -31 0 -10
4 -20 9 -23 5 -3 12 -18 15 -32 4 -14 16 -47 28 -73 41 -91 48 -109 48 -115 0
-3 9 -25 19 -49 37 -80 51 -119 45 -128 -3 -5 -1 -9 3 -9 9 0 23 -30 60 -125
9 -22 24 -58 33 -80 10 -23 20 -50 22 -60 1 -11 9 -26 16 -33 6 -7 12 -21 12
-31 0 -9 4 -21 8 -26 5 -6 15 -26 22 -45 17 -47 33 -86 59 -142 11 -26 21 -51
21 -54 0 -3 7 -21 15 -40 8 -19 22 -50 31 -69 8 -19 12 -40 8 -47 -4 -7 -3 -8
4 -4 7 4 12 2 12 -4 0 -7 7 -27 15 -46 44 -100 60 -144 57 -156 -1 -3 5 -12
13 -18 8 -7 15 -21 15 -31 0 -10 4 -20 9 -23 5 -3 12 -18 15 -32 4 -14 15 -45
25 -68 10 -22 29 -66 41 -96 23 -57 41 -101 66 -158 8 -18 12 -38 9 -43 -4 -5
-2 -9 2 -9 5 0 24 -37 42 -82 18 -46 41 -101 51 -123 10 -23 20 -50 22 -60 1
-11 9 -26 16 -33 6 -7 12 -21 12 -31 0 -9 4 -21 8 -27 5 -5 15 -25 22 -44 17
-47 33 -86 59 -142 11 -26 21 -51 21 -54 0 -5 17 -46 41 -99 31 -68 27 -67
-229 63 -136 68 -399 201 -584 294 -186 94 -338 174 -338 178 0 3 -6 7 -14 7
-19 0 -126 53 -126 62 0 4 -6 8 -14 8 -23 0 -86 33 -86 45 0 6 -3 9 -6 5 -7
-7 -100 38 -126 61 -10 8 -18 12 -18 8 0 -4 -10 -2 -21 5 -19 10 -21 17 -15
67 3 32 9 98 15 149 5 50 11 95 14 100 3 5 9 51 12 103 4 52 9 98 11 102 3 5
8 50 10 101 3 50 10 108 15 127 5 19 9 55 9 80 0 25 5 63 10 85 5 22 12 80 15
129 3 49 8 93 11 98 3 5 8 48 10 96 3 48 9 103 15 122 5 19 9 58 9 85 0 28 5
67 11 88 10 38 15 86 18 195 0 29 4 51 9 49 4 -3 8 32 10 77 2 44 7 97 12 116
6 19 10 56 10 81 0 26 5 71 11 100 5 30 12 88 14 129 7 108 15 160 26 160 5 0
9 -6 9 -12z"/>
<path d="M4166 7289 c-14 -11 -33 -34 -42 -51 -15 -28 -14 -34 1 -72 9 -22 21
-49 26 -58 5 -10 9 -27 9 -37 0 -11 4 -22 9 -25 4 -3 11 -19 14 -35 4 -16 15
-49 26 -73 18 -41 60 -152 65 -173 2 -5 13 -32 25 -60 13 -27 24 -60 25 -73 2
-12 8 -28 14 -34 7 -7 12 -19 12 -28 0 -9 4 -20 8 -26 5 -5 17 -31 26 -59 10
-27 22 -59 26 -70 5 -11 17 -43 26 -72 9 -29 27 -64 41 -78 l26 -25 421 -1
c231 -1 424 -1 429 0 10 1 9 0 -12 -45 -11 -22 -23 -52 -26 -67 -4 -15 -10
-25 -14 -23 -3 2 -7 -6 -8 -17 0 -12 -10 -43 -22 -70 -11 -26 -20 -48 -20 -50
1 -4 -36 -101 -64 -167 -8 -19 -21 -53 -28 -75 -25 -77 -46 -82 -75 -17 -9 20
-34 74 -56 120 -21 45 -38 85 -38 87 0 18 -71 154 -89 169 -38 34 -235 51
-284 24 -55 -29 -71 -91 -42 -161 8 -19 12 -37 9 -39 -2 -3 2 -11 11 -18 8 -7
15 -20 15 -30 0 -9 3 -19 6 -23 11 -11 113 -271 108 -278 -2 -4 3 -12 11 -19
8 -7 15 -20 15 -29 0 -9 4 -21 9 -27 10 -10 36 -85 33 -96 -1 -3 5 -12 13 -18
8 -7 15 -18 15 -26 0 -7 7 -30 16 -51 9 -21 20 -47 24 -58 5 -11 17 -41 29
-67 12 -26 21 -51 21 -54 0 -3 7 -22 16 -42 9 -21 20 -46 25 -57 60 -139 80
-174 107 -193 63 -45 132 -17 175 70 15 30 27 58 27 62 0 12 43 101 58 119 8
9 12 17 9 17 -6 0 26 97 36 107 4 3 7 14 7 23 0 9 5 21 12 28 6 6 13 22 15 34
2 13 8 33 13 46 18 39 28 66 46 117 9 28 21 54 26 59 4 6 8 18 8 27 0 9 6 22
14 29 8 6 13 17 10 24 -3 8 1 20 8 27 7 8 14 23 16 34 1 11 7 30 12 43 11 25
20 46 45 112 9 25 21 53 26 62 5 10 9 24 9 32 0 7 7 19 15 26 8 7 12 16 9 21
-3 5 2 26 11 46 27 61 33 77 40 101 4 12 11 22 16 22 6 0 7 4 4 10 -5 8 6 41
34 100 8 18 36 109 51 170 6 25 16 59 22 75 15 43 10 112 -10 136 -36 44 -37
44 -561 49 l-505 5 -16 45 c-9 25 -20 54 -24 65 -4 11 -12 28 -17 37 -5 9 -12
35 -15 58 l-7 40 670 0 c570 0 674 2 699 15 28 14 76 82 81 115 3 27 26 95 36
107 5 7 10 36 10 64 1 46 -3 55 -31 80 l-32 29 -959 0 c-957 0 -958 0 -985
-21z m1918 -84 c-1 -22 -18 -71 -32 -92 -8 -13 -11 -23 -8 -23 4 0 1 -10 -6
-22 -7 -13 -13 -27 -14 -33 0 -5 -2 -16 -2 -23 -1 -6 -5 -11 -9 -11 -5 1 -336
1 -736 0 -651 -1 -728 -3 -734 -17 -3 -8 0 -26 7 -38 6 -13 13 -35 13 -49 1
-14 5 -23 10 -20 4 2 7 -1 7 -7 0 -7 7 -28 16 -48 41 -94 64 -159 57 -165 -3
-3 0 -12 7 -19 6 -7 19 -29 28 -48 l17 -35 520 -5 520 -5 -3 -45 c-2 -25 -8
-52 -13 -62 -5 -9 -11 -33 -14 -54 -2 -21 -8 -40 -13 -43 -4 -3 -9 -15 -9 -26
-1 -11 -12 -42 -24 -70 -25 -56 -26 -59 -28 -81 0 -9 -6 -12 -13 -8 -6 4 -8 3
-5 -3 6 -10 -20 -95 -38 -123 -5 -8 -10 -17 -10 -20 -1 -9 -26 -84 -35 -105
-4 -11 -15 -36 -24 -57 -9 -20 -16 -41 -16 -48 0 -6 -3 -9 -7 -7 -5 3 -9 -9
-10 -25 -1 -17 -9 -38 -18 -48 -8 -9 -12 -20 -8 -23 3 -4 -2 -16 -12 -27 -10
-11 -15 -20 -12 -20 6 0 -26 -97 -36 -107 -4 -3 -7 -14 -7 -23 0 -10 -6 -22
-13 -28 -7 -6 -14 -23 -15 -38 -1 -16 -7 -33 -12 -38 -6 -6 -10 -18 -10 -27 0
-9 -7 -22 -15 -29 -8 -7 -13 -16 -10 -20 5 -8 -12 -54 -36 -102 -5 -10 -9 -24
-9 -32 0 -7 -7 -19 -15 -26 -8 -7 -12 -16 -10 -20 3 -5 -6 -35 -21 -67 -14
-32 -30 -67 -34 -78 -45 -106 -51 -115 -74 -115 -18 0 -26 9 -35 38 -7 20 -13
42 -12 47 0 6 -6 17 -13 25 -19 23 -46 97 -38 105 4 5 2 5 -4 2 -7 -4 -14 4
-18 19 -4 14 -15 45 -26 68 -10 22 -20 50 -22 61 -2 11 -9 26 -15 33 -7 7 -13
20 -13 28 0 8 -4 22 -9 32 -25 48 -41 93 -36 102 3 6 2 10 -3 10 -8 0 -61 124
-66 155 -1 8 -8 21 -14 27 -7 7 -12 19 -12 28 0 9 -4 20 -9 25 -12 14 -36 87
-33 103 2 6 -1 12 -6 12 -4 0 -16 19 -26 43 -9 23 -24 57 -32 75 -8 18 -12 37
-9 42 3 5 1 11 -5 15 -25 15 -7 30 38 32 69 3 153 -7 147 -17 -3 -5 -1 -11 5
-15 17 -10 51 -95 44 -107 -4 -6 -3 -8 4 -4 6 3 14 -4 18 -16 3 -13 15 -41 25
-63 10 -22 19 -47 21 -55 2 -8 9 -21 16 -28 7 -8 10 -17 7 -22 -3 -5 -1 -11 5
-15 17 -10 51 -95 44 -107 -4 -7 -3 -8 4 -4 7 4 13 1 14 -6 0 -7 2 -18 2 -24
1 -6 6 -18 12 -25 6 -8 19 -33 30 -56 21 -51 37 -54 54 -10 6 17 16 40 21 49
5 10 9 24 9 31 0 7 5 18 12 25 6 6 13 22 15 34 2 13 8 33 13 46 11 24 18 42
45 112 9 25 21 53 26 62 5 10 9 24 9 31 0 7 5 18 12 25 6 6 12 22 14 36 1 14
14 48 28 76 14 27 23 50 19 50 -3 0 -1 6 5 13 5 6 13 27 17 45 3 18 10 30 14
28 4 -3 8 7 9 22 1 14 7 31 12 36 6 6 10 18 10 27 0 10 6 24 13 31 6 7 12 20
13 28 1 8 4 25 8 38 l7 22 -467 0 c-433 0 -468 1 -480 18 -7 9 -14 26 -14 38
0 11 -3 24 -7 27 -12 12 -40 102 -36 115 3 6 1 12 -5 12 -9 0 -59 118 -67 159
-2 13 -9 28 -14 35 -5 6 -10 14 -11 18 0 4 -8 24 -16 44 -8 20 -13 38 -10 41
3 3 -2 12 -10 20 -8 9 -13 21 -10 29 3 7 -2 18 -10 24 -8 7 -14 20 -14 29 0 9
-4 21 -10 27 -5 5 -11 18 -13 29 -2 11 -9 31 -16 43 -7 13 -10 26 -7 29 3 3
-1 18 -9 32 -28 53 -49 123 -38 129 18 12 1868 -2 1867 -13z"/>
<path d="M3250 2553 c-8 -3 -32 -17 -53 -31 -50 -34 -77 -96 -77 -179 0 -103
35 -154 135 -198 95 -41 105 -49 111 -83 8 -41 -2 -120 -17 -138 -6 -8 -26
-14 -43 -14 -39 0 -73 33 -78 75 -3 29 -4 30 -58 30 -49 0 -55 -2 -58 -22 -9
-61 40 -148 101 -180 45 -23 145 -22 187 3 69 40 109 190 79 294 -7 25 -12 49
-11 53 2 5 -2 6 -8 2 -5 -3 -13 1 -16 9 -7 19 -54 46 -119 70 -63 23 -85 48
-85 95 0 57 10 78 41 91 39 17 79 -8 79 -48 0 -48 19 -64 75 -60 l50 3 0 56
c0 70 -37 128 -99 159 -40 19 -102 25 -136 13z"/>
<path d="M3667 2553 c-4 -3 -7 -174 -7 -380 l0 -373 53 0 54 0 6 137 c12 236
9 597 -5 611 -13 13 -90 17 -101 5z"/>
<path d="M3977 2553 c-4 -3 -7 -174 -7 -380 l0 -373 163 2 162 3 3 46 c4 64
-7 71 -117 67 l-91 -3 0 303 c0 190 -4 311 -10 323 -8 14 -21 19 -54 19 -23 0
-46 -3 -49 -7z"/>
<path d="M4461 2547 c-8 -11 -11 -111 -9 -378 l3 -364 58 -3 57 -3 -2 378 -3
378 -46 3 c-30 2 -50 -2 -58 -11z"/>
<path d="M4899 2551 c-45 -14 -74 -39 -100 -83 -24 -42 -24 -46 -24 -298 0
-239 1 -257 21 -290 38 -65 120 -99 200 -84 51 9 122 84 131 137 7 39 7 52 4
77 0 6 -28 10 -61 10 l-60 0 0 -39 c0 -57 -37 -80 -92 -56 -16 6 -18 28 -18
241 0 221 1 235 20 254 39 39 80 15 89 -51 l6 -44 50 -3 c60 -4 76 12 68 66
-18 118 -131 196 -234 163z"/>
<path d="M5403 2540 c-46 -24 -84 -67 -101 -119 -8 -22 -12 -111 -12 -246 0
-225 5 -255 48 -313 35 -46 77 -65 143 -65 69 0 112 23 154 82 l30 43 0 251
c0 248 0 253 -24 290 -52 85 -157 118 -238 77z m108 -113 c35 -27 39 -54 39
-254 0 -176 -2 -201 -19 -229 -15 -25 -24 -30 -50 -28 -61 4 -61 4 -61 260 0
229 0 233 22 248 27 19 47 20 69 3z"/>
<path d="M5863 2554 c-10 -4 -13 -90 -13 -380 l0 -374 59 0 c33 0 62 4 65 8 3
5 6 86 6 180 1 97 6 172 11 172 5 0 9 -6 9 -12 0 -11 39 -124 60 -173 5 -11
21 -55 37 -97 l28 -78 57 0 58 0 0 368 c0 273 -3 371 -12 380 -7 7 -26 12 -44
12 -66 0 -64 8 -64 -213 0 -110 -2 -198 -5 -195 -5 4 -65 167 -85 228 -17 52
-59 163 -64 167 -8 8 -89 13 -103 7z"/>
<path d="M6684 2550 c-11 -11 1 -93 45 -295 17 -81 22 -104 51 -250 5 -22 13
-69 19 -105 19 -104 16 -100 75 -100 l53 0 11 43 c6 23 18 76 26 117 8 41 18
89 21 105 3 17 10 48 14 70 15 74 49 240 56 270 32 152 31 155 -41 155 -49 0
-60 -10 -68 -70 -4 -25 -11 -65 -16 -90 -4 -25 -13 -79 -20 -120 -23 -152 -43
-190 -53 -102 -3 26 -13 92 -22 147 -9 55 -19 126 -24 158 -4 32 -14 63 -22
68 -19 12 -93 11 -105 -1z"/>
<path d="M7338 2548 c-9 -7 -18 -26 -21 -43 -3 -16 -10 -48 -15 -70 -6 -22
-18 -76 -27 -120 -9 -44 -21 -96 -25 -115 -15 -62 -61 -274 -70 -320 -4 -25
-10 -52 -12 -60 -2 -12 9 -15 56 -15 l60 0 15 78 14 78 66 -3 66 -3 9 -40 c5
-22 13 -57 18 -77 l9 -38 54 0 c51 0 55 2 55 24 0 12 -4 36 -9 52 -8 26 -25
101 -53 239 -5 28 -14 66 -18 85 -5 19 -16 69 -25 110 -9 41 -21 98 -27 125
-14 66 -29 108 -42 117 -17 12 -61 9 -78 -4z m55 -333 c3 -28 7 -58 11 -67 14
-40 15 -49 10 -63 -6 -15 -31 -19 -58 -9 -11 4 -13 12 -6 28 4 13 8 29 8 37
-3 44 3 70 14 63 8 -5 9 2 5 23 -3 17 -3 33 0 37 10 9 11 4 16 -49z"/>
<path d="M7743 2552 c-10 -6 -12 -93 -10 -378 l2 -369 163 -3 162 -2 -2 55 -2
55 -103 0 -103 0 -2 323 -3 322 -45 3 c-25 1 -51 -1 -57 -6z"/>
<path d="M8232 2554 c-9 -5 -12 -88 -12 -380 l1 -374 162 2 162 3 0 50 0 50
-102 3 -103 3 -1 27 c-1 15 -5 160 -8 322 l-6 295 -40 2 c-22 1 -46 0 -53 -3z"/>
<path d="M9459 2548 c-9 -7 -21 -31 -27 -53 -7 -22 -20 -67 -31 -100 -10 -33
-22 -76 -26 -95 l-7 -34 -13 40 c-7 21 -16 51 -19 66 -4 16 -7 30 -7 33 -1 2
-11 35 -24 72 l-22 68 -48 3 c-26 2 -53 1 -60 -2 -9 -3 5 -56 52 -193 36 -103
69 -204 74 -223 5 -19 9 -102 9 -183 l0 -148 58 3 57 3 5 175 5 175 48 140
c27 77 52 149 57 160 4 11 13 33 19 49 9 21 9 32 0 42 -14 17 -80 18 -100 2z"/>
<path d="M1213 2178 l2 -373 158 -3 157 -3 0 56 0 55 -105 0 -106 0 3 108 3
107 90 5 c85 5 90 6 93 29 2 12 1 34 -2 47 -6 23 -10 24 -96 24 l-90 0 0 105
0 105 105 0 105 0 0 55 0 55 -160 0 -160 0 3 -372z"/>
<path d="M1788 2530 c-20 -11 -50 -36 -65 -57 l-28 -36 0 -263 0 -262 31 -38
c44 -55 79 -72 146 -73 71 -1 119 25 152 83 24 40 24 46 25 286 2 275 -1 286
-73 344 -48 39 -132 46 -188 16z m122 -110 c29 -29 31 -49 28 -267 -3 -181 -5
-203 -22 -222 -23 -25 -63 -27 -88 -4 -16 15 -18 36 -18 249 0 229 0 233 22
248 30 21 54 20 78 -4z"/>
<path d="M2303 2521 c-51 -37 -76 -90 -80 -171 -3 -53 1 -74 20 -110 20 -40
33 -50 120 -94 89 -45 97 -52 103 -83 8 -45 0 -119 -16 -138 -17 -21 -83 -19
-103 3 -8 9 -17 33 -19 52 -3 32 -6 35 -37 38 -19 2 -45 1 -59 -3 -23 -6 -24
-9 -18 -53 14 -100 86 -164 186 -164 103 0 159 51 178 162 13 72 0 160 -29
201 -17 24 -59 49 -161 93 -44 20 -58 41 -58 90 0 74 40 110 99 90 20 -7 29
-20 37 -54 l11 -45 51 -3 52 -3 0 40 c0 51 -15 89 -48 124 -40 42 -75 57 -135
57 -44 0 -62 -6 -94 -29z"/>
<path d="M8710 2175 l0 -375 160 0 160 0 0 55 0 55 -100 0 -100 0 0 105 0 104
88 3 87 3 0 50 0 50 -90 5 -90 5 -3 102 -3 102 103 3 103 3 0 50 0 50 -157 3
-158 3 0 -376z"/>
</g>
</svg>
