<?xml version="1.0" encoding="utf-8"?>
<!-- Generator: Adobe Illustrator 21.0.0, SVG Export Plug-In . SVG Version: 6.00 Build 0)  -->
<svg version="1.1" id="Calque_1" xmlns="http://www.w3.org/2000/svg" xmlns:xlink="http://www.w3.org/1999/xlink" x="0px" y="0px"
	 viewBox="0 0 382.4 57.2" style="enable-background:new 0 0 382.4 57.2;" xml:space="preserve">
<style type="text/css">
	.st0{fill:#1D232E;}
	.st1{opacity:0.15;}
	.st2{fill:#E08F5A;}
	.st3{fill:url(#SVGID_1_);}
	.st4{fill:url(#SVGID_2_);}
	.st5{fill:url(#SVGID_3_);}
	.st6{fill:url(#SVGID_4_);}
	.st7{fill:url(#SVGID_5_);}
	.st8{fill:url(#SVGID_6_);}
	.st9{fill:url(#SVGID_7_);}
	.st10{fill:url(#SVGID_8_);}
	.st11{fill:url(#SVGID_9_);}
	.st12{fill:url(#SVGID_10_);}
	.st13{fill:#E6E6E6;}
	.st14{fill:#CCCCCC;}
	.st15{fill:#B3B3B3;}
	.st16{fill:#999999;}
	.st17{fill:url(#SVGID_11_);}
	.st18{fill:url(#SVGID_12_);}
	.st19{fill:url(#SVGID_13_);}
	.st20{fill:url(#SVGID_14_);}
	.st21{fill:url(#SVGID_15_);}
	.st22{fill:url(#SVGID_16_);}
	.st23{fill:url(#SVGID_17_);}
	.st24{fill:url(#SVGID_18_);}
	.st25{fill:url(#SVGID_19_);}
	.st26{fill:url(#SVGID_20_);}
	.st27{opacity:0.21;}
	.st28{fill:url(#SVGID_21_);}
	.st29{fill:url(#SVGID_22_);}
	.st30{fill:url(#SVGID_23_);}
	.st31{fill:url(#SVGID_24_);}
	.st32{fill:url(#SVGID_25_);}
	.st33{fill:url(#SVGID_26_);}
	.st34{fill:url(#SVGID_27_);}
	.st35{fill:url(#SVGID_28_);}
	.st36{fill:url(#SVGID_29_);}
	.st37{fill:url(#SVGID_30_);}
	.st38{fill:url(#SVGID_31_);}
	.st39{fill:url(#SVGID_32_);}
	.st40{fill:url(#SVGID_33_);}
	.st41{fill:url(#SVGID_34_);}
	.st42{fill:url(#SVGID_35_);}
	.st43{fill:url(#SVGID_36_);}
	.st44{fill:url(#SVGID_37_);}
	.st45{fill:url(#SVGID_38_);}
	.st46{fill:url(#SVGID_39_);}
	.st47{fill:url(#SVGID_40_);}
	.st48{fill:url(#SVGID_41_);}
	.st49{fill:url(#SVGID_42_);}
	.st50{fill:url(#SVGID_43_);}
	.st51{fill:url(#SVGID_44_);}
	.st52{fill:url(#SVGID_45_);}
	.st53{fill:url(#SVGID_46_);}
	.st54{fill:url(#SVGID_47_);}
	.st55{fill:url(#SVGID_48_);}
	.st56{fill:url(#SVGID_49_);}
	.st57{fill:url(#SVGID_50_);}
	.st58{fill:url(#SVGID_51_);}
	.st59{fill:url(#SVGID_52_);}
	.st60{fill:url(#SVGID_53_);}
	.st61{fill:url(#SVGID_54_);}
	.st62{fill:url(#SVGID_55_);}
	.st63{fill:url(#SVGID_56_);}
	.st64{fill:url(#SVGID_57_);}
	.st65{fill:url(#SVGID_58_);}
	.st66{fill:url(#SVGID_59_);}
	.st67{fill:url(#SVGID_60_);}
	.st68{fill:url(#SVGID_61_);}
	.st69{fill:url(#SVGID_62_);}
	.st70{fill:url(#SVGID_63_);}
	.st71{fill:url(#SVGID_64_);}
	.st72{fill:url(#SVGID_65_);}
	.st73{fill:url(#SVGID_66_);}
	.st74{fill:url(#SVGID_67_);}
	.st75{fill:url(#SVGID_68_);}
	.st76{fill:url(#SVGID_69_);}
	.st77{fill:url(#SVGID_70_);}
	.st78{fill:url(#SVGID_71_);}
	.st79{fill:url(#SVGID_72_);}
	.st80{fill:url(#SVGID_73_);}
	.st81{fill:url(#SVGID_74_);}
	.st82{fill:url(#SVGID_75_);}
	.st83{fill:url(#SVGID_76_);}
	.st84{fill:url(#SVGID_77_);}
	.st85{fill:url(#SVGID_78_);}
	.st86{fill:url(#SVGID_79_);}
	.st87{fill:url(#SVGID_80_);}
	.st88{fill:url(#SVGID_81_);}
	.st89{fill:url(#SVGID_82_);}
	.st90{fill:url(#SVGID_83_);}
	.st91{fill:url(#SVGID_84_);}
	.st92{fill:url(#SVGID_85_);}
	.st93{fill:url(#SVGID_86_);}
	.st94{fill:url(#SVGID_87_);}
	.st95{fill:url(#SVGID_88_);}
	.st96{fill:url(#SVGID_89_);}
	.st97{fill:url(#SVGID_90_);}
	.st98{fill:#FFFFFF;}
	.st99{fill:#FFBAA6;}
	.st100{fill:#FF8D6B;}
	.st101{fill:url(#SVGID_91_);}
	.st102{fill:url(#SVGID_92_);}
	.st103{fill:url(#SVGID_93_);}
	.st104{fill:url(#SVGID_94_);}
	.st105{fill:url(#SVGID_95_);}
	.st106{fill:url(#SVGID_96_);}
	.st107{fill:url(#SVGID_97_);}
	.st108{fill:url(#SVGID_98_);}
	.st109{fill:url(#SVGID_99_);}
	.st110{fill:url(#SVGID_100_);}
	.st111{fill:url(#SVGID_101_);}
	.st112{fill:url(#SVGID_102_);}
	.st113{fill:url(#SVGID_103_);}
	.st114{fill:url(#SVGID_104_);}
	.st115{fill:url(#SVGID_105_);}
	.st116{fill:url(#SVGID_106_);}
	.st117{fill:url(#SVGID_107_);}
	.st118{fill:url(#SVGID_108_);}
	.st119{fill:url(#SVGID_109_);}
	.st120{fill:url(#SVGID_110_);}
	.st121{fill:url(#SVGID_111_);}
	.st122{fill:url(#SVGID_112_);}
	.st123{fill:url(#SVGID_113_);}
	.st124{fill:url(#SVGID_114_);}
	.st125{fill:url(#SVGID_115_);}
	.st126{fill:url(#SVGID_116_);}
	.st127{fill:url(#SVGID_117_);}
	.st128{fill:url(#SVGID_118_);}
	.st129{fill:url(#SVGID_119_);}
	.st130{fill:url(#SVGID_120_);}
	.st131{fill:url(#SVGID_121_);}
	.st132{fill:url(#SVGID_122_);}
	.st133{fill:url(#SVGID_123_);}
	.st134{fill:url(#SVGID_124_);}
	.st135{fill:url(#SVGID_125_);}
	.st136{fill:url(#SVGID_126_);}
	.st137{fill:url(#SVGID_127_);}
	.st138{fill:url(#SVGID_128_);}
	.st139{fill:url(#SVGID_129_);}
	.st140{fill:url(#SVGID_130_);}
	.st141{fill:url(#SVGID_131_);}
	.st142{fill:url(#SVGID_132_);}
	.st143{fill:url(#SVGID_133_);}
	.st144{fill:url(#SVGID_134_);}
	.st145{fill:url(#SVGID_135_);}
	.st146{fill:url(#SVGID_136_);}
	.st147{fill:url(#SVGID_137_);}
	.st148{fill:url(#SVGID_138_);}
	.st149{fill:url(#SVGID_139_);}
	.st150{fill:url(#SVGID_140_);}
	.st151{fill:url(#SVGID_141_);}
	.st152{fill:url(#SVGID_142_);}
	.st153{fill:url(#SVGID_143_);}
	.st154{fill:url(#SVGID_144_);}
	.st155{fill:url(#SVGID_145_);}
	.st156{fill:url(#SVGID_146_);}
	.st157{fill:url(#SVGID_147_);}
	.st158{fill:url(#SVGID_148_);}
	.st159{fill:url(#SVGID_149_);}
	.st160{fill:url(#SVGID_150_);}
	.st161{fill:url(#SVGID_151_);}
	.st162{fill:url(#SVGID_152_);}
	.st163{fill:url(#SVGID_153_);}
	.st164{fill:url(#SVGID_154_);}
	.st165{fill:url(#SVGID_155_);}
	.st166{fill:url(#SVGID_156_);}
	.st167{fill:url(#SVGID_157_);}
	.st168{fill:url(#SVGID_158_);}
	.st169{fill:url(#SVGID_159_);}
	.st170{fill:url(#SVGID_160_);}
	.st171{fill:url(#SVGID_161_);}
	.st172{fill:url(#SVGID_162_);}
	.st173{fill:url(#SVGID_163_);}
	.st174{fill:url(#SVGID_164_);}
	.st175{fill:url(#SVGID_165_);}
	.st176{fill:url(#SVGID_166_);}
	.st177{fill:url(#SVGID_167_);}
	.st178{fill:url(#SVGID_168_);}
	.st179{fill:url(#SVGID_169_);}
	.st180{fill:url(#SVGID_170_);}
	.st181{fill:url(#SVGID_171_);}
	.st182{fill:url(#SVGID_172_);}
	.st183{fill:url(#SVGID_173_);}
	.st184{fill:url(#SVGID_174_);}
	.st185{fill:url(#SVGID_175_);}
	.st186{fill:url(#SVGID_176_);}
	.st187{fill:url(#SVGID_177_);}
	.st188{fill:url(#SVGID_178_);}
	.st189{fill:url(#SVGID_179_);}
	.st190{fill:url(#SVGID_180_);}
	.st191{fill:url(#SVGID_181_);}
	.st192{fill:url(#SVGID_182_);}
	.st193{fill:url(#SVGID_183_);}
	.st194{fill:url(#SVGID_184_);}
	.st195{fill:url(#SVGID_185_);}
	.st196{fill:url(#SVGID_186_);}
	.st197{fill:url(#SVGID_187_);}
	.st198{fill:url(#SVGID_188_);}
	.st199{fill:url(#SVGID_189_);}
	.st200{fill:url(#SVGID_190_);}
	.st201{fill:url(#SVGID_191_);}
	.st202{fill:url(#SVGID_192_);}
	.st203{fill:url(#SVGID_193_);}
	.st204{fill:url(#SVGID_194_);}
	.st205{fill:url(#SVGID_195_);}
	.st206{fill:url(#SVGID_196_);}
	.st207{fill:url(#SVGID_197_);}
	.st208{fill:url(#SVGID_198_);}
	.st209{fill:url(#SVGID_199_);}
	.st210{fill:url(#SVGID_200_);}
	.st211{fill:url(#SVGID_201_);}
	.st212{fill:url(#SVGID_202_);}
	.st213{fill:url(#SVGID_203_);}
	.st214{fill:url(#SVGID_204_);}
	.st215{fill:url(#SVGID_205_);}
	.st216{fill:url(#SVGID_206_);}
	.st217{fill:url(#SVGID_207_);}
	.st218{fill:url(#SVGID_208_);}
	.st219{fill:url(#SVGID_209_);}
	.st220{fill:url(#SVGID_210_);}
	.st221{fill:url(#SVGID_211_);}
	.st222{fill:url(#SVGID_212_);}
	.st223{fill:url(#SVGID_213_);}
	.st224{fill:url(#SVGID_214_);}
	.st225{fill:url(#SVGID_215_);}
	.st226{fill:url(#SVGID_216_);}
	.st227{fill:url(#SVGID_217_);}
	.st228{fill:url(#SVGID_218_);}
	.st229{fill:url(#SVGID_219_);}
	.st230{fill:url(#SVGID_220_);}
	.st231{fill:url(#SVGID_221_);}
	.st232{fill:url(#SVGID_222_);}
	.st233{fill:url(#SVGID_223_);}
	.st234{fill:url(#SVGID_224_);}
	.st235{fill:url(#SVGID_225_);}
	.st236{fill:url(#SVGID_226_);}
	.st237{fill:url(#SVGID_227_);}
	.st238{fill:url(#SVGID_228_);}
	.st239{fill:url(#SVGID_229_);}
	.st240{fill:url(#SVGID_230_);}
	.st241{fill:url(#SVGID_231_);}
	.st242{fill:url(#SVGID_232_);}
	.st243{fill:url(#SVGID_233_);}
	.st244{fill:url(#SVGID_234_);}
	.st245{fill:url(#SVGID_235_);}
	.st246{fill:url(#SVGID_236_);}
	.st247{fill:url(#SVGID_237_);}
	.st248{fill:url(#SVGID_238_);}
	.st249{fill:url(#SVGID_239_);}
	.st250{fill:url(#SVGID_240_);}
</style>
<g>
	<path class="st98" d="M10.2,15.7h7.7c0.5,0,0.7,0.2,0.7,0.7v1c0,0.4-0.2,0.7-0.7,0.7h-7.7c-0.5,0-0.7,0.2-0.7,0.7v37.9
		c0,0.5-0.2,0.7-0.7,0.7H7.7C7.2,57.2,7,57,7,56.5V18.6C7,18.2,6.8,18,6.3,18H0.7C0.2,18,0,17.8,0,17.3v-1c0-0.4,0.2-0.7,0.7-0.7
		h5.5c0.5,0,0.7-0.2,0.7-0.7v-4.2C7,3.6,10.2,0,16.6,0h1.2c0.5,0,0.7,0.2,0.7,0.7v1c0,0.4-0.2,0.7-0.7,0.7h-1.2
		c-2.6,0-4.5,0.7-5.5,2.2C10,5.9,9.4,8.1,9.4,11v4.1C9.4,15.5,9.7,15.7,10.2,15.7z"/>
	<path class="st98" d="M45,57.2h-1.1c-0.4,0-0.7-0.2-0.7-0.7v-40c0-0.5,0.2-0.7,0.7-0.7H45c0.4,0,0.7,0.2,0.7,0.7v3.7H46
		c0.6-1.1,1.6-2.1,3.1-3c1.5-0.9,3.4-1.4,5.8-1.4h3.3c0.5,0,0.7,0.2,0.7,0.7v1c0,0.4-0.2,0.7-0.7,0.7h-3.3c-2.8,0-5,0.9-6.7,2.6
		c-1.7,1.7-2.5,4.1-2.5,7.1v28.8C45.7,57,45.4,57.2,45,57.2z"/>
	<path class="st98" d="M100.3,57.2h-6c-3.3,0-6-1-7.9-3c-2-2-3-4.7-3-8.1V26.8c0-3.4,1-6,3-8.1c2-2,4.6-3,7.9-3H111
		c0.4,0,0.7,0.2,0.7,0.7v40c0,0.5-0.2,0.7-0.7,0.7h-1.1c-0.4,0-0.7-0.2-0.7-0.7V53h-0.3C107.4,55.8,104.5,57.2,100.3,57.2z
		 M109.2,46.5V18.6c0-0.4-0.2-0.7-0.7-0.7H94.3c-2.7,0-4.8,0.8-6.3,2.4c-1.5,1.6-2.2,3.7-2.2,6.5v19.2c0,2.8,0.7,4.9,2.2,6.5
		c1.5,1.6,3.6,2.4,6.3,2.4h5.9c2.7,0,4.9-0.7,6.6-2.2C108.4,51.3,109.2,49.2,109.2,46.5z"/>
	<path class="st98" d="M142.8,57.2h-1.1c-0.4,0-0.7-0.2-0.7-0.7v-40c0-0.5,0.2-0.7,0.7-0.7h1.1c0.4,0,0.7,0.2,0.7,0.7v3.5h0.3
		c1.5-2.8,4.4-4.2,8.6-4.2h6c3.3,0,6,1,7.9,3c2,2,3,4.7,3,8.1v29.7c0,0.5-0.2,0.7-0.7,0.7h-1.1c-0.4,0-0.7-0.2-0.7-0.7V26.9
		c0-2.8-0.7-4.9-2.2-6.5c-1.5-1.6-3.6-2.4-6.3-2.4h-5.9c-2.7,0-4.9,0.7-6.6,2.2c-1.7,1.5-2.5,3.6-2.5,6.3v30
		C143.4,57,143.2,57.2,142.8,57.2z"/>
	<path class="st98" d="M220.6,55.6v1c0,0.4-0.2,0.7-0.7,0.7h-11.6c-3.3,0-6-1-7.9-3c-2-2-3-4.7-3-8.1V26.8c0-3.4,1-6,3-8.1
		c2-2,4.6-3,7.9-3h11.6c0.5,0,0.7,0.2,0.7,0.7v1c0,0.4-0.2,0.7-0.7,0.7h-11.6c-2.7,0-4.8,0.8-6.3,2.4c-1.5,1.6-2.2,3.7-2.2,6.5v19.2
		c0,2.8,0.7,4.9,2.2,6.5c1.5,1.6,3.6,2.4,6.3,2.4h11.6C220.3,54.9,220.6,55.2,220.6,55.6z"/>
	<path class="st99" d="M273,57.2h-16.7c-3.3,0-6-1-7.9-3c-2-2-3-4.7-3-8.1V26.8c0-3.4,1-6,3-8.1c2-2,4.6-3,7.9-3h7.2
		c3.3,0,6,1,7.9,3c2,2,3,4.7,3,8.1v10.3c0,0.5-0.2,0.8-0.7,0.8h-25.1c-0.5,0-0.7,0.2-0.7,0.7v7.5c0,2.8,0.7,4.9,2.2,6.5
		c1.5,1.6,3.6,2.4,6.3,2.4H273c0.5,0,0.7,0.2,0.7,0.7v1C273.7,57,273.5,57.2,273,57.2z M248.6,35.7h22.6c0.5,0,0.7-0.2,0.7-0.7v-8.1
		c0-2.8-0.7-4.9-2.2-6.5c-1.5-1.6-3.6-2.4-6.3-2.4h-7.2c-2.7,0-4.8,0.8-6.3,2.4c-1.5,1.6-2.2,3.7-2.2,6.5V35
		C247.9,35.4,248.1,35.7,248.6,35.7z"/>
	<path class="st100" d="M319.5,57.2h-6.9c-3.3,0-6-1-7.9-3c-2-2-3-4.7-3-8.1V26.8c0-3.4,1-6,3-8.1c2-2,4.6-3,7.9-3h6.9
		c3.3,0,6,1,7.9,3c2,2,3,4.7,3,8.1v19.4c0,3.4-1,6.1-3,8.1C325.4,56.2,322.8,57.2,319.5,57.2z M312.6,54.9h6.9
		c2.7,0,4.8-0.8,6.3-2.4c1.5-1.6,2.2-3.7,2.2-6.5V26.9c0-2.8-0.7-4.9-2.2-6.5c-1.5-1.6-3.6-2.4-6.3-2.4h-6.9c-2.7,0-4.8,0.8-6.3,2.4
		c-1.5,1.6-2.2,3.7-2.2,6.5v19.2c0,2.8,0.7,4.9,2.2,6.5C307.8,54.2,309.8,54.9,312.6,54.9z"/>
	<path class="st100" d="M371.7,57.2h-13.8c-0.5,0-0.7-0.2-0.7-0.7v-1c0-0.4,0.2-0.7,0.7-0.7h13.8c5.5,0,8.2-2.2,8.2-6.5V46
		c0-2-0.4-3.6-1.1-4.9c-0.7-1.2-2-2.2-3.8-2.8l-10.7-3.7c-2.8-1-4.8-2.2-5.9-3.6c-1.1-1.4-1.7-3.5-1.7-6.1c0-6.1,3.3-9.1,9.9-9.1
		h13.1c0.5,0,0.7,0.2,0.7,0.7v1c0,0.4-0.2,0.7-0.7,0.7h-13.1c-2.5,0-4.4,0.6-5.6,1.7c-1.2,1.1-1.8,2.4-1.8,3.9v2.2
		c0,1.7,0.4,3.1,1.3,4c0.9,1,2.3,1.8,4.2,2.4l10.7,3.8c2.9,0.8,4.7,2.1,5.6,4c0.9,1.8,1.3,4.4,1.3,7.7c0,3.3-0.9,5.7-2.6,7.2
		C378.1,56.5,375.4,57.2,371.7,57.2z"/>
</g>
</svg>
