<svg id="Layer_1" data-name="Layer 1" xmlns="http://www.w3.org/2000/svg" viewBox="0 0 453.54 453.54"><defs><style>.cls-1{fill:#f45656;}</style></defs><title>JEDA logo</title><polygon class="cls-1" points="240.68 120.08 275.28 120.35 226.42 52.62 150.45 157.95 112.89 327.8 142.78 346.78 240.68 120.08"/><path class="cls-1" d="M240.68,120.09l0,5.43,34.59.27a5.43,5.43,0,0,0,4.45-8.61L230.83,49.44a5.43,5.43,0,0,0-8.81,0L146,154.78a5.55,5.55,0,0,0-.9,2L107.59,326.62a5.44,5.44,0,0,0,2.39,5.76l29.89,19a5.43,5.43,0,0,0,7.9-2.43l97.9-226.7-5-2.15,0,5.43,0-5.43-5-2.15L140.32,338.79,119,325.25l36.5-165L226.42,61.9l38.18,52.94-23.88-.18a5.44,5.44,0,0,0-5,3.28Z"/><path class="cls-1" d="M182.27,378.31l44.15,28.05,119.66-76L307.7,156.78a5.43,5.43,0,1,0-10.6,2.35l36.74,166.13L226.42,393.49,188.1,369.14a5.43,5.43,0,1,0-5.82,9.17Z"/></svg>