
<svg width="248px" height="122px" viewBox="0 0 248 122" version="1.1" xmlns="http://www.w3.org/2000/svg" xmlns:xlink="http://www.w3.org/1999/xlink">
    <!-- Generator: Sketch 51.2 (57519) - http://www.bohemiancoding.com/sketch -->
    <desc>Created with Sketch.</desc>
    <defs></defs>
    <g id="Page-1" stroke="none" stroke-width="1" fill="none" fill-rule="evenodd">
        <g id="256" transform="translate(-4.000000, -67.000000)" fill="#443F54">
            <g id="Group" transform="translate(7.000000, 67.000000)">
                <polygon id="Path-12" stroke="#443F54" stroke-width="3" points="0.326528993 39.5521001 96.5970488 39.5521001 86.4689356 84.0767173 84.4796674 84.939834 93.0461891 43.1403242 9.02619755 43.1403242 19.9764461 57.2540885 76.5983977 57.2540885 75.9607126 60.8846589 30.930431 60.8846589 41.6141471 74.2486451 72.2379768 74.2486451 71.6002917 78.0834739 53.1659619 78.0834739 65.1200662 92.1449282 84.0662878 93.4202984 84.0662878 96.4181655 62.3663128 95.1427954 48.162874 78.0834739 40.976462 78.0834739 25.6595653 60.8846589 18.0484451 60.8846589"></polygon>
                <polygon id="Path-12" stroke="#443F54" stroke-width="3" points="241.351563 39.5521001 223.629646 60.8846589 216.018526 60.8846589 200.701629 78.0834739 193.515217 78.0834739 179.311779 95.1427954 157.611804 96.4181655 157.611804 93.4202984 176.558025 92.1449282 188.51213 78.0834739 170.0778 78.0834739 169.440115 74.2486451 200.063944 74.2486451 210.74766 60.8846589 166.992749 60.8846589 166.355064 57.2540885 221.701645 57.2540885 232.651894 43.1403242 148.631902 43.1403242 157.198424 83.939834 155.209156 84.0767173 145.081043 39.5521001"></polygon>
                <path d="M120.84901,0.015625 L92.204671,39.3065319 L80.0371643,97.1021886 L120.84901,121.690692 L161.660855,97.1021886 L149.493348,39.0530422 L120.84901,0.015625 Z M98.7954037,40.3204908 L120.84901,10.1552139 L142.902615,40.3204908 L120.84901,106.481308 L98.7954037,40.3204908 Z M145.944492,50.20659 L155.070122,94.3138017 L125.158335,112.311572 L145.944492,50.20659 Z M86.6278971,94.3138017 L95.7535271,50.20659 L116.539684,112.311572 L86.6278971,94.3138017 Z" id="Shape" fill-rule="nonzero"></path>
            </g>
        </g>
    </g>
</svg>
