<svg xmlns="http://www.w3.org/2000/svg" xmlns:xlink="http://www.w3.org/1999/xlink" viewBox="0 0 331.7 402.5"><defs><style>.cls-1{fill:#fff;}.cls-2{fill:url(#未命名的渐变_15);}.cls-3{opacity:0.6;}</style><linearGradient id="未命名的渐变_15" x1="170.21" y1="76.25" x2="170.21" y2="353.05" gradientUnits="userSpaceOnUse"><stop offset="0" stop-color="#1665e8"/><stop offset="1" stop-color="#0838bd"/></linearGradient></defs><title>画板 2</title><g id="图层_3" data-name="图层 3"><polygon class="cls-1" points="168 61.2 93.1 158.8 68.9 299.3 170.5 370.4 271.5 299 247.7 161.2 168 61.2"/></g><g id="图层_4" data-name="图层 4"><polygon class="cls-2" points="167.8 69.3 97.6 162.6 74.1 296.6 170.6 364.6 266.3 297.3 243.1 162.3 167.8 69.3"/></g><g id="图层_6" data-name="图层 6" class="cls-3"><rect class="cls-1" x="131.5" y="154.2" width="4" height="220" transform="translate(-82.4 61.7) rotate(-20)"/><rect class="cls-1" x="205.8" y="153.3" width="4" height="220" transform="translate(101.4 -54.8) rotate(19.8)"/></g><g id="图层_5" data-name="图层 5"><path class="cls-1" d="M151.3,149.6h58.9v4.3H207c-6.2,0-10.3.5-12.3,1.5s-3.2,2.9-3.8,5.7-.9,9.5-.9,20V245c0,10.7-.4,18.9-1.2,24.5a38.5,38.5,0,0,1-22.5,28.7,43.9,43.9,0,0,1-20,4.3c-9.9,0-19.1-3.3-24.5-7.3a19.1,19.1,0,0,1-7.8-14.6,10.3,10.3,0,0,1,2.8-7.4,8.8,8.8,0,0,1,6.8-3,9.4,9.4,0,0,1,6.9,2.7,9,9,0,0,1,2.8,6.7,11.9,11.9,0,0,1-1.2,4.8,9,9,0,0,0-1,3.4c0,2,1.6,5,3.5,6.7s8.6,3.1,12.1,3.1,9.8-1.6,14.7-6.1a27.5,27.5,0,0,0,8.7-16c1-6.2,1.5-16.3,1.5-30.4V181.2c0-10.1-.3-16.6-.9-19.5s-1.8-5-3.7-6.1-6.1-1.7-12.5-1.7h-3Z"/></g></svg>