<?xml version="1.0" encoding="utf-8"?>
<!-- Generator: Adobe Illustrator 22.0.1, SVG Export Plug-In . SVG Version: 6.00 Build 0)  -->
<svg version="1.1" id="레이어_1" xmlns="http://www.w3.org/2000/svg" xmlns:xlink="http://www.w3.org/1999/xlink" x="0px"
	 y="0px" viewBox="0 0 256 256" style="enable-background:new 0 0 256 256;" xml:space="preserve">
<style type="text/css">
	.st0{fill:#FFFFFF;}
	.st1{fill:url(#SVGID_1_);}
	.st2{fill:url(#SVGID_2_);}
	.st3{fill:url(#SVGID_3_);}
	.st4{fill:url(#SVGID_4_);}
	.st5{fill:url(#SVGID_5_);}
	.st6{fill:url(#SVGID_6_);}
	.st7{fill:url(#SVGID_7_);}
	.st8{fill:url(#SVGID_8_);}
	.st9{fill:url(#SVGID_9_);}
	.st10{fill:url(#SVGID_10_);}
	.st11{fill:url(#SVGID_11_);}
</style>
<rect class="st0" width="256" height="256"/>
<g>
	<g>
		<g>
			
				<linearGradient id="SVGID_1_" gradientUnits="userSpaceOnUse" x1="243.9853" y1="25.8" x2="6.1269" y2="25.8" gradientTransform="matrix(1 0 0 -1 0 256)">
				<stop  offset="0" style="stop-color:#2178FE"/>
				<stop  offset="0.5525" style="stop-color:#AA1FFB"/>
				<stop  offset="0.8073" style="stop-color:#FF00D1"/>
				<stop  offset="1" style="stop-color:#FDA378"/>
			</linearGradient>
			<polygon class="st1" points="29.5,233.3 52.5,233.3 52.5,226.7 29.5,226.7 29.5,214.8 55.3,214.8 55.3,208.2 22.2,208.2 
				22.2,252.2 55.3,252.2 55.3,245.7 29.5,245.7 			"/>
			
				<linearGradient id="SVGID_2_" gradientUnits="userSpaceOnUse" x1="244" y1="25.85" x2="6.1415" y2="25.85" gradientTransform="matrix(1 0 0 -1 0 256)">
				<stop  offset="0" style="stop-color:#2178FE"/>
				<stop  offset="0.5525" style="stop-color:#AA1FFB"/>
				<stop  offset="0.8073" style="stop-color:#FF00D1"/>
				<stop  offset="1" style="stop-color:#FDA378"/>
			</linearGradient>
			<path class="st2" d="M102.7,214.1c-1.9-2-4.3-3.7-7-4.9s-5.8-1.8-9.1-1.8c-3.3,0-6.3,0.6-9.1,1.8c-2.7,1.2-5.1,2.9-7.1,4.9
				c-2,2.1-3.6,4.5-4.7,7.2S64,227,64,230.1v0.1c0,3.1,0.6,6,1.7,8.8c1.1,2.7,2.6,5.2,4.6,7.2c1.9,2,4.3,3.7,7,4.9s5.8,1.8,9.1,1.8
				s6.3-0.6,9.1-1.8c2.7-1.2,5.1-2.9,7.1-4.9c2-2.1,3.6-4.5,4.7-7.2s1.7-5.7,1.7-8.8v-0.1c0-3.1-0.6-6-1.7-8.8
				C106.2,218.6,104.6,216.2,102.7,214.1z M101.4,230.4c0,2.2-0.4,4.3-1.1,6.2s-1.7,3.6-3,5.1c-1.3,1.4-2.9,2.6-4.7,3.4
				c-1.8,0.8-3.8,1.3-6,1.3s-4.2-0.4-6-1.3c-1.8-0.9-3.4-2-4.7-3.5c-1.3-1.4-2.3-3.1-3.1-5.1c-0.7-1.9-1.1-4-1.1-6.2v-0.1
				c0-2.2,0.4-4.3,1.1-6.2s1.7-3.6,3-5.1c1.3-1.4,2.9-2.6,4.7-3.4c1.8-0.8,3.8-1.3,6-1.3s4.2,0.4,6,1.3c1.8,0.9,3.4,2,4.7,3.5
				c1.3,1.4,2.3,3.2,3.1,5.1s1.1,4,1.1,6.2V230.4z"/>
			
				<linearGradient id="SVGID_3_" gradientUnits="userSpaceOnUse" x1="243.9853" y1="25.8" x2="6.1269" y2="25.8" gradientTransform="matrix(1 0 0 -1 0 256)">
				<stop  offset="0" style="stop-color:#2178FE"/>
				<stop  offset="0.5525" style="stop-color:#AA1FFB"/>
				<stop  offset="0.8073" style="stop-color:#FF00D1"/>
				<stop  offset="1" style="stop-color:#FDA378"/>
			</linearGradient>
			<path class="st3" d="M146.5,231.5c-1.2-1-2.6-1.9-4.4-2.6c-1.8-0.7-3.9-1.4-6.2-2c-2.2-0.5-3.9-1-5.3-1.5c-1.4-0.5-2.5-1-3.3-1.5
				c-0.8-0.6-1.4-1.2-1.7-1.9c-0.3-0.7-0.5-1.5-0.5-2.4v-0.1c0-1.6,0.7-2.9,2-3.9s3.2-1.6,5.5-1.6c2.1,0,4.1,0.4,6.1,1.2
				c1.9,0.8,3.9,1.9,5.9,3.3l3.9-5.5c-2.2-1.7-4.6-3.1-7.1-4c-2.6-0.9-5.5-1.4-8.7-1.4c-2.2,0-4.2,0.3-6,0.9
				c-1.8,0.6-3.4,1.5-4.7,2.6c-1.3,1.1-2.3,2.4-3.1,4c-0.7,1.5-1.1,3.3-1.1,5.1v0.1c0,2,0.3,3.7,1,5.1c0.6,1.4,1.6,2.6,2.8,3.6
				c1.2,1,2.8,1.8,4.6,2.5s4,1.3,6.3,1.9c2.1,0.5,3.8,0.9,5.1,1.4s2.4,1,3.1,1.6c0.8,0.6,1.3,1.2,1.6,1.8s0.4,1.4,0.4,2.2v0.1
				c0,1.8-0.8,3.2-2.2,4.3c-1.5,1-3.4,1.6-5.9,1.6c-2.8,0-5.4-0.5-7.6-1.5c-2.2-1-4.3-2.4-6.4-4.2l-4.4,5.2c2.6,2.3,5.4,4,8.5,5.2
				c3.1,1.1,6.4,1.7,9.8,1.7c2.3,0,4.4-0.3,6.3-0.9c1.9-0.6,3.6-1.4,4.9-2.6c1.4-1.1,2.4-2.5,3.2-4.1s1.1-3.5,1.1-5.5v-0.1
				c0-1.8-0.3-3.4-0.9-4.7C148.6,233.7,147.7,232.5,146.5,231.5z"/>
			
				<linearGradient id="SVGID_4_" gradientUnits="userSpaceOnUse" x1="243.9853" y1="25.8" x2="6.1269" y2="25.8" gradientTransform="matrix(1 0 0 -1 0 256)">
				<stop  offset="0" style="stop-color:#2178FE"/>
				<stop  offset="0.5525" style="stop-color:#AA1FFB"/>
				<stop  offset="0.8073" style="stop-color:#FF00D1"/>
				<stop  offset="1" style="stop-color:#FDA378"/>
			</linearGradient>
			<polygon class="st4" points="176.4,226.9 164,208.2 155.4,208.2 172.9,233.9 172.9,252.2 180.3,252.2 180.3,233.7 180.3,233.7 
				197.7,208.2 189.4,208.2 176.6,227.2 			"/>
			
				<linearGradient id="SVGID_5_" gradientUnits="userSpaceOnUse" x1="243.9853" y1="25.75" x2="6.1269" y2="25.75" gradientTransform="matrix(1 0 0 -1 0 256)">
				<stop  offset="0" style="stop-color:#2178FE"/>
				<stop  offset="0.5525" style="stop-color:#AA1FFB"/>
				<stop  offset="0.8073" style="stop-color:#FF00D1"/>
				<stop  offset="1" style="stop-color:#FDA378"/>
			</linearGradient>
			<path class="st5" d="M230.2,231.5c-1.2-1-2.6-1.9-4.4-2.6c-1.8-0.7-3.9-1.4-6.2-2c-2.2-0.5-3.9-1-5.3-1.5c-1.4-0.5-2.5-1-3.3-1.5
				c-0.8-0.6-1.4-1.2-1.7-1.9s-0.5-1.5-0.5-2.4v-0.1c0-1.6,0.7-2.9,2-3.9s3.2-1.6,5.5-1.6c2.1,0,4.1,0.4,6.1,1.2
				c1.9,0.8,3.9,1.9,5.9,3.3l3.9-5.5c-2.2-1.7-4.6-3.1-7.1-4c-2.6-0.9-5.5-1.4-8.7-1.4c-2.2,0-4.2,0.3-6,0.9
				c-1.8,0.6-3.4,1.5-4.7,2.6s-2.3,2.4-3.1,4c-0.7,1.5-1.1,3.3-1.1,5.1v0.1c0,2,0.3,3.7,1,5.1c0.6,1.4,1.6,2.6,2.8,3.6
				s2.8,1.8,4.6,2.5s4,1.3,6.3,1.9c2.1,0.5,3.8,0.9,5.1,1.4s2.4,1,3.1,1.6c0.8,0.6,1.3,1.2,1.6,1.8s0.4,1.4,0.4,2.2v0.1
				c0,1.8-0.8,3.2-2.2,4.3c-1.5,1-3.4,1.6-5.9,1.6c-2.8,0-5.4-0.5-7.6-1.5c-2.1-1-4.3-2.4-6.4-4.2L200,246c2.6,2.3,5.4,4,8.5,5.2
				c3.1,1.1,6.4,1.7,9.8,1.7c2.3,0,4.4-0.3,6.3-0.9c1.9-0.6,3.6-1.4,4.9-2.6c1.4-1.1,2.4-2.5,3.2-4.1s1.1-3.5,1.1-5.5v-0.1
				c0-1.8-0.3-3.4-0.9-4.7C232.3,233.7,231.4,232.5,230.2,231.5z"/>
		</g>
	</g>
	<g>
		
			<linearGradient id="SVGID_6_" gradientUnits="userSpaceOnUse" x1="227.6971" y1="211.05" x2="39.8097" y2="211.05" gradientTransform="matrix(1 0 0 -1 0 256)">
			<stop  offset="0" style="stop-color:#2178FE"/>
			<stop  offset="0.3525" style="stop-color:#AA1FFB"/>
			<stop  offset="0.668" style="stop-color:#FF00D1"/>
			<stop  offset="1" style="stop-color:#FDA378"/>
		</linearGradient>
		<path class="st6" d="M108.4,33.3c28.2,0,52.4,17.7,62,42.7c-0.1-34.3-27.8-62.1-62-62.1S46.6,41.7,46.5,76
			C56.1,51.1,80.2,33.3,108.4,33.3z"/>
		
			<linearGradient id="SVGID_7_" gradientUnits="userSpaceOnUse" x1="227.6971" y1="160.8935" x2="39.8097" y2="160.8935" gradientTransform="matrix(1 0 0 -1 0 256)">
			<stop  offset="0" style="stop-color:#2178FE"/>
			<stop  offset="0.3525" style="stop-color:#AA1FFB"/>
			<stop  offset="0.668" style="stop-color:#FF00D1"/>
			<stop  offset="1" style="stop-color:#FDA378"/>
		</linearGradient>
		<path class="st7" d="M70.8,77.9c14.1-24.6,41.5-36.7,67.8-32.6C108.9,28.2,71.1,38.4,54,68.2c-17.1,29.7-7,67.7,22.6,85
			C59.9,132.3,56.7,102.5,70.8,77.9z"/>
		
			<linearGradient id="SVGID_8_" gradientUnits="userSpaceOnUse" x1="227.6971" y1="140.3396" x2="39.8097" y2="140.3396" gradientTransform="matrix(1 0 0 -1 0 256)">
			<stop  offset="0" style="stop-color:#2178FE"/>
			<stop  offset="0.3525" style="stop-color:#AA1FFB"/>
			<stop  offset="0.668" style="stop-color:#FF00D1"/>
			<stop  offset="1" style="stop-color:#FDA378"/>
		</linearGradient>
		<path class="st8" d="M90.3,132.9c-14.1-24.6-10.9-54.4,5.8-75.3c-29.6,17.2-39.7,55.2-22.6,85c17.1,29.7,54.9,39.9,84.5,22.9
			C131.8,169.6,104.5,157.5,90.3,132.9z"/>
		
			<linearGradient id="SVGID_9_" gradientUnits="userSpaceOnUse" x1="227.6971" y1="124.25" x2="39.8097" y2="124.25" gradientTransform="matrix(1 0 0 -1 0 256)">
			<stop  offset="0" style="stop-color:#2178FE"/>
			<stop  offset="0.3525" style="stop-color:#AA1FFB"/>
			<stop  offset="0.668" style="stop-color:#FF00D1"/>
			<stop  offset="1" style="stop-color:#FDA378"/>
		</linearGradient>
		<path class="st9" d="M147.6,143.4c-28.2,0-52.4-17.7-62-42.7c0.1,34.3,27.8,62.1,62,62.1s61.9-27.8,62-62.1
			C199.9,125.7,175.8,143.4,147.6,143.4z"/>
		
			<linearGradient id="SVGID_10_" gradientUnits="userSpaceOnUse" x1="227.6971" y1="174.3065" x2="39.8097" y2="174.3065" gradientTransform="matrix(1 0 0 -1 0 256)">
			<stop  offset="0" style="stop-color:#2178FE"/>
			<stop  offset="0.3525" style="stop-color:#AA1FFB"/>
			<stop  offset="0.668" style="stop-color:#FF00D1"/>
			<stop  offset="1" style="stop-color:#FDA378"/>
		</linearGradient>
		<path class="st10" d="M185.2,98.9c-14.1,24.6-41.5,36.7-67.8,32.6c29.6,17.1,67.4,6.9,84.5-22.9c17.1-29.7,7-67.7-22.6-85
			C196.1,44.4,199.3,74.3,185.2,98.9z"/>
		
			<linearGradient id="SVGID_11_" gradientUnits="userSpaceOnUse" x1="227.6971" y1="194.9562" x2="39.8097" y2="194.9562" gradientTransform="matrix(1 0 0 -1 0 256)">
			<stop  offset="0" style="stop-color:#2178FE"/>
			<stop  offset="0.3525" style="stop-color:#AA1FFB"/>
			<stop  offset="0.668" style="stop-color:#FF00D1"/>
			<stop  offset="1" style="stop-color:#FDA378"/>
		</linearGradient>
		<path class="st11" d="M165.7,43.8c14.1,24.6,10.9,54.4-5.8,75.3c29.6-17.2,39.7-55.2,22.6-85s-55-39.9-84.6-22.8
			C124.2,7.1,151.6,19.3,165.7,43.8z"/>
	</g>
</g>
</svg>
