<?xml version="1.0" encoding="utf-8"?>
<!-- Generator: Adobe Illustrator 22.1.0, SVG Export Plug-In . SVG Version: 6.00 Build 0)  -->
<svg version="1.1" id="Layer_1" xmlns="http://www.w3.org/2000/svg" xmlns:xlink="http://www.w3.org/1999/xlink" x="0px" y="0px"
	 viewBox="0 0 269.5 116.4" style="enable-background:new 0 0 269.5 116.4;" xml:space="preserve">
<style type="text/css">
	.st0{fill:#5D96AF;}
</style>
<g>
	<path class="st0" d="M133.7,10c-0.7,0.5-1,0.8-1.8,1.4c-0.7,0.2-1.1,0.3-1.8,0.5c-0.1,0.5-0.1,0.7-0.2,1.3c-0.7,0.7-1,1.1-1.7,1.9
		c0.1,0.8,0.2,1.2,0.3,2c-0.7,1.5-1.1,2.2-1.8,3.8c0.8,1.3,1.1,1.9,1.9,3.2c-0.1,0.2-0.2,0.3-0.2,0.4c3.2-1.9,6.3-3.6,9.1-5
		c8-3.9,15.2-6.4,20-7.8c1.7-0.5,2.1-2.7,0.7-3.7c-2.2-1.7-4.5-3.1-7-4.3c-1.1-0.5-2.4-0.6-3.6-0.3c-4.2,1.3-10,3.4-16.5,6.6
		c0,0,0,0,0,0C132.1,10,132.7,10,133.7,10z"/>
	<path class="st0" d="M142.9,52.3c-1.4,0-2.3,0.1-3.6,0c-6.8,4.5-13.7,10.2-19.6,17.3c-1.2,1.5-0.6,3.7,1.2,4.4
		c1.5,0.6,3.1,1.1,4.7,1.5c1.6,0.4,3.2-0.1,4.4-1.3c4.8-4.7,9.8-8.7,14.7-11.9c0-0.9,0.1-1.6,0.1-2.7
		C144.1,56.9,143.7,55.4,142.9,52.3z"/>
	<path class="st0" d="M125,22.8c-0.9,0.4-1.4,0.7-2.3,1.1c-0.4,0.5-0.5,0.8-0.9,1.3c-0.9,0.2-1.3,0.4-2.1,0.6
		c-0.9,1-1.3,1.5-2.1,2.4c0.1,1.4,0.2,2.1,0.3,3.4c3.2-2.5,6.5-4.7,9.6-6.6C126.6,24.2,126,23.7,125,22.8z"/>
	<path class="st0" d="M157,55.3c4.4-2.2,8.5-3.8,12-5.1c1.6-0.6,2.8-1.9,3.2-3.6c0.4-1.9,0.7-3.8,0.8-5.8c0.1-1.8-1.6-3.1-3.3-2.6
		c-2.9,0.9-6.8,2.2-11.3,4c-0.1,0.4-0.2,0.8-0.3,1.2c-0.6,0.7-1,1.1-1.6,1.8c-0.8,1.2-1.2,1.8-2,3.1c0.2,0.5,0.2,0.8,0.4,1.3
		c-0.8,1.9-1.2,2.9-2,4.8c-0.5,0.6-0.8,0.9-1.3,1.5c0.2,0.4,0.3,0.6,0.5,1.1c-0.4,0.6-0.6,0.9-0.9,1.4
		C153.2,57.2,155.2,56.2,157,55.3z"/>
	<path class="st0" d="M148.3,30.7c0.8,1.1,1.3,1.7,2.1,2.8c2.4-0.6,3.5-0.9,5.7-1.5c1.4,0.1,2.1,0.2,3.3,0.3
		c0.2,0.8,0.3,1.2,0.5,1.9c-0.5,1.4-0.7,2.1-1.3,3.6c0.1,1,0.1,1.5,0.1,2.4c4.5-1.8,8.5-3.1,11.2-3.8c1.7-0.5,2.8-2.2,2.6-3.9
		c-0.2-1.1-0.4-2.1-0.6-3.2c-0.3-1.2-0.6-2.3-1-3.4c-0.6-1.6-2.3-2.5-4-2.1C163.1,24.8,156.3,27,148.3,30.7z"/>
	<path class="st0" d="M114,34.8c-0.1-0.3-0.2-0.7-0.3-1.2c-1.3-0.9-2-1.3-3.2-2.1c0.3,1.6,0.5,2.4,0.9,4.1c-0.9-0.8-1.3-1.1-2.1-1.9
		c-0.2-1.5-0.4-2.3-0.6-3.8c-0.4-0.7-0.6-1.1-1-1.8c-0.4-0.6-0.6-0.9-1-1.4c0,0,0,0,0,0c-3.1,2.8-6,6-8.8,9.4
		c-1,1.2-1.5,2.8-1.4,4.4c0.1,2.4,0.5,4.8,1.1,7.2c0,0,0,0,0,0c0.4,1.5,2.3,1.9,3.3,0.7C104.9,43.1,109.4,38.7,114,34.8z"/>
	<path class="st0" d="M131.3,38.2c0,0,0-0.1,0-0.1c-0.3-0.2-0.4-0.3-0.7-0.5c-0.5,0.2-0.8,0.3-1.4,0.5c-0.7-0.7-1.1-1.1-1.8-1.8
		c-0.5,0.1-0.7,0.1-1.2,0.2c-1.5-0.2-2.3-0.3-3.8-0.5c-0.6,0.3-0.9,0.4-1.5,0.7c-2.6,0.1-3.8,0.1-6.3,0.2c0-0.1,0-0.1-0.1-0.2
		c-4.7,4-9.2,8.6-13.2,13.8c-1.3,1.7-1.5,4-0.5,5.9c0.8,1.5,1.6,2.9,2.6,4.2c1.1,1.6,3.4,1.5,4.5,0C114.9,51,123.3,43.7,131.3,38.2z
		"/>
	<path class="st0" d="M122.5,31.9c0.6-1,1-1.5,1.6-2.5c-1.5,1-3,2.1-4.5,3.2c0.3,0.2,0.6,0.3,1,0.6
		C121.4,32.7,121.7,32.4,122.5,31.9z"/>
	<path class="st0" d="M137.3,51.5c-2.1-1.6-3.6-2.8-6.3-4.8c-0.2-1.1-0.3-1.6-0.4-2.7c0.6-1.5,0.8-2.3,1.4-3.8
		c-0.1-0.1-0.1-0.1-0.2-0.2c-8,5.5-16.1,12.7-22.6,21.8c-1.3,1.8-1,4.3,0.7,5.7c0.8,0.7,1.7,1.4,2.6,2c1.8,1.2,4.2,0.9,5.5-0.7
		C124,61.7,130.8,56,137.3,51.5z"/>
	<path class="st0" d="M149.8,61.3c-0.5,1.1-0.8,1.7-1.3,2.8c0.2,0.2,0.3,0.3,0.4,0.5c-0.5,1.8-0.8,2.6-1.3,4.3
		c-0.5,0.4-0.8,0.5-1.4,0.9c-0.5-1-0.7-1.6-1.3-2.7c-0.1-1-0.2-1.7-0.3-2.6c-3.8,2.6-7.6,5.5-11.3,8.9c-1.2,1.1-0.4,3.2,1.3,3.3
		c3.1,0,6.2-0.4,9.3-1.1c11.5-2.9,20.5-10.6,25.3-20.5c0.7-1.4-0.7-2.8-2.1-2.3C162.1,54.8,156,57.5,149.8,61.3z"/>
	<path class="st0" d="M106,24.8c-0.1-0.2-0.1-0.4-0.2-0.6c0.3-1.5,0.5-2.3,0.8-3.8c0.2-1.1,0.3-1.6,0.5-2.7
		c-0.2-0.8-0.3-1.2-0.5-1.9c0.1-0.8,0.2-1.3,0.4-2.1c-0.2-0.5-0.3-0.7-0.5-1.1c-4.6,5.1-7.8,11.3-9.2,18c-0.2,1.2,1.2,1.9,2,1
		C101.4,29.1,103.6,26.9,106,24.8z"/>
	<path class="st0" d="M167,17.5c-0.7-1.1-1.5-2.2-2.4-3.3c-1.1-1.3-2.8-1.9-4.4-1.4c-6.7,1.9-21.3,6.7-36,16.5
		c0.4,1.4,0.6,2.1,1,3.4c1.4-0.1,2.1-0.2,3.5-0.3c0.4,1.1,0.5,1.6,0.9,2.7c0.3,0.1,0.5,0.2,0.8,0.3c0.3-0.5,0.4-0.8,0.7-1.3
		c0.9-1.1,1.3-1.7,2.2-2.8c0.6,0.3,0.9,0.4,1.5,0.7c2.2-0.9,3.3-1.3,5.4-2.1c1.5,0.4,2.4,0.6,3.6,1c0.6-0.3,1.2-0.6,1.8-0.9
		c8-3.9,15.2-6.3,19.8-7.7C167.2,21.8,168.1,19.3,167,17.5z M130.7,28.7c-0.5,0-0.8,0-1.4-0.1c-0.6,0.4-0.9,0.6-1.5,1
		c-0.5,0-0.7-0.1-1.2-0.1c1-0.8,1.6-1.2,2.6-2c1.7,0,2.6,0,4.3,0.1C132.4,28.1,131.8,28.3,130.7,28.7z M133,30.4c-0.6,0-0.9,0-1.5,0
		c0.4-0.3,0.6-0.5,1-0.9c0.6,0,0.9,0,1.5,0C133.6,29.9,133.4,30.1,133,30.4z"/>
	<path class="st0" d="M117.4,10.3c0.1-0.1,0.1-0.1,0.1-0.2c0.6,0.1,0.9,0.2,1.5,0.4c0.9-0.2,1.4-0.3,2.3-0.5
		c-0.1-0.2-0.2-0.3-0.3-0.6c0.2-0.4,0.4-0.6,0.6-1c-0.6-0.3-0.9-0.4-1.6-0.7c0-0.5,0.1-0.8,0.1-1.3c-0.4-0.4-0.6-0.6-1-1
		c0.9-0.3,1.3-0.5,2.2-0.7c0.4,0.5,0.6,0.8,1,1.3c0.4-0.1,0.6-0.2,1-0.3c-0.2-0.6-0.3-0.9-0.4-1.5c0.8,0.3,1.3,0.5,2.1,0.9
		c1,0.3,1.5,0.4,2.5,0.7c0.1-0.1,0.2-0.2,0.3-0.4c0.6,0.2,0.9,0.4,1.6,0.6c1.5,0.3,2.3,0.5,3.6,0.9c3.1-1.4,5.9-2.6,8.5-3.5
		c1.5-0.6,1.3-2.7-0.3-3c-5.1-0.9-10.4-0.8-15.8,0.6c-3.1,0.8-6,1.9-8.7,3.3c0,0.5,0.1,0.8,0.1,1.4c-0.5,0.7-0.6,0.8-1.4,2
		c0,0.4,0,0.6,0,1c0.3,0.3,0.4,0.5,0.7,0.9C116.8,9.9,117,10,117.4,10.3z"/>
</g>
<g>
	<path d="M192,87.7c-2.4,0-3.5-1.7-2.6-3.5c0,0,0,0,0-0.1c0.6-1,2.9-1.3,4.1-0.7c1,0.6,1.4,2.1,0.7,3.3
		C193.7,87.6,192.8,87.8,192,87.7z"/>
	<g>
		<path d="M112.4,115.8c-1.5,0-2.9,0-4.4,0c0-0.3,0-0.5,0-0.8c0-5.2,0-10.5,0-15.7c0-1.8,0.3-3.5,1.3-5c1.3-2,3.2-2.9,5.5-3.2
			c2.3-0.3,4.7-0.4,6.8,0.6c1.2,0.5,2.2,1.4,3.3,2.1c0,0.1-0.1,0.1-0.1,0.2c0,0,0.1,0,0.1,0c2.2-2.6,5.1-3,8.2-2.9
			c1.6,0,3.2,0.3,4.6,1c2.4,1.3,3.7,3.4,3.7,6.1c0.1,5.8,0.1,11.7,0.1,17.5c0,0.1,0,0.1-0.1,0.2c-1.4,0-2.8,0-4.4,0
			c0-0.3,0-0.6,0-0.9c0-5.1-0.1-10.2,0-15.3c0-3.1-2-4.6-4.6-4.6c-0.8,0-1.7,0.1-2.5,0.3c-2,0.5-3,2-3,4.3c0,5.2,0,10.3,0,15.5
			c0,0.2,0,0.4-0.1,0.7c-1.4,0-2.7,0-4,0c-0.1,0-0.4-0.4-0.4-0.6c0-1,0-2,0-3c0-4.1,0-8.2,0-12.3c0-0.7,0-1.3-0.2-2
			c-0.3-1.3-1.2-2.2-2.5-2.6c-1.5-0.5-3.1-0.5-4.6-0.1c-1.8,0.6-2.8,1.9-2.8,4.1c0,5.1,0,10.3,0,15.4
			C112.4,115.1,112.4,115.5,112.4,115.8z"/>
		<path d="M103.1,115.9c-1.4,0-2.8,0-4.1,0c-0.5,0-0.4-0.4-0.4-0.7c0-2.4,0-4.8,0-7.2c0-0.5,0-1.1,0-1.6c0-0.6-0.2-0.8-0.8-0.8
			c-3.9,0-7.7,0-11.6,0c-0.4,0-0.8,0-1.2,0c-0.6-0.1-0.9,0.2-0.8,0.8c0,2.8,0,5.7,0,8.5c0,0.3,0,0.6,0,0.9c-1.4,0-2.8,0-4.1,0
			c-0.1,0-0.3-0.2-0.3-0.4c-0.1-0.1,0-0.3,0-0.5c0-6.2,0-12.4,0-18.6c0-2,0.3-4,1.1-5.8c1.3-2.8,3.6-4.5,6.5-5.2
			c3.3-0.8,6.6-0.7,9.9,0.6c3.1,1.3,4.9,3.6,5.5,6.8c0.3,1.3,0.4,2.7,0.4,4.1c0,6,0,12,0,18C103.1,115.1,103.1,115.5,103.1,115.9z
			 M91.4,101.5c2.2,0,4.3,0,6.5,0c0.4,0,0.7,0,0.7-0.5c0-2.2,0.1-4.4-0.1-6.6c-0.2-2.5-1.5-4.4-4-5c-1.3-0.4-2.7-0.4-4.1-0.4
			c-3.7,0.2-5.8,2.2-6.1,5.9c-0.1,1.9-0.1,3.8-0.1,5.7c0,0.7,0.2,0.9,0.9,0.9C87.2,101.5,89.3,101.5,91.4,101.5z"/>
		<path d="M162.9,108.3c1.3,0,2.6,0,3.8,0c0.1,0,0.3,0.4,0.3,0.6c0,2.8-1.4,4.8-3.9,6c-3,1.4-6.1,1.5-9.3,1c-1.9-0.3-3.7-1-5.1-2.4
			c-1.5-1.5-2.2-3.4-2.3-5.5c-0.1-3.1-0.1-6.3,0.1-9.4c0.2-3.7,2.3-6.1,5.8-7.1c3.3-1,6.7-1,9.9,0.4c2.9,1.2,4.4,3.5,4.7,6.5
			c0.2,2,0.1,3.9,0.1,5.9c0,0.6-0.2,0.8-0.8,0.8c-4.8,0-9.6,0-14.4,0c-1.1,0-1.1,0-1.1,1.2c0,0.4,0,0.7,0,1.1
			c0.1,2.5,1.2,3.9,3.7,4.5c1.9,0.5,3.9,0.4,5.8-0.1c1.7-0.5,2.4-1.4,2.6-3.2C162.8,108.6,162.8,108.5,162.9,108.3z M156.7,101.5
			c1.3,0,2.7,0,4,0c2.3,0,2.3,0,2-2.3c-0.2-1.9-1.2-3.3-3-3.9c-1.8-0.6-3.5-0.5-5.3-0.1c-1.9,0.4-3.1,1.6-3.5,3.5
			c-0.1,0.7-0.1,1.4-0.2,2.1c-0.1,0.6,0.2,0.8,0.8,0.8C153.2,101.5,155,101.5,156.7,101.5z"/>
		<path d="M240.5,101.9c-0.1-1.3-0.1-2.5-0.3-3.6c-0.4-1.9-1.9-2.9-3.7-3.2c-1.6-0.3-3.1-0.2-4.7,0.4c-1.2,0.4-1.9,1.3-2.1,2.5
			c-0.1,0.5-0.3,0.7-0.8,0.6c-1.2,0-2.3,0-3.5,0c-0.4-2.8,1.3-5.7,3.9-6.8c2.5-1.1,5.2-1.1,7.8-0.8c1.2,0.1,2.5,0.5,3.6,1
			c2.5,1.2,3.8,3.4,4,6.1c0.2,3.5,0.1,6.9,0.2,10.4c0,0.2,0,0.3-0.1,0.5c-0.4,3.2-2.1,5.3-5.1,6.4c-3.9,1.3-7.7,1.3-11.5-0.4
			c-2.3-1-3.4-2.9-3.6-5.3c-0.1-1.3,0-2.6,0.3-3.8c0.6-2.5,2.4-3.9,4.8-4.4c3.5-0.8,6.9-0.7,10.4,0.3
			C240,101.8,240.1,101.8,240.5,101.9z M234.8,104.5c-1.1,0.1-1.9,0.2-2.8,0.3c-1.8,0.3-3,1.4-3.1,2.9c-0.2,2.3,0.5,3.6,2.5,4.2
			c1.4,0.5,2.9,0.5,4.3,0.3c1-0.1,2-0.4,2.9-0.9c1.4-0.7,1.9-1.9,1.8-3.5c-0.1-1.6-0.9-2.7-2.5-3
			C236.8,104.7,235.7,104.6,234.8,104.5z"/>
		<path d="M269.2,98.5c-0.3,0-0.5,0-0.7,0c-1.2,0-2.4,0-3.6,0c-0.1-0.5-0.1-0.9-0.2-1.2c-0.3-1.3-1.3-2-2.5-2.3
			c-1.8-0.5-3.7-0.4-5.5,0.2c-1.6,0.5-2.4,1.9-2,3.6c0.2,1.1,1.1,1.7,2.1,1.9c1.8,0.4,3.6,0.8,5.3,1.1c1.6,0.3,3.2,0.7,4.7,1.5
			c1.7,1,2.6,2.5,2.7,4.4c0.3,4.2-1.6,6.9-5.8,7.9c-3.1,0.8-6.3,0.7-9.4-0.4c-3-1-4.5-3.3-4.4-6.3c0-0.5,0.1-0.7,0.7-0.7
			c1,0,2.1,0,3.1,0c0.2,0,0.6,0.2,0.6,0.4c0.1,2.4,1.6,3.2,3.6,3.4c1.7,0.2,3.4,0.3,5.1-0.4c1.7-0.6,2.5-2.2,1.9-3.8
			c-0.2-0.5-0.8-1.1-1.4-1.3c-1.4-0.5-2.8-0.7-4.3-1.1c-1.7-0.4-3.5-0.8-5.2-1.3c-2.5-0.8-3.7-2.7-3.9-5.3c-0.1-2.7,0.5-5.1,2.9-6.5
			c1.2-0.7,2.5-1.2,3.8-1.4c2.8-0.4,5.7-0.4,8.3,0.7C268,93.1,269.4,95.5,269.2,98.5z"/>
		<path d="M215.7,106.6c1.4,0,2.8,0,4.2,0c0.1,1.3,0,2.6-0.4,3.8c-1.1,3.4-3.6,5.1-7,5.7c-2.2,0.4-4.4,0.3-6.6-0.5
			c-3.4-1.2-5.5-4-5.6-7.6c-0.1-2.9-0.1-5.8,0-8.6c0.1-4.2,2.9-7.3,7.1-8.1c2.9-0.5,5.7-0.5,8.3,1c3.1,1.7,4.1,4.5,4.1,7.9
			c0,0.2-0.3,0.5-0.5,0.5c-1.1,0-2.2,0-3.3,0c-0.2,0-0.5-0.3-0.5-0.5c-0.1-0.6,0-1.1-0.2-1.7c-0.5-2-1.9-3.1-3.8-3.3
			c-1.3-0.1-2.6,0-3.9,0.3c-2,0.5-3,1.9-3.1,3.9c-0.1,2.9-0.1,5.7,0,8.6c0.1,2.3,1.5,3.8,3.9,4.1c1.3,0.2,2.7,0.1,4-0.2
			c1.7-0.4,2.8-1.9,2.9-3.7C215.6,107.6,215.6,107.1,215.7,106.6z"/>
		<path d="M172.1,115.9c0-0.3,0-0.5,0-0.6c0-5.1,0-10.1,0-15.2c0-1.7,0.3-3.3,1-4.9c1.1-2.4,3.2-3.5,5.7-3.8
			c1.9-0.3,3.9-0.3,5.8-0.3c0.2,0,0.6,0.3,0.6,0.4c0,1.2,0,2.4,0,3.6c-0.6,0-1.1,0-1.7,0c-1,0-2,0-3,0.2c-2.5,0.3-3.7,1.6-3.9,4.1
			c-0.1,0.8-0.1,1.6-0.1,2.4c0,4.4,0,8.9,0,13.3c0,0.6-0.2,0.9-0.8,0.8C174.5,115.8,173.4,115.9,172.1,115.9z"/>
		<path d="M194,91.3c0,0.4,0,0.6,0,0.9c0,7.6,0,15.2,0,22.8c0,0.7-0.2,1-0.9,0.9c-0.9-0.1-1.8-0.1-2.7,0c-0.6,0-0.8-0.2-0.8-0.8
			c0-3.9,0-7.9,0-11.8c0-3.7,0-7.4,0-11.1c0-0.6,0.2-0.9,0.8-0.8C191.5,91.4,192.7,91.3,194,91.3z"/>
		<g>
			<path class="st0" d="M22.1,99.3c0-1.9-0.1-3.9,0-5.8c0.3-4.3,3.1-7.6,7.3-8.7c3.9-1,7.9-1,11.7,0.5c3.4,1.4,5.6,4,5.9,7.7
				c0.3,4.6,0.3,9.2,0,13.7c-0.2,4.4-2.7,7.3-7,8.6c-3.9,1.2-7.9,1.2-11.8-0.3c-3.8-1.5-5.8-4.4-6.1-8.3
				C22,104.3,22.1,101.8,22.1,99.3C22.1,99.3,22.1,99.3,22.1,99.3z M40.7,100.2c0,0,0.1,0,0.1,0c0-1.7,0.1-3.5,0-5.2
				c-0.1-2.7-1.5-4.4-4-4.9c-1.3-0.2-2.6-0.3-3.9-0.1c-3,0.4-4.6,2.1-4.7,5.1c-0.1,3.4-0.1,6.8,0,10.2c0.1,2.7,1.3,4.3,3.8,5
				c1.6,0.4,3.2,0.4,4.8,0c2.1-0.5,3.6-1.9,3.8-4.1C40.8,104.1,40.7,102.2,40.7,100.2z"/>
			<path class="st0" d="M73.5,94.3c-1.9,0-3.7,0-5.5,0c-0.2,0-0.5-0.3-0.4-0.5c0.1-2.9-2.1-4-4.2-4.2c-1.7-0.2-3.5-0.2-5.1,0.4
				c-1.9,0.7-2.8,2.4-2.2,4.3c0.4,1.3,1.5,1.9,2.6,2.2c2,0.5,4,0.9,6.1,1.4c2.1,0.5,4.2,1,6,2.3c1.5,1.1,2.5,2.6,2.8,4.4
				c0.4,2.2,0.4,4.4-0.7,6.5c-1.2,2.4-3.3,3.7-5.8,4.4c-4.2,1.1-8.5,1.1-12.6-0.4c-4.1-1.5-5.7-5-5.2-9c2,0,3.9,0,5.9,0
				c0.1,0.7,0,1.3,0.2,1.9c0.4,1.8,1.8,2.5,3.5,2.8c1.9,0.4,3.8,0.3,5.7-0.2c2.2-0.6,3.3-2.4,2.7-4.5c-0.2-0.9-0.9-1.6-1.7-1.9
				c-1.8-0.6-3.6-1.1-5.5-1.6c-1.7-0.5-3.5-0.8-5.2-1.4c-4.2-1.5-5.5-4.2-5.4-8.3c0.1-4.1,2.4-7,6.7-8.1c4.1-1.1,8.2-1.1,12.1,0.4
				C72.2,86.7,73.9,90.1,73.5,94.3z"/>
			<path class="st0" d="M17.9,97.4c0,1.7,0,3.3,0,5c-0.3,0-0.7,0-1,0c-3.3,0-6.6,0-9.9,0c-0.7,0-0.9,0.2-0.8,0.9c0,2,0.1,4.1,0,6.1
				c0,0.7,0.2,0.9,0.9,0.9c4.3,0,8.6,0,12.9,0c0.7,0,1,0.2,0.9,0.9c-0.1,1.3,0,2.6,0,3.8c0,0.5-0.1,0.7-0.7,0.7c-6.5,0-13,0-19.5,0
				c-0.5,0-0.7-0.2-0.7-0.7c0-9.9,0-19.9,0-29.8c0-0.5,0.2-0.7,0.7-0.7c6.2,0,12.3,0,18.5,0c0.5,0,0.7,0.2,0.7,0.7c0,1.3,0,2.7,0,4
				c0,0.6-0.2,0.8-0.8,0.8c-4,0-8,0-12,0c-0.8,0-1,0.2-1,1c0.1,1.9,0,3.7,0,5.6c0,0.7,0.2,0.9,0.8,0.9c3.4,0,6.8,0,10.2,0
				C17.4,97.4,17.6,97.4,17.9,97.4z"/>
		</g>
	</g>
</g>
</svg>
