<svg width="95" height="40" viewBox="0 0 95 40" version="1.1" xmlns="http://www.w3.org/2000/svg" xmlns:xlink="http://www.w3.org/1999/xlink">
<g id="Canvas" fill="none">
<g id="STAKED">
<path d="M 0.0563256 5.39326L 0.0563256 11.9663C 0.0563256 15.7303 0.337954 16.3483 2.59098 18.2584L 8.39252 23.1461C 9.51903 24.1573 9.63168 24.5506 9.63168 26.5169L 9.63168 35.1685C 9.63168 37.9214 8.89945 38.9326 7.0407 38.9326L 6.70275 38.9326C 4.844 38.9326 4.1681 37.9214 4.1681 35.1685L 4.1681 25.9551L 0 25.9551L 0 34.6067C 0 38.3146 1.74609 40 5.68889 40L 8.11089 40C 11.941 40 13.8561 38.3146 13.8561 34.6067L 13.8561 26.6292C 13.8561 22.8652 13.5745 22.2472 11.2651 20.2809L 5.51991 15.3933C 4.50605 14.5506 4.28075 14.0449 4.28075 12.0787L 4.28075 4.83146C 4.28075 2.07865 4.95666 1.06742 6.8154 1.06742L 7.09703 1.06742C 8.95578 1.06742 9.68801 2.07865 9.68801 4.83146L 9.68801 13.0899L 13.7998 13.0899L 13.7998 5.39326C 13.7998 1.68539 12.11 0 8.16722 0L 5.74521 0C 1.9714 0 0.0563256 1.68539 0.0563256 5.39326Z" fill="#111111"/>
<path d="M 24.9267 39.6629L 24.9267 1.62921L 29.5454 1.62921L 29.5454 0.337077L 16.0836 0.337077L 16.0836 1.62921L 20.7023 1.62921L 20.7023 39.6629L 24.9267 39.6629Z" fill="#111111"/>
<path d="M 34.5677 0.280899L 30.1743 39.6629L 31.8077 39.6629L 32.7652 30.7303L 38.9047 30.7303L 39.8059 39.6629L 44.1993 39.6629L 40.0876 0.280899L 34.5677 0.280899ZM 35.8068 2.24719L 36.1448 2.24719L 38.7921 29.4944L 32.8779 29.4944L 35.8068 2.24719Z" fill="#111111"/>
<path d="M 47.589 0.337077L 47.589 39.6629L 51.8134 39.6629L 51.8134 20.2809L 54.686 20.2809C 56.8264 20.2809 57.3333 21.3483 57.3333 23.7079L 57.3333 39.6629L 61.5578 39.6629L 61.5578 23.8764C 61.5578 20.5056 60.2623 19.1011 56.4321 19.0449L 62.121 0.955054L 62.121 0.337077L 58.0092 0.337077L 55.0803 19.0449L 51.8134 19.0449L 51.8134 0.337077L 47.589 0.337077Z" fill="#111111"/>
<path d="M 65.9058 0.337077L 65.9058 39.6629L 76.5514 39.6629L 76.5514 38.3708L 70.1303 38.3708L 70.1303 20.2809L 76.2134 20.2809L 76.2134 19.0449L 70.1303 19.0449L 70.1303 1.62921L 76.6077 1.62921L 76.6077 0.337077L 65.9058 0.337077Z" fill="#111111"/>
<path d="M 80.0972 0.337077L 80.0972 39.6629L 88.0955 39.6629C 92.6015 39.6629 94.404 37.9775 94.404 33.9326L 94.404 6.06742C 94.404 2.02247 92.7705 0.337077 88.0955 0.337077L 80.0972 0.337077ZM 84.3217 1.51685L 86.9127 1.51685C 89.56 1.51685 90.1232 2.75281 90.1232 5.44944L 90.1232 34.5506C 90.1232 37.2472 89.56 38.4831 86.9127 38.4831L 84.3217 38.4831L 84.3217 1.51685Z" fill="#111111"/>
</g>
</g>
</svg>

