<?xml version="1.0" encoding="UTF-8" standalone="no"?>
<svg
   xmlns:dc="http://purl.org/dc/elements/1.1/"
   xmlns:cc="http://creativecommons.org/ns#"
   xmlns:rdf="http://www.w3.org/1999/02/22-rdf-syntax-ns#"
   xmlns:svg="http://www.w3.org/2000/svg"
   xmlns="http://www.w3.org/2000/svg"
   viewBox="0 0 160 260"
   height="260"
   width="160"
   xml:space="preserve"
   id="svg2"
   version="1.1"><metadata
     id="metadata8"><rdf:RDF><cc:Work
         rdf:about=""><dc:format>image/svg+xml</dc:format><dc:type
           rdf:resource="http://purl.org/dc/dcmitype/StillImage" /></cc:Work></rdf:RDF></metadata><defs
     id="defs6" /><g
     transform="matrix(1.3333333,0,0,-1.3333333,0,260)"
     id="g10"><g
       transform="scale(0.1)"
       id="g12"><path
         id="path14"
         style="fill:#ff6600;fill-opacity:1;fill-rule:evenodd;stroke:none"
         d="M 43.0742,875.531 0.832031,917.781 448.281,1365.23 490.523,1322.98 43.0781,875.535 Z m 988.9058,-117.949 42.24,42.246 -447.443,447.442 -42.246,-42.24 z m 160.19,1031.148 -42.24,42.24 v 0 l -447.45,-447.44 42.243,-42.25 z m -1073.385,117.95 42.242,42.25 447.446,-447.45 -42.246,-42.25 -447.442,447.45" /><path
         id="path16"
         style="fill:#666666;fill-opacity:1;fill-rule:evenodd;stroke:none"
         d="m 96.5781,822.031 -31.2968,31.301 499.9217,499.918 -499.9217,499.93 31.2968,31.3 499.9219,-499.93 499.93,499.93 31.29,-31.3 L 627.801,1353.25 1127.72,853.332 1096.43,822.031 596.5,1321.96 96.5781,822.031" /><path
         id="path18"
         style="fill:none;stroke:#666666;stroke-width:25.12540054;stroke-linecap:butt;stroke-linejoin:miter;stroke-miterlimit:2.61313009;stroke-dasharray:none;stroke-opacity:1"
         d="m 596.504,1097.61 -0.606,0.81 L 342.148,754.203 229.875,232.266 595.898,19.1602 l 0.606,0.3554 0.601,-0.3554 L 963.133,232.266 850.859,754.203 597.105,1098.42 Z M 344.563,754.203 595.898,29.3555 l 0.606,1.7461 M 848.445,754.203 597.105,29.3555 l -0.601,1.7461" /></g></g></svg>