<?xml version="1.0" encoding="utf-8"?>
<!-- Generator: Adobe Illustrator 22.1.0, SVG Export Plug-In . SVG Version: 6.00 Build 0)  -->
<svg version="1.1" id="图层_1" xmlns="http://www.w3.org/2000/svg" xmlns:xlink="http://www.w3.org/1999/xlink" x="0px" y="0px"
	 viewBox="0 0 360 360" style="enable-background:new 0 0 360 360;" xml:space="preserve">
<style type="text/css">
	.st0{fill:#FFFFFF;}
</style>
<rect width="360" height="360"/>
<g>
	<g>
		<path class="st0" d="M111.8,148.2c0-27.8,12.2-52.7,32-69.6c-26.8,11.8-45.6,38.6-45.6,69.6s18.8,58.3,45.6,69.6
			C124.6,200.9,111.8,176,111.8,148.2z"/>
		<path class="st0" d="M245.5,148.2c0-27.8-12.2-52.7-32-69.6c26.8,11.8,45.6,38.6,45.6,69.6s-18.8,58.3-45.6,69.6
			C232.8,200.9,245.5,176,245.5,148.2z"/>
		<path class="st0" d="M179.1,83.3c23.5,0,44.7,18.4,57.4,46.1c-10.4-32.9-32-56-57.4-56s-47.1,22.6-57.4,56
			C134.4,101.2,155.1,83.3,179.1,83.3z"/>
		<path class="st0" d="M179.4,214.1c23.5-0.4,44.4-19,56.7-47c-9.8,33.1-31.1,56.5-56.5,56.9s-47.4-21.9-58.3-55.1
			C134.4,196.9,155.4,214.5,179.4,214.1z"/>
	</g>
	<g>
		<path class="st0" d="M71.1,274.6c0,1.7-0.3,3.3-0.9,4.7c-0.6,1.5-1.4,2.7-2.5,3.8c-1.1,1.1-2.3,1.9-3.8,2.5
			c-1.5,0.6-3.2,0.9-5,0.9s-3.5-0.3-5-0.9c-1.5-0.6-2.8-1.5-3.9-2.5c-1.1-1.1-1.9-2.3-2.5-3.8c-0.6-1.5-0.9-3-0.9-4.7
			c0-1.7,0.3-3.3,0.9-4.7c0.6-1.5,1.4-2.7,2.5-3.8c1.1-1.1,2.4-1.9,3.9-2.5c1.5-0.6,3.2-0.9,5-0.9s3.5,0.3,5,0.9
			c1.5,0.6,2.8,1.5,3.8,2.5c1.1,1.1,1.9,2.3,2.5,3.8C70.8,271.3,71.1,272.9,71.1,274.6z M65.5,274.6c0-1.2-0.2-2.2-0.5-3.1
			c-0.3-0.9-0.7-1.7-1.3-2.4c-0.6-0.6-1.3-1.1-2.1-1.5c-0.8-0.3-1.7-0.5-2.8-0.5c-1.1,0-2,0.2-2.8,0.5c-0.8,0.3-1.5,0.8-2.1,1.5
			c-0.6,0.6-1,1.4-1.3,2.4c-0.3,0.9-0.5,2-0.5,3.1c0,1.2,0.2,2.2,0.5,3.1c0.3,0.9,0.7,1.7,1.3,2.4s1.3,1.1,2.1,1.5
			c0.8,0.3,1.8,0.5,2.8,0.5c1,0,2-0.2,2.8-0.5c0.8-0.3,1.5-0.8,2.1-1.5c0.6-0.6,1-1.4,1.3-2.4C65.4,276.8,65.5,275.8,65.5,274.6z"/>
		<path class="st0" d="M97.5,286.3h-4.9c-0.9,0-1.6-0.3-2-1l-3.9-6.8c-0.2-0.3-0.4-0.5-0.6-0.6c-0.2-0.1-0.5-0.2-1-0.2h-1.4v8.7
			h-5.4v-23.4H86c1.7,0,3.1,0.2,4.3,0.5c1.2,0.3,2.2,0.8,2.9,1.5c0.8,0.6,1.3,1.4,1.6,2.2c0.3,0.8,0.5,1.8,0.5,2.8
			c0,0.8-0.1,1.5-0.3,2.2c-0.2,0.7-0.5,1.3-0.9,1.9c-0.4,0.6-0.9,1.1-1.5,1.5c-0.6,0.5-1.3,0.8-2,1.1c0.4,0.2,0.7,0.4,1,0.7
			c0.3,0.3,0.6,0.6,0.8,1L97.5,286.3z M86,273.9c0.7,0,1.4-0.1,1.9-0.3s0.9-0.4,1.3-0.8c0.3-0.3,0.6-0.7,0.7-1.2
			c0.2-0.4,0.2-0.9,0.2-1.4c0-1-0.3-1.8-1-2.4c-0.7-0.6-1.7-0.9-3.1-0.9h-2.2v7H86z"/>
		<path class="st0" d="M124.6,286.3h-4.2c-0.5,0-0.9-0.1-1.1-0.3c-0.3-0.2-0.5-0.5-0.7-0.8l-1.4-4.1h-8.9l-1.4,4.1
			c-0.1,0.3-0.3,0.6-0.6,0.8c-0.3,0.2-0.7,0.4-1.1,0.4h-4.2l9.1-23.4h5.6L124.6,286.3z M115.9,277.4l-2.2-6.4
			c-0.2-0.4-0.3-0.9-0.5-1.4c-0.2-0.6-0.4-1.2-0.5-1.8c-0.2,0.7-0.3,1.3-0.5,1.8c-0.2,0.6-0.4,1-0.5,1.4l-2.2,6.4H115.9z"/>
		<path class="st0" d="M145.5,280.3c0.1,0,0.3,0,0.4,0.1c0.1,0,0.3,0.1,0.4,0.2l2.2,2.3c-0.9,1.2-2.1,2.2-3.5,2.8
			c-1.4,0.6-3.1,0.9-5,0.9c-1.8,0-3.4-0.3-4.8-0.9c-1.4-0.6-2.6-1.4-3.6-2.5c-1-1.1-1.7-2.3-2.3-3.8c-0.5-1.5-0.8-3.1-0.8-4.8
			c0-1.7,0.3-3.4,0.9-4.8c0.6-1.5,1.4-2.7,2.4-3.8c1-1.1,2.3-1.9,3.7-2.5c1.4-0.6,3-0.9,4.7-0.9c0.9,0,1.7,0.1,2.5,0.2
			c0.8,0.2,1.5,0.4,2.2,0.6c0.7,0.3,1.3,0.6,1.9,1c0.6,0.4,1.1,0.8,1.5,1.3l-1.8,2.5c-0.1,0.2-0.3,0.3-0.4,0.4
			c-0.2,0.1-0.4,0.2-0.7,0.2c-0.2,0-0.4,0-0.5-0.1c-0.2-0.1-0.4-0.2-0.5-0.3s-0.4-0.3-0.6-0.4c-0.2-0.1-0.5-0.3-0.8-0.4
			c-0.3-0.1-0.7-0.2-1.1-0.3c-0.4-0.1-0.9-0.1-1.5-0.1c-0.9,0-1.7,0.2-2.5,0.5c-0.7,0.3-1.4,0.8-1.9,1.5c-0.5,0.6-1,1.4-1.3,2.3
			c-0.3,0.9-0.4,2-0.4,3.2c0,1.2,0.2,2.3,0.5,3.2s0.8,1.7,1.3,2.4c0.6,0.6,1.2,1.1,2,1.5c0.8,0.3,1.6,0.5,2.4,0.5
			c0.5,0,0.9,0,1.4-0.1c0.4,0,0.8-0.1,1.1-0.2c0.4-0.1,0.7-0.3,1-0.5c0.3-0.2,0.6-0.4,0.9-0.7c0.1-0.1,0.3-0.2,0.4-0.3
			S145.3,280.3,145.5,280.3z"/>
		<path class="st0" d="M168.9,282v4.3h-14.1v-23.4h5.4V282H168.9z"/>
		<path class="st0" d="M181.2,267.1v5.5h7.4v4h-7.4v5.6h9.6v4.2h-15.1v-23.4h15.1v4.2H181.2z"/>
		<path class="st0" d="M213.5,280.3c0.1,0,0.3,0,0.4,0.1c0.1,0,0.3,0.1,0.4,0.2l2.2,2.3c-0.9,1.2-2.1,2.2-3.5,2.8
			c-1.4,0.6-3.1,0.9-5,0.9c-1.8,0-3.4-0.3-4.8-0.9c-1.4-0.6-2.6-1.4-3.6-2.5c-1-1.1-1.7-2.3-2.3-3.8c-0.5-1.5-0.8-3.1-0.8-4.8
			c0-1.7,0.3-3.4,0.9-4.8c0.6-1.5,1.4-2.7,2.4-3.8c1-1.1,2.3-1.9,3.7-2.5c1.4-0.6,3-0.9,4.7-0.9c0.9,0,1.7,0.1,2.5,0.2
			c0.8,0.2,1.5,0.4,2.2,0.6c0.7,0.3,1.3,0.6,1.9,1c0.6,0.4,1.1,0.8,1.5,1.3l-1.8,2.5c-0.1,0.2-0.3,0.3-0.4,0.4
			c-0.2,0.1-0.4,0.2-0.7,0.2c-0.2,0-0.4,0-0.5-0.1c-0.2-0.1-0.4-0.2-0.5-0.3c-0.2-0.1-0.4-0.3-0.6-0.4s-0.5-0.3-0.8-0.4
			c-0.3-0.1-0.7-0.2-1.1-0.3c-0.4-0.1-0.9-0.1-1.5-0.1c-0.9,0-1.7,0.2-2.5,0.5c-0.7,0.3-1.4,0.8-1.9,1.5c-0.5,0.6-1,1.4-1.3,2.3
			s-0.4,2-0.4,3.2c0,1.2,0.2,2.3,0.5,3.2c0.3,0.9,0.8,1.7,1.3,2.4c0.6,0.6,1.2,1.1,2,1.5c0.8,0.3,1.6,0.5,2.4,0.5
			c0.5,0,0.9,0,1.4-0.1c0.4,0,0.8-0.1,1.1-0.2c0.4-0.1,0.7-0.3,1-0.5c0.3-0.2,0.6-0.4,0.9-0.7c0.1-0.1,0.3-0.2,0.4-0.3
			S213.3,280.3,213.5,280.3z"/>
		<path class="st0" d="M243.3,262.9v23.4h-5.5v-9.9h-9.5v9.9h-5.5v-23.4h5.5v9.8h9.5v-9.8H243.3z"/>
		<path class="st0" d="M272.9,286.3h-4.2c-0.5,0-0.9-0.1-1.1-0.3c-0.3-0.2-0.5-0.5-0.7-0.8l-1.4-4.1h-8.9l-1.4,4.1
			c-0.1,0.3-0.3,0.6-0.6,0.8c-0.3,0.2-0.7,0.4-1.1,0.4h-4.2l9.1-23.4h5.6L272.9,286.3z M264.2,277.4l-2.2-6.4
			c-0.2-0.4-0.3-0.9-0.5-1.4c-0.2-0.6-0.4-1.2-0.5-1.8c-0.2,0.7-0.3,1.3-0.5,1.8c-0.2,0.6-0.4,1-0.5,1.4l-2.2,6.4H264.2z"/>
		<path class="st0" d="M284.2,286.3h-5.5v-23.4h5.5V286.3z"/>
		<path class="st0" d="M313.2,262.9v23.4h-2.8c-0.4,0-0.8-0.1-1.1-0.2c-0.3-0.1-0.6-0.4-0.8-0.7l-11.1-14c0,0.4,0.1,0.8,0.1,1.2
			c0,0.4,0,0.8,0,1.1v12.6h-4.8v-23.4h2.9c0.2,0,0.4,0,0.6,0c0.2,0,0.3,0.1,0.4,0.1c0.1,0.1,0.3,0.1,0.4,0.2
			c0.1,0.1,0.3,0.3,0.4,0.4l11.2,14.1c-0.1-0.5-0.1-0.9-0.1-1.3c0-0.4,0-0.8,0-1.2v-12.4H313.2z"/>
	</g>
</g>
</svg>
