<?xml version="1.0" encoding="UTF-8"?>
<!DOCTYPE svg PUBLIC "-//W3C//DTD SVG 1.1//EN" "http://www.w3.org/Graphics/SVG/1.1/DTD/svg11.dtd">
<!-- Creator: CorelDRAW X6 -->
<svg xmlns="http://www.w3.org/2000/svg" xml:space="preserve" width="8.26389in" height="9.66666in" version="1.1" style="shape-rendering:geometricPrecision; text-rendering:geometricPrecision; image-rendering:optimizeQuality; fill-rule:evenodd; clip-rule:evenodd"
viewBox="1000 1400 8264 9667"
 xmlns:xlink="http://www.w3.org/1999/xlink">
 <defs>
  <style type="text/css">
   <![CDATA[
    .fil1 {fill:#3B3F41}
    .fil0 {fill:#F2F0EF}
    .fil2 {fill:#3B3F41;fill-rule:nonzero}
    .fil4 {fill:#F2F0EF;fill-rule:nonzero}
    .fil3 {fill:#FEFEFE;fill-rule:nonzero}
   ]]>
  </style>
 </defs>
 <g id="Layer_x0020_1">
  
  <path class="fil1" d="M1867 2318c-4,-33 -3,-68 2,-102 32,-218 228,-436 530,-407l-38 108c-9,-1 -18,-1 -26,-1 6,-25 15,-77 15,-77 -101,-5 -200,17 -309,107 70,-48 186,-88 283,-84l-10 55c-18,1 -36,3 -53,6 -119,22 -210,97 -246,214 -15,48 -20,93 -18,139 -46,9 -97,22 -128,43zm661 410l59 37c-6,4 -11,8 -15,14 -19,23 -24,56 -10,84 -34,13 -69,23 -105,30 -4,-41 -39,-72 -80,-70 -42,2 -75,38 -73,80 -37,-2 -73,-7 -108,-15 13,-39 -6,-81 -45,-96 -39,-16 -84,4 -100,43 -32,-17 -63,-36 -92,-58 13,-15 20,-33 20,-52 0,-27 -10,-42 -28,-58 31,5 59,5 91,3l16 10c105,73 238,104 374,78 24,-5 48,-11 71,-19 9,-3 17,-6 26,-11zm134 -84c0,0 18,63 27,89 9,26 19,51 19,51 13,-11 26,-20 39,-31 12,-10 23,-20 34,-31 -33,-27 -37,-75 -10,-108 26,-32 73,-37 105,-13 19,-31 35,-64 48,-98 -41,-11 -65,-54 -54,-95 11,-40 51,-64 91,-54 4,-32 5,-64 4,-96 0,-4 0,-8 0,-13 -42,6 -81,-23 -87,-65 -6,-41 21,-79 61,-87 -11,-35 -24,-69 -41,-101 -36,23 -83,12 -106,-23 -22,-35 -13,-81 20,-104 -24,-27 -50,-53 -78,-76 -23,35 -71,45 -106,22 -34,-23 -45,-68 -24,-103 -20,-9 -41,-18 -62,-25 -37,35 -69,74 -97,116l0 1c183,42 334,187 373,383 33,168 -24,332 -137,444 -6,6 -13,12 -19,18zm-162 -632c-6,6 -19,19 -27,25 -5,3 -10,7 -14,10 -25,-37 -89,-78 -153,-75 62,-13 145,6 194,40zm-652 657c-23,-28 -43,-58 -61,-90 37,-16 56,-59 42,-98 -13,-36 -51,-56 -88,-48 29,-24 60,-45 92,-64l20 -12 3 15c15,78 48,148 94,206 3,4 7,8 10,12 -16,23 -64,53 -112,80zm-185 -259c2,11 5,23 7,34 45,-44 104,-90 178,-128 -1,-14 -2,-28 -2,-43 -24,-8 -48,-6 -89,-7 33,-15 61,-21 90,-20 2,-34 8,-67 17,-100 -21,-14 -44,-18 -84,-29 36,-6 64,-5 92,4 11,-32 25,-63 42,-92 -17,-19 -38,-29 -74,-50 36,4 63,12 88,27 19,-28 40,-54 64,-78 -12,-22 -29,-38 -58,-68 34,13 58,28 78,49 25,-22 53,-42 82,-59 -5,-25 -18,-44 -39,-80 30,21 49,42 63,68 30,-15 61,-27 95,-35 1,-25 -6,-48 -17,-88 23,28 36,53 43,82l2 0c33,-7 66,-10 99,-9 8,-24 6,-48 7,-89 15,33 21,61 20,90 12,1 23,2 35,3 35,-59 83,-117 146,-169 -108,-35 -226,-44 -345,-20 -372,74 -614,435 -541,807zm502 172c-29,2 -69,5 -92,6 15,-47 14,-88 1,-134 2,55 -13,117 -52,157 48,1 94,-6 143,-29zm431 98c3,5 -30,-172 -32,-181l-1 136 -142 -84c-15,-75 -25,-147 -66,-213 29,58 37,161 40,227 0,0 198,111 201,116zm-15 -685c97,143 72,303 93,456l-42 -26 -35 -147c-114,-62 -140,-35 -172,6l161 111c26,168 25,223 83,382l-317 -199c35,-107 -23,-296 -99,-376 106,-36 258,-115 328,-207zm-43 14c-105,93 -200,137 -319,182 86,82 150,243 109,356 -82,-49 -151,-31 -134,58 -86,31 -169,49 -247,35 199,-159 13,-259 86,-497 73,-238 375,-252 504,-134z"/>
  <path class="fil2" d="M1334 3095l0 41 -130 0 0 65 124 0 0 43 -125 0 0 68 133 0 0 42 -180 0 0 -260 178 0zm157 129c0,60 27,91 81,91 52,0 78,-30 78,-91 0,-60 -26,-89 -78,-89 -54,0 -81,30 -81,89zm-50 1c0,-88 44,-132 131,-132 86,0 129,44 129,132 0,88 -43,131 -129,131 -83,0 -127,-44 -131,-131zm369 119l0 -44c26,10 56,15 88,15 40,0 60,-13 60,-40 0,-19 -12,-29 -37,-29l-41 0c-53,0 -80,-24 -80,-73 0,-53 38,-80 114,-80 29,0 57,4 83,13l0 44c-26,-10 -54,-15 -83,-15 -44,0 -65,13 -65,38 0,19 11,29 32,29l41 0c57,0 85,24 85,73 0,55 -36,82 -108,82 -33,0 -62,-4 -88,-13zm558 -249l0 42 -75 0 0 218 -48 0 0 -218 -75 0 0 -42 197 0zm144 0l0 260 -48 0 0 -260 48 0zm294 0l0 42 -75 0 0 218 -48 0 0 -218 -75 0 0 -42 197 0zm96 260l-49 0 110 -260 52 0 113 260 -52 0 -30 -71 -86 0 17 -42 52 0 -41 -98 -86 210zm326 0l0 -260 48 0 137 189 0 -189 46 0 0 260 -48 0 -137 -193 0 193 -46 0z"/>
  <path class="fil3" d="M2882 170l-58 0c0,5 3,10 7,13 5,3 10,5 16,5 9,0 16,-3 21,-9l9 10c-8,8 -18,12 -31,12 -10,0 -19,-3 -26,-10 -7,-7 -11,-16 -11,-28 0,-12 4,-21 11,-28 7,-7 16,-10 26,-10 10,0 19,3 26,9 7,6 11,14 11,25l0 11zm-58 -12l42 0c0,-6 -2,-11 -6,-14 -4,-3 -9,-5 -14,-5 -6,0 -11,2 -15,5 -5,3 -7,8 -7,14zm92 23c4,4 10,7 17,7 7,0 12,-2 17,-7 4,-4 7,-10 7,-17 0,-7 -2,-13 -7,-17 -4,-4 -10,-7 -17,-7 -7,0 -12,2 -17,7 -4,4 -7,10 -7,17 0,7 2,13 7,17zm45 10c-7,7 -17,11 -28,11 -11,0 -20,-4 -28,-11 -7,-7 -11,-16 -11,-27 0,-11 4,-20 11,-27 7,-7 17,-11 28,-11 11,0 20,4 28,11 7,7 11,16 11,27 0,11 -4,20 -11,27zm81 -12c0,7 -3,13 -8,17 -5,4 -12,6 -20,6 -5,0 -11,-1 -17,-3 -6,-2 -11,-5 -15,-8l8 -12c9,6 17,10 25,10 4,0 6,-1 8,-2 2,-2 3,-4 3,-6 0,-4 -5,-7 -15,-10 -1,0 -1,0 -2,-1 -15,-4 -23,-11 -23,-21 0,-7 3,-12 8,-16 5,-4 12,-6 21,-6 9,0 17,3 24,8l-6 12c-6,-4 -13,-6 -20,-6 -4,0 -7,1 -9,2 -2,1 -3,3 -3,6 0,2 1,4 4,5 2,1 4,2 7,2 3,1 6,1 8,2 2,1 5,2 7,3 2,1 5,2 7,4 5,3 8,9 8,16zm75 -39l0 38c0,4 1,6 3,8 2,2 4,3 8,3 3,0 7,-2 10,-5l6 11c-5,5 -12,7 -18,7 -7,0 -12,-2 -17,-7 -5,-5 -7,-11 -7,-19l0 -37 -9 0 0 -13 9 0 0 -23 16 0 0 23 19 0 0 13 -19 0zm54 61l-16 0 0 -74 16 0 0 74zm-15 -89c-2,-2 -3,-4 -3,-7 0,-3 1,-5 3,-7 2,-2 4,-3 7,-3 3,0 5,1 7,3 2,2 3,4 3,7 0,3 -1,5 -3,7 -2,2 -4,3 -7,3 -3,0 -5,-1 -7,-3zm56 27l0 38c0,4 1,6 3,8 2,2 4,3 8,3 3,0 7,-2 10,-5l6 11c-5,5 -12,7 -18,7 -7,0 -12,-2 -17,-7 -5,-5 -7,-11 -7,-19l0 -37 -9 0 0 -13 9 0 0 -23 16 0 0 23 19 0 0 13 -19 0zm99 61l-14 0 0 -10c-6,7 -14,11 -25,11 -8,0 -14,-2 -19,-7 -5,-4 -8,-10 -8,-17 0,-7 3,-13 8,-16 5,-4 13,-5 22,-5l20 0 0 -3c0,-10 -5,-15 -16,-15 -7,0 -14,3 -21,8l-7 -10c9,-7 19,-11 31,-11 9,0 16,2 21,7 6,4 8,11 8,21l0 48zm-16 -28l0 -6 -18 0c-11,0 -17,4 -17,11 0,4 1,6 4,8 3,2 7,3 12,3 5,0 9,-1 13,-4 4,-3 6,-7 6,-11zm53 -13l0 40 -16 0 0 -74 16 0 0 13c3,-5 6,-8 10,-11 4,-3 9,-4 14,-4 8,0 15,3 20,8 5,5 8,12 8,22l0 45 -16 0 0 -41c0,-14 -6,-20 -17,-20 -5,0 -10,2 -14,5 -4,4 -6,9 -6,16zm128 40l-16 0 0 -103 16 0 0 103zm40 -20c4,4 10,7 17,7 7,0 12,-2 17,-7 4,-4 7,-10 7,-17 0,-7 -2,-13 -7,-17 -4,-4 -10,-7 -17,-7 -7,0 -12,2 -17,7 -4,4 -7,10 -7,17 0,7 2,13 7,17zm45 10c-7,7 -17,11 -28,11 -11,0 -20,-4 -28,-11 -7,-7 -11,-16 -11,-27 0,-11 4,-20 11,-27 7,-7 17,-11 28,-11 11,0 20,4 28,11 7,7 11,16 11,27 0,11 -4,20 -11,27zm97 -64l0 64c0,13 -4,23 -11,29 -7,7 -16,10 -27,10 -11,0 -21,-3 -30,-10l7 -12c7,5 15,8 22,8 7,0 13,-2 18,-6 4,-4 6,-10 6,-18l0 -9c-2,4 -6,8 -10,10 -4,3 -9,4 -15,4 -10,0 -18,-3 -24,-10 -6,-7 -9,-15 -9,-26 0,-10 3,-19 9,-26 6,-7 14,-10 24,-10 10,0 18,4 24,12l0 -11 16 0zm-58 34c0,6 2,11 6,16 4,4 9,7 15,7 6,0 11,-2 15,-6 4,-4 6,-10 6,-16 0,-6 -2,-12 -6,-16 -4,-4 -9,-7 -15,-7 -6,0 -11,2 -15,7 -4,5 -6,10 -6,16zm97 20c4,4 10,7 17,7 7,0 12,-2 17,-7 4,-4 7,-10 7,-17 0,-7 -2,-13 -7,-17 -4,-4 -10,-7 -17,-7 -7,0 -12,2 -17,7 -4,4 -7,10 -7,17 0,7 2,13 7,17zm45 10c-7,7 -17,11 -28,11 -11,0 -20,-4 -28,-11 -7,-7 -11,-16 -11,-27 0,-11 4,-20 11,-27 7,-7 17,-11 28,-11 11,0 20,4 28,11 7,7 11,16 11,27 0,11 -4,20 -11,27zm97 11c-9,0 -18,-4 -24,-11 -7,-7 -10,-16 -10,-28 0,-11 4,-21 11,-28 7,-7 16,-10 25,-10 10,0 18,4 24,13l0 -41 16 0 0 103 -16 0 0 -11c-6,8 -14,12 -25,12zm-19 -38c0,7 2,13 7,17 5,4 10,7 16,7 6,0 11,-2 16,-7 4,-4 6,-10 6,-17 0,-7 -2,-13 -6,-18 -4,-5 -9,-7 -16,-7 -6,0 -12,2 -16,7 -4,5 -7,11 -7,18zm151 6l-58 0c0,5 3,10 7,13 5,3 10,5 16,5 9,0 16,-3 21,-9l9 10c-8,8 -18,12 -31,12 -10,0 -19,-3 -26,-10 -7,-7 -11,-16 -11,-28 0,-12 4,-21 11,-28 7,-7 16,-10 26,-10 10,0 19,3 26,9 7,6 11,14 11,25l0 11zm-58 -12l42 0c0,-6 -2,-11 -6,-14 -4,-3 -9,-5 -14,-5 -6,0 -11,2 -15,5 -5,3 -7,8 -7,14zm128 20c0,7 -3,13 -8,17 -5,4 -12,6 -20,6 -5,0 -11,-1 -17,-3 -6,-2 -11,-5 -15,-8l8 -12c9,6 17,10 25,10 4,0 6,-1 8,-2 2,-2 3,-4 3,-6 0,-4 -5,-7 -15,-10 -1,0 -1,0 -2,-1 -15,-4 -23,-11 -23,-21 0,-7 3,-12 8,-16 5,-4 12,-6 21,-6 9,0 17,3 24,8l-6 12c-6,-4 -13,-6 -20,-6 -4,0 -7,1 -9,2 -2,1 -3,3 -3,6 0,2 1,4 4,5 2,1 4,2 7,2 3,1 6,1 8,2 2,1 5,2 7,3 2,1 5,2 7,4 5,3 8,9 8,16zm33 22l-16 0 0 -74 16 0 0 74zm-15 -89c-2,-2 -3,-4 -3,-7 0,-3 1,-5 3,-7 2,-2 4,-3 7,-3 3,0 5,1 7,3 2,2 3,4 3,7 0,3 -1,5 -3,7 -2,2 -4,3 -7,3 -3,0 -5,-1 -7,-3zm105 15l0 64c0,13 -4,23 -11,29 -7,7 -16,10 -27,10 -11,0 -21,-3 -30,-10l7 -12c7,5 15,8 22,8 7,0 13,-2 18,-6 4,-4 6,-10 6,-18l0 -9c-2,4 -6,8 -10,10 -4,3 -9,4 -15,4 -10,0 -18,-3 -24,-10 -6,-7 -9,-15 -9,-26 0,-10 3,-19 9,-26 6,-7 14,-10 24,-10 10,0 18,4 24,12l0 -11 16 0zm-58 34c0,6 2,11 6,16 4,4 9,7 15,7 6,0 11,-2 15,-6 4,-4 6,-10 6,-16 0,-6 -2,-12 -6,-16 -4,-4 -9,-7 -15,-7 -6,0 -11,2 -15,7 -4,5 -6,10 -6,16zm96 0l0 40 -16 0 0 -74 16 0 0 13c3,-5 6,-8 10,-11 4,-3 9,-4 14,-4 8,0 15,3 20,8 5,5 8,12 8,22l0 45 -16 0 0 -41c0,-14 -6,-20 -17,-20 -5,0 -10,2 -14,5 -4,4 -6,9 -6,16zm152 -35c10,0 18,3 25,10 7,7 11,16 11,27 0,11 -4,21 -11,28 -7,7 -15,11 -24,11 -9,0 -18,-4 -25,-12l0 11 -16 0 0 -103 16 0 0 42c6,-9 14,-14 24,-14zm-24 38c0,7 2,13 6,17 4,4 9,7 16,7 6,0 11,-2 16,-7 5,-4 7,-10 7,-17 0,-7 -2,-13 -7,-18 -4,-5 -10,-7 -16,-7 -6,0 -11,2 -16,7 -4,5 -6,11 -6,18zm87 66c-7,0 -13,-2 -18,-7l7 -13c3,3 7,5 10,5 3,0 6,-1 8,-4 2,-3 3,-5 3,-8 0,-1 -10,-27 -30,-76l17 0 22 54 22 -54 17 0 -36 88c-2,5 -5,9 -9,11 -4,3 -8,4 -13,4zm177 -103l0 64c0,13 -4,23 -11,29 -7,7 -16,10 -27,10 -11,0 -21,-3 -30,-10l7 -12c7,5 15,8 22,8 7,0 13,-2 18,-6 4,-4 6,-10 6,-18l0 -9c-2,4 -6,8 -10,10 -4,3 -9,4 -15,4 -10,0 -18,-3 -24,-10 -6,-7 -9,-15 -9,-26 0,-10 3,-19 9,-26 6,-7 14,-10 24,-10 10,0 18,4 24,12l0 -11 16 0zm-58 34c0,6 2,11 6,16 4,4 9,7 15,7 6,0 11,-2 15,-6 4,-4 6,-10 6,-16 0,-6 -2,-12 -6,-16 -4,-4 -9,-7 -15,-7 -6,0 -11,2 -15,7 -4,5 -6,10 -6,16zm149 10l-58 0c0,5 3,10 7,13 5,3 10,5 16,5 9,0 16,-3 21,-9l9 10c-8,8 -18,12 -31,12 -10,0 -19,-3 -26,-10 -7,-7 -11,-16 -11,-28 0,-12 4,-21 11,-28 7,-7 16,-10 26,-10 10,0 19,3 26,9 7,6 11,14 11,25l0 11zm-58 -12l42 0c0,-6 -2,-11 -6,-14 -4,-3 -9,-5 -14,-5 -6,0 -11,2 -15,5 -5,3 -7,8 -7,14zm91 2l0 40 -16 0 0 -74 16 0 0 13c3,-5 6,-8 10,-11 4,-3 9,-4 14,-4 8,0 15,3 20,8 5,5 8,12 8,22l0 45 -16 0 0 -41c0,-14 -6,-20 -17,-20 -5,0 -10,2 -14,5 -4,4 -6,9 -6,16zm91 20c4,4 10,7 17,7 7,0 12,-2 17,-7 4,-4 7,-10 7,-17 0,-7 -2,-13 -7,-17 -4,-4 -10,-7 -17,-7 -7,0 -12,2 -17,7 -4,4 -7,10 -7,17 0,7 2,13 7,17zm45 10c-7,7 -17,11 -28,11 -11,0 -20,-4 -28,-11 -7,-7 -11,-16 -11,-27 0,-11 4,-20 11,-27 7,-7 17,-11 28,-11 11,0 20,4 28,11 7,7 11,16 11,27 0,11 -4,20 -11,27zm47 10l-30 -74 16 0 23 56 23 -56 16 0 -30 74 -18 0zm75 0l-16 0 0 -74 16 0 0 74zm-15 -89c-2,-2 -3,-4 -3,-7 0,-3 1,-5 3,-7 2,-2 4,-3 7,-3 3,0 5,1 7,3 2,2 3,4 3,7 0,3 -1,5 -3,7 -2,2 -4,3 -7,3 -3,0 -5,-1 -7,-3zm89 55l0 -40 16 0 0 74 -16 0 0 -13c-3,5 -6,8 -10,11 -4,3 -9,4 -14,4 -8,0 -15,-3 -20,-8 -5,-5 -8,-12 -8,-22l0 -45 16 0 0 41c0,14 6,20 17,20 5,0 10,-2 14,-5 4,-4 6,-9 6,-16zm91 12c0,7 -3,13 -8,17 -5,4 -12,6 -20,6 -5,0 -11,-1 -17,-3 -6,-2 -11,-5 -15,-8l8 -12c9,6 17,10 25,10 4,0 6,-1 8,-2 2,-2 3,-4 3,-6 0,-4 -5,-7 -15,-10 -1,0 -1,0 -2,-1 -15,-4 -23,-11 -23,-21 0,-7 3,-12 8,-16 5,-4 12,-6 21,-6 9,0 17,3 24,8l-6 12c-6,-4 -13,-6 -20,-6 -4,0 -7,1 -9,2 -2,1 -3,3 -3,6 0,2 1,4 4,5 2,1 4,2 7,2 3,1 6,1 8,2 2,1 5,2 7,3 2,1 5,2 7,4 5,3 8,9 8,16zm44 -21c7,-7 11,-12 14,-16 3,-4 4,-8 4,-12 0,-4 -1,-7 -4,-10 -3,-3 -7,-4 -11,-4 -8,0 -15,4 -20,12l-13 -8c4,-6 9,-11 14,-14 5,-3 12,-5 20,-5 8,0 15,3 21,8 6,5 9,12 9,21 0,5 -1,10 -4,14 -3,5 -7,10 -14,18l-23 23 44 0 0 16 -66 0 0 -14 29 -30zm74 -32c-4,7 -6,15 -6,26 0,11 2,20 6,26 4,7 10,10 18,10 8,0 14,-3 18,-10 4,-7 6,-15 6,-26 0,-11 -2,-20 -6,-26 -4,-7 -10,-10 -18,-10 -8,0 -14,3 -18,10zm-12 63c-7,-9 -10,-21 -10,-37 0,-15 3,-27 10,-37 7,-9 16,-14 30,-14 13,0 23,5 30,14 7,9 10,21 10,37 0,15 -3,27 -10,37 -7,9 -16,14 -30,14 -13,0 -23,-5 -30,-14zm82 -85l35 0 0 97 -16 0 0 -83 -20 0 0 -15zm70 5c6,-5 14,-7 23,-7 9,0 17,2 23,7 6,5 9,11 9,19 0,7 -3,14 -10,20 9,6 14,14 14,25 0,8 -3,15 -10,21 -7,6 -15,8 -26,8 -11,0 -20,-3 -26,-8 -7,-6 -10,-13 -10,-21 0,-11 5,-19 14,-25 -7,-6 -10,-12 -10,-20 0,-7 3,-14 9,-19zm10 75c4,3 9,4 14,4 5,0 9,-1 14,-4 4,-3 6,-7 6,-12 0,-5 -2,-9 -6,-12 -4,-3 -9,-4 -14,-4 -5,0 -10,1 -14,4 -4,3 -6,7 -6,12 0,5 2,9 6,12zm1 -44c3,3 8,4 12,4 5,0 9,-1 12,-4 3,-3 5,-6 5,-10 0,-4 -2,-8 -5,-10 -3,-3 -8,-4 -12,-4 -5,0 -9,1 -12,4 -3,3 -5,6 -5,10 0,4 2,8 5,10z"/>




 </g>
</svg>
