<svg id="Layer_1" data-name="Layer 1" xmlns="http://www.w3.org/2000/svg" xmlns:xlink="http://www.w3.org/1999/xlink" viewBox="0 0 1475.17 1558.49"><defs><style>.cls-1{fill:url(#linear-gradient);}.cls-2{fill:url(#linear-gradient-2);}.cls-3{fill:url(#linear-gradient-3);}.cls-4{fill:url(#linear-gradient-4);}.cls-5{fill:url(#linear-gradient-5);}.cls-6{fill:url(#linear-gradient-6);}.cls-7{fill:url(#linear-gradient-7);}.cls-8{fill:url(#linear-gradient-8);}.cls-9{fill:#989898;}.cls-10{fill:#333;}</style><linearGradient id="linear-gradient" x1="368.79" x2="368.79" y2="737.58" gradientUnits="userSpaceOnUse"><stop offset="0" stop-color="#eae9f3"/><stop offset="1" stop-color="#231f20"/></linearGradient><linearGradient id="linear-gradient-2" x1="1106.38" y1="737.58" x2="1106.38" y2="0" xlink:href="#linear-gradient"/><linearGradient id="linear-gradient-3" x1="457.08" y1="841.52" x2="280.51" y2="1018.09" xlink:href="#linear-gradient"/><linearGradient id="linear-gradient-4" x1="1386.88" y1="649.3" x2="825.87" y2="1210.31" xlink:href="#linear-gradient"/><linearGradient id="linear-gradient-5" x1="737.58" y1="368.79" x2="1122.03" y2="368.79" xlink:href="#linear-gradient"/><linearGradient id="linear-gradient-6" x1="737.58" y1="929.81" x2="1475.17" y2="929.81" xlink:href="#linear-gradient"/><linearGradient id="linear-gradient-7" x1="353.14" y1="368.79" x2="737.58" y2="368.79" xlink:href="#linear-gradient"/><linearGradient id="linear-gradient-8" x1="0" y1="929.81" x2="737.58" y2="929.81" xlink:href="#linear-gradient"/></defs><title>saltblock</title><polygon class="cls-1" points="737.58 0 0 737.58 353.14 737.58 737.58 0"/><polygon class="cls-2" points="1475.17 737.58 737.58 0 1122.03 737.58 1475.17 737.58"/><polygon class="cls-3" points="561.01 1298.6 737.58 1122.03 0 737.58 561.01 1298.6 737.58 1122.03 561.01 1298.6"/><polygon class="cls-4" points="914.15 1298.6 737.58 1122.03 914.15 1298.6 1475.17 737.58 737.58 1122.03 914.15 1298.6"/><polygon class="cls-5" points="1122.03 737.58 737.58 0 737.58 353.14 1122.03 737.58"/><polygon class="cls-6" points="737.58 1122.03 1475.17 737.58 1122.03 737.58 737.58 1122.03"/><polygon class="cls-7" points="737.58 353.14 737.58 0 353.14 737.58 737.58 353.14"/><polygon class="cls-8" points="353.14 737.58 0 737.58 737.58 1122.03 353.14 737.58"/><path class="cls-9" d="M339.43,1661.83l21.16-7.91a23.89,23.89,0,0,0,11,13.43q8,4.64,20.48,4.63,11.81,0,18.76-5.3a16.94,16.94,0,0,0,7-14.2q0-11.6-23.82-20.68-3.35-1.35-5.13-2-26.94-10.6-35.9-19.19a28,28,0,0,1-9-21q0-16.08,13.53-26.07t35.45-10q18,0,30.17,5.62T440,1575.35l-20.7,8.63a31.71,31.71,0,0,0-10.75-9.08A29.92,29.92,0,0,0,395.1,1572q-10.69,0-17,4.5a14.09,14.09,0,0,0-6.29,12q0,11.87,27.61,22.12l3.34,1.26q24.15,9,33.18,17.57a28.38,28.38,0,0,1,9,21.44q0,18.71-14.58,29.71t-39.41,11q-20.82,0-34.12-7.73A36.39,36.39,0,0,1,339.43,1661.83Z" transform="translate(-202.42 -133.18)"/><path class="cls-9" d="M581.57,1688.17l-18.48-33.89H498.52l-18.92,33.89H451.77l78.93-136.82,78.82,136.82Zm-73.25-51.69h45.42l-16.7-30c-1-1.91-2-4.12-3-6.61s-2.08-5.25-3.12-8.31q-1.33,4.32-2.84,8c-1,2.48-2,4.78-3.06,6.87Z" transform="translate(-202.42 -133.18)"/><path class="cls-9" d="M624.88,1688.17V1556.56h26.5V1669h59.23v19.15Z" transform="translate(-202.42 -133.18)"/><path class="cls-9" d="M772.28,1574.72v113.45H745.79V1574.72H702.48v-18.16H815.37v18.16Z" transform="translate(-202.42 -133.18)"/><path class="cls-10" d="M835.63,1688.17V1556.56h41.08q17.58,0,26,1.53a43,43,0,0,1,14.31,5,32.18,32.18,0,0,1,11.74,11.78,31.7,31.7,0,0,1,4.18,16.09q0,10.52-6,17.57t-17.48,9.85q14.25,1.8,22.43,10.47t8.18,21.89a34.88,34.88,0,0,1-13.24,27.42,39.61,39.61,0,0,1-16.59,7.73q-9.91,2.25-33.29,2.25Zm25.94-76.05H871.7q18.93,0,26.77-4.18t7.85-14.07q0-10.78-7.23-15.15t-27.39-4.36H861.57Zm0,58.16h9.13a175.93,175.93,0,0,0,20.82-.9,30.69,30.69,0,0,0,10.91-3.15,19.23,19.23,0,0,0,7.57-7,18.38,18.38,0,0,0,2.67-9.71,18.86,18.86,0,0,0-3.23-11,21.1,21.1,0,0,0-9.24-7.28,38,38,0,0,0-8.63-2.24,91.26,91.26,0,0,0-12.86-.72H861.57Z" transform="translate(-202.42 -133.18)"/><path class="cls-10" d="M967,1688.17V1556.56h26.49V1669h59.23v19.15Z" transform="translate(-202.42 -133.18)"/><path class="cls-10" d="M1233.18,1622.63a56.59,56.59,0,0,1-6.51,26.52,69,69,0,0,1-19,22.3,93.56,93.56,0,0,1-28.39,15,105.42,105.42,0,0,1-33.18,5.21,106.53,106.53,0,0,1-33.56-5.26,90.4,90.4,0,0,1-28.22-15,68.6,68.6,0,0,1-18.93-22.21,58,58,0,0,1,0-53.22,69.12,69.12,0,0,1,18.93-22.38,90.38,90.38,0,0,1,28.28-14.92,111.46,111.46,0,0,1,66.85,0,90.51,90.51,0,0,1,28.22,14.92,70.58,70.58,0,0,1,19,22.52A56.66,56.66,0,0,1,1233.18,1622.63Zm-27.6,0a41.8,41.8,0,0,0-4.51-19,49.74,49.74,0,0,0-13-16A59.55,59.55,0,0,0,1169,1577a72.38,72.38,0,0,0-45.75,0,60.31,60.31,0,0,0-19.32,10.69,48,48,0,0,0-12.91,15.92,42.33,42.33,0,0,0-4.46,19.05,41.59,41.59,0,0,0,4.46,18.88,49.18,49.18,0,0,0,12.91,15.91,60.47,60.47,0,0,0,19.26,10.7,70.42,70.42,0,0,0,22.93,3.68,69.23,69.23,0,0,0,22.66-3.68,62.08,62.08,0,0,0,19.32-10.7,49.86,49.86,0,0,0,13-16A41.4,41.4,0,0,0,1205.58,1622.63Z" transform="translate(-202.42 -133.18)"/><path class="cls-10" d="M1394.39,1588.56a87.1,87.1,0,0,0-23.77-11.59,88.7,88.7,0,0,0-26.33-3.87q-26.71,0-43.47,13.85t-16.76,35.86q0,21.32,16.31,35.15t41.14,13.84a90.74,90.74,0,0,0,27.55-4.13,93,93,0,0,0,25.11-12.5v24.19a86.92,86.92,0,0,1-23.27,9.25,123.26,123.26,0,0,1-61.84-1.88,84.15,84.15,0,0,1-27.89-14.57,65.58,65.58,0,0,1-18.32-22.24,61.17,61.17,0,0,1,0-54.48,66.79,66.79,0,0,1,18.54-22.34,85.74,85.74,0,0,1,27.83-14.7,111.74,111.74,0,0,1,34-5,108.73,108.73,0,0,1,27.38,3.37,106.43,106.43,0,0,1,25.28,10.2Z" transform="translate(-202.42 -133.18)"/><path class="cls-10" d="M1427.23,1688.17V1556.56h26.5V1611l58.56-54.48h32.39l-64.57,58.52,72.26,73.09h-34.18l-64.46-67.25v67.25Z" transform="translate(-202.42 -133.18)"/></svg>