<svg id="图层_1" data-name="图层 1" xmlns="http://www.w3.org/2000/svg" viewBox="0 0 171.65 256"><defs><style>.cls-1{fill:#1f1f71;}</style></defs><title>EOS Cleaner</title><path class="cls-1" d="M211.06,189.63l-16.3-78.71-5.51-26.58-.64-3.07-8.19-11L170.51,57,136,10.71,128,0l-8,10.71L85.49,57l-9.92,13.3-8.19,11-.64,3.07L63.71,99,44.94,189.63,42.17,203l11.6,7.16,62,38.33L128,256l12.18-7.53h0l62-38.33,11.6-7.16ZM128,240.94,56.54,196.79,74.8,108.6,80.5,85.1,128,21.42,175.5,85.1l5.7,23.49,18.27,88.2Z" transform="translate(-42.17)"/><path class="cls-1" d="M128.51,166.28a20.2,20.2,0,1,1,18-29.27h21.16a40.24,40.24,0,1,0,0,18.13H146.57A20.19,20.19,0,0,1,128.51,166.28Z" transform="translate(-42.17)"/></svg>