<svg xmlns="http://www.w3.org/2000/svg" xmlns:xlink="http://www.w3.org/1999/xlink" viewBox="0 0 1024 1024">
  <defs>
    <style>
      .cls-1 {
        clip-path: url(#clip-Canvas);
      }

      .cls-2 {
        fill: #979797;
      }

      .cls-3, .cls-5 {
        fill: #26b233;
      }

      .cls-4 {
        font-size: 240.968px;
      }

      .cls-4, .cls-5 {
        font-family: Gotham-Light, Gotham;
        font-weight: 300;
      }

      .cls-5 {
        font-size: 66.936px;
        letter-spacing: 0.65em;
      }

      .cls-6 {
        fill: rgba(0,0,0,0);
      }
    </style>
    <clipPath id="clip-Canvas">
      <rect width="1024" height="1024"/>
    </clipPath>
  </defs>
  <g id="Canvas" class="cls-1">
    <rect class="cls-6" width="1024" height="1024"/>
    <path id="Shape_2" data-name="Shape 2" class="cls-2" d="M253.957,741.241,97.272,645.975l51.541-223.669L251.895,281.478,354.977,420.235l49.479,227.811-150.5,93.2Zm-24.74-91.124,24.74,78.7,22.678-78.7H229.216ZM116.9,649.751,246.244,728.5l-25.274-78.386L116.9,649.751Zm270.23,0h0l-102.253.365L260.1,728.5l127.031-78.751ZM325.928,521.2l-38.984,120.63,107.12-.188L325.928,521.2ZM251.895,397.454l-65.973,113.9,41.234,130.474H278.7l41.233-128.4L251.895,397.454ZM179.737,519.644h0L107.58,641.833H218.909L179.737,519.644Zm171.6-84.139L329.393,513.1l64.67,112.335L351.335,435.5Zm-198.4,3.37L109.642,625.265l68.035-115.977-24.74-70.414ZM256.018,298.046V389.17l68.034,115.977,24.74-82.84Zm-8.247,0-90.713,128.4,24.74,76.628L247.772,389.17V298.046Z"/>
    <ellipse id="Ellipse_1_copy_6" data-name="Ellipse 1 copy 6" cx="19.73" cy="19.54" rx="19.73" ry="19.54" transform="translate(379.29 629.44)"/>
    <ellipse id="Ellipse_1_copy_7" data-name="Ellipse 1 copy 7" cx="19.73" cy="19.54" rx="19.73" ry="19.54" transform="translate(78.16 629.44)"/>
    <ellipse id="Ellipse_1_copy_4" data-name="Ellipse 1 copy 4" class="cls-3" cx="19.73" cy="19.51" rx="19.73" ry="19.51" transform="translate(330.62 403.67)"/>
    <ellipse id="Ellipse_1_copy_9" data-name="Ellipse 1 copy 9" class="cls-3" cx="19.73" cy="19.51" rx="19.73" ry="19.51" transform="translate(132.94 403.67)"/>
    <ellipse id="Ellipse_1_copy_5" data-name="Ellipse 1 copy 5" class="cls-3" cx="19.76" cy="19.51" rx="19.76" ry="19.51" transform="translate(233.22 269.68)"/>
    <ellipse id="Ellipse_1_copy_8" data-name="Ellipse 1 copy 8" class="cls-3" cx="19.76" cy="19.51" rx="19.76" ry="19.51" transform="translate(233.22 717.25)"/>
    <text id="EOS" class="cls-4" transform="translate(442.123 580.615)"><tspan x="0" y="0">EOS</tspan></text>
    <text id="DUBLIN" class="cls-5" transform="translate(458.386 670.576)"><tspan x="0" y="0">DUBLIN</tspan></text>
  </g>
</svg>
