<?xml version="1.0" encoding="UTF-8" standalone="no"?>
<svg
   xmlns:dc="http://purl.org/dc/elements/1.1/"
   xmlns:cc="http://creativecommons.org/ns#"
   xmlns:rdf="http://www.w3.org/1999/02/22-rdf-syntax-ns#"
   xmlns:svg="http://www.w3.org/2000/svg"
   xmlns="http://www.w3.org/2000/svg"
   viewBox="0 0 1440.24 1440.2533"
   height="1440.2533"
   width="1440.24"
   xml:space="preserve"
   id="svg2"
   version="1.1"><metadata
     id="metadata8"><rdf:RDF><cc:Work
         rdf:about=""><dc:format>image/svg+xml</dc:format><dc:type
           rdf:resource="http://purl.org/dc/dcmitype/StillImage" /></cc:Work></rdf:RDF></metadata><defs
     id="defs6" /><g
     transform="matrix(1.3333333,0,0,-1.3333333,0,1440.2533)"
     id="g10"><g
       transform="scale(0.1)"
       id="g12"><path
         id="path14"
         style="fill:#5bb934;fill-opacity:1;fill-rule:nonzero;stroke:none"
         d="m 4305.17,7176.01 913.23,-568.5 c 0,1050.65 0.01,3713.19 0.01,3713.19 0,0 -418.66,481.2 -1049.8,481.2 -631.16,0 -945.97,-228.1 -1167.71,-449.9 -221.73,-221.7 -517.94,-769.3 -181.42,-1514.87 138.26,-306.33 400.39,-910.13 661.28,-1515.26 l 824.41,-145.86" /><path
         id="path16"
         style="fill:#378737;fill-opacity:1;fill-rule:nonzero;stroke:none"
         d="m 3623.11,6493.96 -142.35,827.91 -4.11,0.72 C 2872.65,7583 2270.52,7844.42 1964.77,7982.42 1219.2,8318.94 671.613,8022.73 449.879,7800.99 228.141,7579.26 0,7264.45 0,6633.29 c 0,-631.14 481.199,-1049.8 481.199,-1049.8 0,0 2655.021,0.01 3708.691,0.01 l -566.78,910.46" /><path
         id="path18"
         style="fill:#5bb934;fill-opacity:1;fill-rule:nonzero;stroke:none"
         d="m 5218.41,6564.26 v 0.19 -0.19" /><path
         id="path20"
         style="fill:#296740;fill-opacity:1;fill-rule:nonzero;stroke:none"
         d="m 4305.15,7176.01 -824.39,145.86 142.34,-827.91 566.78,-910.48 h 1028.48 l 0.03,1024.02 -913.24,568.51" /><path
         id="path22"
         style="fill:#378737;fill-opacity:1;fill-rule:nonzero;stroke:none"
         d="m 6496.61,7176.01 -913.23,-568.5 c 0,1050.65 -0.01,3713.19 -0.01,3713.19 0,0 418.66,481.2 1049.81,481.2 631.16,0 945.96,-228.1 1167.7,-449.9 221.74,-221.7 517.95,-769.3 181.43,-1514.87 C 7844.04,8530.8 7581.92,7927 7321.02,7321.87 l -824.41,-145.86" /><path
         id="path24"
         style="fill:#5bb934;fill-opacity:1;fill-rule:nonzero;stroke:none"
         d="m 7178.67,6493.96 142.35,827.91 4.12,0.72 c 603.99,260.41 1206.12,521.83 1511.87,659.83 745.57,336.52 1293.19,40.31 1514.89,-181.43 221.7,-221.73 449.9,-536.54 449.9,-1167.7 0,-631.14 -481.2,-1049.8 -481.2,-1049.8 0,0 -2655.03,0.01 -3708.71,0.01 l 566.78,910.46" /><path
         id="path26"
         style="fill:#5bb934;fill-opacity:1;fill-rule:nonzero;stroke:none"
         d="m 5583.37,6564.26 v 0.19 -0.19" /><path
         id="path28"
         style="fill:#296740;fill-opacity:1;fill-rule:nonzero;stroke:none"
         d="m 6496.64,7176.01 824.38,145.86 -142.33,-827.91 -566.78,-910.48 H 5583.43 l -0.04,1024.02 913.25,568.51" /><path
         id="path30"
         style="fill:#378737;fill-opacity:1;fill-rule:nonzero;stroke:none"
         d="m 4305.17,3625.93 913.23,568.5 c 0,-1050.65 0.01,-3713.231 0.01,-3713.231 0,0 -418.66,-481.199 -1049.8,-481.199 -631.16,0 -945.97,228.199 -1167.71,449.898 -221.73,221.7 -517.94,769.342 -181.42,1514.912 138.26,306.33 400.39,910.13 661.28,1515.27 l 824.41,145.85" /><path
         id="path32"
         style="fill:#5bb934;fill-opacity:1;fill-rule:nonzero;stroke:none"
         d="m 3623.11,4307.98 -142.35,-827.9 -4.11,-0.74 C 2872.65,3218.94 2270.52,2957.52 1964.77,2819.52 1219.2,2482.99 671.613,2779.21 449.879,3000.94 228.141,3222.68 0,3537.49 0,4168.65 c 0,631.14 481.199,1049.8 481.199,1049.8 0,0 2655.021,-0.01 3708.691,-0.01 l -566.78,-910.46" /><path
         id="path34"
         style="fill:#5bb934;fill-opacity:1;fill-rule:nonzero;stroke:none"
         d="m 5218.41,4237.49 v 0.19 -0.19" /><path
         id="path36"
         style="fill:#296740;fill-opacity:1;fill-rule:nonzero;stroke:none"
         d="m 4305.15,3625.92 -824.39,-145.84 142.34,827.9 566.78,910.47 h 1028.48 l 0.03,-1024.01 -913.24,-568.52" /><path
         id="path38"
         style="fill:#5bb934;fill-opacity:1;fill-rule:nonzero;stroke:none"
         d="m 6496.61,3625.93 -913.23,568.5 c 0,-1050.65 -0.01,-3713.231 -0.01,-3713.231 0,0 418.66,-481.199 1049.81,-481.199 631.16,0 945.96,228.199 1167.7,449.898 221.74,221.7 517.95,769.342 181.43,1514.912 -138.27,306.33 -400.39,910.13 -661.29,1515.27 l -824.41,145.85" /><path
         id="path40"
         style="fill:#378737;fill-opacity:1;fill-rule:nonzero;stroke:none"
         d="m 7178.67,4307.98 142.35,-827.9 4.12,-0.74 c 603.99,-260.4 1206.12,-521.82 1511.87,-659.82 745.57,-336.53 1293.19,-40.31 1514.89,181.42 221.7,221.74 449.9,536.55 449.9,1167.71 0,631.14 -481.2,1049.8 -481.2,1049.8 0,0 -2655.03,-0.01 -3708.71,-0.01 l 566.78,-910.46" /><path
         id="path42"
         style="fill:#5bb934;fill-opacity:1;fill-rule:nonzero;stroke:none"
         d="m 5583.37,4237.49 v 0.19 -0.19" /><path
         id="path44"
         style="fill:#296740;fill-opacity:1;fill-rule:nonzero;stroke:none"
         d="m 6496.64,3625.92 824.38,-145.84 -142.33,827.9 -566.78,910.47 H 5583.43 l -0.04,-1024.01 913.25,-568.52" /></g></g></svg>