<?xml version="1.0" encoding="utf-8"?>
<!-- Generator: Adobe Illustrator 16.0.0, SVG Export Plug-In . SVG Version: 6.00 Build 0)  -->
<!DOCTYPE svg PUBLIC "-//W3C//DTD SVG 1.1//EN" "http://www.w3.org/Graphics/SVG/1.1/DTD/svg11.dtd">
<svg version="1.1" id="图层_1" xmlns="http://www.w3.org/2000/svg" xmlns:xlink="http://www.w3.org/1999/xlink" x="0px" y="0px"
	 width="800px" height="600px" viewBox="0 0 800 600" enable-background="new 0 0 800 600" xml:space="preserve">
<path d="M151.382,213.07h30.383c18.849,0,33.235,5.457,33.235,22.569c0,8.431-4.713,17.114-12.526,19.841v0.62
	c9.92,2.356,17.237,9.3,17.237,21.703c0,18.476-15.377,27.032-35.59,27.032h-32.739V213.07z M180.401,250.396
	c11.657,0,16.74-4.713,16.74-12.03c0-8.06-5.456-11.283-16.493-11.283h-10.911v23.313H180.401z M182.508,290.699
	c12.526,0,19.346-4.463,19.346-14.013c0-8.929-6.696-12.65-19.346-12.65h-12.771v26.663H182.508z"/>
<path d="M280.837,280.529v-30.753h-9.796v-13.517l10.666-0.87l2.107-18.6h15.253v18.6h17.113v14.387h-17.113v30.753
	c0,7.937,3.223,11.657,9.426,11.657c2.23,0,4.96-0.744,6.82-1.488l2.977,13.271c-3.721,1.239-8.557,2.604-14.634,2.604
	C287.164,306.572,280.837,296.155,280.837,280.529"/>
<path fill="#C30D23" d="M334.902,213.07h20.339l15.623,42.906c1.987,5.704,3.721,11.781,5.583,17.733h0.62
	c1.983-5.952,3.594-12.029,5.58-17.733L397.9,213.07h20.336v91.765h-16.74v-38.319c0-8.68,1.363-21.453,2.231-30.133h-0.497
	l-7.439,21.577l-14.137,38.566h-10.54l-14.263-38.566l-7.316-21.577h-0.494c0.867,8.68,2.354,21.453,2.354,30.133v38.319h-16.493
	V213.07z"/>
<path fill="#C30D23" d="M486.929,281.272h-29.763l-6.447,23.563h-18.603l29.391-91.765h21.579l29.513,91.765h-19.22L486.929,281.272
	z M482.96,267.013l-2.728-10.044c-2.853-9.549-5.333-20.089-8.06-30.012h-0.497c-2.356,10.046-5.083,20.463-7.813,30.012
	l-2.728,10.044H482.96z"/>
<path fill="#C30D23" d="M576.457,304.835l-18.85-34.722h-12.771v34.722h-18.355V213.07h31.995c19.221,0,34.474,6.696,34.474,27.776
	c0,13.766-6.943,22.323-17.483,26.414l21.453,37.575H576.457z M544.837,255.603h11.903c11.78,0,18.229-4.96,18.229-14.757
	c0-9.92-6.449-13.269-18.229-13.269h-11.903V255.603z"/>
<path fill="#C30D23" d="M606.091,293.179l10.541-12.649c6.572,6.076,15.253,10.169,23.313,10.169c9.55,0,14.634-4.093,14.634-10.54
	c0-6.823-5.58-8.93-13.767-12.402l-12.276-5.208c-9.3-3.846-18.601-11.286-18.601-24.679c0-15.004,13.144-26.537,31.746-26.537
	c10.664,0,21.33,4.217,28.771,11.781l-9.301,11.533c-5.83-4.837-11.905-7.564-19.47-7.564c-8.06,0-13.27,3.596-13.27,9.671
	c0,6.573,6.573,8.929,14.387,12.029l12.027,5.086c11.161,4.587,18.479,11.657,18.479,24.924c0,15.006-12.526,27.779-33.733,27.779
	C627.295,306.572,615.019,301.735,606.091,293.179"/>
<rect fill="none" width="800" height="600"/>
<g>
	<defs>
		<rect id="SVGID_1_" x="151.294" y="320.292" width="251.371" height="67.828"/>
	</defs>
	<clipPath id="SVGID_2_">
		<use xlink:href="#SVGID_1_"  overflow="visible"/>
	</clipPath>
	
		<linearGradient id="SVGID_3_" gradientUnits="userSpaceOnUse" x1="4.882813e-004" y1="600" x2="1.0005" y2="600" gradientTransform="matrix(251.3702 0 0 -251.3702 151.2976 151176.2969)">
		<stop  offset="0" style="stop-color:#36B0C7"/>
		<stop  offset="0.1433" style="stop-color:#35AEC5"/>
		<stop  offset="0.2779" style="stop-color:#33A7BF"/>
		<stop  offset="0.409" style="stop-color:#2E9BB5"/>
		<stop  offset="0.538" style="stop-color:#288AA7"/>
		<stop  offset="0.6654" style="stop-color:#227496"/>
		<stop  offset="0.7917" style="stop-color:#1E5B81"/>
		<stop  offset="0.9147" style="stop-color:#1A406D"/>
		<stop  offset="1" style="stop-color:#1A2C60"/>
	</linearGradient>
	<rect x="151.294" y="320.292" clip-path="url(#SVGID_2_)" fill="url(#SVGID_3_)" width="251.371" height="67.828"/>
</g>
<path fill="#FFFFFF" d="M171.249,350.093c0-14.442,9.292-22.906,20.362-22.906c5.563,0,10.002,2.663,12.843,5.623l-4.616,5.563
	c-2.19-2.131-4.735-3.67-8.05-3.67c-6.629,0-11.602,5.683-11.602,15.094c0,9.529,4.499,15.271,11.425,15.271
	c3.728,0,6.688-1.776,9.055-4.32l4.617,5.445c-3.611,4.201-8.287,6.451-13.969,6.451
	C180.246,372.645,171.249,364.713,171.249,350.093"/>
<path fill="#FFFFFF" d="M211.435,362.818c0-7.103,5.741-10.832,19.059-12.252c-0.118-3.256-1.54-5.741-5.624-5.741
	c-3.077,0-6.037,1.36-9.114,3.137l-3.137-5.742c3.906-2.426,8.641-4.38,13.849-4.38c8.406,0,12.727,5.032,12.727,14.62v19.355
	h-7.103l-0.651-3.552h-0.178c-2.9,2.486-6.215,4.381-10.003,4.381C215.341,372.645,211.435,368.442,211.435,362.818
	 M230.494,362.582v-6.688c-8.05,1.066-10.773,3.256-10.773,6.215c0,2.604,1.835,3.729,4.38,3.729
	C226.587,365.838,228.422,364.654,230.494,362.582"/>
<path fill="#FFFFFF" d="M249.547,338.67h7.103l0.592,3.433h0.236c2.782-2.367,6.216-4.263,9.766-4.263
	c8.168,0,13.022,6.689,13.022,16.869c0,11.364-6.806,17.936-14.087,17.936c-2.9,0-5.682-1.303-8.227-3.61l0.237,5.445v10.063h-8.642
	V338.67z M271.33,354.828c0-6.333-2.013-9.826-6.57-9.826c-2.249,0-4.262,1.126-6.57,3.434v14.562
	c2.131,1.834,4.261,2.485,6.037,2.485C268.251,365.482,271.33,362.05,271.33,354.828"/>
<path fill="#FFFFFF" d="M288.313,328.606c0-2.841,2.19-4.735,5.209-4.735c2.959,0,5.149,1.895,5.149,4.735
	c0,2.723-2.19,4.735-5.149,4.735C290.503,333.342,288.313,331.329,288.313,328.606 M289.142,338.67h8.642v33.146h-8.642V338.67z"/>
<path fill="#FFFFFF" d="M309.854,360.215v-14.681h-4.676v-6.45l5.091-0.414l1.006-8.88h7.28v8.88h8.168v6.864h-8.168v14.681
	c0,3.788,1.539,5.563,4.498,5.563c1.066,0,2.368-0.354,3.256-0.709l1.42,6.333c-1.775,0.592-4.084,1.243-6.984,1.243
	C312.875,372.645,309.854,367.672,309.854,360.215"/>
<path fill="#FFFFFF" d="M331.93,362.818c0-7.103,5.741-10.832,19.059-12.252c-0.118-3.256-1.539-5.741-5.624-5.741
	c-3.077,0-6.037,1.36-9.114,3.137l-3.137-5.742c3.906-2.426,8.642-4.38,13.85-4.38c8.405,0,12.726,5.032,12.726,14.62v19.355h-7.103
	l-0.651-3.552h-0.178c-2.9,2.486-6.214,4.381-10.002,4.381C335.836,372.645,331.93,368.442,331.93,362.818 M350.989,362.582v-6.688
	c-8.05,1.066-10.773,3.256-10.773,6.215c0,2.604,1.835,3.729,4.38,3.729C347.083,365.838,348.917,364.654,350.989,362.582"/>
<path fill="#FFFFFF" d="M370.044,362.523v-37.941h8.642v38.355c0,1.953,0.946,2.604,1.775,2.604c0.356,0,0.592,0,1.184-0.118
	l1.065,6.452c-1.006,0.414-2.486,0.77-4.498,0.77C372.175,372.645,370.044,368.679,370.044,362.523"/>
<path d="M433.256,344.904h14.632v7.605h-14.632v21.143l13.858-4.641c-0.129,2.449,0.065,5.93,0.387,7.799
	c-17.21,6.189-20.24,7.672-22.045,9.153c-0.645-1.869-2.449-5.092-3.609-6.381c1.354-1.031,3.223-3.029,3.223-6.06v-46.797h8.187
	V344.904z M468.579,376.94c2.579,0,2.966-2.901,3.417-14.246c1.934,1.419,5.35,3.03,7.478,3.545
	c-0.774,13.215-2.644,18.243-10.185,18.243h-8.444c-7.478,0-9.669-2.772-9.669-11.926v-46.153h8.058v22.626
	c5.221-4.255,10.378-9.411,14.116-13.601l6.253,6.961c-6.124,5.415-13.472,10.894-20.369,15.535v14.761
	c0,3.674,0.322,4.255,2.771,4.255H468.579z"/>
<path d="M508.813,363.017l-5.543,1.74v21.207h-7.284v-18.95l-8.702,2.643l-1.61-7.799c2.836-0.646,6.381-1.483,10.313-2.515v-13.73
	h-3.544c-0.646,3.61-1.354,6.897-2.063,9.412c-1.29-0.902-4.126-2.192-5.608-2.836c1.676-5.158,2.773-13.537,3.224-21.337
	l5.994,1.096c-0.128,2.127-0.322,4.255-0.58,6.381h2.578v-12.504h7.284v12.504h4.899v7.284h-4.899v11.732l4.964-1.418
	L508.813,363.017z M538.272,351.027v5.802h6.316v7.09h-6.316v13.473c0,3.866-0.646,5.93-3.158,7.154
	c-2.45,1.161-6.061,1.29-10.701,1.29c-0.321-2.192-1.288-5.479-2.19-7.606c3.029,0.129,6.446,0.129,7.477,0.129
	c1.031-0.065,1.289-0.258,1.289-1.096v-13.344h-13.021c2.708,2.836,5.931,6.833,7.413,9.604l-5.865,3.933
	c-1.289-2.771-4.384-7.026-7.091-10.12l5.351-3.417h-7.605v-7.09h20.819v-5.802h-22.11v-7.09h14.826v-5.479h-11.086v-6.962h11.086
	v-5.736h7.349v5.736h11.409v6.962h-11.409v5.479h14.117v7.09H538.272z"/>
<path d="M583.116,326.211c-0.064,8.314-0.129,16.565-1.289,24.236c3.675,14.438,11.538,24.237,27.46,27.782
	c-1.74,1.676-3.996,4.963-5.027,7.22c-13.15-3.675-20.757-11.151-25.655-22.433c-3.804,9.54-10.894,17.663-24.044,23.012
	c-1.031-1.998-3.287-4.834-5.415-6.51c26.558-10.185,25.204-30.812,25.334-53.308H583.116z M566.485,340.843
	c-1.547,6.703-3.867,14.246-7.477,18.887l-7.606-3.609c3.48-4.513,6.188-11.216,7.478-17.662L566.485,340.843z M606.516,341.616
	c-2.772,6.317-6.188,13.473-8.896,17.984l-6.704-2.901c2.579-4.834,5.609-12.44,7.155-18.241L606.516,341.616z"/>
<path d="M672.599,377.714v6.64h-56.788v-6.64h24.559v-4.383h-16.631v-5.995h16.631v-3.933h-13.666
	c-1.869,2.449-3.932,4.706-5.932,6.446c-1.48-1.354-4.575-3.738-6.444-4.705c4.319-3.224,8.381-8.122,10.701-13.15h-3.03v-23.979
	h44.09v23.979h-38.547l5.351,1.547c-0.579,1.16-1.16,2.321-1.87,3.545h9.348v-3.931h7.928v3.931h20.241v6.317h-20.241v3.933h17.275
	v5.995h-17.275v4.383H672.599z M629.604,337.233h28.491v-3.417h-28.491V337.233z M629.604,346.128h28.491v-3.479h-28.491V346.128z"
	/>
<path fill="#C30D23" d="M246.616,224.23c6.2,0,10.79-4.217,10.79-9.92c0-5.954-4.59-9.923-10.79-9.923
	c-6.324,0-10.913,3.969-10.913,9.923C235.703,220.013,240.292,224.23,246.616,224.23"/>
<rect x="237.439" y="235.39" width="18.106" height="69.445"/>
<rect fill="none" width="800" height="600"/>
</svg>
