<?xml version="1.0" encoding="UTF-8"?>
<svg width="300px" height="300px" viewBox="0 0 300 300" version="1.1" xmlns="http://www.w3.org/2000/svg" xmlns:xlink="http://www.w3.org/1999/xlink">
    <!-- Generator: Sketch 49.3 (51167) - http://www.bohemiancoding.com/sketch -->
    <title>EOS-logo</title>
    <desc>Created with Sketch.</desc>
    <defs></defs>
    <g id="EOS-logo" stroke="none" stroke-width="1" fill="none" fill-rule="evenodd">
        <g id="EOS">
            <rect id="Rectangle-11" fill="#060C19" fill-rule="nonzero" x="0" y="0" width="300" height="300"></rect>
            <circle id="Oval" fill="#090A1E" fill-rule="nonzero" cx="150" cy="150" r="150"></circle>
            <g id="Group-2" transform="translate(103.604167, 42.500000)">
                <g id="Group">
                    <g id="logo-copy-7">
                        <polygon id="Line-15" stroke="#006DA6" stroke-width="0.64" stroke-linecap="round" stroke-linejoin="round" points="46.8 32.6 0.6 109.6 93 109.6"></polygon>
                        <polygon id="Combined-Shape" stroke="#006DA6" stroke-width="0.64" stroke-linecap="round" stroke-linejoin="round" points="77.3 42.7 93 109.6 46.8 145"></polygon>
                        <polygon id="Combined-Shape_1_" stroke="#006DA6" stroke-width="0.64" stroke-linecap="round" stroke-linejoin="round" points="77.3 42.7 93 109.6 46.8 32.6 46.8 0"></polygon>
                        <path d="M46,32.4 L46,1.1 C46,0.6 46.4,0.3 46.8,0.3 C47.3,0.3 47.6,0.7 47.6,1.1 L47.6,32.6 C47.6,32.8 47.6,32.9 47.5,33 L1.9,109.5 C1.8,109.7 1.3,110.1 1.2,110.2 C1,110.3 1,109.9 0.8,109.8 C0.4,109.6 0.6,109.5 0.8,109.1 C0.7,108.6 0.7,108.2 0.8,108.1 C10.8,91.2 25.9,66 46,32.4 Z" id="Line" fill="#004467" fill-rule="nonzero"></path>
                        <path d="M46.1,33 C45.9,32.6 46,32.1 46.4,31.8 C46.8,31.6 47.3,31.7 47.6,32.1 C70.5,70.3 85.3,94.9 92,106.1 C92.2,106.4 92.4,107.4 92.8,109.3 L92.5,109.3 C92.3,109.3 92.1,109.3 91.9,109.3 C81.7,92.4 66.5,66.9 46.1,33 Z" id="Line-2" fill="#004467" fill-rule="nonzero"></path>
                        <polygon id="Combined-Shape_2_" stroke="#006DA6" stroke-width="0.64" stroke-linecap="round" stroke-linejoin="round" points="46.8 145 0.6 109.6 17.1 42.2"></polygon>
                        <path d="M1.4,110.2 C0.9,110.2 0.6,109.8 0.6,109.4 C0.6,108.9 1,108.6 1.4,108.6 L92.2,108.6 C92.7,108.6 93,109 93,109.4 C93,109.9 92.6,110.2 92.2,110.2 L1.4,110.2 Z" id="Line-3" fill="#004467" fill-rule="nonzero"></path>
                        <polygon id="Combined-Shape_3_" stroke="#0077B6" stroke-width="0.64" stroke-linecap="round" stroke-linejoin="round" points="77.3 42.7 46.8 145 16.9 42.7 46.8 0"></polygon>
                    </g>
                    <g id="Line-15-Copy" transform="translate(5.000000, 83.000000)" fill-rule="nonzero">
                        <polygon id="path-1_2_" fill="#000000" points="15.4 0.7 0.6 23.8 23.2 23.2 5.7 21"></polygon>
                        <polygon id="path-1_1_" fill="#18EFD6" points="15.4 0.7 0.6 23.8 23.2 23.2 5.7 21"></polygon>
                    </g>
                    <g id="Line-15-Copy-2" transform="translate(76.877778, 95.000000) scale(-1, 1) translate(-76.877778, -95.000000) translate(65.377778, 83.000000)" fill-rule="nonzero">
                        <g id="Group" fill="#000000">
                            <polygon id="path-3_2_" points="15.2 0.7 0.4 23.8 23 23.2 5.5 21"></polygon>
                        </g>
                        <g id="Group" fill="#18EFD6">
                            <polygon id="path-3_1_" points="15.2 0.7 0.4 23.8 23 23.2 5.5 21"></polygon>
                        </g>
                    </g>
                    <g id="Combined-Shape-Copy-4" transform="translate(51.000000, 117.000000)" fill-rule="nonzero">
                        <polygon id="path-5_2_" fill="#000000" points="4.3 15.7 28.5 0.5 0.3 21.8 6.5 0.5"></polygon>
                        <polygon id="path-5_1_" fill="#18EFD6" points="4.3 15.7 28.5 0.5 0.3 21.8 6.5 0.5"></polygon>
                    </g>
                    <g id="Combined-Shape-Copy-5" transform="translate(29.016666, 127.500000) scale(-1, 1) translate(-29.016666, -127.500000) translate(14.516666, 116.000000)" fill-rule="nonzero">
                        <g id="Group" fill="#000000">
                            <polygon id="path-7_2_" points="4.6 16.6 28.9 1.3 0.7 22.8 7.4 0.3"></polygon>
                        </g>
                        <g id="Group" fill="#18EFD6">
                            <polygon id="path-7_1_" points="4.6 16.6 28.9 1.3 0.7 22.8 7.4 0.3"></polygon>
                        </g>
                    </g>
                    <g id="Combined-Shape_4_" transform="translate(6.000000, 51.000000)" fill-rule="nonzero">
                        <polygon id="path-9_2_" fill="#000000" points="0.8 45.7 11.4 0.1 16 15.9 11.4 6.9"></polygon>
                        <polygon id="path-9_1_" fill="#18EFD6" points="0.8 45.7 11.4 0.1 16 15.9 11.4 6.9"></polygon>
                    </g>
                    <g id="Combined-Shape-Copy-2" transform="translate(80.708334, 74.000000) scale(-1, 1) translate(-80.708334, -74.000000) translate(72.708334, 51.000000)" fill-rule="nonzero">
                        <g id="Group" fill="#000000">
                            <polygon id="path-11_2_" points="0.7 45.7 11.4 0.1 16 15.3 11.4 6.3"></polygon>
                        </g>
                        <g id="Group" fill="#18EFD6">
                            <polygon id="path-11_1_" points="0.7 45.7 11.4 0.1 16 15.3 11.4 6.3"></polygon>
                        </g>
                    </g>
                    <g id="Combined-Shape-Copy" transform="translate(22.000000, 9.000000)" fill-rule="nonzero">
                        <polygon id="path-13_2_" fill="#000000" points="21.7 20.5 20 6.5 0 32 21.7 0"></polygon>
                        <polygon id="path-13_1_" fill="#18EFD6" points="21.7 20.5 20 6.5 0 32 21.7 0"></polygon>
                    </g>
                    <g id="Combined-Shape-Copy-6" transform="translate(61.081944, 24.500000) scale(-1, 1) translate(-61.081944, -24.500000) translate(49.081944, 8.000000)" fill-rule="nonzero">
                        <g id="Group" fill="#000000">
                            <polygon id="path-15_2_" points="23.2 20.9 21.5 6.6 0.9 33 23.2 0.7"></polygon>
                        </g>
                        <g id="Group" fill="#18EFD6">
                            <polygon id="path-15_1_" points="23.2 20.9 21.5 6.6 0.9 33 23.2 0.7"></polygon>
                        </g>
                    </g>
                    <g id="Combined-Shape-Copy-3" transform="translate(32.000000, 38.000000)" fill-rule="nonzero">
                        <polygon id="path-17_2_" fill="#000000" points="31.2 26.6 14.8 6.4 0.1 26.6 14.9 0.8"></polygon>
                        <polygon id="path-17_1_" fill="#18EFD6" points="31.2 26.6 14.8 6.4 0.1 26.6 14.9 0.8"></polygon>
                    </g>
                </g>
            </g>
            <g id="火币new-logo" transform="translate(48.000000, 201.000000)" fill="#D5F9FF" fill-rule="nonzero">
                <path d="M44.335277,8.2303207 L44.335277,18.3061224 L34.2594752,18.3061224 L34.2594752,9.48979592 C34.2594752,8.79008746 33.6997085,8.2303207 33,8.2303207 L29.5014577,8.2303207 L29.5014577,32.4402332 C29.5014577,33.1399417 30.0612245,33.6997085 30.7609329,33.6997085 L34.1195335,33.6997085 L34.1195335,22.3644315 L44.1953353,22.3644315 L44.1953353,32.3002915 C44.1953353,33 44.755102,33.5597668 45.4548105,33.5597668 L48.8134111,33.5597668 L48.8134111,9.48979592 C48.8134111,8.79008746 48.2536443,8.2303207 47.5539359,8.2303207 L44.335277,8.2303207 Z" id="Fill-1"></path>
                <path d="M64.2069971,14.5276968 L64.2069971,26.7026239 C64.2069971,27.8221574 63.6472303,28.8017493 62.6676385,29.361516 C60.0087464,30.9008746 57.2099125,28.941691 57.2099125,26.4227405 L57.2099125,15.787172 C57.2099125,15.0874636 56.6501458,14.5276968 55.9504373,14.5276968 L52.5918367,14.5276968 L52.5918367,26.8425656 C52.5918367,30.7609329 55.8104956,34.1195335 59.8688047,34.1195335 L61.6880466,34.1195335 C65.606414,34.1195335 68.9650146,30.9008746 68.9650146,26.8425656 L68.9650146,15.787172 C68.9650146,15.0874636 68.4052478,14.5276968 67.7055394,14.5276968 L64.2069971,14.5276968 Z" id="Fill-3"></path>
                <path d="M115.565598,33.6997085 L118.924198,33.6997085 L118.924198,16.4868805 C118.924198,15.787172 118.364431,15.2274052 117.664723,15.2274052 L114.306122,15.2274052 L114.306122,32.4402332 C114.306122,33.1399417 114.865889,33.6997085 115.565598,33.6997085" id="Fill-5"></path>
                <path d="M116.685131,13.4081633 C118.084548,13.4081633 119.344023,12.2886297 119.344023,10.7492711 C119.344023,9.34985423 118.22449,8.09037901 116.685131,8.09037901 C115.285714,8.09037901 114.026239,9.20991254 114.026239,10.7492711 C114.026239,12.2886297 115.145773,13.4081633 116.685131,13.4081633" id="Fill-7"></path>
                <path d="M85.3381924,26.0029155 C85.3381924,28.3819242 83.3790087,29.9212828 81.1399417,29.9212828 C78.9008746,29.9212828 76.941691,28.3819242 76.941691,26.0029155 L76.941691,22.6443149 C76.941691,20.2653061 78.9008746,18.7259475 81.1399417,18.7259475 C83.3790087,18.7259475 85.3381924,20.2653061 85.3381924,22.6443149 L85.3381924,26.0029155 Z M81,14.5276968 C76.1020408,14.5276968 72.0437318,18.0262391 72.0437318,22.9241983 L72.0437318,25.5830904 C72.0437318,30.4810496 76.1020408,33.9795918 81,33.9795918 C85.8979592,33.9795918 89.9562682,30.4810496 89.9562682,25.5830904 L89.9562682,22.9241983 C89.9562682,18.0262391 86.0379009,14.5276968 81,14.5276968 Z" id="Fill-9"></path>
                <path d="M165.244898,26.0029155 C165.244898,28.3819242 163.285714,29.9212828 161.046647,29.9212828 C158.80758,29.9212828 156.848397,28.3819242 156.848397,26.0029155 L156.848397,22.6443149 C156.848397,20.2653061 158.80758,18.7259475 161.046647,18.7259475 C163.285714,18.7259475 165.244898,20.2653061 165.244898,22.6443149 L165.244898,26.0029155 Z M161.046647,14.5276968 C156.148688,14.5276968 152.090379,18.0262391 152.090379,22.9241983 L152.090379,25.5830904 C152.090379,30.4810496 156.148688,33.9795918 161.046647,33.9795918 C165.944606,33.9795918 170.002915,30.4810496 170.002915,25.5830904 L170.002915,22.9241983 C170.002915,18.0262391 165.944606,14.5276968 161.046647,14.5276968 Z" id="Fill-11"></path>
                <path d="M186.09621,26.0029155 C186.09621,28.3819242 184.137026,29.9212828 181.897959,29.9212828 C179.658892,29.9212828 177.699708,28.3819242 177.699708,26.0029155 L177.699708,22.6443149 C177.699708,20.2653061 179.658892,18.7259475 181.897959,18.7259475 C184.137026,18.7259475 186.09621,20.2653061 186.09621,22.6443149 L186.09621,26.0029155 Z M181.758017,14.5276968 C176.860058,14.5276968 172.801749,18.0262391 172.801749,22.9241983 L172.801749,25.5830904 C172.801749,30.4810496 176.860058,33.9795918 181.758017,33.9795918 C186.655977,33.9795918 190.714286,30.4810496 190.714286,25.5830904 L190.714286,22.9241983 C190.714286,18.0262391 186.795918,14.5276968 181.758017,14.5276968 Z" id="Fill-13"></path>
                <path d="M106.329446,26.0029155 C106.329446,28.3819242 104.370262,29.9212828 102.131195,29.9212828 C99.8921283,29.9212828 97.9329446,28.3819242 97.9329446,26.0029155 L97.9329446,22.6443149 C97.9329446,20.2653061 99.8921283,18.7259475 102.131195,18.7259475 C104.370262,18.7259475 106.329446,20.2653061 106.329446,22.6443149 L106.329446,26.0029155 Z M102.131195,14.5276968 C100.591837,14.5276968 99.1924198,14.8075802 97.9329446,15.5072886 L97.9329446,9.48979592 C97.9329446,8.79008746 97.3731778,8.2303207 96.6734694,8.2303207 L93.3148688,8.2303207 L93.3148688,25.5830904 C93.3148688,30.4810496 97.3731778,33.9795918 102.271137,33.9795918 C107.169096,33.9795918 111.227405,30.4810496 111.227405,25.5830904 L111.227405,22.9241983 C111.087464,18.0262391 107.029155,14.5276968 102.131195,14.5276968 Z" id="Fill-15"></path>
                <path d="M14.9513492,10.7547289 C14.9513492,5.71682799 12.5717287,1.51857726 10.6120413,0.11916035 C10.6120413,0.11916035 10.4720636,-0.0207813411 10.4720636,0.259102041 C10.4720636,0.259102041 10.4720636,0.259102041 10.4720636,0.259102041 C10.4720636,9.91507872 5.57284501,12.4340292 2.77329153,15.9325714 C-3.52570381,24.0491895 2.3533585,32.865516 8.23242081,34.5448163 C11.591885,35.5244082 7.53253244,32.865516 6.97262175,27.5477318 C6.41271105,21.110414 14.9513492,16.2124548 14.9513492,10.7547289" id="Fill-17"></path>
                <path d="M18.1661808,14.1133294 C18.1661808,14.1133294 18.1661808,13.9733878 18.1661808,14.1133294 C18.0262391,15.232863 16.6268222,17.8917551 14.9475219,20.2707638 C9.20991254,28.3873819 12.5685131,32.1658076 14.3877551,34.2649329 C15.5072886,35.5244082 14.3877551,34.2649329 17.0466472,33.0054577 C17.1865889,32.865516 22.2244898,30.3465656 22.7842566,24.3290729 C23.2040816,18.7314052 19.5655977,15.0929213 18.1661808,14.1133294" id="Fill-20"></path>
                <path d="M204.008746,33.8396501 L204.008746,30.9008746 C204.008746,30.2011662 203.44898,29.6413994 202.749271,29.6413994 C202.049563,29.6413994 201.069971,29.6413994 200.370262,29.6413994 C198.411079,29.6413994 198.55102,28.6618076 198.55102,26.1428571 L198.55102,14.1078717 L198.55102,9.20991254 C198.55102,8.51020408 197.991254,7.95043732 197.291545,7.95043732 L193.793003,7.95043732 L193.793003,26.7026239 C193.793003,31.180758 194.912536,33.8396501 199.810496,33.8396501 C201.629738,33.8396501 203.029155,33.6997085 204.008746,33.8396501 Z" id="Fill-26"></path>
                <path d="M145.093294,19.7055394 C145.093294,22.0845481 143.134111,23.6239067 140.61516,23.6239067 C138.09621,23.6239067 136.137026,22.0845481 136.137026,19.7055394 L136.137026,16.3469388 C136.137026,13.96793 138.236152,12.4285714 140.61516,12.4285714 C143.134111,12.4285714 145.093294,13.96793 145.093294,16.3469388 L145.093294,19.7055394 Z M140.61516,8.2303207 C138.795918,8.2303207 137.25656,8.65014577 135.857143,9.34985423 C135.717201,8.65014577 135.157434,8.2303207 134.457726,8.2303207 L131.099125,8.2303207 L131.099125,29.6413994 L131.099125,32.8600583 C131.099125,33.5597668 131.658892,34.2594752 132.498542,34.2594752 L136.137026,34.2594752 L136.137026,26.9825073 C137.536443,27.5422741 139.075802,27.9620991 140.61516,27.9620991 C145.793003,27.9620991 150.131195,24.4635569 150.131195,19.5655977 L150.131195,16.9067055 C150.131195,11.728863 145.932945,8.2303207 140.61516,8.2303207 Z" id="Fill-28"></path>
            </g>
        </g>
    </g>
</svg>