<?xml version="1.0" encoding="utf-8"?>
<!-- Generator: Adobe Illustrator 22.0.0, SVG Export Plug-In . SVG Version: 6.00 Build 0)  -->
<svg version="1.1" id="Слой_1" xmlns="http://www.w3.org/2000/svg" xmlns:xlink="http://www.w3.org/1999/xlink" x="0px" y="0px"
	 viewBox="0 0 118 118" style="enable-background:new 0 0 118 118;" xml:space="preserve">
<style type="text/css">
	.st0{fill:#5C77FF;}
	.st1{fill:#D3D9EA;}
	.st2{fill:#FFFFFF;}
	.st3{fill:#8CF8FF;}
</style>
<g>
	<g>
		<path class="st0" d="M59,50.4c-3.2,0-6.4,0.8-9.3,2.4L5.1,76.9c-5.5,3-5.5,10.7,0,13.6l44.6,24.1c2.9,1.6,6.1,2.4,9.3,2.4
			s6.4-0.8,9.3-2.4l44.6-24.1c5.5-3,5.5-10.7,0-13.6L68.3,52.8C65.4,51.2,62.2,50.4,59,50.4L59,50.4z"/>
		<path class="st1" d="M59,33c2,0,4.1,0.5,5.9,1.5l43.9,23.7c0.7,0.4,0.7,1.4,0,1.8L64.9,83.6C63.1,84.5,61,85,59,85
			s-4.1-0.5-5.9-1.5L9.4,59.9c-0.7-0.4-0.7-1.4,0-1.8l43.7-23.6C54.9,33.5,57,33,59,33 M59,25.7c-3.2,0-6.4,0.8-9.3,2.4L5.1,52.2
			c-5.5,3-5.5,10.7,0,13.6l44.6,24.1c2.9,1.6,6.1,2.4,9.3,2.4s6.4-0.8,9.3-2.4l44.6-24.1c5.5-3,5.5-10.7,0-13.6L68.3,28.1
			C65.4,26.5,62.2,25.7,59,25.7L59,25.7z"/>
		<path class="st2" d="M59,63.9c-2.6,0-5.3-0.7-7.6-1.9L6.8,37.9c-2-1.1-2.2-2.9-2.2-3.6s0.2-2.5,2.2-3.6L51.4,6.5
			c2.3-1.3,4.9-1.9,7.6-1.9s5.3,0.7,7.6,1.9l44.6,24.1c2,1.1,2.2,2.9,2.2,3.6s-0.2,2.5-2.2,3.6L66.6,62C64.3,63.3,61.6,63.9,59,63.9
			z"/>
		<path class="st3" d="M59,1c-3.2,0-6.4,0.8-9.3,2.4L5.1,27.5c-5.5,3-5.5,10.7,0,13.6l44.6,24.1c2.9,1.6,6.1,2.4,9.3,2.4
			s6.4-0.8,9.3-2.4l44.6-24.1c5.5-3,5.5-10.7,0-13.6L68.3,3.4C65.4,1.8,62.2,1,59,1L59,1z"/>
		<g>
			<polyline class="st2" points="47.3,34.2 63.3,25.5 56.7,21.9 33.9,34.2 58.8,47.9 81.8,35.5 74.2,31.4 58.4,40.1 47.4,34.1 			
				"/>
		</g>
	</g>
</g>
</svg>
