<?xml version="1.0" encoding="UTF-8"?>
<!DOCTYPE svg PUBLIC "-//W3C//DTD SVG 1.0//EN" "http://www.w3.org/TR/2001/REC-SVG-20010904/DTD/svg10.dtd">
<!-- Creator: CorelDRAW X8 -->
<svg xmlns="http://www.w3.org/2000/svg" xml:space="preserve" width="1000px" height="1000px" version="1.0" style="shape-rendering:geometricPrecision; text-rendering:geometricPrecision; image-rendering:optimizeQuality; fill-rule:evenodd; clip-rule:evenodd"
viewBox="0 0 8186078 8186078"
 xmlns:xlink="http://www.w3.org/1999/xlink">
 <defs>
  <style type="text/css">
   <![CDATA[
    .fil1 {fill:#421B03}
    .fil0 {fill:#542102}
    .fil2 {fill:white}
   ]]>
  </style>
 </defs>
 <g id="Layer_x0020_1">
  <metadata id="CorelCorpID_0Corel-Layer"/>
  <path class="fil0" d="M0 0l8186078 0 0 8186078 -8186078 0 0 -8186078z"/>
  <path class="fil1" d="M2790410 5233535l1165664 1165663 -7174 6159 -8644 6855 -9069 6681 -9466 6478 -9833 6265 -10181 6034 -10490 5801 -10790 5530 -11042 5260 -11293 4979 -11496 4670 -11679 4351 -11844 4022 -11970 3674 -12076 3307 -12163 2929 -12212 2543 -12259 2156 -12299 1789 -12308 1421 -12327 1064 -12328 725 -12317 387 -12299 67 -12269 -241 -12231 -561 -12173 -841 -12124 -1141 -12047 -1402 -11970 -1673 -11883 -1924 -11776 -2175 -11670 -2408 -11573 -2630 -11467 -2832 -11390 -3027 -11293 -3200 -11225 -3355 -11148 -3519 -11090 -3636 -11032 -3761 -10993 -3867 -10935 -3945 -10916 -4032 -10877 -4080 -10858 -4129 -10848 -4157 -10838 -4167 -53719 -25400 -52655 -27255 -51563 -29045 -50412 -30804 -49232 -32525 -47995 -34198 -46738 -35831 -45423 -37427 -44059 -38965 2051885 2051886 150347 0 424702 0 10838 0 131232 0 1856 0 198187 0 9581 0 253230 0 21406 0 5540 0 91320 0 134703 0 28986 0 257349 0 64895 0 98262 0 185482 0 59355 0 36393 0 123352 0 97991 0 65321 0 67602 0 546546 0 97624 0 0 -80424 0 -212679 0 -195576 0 -46932 0 -159734 0 -232945 0 -433656 0 -127490 0 -297115 0 -480306 0 -320194 0 -576548 -2888199 -2888198 39748 43354 38220 44727 36644 46061 35048 47357 33386 48604 31703 49812 29953 50973 28184 52094 26357 53177 24490 54212 22586 55217 20633 56156 18641 57073 16611 57934 14531 58766 12415 59549 10249 60283 8054 60980 5801 61637 705 12540 -1524377 -1524377 3684 5260 1837 5579 145 5820 -1402 5966 -2785 6023 -4002 6004 -5047 5975 -5908 5956 -6584 5927 -7078 5908 -7377 5897 -7512 5889 -7445 5878 -7242 5898 -7019 5985 -6826 6168 -6662 6420 -6516 6788 -6411 7212 -6323 7745 -6265 8363 -6227 9040 -6149 9688 -6024 10278 -5830 10790 -5607 11245 -5328 11650 -4999 11980 -4621 12259 -4196 12483 -3800 12685 -3432 12849 -3075 13014 -2756 13149 -2455 13266 -2195 13362 -1943 13449 -1780 12849 -1672 11835 -1547 11186 -1402 10926 -1228 11022 -1044 11505 -832 12367 -609 13584 -213 7358 -164 7696 -106 7996 -68 8237 -29 8422 10 8556 29 8644 48 8673 68 8653 77 8567 87 8450 77 8267 68 8034 58 7745 48 7406 10 7010 0 4998 -815525 1167191 -440037 1874100z"/>
  <g id="_1611260288928">
   <path class="fil2" d="M2790410 5233535l440037 -1874100 815525 -1167191 0 -4998c0,-36267 -1305,-91514 0,-129714 1305,-38201 5231,-59326 10114,-95274 4882,-35948 12095,-71238 23852,-104257 11767,-32998 28106,-63725 44785,-86930 16649,-23195 33646,-38887 53264,-54579 19618,-15682 41836,-31374 50953,-47434 9137,-16050 5154,-32477 -25206,-41556 -30369,-9107 -87133,-10877 -143897,-12646 -899371,17848 -1629591,759013 -1629591,1662464l0 1631418c0,672982 405181,1255920 983643,1516904 57798,22257 115607,44524 178153,56745 62527,12221 129801,14406 194822,-194 65011,-14590 127751,-45964 170235,-83865 42493,-37910 64702,-82367 76140,-150636 11428,-68251 12085,-160305 12404,-219922l58 -21348 -1255291 -772887z"/>
   <path class="fil2" d="M5395725 5233467l-1255639 773119c0,34130 -87,70987 -1286,106480 -1324,38191 -3925,74787 -8827,110735 -4902,35957 -12096,71238 -23853,104256 -11757,32999 -28116,63735 -44765,86930 -16669,23195 -33666,38887 -53284,54579 -19598,15683 -41826,31375 -50953,47434 -9127,16050 -5163,32477 25225,41556 30350,9108 87114,10877 143878,12646 899401,-17848 1629601,-759012 1629601,-1662464l0 -1631418c0,-672972 -405172,-1255900 -983633,-1516894 -57818,-22267 -115617,-44533 -178153,-56754 -62546,-12222 -129820,-14407 -194832,203 -65021,14580 -127761,45954 -170244,83855 -42474,37911 -64702,82367 -76131,150637 -11438,68250 -12076,160305 -12404,219921l-87 31510c273669,380517 578625,782063 815274,1169666l440113 1874003z"/>
   <path class="fil2" d="M4174883 5875055l991852 -610697 -802309 0 -189543 610697z"/>
   <path class="fil2" d="M4093039 5822197l173067 -557655 -346144 0 173077 557655z"/>
   <path class="fil2" d="M4011185 5875045l-189466 -610503 -802115 0 991581 610503z"/>
   <path class="fil2" d="M2935052 5170409l857429 0 -299764 -965920 -557665 965920z"/>
   <path class="fil2" d="M3556665 4093938l334078 1076471 404582 0 334127 -1076568 -536355 -929034 -536432 929131z"/>
   <path class="fil2" d="M4693313 4204634l-299794 965978 857487 -29 -557693 -965949z"/>
   <path class="fil2" d="M4731223 4082510l485759 841369 -316849 -1385691 -168910 544322z"/>
   <path class="fil2" d="M4667285 3971940l188063 -606027 -715252 -1012368 0 705284 527189 913111z"/>
   <path class="fil2" d="M3518764 3971795l527208 -913149 0 -705110 -715252 1012377 188044 605882z"/>
   <path class="fil2" d="M3454884 4082597l-168959 -544409 -316926 1385991 315157 -545840 170728 -295742z"/>
  </g>
 </g>
</svg>
