<svg xmlns="http://www.w3.org/2000/svg" viewBox="0 0 444.53 93.15"><defs><style>.cls-1{fill:#fff;}</style></defs><title>자산 6</title><g id="레이어_2" data-name="레이어 2"><g id="레이어_1-2" data-name="레이어 1"><path class="cls-1" d="M0,5.44H19.06V40.71H51.7V5.44H70.48V91.82H51.7V56.18H19.06V91.82H0Z"/><path class="cls-1" d="M79.3,61V60c0-19.93,14.14-32.86,32.5-32.86,16.31,0,30.81,9.55,30.81,32.14v4.83H97.06c.48,10.51,6.16,16.55,15.7,16.55,8.1,0,12.08-3.5,13.17-8.82h16.55c-2,13.65-12.92,21.27-30.2,21.27C93.19,93.15,79.3,81.19,79.3,61Zm46.27-7.61c-.6-9.55-5.44-14.14-13.77-14.14-7.85,0-13.17,5.2-14.5,14.14Z"/><path class="cls-1" d="M166.32,59.56,146.14,28.63H166.2L178,47.6l11.6-19h18.12l-20.18,29.6,22.23,33.59H189.64L176.35,70.55,162.7,91.82h-18Z"/><path class="cls-1" d="M215.87,0h17.4V91.82h-17.4Z"/><path class="cls-1" d="M241.9,74.3c0-14.74,13.53-20.3,32.86-20.3h7.13V51.47c0-7.49-2.29-11.6-10.27-11.6-6.88,0-10,3.5-10.75,8.94H244.32c1.09-15,12.93-21.63,28.39-21.63s26.46,6.28,26.46,23.44v41.2h-17V84.21c-3.62,5.07-9.18,8.94-19.08,8.94C251.57,93.15,241.9,87.59,241.9,74.3Zm40-4.59V64.39h-6.76c-10.15,0-16.07,2.18-16.07,8.94,0,4.59,2.78,7.61,9.18,7.61C276,80.94,281.89,76.72,281.89,69.71Z"/><path class="cls-1" d="M310,28.63h17.51v10c3.15-6.28,10-11.48,20.54-11.48,12.45,0,21.27,7.49,21.27,24.41V91.82H351.84V54.12c0-8.57-3.39-12.68-11.12-12.68-7.49,0-13.17,4.59-13.17,13.89V91.82H310Z"/><path class="cls-1" d="M412.14,30V41.49H399.58v31c0,2.9.49,4.83,1.45,5.79s2.9,1.45,5.8,1.45c1,0,1.89,0,2.78-.12a24.07,24.07,0,0,0,2.53-.36V92.54a43.22,43.22,0,0,1-4.83.49c-1.77.07-3.5.12-5.19.12a50.39,50.39,0,0,1-7.55-.55,17.71,17.71,0,0,1-6.28-2.11A11.18,11.18,0,0,1,384,86a15.92,15.92,0,0,1-1.57-7.61V41.49h-8.36V30h8.36V15.46h17.14V30Z"/><polygon class="cls-1" points="439.27 74.25 428.75 74.25 423.49 83.36 428.75 92.47 439.27 92.47 444.53 83.36 439.27 74.25"/></g></g></svg>