<svg id="Layer_1" data-name="Layer 1" xmlns="http://www.w3.org/2000/svg" viewBox="0 0 230 159.27"><defs><style>.cls-1{fill:#12100b;}</style></defs><title>EOS</title><path class="cls-1" d="M128.35,208l-53.6-31.62L92.9,99l35.44-50.1L164.42,99l.1.44,17.72,76.95ZM79.81,174.2l48.54,28.64,48.84-28.63-16.88-73.34L128.38,56.5,97,100.82Z" transform="translate(-13.5 -48.87)"/><path class="cls-1" d="M38.61,142.08c13.2,0,32.48,2.07,49.35,11.94,16.27,9.51,27.57,24.59,33.7,44.89L26.59,142.63c3.47-.32,7.55-.55,12-.55h0m0-4.43A124.68,124.68,0,0,0,13.5,140l115,68.1c-12.31-60.54-59.95-70.48-89.92-70.48Z" transform="translate(-13.5 -48.87)"/><path class="cls-1" d="M218.39,142.08c4.47,0,8.55.23,12,.55l-95.07,56.28c6.13-20.31,17.43-35.38,33.7-44.89,16.87-9.87,36.15-11.94,49.35-11.94m0-4.43c-30,0-77.61,9.94-89.92,70.48l115-68.1a124.68,124.68,0,0,0-25.11-2.38Z" transform="translate(-13.5 -48.87)"/><path class="cls-1" d="M187.53,87.32A151,151,0,0,1,181.1,122c-6.22,20.46-19.66,49.74-48.51,76.55A165,165,0,0,1,136.43,157c7.54-33,24.72-56.43,51.1-69.67m4.58-7c-75.59,31.72-63.32,127.53-63.32,127.53,66.69-56.43,63.32-127.53,63.32-127.53Z" transform="translate(-13.5 -48.87)"/><path class="cls-1" d="M69.47,87.32c26.31,13.21,43.46,36.53,51,69.41a165.41,165.41,0,0,1,3.89,41.84C95.56,171.77,82.12,142.49,75.9,122a151,151,0,0,1-6.43-34.71m-4.58-7s-3.37,71.1,63.32,127.53c0,0,12.27-95.81-63.32-127.53Z" transform="translate(-13.5 -48.87)"/></svg>