<?xml version="1.0" encoding="UTF-8"?>
<svg width="180px" height="180px" viewBox="0 0 180 180" version="1.1" xmlns="http://www.w3.org/2000/svg" xmlns:xlink="http://www.w3.org/1999/xlink">
    <!-- Generator: Sketch 46.2 (44496) - http://www.bohemiancoding.com/sketch -->
    <title>Rectangle</title>
    <desc>Created with Sketch.</desc>
    <defs></defs>
    <g id="Page-1" stroke="none" stroke-width="1" fill="none" fill-rule="evenodd">
        <rect id="Rectangle" fill="#FFFFFF" x="0" y="0" width="180" height="180"></rect>
        <path d="M59.214626,74.389863 C58.2584826,77.2528673 55.3900523,77.2528673 55.3900523,71.5268586 C56.3461957,56.257502 63.0391997,47.6684889 73.5567775,41.9424802 C88.8550723,34.3078019 104.153367,40.0338106 110.846371,43.8511498 C112.291899,26.7414825 120.847358,17.7074281 125.628075,15.7987585 C130.408792,13.8900889 133.162737,15.7019007 133.793813,18.0841105 C134.749957,20.9471149 133.977179,23.4856627 136.662244,27.6274584 C138.574531,30.4904627 142.399104,30.4904627 144.311391,34.3078019 C146.223678,38.125141 142.399104,40.9881454 148.135965,45.7598193 C153.872825,50.5314933 151.004395,52.4401629 147.179821,55.3031672 C142.399104,58.1661716 139.530674,60.0748412 125.188523,61.0291759 C134.749957,93.4765587 112.758658,105.882911 105.109511,108.745915 C94.5919329,112.563254 80.2497815,110.654585 73.5567775,103.974241 C68.2446552,121.754676 62.8808447,125.286401 58.2609873,127.119533 C54.737988,128.075011 49.5497918,128.469209 48.0998754,121.454788 C47.1139044,117.038137 44.9400718,114.487833 42.4790972,113.67191 C37.6652791,111.366583 34.5517446,111.309816 35.2685314,103.019907 C35.7783647,97.0247968 32.9499621,95.1806478 30.964679,93.8378111 C27.2753735,91.7576081 21.527445,87.8494096 27.7691799,84.8875456 C31.3303799,83.1414214 36.4789605,82.4943465 40.65965,82.2905568 C46.587519,82.0016001 51.4952473,82.7866818 53.3858127,83.3834302 C56.6097185,84.4010414 55.9886715,86.0130508 54.4761825,86.6477371 C50.8016424,87.431355 45.8548277,86.7766632 41.0741106,87.730998 C38.4788662,88.249065 37.0531352,89.0251025 37.7012679,90.6135544 C38.2470648,91.9512004 42.0319487,93.6836841 42.828322,96.3380255 C43.259897,98.2342892 42.9617816,100.296954 43.02121,102.416203 C43.0666531,105.44982 43.5527513,106.73699 44.7666292,107.51404 C46.639006,108.712621 48.6375515,108.013963 50.5988622,109.833032 C52.8395635,112.167251 52.2901394,116.003286 52.9326233,118.382534 C53.3576812,119.845032 56.1462552,122.112095 59.214626,117.334928 C62.2829969,112.557762 64.9514866,102.065572 65.90763,94.4308935 C65.90763,90.6135544 63.0391997,82.0245413 65.90763,72.4811934 C69.3492756,61.030742 80.2905386,56.6958788 87.939686,56.6958788 C101.127631,56.6958788 106.392899,66.5789688 106.065654,75.3441978 C105.738409,84.1094267 101.609249,89.4036129 95.5480763,90.6135544 C90.7673592,91.5678892 87.9821317,91.1604681 84.8189698,88.7048848 C81.2059249,84.8875456 81.3375257,79.666762 84.0743552,76.2985326 C86.1981709,73.2158161 92.679646,73.4355282 89.8112157,79.1615369 C88.8550723,82.0245413 88.8550723,84.8875456 92.679646,84.8875456 C94.4604668,84.8875456 97.4283104,82.2995484 98.3294013,78.0017101 C99.3635354,73.0693104 96.730451,66.3267207 88.5507294,66.352143 C79.0875942,66.0976736 74.9910567,72.7499148 74.3058276,76.2985326 C72.6598929,85.9529549 75.3241507,100.564833 94.5919329,100.156902 C108.831384,99.3016178 115.627088,89.6592196 115.906074,73.3459646 C115.627088,64.8465151 110.846371,47.6684889 90.7673592,47.6684889 C68.7760603,47.6684889 63.0391997,62.9378455 59.214626,74.389863 Z M115.429033,47.5635463 C118.130388,50.2078169 120.502828,53.0746028 123.507154,58.065587 C128.867097,57.4793388 134.816046,55.8156774 141.354,53.0746028 C144.306397,51.6600481 144.233608,49.7218038 141.135634,47.2598697 C136.488672,43.5669686 136.981667,43.052119 137.171962,38.9455389 C137.310751,36.842211 137.216845,33.8779348 134.16882,33.1478846 C131.120795,32.4178344 129.741378,31.3204896 129.586774,28.2237384 C129.653046,24.861285 127.857087,19.5253763 124.02699,24.861285 C120.196893,30.1971937 115.811313,44.4299798 115.429033,47.5635463 Z" id="Combined-Shape" stroke="#FE6DB5" stroke-width="0.2" fill="#FE6DB5"></path>
        <path d="M25.9550014,148.419355 L30.0005422,149.702087 C29.3803168,151.957452 28.3489726,153.632506 26.9064787,154.727297 C25.4639848,155.822089 23.6338775,156.369477 21.4161019,156.369477 C18.6720745,156.369477 16.4167433,155.432105 14.6500407,153.557333 C12.8833381,151.68256 12,149.11947 12,145.867986 C12,142.428554 12.8880367,139.757396 14.6641366,137.854432 C16.4402366,135.951468 18.7754441,135 21.6698292,135 C24.1977175,135 26.2510086,135.747078 27.8297642,137.241258 C28.7694996,138.124609 29.4742906,139.393233 29.9441583,141.047167 L25.8140417,142.033885 C25.5697105,140.962586 25.0599117,140.116837 24.28463,139.496612 C23.5093483,138.876386 22.5672776,138.566278 21.4583898,138.566278 C19.9266211,138.566278 18.6838396,139.116015 17.7300081,140.215506 C16.7761767,141.314996 16.2992681,143.095768 16.2992681,145.557875 C16.2992681,148.170339 16.7691288,150.030987 17.7088642,151.139875 C18.6485996,152.248763 19.8702374,152.803199 21.373814,152.803199 C22.4827018,152.803199 23.436519,152.450803 24.2352941,151.746002 C25.0340692,151.0412 25.6072992,149.932329 25.9550014,148.419355 Z M36.5128761,145.614259 L32.9184061,144.965844 C33.3224923,143.518652 34.0178861,142.44737 35.0046083,141.751965 C35.9913305,141.056561 37.4572958,140.708864 39.4025481,140.708864 C41.1692507,140.708864 42.4848606,140.917952 43.3494172,141.336134 C44.2139738,141.754317 44.8224433,142.285259 45.1748441,142.928978 C45.5272449,143.572697 45.7034427,144.754396 45.7034427,146.474112 L45.6611548,151.097587 C45.6611548,152.413217 45.724586,153.383479 45.8514503,154.008403 C45.9783145,154.633327 46.2155942,155.302879 46.5632963,156.017078 L42.6446191,156.017078 C42.5412482,155.753952 42.4143859,155.363968 42.2640282,154.847113 C42.1982467,154.612179 42.1512606,154.457125 42.1230686,154.381946 C41.4464591,155.039761 40.7228736,155.533115 39.9522906,155.862022 C39.1817075,156.19093 38.3594514,156.355381 37.4854974,156.355381 C35.9443313,156.355381 34.7297415,155.937205 33.8416915,155.10084 C32.9536415,154.264476 32.5096232,153.207289 32.5096232,151.929249 C32.5096232,151.083487 32.7116633,150.329361 33.1157495,149.666847 C33.5198358,149.004334 34.0860179,148.496884 34.8143128,148.144484 C35.5426078,147.792083 36.5927464,147.484324 37.9647601,147.221198 C39.8160389,146.873496 41.0987585,146.549292 41.8129574,146.248577 L41.8129574,145.85389 C41.8129574,145.092704 41.6250132,144.550015 41.249119,144.225806 C40.8732248,143.901598 40.1637352,143.739496 39.1206289,143.739496 C38.4158273,143.739496 37.8660903,143.878105 37.4714015,144.155327 C37.0767126,144.432549 36.7572073,144.918854 36.5128761,145.614259 Z M41.8129574,148.828138 C41.3055003,148.99729 40.5020386,149.19933 39.4025481,149.434264 C38.3030577,149.669198 37.5841708,149.89943 37.2458661,150.124966 C36.7290116,150.491463 36.4705882,150.956625 36.4705882,151.520466 C36.4705882,152.07491 36.6773269,152.554168 37.0908105,152.958254 C37.5042941,153.362341 38.0305381,153.564381 38.6695581,153.564381 C39.3837571,153.564381 40.065055,153.32945 40.7134725,152.859583 C41.1927376,152.502483 41.5075442,152.065513 41.6579019,151.548658 C41.7612728,151.210353 41.8129574,150.566644 41.8129574,149.617512 L41.8129574,148.828138 Z M63.2247221,156.017078 L59.2637571,156.017078 L59.2637571,148.377067 C59.2637571,146.760722 59.1791822,145.715282 59.0100298,145.240716 C58.8408774,144.766149 58.566009,144.397309 58.1854161,144.134183 C57.8048233,143.871057 57.3467091,143.739496 56.8110599,143.739496 C56.125053,143.739496 55.5095356,143.92744 54.964489,144.303334 C54.4194425,144.679228 54.0459032,145.177281 53.8438601,145.797506 C53.641817,146.417731 53.540797,147.564192 53.540797,149.236921 L53.540797,156.017078 L49.5798319,156.017078 L49.5798319,141.047167 L53.2588777,141.047167 L53.2588777,143.246137 C54.56511,141.554613 56.2096223,140.708864 58.1924641,140.708864 C59.066418,140.708864 59.8651812,140.866268 60.5887774,141.181079 C61.3123737,141.49589 61.8597614,141.897621 62.2309569,142.386284 C62.6021524,142.874946 62.8605758,143.429382 63.0062348,144.049607 C63.1518937,144.669832 63.2247221,145.557869 63.2247221,146.713744 L63.2247221,156.017078 Z M80.971537,156.017078 L77.2924912,156.017078 L77.2924912,153.818108 C76.6816632,154.673267 75.960427,155.309928 75.1287612,155.728111 C74.2970953,156.146293 73.458394,156.355381 72.6126321,156.355381 C70.8929163,156.355381 69.4199031,155.662336 68.1935484,154.276227 C66.9671937,152.890117 66.3540255,150.95664 66.3540255,148.475739 C66.3540255,145.938453 66.9507485,144.009675 68.1442125,142.689347 C69.3376765,141.369018 70.8459293,140.708864 72.669016,140.708864 C74.3417451,140.708864 75.7889159,141.404258 77.010572,142.795066 L77.010572,135.352399 L80.971537,135.352399 L80.971537,156.017078 Z M70.3995663,148.207915 C70.3995663,149.805466 70.6204008,150.961323 71.0620764,151.675522 C71.7010965,152.709231 72.5938318,153.226078 73.740309,153.226078 C74.6518524,153.226078 75.4271225,152.838442 76.0661426,152.063161 C76.7051627,151.287879 77.0246679,150.129672 77.0246679,148.588506 C77.0246679,146.868791 76.7145599,145.630708 76.0943345,144.874221 C75.4741091,144.117734 74.6800446,143.739496 73.7121171,143.739496 C72.7723817,143.739496 71.9853651,144.113035 71.3510436,144.860125 C70.7167222,145.607214 70.3995663,146.723133 70.3995663,148.207915 Z M83.0013554,141.047167 L87.2160477,141.047167 L90.7964218,151.675522 L94.2922201,141.047167 L98.3941448,141.047167 L93.1081594,155.453239 L92.16373,158.060992 C91.8160279,158.934946 91.4847761,159.602148 91.1699648,160.062619 C90.8551534,160.523089 90.4933607,160.896628 90.0845758,161.183247 C89.6757909,161.469867 89.1730399,161.693051 88.5763079,161.852806 C87.9795759,162.012561 87.3053259,162.092437 86.5535375,162.092437 C85.7923518,162.092437 85.0452734,162.012561 84.3122798,161.852806 L83.9598807,158.751694 C84.5801061,158.87386 85.1392403,158.934942 85.6373001,158.934942 C86.5582408,158.934942 87.2395388,158.664772 87.6812144,158.124424 C88.1228901,157.584076 88.4611898,156.89573 88.6961236,156.059366 L83.0013554,141.047167 Z M100.931418,156.017078 L100.931418,152.056113 L104.892383,152.056113 L104.892383,156.017078 L100.931418,156.017078 Z M108.134454,145.811602 C108.134454,143.706595 108.44926,141.939919 109.078883,140.511521 C109.548751,139.459017 110.190111,138.514597 111.002982,137.678233 C111.815853,136.841868 112.706239,136.221652 113.674166,135.817566 C114.961604,135.272519 116.446364,135 118.12849,135 C121.173233,135 123.60946,135.94442 125.437246,137.833288 C127.265031,139.722156 128.17891,142.348677 128.17891,145.71293 C128.17891,149.048991 127.272079,151.659067 125.45839,153.543237 C123.6447,155.427406 121.220219,156.369477 118.184874,156.369477 C115.111939,156.369477 112.668664,155.432105 110.854974,153.557333 C109.041285,151.68256 108.134454,149.100676 108.134454,145.811602 Z M112.433722,145.670642 C112.433722,148.010584 112.974062,149.784308 114.054757,150.991868 C115.135453,152.199428 116.507446,152.803199 118.170778,152.803199 C119.83411,152.803199 121.199055,152.204126 122.265655,151.005964 C123.332254,149.807801 123.865546,148.010584 123.865546,145.614259 C123.865546,143.246125 123.34635,141.479449 122.307943,140.314177 C121.269535,139.148905 119.890494,138.566278 118.170778,138.566278 C116.451062,138.566278 115.064973,139.155953 114.01247,140.335321 C112.959966,141.514689 112.433722,143.293112 112.433722,145.670642 Z M131.477365,156.017078 L131.477365,135.352399 L135.537002,135.352399 L143.994578,149.152345 L143.994578,135.352399 L147.870968,135.352399 L147.870968,156.017078 L143.684467,156.017078 L135.353754,142.541339 L135.353754,156.017078 L131.477365,156.017078 Z M152.283004,156.017078 L152.283004,135.352399 L167.605313,135.352399 L167.605313,138.848197 L156.455408,138.848197 L156.455408,143.429385 L166.830035,143.429385 L166.830035,146.911087 L156.455408,146.911087 L156.455408,152.535375 L168,152.535375 L168,156.017078 L152.283004,156.017078 Z" id="Candy.ONE" fill="#333333"></path>
    </g>
</svg>