<?xml version="1.0" encoding="UTF-8"?>
<svg width="1024px" height="1024px" viewBox="0 0 1024 1024" version="1.1" xmlns="http://www.w3.org/2000/svg" xmlns:xlink="http://www.w3.org/1999/xlink">
    <!-- Generator: Sketch 51.2 (57519) - http://www.bohemiancoding.com/sketch -->
    <title>aurora-1024</title>
    <desc>Created with Sketch.</desc>
    <defs>
        <linearGradient x1="49.916302%" y1="100.895856%" x2="49.916302%" y2="-0.85469585%" id="linearGradient-1">
            <stop stop-color="#3EBEB1" offset="13.85%"></stop>
            <stop stop-color="#47C0B5" stop-opacity="0.6513" offset="43.89%"></stop>
            <stop stop-color="#4BC1B7" stop-opacity="0" offset="100%"></stop>
        </linearGradient>
        <linearGradient x1="50.286302%" y1="101.09294%" x2="50.286302%" y2="-1.22256179%" id="linearGradient-2">
            <stop stop-color="#3E92CF" offset="10.77%"></stop>
            <stop stop-color="#3D9FCE" stop-opacity="0.6817" offset="36.72%"></stop>
            <stop stop-color="#3AACCE" stop-opacity="0.2597" offset="71.13%"></stop>
            <stop stop-color="#3AB1CE" stop-opacity="0" offset="92.31%"></stop>
        </linearGradient>
        <linearGradient x1="49.9234449%" y1="101.214592%" x2="49.9234449%" y2="-1.38211428%" id="linearGradient-3">
            <stop stop-color="#3EBEB1" offset="13.82%"></stop>
            <stop stop-color="#3EB8BC" stop-opacity="0.7837" offset="32.46%"></stop>
            <stop stop-color="#3CB4C6" stop-opacity="0.5172" offset="55.43%"></stop>
            <stop stop-color="#3AB2CC" stop-opacity="0.2541" offset="78.11%"></stop>
            <stop stop-color="#3AB1CE" stop-opacity="0" offset="100%"></stop>
        </linearGradient>
        <linearGradient x1="50.286302%" y1="100.819577%" x2="50.286302%" y2="-0.923638476%" id="linearGradient-4">
            <stop stop-color="#3E92CF" offset="21.68%"></stop>
            <stop stop-color="#538FCB" stop-opacity="0.512" offset="59.66%"></stop>
            <stop stop-color="#5C8DC9" stop-opacity="0" offset="99.5%"></stop>
        </linearGradient>
        <linearGradient x1="50.6491592%" y1="100.490122%" x2="50.6491592%" y2="-0.66089%" id="linearGradient-5">
            <stop stop-color="#5C62AC" offset="23.73%"></stop>
            <stop stop-color="#6466AE" stop-opacity="0.5986" offset="54.35%"></stop>
            <stop stop-color="#6B6AB0" stop-opacity="0" offset="100%"></stop>
        </linearGradient>
        <linearGradient x1="49.5977306%" y1="100.65823%" x2="49.5977306%" y2="-0.747433738%" id="linearGradient-6">
            <stop stop-color="#775CA7" offset="8.222899%"></stop>
            <stop stop-color="#8355A3" stop-opacity="0" offset="98.34%"></stop>
        </linearGradient>
        <linearGradient x1="49.9605878%" y1="100.643866%" x2="49.9605878%" y2="-0.921601996%" id="linearGradient-7">
            <stop stop-color="#7154A3" offset="13.86%"></stop>
            <stop stop-color="#7154A3" stop-opacity="0" offset="100%"></stop>
        </linearGradient>
        <linearGradient x1="50.3234449%" y1="101.046353%" x2="50.3234449%" y2="-0.854115621%" id="linearGradient-8">
            <stop stop-color="#4F54A4" offset="24.6%"></stop>
            <stop stop-color="#4F54A4" stop-opacity="0" offset="99.49%"></stop>
        </linearGradient>
        <linearGradient x1="50.6491592%" y1="100.716202%" x2="50.6491592%" y2="-0.651005666%" id="linearGradient-9">
            <stop stop-color="#5C8DC9" offset="12.39%"></stop>
            <stop stop-color="#6183C2" stop-opacity="0.6661" offset="41.64%"></stop>
            <stop stop-color="#6B6AB0" stop-opacity="0" offset="100%"></stop>
        </linearGradient>
        <linearGradient x1="50.286302%" y1="100.599327%" x2="50.286302%" y2="-0.765163742%" id="linearGradient-10">
            <stop stop-color="#3AB1CE" offset="13.86%"></stop>
            <stop stop-color="#40ADCD" stop-opacity="0.782" offset="32.64%"></stop>
            <stop stop-color="#4DA1CC" stop-opacity="0.4265" offset="63.26%"></stop>
            <stop stop-color="#5C8DC9" stop-opacity="0" offset="100%"></stop>
        </linearGradient>
        <linearGradient x1="49.9234449%" y1="100.592669%" x2="49.9234449%" y2="-0.645425848%" id="linearGradient-11">
            <stop stop-color="#4BC1B7" offset="27.67%"></stop>
            <stop stop-color="#4BC1B7" stop-opacity="0" offset="97.87%"></stop>
        </linearGradient>
        <linearGradient x1="49.5477306%" y1="100.492189%" x2="49.5477306%" y2="-0.660134661%" id="linearGradient-12">
            <stop stop-color="#6AC4A1" offset="24.73%"></stop>
            <stop stop-color="#6AC4A1" stop-opacity="0" offset="98.63%"></stop>
        </linearGradient>
        <linearGradient x1="50.6134449%" y1="100.400466%" x2="50.6134449%" y2="-0.542407116%" id="linearGradient-13">
            <stop stop-color="#6AC4A1" offset="20.45%"></stop>
            <stop stop-color="#6AC4A1" stop-opacity="0" offset="100%"></stop>
        </linearGradient>
        <linearGradient x1="49.4348735%" y1="100.321404%" x2="49.4348735%" y2="-0.383771277%" id="linearGradient-14">
            <stop stop-color="#4BC1B7" offset="15.34%"></stop>
            <stop stop-color="#4BC1B7" stop-opacity="0" offset="100%"></stop>
        </linearGradient>
        <linearGradient x1="49.9234449%" y1="100.331402%" x2="49.9234449%" y2="-0.351396154%" id="linearGradient-15">
            <stop stop-color="#3AB1CE" offset="19.71%"></stop>
            <stop stop-color="#3AB1CE" stop-opacity="0" offset="100%"></stop>
        </linearGradient>
        <linearGradient x1="50.286302%" y1="100.26643%" x2="50.286302%" y2="-0.270159484%" id="linearGradient-16">
            <stop stop-color="#5C8DC9" offset="17.9%"></stop>
            <stop stop-color="#5C8DC9" stop-opacity="0" offset="100%"></stop>
        </linearGradient>
        <linearGradient x1="50.656302%" y1="100.211256%" x2="50.656302%" y2="-0.196884685%" id="linearGradient-17">
            <stop stop-color="#6B6AB0" offset="0%"></stop>
            <stop stop-color="#6B6AB0" stop-opacity="0" offset="100%"></stop>
        </linearGradient>
        <linearGradient x1="49.5977306%" y1="100.2364%" x2="49.5977306%" y2="-0.249358545%" id="linearGradient-18">
            <stop stop-color="#775CA7" offset="0%"></stop>
            <stop stop-color="#775CA7" stop-opacity="0" offset="100%"></stop>
        </linearGradient>
        <linearGradient x1="49.9605878%" y1="100.239954%" x2="49.9605878%" y2="-0.289646532%" id="linearGradient-19">
            <stop stop-color="#8355A3" offset="18.09%"></stop>
            <stop stop-color="#7855A3" stop-opacity="0.4703" offset="61.22%"></stop>
            <stop stop-color="#7154A3" stop-opacity="0" offset="99.5%"></stop>
        </linearGradient>
        <linearGradient x1="50.3305878%" y1="100.267257%" x2="50.3305878%" y2="-0.287722961%" id="linearGradient-20">
            <stop stop-color="#7154A3" offset="14.38%"></stop>
            <stop stop-color="#6354A4" stop-opacity="0.4364" offset="62.63%"></stop>
            <stop stop-color="#5E54A4" stop-opacity="0" offset="100%"></stop>
        </linearGradient>
        <linearGradient x1="49.4277306%" y1="100.259956%" x2="49.4277306%" y2="-0.2640414%" id="linearGradient-21">
            <stop stop-color="#5E54A4" offset="22.67%"></stop>
            <stop stop-color="#5554A4" stop-opacity="0.5317" offset="58.89%"></stop>
            <stop stop-color="#4F54A4" stop-opacity="0" offset="100%"></stop>
        </linearGradient>
    </defs>
    <g id="aurora-1024" stroke="none" stroke-width="1" fill="none" fill-rule="evenodd">
        <g id="logo_Aurora_Dark" transform="translate(110.080000, 110.080000)">
            <rect id="Rectangle" fill-rule="nonzero" x="0" y="2.56" width="806.4" height="806.4"></rect>
            <g stroke-width="1" fill-rule="evenodd" transform="translate(12.800000, 0.000000)">
                <g id="logo-mark_Aurora" transform="translate(401.920000, 0.000000)">
                    <rect id="Rectangle" fill-rule="nonzero" x="0" y="0" width="281.6" height="806.4"></rect>
                    <g stroke-width="1" fill-rule="evenodd" transform="translate(1.280000, 2.560000)" id="Shape">
                        <path d="M75.264,797.696 C70.4,797.696 66.304,793.6 66.304,788.736 L66.304,690.688 C66.304,685.824 70.4,681.728 75.264,681.728 C80.128,681.728 84.224,685.824 84.224,690.688 L84.224,788.736 C84.224,793.6 80.128,797.696 75.264,797.696 Z" fill="url(#linearGradient-1)" fill-rule="nonzero"></path>
                        <path d="M107.264,794.624 C102.4,794.624 98.304,790.528 98.304,785.664 L98.304,719.36 C98.304,714.496 102.4,710.4 107.264,710.4 C112.128,710.4 116.224,714.496 116.224,719.36 L116.224,785.408 C116.224,790.528 112.384,794.624 107.264,794.624 Z" fill="url(#linearGradient-2)" fill-rule="nonzero"></path>
                        <path d="M75.264,730.112 C70.4,730.112 66.304,726.016 66.304,721.152 L66.304,653.568 C66.304,648.704 70.4,644.608 75.264,644.608 C80.128,644.608 84.224,648.704 84.224,653.568 L84.224,721.152 C84.224,726.016 80.128,730.112 75.264,730.112 Z" fill="url(#linearGradient-3)" fill-rule="nonzero"></path>
                        <path d="M107.264,737.792 C102.4,737.792 98.304,733.696 98.304,728.832 L98.304,624.128 C98.304,619.264 102.4,615.168 107.264,615.168 C112.128,615.168 116.224,619.264 116.224,624.128 L116.224,728.832 C116.224,733.696 112.384,737.792 107.264,737.792 Z" fill="url(#linearGradient-4)" fill-rule="nonzero"></path>
                        <path d="M139.264,772.864 C134.4,772.864 130.304,768.768 130.304,763.904 L130.304,592.128 C130.304,587.264 134.4,583.168 139.264,583.168 C144.128,583.168 148.224,587.264 148.224,592.128 L148.224,763.904 C148.224,768.768 144.384,772.864 139.264,772.864 Z" fill="url(#linearGradient-5)" fill-rule="nonzero"></path>
                        <path d="M171.52,600.064 C166.656,600.064 162.56,595.968 162.56,591.104 L162.56,450.816 C162.56,445.952 166.656,441.856 171.52,441.856 C176.384,441.856 180.48,445.952 180.48,450.816 L180.48,591.104 C180.48,595.968 176.384,600.064 171.52,600.064 Z" fill="url(#linearGradient-6)" fill-rule="nonzero"></path>
                        <path d="M203.52,576.768 C198.656,576.768 194.56,572.672 194.56,567.808 L194.56,443.392 C194.56,438.528 198.656,434.432 203.52,434.432 C208.384,434.432 212.48,438.528 212.48,443.392 L212.48,567.808 C212.48,572.672 208.384,576.768 203.52,576.768 Z" fill="url(#linearGradient-7)" fill-rule="nonzero"></path>
                        <path d="M235.52,552.96 C230.656,552.96 226.56,548.864 226.56,544 L226.56,452.608 C226.56,447.744 230.656,443.648 235.52,443.648 C240.384,443.648 244.48,447.744 244.48,452.608 L244.48,544 C244.48,549.12 240.64,552.96 235.52,552.96 Z" fill="url(#linearGradient-8)" fill-rule="nonzero"></path>
                        <path d="M139.264,621.312 C134.4,621.312 130.304,617.216 130.304,612.352 L130.304,472.576 C130.304,467.712 134.4,463.616 139.264,463.616 C144.128,463.616 148.224,467.712 148.224,472.576 L148.224,612.352 C148.224,617.472 144.384,621.312 139.264,621.312 Z" fill="url(#linearGradient-9)" fill-rule="nonzero"></path>
                        <path d="M107.264,642.816 C102.4,642.816 98.304,638.72 98.304,633.856 L98.304,491.008 C98.304,486.144 102.4,482.048 107.264,482.048 C112.128,482.048 116.224,486.144 116.224,491.008 L116.224,633.856 C116.224,638.72 112.384,642.816 107.264,642.816 Z" fill="url(#linearGradient-10)" fill-rule="nonzero"></path>
                        <path d="M75.264,674.816 C70.4,674.816 66.304,670.72 66.304,665.856 L66.304,511.744 C66.304,506.88 70.4,502.784 75.264,502.784 C80.128,502.784 84.224,506.88 84.224,511.744 L84.224,665.856 C84.224,670.72 80.128,674.816 75.264,674.816 Z" fill="url(#linearGradient-11)" fill-rule="nonzero"></path>
                        <path d="M43.264,711.68 C38.4,711.68 34.304,707.584 34.304,702.72 L34.304,527.872 C34.304,523.008 38.4,518.912 43.264,518.912 C48.128,518.912 52.224,523.008 52.224,527.872 L52.224,702.72 C52.224,707.584 48.128,711.68 43.264,711.68 Z" fill="url(#linearGradient-12)" fill-rule="nonzero"></path>
                        <path d="M11.008,563.456 C6.144,563.456 2.048,559.36 2.048,554.496 L2.048,344.32 C2.048,339.456 6.144,335.36 11.008,335.36 C15.872,335.36 19.968,339.456 19.968,344.32 L19.968,554.496 C19.968,559.36 16.128,563.456 11.008,563.456 Z" fill="url(#linearGradient-13)" fill-rule="nonzero"></path>
                        <path d="M43.008,537.6 C38.144,537.6 34.048,533.504 34.048,528.64 L34.048,239.872 C34.048,235.008 38.144,230.912 43.008,230.912 C47.872,230.912 51.968,235.008 51.968,239.872 L51.968,528.64 C51.968,533.504 47.872,537.6 43.008,537.6 Z" fill="url(#linearGradient-14)" fill-rule="nonzero"></path>
                        <path d="M75.264,516.096 C70.4,516.096 66.304,512 66.304,507.136 L66.304,190.208 C66.304,185.344 70.4,181.248 75.264,181.248 C80.128,181.248 84.224,185.344 84.224,190.208 L84.224,507.392 C84.224,512.256 80.128,516.096 75.264,516.096 Z" fill="url(#linearGradient-15)" fill-rule="nonzero"></path>
                        <path d="M107.264,501.248 C102.4,501.248 98.304,497.152 98.304,492.288 L98.304,88.32 C98.304,83.456 102.4,79.36 107.264,79.36 C112.128,79.36 116.224,83.456 116.224,88.32 L116.224,492.544 C116.224,497.408 112.384,501.248 107.264,501.248 Z" fill="url(#linearGradient-16)" fill-rule="nonzero"></path>
                        <path d="M139.264,487.936 C134.4,487.936 130.304,483.84 130.304,478.976 L130.304,9.472 C130.304,4.608 134.4,0.512 139.264,0.512 C144.128,0.512 148.224,4.608 148.224,9.472 L148.224,478.976 C148.224,483.84 144.384,487.936 139.264,487.936 Z" fill="url(#linearGradient-17)" fill-rule="nonzero"></path>
                        <path d="M171.52,480.768 C166.656,480.768 162.56,476.672 162.56,471.808 L162.56,76.288 C162.56,71.424 166.656,67.328 171.52,67.328 C176.384,67.328 180.48,71.424 180.48,76.288 L180.48,471.808 C180.48,476.672 176.384,480.768 171.52,480.768 Z" fill="url(#linearGradient-18)" fill-rule="nonzero"></path>
                        <path d="M203.52,473.6 C198.656,473.6 194.56,469.504 194.56,464.64 L194.56,84.736 C194.56,79.872 198.656,75.776 203.52,75.776 C208.384,75.776 212.48,79.872 212.48,84.736 L212.48,464.64 C212.48,469.504 208.384,473.6 203.52,473.6 Z" fill="url(#linearGradient-19)" fill-rule="nonzero"></path>
                        <path d="M235.52,473.344 C230.656,473.344 226.56,469.248 226.56,464.384 L226.56,101.888 C226.56,97.024 230.656,92.928 235.52,92.928 C240.384,92.928 244.48,97.024 244.48,101.888 L244.48,464.384 C244.48,469.248 240.64,473.344 235.52,473.344 Z" fill="url(#linearGradient-20)" fill-rule="nonzero"></path>
                        <path d="M265.728,520.96 C260.864,520.96 256.768,516.864 256.768,512 L256.768,127.744 C256.768,122.88 260.864,118.784 265.728,118.784 C270.592,118.784 274.688,122.88 274.688,127.744 L274.688,512 C274.688,516.864 270.592,520.96 265.728,520.96 Z" fill="url(#linearGradient-21)" fill-rule="nonzero"></path>
                    </g>
                </g>
                <g id="aurora-eos" transform="translate(0.000000, 616.960000)" fill="#223D73" fill-rule="nonzero">
                    <g id="Group">
                        <path d="M19.456,6.144 C20.736,3.072 22.784,1.792 26.368,1.792 L29.696,1.792 C32.768,1.792 35.584,2.56 37.12,6.912 L54.016,54.272 C54.528,55.552 55.296,58.112 55.296,59.648 C55.296,62.976 52.224,65.792 48.64,65.792 C45.568,65.792 43.264,64.768 42.24,61.952 L38.656,51.712 L16.128,51.712 L12.544,61.952 C11.52,64.768 9.728,65.792 6.4,65.792 C2.56,65.792 0,63.488 0,59.648 C0,58.112 0.768,55.552 1.28,54.272 L19.456,6.144 Z M28.928,17.152 L20.48,41.984 L36.864,41.984 L28.928,17.152 Z" id="Shape"></path>
                        <path d="M66.048,8.96 C66.048,4.864 68.864,2.048 72.96,2.048 C77.312,2.048 79.872,4.864 79.872,8.96 L79.872,42.752 C79.872,51.2 84.48,55.04 92.672,55.04 C100.864,55.04 105.472,51.2 105.472,42.752 L105.472,8.96 C105.472,4.864 108.288,2.048 112.384,2.048 C116.736,2.048 119.296,4.864 119.296,8.96 L119.296,41.728 C119.296,58.624 108.8,66.304 92.416,66.304 C76.032,66.304 65.536,58.624 65.536,41.728 L65.536,8.96 L66.048,8.96 Z" id="Shape"></path>
                        <path d="M151.552,40.704 L151.552,58.88 C151.552,62.976 148.736,65.792 144.64,65.792 C140.288,65.792 137.728,62.976 137.728,58.88 L137.728,11.264 C137.728,5.12 141.056,3.072 145.92,3.072 L169.216,3.072 C185.856,3.072 190.464,12.288 190.464,20.224 C190.464,26.88 186.112,34.304 179.456,35.84 L192.256,53.76 C193.792,56.064 194.56,57.344 194.56,58.88 C194.56,63.744 191.232,66.048 187.136,66.048 C184.832,66.048 182.528,65.536 180.992,62.72 L166.656,40.704 L151.552,40.704 Z M151.552,30.464 L165.632,30.464 C171.008,30.464 176.384,29.184 176.384,22.016 C176.384,15.36 172.288,13.568 166.144,13.568 L151.552,13.568 L151.552,30.464 Z" id="Shape"></path>
                        <path d="M288.256,40.704 L288.256,58.88 C288.256,62.976 285.44,65.792 281.344,65.792 C276.992,65.792 274.432,62.976 274.432,58.88 L274.432,11.264 C274.432,5.12 277.76,3.072 282.624,3.072 L305.92,3.072 C322.56,3.072 327.168,12.288 327.168,20.224 C327.168,26.88 322.816,34.304 316.16,35.84 L328.96,53.76 C330.496,56.064 331.264,57.344 331.264,58.88 C331.264,63.744 327.936,66.048 323.84,66.048 C321.536,66.048 319.232,65.536 317.696,62.72 L303.36,40.704 L288.256,40.704 Z M288.256,30.464 L302.336,30.464 C307.712,30.464 313.088,29.184 313.088,22.016 C313.088,15.36 308.992,13.568 302.848,13.568 L288.256,13.568 L288.256,30.464 Z" id="Shape"></path>
                        <path d="M230.144,1.536 C250.368,1.536 261.376,15.104 261.376,33.024 C261.376,50.432 251.136,66.048 230.144,66.048 C208.128,66.048 198.912,51.712 198.912,33.024 C198.912,15.104 209.92,1.536 230.144,1.536 Z M230.144,54.784 C242.944,54.784 247.296,44.8 247.296,33.024 C247.296,21.248 241.664,12.8 230.144,12.8 C218.624,12.8 212.992,21.248 212.992,33.024 C212.992,45.056 217.088,54.784 230.144,54.784 Z" id="Shape"></path>
                        <path d="M358.656,6.144 C359.936,3.072 361.984,1.792 365.568,1.792 L368.896,1.792 C371.968,1.792 374.784,2.56 376.32,6.912 L393.216,54.272 C393.728,55.552 394.496,58.112 394.496,59.648 C394.496,62.976 391.424,65.792 387.84,65.792 C384.768,65.792 382.464,64.768 381.44,61.952 L377.856,51.712 L355.328,51.712 L351.744,61.952 C350.72,64.768 348.928,65.792 345.6,65.792 C341.76,65.792 339.2,63.488 339.2,59.648 C339.2,58.112 339.968,55.552 340.48,54.272 L358.656,6.144 Z M367.104,17.152 L358.656,41.984 L375.04,41.984 L367.104,17.152 Z" id="Shape"></path>
                    </g>
                    <g id="Group" transform="translate(596.480000, 0.000000)">
                        <path d="M1.792,11.264 C1.792,5.12 5.12,3.072 9.984,3.072 L43.008,3.072 C47.104,3.072 50.176,4.352 50.176,8.704 C50.176,13.056 47.104,14.336 43.008,14.336 L15.872,14.336 L15.872,27.648 L39.68,27.648 C43.264,27.648 46.336,28.672 46.336,33.024 C46.336,37.376 43.52,38.4 39.68,38.4 L15.872,38.4 L15.872,53.248 L43.776,53.248 C47.872,53.248 50.944,54.528 50.944,58.88 C50.944,63.232 47.872,64.512 43.776,64.512 L10.24,64.512 C5.376,64.512 2.048,62.464 2.048,56.32 L2.048,11.264 L1.792,11.264 Z" id="Shape"></path>
                        <path d="M89.344,1.536 C109.568,1.536 120.576,15.104 120.576,33.024 C120.576,50.432 110.336,66.048 89.344,66.048 C67.328,66.048 58.112,51.712 58.112,33.024 C58.112,15.104 69.12,1.536 89.344,1.536 Z M89.344,54.784 C102.144,54.784 106.496,44.8 106.496,33.024 C106.496,21.248 100.864,12.8 89.344,12.8 C77.824,12.8 72.192,21.248 72.192,33.024 C72.192,45.056 76.288,54.784 89.344,54.784 Z" id="Shape"></path>
                        <path d="M163.84,28.928 C176.64,31.744 179.968,39.424 179.968,46.592 C179.968,57.856 171.52,66.048 154.624,66.048 C136.704,66.048 128.768,57.088 128.768,50.432 C128.768,47.104 131.328,44.544 134.656,44.544 C142.336,44.544 140.288,55.808 154.624,55.808 C161.792,55.808 165.888,51.712 165.888,47.616 C165.888,45.056 164.608,42.496 160,41.216 L144.128,37.12 C131.328,33.792 129.024,26.88 129.024,20.224 C129.024,6.4 141.824,1.28 153.6,1.28 C164.608,1.28 177.664,7.424 177.664,15.616 C177.664,19.2 174.592,21.248 171.264,21.248 C164.864,21.248 165.888,12.032 152.832,12.032 C146.432,12.032 142.592,15.104 142.592,19.2 C142.592,23.552 147.712,24.832 152.32,25.856 L163.84,28.928 Z" id="Shape"></path>
                    </g>
                </g>
            </g>
        </g>
    </g>
</svg>