<svg id="svg" version="1.1" width="400" height="400" viewBox="0 0 400 400" xmlns="http://www.w3.org/2000/svg" xmlns:xlink="http://www.w3.org/1999/xlink" ><g id="svgg"><path id="path0" d="" stroke="none" fill="#555555" fill-rule="evenodd"></path><path id="path1" d="M216.016 315.430 L 216.016 317.578 218.555 317.578 L 221.094 317.578 221.094 315.430 L 221.094 313.281 218.555 313.281 L 216.016 313.281 216.016 315.430 M20.703 326.172 L 20.703 338.672 29.688 338.672 L 38.672 338.672 38.672 336.328 L 38.672 333.984 32.617 333.984 L 26.563 333.984 26.563 323.828 L 26.563 313.672 23.633 313.672 L 20.703 313.672 20.703 326.172 M96.484 326.172 L 96.484 338.672 99.023 338.672 C 101.525 338.672,101.563 338.656,101.593 337.598 C 101.610 337.007,101.714 336.748,101.825 337.022 C 102.517 338.743,108.174 339.704,110.508 338.497 C 115.802 335.759,116.735 325.905,112.096 321.714 C 109.692 319.542,105.720 319.246,103.187 321.050 L 101.953 321.928 101.953 317.800 L 101.953 313.672 99.219 313.672 L 96.484 313.672 96.484 326.172 M132.031 318.037 L 132.031 322.402 131.152 321.601 C 124.342 315.399,115.556 325.090,119.585 334.361 C 121.502 338.772,126.913 340.606,130.610 338.098 C 131.958 337.183,132.031 337.173,132.031 337.902 C 132.031 338.589,132.305 338.672,134.570 338.672 L 137.109 338.672 137.109 326.172 L 137.109 313.672 134.570 313.672 L 132.031 313.672 132.031 318.037 M175.391 326.172 L 175.391 338.729 183.301 338.603 C 192.624 338.454,194.049 337.988,195.716 334.543 C 197.236 331.404,196.030 326.888,193.380 325.790 L 192.236 325.316 193.553 323.999 C 196.147 321.405,195.628 316.462,192.573 314.667 C 191.345 313.946,190.435 313.855,183.301 313.741 L 175.391 313.614 175.391 326.172 M239.063 318.037 L 239.063 322.402 238.184 321.601 C 231.374 315.399,222.587 325.090,226.616 334.361 C 228.533 338.772,233.944 340.606,237.641 338.098 C 238.989 337.183,239.063 337.173,239.063 337.902 C 239.063 338.589,239.336 338.672,241.602 338.672 L 244.141 338.672 244.141 326.172 L 244.141 313.672 241.602 313.672 L 239.063 313.672 239.063 318.037 M305.078 326.172 L 305.078 338.672 308.008 338.672 L 310.938 338.672 310.938 334.180 L 310.938 329.688 314.785 329.688 C 322.037 329.688,325.000 327.347,325.000 321.618 C 325.000 315.398,322.190 313.672,312.065 313.672 L 305.078 313.672 305.078 326.172 M374.609 326.172 L 374.609 338.672 377.148 338.672 L 379.688 338.672 379.688 326.172 L 379.688 313.672 377.148 313.672 L 374.609 313.672 374.609 326.172 M188.631 318.908 C 191.151 321.189,189.136 323.577,184.530 323.771 L 181.250 323.908 181.250 320.898 L 181.250 317.889 184.530 318.026 C 187.074 318.133,187.994 318.331,188.631 318.908 M318.113 318.876 C 321.823 321.307,318.898 325.319,313.379 325.369 L 310.938 325.391 310.938 321.629 L 310.938 317.868 314.030 318.047 C 315.992 318.161,317.484 318.464,318.113 318.876 M46.781 320.478 C 44.005 321.468,42.188 323.474,42.188 325.547 C 42.188 326.807,47.110 326.408,47.736 325.098 C 48.808 322.857,53.167 323.108,53.438 325.427 C 53.608 326.887,52.856 327.299,48.838 327.949 C 43.192 328.862,41.707 330.023,41.707 333.526 C 41.707 338.490,47.109 340.952,52.247 338.331 C 53.621 337.630,53.906 337.586,53.906 338.078 C 53.906 338.551,54.444 338.672,56.543 338.672 L 59.180 338.673 59.081 331.934 C 58.958 323.558,58.857 322.947,57.396 321.718 C 55.281 319.938,50.016 319.323,46.781 320.478 M71.875 320.204 C 71.553 320.325,70.806 320.762,70.215 321.176 C 69.147 321.924,69.141 321.924,69.141 321.120 C 69.141 320.386,68.908 320.313,66.602 320.313 L 64.063 320.313 64.063 329.492 L 64.063 338.672 66.602 338.672 L 69.141 338.672 69.141 333.066 C 69.141 326.728,69.488 325.244,71.178 324.370 C 74.333 322.739,75.135 324.279,75.323 332.324 L 75.471 338.672 77.944 338.672 L 80.416 338.672 80.540 332.192 L 80.664 325.712 81.760 324.770 C 83.103 323.616,83.959 323.584,85.299 324.638 L 86.328 325.447 86.328 332.060 L 86.328 338.672 89.092 338.672 L 91.857 338.672 91.729 331.082 C 91.612 324.134,91.533 323.399,90.793 322.391 C 88.590 319.391,83.428 318.994,80.564 321.604 L 79.682 322.407 78.866 321.531 C 77.517 320.083,73.983 319.412,71.875 320.204 M146.781 320.478 C 144.005 321.468,142.188 323.474,142.188 325.547 C 142.188 326.807,147.110 326.408,147.736 325.098 C 148.808 322.857,153.167 323.108,153.438 325.427 C 153.608 326.887,152.856 327.299,148.838 327.949 C 143.192 328.862,141.707 330.023,141.707 333.526 C 141.707 338.490,147.109 340.952,152.247 338.331 C 153.621 337.630,153.906 337.586,153.906 338.078 C 153.906 338.551,154.444 338.672,156.543 338.672 L 159.180 338.673 159.081 331.934 C 158.958 323.558,158.857 322.947,157.396 321.718 C 155.281 319.938,150.016 319.323,146.781 320.478 M208.756 320.477 C 208.093 320.766,207.170 321.486,206.705 322.077 L 205.859 323.152 205.859 321.732 L 205.859 320.313 203.320 320.313 L 200.781 320.313 200.781 329.492 L 200.781 338.672 203.487 338.672 L 206.192 338.672 206.319 333.014 L 206.445 327.357 207.722 326.081 C 208.822 324.982,209.269 324.805,210.945 324.805 L 212.891 324.805 212.891 322.363 L 212.891 319.922 211.426 319.937 C 210.620 319.946,209.419 320.189,208.756 320.477 M252.551 320.813 C 248.962 322.846,247.493 327.927,249.013 333.045 C 250.547 338.212,256.928 340.107,260.892 336.572 L 261.823 335.742 261.624 337.592 C 261.176 341.765,256.804 343.807,254.816 340.773 C 254.273 339.945,253.917 339.844,251.545 339.844 L 248.883 339.844 249.237 341.078 C 250.799 346.525,261.718 347.510,265.273 342.526 C 266.199 341.228,266.212 341.078,266.327 330.762 L 266.442 320.313 264.080 320.313 C 261.781 320.313,261.719 320.340,261.719 321.357 L 261.719 322.402 260.840 321.601 C 258.675 319.630,255.220 319.301,252.551 320.813 M275.887 320.740 C 269.316 323.993,269.004 334.646,275.383 337.988 C 280.502 340.670,288.672 337.618,288.672 333.023 C 288.672 332.252,284.053 332.884,283.222 333.769 C 280.944 336.193,276.172 334.826,276.172 331.749 L 276.172 330.859 282.617 330.859 L 289.063 330.859 289.063 329.563 C 289.063 322.396,282.041 317.694,275.887 320.740 M333.254 320.946 C 326.858 324.134,326.830 334.648,333.209 338.008 C 341.382 342.312,349.440 335.137,346.844 325.867 C 345.411 320.749,338.600 318.282,333.254 320.946 M355.910 320.946 C 349.514 324.134,349.487 334.648,355.865 338.008 C 364.038 342.312,372.096 335.137,369.501 325.867 C 368.068 320.749,361.256 318.282,355.910 320.946 M216.016 329.492 L 216.016 338.672 218.555 338.672 L 221.094 338.672 221.094 329.492 L 221.094 320.313 218.555 320.313 L 216.016 320.313 216.016 329.492 M107.389 324.397 C 110.567 326.041,110.535 332.961,107.341 334.612 C 104.014 336.333,100.952 332.397,101.995 327.742 C 102.725 324.485,104.923 323.122,107.389 324.397 M129.738 324.440 C 132.846 326.047,132.813 332.954,129.690 334.569 C 126.772 336.078,123.828 333.446,123.828 329.330 C 123.828 325.162,126.638 322.837,129.738 324.440 M236.769 324.440 C 239.877 326.047,239.845 332.954,236.721 334.569 C 233.804 336.078,230.859 333.446,230.859 329.330 C 230.859 325.162,233.669 322.837,236.769 324.440 M258.938 324.261 C 261.766 325.247,262.476 330.539,260.117 333.050 C 257.447 335.892,253.776 333.606,253.776 329.102 C 253.776 325.182,255.891 323.199,258.938 324.261 M281.401 324.202 C 282.312 324.548,283.594 326.374,283.594 327.324 C 283.594 327.582,282.213 327.734,279.883 327.734 C 276.775 327.734,276.172 327.635,276.172 327.123 C 276.172 324.880,279.012 323.294,281.401 324.202 M339.600 324.369 C 343.240 325.890,342.900 333.662,339.145 334.787 C 336.001 335.729,333.887 333.600,333.887 329.492 C 333.887 325.107,336.265 322.975,339.600 324.369 M362.257 324.369 C 365.896 325.890,365.556 333.662,361.801 334.787 C 358.657 335.729,356.543 333.600,356.543 329.492 C 356.543 325.107,358.921 322.975,362.257 324.369 M189.683 329.026 C 192.354 332.133,190.105 334.375,184.317 334.375 L 181.250 334.375 181.250 331.017 L 181.250 327.659 184.995 327.794 C 188.537 327.922,188.792 327.989,189.683 329.026 M53.516 332.049 C 53.516 334.292,52.200 335.547,49.850 335.547 C 45.422 335.547,45.897 331.783,50.438 330.890 C 53.490 330.291,53.516 330.300,53.516 332.049 M153.516 332.049 C 153.516 334.292,152.200 335.547,149.850 335.547 C 145.422 335.547,145.897 331.783,150.438 330.890 C 153.490 330.291,153.516 330.300,153.516 332.049 " stroke="none" fill="#666666" fill-rule="evenodd"></path><path id="path2" d="" stroke="none" fill="#005555" fill-rule="evenodd"></path><path id="path3" d="" stroke="none" fill="#006db6" fill-rule="evenodd"></path><path id="path4" d="" stroke="none" fill="#0055ff" fill-rule="evenodd"></path><path id="path5" d="" stroke="none" fill="#339933" fill-rule="evenodd"></path><path id="path6" d="" stroke="none" fill="#1c8ec6" fill-rule="evenodd"></path><path id="path7" d="" stroke="none" fill="#008ec6" fill-rule="evenodd"></path><path id="path8" d="" stroke="none" fill="#009999" fill-rule="evenodd"></path><path id="path9" d="" stroke="none" fill="#339999" fill-rule="evenodd"></path><path id="path10" d="" stroke="none" fill="#46a274" fill-rule="evenodd"></path><path id="path11" d="" stroke="none" fill="#17a2a2" fill-rule="evenodd"></path><path id="path12" d="M122.048 144.238 C 122.872 146.136,123.178 147.037,123.109 147.363 C 123.075 147.524,160.664 147.656,206.641 147.656 C 262.109 147.656,290.234 147.525,290.234 147.266 C 290.234 147.051,290.059 146.875,289.845 146.875 C 289.631 146.875,288.268 146.308,286.817 145.616 C 285.367 144.923,284.092 144.345,283.984 144.330 C 283.877 144.315,283.227 144.003,282.539 143.636 C 281.372 143.013,275.989 142.969,201.393 142.969 L 121.497 142.969 122.048 144.238 M158.358 155.469 C 158.358 158.584,158.419 159.858,158.493 158.301 C 158.567 156.743,158.567 154.194,158.493 152.637 C 158.419 151.079,158.358 152.354,158.358 155.469 " stroke="none" fill="#2da587" fill-rule="evenodd"></path><path id="path13" d="M117.188 82.818 C 106.768 82.929,98.481 83.060,98.772 83.111 C 99.064 83.162,99.206 83.455,99.087 83.764 C 98.969 84.072,98.998 84.380,99.152 84.447 C 99.305 84.515,99.700 85.449,100.028 86.523 L 100.625 88.477 119.320 88.578 C 133.473 88.655,138.166 88.797,138.636 89.164 C 139.162 89.574,139.189 89.559,138.810 89.063 C 138.564 88.740,138.137 87.686,137.863 86.719 C 137.588 85.752,137.182 84.723,136.960 84.433 C 136.739 84.143,136.519 83.644,136.472 83.323 C 136.425 83.003,136.330 82.713,136.260 82.679 C 136.190 82.645,127.607 82.708,117.188 82.818 M278.817 83.178 C 275.396 84.680,273.443 85.364,272.949 85.234 C 272.788 85.191,272.656 85.342,272.656 85.570 C 272.656 85.797,272.493 85.882,272.293 85.759 C 272.093 85.635,271.817 85.716,271.680 85.938 C 271.543 86.159,271.279 86.247,271.094 86.133 C 270.909 86.018,270.645 86.106,270.508 86.328 C 270.371 86.550,270.095 86.630,269.895 86.507 C 269.695 86.383,269.531 86.430,269.531 86.610 C 269.531 86.791,269.087 86.976,268.543 87.021 C 268.000 87.066,266.901 87.448,266.102 87.870 L 264.648 88.637 286.621 88.655 L 308.594 88.672 308.594 85.752 L 308.594 82.831 294.344 82.724 C 282.639 82.636,279.866 82.717,278.817 83.178 M172.561 83.691 C 172.245 84.175,171.520 85.490,170.951 86.614 L 169.916 88.657 189.036 88.762 L 208.156 88.867 208.621 87.207 C 208.877 86.294,209.268 85.547,209.491 85.547 C 209.714 85.547,209.787 85.438,209.654 85.305 C 209.521 85.172,209.668 84.808,209.980 84.496 C 211.656 82.819,211.585 82.813,191.842 82.813 L 173.137 82.813 172.561 83.691 " stroke="none" fill="#2099cc" fill-rule="evenodd"></path><path id="path14" d="M95.959 72.199 C 95.112 73.135,95.143 73.978,96.123 76.568 C 96.569 77.747,97.075 79.150,97.249 79.688 C 97.422 80.225,97.789 81.147,98.063 81.738 L 98.563 82.813 117.227 82.813 C 127.492 82.813,135.983 82.664,136.096 82.482 C 136.286 82.175,134.327 76.783,133.001 73.964 C 132.682 73.287,132.422 72.559,132.422 72.346 C 132.422 71.129,97.056 70.986,95.959 72.199 M175.076 78.027 C 173.297 81.626,172.161 84.171,172.550 83.684 L 173.257 82.797 192.063 82.903 L 210.869 83.008 213.040 78.411 C 216.554 70.967,217.844 71.484,195.763 71.484 L 178.309 71.484 175.076 78.027 M302.674 74.012 C 299.777 75.049,289.400 78.995,287.695 79.708 C 287.051 79.978,286.290 80.245,286.005 80.303 C 285.720 80.361,284.841 80.721,284.052 81.103 C 283.263 81.485,282.441 81.824,282.227 81.855 C 282.012 81.887,281.616 81.939,281.348 81.972 C 281.079 82.004,280.859 82.207,280.859 82.422 C 280.859 82.675,285.742 82.813,294.727 82.813 L 308.594 82.813 308.594 78.966 C 308.594 73.240,307.466 72.296,302.674 74.012 " stroke="none" fill="#0c9ece" fill-rule="evenodd"></path><path id="path15" d="" stroke="none" fill="#3bb162" fill-rule="evenodd"></path><path id="path16" d="M206.970 147.559 L 123.511 147.658 123.933 149.032 L 124.354 150.406 141.376 150.390 C 150.739 150.382,176.192 150.379,197.939 150.383 L 237.479 150.391 237.598 156.152 L 237.718 161.914 237.804 156.152 L 237.891 150.391 267.090 150.360 L 296.289 150.329 294.456 149.449 C 293.447 148.966,292.349 148.343,292.014 148.065 C 291.680 147.788,291.406 147.692,291.406 147.852 C 291.406 148.012,291.187 147.989,290.918 147.802 C 290.643 147.610,254.026 147.504,206.970 147.559 " stroke="none" fill="#28ae94" fill-rule="evenodd"></path><path id="path17" d="M119.629 88.574 C 107.517 88.642,100.781 88.818,100.781 89.066 C 100.781 89.279,100.967 89.453,101.195 89.453 C 101.422 89.453,101.505 89.621,101.378 89.826 C 101.252 90.031,101.681 91.374,102.332 92.810 C 102.983 94.246,103.516 95.571,103.516 95.754 C 103.516 95.938,104.644 99.034,106.022 102.634 C 107.401 106.234,110.548 114.453,113.015 120.898 C 119.538 137.937,121.122 141.934,121.570 142.480 C 121.888 142.868,138.380 142.966,201.708 142.957 C 276.417 142.946,283.776 142.855,279.329 141.998 C 278.925 141.921,277.878 141.404,277.001 140.850 C 276.124 140.297,275.331 139.844,275.239 139.844 C 275.147 139.844,270.498 137.596,264.909 134.849 L 254.747 129.855 280.763 120.105 C 295.072 114.742,307.188 110.034,307.687 109.641 L 308.594 108.928 308.594 98.806 L 308.594 88.685 286.495 88.581 C 274.341 88.523,264.142 88.619,263.831 88.794 C 263.520 88.968,262.873 89.185,262.394 89.277 C 261.501 89.447,256.351 91.403,253.906 92.499 C 252.230 93.251,252.411 93.188,250.888 93.547 C 250.194 93.711,249.434 94.076,249.199 94.360 C 248.964 94.643,248.520 94.779,248.214 94.662 C 247.907 94.544,247.656 94.605,247.656 94.797 C 247.656 94.989,247.333 95.171,246.939 95.200 C 246.544 95.230,245.108 95.707,243.746 96.260 C 242.385 96.813,241.148 97.266,240.996 97.266 C 240.844 97.266,240.040 97.560,239.208 97.921 C 238.376 98.281,237.520 98.622,237.305 98.678 C 236.860 98.795,232.325 100.474,227.148 102.439 C 210.566 108.732,196.024 114.119,195.927 114.005 C 195.862 113.929,197.235 110.962,198.979 107.411 C 203.531 98.138,205.273 94.377,205.169 94.043 C 205.119 93.882,205.254 93.750,205.469 93.750 C 205.684 93.750,205.859 93.398,205.859 92.969 C 205.859 92.539,206.035 92.188,206.250 92.188 C 206.465 92.188,206.641 91.851,206.641 91.439 C 206.641 91.027,206.793 90.632,206.980 90.560 C 207.166 90.488,207.442 90.034,207.592 89.551 L 207.865 88.672 188.796 88.685 L 169.727 88.698 168.590 91.126 C 167.965 92.462,167.481 93.687,167.516 93.848 C 167.550 94.009,167.392 94.141,167.164 94.141 C 166.937 94.141,166.859 94.316,166.992 94.531 C 167.125 94.746,167.085 94.922,166.902 94.922 C 166.720 94.922,163.414 101.330,159.555 109.163 C 155.696 116.995,152.444 123.411,152.328 123.420 C 152.212 123.430,149.769 117.329,146.899 109.863 C 144.028 102.397,141.406 95.762,141.071 95.117 C 140.736 94.473,140.452 93.857,140.440 93.750 C 140.428 93.643,140.278 93.335,140.108 93.066 C 139.937 92.798,139.916 92.578,140.061 92.578 C 140.206 92.578,140.036 92.139,139.684 91.602 C 139.332 91.064,139.143 90.625,139.263 90.625 C 139.382 90.625,139.261 90.229,138.993 89.746 C 138.725 89.263,138.543 88.735,138.589 88.574 C 138.635 88.413,138.628 88.323,138.574 88.375 C 138.521 88.427,129.995 88.516,119.629 88.574 " stroke="none" fill="#24a4c5" fill-rule="evenodd"></path><path id="path18" d="" stroke="none" fill="#5eae5e" fill-rule="evenodd"></path><path id="path19" d="" stroke="none" fill="#24b66d" fill-rule="evenodd"></path><path id="path20" d="" stroke="none" fill="#0099ff" fill-rule="evenodd"></path><path id="path21" d="M124.760 150.879 C 124.805 151.147,125.047 151.740,125.298 152.195 C 125.549 152.650,125.662 153.114,125.550 153.226 C 125.438 153.338,125.695 154.196,126.121 155.133 C 126.546 156.070,127.335 158.066,127.873 159.570 C 128.412 161.074,130.535 166.695,132.593 172.061 C 134.651 177.427,136.289 181.931,136.234 182.070 C 136.178 182.209,134.111 181.331,131.641 180.119 C 129.170 178.907,123.896 176.350,119.922 174.436 C 115.947 172.522,109.122 169.229,104.754 167.118 C 92.106 161.006,93.359 159.387,93.359 181.832 L 93.359 199.210 96.582 200.792 C 98.354 201.662,99.463 202.104,99.046 201.773 C 98.362 201.230,100.742 201.172,123.558 201.172 L 148.828 201.172 148.828 175.781 L 148.828 150.391 136.753 150.391 C 127.310 150.391,124.696 150.497,124.760 150.879 M158.517 155.957 C 158.452 159.019,158.453 161.655,158.519 161.816 C 158.586 161.978,176.383 162.109,198.070 162.109 L 237.500 162.109 237.500 156.250 L 237.500 150.391 198.067 150.391 L 158.635 150.391 158.517 155.957 M251.172 175.781 L 251.172 201.172 262.891 201.172 C 274.800 201.172,275.024 201.143,274.241 199.702 C 274.038 199.329,273.179 197.178,272.332 194.922 C 271.485 192.666,269.255 186.815,267.376 181.920 C 265.497 177.024,264.027 172.956,264.109 172.879 C 264.191 172.802,267.251 174.171,270.910 175.921 C 297.379 188.579,305.130 192.188,305.847 192.188 C 306.225 192.188,306.998 191.823,307.565 191.378 L 308.594 190.568 308.594 173.665 C 308.594 158.058,308.541 156.715,307.910 156.155 C 307.067 155.407,303.166 153.516,302.466 153.516 C 302.184 153.516,301.953 153.360,301.953 153.171 C 301.953 152.981,301.558 152.722,301.074 152.596 C 299.923 152.295,300.061 152.354,298.086 151.304 L 296.368 150.391 273.770 150.391 L 251.172 150.391 251.172 175.781 M194.141 178.321 C 183.828 180.405,175.225 187.450,170.614 197.587 C 169.151 200.803,168.505 202.895,169.297 201.851 C 169.789 201.202,171.597 201.168,200.664 201.265 L 231.508 201.367 231.118 200.098 C 230.904 199.399,230.611 198.828,230.468 198.828 C 230.325 198.828,230.208 198.608,230.208 198.340 C 230.207 198.071,229.483 196.533,228.597 194.922 C 221.622 182.228,207.788 175.563,194.141 178.321 " stroke="none" fill="#3bafa0" fill-rule="evenodd"></path><path id="path22" d="" stroke="none" fill="#14b1b1" fill-rule="evenodd"></path><path id="path23" d="M99.046 201.745 C 99.463 202.061,99.953 202.324,100.135 202.331 C 100.317 202.338,100.976 202.707,101.600 203.152 C 102.224 203.596,102.737 203.816,102.740 203.640 C 102.744 203.464,102.875 203.498,103.033 203.716 C 103.284 204.061,112.960 208.897,139.180 221.783 L 146.133 225.200 134.297 229.658 C 127.787 232.110,122.294 234.262,122.090 234.441 C 121.886 234.619,121.402 234.766,121.016 234.766 C 120.629 234.766,120.313 234.952,120.313 235.179 C 120.313 235.407,120.140 235.487,119.930 235.357 C 119.720 235.227,119.148 235.342,118.660 235.613 C 118.173 235.884,117.686 236.126,117.578 236.151 C 116.090 236.499,115.234 236.873,115.234 237.175 C 115.234 237.379,115.077 237.449,114.885 237.330 C 114.592 237.149,111.719 238.105,111.719 238.384 C 111.719 238.435,141.558 238.477,178.027 238.477 L 244.336 238.477 246.261 234.983 L 248.186 231.489 248.957 233.225 C 249.381 234.180,249.777 235.202,249.837 235.497 C 249.896 235.792,250.153 236.536,250.408 237.150 L 250.870 238.267 269.966 238.372 C 280.469 238.429,289.063 238.345,289.063 238.184 C 289.063 238.022,288.924 237.891,288.755 237.891 C 288.586 237.891,288.418 237.498,288.382 237.018 C 288.346 236.537,288.131 236.083,287.906 236.008 C 287.680 235.932,287.574 235.743,287.670 235.587 C 287.767 235.431,286.528 231.886,284.917 227.710 C 283.306 223.534,280.657 216.602,279.030 212.305 C 277.403 208.008,275.751 203.855,275.358 203.076 C 274.964 202.297,274.753 201.550,274.887 201.416 C 275.021 201.282,269.740 201.172,263.151 201.172 L 251.172 201.172 251.172 206.836 L 251.172 212.500 242.241 212.500 L 233.311 212.500 233.042 209.473 C 232.801 206.760,232.345 204.420,231.727 202.734 C 231.609 202.412,231.498 201.973,231.479 201.758 C 231.457 201.502,220.786 201.333,200.534 201.267 L 169.622 201.167 168.971 202.541 C 168.612 203.297,168.426 204.089,168.557 204.301 C 168.689 204.514,168.610 204.688,168.382 204.688 C 168.155 204.688,167.999 204.819,168.036 204.980 C 168.072 205.142,167.988 206.064,167.848 207.031 C 167.580 208.880,167.227 211.710,167.202 212.207 C 167.194 212.368,163.057 212.500,158.008 212.500 L 148.828 212.500 148.828 206.836 L 148.828 201.172 123.558 201.172 C 101.255 201.172,98.377 201.239,99.046 201.745 M109.473 239.000 C 108.560 239.343,107.813 239.753,107.813 239.909 C 107.813 240.233,110.545 239.178,111.113 238.636 C 111.555 238.213,111.574 238.209,109.473 239.000 " stroke="none" fill="#46b48e" fill-rule="evenodd"></path><path id="path24" d="" stroke="none" fill="#33bb77" fill-rule="evenodd"></path><path id="path25" d="" stroke="none" fill="#24b6b6" fill-rule="evenodd"></path><path id="path26" d="" stroke="none" fill="#00b6b6" fill-rule="evenodd"></path><path id="path27" d="M110.080 239.138 C 109.286 239.550,108.160 239.974,107.577 240.080 C 106.492 240.277,102.023 241.886,97.852 243.581 C 96.563 244.105,95.315 244.533,95.080 244.532 C 93.412 244.528,93.359 245.096,93.359 263.214 C 93.359 281.806,93.384 282.031,95.448 282.031 C 96.029 282.031,105.618 278.437,161.328 257.340 C 168.740 254.533,175.859 251.846,177.148 251.368 C 178.438 250.890,180.635 250.044,182.031 249.489 C 183.428 248.934,186.768 247.657,189.453 246.651 C 192.139 245.646,195.215 244.483,196.289 244.068 C 197.363 243.653,199.473 242.862,200.977 242.310 C 202.480 241.759,203.799 241.198,203.906 241.064 C 204.014 240.930,204.369 240.778,204.696 240.726 C 205.088 240.664,203.821 243.592,200.978 249.320 C 190.054 271.329,185.545 280.727,185.546 281.482 C 185.548 283.599,185.505 283.594,204.526 283.594 L 222.076 283.594 233.011 261.682 C 239.025 249.631,243.901 239.612,243.848 239.417 C 243.794 239.222,243.936 239.063,244.164 239.063 C 244.391 239.063,244.468 238.886,244.335 238.670 C 243.806 237.814,111.742 238.274,110.080 239.138 M251.255 238.965 C 251.582 239.341,251.844 239.912,251.837 240.234 C 251.827 240.722,254.895 248.955,259.188 259.961 C 259.691 261.250,260.742 263.975,261.523 266.016 C 266.693 279.516,268.018 282.758,268.546 283.196 C 269.424 283.924,304.227 283.556,304.696 282.813 C 305.373 281.742,305.093 280.199,303.484 276.115 C 301.483 271.039,301.262 270.468,296.242 257.422 C 293.969 251.514,291.761 245.801,291.336 244.727 C 290.911 243.652,290.393 242.202,290.185 241.504 C 289.977 240.806,289.621 240.234,289.393 240.234 C 289.165 240.234,289.072 239.992,289.185 239.696 C 289.703 238.348,288.778 238.281,269.588 238.281 C 251.595 238.281,250.690 238.315,251.255 238.965 " stroke="none" fill="#52ba7b" fill-rule="evenodd"></path><path id="path28" d="" stroke="none" fill="#55c655" fill-rule="evenodd"></path><path id="path29" d="" stroke="none" fill="#1cc68e" fill-rule="evenodd"></path><path id="path30" d="" stroke="none" fill="#00ff00" fill-rule="evenodd"></path><path id="path31" d="" stroke="none" fill="#00ffff" fill-rule="evenodd"></path></g></svg>