<?xml version="1.0" standalone="no"?>
<!DOCTYPE svg PUBLIC "-//W3C//DTD SVG 20010904//EN"
 "http://www.w3.org/TR/2001/REC-SVG-20010904/DTD/svg10.dtd">
<svg version="1.0" xmlns="http://www.w3.org/2000/svg"
 width="1024.000000pt" height="1024.000000pt" viewBox="0 0 1024.000000 1024.000000"
 preserveAspectRatio="xMidYMid meet">

<g transform="translate(0.000000,1024.000000) scale(0.100000,-0.100000)"
fill="#000000" stroke="none">
<path d="M5212 9208 c5 -12 24 -70 144 -443 152 -470 151 -465 364 -1125 127
-393 191 -592 272 -838 l63 -193 16 68 c9 37 28 127 43 198 15 72 33 159 41
195 8 36 33 153 55 260 22 107 47 224 55 260 8 36 26 121 40 190 14 69 32 154
40 190 62 280 94 445 87 451 -6 6 -835 548 -1141 747 -46 30 -82 48 -79 40z"/>
<path d="M4342 8807 l-593 -372 5 -35 c2 -19 23 -123 46 -230 22 -107 45 -215
50 -240 11 -53 92 -442 115 -550 14 -69 45 -215 125 -605 17 -82 34 -158 38
-168 5 -12 20 25 49 115 22 73 98 313 168 533 181 571 313 988 340 1075 13 41
55 176 95 300 40 124 82 259 95 300 13 41 35 111 49 155 28 87 30 95 19 94 -5
0 -275 -168 -601 -372z"/>
<path d="M5085 9109 c-12 -41 -146 -463 -155 -489 -5 -14 -41 -126 -80 -250
-39 -124 -78 -243 -85 -265 -8 -22 -44 -134 -80 -250 -36 -115 -72 -228 -80
-250 -7 -22 -46 -141 -85 -265 -39 -124 -75 -236 -80 -250 -5 -14 -27 -81 -48
-150 -22 -69 -72 -224 -111 -345 -39 -121 -73 -234 -77 -251 -5 -28 30 -80
436 -640 244 -335 444 -610 445 -611 1 -2 207 277 457 618 388 529 455 625
448 643 -5 11 -109 334 -230 716 -122 382 -246 769 -275 860 -55 170 -160 498
-285 890 -39 124 -77 241 -83 260 -15 48 -24 56 -32 29z"/>
<path d="M9205 4218 c-3 -7 -4 -348 -3 -758 l3 -745 130 0 130 0 0 755 0 755
-128 3 c-96 2 -129 -1 -132 -10z"/>
<path d="M2355 4189 c-166 -16 -291 -71 -396 -174 -58 -57 -89 -106 -124 -196
-71 -180 -83 -452 -29 -664 53 -209 193 -360 396 -426 66 -22 90 -24 253 -24
163 0 187 2 253 24 285 93 432 336 432 716 0 246 -66 448 -186 567 -103 102
-230 161 -375 173 -41 3 -87 7 -104 9 -16 2 -70 -1 -120 -5z m250 -244 c192
-50 266 -188 266 -496 0 -389 -123 -531 -447 -517 -92 4 -119 9 -171 33 -162
72 -221 220 -211 525 5 124 9 157 33 228 43 127 111 193 235 228 65 18 224 17
295 -1z"/>
<path d="M3756 4189 c-241 -25 -391 -146 -427 -342 -23 -125 16 -260 98 -339
50 -49 152 -96 347 -159 230 -75 288 -122 288 -230 0 -120 -111 -177 -327
-166 -127 7 -201 27 -311 86 -41 23 -77 41 -80 41 -2 0 -4 -59 -4 -131 l0
-130 83 -39 c134 -62 199 -75 382 -75 187 0 250 16 352 88 112 79 160 157 170
277 15 180 -70 351 -214 427 -32 17 -125 52 -208 78 -272 84 -310 109 -310
205 0 51 4 63 29 89 50 52 124 74 251 74 124 1 190 -15 289 -66 34 -18 64 -33
69 -35 4 -2 7 53 7 122 0 119 -1 126 -22 140 -38 25 -199 74 -263 81 -33 3
-73 7 -90 9 -16 2 -65 0 -109 -5z"/>
<path d="M680 3445 l0 -735 488 2 487 3 0 115 0 115 -355 5 -355 5 -3 183 -2
182 310 0 310 0 0 125 0 125 -310 0 -310 0 2 183 3 182 355 5 355 5 0 115 0
115 -487 3 -488 2 0 -735z"/>
<path d="M4565 4168 c-3 -7 -4 -337 -3 -733 l3 -720 130 0 130 0 5 535 5 535
220 -317 c121 -174 222 -317 225 -317 3 0 104 142 225 316 l220 317 5 -535 5
-534 130 0 130 0 0 730 0 730 -145 3 -145 3 -210 -305 c-116 -168 -212 -305
-215 -305 -3 0 -99 137 -214 304 l-209 305 -144 0 c-106 0 -145 -3 -148 -12z"/>
<path d="M7400 3970 l0 -160 -90 0 -90 0 0 -115 0 -115 90 0 90 0 0 -254 c0
-276 10 -387 42 -450 28 -57 84 -113 143 -144 46 -25 59 -27 170 -27 71 0 131
5 148 13 l27 12 0 105 0 106 -47 -8 c-58 -10 -118 -10 -155 0 -54 14 -58 38
-58 357 l0 290 130 0 130 0 0 115 0 115 -130 0 -130 0 0 160 0 160 -135 0
-135 0 0 -160z"/>
<path d="M6580 3819 c-84 -14 -171 -61 -229 -124 -90 -99 -129 -212 -138 -400
-15 -319 102 -517 342 -580 78 -20 254 -20 353 1 42 9 110 29 150 46 l72 30 0
108 0 108 -72 -28 c-96 -37 -182 -52 -298 -53 -99 0 -167 19 -213 61 -27 24
-53 80 -62 130 l-7 42 350 0 c310 0 351 2 356 16 11 28 6 167 -9 249 -27 153
-120 292 -235 350 -97 49 -228 65 -360 44z m212 -232 c63 -37 101 -105 123
-214 l7 -33 -222 0 -221 0 7 48 c22 152 90 221 214 222 40 0 65 -6 92 -23z"/>
<path d="M8400 3820 c-87 -9 -158 -25 -206 -45 l-34 -14 0 -105 c0 -59 2 -106
5 -106 2 0 22 6 42 14 65 25 154 39 258 40 89 1 106 -2 150 -24 56 -29 95 -89
95 -148 0 -29 -3 -33 -20 -27 -12 4 -80 7 -153 7 -267 2 -402 -68 -468 -241
-65 -172 44 -378 236 -445 63 -23 276 -33 359 -17 129 24 220 87 277 193 l34
63 0 270 c0 260 -1 272 -24 328 -31 77 -94 154 -159 194 -90 53 -244 78 -392
63z m299 -587 c23 -6 23 -7 19 -105 -6 -110 -18 -137 -79 -173 -47 -28 -187
-28 -241 -1 -51 25 -79 73 -81 138 -2 88 39 127 154 147 52 9 178 6 228 -6z"/>
</g>
</svg>
